<svg width="300" height="300" viewBox="0 0 300 300" fill="none" xmlns="http://www.w3.org/2000/svg">
<path fill-rule="evenodd" clip-rule="evenodd" d="M132.924 0.70961C105.402 3.87887 78.1543 15.2387 56.5588 32.5479C-12.5842 87.9661 -19.3654 190.518 41.9242 253.873C70.8897 283.815 108.81 300 150 300C191.189 300 229.11 283.815 258.075 253.873C310.226 199.965 314.203 115.014 267.317 56.4407C242.154 25.0028 206.033 5.11508 165.962 0.634574C158.116 -0.242805 140.852 -0.203429 132.924 0.70961ZM177.765 20.0417C204.533 25.4835 231.021 40.9353 249.533 61.9085C263.058 77.2318 273.439 96.7407 278.481 116.307C292.774 171.779 270.669 229.498 223.128 260.845C191.323 281.815 152.233 288.164 115.517 278.321L109.617 276.74L112.918 273.849C121.001 266.773 135.331 258.598 145.833 255.07C155.944 251.674 161.613 250.765 173.015 250.714C183.861 250.665 188.069 251.236 197.831 254.081C202.374 255.404 203.499 255.475 207.466 254.694C213.956 253.417 220.9 250.437 223.435 247.842C226.278 244.933 231.913 233.813 231.913 231.114C231.913 229.837 230.177 226.297 227.438 221.988C218.314 207.637 215.541 200.124 214.629 187.294C214.088 179.659 213.791 178.467 211.123 173.179C207.588 166.17 206.267 165.379 197.143 164.805L190.462 164.384L193.802 163.325C195.805 162.69 200.264 162.265 204.939 162.261C211.644 162.257 213.824 162.593 220.529 164.667C224.817 165.993 230.168 167.274 232.419 167.513C237.374 168.04 244.46 166.392 248.666 163.735C251.484 161.955 255.965 156.925 255.314 156.273C255.14 156.099 253.173 156.494 250.942 157.151C244.7 158.989 239.062 157.72 225.705 151.468C219.671 148.643 212.446 145.623 209.65 144.754C203.231 142.761 194.126 142.616 188.089 144.409C181.61 146.334 175.958 146.007 168.556 143.279C146.034 134.981 128.123 136.394 97.4178 148.889C87.2296 153.036 84.6779 153.477 80.2122 151.864C76.7281 150.606 76.9397 149.227 80.9547 147.031C84.3668 145.164 93.5758 136.556 93.5758 135.235C93.5758 134.178 90.2022 133.49 87.822 134.062C84.1367 134.949 80.6607 137.097 75.4407 141.716C72.6121 144.219 69.4932 146.469 68.5095 146.716C64.7425 147.662 57.4044 146.441 52.0716 143.982C49.1732 142.644 46.4277 141.099 45.9697 140.547C45.5116 139.995 44.4262 139.532 43.5575 139.519C41.4921 139.489 39.3792 137.847 39.3792 136.274C39.3792 134.223 41.9034 129.977 48.2563 121.341C51.563 116.847 54.6344 111.832 55.0814 110.198C55.5966 108.316 55.7236 103.933 55.4273 98.2443L54.9589 89.2625L57.077 86.3577C58.2411 84.7605 62.1841 80.1418 65.8383 76.0959L72.4829 68.7381L78.7601 68.8555L85.038 68.9728L80.9613 67.5368C78.5604 66.6914 76.0087 65.1201 74.7525 63.7138C72.9484 61.693 72.6811 60.8773 73.013 58.4027C73.7272 53.073 77.1795 51.1481 86.0373 51.1407C89.4405 51.1377 91.2951 50.7499 92.719 49.7448C98.472 45.6811 104.097 43.5519 132.182 34.8048C145.993 30.5026 155.863 25.9634 161.878 21.1464C166.442 17.492 165.533 17.5551 177.765 20.0417ZM69.6328 96.1411C66.8762 98.3988 64.6215 100.388 64.6215 100.56C64.6215 100.732 65.591 101.375 66.7759 101.988C68.8027 103.037 68.9936 103.006 70.0107 101.45C71.2772 99.514 75.1319 91.9875 74.8423 92.0165C74.7332 92.0269 72.3894 93.8834 69.6328 96.1411ZM208.307 195.306C208.523 195.655 207.693 196.462 206.463 197.098L204.226 198.255L201.613 193.062C200.175 190.206 198.999 187.66 198.999 187.406C198.999 186.906 207.658 194.255 208.307 195.306Z" fill="white"/>
</svg>
