<svg width="32" height="32" viewBox="0 0 32 32" fill="none" xmlns="http://www.w3.org/2000/svg">
<circle cx="16" cy="16" r="16" fill="#CCEDDF"/>
<path fill-rule="evenodd" clip-rule="evenodd" d="M12.1604 13.8875L16.0004 25.2623L6.40039 13.8875H12.1604Z" fill="#007A46"/>
<path d="M21.518 8.80511H15.998L19.838 13.8875L21.518 8.80511Z" fill="#00C26F"/>
<path d="M15.998 25.2623L25.598 13.8875H19.838L15.998 25.2623Z" fill="#00C26F"/>
<path d="M19.8382 13.8875H12.1582L15.9982 25.2623L19.8382 13.8875Z" fill="#01A35E"/>
<path d="M10.4824 8.80511L12.1624 13.8875L16.0024 8.80511H10.4824Z" fill="#01A35E"/>
<path d="M25.5998 13.8875L21.5198 8.80511L19.8398 13.8875H25.5998Z" fill="#02B367"/>
<path d="M15.9982 8.80511L12.1582 13.8875H19.8382L15.9982 8.80511Z" fill="#02B367"/>
<path d="M10.4804 8.80511L6.40039 13.8875H12.1604L10.4804 8.80511Z" fill="#02B367"/>
</svg>
