<svg width="32" height="32" viewBox="0 0 32 32" fill="none" xmlns="http://www.w3.org/2000/svg">
<circle cx="16" cy="16" r="16" fill="#DCE2EA"/>
<path fill-rule="evenodd" clip-rule="evenodd" d="M12.1604 13.8855L16.0004 25.2603L6.40039 13.8855H12.1604Z" fill="#828E9D"/>
<path d="M21.518 8.80313H15.998L19.838 13.8855L21.518 8.80313Z" fill="#B2BFD0"/>
<path d="M15.998 25.2603L25.598 13.8855H19.838L15.998 25.2603Z" fill="#B2BFD0"/>
<path d="M19.8424 13.8855H12.1624L16.0024 25.2603L19.8424 13.8855Z" fill="#98A5B6"/>
<path d="M10.4824 8.80313L12.1624 13.8855L16.0024 8.80313H10.4824Z" fill="#98A5B6"/>
<path d="M25.6004 13.8855L21.5204 8.80313L19.8404 13.8855H25.6004Z" fill="#A6B3C5"/>
<path d="M16.0004 8.80313L12.1604 13.8855H19.8404L16.0004 8.80313Z" fill="#A6B3C5"/>
<path d="M10.4804 8.80313L6.40039 13.8855H12.1604L10.4804 8.80313Z" fill="#A6B3C5"/>
</svg>
