<svg width="114" height="32" xmlns="http://www.w3.org/2000/svg">
  <g fill="none" fill-rule="evenodd">
    <path d="M66-6h54v44H66z"/>
    <path d="M79.55 31.82v-2.158c.026-.367-.11-.728-.374-.99-.263-.26-.628-.4-1.002-.377-.493-.032-.965.203-1.23.61-.243-.395-.687-.63-1.157-.61-.41-.02-.8.174-1.025.51v-.424H74v3.44h.77v-1.89c-.034-.24.042-.48.208-.65.166-.17.403-.27.648-.26.505 0 .76.33.76.91v1.92h.77v-1.91c-.032-.23.045-.47.21-.65.166-.17.403-.27.647-.26.52 0 .768.33.768.91v1.92l.77-.01zm11.375-3.44h-1.252v-1.04h-.77v1.043h-.694v.685h.71v1.582c0 .8.31 1.274 1.21 1.274.33.002.66-.09.95-.265l-.22-.64c-.21.12-.44.18-.68.19-.37 0-.51-.23-.51-.58v-1.57h1.24l-.01-.69zm6.495-.085c-.378-.01-.732.182-.923.504v-.42h-.754v3.44h.762v-1.93c0-.57.25-.89.732-.89.163 0 .325.02.476.08l.234-.72c-.174-.06-.357-.1-.542-.1l.015.01zm-9.82.36c-.43-.252-.926-.377-1.427-.36-.886 0-1.464.417-1.464 1.1 0 .562.42.907 1.2 1.015l.36.05c.41.058.61.166.61.36 0 .266-.28.417-.8.417-.42.012-.83-.114-1.17-.36l-.37.583c.442.305.973.46 1.514.446 1.01 0 1.6-.467 1.6-1.122s-.46-.92-1.223-1.03l-.365-.05c-.33-.042-.59-.107-.59-.337 0-.23.25-.403.663-.403.387.004.765.106 1.1.295l.34-.61zm20.397-.36c-.378-.01-.732.182-.923.504v-.42h-.754v3.44h.762v-1.93c0-.57.25-.89.732-.89.163 0 .325.02.476.08l.234-.72c-.174-.06-.357-.1-.542-.1l.015.01zm-9.812 1.8c-.018.487.174.96.53 1.303.355.342.84.522 1.337.494.458.023.907-.123 1.26-.41l-.366-.604c-.264.197-.585.305-.916.31-.583-.047-1.033-.526-1.033-1.102 0-.575.45-1.054 1.033-1.1.33.003.652.112.916.31l.366-.605c-.353-.28-.802-.43-1.26-.41-.496-.02-.982.16-1.338.5-.355.34-.547.82-.53 1.31v.02zm7.132 0V28.38h-.76v.42c-.264-.333-.673-.52-1.1-.505-1.01 0-1.83.805-1.83 1.8 0 .992.82 1.797 1.83 1.797.427.016.836-.172 1.1-.504v.418h.76v-1.712zm-2.834 0c.034-.566.52-1 1.096-.98.57.022 1.02.49 1.01 1.056-.01.57-.48 1.02-1.06 1.03-.3.01-.58-.11-.78-.32-.2-.21-.31-.49-.29-.78zm-9.19-1.8c-1.01.014-1.818.83-1.804 1.824.01.99.84 1.78 1.85 1.77.52.02 1.04-.14 1.45-.47l-.37-.56c-.29.22-.65.35-1.02.36-.53.04-.99-.33-1.05-.85h2.6v-.28c0-1.08-.69-1.8-1.67-1.8l-.01-.01zm0 .67c.23-.006.454.08.62.236.166.16.262.38.267.6h-1.83c.027-.48.44-.85.93-.83h.014zm19.08 1.136V27h-.733v1.8c-.263-.333-.67-.52-1.1-.505-1.01 0-1.83.805-1.83 1.8 0 .992.82 1.797 1.83 1.797.43.016.837-.172 1.1-.504v.418h.732V30.1zm1.27 1.22c.047 0 .094.01.14.03.04.02.08.04.112.07.032.03.058.07.077.11.037.09.037.18 0 .27-.02.04-.045.08-.077.11-.033.03-.07.06-.113.07-.044.02-.092.03-.14.03-.14 0-.27-.08-.33-.21-.036-.08-.036-.18 0-.26.02-.04.046-.07.078-.11.033-.03.07-.05.113-.07.048-.02.1-.03.15-.02h-.01zm0 .61c.036 0 .072 0 .106-.02.03-.01.06-.03.08-.05.09-.1.09-.26 0-.36-.03-.02-.06-.04-.09-.05-.04-.01-.07-.02-.11-.02-.04 0-.08.01-.11.03-.04.016-.07.03-.09.06-.1.1-.1.257 0 .36.02.024.05.043.08.056.04.018.08.025.12.02h-.01zm.02-.43c.036 0 .07.01.097.03.022.02.035.05.032.08.002.03-.008.05-.025.07-.02.02-.048.03-.077.03l.106.12h-.084l-.1-.12h-.032v.12h-.07v-.31h.154zm-.08.06v.09h.08c.016.01.03.01.045 0 .006-.01.006-.02 0-.03.006-.01.006-.02 0-.03h-.044l-.08-.02zm-4.026-1.46c.033-.56.52-.99 1.096-.97.575.02 1.027.49 1.018 1.06-.01.57-.47 1.02-1.05 1.02-.29.01-.57-.11-.77-.32-.2-.21-.3-.49-.28-.78zm-25.712 0v-1.72h-.762v.42c-.262-.33-.67-.52-1.098-.5-1.01 0-1.83.81-1.83 1.8s.82 1.8 1.83 1.8c.427.02.836-.17 1.098-.5v.42h.762V30.1zm-2.834 0c.04-.56.53-.99 1.1-.97.58.02 1.03.49 1.02 1.06-.01.57-.47 1.02-1.05 1.02-.29.01-.58-.11-.78-.31-.2-.21-.31-.49-.29-.78h.01z" fill="#FFF" fill-rule="nonzero"/>
    <g fill-rule="nonzero">
      <path fill="#FF5F00" d="M86.675 2.903h11.577V23.84H86.675z"/>
      <path d="M87.41 13.374c-.004-4.086 1.86-7.948 5.053-10.47C87.04-1.386 79.248-.762 74.568 4.34c-4.68 5.1-4.68 12.964 0 18.065 4.68 5.1 12.47 5.726 17.895 1.435-3.193-2.52-5.056-6.38-5.053-10.466z" fill="#EB001B"/>
      <path d="M113.87 13.374c0 5.098-2.89 9.75-7.448 11.976-4.556 2.228-9.976 1.642-13.96-1.51 3.193-2.523 5.057-6.382 5.057-10.468 0-4.085-1.87-7.944-5.06-10.47 3.98-3.15 9.4-3.735 13.96-1.508 4.55 2.228 7.45 6.88 7.45 11.977v.01zm-1.263 8.248v-.43h.173v-.088h-.438v.09h.188v.428h.077zm.85 0v-.518h-.133l-.155.37-.16-.37h-.12v.518h.09v-.388l.14.336h.1l.14-.336v.392l.07-.004z" fill="#F79E1B"/>
    </g>
    <path d="M54.405 7.318l3.83 17.43h-4.39s-.437-2.005-.578-2.613l-6.062-.008c-.184.47-.994 2.62-.994 2.62h-4.97l7.03-15.982c.5-1.137 1.35-1.447 2.48-1.447h3.66zm-5.837 11.24H52.5l-1.097-5.034-.32-1.504c-.244.657-.655 1.713-.63 1.665 0 0-1.496 3.873-1.885 4.874zm-6.998.482c-.032 3.624-3.266 5.96-8.24 5.96-2.122-.022-4.167-.44-5.274-.93l.666-3.902.61.28c1.554.65 2.56.912 4.457.912 1.36 0 2.81-.536 2.83-1.703.01-.764-.61-1.308-2.46-2.164-1.8-.835-4.18-2.233-4.15-4.738.02-3.39 3.32-5.755 8-5.755 1.83 0 3.3.38 4.24.732l-.64 3.78-.43-.202c-.88-.352-2-.692-3.55-.667-1.86 0-2.72.775-2.72 1.5-.01.816 1 1.354 2.66 2.163 2.73 1.24 3.993 2.753 3.972 4.735z" fill="#FFF"/>
    <path d="M0 7.5l.06-.35H7.4c.99.037 1.787.354 2.062 1.416l1.596 7.706C9.49 12.242 5.71 8.89 0 7.5z" fill="#F79E1B"/>
    <path d="M13.95 24.72l-5.01.01-4.238-14.543c3.047 1.958 5.643 5.065 6.557 7.23l.49 1.795L16.39 7.32l5.014-.005L13.95 24.72zM23.318 7.3h4.736l-2.962 17.44h-4.734" fill="#FFF"/>
  </g>
</svg>
