<svg width="24" height="24" viewBox="0 0 24 24" fill="none" xmlns="http://www.w3.org/2000/svg">
<path d="M12.0005 7V13H16.5005M3.68555 15.4442C4.13784 16.5361 4.80077 17.5282 5.6365 18.364C6.47223 19.1997 7.46438 19.8626 8.55631 20.3149C9.64824 20.7672 10.8186 21 12.0005 21C13.1824 21 14.3527 20.7672 15.4446 20.3149C16.5365 19.8626 17.5287 19.1997 18.3644 18.364C19.2002 17.5282 19.8631 16.5361 20.3154 15.4442C20.7677 14.3522 21.0005 13.1819 21.0005 12C21.0005 9.61305 20.0523 7.32387 18.3644 5.63604C16.6766 3.94821 14.3874 3 12.0005 3C9.61351 3 7.32433 3.94821 5.6365 5.63604C4.79259 6.47995 4.13358 7.47421 3.68555 8.55585M3.68555 8.55585L3 5M3.68555 8.55585L7 8" stroke="white" stroke-width="1.5" stroke-linecap="round" stroke-linejoin="round"/>
</svg>
