<svg xmlns="http://www.w3.org/2000/svg" width="48" height="48" fill="none"><g clip-path="url(#a)"><path fill="#1169F1" d="M48 0H0v48h48V0Z"/><path fill="#fff" fill-rule="evenodd" d="M0 35.601V48h16.874l.025-.188c.014-.103.145-.475.291-.827.499-1.2.682-2.187.64-3.446-.042-1.21-.25-2.035-.78-3.07-.766-1.5-2.13-2.658-3.784-3.21-1.713-.573-3.776-.545-5.927.079-1.106.32-1.552.232-1.855-.367-.225-.444-.157-.858.197-1.203.192-.187.29-.237.725-.37a15.768 15.768 0 0 1 3.301-.636 14.347 14.347 0 0 1 2.25.052c3.593.423 6.407 2.66 7.513 5.975.378 1.134.507 2.059.467 3.344a9.932 9.932 0 0 1-.69 3.404l-.18.463h13.485l-.057-.256c-.079-.352-.355-.8-.72-1.166-.875-.878-2.323-1.468-4.048-1.65-.29-.03-.531-.06-.537-.065-.04-.036.852-3.21 1.112-3.957a32.58 32.58 0 0 1 .832-2.105c.108-.245.196-.464.196-.486 0-.021-.134-.087-.299-.147a18.4 18.4 0 0 1-2.946-1.421c-1.045-.641-2.096-1.478-2.267-1.805-.24-.458-.08-1.08.352-1.366.231-.154.712-.207.955-.107.081.034.388.254.681.488 1.322 1.057 2.667 1.788 4.351 2.367 1.888.648 4.127.98 5.122.76 1.736-.385 3.038-1.03 4.039-2 1.083-1.05 1.56-2.199 1.557-3.752-.003-1.901-.797-3.841-2.407-5.88-.51-.647-2.028-2.164-2.7-2.7-1.479-1.178-3.025-2.045-4.546-2.549l-.622-.206-.232-.567c-1.207-2.955-1.988-4.58-2.978-6.203-1.457-2.385-3.239-4.265-5.22-5.506-2.599-1.628-4.925-1.367-5.593.63a2.59 2.59 0 0 0-.12.454c0 .06.36.46.968 1.071 3.027 3.047 5.686 6.615 7.899 10.597.866 1.559.922 1.713.78 2.14-.2.606-.85.89-1.427.625-.31-.142-.404-.26-.778-.97-1.05-1.998-2.511-4.298-3.979-6.26a40.786 40.786 0 0 0-4.428-5.056c-1.01-.988-1.062-1.031-1.418-1.174-.64-.257-1.078-.35-1.782-.376-1.434-.053-2.526.349-3.422 1.258a3.89 3.89 0 0 0-1.06 1.918c-.109.453-.109 1.399 0 1.955.224 1.141.826 2.378 1.84 3.775 1.53 2.109 3.588 4.003 6.422 5.916l.79.532-.646.082c-1.965.249-4.114.772-5.862 1.427-3.99 1.495-6.997 3.74-8.96 6.686-.399.6-1.01 1.739-1.293 2.41l-.101.24Zm31.852-8.383c-.492-.744-.477-1.576.034-1.817.585-.274 1.477.238 1.874 1.077.29.61.27 1.137-.053 1.42-.462.407-1.35.08-1.855-.68Z" clip-rule="evenodd"/></g><defs><clipPath id="a"><path fill="#fff" d="M0 0h48v48H0z"/></clipPath></defs></svg>