<svg width="122" height="26" viewBox="0 0 122 26" fill="none" xmlns="http://www.w3.org/2000/svg">
<path d="M1.5 0.5V24.5832" stroke="#46475D" stroke-linecap="square"/>
<path d="M25.1406 13.2871H26.2656C26.207 13.8262 26.0527 14.3086 25.8027 14.7344C25.5527 15.1602 25.1992 15.498 24.7422 15.748C24.2852 15.9941 23.7148 16.1172 23.0312 16.1172C22.5312 16.1172 22.0762 16.0234 21.666 15.8359C21.2598 15.6484 20.9102 15.3828 20.6172 15.0391C20.3242 14.6914 20.0977 14.2754 19.9375 13.791C19.7812 13.3027 19.7031 12.7598 19.7031 12.1621V11.3125C19.7031 10.7148 19.7812 10.1738 19.9375 9.68945C20.0977 9.20117 20.3262 8.7832 20.623 8.43555C20.9238 8.08789 21.2852 7.82031 21.707 7.63281C22.1289 7.44531 22.6035 7.35156 23.1309 7.35156C23.7754 7.35156 24.3203 7.47266 24.7656 7.71484C25.2109 7.95703 25.5566 8.29297 25.8027 8.72266C26.0527 9.14844 26.207 9.64258 26.2656 10.2051H25.1406C25.0859 9.80664 24.9844 9.46484 24.8359 9.17969C24.6875 8.89062 24.4766 8.66797 24.2031 8.51172C23.9297 8.35547 23.5723 8.27734 23.1309 8.27734C22.752 8.27734 22.418 8.34961 22.1289 8.49414C21.8438 8.63867 21.6035 8.84375 21.4082 9.10938C21.2168 9.375 21.0723 9.69336 20.9746 10.0645C20.877 10.4355 20.8281 10.8477 20.8281 11.3008V12.1621C20.8281 12.5801 20.8711 12.9727 20.957 13.3398C21.0469 13.707 21.1816 14.0293 21.3613 14.3066C21.541 14.584 21.7695 14.8027 22.0469 14.9629C22.3242 15.1191 22.6523 15.1973 23.0312 15.1973C23.5117 15.1973 23.8945 15.1211 24.1797 14.9688C24.4648 14.8164 24.6797 14.5977 24.8242 14.3125C24.9727 14.0273 25.0781 13.6855 25.1406 13.2871ZM29.5766 10.6562V16H28.4926V9.66016H29.5473L29.5766 10.6562ZM31.557 9.625L31.5512 10.6328C31.4613 10.6133 31.3754 10.6016 31.2934 10.5977C31.2152 10.5898 31.1254 10.5859 31.0238 10.5859C30.7738 10.5859 30.5531 10.625 30.3617 10.7031C30.1703 10.7812 30.0082 10.8906 29.8754 11.0312C29.7426 11.1719 29.6371 11.3398 29.559 11.5352C29.4848 11.7266 29.4359 11.9375 29.4125 12.168L29.1078 12.3438C29.1078 11.9609 29.1449 11.6016 29.2191 11.2656C29.2973 10.9297 29.4164 10.6328 29.5766 10.375C29.7367 10.1133 29.9398 9.91016 30.1859 9.76562C30.4359 9.61719 30.7328 9.54297 31.0766 9.54297C31.1547 9.54297 31.2445 9.55273 31.3461 9.57227C31.4477 9.58789 31.518 9.60547 31.557 9.625ZM35.2957 15.3438L37.0594 9.66016H38.2195L35.6766 16.9785C35.618 17.1348 35.5398 17.3027 35.4422 17.4824C35.3484 17.666 35.2273 17.8398 35.0789 18.0039C34.9305 18.168 34.7508 18.3008 34.5398 18.4023C34.3328 18.5078 34.0848 18.5605 33.7957 18.5605C33.7098 18.5605 33.6004 18.5488 33.4676 18.5254C33.3348 18.502 33.241 18.4824 33.1863 18.4668L33.1805 17.5879C33.2117 17.5918 33.2605 17.5957 33.327 17.5996C33.3973 17.6074 33.4461 17.6113 33.4734 17.6113C33.7195 17.6113 33.9285 17.5781 34.1004 17.5117C34.2723 17.4492 34.4168 17.3418 34.534 17.1895C34.6551 17.041 34.7586 16.8359 34.8445 16.5742L35.2957 15.3438ZM34.0008 9.66016L35.6473 14.582L35.9285 15.7246L35.1492 16.123L32.8172 9.66016H34.0008ZM41.132 10.8789V18.4375H40.0422V9.66016H41.0383L41.132 10.8789ZM45.4035 12.7773V12.9004C45.4035 13.3613 45.3488 13.7891 45.2395 14.1836C45.1301 14.5742 44.9699 14.9141 44.759 15.2031C44.552 15.4922 44.2961 15.7168 43.9914 15.877C43.6867 16.0371 43.3371 16.1172 42.9426 16.1172C42.5402 16.1172 42.1848 16.0508 41.8762 15.918C41.5676 15.7852 41.3059 15.5918 41.091 15.3379C40.8762 15.084 40.7043 14.7793 40.5754 14.4238C40.4504 14.0684 40.3645 13.668 40.3176 13.2227V12.5664C40.3645 12.0977 40.4523 11.6777 40.5813 11.3066C40.7102 10.9355 40.8801 10.6191 41.091 10.3574C41.3059 10.0918 41.5656 9.89062 41.8703 9.75391C42.175 9.61328 42.5266 9.54297 42.925 9.54297C43.3234 9.54297 43.677 9.62109 43.9855 9.77734C44.2941 9.92969 44.5539 10.1484 44.7648 10.4336C44.9758 10.7188 45.134 11.0605 45.2395 11.459C45.3488 11.8535 45.4035 12.293 45.4035 12.7773ZM44.3137 12.9004V12.7773C44.3137 12.4609 44.2805 12.1641 44.2141 11.8867C44.1477 11.6055 44.0441 11.3594 43.9035 11.1484C43.7668 10.9336 43.591 10.7656 43.3762 10.6445C43.1613 10.5195 42.9055 10.457 42.6086 10.457C42.3352 10.457 42.0969 10.5039 41.8938 10.5977C41.6945 10.6914 41.5246 10.8184 41.384 10.9785C41.2434 11.1348 41.1281 11.3145 41.0383 11.5176C40.9523 11.7168 40.8879 11.9238 40.8449 12.1387V13.6562C40.923 13.9297 41.0324 14.1875 41.173 14.4297C41.3137 14.668 41.5012 14.8613 41.7355 15.0098C41.9699 15.1543 42.2648 15.2266 42.6203 15.2266C42.9133 15.2266 43.1652 15.166 43.3762 15.0449C43.591 14.9199 43.7668 14.75 43.9035 14.5352C44.0441 14.3203 44.1477 14.0742 44.2141 13.7969C44.2805 13.5156 44.3137 13.2168 44.3137 12.9004ZM50.2906 9.66016V10.4922H46.8629V9.66016H50.2906ZM48.023 8.11914H49.107V14.4297C49.107 14.6445 49.1402 14.8066 49.2066 14.916C49.273 15.0254 49.359 15.0977 49.4645 15.1328C49.5699 15.168 49.6832 15.1855 49.8043 15.1855C49.8941 15.1855 49.9879 15.1777 50.0855 15.1621C50.1871 15.1426 50.2633 15.127 50.3141 15.1152L50.3199 16C50.234 16.0273 50.1207 16.0527 49.9801 16.0762C49.8434 16.1035 49.6773 16.1172 49.482 16.1172C49.2164 16.1172 48.9723 16.0645 48.7496 15.959C48.527 15.8535 48.3492 15.6777 48.2164 15.4316C48.0875 15.1816 48.023 14.8457 48.023 14.4238V8.11914ZM52.0078 12.9004V12.7656C52.0078 12.3086 52.0742 11.8848 52.207 11.4941C52.3398 11.0996 52.5312 10.7578 52.7812 10.4688C53.0312 10.1758 53.334 9.94922 53.6895 9.78906C54.0449 9.625 54.4434 9.54297 54.8848 9.54297C55.3301 9.54297 55.7305 9.625 56.0859 9.78906C56.4453 9.94922 56.75 10.1758 57 10.4688C57.2539 10.7578 57.4473 11.0996 57.5801 11.4941C57.7129 11.8848 57.7793 12.3086 57.7793 12.7656V12.9004C57.7793 13.3574 57.7129 13.7812 57.5801 14.1719C57.4473 14.5625 57.2539 14.9043 57 15.1973C56.75 15.4863 56.4473 15.7129 56.0918 15.877C55.7402 16.0371 55.3418 16.1172 54.8965 16.1172C54.4512 16.1172 54.0508 16.0371 53.6953 15.877C53.3398 15.7129 53.0352 15.4863 52.7812 15.1973C52.5312 14.9043 52.3398 14.5625 52.207 14.1719C52.0742 13.7812 52.0078 13.3574 52.0078 12.9004ZM53.0918 12.7656V12.9004C53.0918 13.2168 53.1289 13.5156 53.2031 13.7969C53.2773 14.0742 53.3887 14.3203 53.5371 14.5352C53.6895 14.75 53.8789 14.9199 54.1055 15.0449C54.332 15.166 54.5957 15.2266 54.8965 15.2266C55.1934 15.2266 55.4531 15.166 55.6758 15.0449C55.9023 14.9199 56.0898 14.75 56.2383 14.5352C56.3867 14.3203 56.498 14.0742 56.5723 13.7969C56.6504 13.5156 56.6895 13.2168 56.6895 12.9004V12.7656C56.6895 12.4531 56.6504 12.1582 56.5723 11.8809C56.498 11.5996 56.3848 11.3516 56.2324 11.1367C56.084 10.918 55.8965 10.7461 55.6699 10.6211C55.4473 10.4961 55.1855 10.4336 54.8848 10.4336C54.5879 10.4336 54.3262 10.4961 54.0996 10.6211C53.877 10.7461 53.6895 10.918 53.5371 11.1367C53.3887 11.3516 53.2773 11.5996 53.2031 11.8809C53.1289 12.1582 53.0918 12.4531 53.0918 12.7656ZM69.3992 15.0801V16H64.8816V15.0801H69.3992ZM65.1102 7.46875V16H63.9793V7.46875H65.1102ZM68.8016 11.1367V12.0566H64.8816V11.1367H68.8016ZM69.3406 7.46875V8.39453H64.8816V7.46875H69.3406ZM72.218 9.66016L73.6066 11.9688L75.0129 9.66016H76.2844L74.2102 12.7891L76.3488 16H75.0949L73.6301 13.6211L72.1652 16H70.9055L73.0383 12.7891L70.9699 9.66016H72.218ZM80.7086 15.2266C80.9664 15.2266 81.2047 15.1738 81.4234 15.0684C81.6422 14.9629 81.8219 14.8184 81.9625 14.6348C82.1031 14.4473 82.1832 14.2344 82.2027 13.9961H83.234C83.2145 14.3711 83.0875 14.7207 82.8531 15.0449C82.6227 15.3652 82.3199 15.625 81.9449 15.8242C81.5699 16.0195 81.1578 16.1172 80.7086 16.1172C80.232 16.1172 79.816 16.0332 79.4605 15.8652C79.109 15.6973 78.816 15.4668 78.5816 15.1738C78.3512 14.8809 78.1773 14.5449 78.0602 14.166C77.9469 13.7832 77.8902 13.3789 77.8902 12.9531V12.707C77.8902 12.2812 77.9469 11.8789 78.0602 11.5C78.1773 11.1172 78.3512 10.7793 78.5816 10.4863C78.816 10.1934 79.109 9.96289 79.4605 9.79492C79.816 9.62695 80.232 9.54297 80.7086 9.54297C81.2047 9.54297 81.6383 9.64453 82.0094 9.84766C82.3805 10.0469 82.6715 10.3203 82.8824 10.668C83.0973 11.0117 83.2145 11.4023 83.234 11.8398H82.2027C82.1832 11.5781 82.109 11.3418 81.9801 11.1309C81.8551 10.9199 81.6832 10.752 81.4645 10.627C81.2496 10.498 80.9977 10.4336 80.7086 10.4336C80.3766 10.4336 80.0973 10.5 79.8707 10.6328C79.648 10.7617 79.4703 10.9375 79.3375 11.1602C79.2086 11.3789 79.1148 11.623 79.0563 11.8926C79.0016 12.1582 78.9742 12.4297 78.9742 12.707V12.9531C78.9742 13.2305 79.0016 13.5039 79.0563 13.7734C79.1109 14.043 79.2027 14.2871 79.3316 14.5059C79.4645 14.7246 79.6422 14.9004 79.8648 15.0332C80.0914 15.1621 80.3727 15.2266 80.7086 15.2266ZM86.3867 7V16H85.3027V7H86.3867ZM86.1289 12.5898L85.6777 12.5723C85.6816 12.1387 85.7461 11.7383 85.8711 11.3711C85.9961 11 86.1719 10.6777 86.3984 10.4043C86.625 10.1309 86.8945 9.91992 87.207 9.77148C87.5234 9.61914 87.873 9.54297 88.2559 9.54297C88.5684 9.54297 88.8496 9.58594 89.0996 9.67188C89.3496 9.75391 89.5625 9.88672 89.7383 10.0703C89.918 10.2539 90.0547 10.4922 90.1484 10.7852C90.2422 11.0742 90.2891 11.4277 90.2891 11.8457V16H89.1992V11.834C89.1992 11.502 89.1504 11.2363 89.0527 11.0371C88.9551 10.834 88.8125 10.6875 88.625 10.5977C88.4375 10.5039 88.207 10.457 87.9336 10.457C87.6641 10.457 87.418 10.5137 87.1953 10.627C86.9766 10.7402 86.7871 10.8965 86.627 11.0957C86.4707 11.2949 86.3477 11.5234 86.2578 11.7812C86.1719 12.0352 86.1289 12.3047 86.1289 12.5898ZM96.5004 14.916V11.6523C96.5004 11.4023 96.4496 11.1855 96.348 11.002C96.2504 10.8145 96.102 10.6699 95.9027 10.5684C95.7035 10.4668 95.4574 10.416 95.1645 10.416C94.891 10.416 94.6508 10.4629 94.4437 10.5566C94.2406 10.6504 94.0805 10.7734 93.9633 10.9258C93.85 11.0781 93.7934 11.2422 93.7934 11.418H92.7094C92.7094 11.1914 92.768 10.9668 92.8852 10.7441C93.0023 10.5215 93.1703 10.3203 93.3891 10.1406C93.6117 9.95703 93.8773 9.8125 94.1859 9.70703C94.4984 9.59766 94.8461 9.54297 95.2289 9.54297C95.6898 9.54297 96.0961 9.62109 96.4477 9.77734C96.8031 9.93359 97.0805 10.1699 97.2797 10.4863C97.4828 10.7988 97.5844 11.1914 97.5844 11.6641V14.6172C97.5844 14.8281 97.602 15.0527 97.6371 15.291C97.6762 15.5293 97.7328 15.7344 97.807 15.9062V16H96.6762C96.6215 15.875 96.5785 15.709 96.5473 15.502C96.516 15.291 96.5004 15.0957 96.5004 14.916ZM96.6879 12.1562L96.6996 12.918H95.6039C95.2953 12.918 95.0199 12.9434 94.7777 12.9941C94.5355 13.041 94.3324 13.1133 94.1684 13.2109C94.0043 13.3086 93.8793 13.4316 93.7934 13.5801C93.7074 13.7246 93.6645 13.8945 93.6645 14.0898C93.6645 14.2891 93.7094 14.4707 93.7992 14.6348C93.8891 14.7988 94.0238 14.9297 94.2035 15.0273C94.3871 15.1211 94.6117 15.168 94.8773 15.168C95.2094 15.168 95.5023 15.0977 95.7562 14.957C96.0102 14.8164 96.2113 14.6445 96.3598 14.4414C96.5121 14.2383 96.5941 14.041 96.6059 13.8496L97.0687 14.3711C97.0414 14.5352 96.9672 14.7168 96.8461 14.916C96.725 15.1152 96.5629 15.3066 96.3598 15.4902C96.1605 15.6699 95.9223 15.8203 95.6449 15.9414C95.3715 16.0586 95.0629 16.1172 94.7191 16.1172C94.2895 16.1172 93.9125 16.0332 93.5883 15.8652C93.268 15.6973 93.018 15.4727 92.8383 15.1914C92.6625 14.9062 92.5746 14.5879 92.5746 14.2363C92.5746 13.8965 92.641 13.5977 92.7738 13.3398C92.9066 13.0781 93.098 12.8613 93.348 12.6895C93.598 12.5137 93.8988 12.3809 94.2504 12.291C94.602 12.2012 94.9945 12.1562 95.4281 12.1562H96.6879ZM101.223 11.0137V16H100.139V9.66016H101.165L101.223 11.0137ZM100.966 12.5898L100.514 12.5723C100.518 12.1387 100.583 11.7383 100.708 11.3711C100.833 11 101.009 10.6777 101.235 10.4043C101.462 10.1309 101.731 9.91992 102.044 9.77148C102.36 9.61914 102.71 9.54297 103.093 9.54297C103.405 9.54297 103.686 9.58594 103.936 9.67188C104.186 9.75391 104.399 9.88672 104.575 10.0703C104.755 10.2539 104.891 10.4922 104.985 10.7852C105.079 11.0742 105.126 11.4277 105.126 11.8457V16H104.036V11.834C104.036 11.502 103.987 11.2363 103.889 11.0371C103.792 10.834 103.649 10.6875 103.462 10.5977C103.274 10.5039 103.044 10.457 102.77 10.457C102.501 10.457 102.255 10.5137 102.032 10.627C101.813 10.7402 101.624 10.8965 101.464 11.0957C101.307 11.2949 101.184 11.5234 101.095 11.7812C101.009 12.0352 100.966 12.3047 100.966 12.5898ZM111.73 9.66016H112.714V15.8652C112.714 16.4238 112.601 16.9004 112.374 17.2949C112.148 17.6895 111.831 17.9883 111.425 18.1914C111.023 18.3984 110.558 18.502 110.03 18.502C109.812 18.502 109.554 18.4668 109.257 18.3965C108.964 18.3301 108.675 18.2148 108.39 18.0508C108.109 17.8906 107.872 17.6738 107.681 17.4004L108.249 16.7559C108.515 17.0762 108.792 17.2988 109.081 17.4238C109.374 17.5488 109.663 17.6113 109.948 17.6113C110.292 17.6113 110.589 17.5469 110.839 17.418C111.089 17.2891 111.282 17.0977 111.419 16.8438C111.56 16.5938 111.63 16.2852 111.63 15.918V11.0547L111.73 9.66016ZM107.364 12.9004V12.7773C107.364 12.293 107.421 11.8535 107.534 11.459C107.652 11.0605 107.818 10.7188 108.032 10.4336C108.251 10.1484 108.515 9.92969 108.823 9.77734C109.132 9.62109 109.48 9.54297 109.866 9.54297C110.265 9.54297 110.613 9.61328 110.909 9.75391C111.21 9.89062 111.464 10.0918 111.671 10.3574C111.882 10.6191 112.048 10.9355 112.169 11.3066C112.29 11.6777 112.374 12.0977 112.421 12.5664V13.1055C112.378 13.5703 112.294 13.9883 112.169 14.3594C112.048 14.7305 111.882 15.0469 111.671 15.3086C111.464 15.5703 111.21 15.7715 110.909 15.9121C110.609 16.0488 110.257 16.1172 109.855 16.1172C109.476 16.1172 109.132 16.0371 108.823 15.877C108.519 15.7168 108.257 15.4922 108.038 15.2031C107.82 14.9141 107.652 14.5742 107.534 14.1836C107.421 13.7891 107.364 13.3613 107.364 12.9004ZM108.448 12.7773V12.9004C108.448 13.2168 108.48 13.5137 108.542 13.791C108.609 14.0684 108.708 14.3125 108.841 14.5234C108.978 14.7344 109.152 14.9004 109.363 15.0215C109.573 15.1387 109.825 15.1973 110.118 15.1973C110.478 15.1973 110.775 15.1211 111.009 14.9688C111.243 14.8164 111.429 14.6152 111.566 14.3652C111.706 14.1152 111.816 13.8438 111.894 13.5508V12.1387C111.851 11.9238 111.784 11.7168 111.695 11.5176C111.609 11.3145 111.495 11.1348 111.355 10.9785C111.218 10.8184 111.048 10.6914 110.845 10.5977C110.642 10.5039 110.404 10.457 110.13 10.457C109.833 10.457 109.577 10.5195 109.363 10.6445C109.152 10.7656 108.978 10.9336 108.841 11.1484C108.708 11.3594 108.609 11.6055 108.542 11.8867C108.48 12.1641 108.448 12.4609 108.448 12.7773ZM117.841 16.1172C117.4 16.1172 117 16.043 116.64 15.8945C116.285 15.7422 115.978 15.5293 115.72 15.2559C115.466 14.9824 115.271 14.6582 115.134 14.2832C114.998 13.9082 114.929 13.498 114.929 13.0527V12.8066C114.929 12.291 115.005 11.832 115.158 11.4297C115.31 11.0234 115.517 10.6797 115.779 10.3984C116.041 10.1172 116.338 9.9043 116.67 9.75977C117.002 9.61523 117.345 9.54297 117.701 9.54297C118.154 9.54297 118.545 9.62109 118.873 9.77734C119.205 9.93359 119.476 10.1523 119.687 10.4336C119.898 10.7109 120.054 11.0391 120.156 11.418C120.257 11.793 120.308 12.2031 120.308 12.6484V13.1348H115.574V12.25H119.224V12.168C119.209 11.8867 119.15 11.6133 119.048 11.3477C118.951 11.082 118.795 10.8633 118.58 10.6914C118.365 10.5195 118.072 10.4336 117.701 10.4336C117.455 10.4336 117.228 10.4863 117.021 10.5918C116.814 10.6934 116.636 10.8457 116.488 11.0488C116.339 11.252 116.224 11.5 116.142 11.793C116.06 12.0859 116.019 12.4238 116.019 12.8066V13.0527C116.019 13.3535 116.06 13.6367 116.142 13.9023C116.228 14.1641 116.351 14.3945 116.511 14.5938C116.675 14.793 116.873 14.9492 117.103 15.0625C117.338 15.1758 117.603 15.2324 117.9 15.2324C118.283 15.2324 118.607 15.1543 118.873 14.998C119.138 14.8418 119.371 14.6328 119.57 14.3711L120.226 14.8926C120.089 15.0996 119.916 15.2969 119.705 15.4844C119.494 15.6719 119.234 15.8242 118.925 15.9414C118.621 16.0586 118.259 16.1172 117.841 16.1172Z" fill="#AEB0BD"/>
</svg>
