<svg width="91" height="40" viewBox="0 0 91 40" fill="none" xmlns="http://www.w3.org/2000/svg">
<g clip-path="url(#clip0_2460_4790)">
<path d="M80.997 6.78711L91 34.1101H70.993L80.997 6.78711Z" fill="#238450"/>
<path d="M82.837 10.1701L80.904 6.78711L79.046 11.3971L82.837 10.1701ZM83.135 11.3971L78.785 12.3271L77.373 16.0071L84.473 14.1471L83.135 11.3971ZM85.105 16.8611L76.965 17.1211L75.291 20.5411L86.629 20.1321L85.105 16.8611ZM87.075 23.0701L75.068 21.9541L73.024 27.2331H88.822L87.075 23.0701ZM88.822 28.1991H73.024L70.459 33.3291L89.975 30.6891L88.822 28.1991Z" fill="#3BEC80"/>
<path d="M80.996 3.18604L81.76 4.83004L83.56 5.04804L82.232 6.28203L82.58 8.06204L80.996 7.18004L79.412 8.06104L79.761 6.28203L78.433 5.04804L80.233 4.83004L80.996 3.18604ZM86.139 27.815L86.525 28.647L87.435 28.757L86.764 29.381L86.94 30.281L86.139 29.835L85.338 30.281L85.514 29.381L84.843 28.757L85.753 28.647L86.139 27.815ZM76.622 31.384L77.008 32.216L77.918 32.326L77.248 32.95L77.423 33.85L76.623 33.404L75.821 33.85L75.998 32.95L75.326 32.326L76.236 32.216L76.622 31.384ZM82.184 16.491L82.395 16.946L82.893 17.006L82.526 17.347L82.622 17.839L82.184 17.595L81.746 17.839L81.843 17.347L81.476 17.007L81.973 16.946L82.184 16.491ZM79.046 11.61L79.257 12.064L79.755 12.124L79.388 12.465L79.484 12.957L79.046 12.713L78.608 12.957L78.705 12.465L78.338 12.125L78.835 12.064L79.046 11.609V11.61ZM77.24 22.613L77.451 23.068L77.949 23.128L77.582 23.469L77.678 23.961L77.24 23.718L76.802 23.961L76.899 23.469L76.532 23.129L77.029 23.068L77.24 22.613ZM82.414 34.11H79.58V38.629H82.415L82.414 34.11Z" fill="#805BF5"/>
<g clip-path="url(#clip1_2460_4790)">
<path d="M8.55521 7.7568C8.33291 7.41709 8.02269 7.12954 7.62418 6.89414C7.22528 6.65894 6.77129 6.54135 6.26183 6.54135C5.72579 6.52845 5.24563 6.61343 4.82094 6.79627C4.39625 6.97932 4.03329 7.23424 3.73285 7.56067C3.43201 7.88768 3.20346 8.27623 3.04679 8.7271C2.89012 9.17816 2.81159 9.66516 2.81159 10.1877C2.81159 10.7105 2.89012 11.1973 3.04679 11.6481C3.20346 12.099 3.43201 12.4879 3.73285 12.8146C4.03329 13.1414 4.39625 13.3961 4.82094 13.5792C5.24563 13.7622 5.72579 13.8472 6.26183 13.8339C6.77129 13.8339 7.22529 13.7163 7.62418 13.4811C8.02269 13.2459 8.33291 12.9585 8.55521 12.6184L9.614 13.4223C9.1565 13.9583 8.64039 14.3533 8.06528 14.6082C7.49018 14.8632 6.8889 14.997 6.26183 15.0101C5.51677 15.023 4.8436 14.9087 4.24271 14.6671C3.64143 14.4254 3.12844 14.0888 2.70376 13.6575C2.27868 13.2262 1.95557 12.7134 1.73327 12.1185C1.51096 11.5241 1.4 10.8804 1.4 10.1877C1.4 9.49501 1.51096 8.85153 1.73327 8.2567C1.95557 7.66206 2.27868 7.14907 2.70376 6.71774C3.12844 6.28661 3.64143 5.95022 4.24271 5.70818C4.8436 5.46654 5.51677 5.35226 6.26183 5.36515C6.8889 5.37824 7.49018 5.51225 8.06528 5.76698C8.64039 6.02191 9.1565 6.41729 9.614 6.95313L8.55521 7.7568ZM12.6993 -0.0454071H13.9933V7.07074H14.0324C14.1762 6.82264 14.359 6.5937 14.5813 6.38448C14.8036 6.17565 15.0521 5.99593 15.3264 5.84551C15.6006 5.69529 15.8913 5.57769 16.1988 5.49252C16.5055 5.40774 16.8095 5.36515 17.1103 5.36515C18.2867 5.36515 19.1556 5.67575 19.7174 6.29637C20.2792 6.91719 20.5605 7.8027 20.5605 8.95252V14.7749H19.2665V9.69758C19.2665 8.67826 19.0903 7.89745 18.7375 7.35497C18.3844 6.81268 17.7307 6.54134 16.777 6.54134C16.7114 6.54134 16.5286 6.56771 16.2281 6.61987C15.9273 6.67222 15.6108 6.8158 15.2775 7.051C14.9443 7.2864 14.6466 7.6392 14.3856 8.1096C14.1238 8.58019 13.9933 9.23383 13.9933 10.0701V14.7749H12.6993L12.6993 -0.0454071ZM30.478 9.14866V8.91346C30.478 7.33231 29.6938 6.54134 28.1256 6.54134C27.0539 6.54134 26.1194 6.90098 25.3223 7.61967L24.5382 6.69821C25.4009 5.80957 26.6945 5.36515 28.4198 5.36515C28.864 5.36515 29.2922 5.43079 29.7036 5.56128C30.1154 5.69197 30.4713 5.89142 30.7722 6.15905C31.0726 6.42707 31.3144 6.76384 31.4973 7.16861C31.6801 7.57395 31.772 8.05764 31.772 8.61926V12.7165C31.772 13.0693 31.788 13.4387 31.8208 13.8241C31.8532 14.2097 31.8896 14.5268 31.9286 14.7749H30.6741C30.635 14.5528 30.6053 14.3111 30.5858 14.0496C30.5663 13.7882 30.5565 13.5334 30.5565 13.285H30.5174C30.1381 13.8995 29.6907 14.3406 29.1746 14.6082C28.6581 14.8759 28.0275 15.0101 27.2829 15.0101C26.8773 15.0101 26.4854 14.9544 26.1065 14.8434C25.7271 14.7327 25.3911 14.5625 25.0969 14.3338C24.8027 14.1052 24.5675 13.8241 24.3913 13.4909C24.2147 13.1576 24.1264 12.7689 24.1264 12.3244C24.1264 11.5796 24.319 10.9947 24.7046 10.5698C25.0903 10.1453 25.5739 9.82827 26.1553 9.61906C26.7367 9.41023 27.3579 9.27954 28.0178 9.22699C28.6776 9.17503 29.282 9.14866 29.831 9.14866H30.478ZM29.8114 10.2072C29.4848 10.2072 29.0765 10.2239 28.5862 10.2563C28.0963 10.2891 27.6259 10.3674 27.175 10.4915C26.7242 10.6159 26.3382 10.8085 26.0182 11.0697C25.6978 11.3315 25.538 11.6907 25.538 12.148C25.538 12.4489 25.5997 12.7067 25.7244 12.9224C25.8482 13.1381 26.015 13.3145 26.2241 13.4516C26.4331 13.5889 26.6652 13.6868 26.9199 13.7458C27.175 13.8046 27.4329 13.8339 27.6943 13.8339C28.1647 13.8339 28.5733 13.7556 28.9195 13.5987C29.2656 13.4418 29.5567 13.2295 29.7919 12.9615C30.0271 12.6938 30.2002 12.3801 30.3115 12.0207C30.4225 11.6612 30.478 11.2789 30.478 10.8738V10.2072H29.8114ZM37.1315 5.60035C37.1573 5.84883 37.1737 6.0938 37.1804 6.33545C37.1866 6.57748 37.1901 6.82264 37.1901 7.07074H37.2292C37.373 6.82264 37.5558 6.5937 37.7781 6.38448C38.0004 6.17565 38.2489 5.99593 38.5232 5.84551C38.7975 5.69529 39.0881 5.57769 39.3956 5.49252C39.7023 5.40774 40.0063 5.36515 40.3071 5.36515C41.4835 5.36515 42.3524 5.67575 42.9142 6.29637C43.4761 6.91719 43.7574 7.8027 43.7574 8.95252V14.7749H42.4634V9.69758C42.4634 8.67826 42.2872 7.89745 41.9344 7.35497C41.5812 6.81268 40.9275 6.54134 39.9739 6.54134C39.9082 6.54134 39.7254 6.56771 39.4249 6.61987C39.1241 6.67222 38.8076 6.8158 38.4744 7.051C38.1411 7.2864 37.8434 7.6392 37.5824 8.1096C37.3206 8.58019 37.1901 9.23383 37.1901 10.0701V14.7749H35.8962V7.61966C35.8962 7.37137 35.8864 7.05784 35.8669 6.67867C35.8473 6.2997 35.8243 5.94045 35.7985 5.60035L37.1315 5.60035ZM48.4936 16.6176C48.8726 17.1273 49.3661 17.5355 49.9736 17.8428C50.5815 18.1497 51.2578 18.3035 52.0025 18.3035C52.6561 18.3035 53.2113 18.2085 53.6688 18.0192C54.1263 17.8297 54.4951 17.5715 54.7764 17.2449C55.0573 16.918 55.2597 16.5358 55.3844 16.0982C55.5082 15.6602 55.5703 15.1929 55.5703 14.6965V13.0498H55.5313C55.1128 13.677 54.603 14.1214 54.0021 14.3828C53.4008 14.6444 52.7671 14.7749 52.1006 14.7749C51.434 14.7749 50.8097 14.6573 50.2283 14.4221C49.647 14.1867 49.1406 13.8634 48.7093 13.4516C48.278 13.04 47.9381 12.5467 47.69 11.9716C47.4415 11.3967 47.3173 10.7757 47.3173 10.1092C47.3173 9.44266 47.4349 8.82203 47.6701 8.24693C47.9053 7.67202 48.2288 7.16861 48.6405 6.73748C49.0523 6.30615 49.5423 5.96976 50.1107 5.72791C50.6792 5.48607 51.3031 5.36515 51.983 5.36515C52.2576 5.36515 52.5483 5.39153 52.8554 5.44349C53.1621 5.49604 53.4696 5.58746 53.7766 5.71795C54.0837 5.84883 54.3873 6.02856 54.6881 6.25711C54.9886 6.48587 55.2695 6.77654 55.5313 7.12954H55.5703V5.60035H56.8643V14.6965C56.8643 15.1929 56.8022 15.7223 56.678 16.2843C56.5537 16.8462 56.3119 17.3625 55.9528 17.8331C55.593 18.3035 55.0933 18.6955 54.4529 19.0093C53.8126 19.323 52.9761 19.4796 51.9439 19.4796C51.0289 19.4796 50.2119 19.3294 49.4934 19.0288C48.7746 18.7281 48.1209 18.2644 47.5329 17.6369L48.4936 16.6176ZM48.7288 10.0701C48.7288 10.5536 48.8171 11.008 48.9933 11.4325C49.1699 11.8574 49.4114 12.2297 49.7189 12.5499C50.0256 12.8702 50.3854 13.1252 50.7968 13.3145C51.2086 13.5039 51.6563 13.5987 52.1396 13.5987C52.6104 13.5987 53.0578 13.5139 53.4828 13.3438C53.9071 13.1742 54.283 12.9355 54.61 12.6282C54.9362 12.3213 55.1882 11.9519 55.3644 11.5208C55.541 11.0894 55.6227 10.6062 55.6098 10.0701C55.6098 9.58663 55.5313 9.13244 55.3746 8.70756C55.2175 8.28307 54.9886 7.91054 54.6881 7.59017C54.3873 7.26999 54.0216 7.01526 53.5907 6.82558C53.1593 6.63628 52.6757 6.54135 52.1396 6.54135C51.6563 6.54135 51.2086 6.63628 50.7968 6.82558C50.3854 7.01526 50.0256 7.27 49.7189 7.59017C49.4114 7.91054 49.1699 8.28307 48.9933 8.70756C48.8171 9.13244 48.7288 9.58663 48.7288 10.0701ZM61.9545 10.5405C61.9935 10.9982 62.1045 11.4293 62.2877 11.8343C62.4706 12.2397 62.7124 12.5891 63.0132 12.8831C63.3137 13.1771 63.6599 13.4094 64.0521 13.5792C64.444 13.7491 64.8687 13.8339 65.3262 13.8339C66.0189 13.8339 66.6166 13.6741 67.1199 13.3535C67.6231 13.0335 68.0052 12.6643 68.2669 12.2461L69.2667 13.0693C68.7178 13.7622 68.113 14.2588 67.4531 14.5592C66.7932 14.8597 66.0841 15.0101 65.3262 15.0101C64.6467 15.0101 64.0158 14.8892 63.4344 14.6475C62.8527 14.4059 62.353 14.0691 61.9349 13.638C61.5165 13.2066 61.1867 12.697 60.9449 12.1088C60.7031 11.5208 60.5823 10.8804 60.5823 10.1877C60.5823 9.49501 60.6999 8.85466 60.9351 8.26646C61.1703 7.67847 61.497 7.16861 61.9154 6.73748C62.3334 6.30615 62.8234 5.96976 63.3856 5.72791C63.9474 5.48607 64.5549 5.36515 65.2086 5.36515C65.9013 5.36515 66.5221 5.48959 67.071 5.73768C67.6199 5.98597 68.0806 6.31591 68.4529 6.72771C68.8256 7.13931 69.1097 7.62299 69.3058 8.17836C69.5019 8.73393 69.6 9.32506 69.6 9.95232V10.5405L61.9545 10.5405ZM68.1884 9.48192C68.1884 8.60657 67.9266 7.89745 67.4043 7.35497C66.8815 6.81268 66.1498 6.54134 65.2086 6.54134C64.7901 6.54134 64.3854 6.62319 63.9931 6.78651C63.6012 6.95001 63.2582 7.16861 62.964 7.44307C62.6698 7.71754 62.4346 8.03127 62.2584 8.38406C62.0818 8.73706 61.9935 9.10294 61.9935 9.48192L68.1884 9.48192Z" fill="white"/>
<path d="M1.4001 21.1735H5.74109L14.6569 34.8461H14.7088V21.1735H17.984V39.5769H13.825L4.72723 25.4623H4.67528V39.5769H1.4001V21.1735ZM22.4677 30.4531C22.4677 28.9805 22.7101 27.6418 23.1955 26.4371C23.6804 25.2329 24.3521 24.2061 25.2099 23.3569C26.0677 22.5081 27.09 21.8538 28.2773 21.3944C29.464 20.9354 30.7681 20.7055 32.1892 20.7055C33.6274 20.6885 34.9446 20.9005 36.1403 21.3424C37.336 21.7842 38.3669 22.4301 39.2335 23.279C40.0999 24.1282 40.7756 25.1504 41.261 26.3461C41.7459 27.5418 41.9889 28.8766 41.9889 30.3492C41.9889 31.7877 41.7459 33.0959 41.261 34.2742C40.7756 35.4529 40.0999 36.4666 39.2335 37.3154C38.3669 38.1648 37.336 38.8275 36.1403 39.3041C34.9446 39.7804 33.6274 40.0273 32.1892 40.0449C30.7681 40.0449 29.464 39.815 28.2773 39.356C27.09 38.897 26.0677 38.2472 25.2099 37.4064C24.3521 36.5662 23.6804 35.5568 23.1955 34.3781C22.7101 33.2 22.4677 31.8918 22.4677 30.4531ZM25.8988 30.2451C25.8988 31.233 26.0503 32.1428 26.3537 32.9746C26.6568 33.8062 27.0857 34.5256 27.6404 35.132C28.1949 35.7388 28.8575 36.2152 29.6288 36.5617C30.3997 36.9086 31.262 37.0816 32.2153 37.0816C33.1681 37.0816 34.0349 36.9086 34.8145 36.5617C35.5944 36.2152 36.2614 35.7388 36.8161 35.132C37.3706 34.5256 37.7995 33.8062 38.1028 32.9746C38.4057 32.1428 38.5577 31.233 38.5577 30.2451C38.5577 29.327 38.4057 28.4692 38.1028 27.6719C37.7995 26.875 37.3706 26.1772 36.8161 25.5793C36.2614 24.9815 35.5944 24.5137 34.8145 24.1756C34.0349 23.8377 33.1681 23.6688 32.2153 23.6688C31.262 23.6688 30.3997 23.8377 29.6288 24.1756C28.8575 24.5137 28.1949 24.9815 27.6404 25.5793C27.0857 26.1772 26.6568 26.875 26.3537 27.6719C26.0503 28.4692 25.8988 29.327 25.8988 30.2451ZM44.1404 21.1735H47.7219L51.1737 34.4303H51.2255L55.352 21.1735H58.5702L62.6189 34.4303H62.6708L66.2782 21.1735H69.6001L64.2538 39.5769H61.1396L56.8832 25.5664H56.8313L52.5752 39.5769H49.5645L44.1404 21.1735Z" fill="#00C26F"/>
</g>
</g>
<defs>
<clipPath id="clip0_2460_4790">
<rect width="91" height="40" fill="white"/>
</clipPath>
<clipPath id="clip1_2460_4790">
<rect width="71" height="40" fill="white"/>
</clipPath>
</defs>
</svg>
