<svg width="32" height="32" fill="none" xmlns="http://www.w3.org/2000/svg"><rect width="32" height="32" rx="3" fill="#EE9A79"/><path d="M21.195 11.49V8.256a1.078 1.078 0 0 0-1.078-1.078H9.333a2.157 2.157 0 0 0-2.157 2.157m0 0a2.157 2.157 0 0 0 2.157 2.157h12.94a1.079 1.079 0 0 1 1.08 1.078v3.235M7.175 9.334v12.94a2.157 2.157 0 0 0 2.157 2.158h12.94a1.079 1.079 0 0 0 1.08-1.079v-3.235" stroke="#fff" stroke-width="1.5" stroke-linecap="round" stroke-linejoin="round"/><path d="M24.431 15.803v4.313h-4.313a2.157 2.157 0 0 1 0-4.313h4.314Z" stroke="#fff" stroke-width="1.5" stroke-linecap="round" stroke-linejoin="round"/></svg>