<svg width="32" height="32" fill="none" xmlns="http://www.w3.org/2000/svg"><rect width="32" height="32" rx="3" fill="#85BBC9"/><path fill-rule="evenodd" clip-rule="evenodd" d="M15.277 6.012c-.064.01-.284.036-.488.059-2.449.279-4.908 1.64-6.483 3.589-.186.23-.3.342-.316.31a17.356 17.356 0 0 1-.232-.856l-.206-.807-.532.137c-.292.075-.546.15-.564.166-.046.043.913 3.718.97 3.718.057 0 3.662-.936 3.682-.956.016-.016-.253-1.081-.28-1.107-.013-.013-1.487.352-1.797.445-.127.038.264-.437.795-.965A8.32 8.32 0 0 1 12.23 8.04a8.754 8.754 0 0 1 10.138 1.848c1.473 1.542 2.298 3.466 2.442 5.698l.027.42H26v-.129c0-.344-.093-1.235-.177-1.693a10.03 10.03 0 0 0-2.771-5.28c-1.524-1.526-3.425-2.474-5.646-2.815-.389-.06-1.868-.113-2.129-.076Zm-.156 4.145c-2.463.399-4.36 2.2-4.913 4.667-.072.32-.085.503-.086 1.181 0 .7.01.854.09 1.208.429 1.918 1.696 3.473 3.453 4.236a5.594 5.594 0 0 0 2.316.47c.889.003 1.588-.137 2.365-.473a5.993 5.993 0 0 0 3.243-3.504c.241-.702.288-1.011.289-1.917 0-.72-.01-.872-.09-1.228a5.785 5.785 0 0 0-1.625-2.961c-.86-.862-1.79-1.367-2.988-1.624-.5-.108-1.555-.136-2.054-.055Zm1.473 2.47.011.376.206.053c.3.077.506.194.753.43.466.446.645 1.064.485 1.68a1.767 1.767 0 0 1-.138.363l-.077.131.193.211c.535.586.649 1.367.302 2.068-.29.586-.844.967-1.496 1.028l-.247.023v.732h-1.172v-.743H13.695v-1.174h.703V14.166h-.703v-1.173h1.72v-.744h1.168l.011.377Zm-1.024 2.087v.548h.494c.426 0 .51-.01.62-.08.354-.218.319-.753-.062-.947-.105-.054-.233-.069-.593-.069h-.459v.548ZM6 16.171c.002.302.077 1.1.14 1.477.549 3.275 2.71 6.115 5.678 7.457 1.373.621 2.663.897 4.182.895 1.192-.002 2.012-.13 3.086-.486a9.996 9.996 0 0 0 4.615-3.172c.155-.192.288-.344.294-.337.007.007.11.388.229.848.119.46.22.84.227.847.01.01 1.089-.264 1.113-.284.014-.011-.931-3.702-.955-3.73-.014-.015-3.695.931-3.722.958-.018.018.254 1.071.285 1.102.011.011.377-.072.813-.186.436-.113.849-.219.918-.235l.126-.03-.178.233c-.099.128-.331.392-.517.588-1.704 1.794-4.24 2.828-6.666 2.72a8.584 8.584 0 0 1-3.555-.907 8.066 8.066 0 0 1-2.233-1.56c-1.577-1.52-2.504-3.513-2.674-5.748l-.047-.616H6v.166Zm9.596.29c-.014.015-.026.323-.026.685v.659h.617c.562 0 .632-.008.79-.088a.657.657 0 0 0-.156-1.239c-.216-.046-1.182-.06-1.225-.016Z" fill="#fff"/></svg>