<svg width="32" height="32" fill="none" xmlns="http://www.w3.org/2000/svg"><rect width="32" height="32" rx="3" fill="#637AA6"/><g clip-path="url(#a)" stroke="#fff" stroke-width="2" stroke-linecap="round" stroke-linejoin="round"><path d="M16.001 6.834A12.222 12.222 0 0 0 24.66 9.89 12.222 12.222 0 0 1 16 25.167 12.222 12.222 0 0 1 7.344 9.89c3.173.145 6.278-.951 8.657-3.056"/><path d="M15.999 16a1.019 1.019 0 1 0 0-2.037 1.019 1.019 0 0 0 0 2.037ZM16 16v2.546"/></g><defs><clipPath id="a"><path fill="#fff" transform="translate(6 6)" d="M0 0h20v20H0z"/></clipPath></defs></svg>