<svg width="32" height="32" fill="none" xmlns="http://www.w3.org/2000/svg"><rect width="32" height="32" rx="3" fill="#D95B96"/><path d="M24.573 21.073v-3.42m0 0h-3.724m3.724 0-3.724 3.42a7.258 7.258 0 0 1-3.101 1.792 7.38 7.38 0 0 1-3.6.104 7.281 7.281 0 0 1-3.204-1.61 7.056 7.056 0 0 1-2.01-2.922m-1.504-7.51v3.421m0 0h3.723m-3.723 0 3.723-3.421a7.258 7.258 0 0 1 3.101-1.791 7.38 7.38 0 0 1 3.6-.104 7.281 7.281 0 0 1 3.205 1.609 7.056 7.056 0 0 1 2.01 2.922" stroke="#fff" stroke-width="2" stroke-linecap="round" stroke-linejoin="round"/></svg>