<svg width="32" height="32" fill="none" xmlns="http://www.w3.org/2000/svg"><rect width="32" height="32" rx="3" fill="#99BFAD"/><path fill-rule="evenodd" clip-rule="evenodd" d="M20.188 6.024c-.127.027-.636.515-2.813 2.698l-2.66 2.664-.02.226a.631.631 0 0 0 .048.358c.104.197 5.214 5.292 5.364 5.348.187.07.332.059.521-.04.22-.114 5.264-5.18 5.326-5.349a.659.659 0 0 0-.017-.523c-.036-.068-1.239-1.298-2.674-2.735-2.782-2.785-2.711-2.724-3.075-2.647ZM6.329 7.57a.852.852 0 0 0-.238.239c-.089.145-.09.237-.09 3.862 0 4.148-.018 3.927.317 4.122.157.091.22.093 3.895.093 3.702 0 3.737-.001 3.861-.094.07-.052.168-.15.22-.22.092-.125.093-.16.093-3.87 0-3.683-.001-3.747-.092-3.904-.195-.336.026-.319-4.113-.319-3.617 0-3.708.003-3.853.091Zm0 10.115a.852.852 0 0 0-.238.24c-.089.144-.09.236-.09 3.861 0 4.149-.018 3.927.317 4.122.157.091.22.093 3.895.093 3.702 0 3.737 0 3.861-.094.07-.052.168-.15.22-.22.092-.124.093-.16.093-3.87 0-3.682-.001-3.747-.092-3.904-.195-.336.026-.319-4.113-.318-3.617 0-3.708.002-3.853.09Zm10.122.013c-.33.221-.313-.004-.313 4.102 0 3.53.003 3.688.086 3.85.048.093.155.21.239.26.148.089.233.091 3.888.091 3.702 0 3.736 0 3.86-.094.07-.052.169-.15.22-.22.093-.125.094-.159.094-3.9 0-3.747 0-3.777-.094-3.905a.838.838 0 0 0-.25-.208c-.145-.074-.424-.08-3.866-.08h-3.71l-.154.104Z" fill="#fff"/></svg>