<svg width="32" height="32" fill="none" xmlns="http://www.w3.org/2000/svg"><rect width="32" height="32" rx="3" fill="#C76E73"/><path d="m16.875 21.17 4.584 1.375M9.453 10.54l1.375 4.582-1.375-4.582ZM15.66 16.341l6.21-6.21M8.993 10.608a1.618 1.618 0 1 0 0-3.235 1.618 1.618 0 0 0 0 3.235ZM23.012 10.607a1.618 1.618 0 1 0 0-3.235 1.618 1.618 0 0 0 0 3.235ZM23.012 24.627a1.618 1.618 0 1 0 0-3.235 1.618 1.618 0 0 0 0 3.235ZM12.228 24.628a4.853 4.853 0 1 0 0-9.706 4.853 4.853 0 0 0 0 9.706Z" stroke="#fff" stroke-width="2" stroke-linecap="round" stroke-linejoin="round"/></svg>