<svg width="32" height="32" fill="none" xmlns="http://www.w3.org/2000/svg"><rect width="32" height="32" rx="3" fill="#BFAC86"/><path fill-rule="evenodd" clip-rule="evenodd" d="M20.615 6.053c-.686.107-1.405.4-1.965.8-.324.231-4.015 3.836-4.143 4.046-.101.165-.09.281.042.413.104.104.139.114.381.114.573 0 1.285.128 1.862.335.48.172.338.269 1.902-1.288.764-.76 1.463-1.429 1.554-1.485a2.043 2.043 0 0 1 2.428.226c.704.643.838 1.772.307 2.568-.177.265-4.598 4.679-4.831 4.823a2.022 2.022 0 0 1-2.3-.123c-.697-.549-1.14-.644-1.715-.368a1.26 1.26 0 0 0-.623.642c-.094.205-.103.262-.087.566.021.421.137.67.456.977a4.678 4.678 0 0 0 2.274 1.181c.355.074.487.082 1.014.062 1.082-.04 1.727-.237 2.54-.778.418-.277 5.224-5.084 5.486-5.486.944-1.449 1.06-3.179.313-4.682a4.685 4.685 0 0 0-3.492-2.547 4.822 4.822 0 0 0-1.403.004Zm-6.548 6.45a5.03 5.03 0 0 0-1.815.748c-.299.193-5.02 4.894-5.33 5.307-.276.367-.62 1.057-.734 1.467-.31 1.122-.236 2.192.224 3.225.438.983 1.355 1.901 2.336 2.338a4.678 4.678 0 0 0 3.874-.016c.66-.296.886-.492 2.981-2.59 1.948-1.95 1.97-1.974 1.945-2.103-.046-.241-.152-.29-.675-.318a5.745 5.745 0 0 1-1.575-.282c-.232-.075-.462-.136-.513-.136-.068 0-.45.357-1.5 1.401-.846.84-1.485 1.445-1.597 1.51a1.98 1.98 0 0 1-1.025.266 1.868 1.868 0 0 1-1.41-.574c-.397-.397-.575-.833-.577-1.411 0-.422.098-.76.324-1.102.199-.303 4.648-4.732 4.888-4.867.096-.054.296-.138.443-.186.227-.075.327-.086.664-.07.578.025.754.101 1.434.625.29.223.473.283.86.282.547 0 1.02-.322 1.21-.82.12-.32.1-.737-.052-1.046-.287-.588-1.392-1.314-2.398-1.578-.489-.128-1.486-.164-1.982-.07Z" fill="#fff"/></svg>