<svg width="32" height="32" fill="none" xmlns="http://www.w3.org/2000/svg"><rect width="32" height="32" rx="3" fill="#BA85D7"/><path fill-rule="evenodd" clip-rule="evenodd" d="M15.647 6.063c-.701.15-1.394.695-1.713 1.346-.276.562-.278.578-.278 3.27l-.001 2.393h-.557c-1.417 0-2.484.418-3.391 1.325a4.481 4.481 0 0 0-1.135 1.888c-.051.176-.11.302-.14.302-.04 0-.05-.35-.05-1.807v-1.807l.205-.096c.253-.118.643-.502.766-.756.35-.716.228-1.485-.325-2.04a1.72 1.72 0 0 0-2.465.001c-.678.676-.698 1.711-.046 2.426.11.122.288.257.44.335l.253.131v3.689l-.224.108c-.276.133-.666.512-.787.764-.186.386-.199.51-.199 1.95 0 .865.016 1.43.044 1.563.072.337.227.619.481.873.395.394.772.525 1.517.525h.438l.088.318c.383 1.375 1.501 2.535 2.892 3.002.691.231.747.234 4.538.234 3.792 0 3.848-.003 4.539-.235a4.333 4.333 0 0 0 1.752-1.089 4.443 4.443 0 0 0 1.14-1.912l.088-.317h.438c.507-.001.767-.048 1.064-.191.45-.219.83-.709.935-1.208.06-.283.058-2.785-.001-3.063a1.698 1.698 0 0 0-.481-.872c-.395-.395-.772-.526-1.52-.526h-.439l-.089-.301a5.145 5.145 0 0 0-.22-.586l-.131-.284.32-.001c.44-.001.807-.086 1.198-.278a2.616 2.616 0 0 0 1.348-1.733c.084-.402.084-4.988 0-5.39-.197-.94-1.014-1.756-1.953-1.953-.396-.083-7.953-.08-8.34.002Zm8.363 1.234c.309.145.52.351.669.652l.127.259v5.002l-.127.259a1.34 1.34 0 0 1-.669.652l-.22.103-3.71.02-3.71.02-.752.38c-.413.21-.76.381-.772.381-.012 0-.016-1.534-.01-3.408l.01-3.408.102-.216c.18-.384.468-.637.866-.762.133-.042.918-.05 4.07-.045l3.907.008.219.103Zm-7.67 1.755a.635.635 0 0 0-.302.505.62.62 0 0 0 .31.507c.152.077.225.079 3.478.079s3.326-.002 3.477-.079a.62.62 0 0 0 .312-.507.62.62 0 0 0-.312-.507c-.15-.077-.222-.079-3.485-.077-3.24.001-3.335.004-3.477.079Zm-8.27 1.755a.62.62 0 0 1 .312.51c0 .289-.297.583-.589.583-.181 0-.423-.152-.509-.32a.56.56 0 0 1 .223-.759.53.53 0 0 1 .564-.014Zm8.27.588a.635.635 0 0 0-.302.505.62.62 0 0 0 .31.508c.152.077.225.078 3.478.078s3.326-.001 3.477-.078a.62.62 0 0 0 .312-.508.62.62 0 0 0-.312-.507c-.15-.077-.222-.079-3.485-.077-3.24.002-3.335.004-3.477.079Zm-2.685 3.797c0 1.075.016 1.146.297 1.307.274.157.335.139 1.614-.498l1.179-.585h4.916l.136.185c.212.288.397.663.517 1.046l.11.35V22.075l-.108.344c-.36 1.144-1.139 1.924-2.283 2.282l-.344.108h-7.382l-.344-.108c-1.143-.358-1.923-1.138-2.282-2.282l-.108-.344v-5.078l.108-.344c.35-1.114 1.15-1.932 2.204-2.252.408-.124.595-.147 1.213-.153l.557-.004v.948Zm-5.273 4.325v1.757h-.375c-.447 0-.64-.081-.762-.32-.068-.134-.074-.244-.072-1.445.002-1.467.004-1.481.295-1.657.133-.08.202-.093.533-.093h.381v1.758Zm4.404-1.677c-.265.14-.303.277-.303 1.09 0 .631.009.723.079.861a.62.62 0 0 0 .507.311.62.62 0 0 0 .507-.31c.07-.139.079-.23.079-.861 0-.63-.008-.723-.079-.86a.576.576 0 0 0-.79-.231Zm5.859 0c-.265.14-.303.277-.303 1.09 0 .631.008.723.079.861a.62.62 0 0 0 .507.311.62.62 0 0 0 .507-.31c.07-.139.079-.23.079-.861 0-.63-.009-.723-.079-.86a.576.576 0 0 0-.79-.231Zm5.87-.002c.098.05.181.133.232.232.074.146.079.229.079 1.447s-.005 1.3-.08 1.446c-.12.236-.302.311-.759.311h-.372V17.76h.372c.297 0 .405.016.527.079Zm-9.971 3.517a.635.635 0 0 0-.303.505.62.62 0 0 0 .311.507c.146.075.229.079 1.446.079 1.218 0 1.301-.005 1.447-.079a.62.62 0 0 0 .311-.507.62.62 0 0 0-.311-.507c-.146-.074-.227-.079-1.455-.077-1.217.002-1.31.007-1.446.079Z" fill="#fff"/></svg>
