<svg width="32" height="32" fill="none" xmlns="http://www.w3.org/2000/svg">
  <rect width="32" height="32" rx="3" fill="#A9C3E4"/>
  <path fill-rule="evenodd" clip-rule="evenodd" d="M14.244 6.11c-.697.116-2.02.562-2.746.927-2.838 1.422-4.924 4.286-5.415 7.436-.173 1.106-.064 3.164.22 4.16.992 3.495 3.607 6.106 7.133 7.123.721.208 1.096.244 2.558.244 1.461 0 1.836-.036 2.558-.244 2.886-.832 5.176-2.725 6.434-5.317.595-1.227.906-2.402.985-3.723.058-.982.05-1.036-.21-1.339a.968.968 0 0 0-1.426-.038c-.241.242-.287.408-.37 1.339-.109 1.23-.309 1.963-.799 2.94-.968 1.927-2.583 3.323-4.736 4.096-.895.32-3.127.398-4.25.148-.986-.22-2.47-.947-3.246-1.59-1.262-1.047-2.26-2.587-2.694-4.157-.3-1.083-.306-2.959-.015-4.101a7.99 7.99 0 0 1 4.076-5.118c1.042-.542 1.739-.742 3.05-.876.91-.093 1.11-.15 1.336-.373.387-.384.372-1.052-.033-1.4-.258-.224-.4-.256-1.068-.245-.423.007-1.027.055-1.342.108Zm5.148.089-.262.25c-.011.013-.047 1.037-.08 2.277l-.059 2.253-2.194.054c-2.543.062-2.666.101-2.753.878-.045.401-.012.506.238.758l.292.291 2.208.03 2.21.028.028 2.214c.028 2.177.033 2.218.29 2.495.369.4.98.392 1.372-.017l.285-.299.029-2.196.029-2.197 2.14-.026c2.258-.028 2.515-.078 2.719-.527.188-.413.14-.746-.157-1.1l-.275-.328-2.214-.029-2.213-.029-.03-2.2c-.036-2.553-.073-2.667-.889-2.756-.38-.042-.52-.008-.714.176Z" fill="#fff"/>
</svg>
