<svg width="32" height="32" fill="none" xmlns="http://www.w3.org/2000/svg"><rect width="32" height="32" rx="3" fill="#B9ACBF"/><path fill-rule="evenodd" clip-rule="evenodd" d="M8.732 6.036a.52.52 0 0 0-.166.14c-.083.105-.084.123-.084 2.054v1.947l-.792.013c-.769.012-.797.016-.988.116-.256.136-.534.436-.628.68-.07.18-.075.308-.074 1.681.001 1.43.005 1.5.094 1.858.282 1.134.8 1.934 1.711 2.647.528.413.87.84 1.148 1.436.284.607.32.811.347 2.02.023 1.051.026 1.08.125 1.29.12.255.373.515.62.637.152.075.26.09.76.107l.582.02.089.324c.175.64.477 1.164.972 1.682.825.862 1.984 1.306 3.425 1.312.471.002.618-.012.871-.084.814-.231 1.448-.739 2.209-1.771a41 41 0 0 0 .89-1.31c.71-1.082.992-1.454 1.392-1.84.352-.339.632-.527.992-.666.239-.093.343-.108.826-.123 1.12-.035 1.944.189 2.148.583.062.12.258.23.411.23.116 0 .388-.28.388-.399 0-.129-.184-.408-.4-.606-.465-.425-1.293-.649-2.415-.653-.495-.001-.668.014-.943.083-.697.174-1.226.5-1.817 1.114-.442.46-.735.863-1.27 1.742-1.056 1.74-1.645 2.403-2.437 2.743-.228.098-.272.102-.904.101-.553 0-.723-.016-1.01-.088-.92-.231-1.62-.694-2.06-1.364-.184-.28-.357-.662-.409-.903l-.027-.127h.525c.507 0 .532-.004.764-.12.262-.131.466-.34.604-.62.082-.168.09-.246.113-1.236.027-1.163.064-1.398.31-1.975.269-.634.592-1.044 1.223-1.555.877-.71 1.363-1.446 1.658-2.513.102-.367.104-.392.118-1.899.014-1.484.012-1.532-.07-1.75a1.429 1.429 0 0 0-.653-.705c-.167-.077-.27-.088-.969-.106l-.782-.02-.02-1.979c-.02-2.162-.01-2.067-.257-2.148a.413.413 0 0 0-.451.104l-.093.099-.01 1.972-.012 1.972H9.303V8.25c0-1.364-.013-1.964-.044-2.032-.047-.103-.25-.221-.372-.217a.554.554 0 0 0-.155.036Zm3.674 7.59c.7.264 1.163 1.046 1.05 1.773-.136.882-.86 1.473-1.746 1.427-.677-.036-1.228-.455-1.468-1.116-.074-.205-.085-.3-.072-.606.014-.307.035-.405.14-.63a1.669 1.669 0 0 1 2.096-.848Z" fill="#fff"/></svg>