<svg width="42" height="24" viewBox="0 0 42 24" fill="none" xmlns="http://www.w3.org/2000/svg">
<path d="M4.5 17.736L8.9315 6.19678H10.5766L15.2993 17.736H13.5598L12.2138 14.2412H7.38874L6.12147 17.736H4.5ZM7.82953 12.9975H11.7415L10.5372 9.8018C10.1699 8.83102 9.89703 8.0334 9.71862 7.40895C9.57169 8.14884 9.36441 8.88349 9.09679 9.61289L7.82953 12.9975Z" fill="white"/>
<path d="M24.8687 13.6902L26.3957 14.0759C26.0756 15.33 25.4984 16.2877 24.6641 16.9489C23.835 17.6048 22.8196 17.9328 21.6179 17.9328C20.3742 17.9328 19.3615 17.6809 18.5796 17.1771C17.803 16.6681 17.21 15.9335 16.8007 14.9732C16.3966 14.0129 16.1946 12.9818 16.1946 11.8798C16.1946 10.6781 16.4229 9.63126 16.8794 8.73919C17.3412 7.84187 17.9945 7.16232 18.8393 6.70054C19.6894 6.23351 20.6235 6 21.6415 6C22.7959 6 23.7667 6.29386 24.5539 6.88158C25.341 7.46929 25.8893 8.29577 26.1989 9.36101L24.6955 9.71522C24.4279 8.87562 24.0396 8.26429 23.5306 7.88122C23.0216 7.49816 22.3814 7.30662 21.61 7.30662C20.7232 7.30662 19.9807 7.51915 19.3825 7.94419C18.7895 8.36924 18.3723 8.94121 18.1309 9.66012C17.8896 10.3738 17.7689 11.111 17.7689 11.8719C17.7689 12.8532 17.9105 13.7112 18.1939 14.4458C18.4825 15.1752 18.9286 15.721 19.532 16.083C20.1355 16.4451 20.7888 16.6261 21.492 16.6261C22.3473 16.6261 23.0714 16.3795 23.6644 15.8863C24.2574 15.393 24.6588 14.661 24.8687 13.6902Z" fill="white"/>
<path d="M28.4481 17.736V6.19678H29.9751V10.9353H35.973V6.19678H37.5V17.736H35.973V12.297H29.9751V17.736H28.4481Z" fill="white"/>
</svg>
