<svg width="28" height="16" viewBox="0 0 28 16" fill="none" xmlns="http://www.w3.org/2000/svg">
<path d="M3 11.824L5.95433 4.13119H7.05105L10.1995 11.824H9.03985L8.14253 9.49411H4.92583L4.08098 11.824H3ZM5.21968 8.66501H7.82768L7.02482 6.53453C6.77994 5.88734 6.59802 5.3556 6.47908 4.9393C6.38113 5.43256 6.24294 5.92233 6.06453 6.40859L5.21968 8.66501Z" fill="black"/>
<path d="M16.5791 9.12679L17.5971 9.38392C17.3837 10.22 16.9989 10.8585 16.4427 11.2992C15.89 11.7365 15.213 11.9552 14.4119 11.9552C13.5828 11.9552 12.9076 11.7873 12.3864 11.4514C11.8686 11.1121 11.4733 10.6223 11.2005 9.98213C10.9311 9.34194 10.7964 8.65452 10.7964 7.91987C10.7964 7.11875 10.9486 6.42084 11.2529 5.82612C11.5608 5.22791 11.9963 4.77488 12.5596 4.46703C13.1263 4.15568 13.749 4 14.4277 4C15.1973 4 15.8445 4.19591 16.3692 4.58772C16.894 4.97953 17.2596 5.53052 17.466 6.24067L16.4637 6.47681C16.2853 5.91708 16.0264 5.50953 15.6871 5.25415C15.3477 4.99877 14.9209 4.87108 14.4067 4.87108C13.8155 4.87108 13.3205 5.01276 12.9216 5.29613C12.5263 5.57949 12.2482 5.96081 12.0873 6.44008C11.9264 6.91585 11.8459 7.40736 11.8459 7.91462C11.8459 8.56881 11.9404 9.14078 12.1293 9.63055C12.3217 10.1168 12.619 10.4806 13.0213 10.722C13.4237 10.9634 13.8592 11.0841 14.328 11.0841C14.8982 11.0841 15.381 10.9197 15.7763 10.5908C16.1716 10.262 16.4392 9.77398 16.5791 9.12679Z" fill="black"/>
<path d="M18.9654 11.824V4.13119H19.9834V7.29017H23.982V4.13119H25V11.824H23.982V8.19798H19.9834V11.824H18.9654Z" fill="black"/>
</svg>
