<svg width="28" height="16" viewBox="0 0 28 16" fill="none" xmlns="http://www.w3.org/2000/svg">
<path d="M5.70331 3.80639C6.01726 3.4137 6.2303 2.88645 6.17411 2.34766C5.71454 2.37051 5.15371 2.65085 4.82902 3.04384C4.53748 3.38038 4.27945 3.92971 4.34672 4.44592C4.86262 4.49067 5.37804 4.18805 5.70331 3.80639Z" fill="black"/>
<path d="M6.16878 4.54596C5.41958 4.50133 4.78256 4.97117 4.42478 4.97117C4.0668 4.97117 3.51891 4.56845 2.92633 4.5793C2.15504 4.59063 1.43938 5.02672 1.04798 5.72031C0.242949 7.10783 0.835533 9.16601 1.61838 10.2961C1.99855 10.8551 2.45672 11.4707 3.06043 11.4486C3.63084 11.4262 3.85441 11.0793 4.54776 11.0793C5.2406 11.0793 5.442 11.4486 6.0458 11.4374C6.67197 11.4262 7.06343 10.8781 7.4436 10.3184C7.87972 9.68113 8.05826 9.06575 8.06949 9.03197C8.05826 9.02078 6.86207 8.56189 6.85098 7.1859C6.83968 6.03377 7.79012 5.48575 7.83485 5.45176C7.29813 4.65795 6.45952 4.56845 6.16878 4.54596Z" fill="black"/>
<path d="M12.6933 2.98828C14.3217 2.98828 15.4556 4.11075 15.4556 5.74498C15.4556 7.38504 14.2983 8.51333 12.6524 8.51333H10.8495V11.3805H9.54688V2.98828H12.6933V2.98828ZM10.8495 7.41992H12.3442C13.4783 7.41992 14.1238 6.80933 14.1238 5.75081C14.1238 4.6924 13.4783 4.08753 12.35 4.08753H10.8495V7.41992Z" fill="black"/>
<path d="M15.7969 9.64221C15.7969 8.57202 16.6169 7.91487 18.071 7.83343L19.7458 7.7346V7.26356C19.7458 6.58308 19.2863 6.17598 18.5188 6.17598C17.7916 6.17598 17.338 6.52486 17.2276 7.07162H16.0412C16.111 5.96654 17.0531 5.15234 18.5652 5.15234C20.0482 5.15234 20.9962 5.93749 20.9962 7.16462V11.3811H19.7923V10.375H19.7633C19.4086 11.0554 18.635 11.4858 17.8325 11.4858C16.6344 11.4858 15.7969 10.7413 15.7969 9.64221ZM19.7458 9.08972V8.60702L18.2395 8.70001C17.4892 8.7524 17.0647 9.08389 17.0647 9.60732C17.0647 10.1423 17.5067 10.4913 18.1814 10.4913C19.0595 10.4913 19.7458 9.88642 19.7458 9.08972Z" fill="black"/>
<path d="M22.1361 13.6307V12.6129C22.229 12.6362 22.4383 12.6362 22.5431 12.6362C23.1246 12.6362 23.4387 12.3919 23.6306 11.7639C23.6306 11.7522 23.7412 11.3916 23.7412 11.3858L21.5312 5.26172H22.892L24.4392 10.2401H24.4623L26.0094 5.26172H27.3354L25.0438 11.6998C24.5206 13.1829 23.9157 13.6598 22.6479 13.6598C22.5431 13.6598 22.229 13.6481 22.1361 13.6307Z" fill="black"/>
</svg>
