<svg width="28" height="16" viewBox="0 0 28 16" fill="none" xmlns="http://www.w3.org/2000/svg">
<g clip-path="url(#clip0_3008_12558)">
<path d="M13.9989 0.535156L8.72656 9.31939H19.2712L13.9989 0.535156Z" fill="#FFB914"/>
<path d="M13.9865 8.1105C12.3068 8.1105 10.9453 6.32522 10.9453 6.32522C10.9453 6.32522 12.3068 4.54297 13.9865 4.54297C15.6661 4.54297 17.0276 6.32825 17.0276 6.32825C17.0276 6.32825 15.6661 8.1105 13.9865 8.1105Z" fill="black"/>
<path d="M13.99 7.59965C14.7007 7.59965 15.2768 7.02819 15.2768 6.32326C15.2768 5.61833 14.7007 5.04688 13.99 5.04688C13.2793 5.04688 12.7031 5.61833 12.7031 6.32326C12.7031 7.02819 13.2793 7.59965 13.99 7.59965Z" fill="#FFB914"/>
<path d="M13.9777 7.07896C14.3968 7.07896 14.7366 6.74212 14.7366 6.32659C14.7366 5.91107 14.3968 5.57422 13.9777 5.57422C13.5585 5.57422 13.2188 5.91107 13.2188 6.32659C13.2188 6.74212 13.5585 7.07896 13.9777 7.07896Z" fill="#1E41FF"/>
<path d="M1.49351 11.4633V12.4003H3.14964V13.0584H1.49351V14.3496H0.664062V10.8047H3.36899V11.4633H1.49351Z" fill="black"/>
<path fill-rule="evenodd" clip-rule="evenodd" d="M6.39306 12.8287C6.39306 12.4244 6.27611 12.122 6.04222 11.9216C5.80832 11.7213 5.47289 11.6211 5.03589 11.6211C4.81281 11.6208 4.59073 11.6498 4.37571 11.7071C4.17874 11.7567 3.99209 11.8386 3.82398 11.9494L4.11681 12.5004C4.22736 12.4182 4.35225 12.3557 4.48559 12.316C4.62836 12.2708 4.77765 12.2477 4.92791 12.2477C5.1442 12.2483 5.30642 12.295 5.41456 12.3879C5.52271 12.4808 5.57679 12.613 5.57679 12.7846H4.92791C4.51608 12.7846 4.21176 12.857 4.01496 13.0018C3.82059 13.1412 3.70997 13.3642 3.7193 13.5979C3.71641 13.7475 3.75938 13.8947 3.84284 14.0209C3.93227 14.1504 4.05851 14.2522 4.20641 14.3142C4.38436 14.3887 4.57697 14.4249 4.77088 14.4202C5.18931 14.4205 5.4754 14.2943 5.62912 14.0414V14.3797H6.39306V12.8287ZM5.57682 13.5232C5.53576 13.6377 5.45408 13.7345 5.34622 13.7965C5.23406 13.8609 5.10561 13.8942 4.97511 13.8925C4.85564 13.899 4.73721 13.868 4.63747 13.8042C4.55746 13.7491 4.51126 13.6591 4.51438 13.5642C4.51438 13.3517 4.68179 13.2455 5.0166 13.2455H5.57682V13.5232Z" fill="black"/>
<path d="M7.37753 14.2666C7.19181 14.225 7.01416 14.1541 6.85156 14.0568L7.11924 13.4916C7.2586 13.5757 7.40963 13.6395 7.56761 13.6809C7.73522 13.7286 7.90889 13.7533 8.08345 13.7542C8.42419 13.7542 8.59465 13.6716 8.59465 13.5066C8.59465 13.4292 8.54812 13.3737 8.45522 13.3401C8.31632 13.2966 8.17296 13.2678 8.02764 13.2541C7.83774 13.2282 7.64981 13.1894 7.46544 13.138C7.31887 13.095 7.18648 13.015 7.0816 12.9059C6.97347 12.7949 6.91927 12.6367 6.91894 12.4313C6.91695 12.2673 6.97037 12.1073 7.0709 11.9762C7.18507 11.8323 7.33884 11.7234 7.51429 11.6622C7.73468 11.5839 7.96791 11.5463 8.20238 11.5512C8.39923 11.552 8.59554 11.574 8.7874 11.6167C8.95662 11.6494 9.11923 11.7082 9.26937 11.791L9.00173 12.3512C8.7578 12.2166 8.48232 12.147 8.20238 12.1492C8.03049 12.1492 7.90122 12.1728 7.81581 12.2201C7.73022 12.2675 7.68654 12.328 7.68654 12.4022C7.68654 12.4862 7.73308 12.5452 7.82597 12.5792C7.9704 12.6244 8.11893 12.6564 8.26942 12.6748C8.45736 12.7036 8.64369 12.7432 8.82699 12.7935C8.97106 12.8349 9.10104 12.9135 9.20339 13.0211C9.31002 13.1321 9.36316 13.287 9.36316 13.4857C9.3653 13.6483 9.31073 13.8067 9.20856 13.9348C9.0907 14.0763 8.93451 14.1822 8.7578 14.2402C8.53153 14.3171 8.29314 14.354 8.05367 14.3489C7.82562 14.3496 7.59845 14.322 7.37753 14.2666Z" fill="black"/>
<path d="M11.6799 14.1789C11.5922 14.24 11.4931 14.2837 11.3882 14.3077C11.2687 14.3365 11.1463 14.3509 11.0232 14.3505C10.6923 14.3505 10.4364 14.268 10.2556 14.1029C10.0748 13.9378 9.98423 13.6951 9.98387 13.3746V12.2594H9.55469V11.6536H9.98387V10.9922H10.7907V11.6536H11.4838V12.2594H10.7907V13.3655C10.7845 13.4621 10.8167 13.5573 10.8811 13.6309C10.9494 13.6952 11.0423 13.7282 11.137 13.7219C11.2543 13.7253 11.3693 13.6897 11.4633 13.6209L11.6799 14.1789Z" fill="black"/>
<path fill-rule="evenodd" clip-rule="evenodd" d="M12.6975 13.2398H14.8271C14.8374 13.1082 14.8427 13.0376 14.8408 13.0272C14.8467 12.7667 14.7807 12.5094 14.6498 12.2817C14.527 12.0722 14.3446 11.9012 14.124 11.789C13.8933 11.6728 13.6363 11.6139 13.3762 11.6173C13.1089 11.6139 12.8452 11.6756 12.6093 11.7967C12.3853 11.9126 12.1988 12.0859 12.0704 12.2976C11.9387 12.5161 11.8711 12.7652 11.8752 13.018C11.8709 13.2719 11.9399 13.522 12.0742 13.7403C12.2095 13.9551 12.4058 14.1279 12.6399 14.238C12.9021 14.3616 13.1911 14.4231 13.4826 14.4174C13.992 14.4174 14.3791 14.2709 14.6441 13.978L14.2098 13.5226C14.1194 13.6091 14.0118 13.677 13.8934 13.722C13.7686 13.7662 13.6363 13.7877 13.5035 13.7853C13.3139 13.7919 13.1271 13.7406 12.9696 13.6387C12.8291 13.5446 12.7316 13.4017 12.6975 13.2398ZM12.689 12.7794C12.7091 12.6183 12.7913 12.4704 12.9192 12.365C13.0508 12.2627 13.2161 12.2095 13.3851 12.2152C13.5529 12.2106 13.7166 12.2655 13.8453 12.3696C13.9717 12.4741 14.0536 12.6201 14.0753 12.7794H12.689Z" fill="black"/>
<path d="M16.5124 11.6536C16.6935 11.5822 16.8874 11.5474 17.0826 11.551V12.29C16.9924 12.2831 16.9319 12.2798 16.9004 12.2798C16.6677 12.2798 16.4854 12.3439 16.3537 12.472C16.2219 12.6001 16.1559 12.792 16.1556 13.0479V14.3494H15.3438V11.5921H16.1194V11.9561C16.2189 11.8209 16.3551 11.7161 16.5124 11.6536Z" fill="black"/>
<path fill-rule="evenodd" clip-rule="evenodd" d="M20.841 12.1241C20.8606 11.6349 20.5633 11.1854 20.0955 10.997C19.8282 10.8872 19.5397 10.8338 19.2494 10.8404H17.6641V14.3772H18.5128V13.4023H19.2503C19.5402 13.4088 19.828 13.3562 20.0955 13.2479C20.3208 13.1559 20.5129 13.0012 20.6471 12.8035C20.7791 12.6002 20.8465 12.364 20.841 12.1241ZM19.9826 12.1241C19.9824 12.3193 19.9161 12.47 19.7841 12.5763C19.6515 12.6822 19.4578 12.7366 19.2032 12.7393H18.5128V11.5098H19.2032C19.4578 11.5098 19.652 11.5644 19.7841 11.6687C19.9161 11.773 19.9826 11.9251 19.9826 12.1241Z" fill="black"/>
<path fill-rule="evenodd" clip-rule="evenodd" d="M23.8398 12.8287C23.8401 12.4244 23.7233 12.122 23.4894 11.9216C23.2554 11.7213 22.9208 11.6211 22.485 11.6211C22.2619 11.6208 22.0398 11.6498 21.8247 11.7071C21.6264 11.7567 21.4385 11.8391 21.2693 11.9508L21.5621 12.5018C21.6726 12.4196 21.7976 12.3572 21.9308 12.3173C22.0736 12.2721 22.2229 12.2491 22.3732 12.249C22.5896 12.249 22.7514 12.2969 22.8598 12.3879C22.968 12.4808 23.022 12.613 23.022 12.7846H22.3732C21.9617 12.7846 21.6573 12.857 21.4603 13.0018C21.2659 13.1412 21.1552 13.3642 21.1646 13.5979C21.163 13.7479 21.2072 13.895 21.2919 14.0209C21.3814 14.1503 21.5077 14.2521 21.6555 14.3142C21.8329 14.3884 22.0248 14.4246 22.2181 14.4202C22.6365 14.4205 22.9225 14.2943 23.0762 14.0414V14.3797H23.8398V12.8287ZM23.0238 13.5232C22.9828 13.6376 22.9013 13.7344 22.7936 13.7965C22.6813 13.8608 22.5527 13.8941 22.422 13.8925C22.3026 13.899 22.1842 13.868 22.0843 13.8042C22.0044 13.7491 21.9583 13.6591 21.9613 13.5642C21.9613 13.3517 22.1287 13.2455 22.4636 13.2455H23.0238V13.5232Z" fill="black"/>
<path d="M27.3315 11.7383L26.0346 14.6168C25.903 14.9295 25.7404 15.1497 25.5468 15.2775C25.34 15.409 25.095 15.4761 24.846 15.4693C24.6959 15.4689 24.5467 15.4467 24.4037 15.4034C24.2726 15.3671 24.151 15.3052 24.0469 15.2216L24.3504 14.6618C24.4156 14.7161 24.4907 14.7589 24.5718 14.7881C24.6508 14.8175 24.7348 14.8329 24.8197 14.8336C24.9186 14.8376 25.0162 14.8101 25.0967 14.7554C25.182 14.6847 25.2479 14.5956 25.2888 14.4955L25.2993 14.4705L24.0594 11.7383H24.917L25.7206 13.5795L26.5303 11.7392L27.3315 11.7383Z" fill="black"/>
</g>
<defs>
<clipPath id="clip0_3008_12558">
<rect width="28" height="16" fill="white"/>
</clipPath>
</defs>
</svg>
