<svg width="42" height="24" viewBox="0 0 42 24" fill="none" xmlns="http://www.w3.org/2000/svg">
<path d="M21.0022 0.802734L13.0938 13.9791H28.9107L21.0022 0.802734Z" fill="#FFB914"/>
<path d="M20.9836 12.1657C18.4641 12.1657 16.4219 9.48782 16.4219 9.48782C16.4219 9.48782 18.4641 6.81445 20.9836 6.81445C23.5031 6.81445 25.5453 9.49237 25.5453 9.49237C25.5453 9.49237 23.5031 12.1657 20.9836 12.1657Z" fill="white"/>
<path d="M20.9928 11.3995C22.0588 11.3995 22.9231 10.5423 22.9231 9.48489C22.9231 8.4275 22.0588 7.57031 20.9928 7.57031C19.9267 7.57031 19.0625 8.4275 19.0625 9.48489C19.0625 10.5423 19.9267 11.3995 20.9928 11.3995Z" fill="#FFB914"/>
<path d="M20.9665 10.6184C21.5952 10.6184 22.1049 10.1132 22.1049 9.48989C22.1049 8.8666 21.5952 8.36133 20.9665 8.36133C20.3378 8.36133 19.8281 8.8666 19.8281 9.48989C19.8281 10.1132 20.3378 10.6184 20.9665 10.6184Z" fill="#1E41FF"/>
<path d="M2.24417 17.1949V18.6004H4.72837V19.5876H2.24417V21.5244H1V16.207H5.0574V17.1949H2.24417Z" fill="white"/>
<path fill-rule="evenodd" clip-rule="evenodd" d="M9.58959 19.2431C9.58959 18.6366 9.41416 18.183 9.06333 17.8824C8.71248 17.5819 8.20933 17.4316 7.55384 17.4316C7.21922 17.4313 6.8861 17.4747 6.56357 17.5607C6.26811 17.635 5.98813 17.7579 5.73597 17.9241L6.17522 18.7506C6.34104 18.6273 6.52837 18.5336 6.72838 18.474C6.94254 18.4061 7.16648 18.3716 7.39187 18.3715C7.7163 18.3724 7.95963 18.4426 8.12185 18.5819C8.28406 18.7212 8.36518 18.9196 8.36518 19.1768H7.39187C6.77412 19.1768 6.31764 19.2854 6.02245 19.5027C5.73089 19.7118 5.56496 20.0463 5.57894 20.3968C5.57461 20.6213 5.63907 20.8421 5.76427 21.0313C5.8984 21.2256 6.08776 21.3784 6.30962 21.4712C6.57654 21.583 6.86545 21.6373 7.15632 21.6304C7.78396 21.6308 8.2131 21.4414 8.44368 21.0621V21.5696H9.58959V19.2431ZM8.36524 20.2849C8.30364 20.4566 8.18112 20.6018 8.01933 20.6947C7.8511 20.7914 7.65842 20.8413 7.46267 20.8388C7.28347 20.8485 7.10582 20.802 6.9562 20.7063C6.83619 20.6237 6.76689 20.4886 6.77157 20.3463C6.77157 20.0276 7.02269 19.8682 7.5249 19.8682H8.36524V20.2849Z" fill="white"/>
<path d="M11.0702 21.3999C10.7916 21.3375 10.5251 21.2312 10.2812 21.0852L10.6828 20.2374C10.8918 20.3636 11.1183 20.4592 11.3553 20.5214C11.6067 20.5929 11.8672 20.6299 12.1291 20.6313C12.6402 20.6313 12.8959 20.5075 12.8959 20.2599C12.8959 20.1439 12.8261 20.0606 12.6867 20.0101C12.4784 19.9449 12.2633 19.9017 12.0454 19.8811C11.7605 19.8423 11.4786 19.7841 11.2021 19.707C10.9822 19.6425 10.7836 19.5225 10.6263 19.3589C10.4641 19.1923 10.3828 18.955 10.3823 18.6469C10.3793 18.401 10.4595 18.161 10.6103 17.9644C10.7815 17.7485 11.0122 17.5851 11.2753 17.4934C11.6059 17.3759 11.9558 17.3194 12.3075 17.3268C12.6028 17.328 12.8972 17.361 13.185 17.4251C13.4388 17.4741 13.6828 17.5623 13.908 17.6865L13.5065 18.5268C13.1406 18.3249 12.7274 18.2204 12.3075 18.2237C12.0496 18.2237 11.8557 18.2592 11.7276 18.3302C11.5992 18.4012 11.5337 18.492 11.5337 18.6033C11.5337 18.7293 11.6035 18.8178 11.7429 18.8688C11.9595 18.9366 12.1823 18.9846 12.408 19.0121C12.6899 19.0554 12.9694 19.1148 13.2444 19.1903C13.4605 19.2524 13.6555 19.3703 13.809 19.5316C13.9689 19.6981 14.0486 19.9305 14.0486 20.2285C14.0518 20.4724 13.97 20.71 13.8168 20.9022C13.64 21.1145 13.4057 21.2733 13.1406 21.3602C12.8012 21.4757 12.4436 21.5309 12.0844 21.5234C11.7423 21.5244 11.4016 21.4829 11.0702 21.3999Z" fill="white"/>
<path d="M17.5238 21.2684C17.3922 21.3599 17.2435 21.4256 17.0862 21.4616C16.907 21.5048 16.7233 21.5264 16.5387 21.5258C16.0423 21.5258 15.6585 21.402 15.3873 21.1543C15.1161 20.9067 14.9802 20.5426 14.9797 20.0619V18.3891H14.3359V17.4803H14.9797V16.4883H16.19V17.4803H17.2296V18.3891H16.19V20.0483C16.1806 20.1931 16.229 20.3359 16.3256 20.4463C16.428 20.5428 16.5674 20.5924 16.7094 20.5829C16.8854 20.588 17.0579 20.5345 17.1988 20.4313L17.5238 21.2684Z" fill="white"/>
<path fill-rule="evenodd" clip-rule="evenodd" d="M19.0463 19.8597H22.2406C22.2561 19.6623 22.2641 19.5564 22.2612 19.5407C22.27 19.1501 22.171 18.7642 21.9747 18.4226C21.7904 18.1083 21.5168 17.8518 21.186 17.6835C20.8399 17.5093 20.4545 17.4208 20.0643 17.426C19.6633 17.4208 19.2678 17.5134 18.9139 17.6951C18.578 17.8689 18.2982 18.1289 18.1056 18.4465C17.908 18.7742 17.8066 19.1479 17.8128 19.5271C17.8064 19.9079 17.9099 20.2829 18.1113 20.6104C18.3143 20.9327 18.6087 21.1918 18.9599 21.357C19.3531 21.5424 19.7866 21.6347 20.2239 21.6261C20.9881 21.6261 21.5687 21.4064 21.9662 20.967L21.3146 20.2839C21.179 20.4136 21.0178 20.5154 20.8402 20.5831C20.6529 20.6493 20.4545 20.6815 20.2552 20.678C19.9709 20.6879 19.6906 20.6109 19.4544 20.4581C19.2437 20.3169 19.0974 20.1025 19.0463 19.8597ZM19.0335 19.1691C19.0637 18.9274 19.187 18.7056 19.3788 18.5475C19.5761 18.3941 19.8241 18.3143 20.0776 18.3228C20.3293 18.316 20.5748 18.3983 20.7679 18.5544C20.9576 18.7112 21.0803 18.9301 21.113 19.1691H19.0335Z" fill="white"/>
<path d="M24.7686 17.4804C25.0403 17.3734 25.331 17.3211 25.6239 17.3266V18.435C25.4886 18.4246 25.3979 18.4198 25.3506 18.4198C25.0015 18.4198 24.7282 18.5158 24.5305 18.7079C24.3329 18.9001 24.2339 19.188 24.2334 19.5718V21.5241H23.0156V17.3882H24.1791V17.9341C24.3283 17.7314 24.5327 17.5741 24.7686 17.4804Z" fill="white"/>
<path fill-rule="evenodd" clip-rule="evenodd" d="M31.2653 18.1861C31.2948 17.4523 30.8489 16.7781 30.1471 16.4955C29.7462 16.3308 29.3134 16.2507 28.878 16.2606H26.5V21.5659H27.7731V20.1034H28.8793C29.3142 20.1132 29.7459 20.0343 30.1471 19.8719C30.4852 19.7339 30.7732 19.5018 30.9746 19.2052C31.1725 18.9003 31.2736 18.5459 31.2653 18.1861ZM29.9778 18.1861C29.9775 18.479 29.878 18.705 29.6801 18.8644C29.4811 19.0233 29.1906 19.1049 28.8087 19.109H27.7731V17.2647H28.8087C29.1906 17.2647 29.4819 17.3467 29.6801 17.5031C29.878 17.6595 29.9778 17.8876 29.9778 18.1861Z" fill="white"/>
<path fill-rule="evenodd" clip-rule="evenodd" d="M35.7635 19.2431C35.7641 18.6366 35.5889 18.183 35.238 17.8824C34.8871 17.5819 34.3851 17.4316 33.7314 17.4316C33.3968 17.4313 33.0635 17.4747 32.741 17.5607C32.4436 17.635 32.1617 17.7587 31.9078 17.9262L32.347 18.7527C32.5128 18.6294 32.7003 18.5358 32.9001 18.476C33.1144 18.4082 33.3382 18.3736 33.5637 18.3736C33.8884 18.3736 34.131 18.4453 34.2936 18.5819C34.4559 18.7212 34.537 18.9196 34.537 19.1768H33.5637C32.9464 19.1768 32.4898 19.2854 32.1943 19.5027C31.9028 19.7118 31.7367 20.0463 31.7508 20.3968C31.7484 20.6218 31.8148 20.8425 31.9418 21.0313C32.0761 21.2255 32.2654 21.3782 32.4872 21.4712C32.7533 21.5827 33.0411 21.6369 33.331 21.6304C33.9587 21.6308 34.3877 21.4414 34.6183 21.0621V21.5696H35.7635V19.2431ZM34.5396 20.2849C34.4781 20.4564 34.3559 20.6015 34.1944 20.6947C34.0259 20.7913 33.833 20.8411 33.637 20.8388C33.4578 20.8485 33.2802 20.802 33.1304 20.7063C33.0106 20.6237 32.9413 20.4886 32.9459 20.3463C32.9459 20.0276 33.197 19.8682 33.6993 19.8682H34.5396V20.2849Z" fill="white"/>
<path d="M41.005 17.6074L39.0598 21.9253C38.8624 22.3942 38.6185 22.7245 38.328 22.9163C38.0177 23.1135 37.6503 23.2141 37.2769 23.2039C37.0517 23.2034 36.8278 23.1701 36.6133 23.1051C36.4167 23.0507 36.2343 22.9578 36.0781 22.8324L36.5333 21.9928C36.6312 22.0742 36.7438 22.1383 36.8655 22.1822C36.984 22.2263 37.11 22.2494 37.2373 22.2504C37.3857 22.2565 37.532 22.2152 37.6529 22.1331C37.7808 22.0271 37.8797 21.8933 37.941 21.7433L37.9568 21.7058L36.0968 17.6074H37.3833L38.5888 20.3692L39.8033 17.6088L41.005 17.6074Z" fill="white"/>
</svg>
