<svg width="28" height="16" viewBox="0 0 28 16" fill="none" xmlns="http://www.w3.org/2000/svg">
<path d="M13.6013 7.83478V10.9338H12.6016V3.26953H15.2008C15.8339 3.26953 16.4337 3.50279 16.9002 3.93599C17.3668 4.33587 17.6 4.93568 17.6 5.56882C17.6 6.20196 17.3668 6.76845 16.9002 7.20165C16.4337 7.63484 15.8672 7.86811 15.2008 7.86811L13.6013 7.83478ZM13.6013 4.20258V6.86842H15.2674C15.634 6.86842 16.0005 6.73512 16.2338 6.46854C16.7669 5.96869 16.7669 5.13562 16.2671 4.63577L16.2338 4.60245C15.9672 4.33587 15.634 4.16925 15.2674 4.20258H13.6013Z" fill="#3B4043"/>
<path d="M19.9009 5.53516C20.634 5.53516 21.2004 5.73509 21.6336 6.13497C22.0668 6.53485 22.2668 7.06801 22.2668 7.73447V10.9335H21.3337V10.2004H21.3004C20.9005 10.8002 20.334 11.1001 19.6676 11.1001C19.1011 11.1001 18.6013 10.9335 18.2014 10.6003C17.8348 10.267 17.6016 9.8005 17.6016 9.30066C17.6016 8.76749 17.8015 8.33429 18.2014 8.00106C18.6013 7.66783 19.1677 7.53454 19.8342 7.53454C20.434 7.53454 20.9005 7.63451 21.2671 7.86777V7.63451C21.2671 7.30128 21.1338 6.96805 20.8672 6.76811C20.6006 6.53485 20.2674 6.40155 19.9009 6.40155C19.3344 6.40155 18.9012 6.63482 18.6013 7.10134L17.7349 6.56817C18.268 5.86839 18.9678 5.53516 19.9009 5.53516ZM18.6346 9.33398C18.6346 9.60056 18.7679 9.83382 18.9678 9.96712C19.2011 10.1337 19.4677 10.2337 19.7342 10.2337C20.1341 10.2337 20.534 10.0671 20.8339 9.76718C21.1671 9.46727 21.3337 9.10072 21.3337 8.70084C21.0338 8.46758 20.6006 8.33429 20.0341 8.33429C19.6343 8.33429 19.301 8.43426 19.0345 8.6342C18.7679 8.80081 18.6346 9.03407 18.6346 9.33398Z" fill="#3B4043"/>
<path d="M27.6692 5.70312L24.3702 13.2674H23.3705L24.6035 10.6349L22.4375 5.73645H23.5038L25.07 9.50195H25.1033L26.6362 5.73645H27.6692V5.70312Z" fill="#3B4043"/>
<path d="M9.63827 7.16925C9.63827 6.86935 9.60495 6.56944 9.57163 6.26953H5.40625V7.969H7.77218C7.67221 8.50217 7.37231 9.00202 6.90579 9.30193V10.4016H8.33868C9.17175 9.63515 9.63827 8.50217 9.63827 7.16925Z" fill="#4285F4"/>
<path d="M5.40086 11.4679C6.60049 11.4679 7.60018 11.068 8.33329 10.4016L6.9004 9.30191C6.50052 9.56849 6.00068 9.73511 5.40086 9.73511C4.26788 9.73511 3.26819 8.96868 2.93496 7.90234H1.46875V9.03533C2.23518 10.5349 3.73471 11.4679 5.40086 11.4679Z" fill="#34A853"/>
<path d="M2.94107 7.90277C2.74113 7.3696 2.74113 6.76979 2.94107 6.20329V5.07031H1.47485C0.841716 6.30326 0.841716 7.76948 1.47485 9.03575L2.94107 7.90277Z" fill="#FBBC04"/>
<path d="M5.4066 4.40256C6.03974 4.40256 6.63955 4.63582 7.10608 5.06902L8.37235 3.80274C7.5726 3.06964 6.50626 2.63644 5.43993 2.66976C3.77378 2.66976 2.24092 3.60281 1.50781 5.10234L2.97402 6.23532C3.27393 5.16899 4.27362 4.40256 5.4066 4.40256Z" fill="#EA4335"/>
</svg>
