<svg width="28" height="16" viewBox="0 0 28 16" fill="none" xmlns="http://www.w3.org/2000/svg">
<path fill-rule="evenodd" clip-rule="evenodd" d="M13.4413 5.03307C12.5363 5.03313 11.8026 5.76686 11.8026 6.67198V12.0923C11.8026 12.1845 11.7279 12.2592 11.6357 12.2592C11.5435 12.2592 11.4688 12.1845 11.4688 12.0923V6.67198C11.4688 5.58244 12.352 4.69922 13.4415 4.69922H13.4417L15.0422 4.70163C16.1287 4.70379 17.0083 5.58518 17.0083 6.6717V7.82542C17.0083 8.91497 16.1251 9.79818 15.0356 9.79818H12.7741C12.6819 9.79818 12.6072 9.72345 12.6072 9.63126C12.6072 9.53907 12.6819 9.46433 12.7741 9.46433H15.0356C15.9407 9.46433 16.6745 8.73058 16.6745 7.82542V6.6717C16.6745 5.76932 15.9439 5.03731 15.0416 5.03548C15.0416 5.03548 15.0415 5.03548 15.0415 5.03548L13.4415 5.03307C13.4414 5.03307 13.4414 5.03307 13.4413 5.03307Z" fill="black"/>
<path fill-rule="evenodd" clip-rule="evenodd" d="M17.125 4.86224C17.125 4.77005 17.1997 4.69531 17.2919 4.69531H17.9861C18.4876 4.69531 18.8941 5.10185 18.8941 5.60333V9.65232C18.8941 9.74451 18.8194 9.81925 18.7272 9.81925C18.635 9.81925 18.5603 9.74451 18.5603 9.65232V5.60333C18.5603 5.2862 18.3032 5.02916 17.9861 5.02916H17.2919C17.1997 5.02916 17.125 4.95443 17.125 4.86224Z" fill="black"/>
<path d="M18.5766 4.23669L18.2617 3.92184C18.1836 3.84373 18.1836 3.71706 18.2617 3.63895L18.5764 3.3243C18.6546 3.24607 18.7814 3.24607 18.8596 3.3243L19.1743 3.63895C19.2524 3.71706 19.2524 3.84373 19.1743 3.92184L18.8594 4.23669C18.7813 4.3148 18.6547 4.3148 18.5766 4.23669Z" fill="#32BCAD"/>
<path fill-rule="evenodd" clip-rule="evenodd" d="M19.8906 4.86224C19.8906 4.77005 19.9654 4.69531 20.0575 4.69531H20.746C21.1445 4.69531 21.5266 4.85361 21.8083 5.13531L23.4186 6.74563L23.4186 6.74564C23.562 6.88904 23.7945 6.88906 23.9379 6.74563L25.5424 5.1412L25.5424 5.1412C25.8241 4.85951 26.2062 4.70121 26.6046 4.70121H27.1644C27.2566 4.70121 27.3313 4.77594 27.3313 4.86813C27.3313 4.96032 27.2566 5.03506 27.1644 5.03506H26.6046C26.2947 5.03506 25.9976 5.15817 25.7784 5.37728L24.174 6.9817C23.9002 7.25548 23.4563 7.2555 23.1826 6.98169C23.1825 6.98169 23.1825 6.98169 23.1825 6.98168L21.5722 5.37138C21.3531 5.15228 21.0559 5.02916 20.746 5.02916H20.0575C19.9654 5.02916 19.8906 4.95443 19.8906 4.86224Z" fill="black"/>
<path fill-rule="evenodd" clip-rule="evenodd" d="M23.9379 7.73438C23.7945 7.59095 23.562 7.59097 23.4186 7.73437L23.4186 7.73438L21.8083 9.3447C21.5266 9.6264 21.1445 9.7847 20.746 9.7847H20.0575C19.9654 9.7847 19.8906 9.70996 19.8906 9.61778C19.8906 9.52559 19.9654 9.45085 20.0575 9.45085H20.746C21.0559 9.45085 21.3531 9.32773 21.5722 9.10864L23.1825 7.49833C23.1825 7.49832 23.1825 7.49832 23.1826 7.49832C23.4563 7.22451 23.9002 7.22453 24.174 7.49832L25.7784 9.10273C25.9976 9.32184 26.2947 9.44496 26.6046 9.44496H27.1644C27.2566 9.44496 27.3313 9.51969 27.3313 9.61188C27.3313 9.70407 27.2566 9.7788 27.1644 9.7788H26.6046C26.2062 9.7788 25.8241 9.6205 25.5424 9.33882L25.5424 9.33881L23.9379 7.73438Z" fill="black"/>
<path d="M7.52916 10.6483C7.18364 10.6483 6.85865 10.5138 6.61431 10.2695L5.29336 8.94854C5.20061 8.85556 5.03897 8.85583 4.94626 8.94854L3.62048 10.2744C3.37614 10.5186 3.05115 10.6531 2.70563 10.6531H2.44531L4.11835 12.3261C4.64082 12.8486 5.48797 12.8486 6.01048 12.3261L7.68827 10.6483H7.52916Z" fill="#32BCAD"/>
<path d="M2.70556 5.975C3.05108 5.975 3.37607 6.10953 3.62041 6.35375L4.94618 7.67977C5.04167 7.77529 5.19757 7.77565 5.29329 7.67966L6.61424 6.35859C6.85858 6.11436 7.18356 5.97983 7.52908 5.97983H7.68819L6.01044 4.30204C5.48789 3.77953 4.64075 3.77953 4.11827 4.30204L2.44531 5.975L2.70556 5.975Z" fill="#32BCAD"/>
<path d="M9.07922 7.36558L8.06533 6.35169C8.04301 6.36063 8.01883 6.36621 7.99331 6.36621H7.53232C7.294 6.36621 7.06069 6.46288 6.89229 6.63141L5.57138 7.95236C5.44776 8.07597 5.28533 8.13782 5.12306 8.13782C4.96063 8.13782 4.79831 8.07597 4.67474 7.95248L3.34884 6.62658C3.18043 6.45802 2.94713 6.36139 2.7088 6.36139H2.14197C2.11779 6.36139 2.0952 6.35569 2.07387 6.34766L1.05595 7.36558C0.533434 7.8881 0.533434 8.7352 1.05595 9.25772L2.07383 10.2756C2.0952 10.2676 2.11779 10.2619 2.14197 10.2619H2.7088C2.94713 10.2619 3.18043 10.1652 3.34884 9.99672L4.67461 8.67094C4.91425 8.4315 5.33198 8.43143 5.57138 8.67105L6.89229 9.99188C7.06069 10.1604 7.294 10.2571 7.53232 10.2571H7.99331C8.01883 10.2571 8.04301 10.2627 8.06533 10.2716L9.07922 9.25771C9.6017 8.7352 9.6017 7.8881 9.07922 7.36558Z" fill="#32BCAD"/>
<path d="M13.0149 11.6311C12.94 11.6311 12.853 11.6492 12.7668 11.669V11.9993C12.8265 12.0211 12.8946 12.0316 12.9599 12.0316C13.1256 12.0316 13.2041 11.9757 13.2041 11.8298C13.2041 11.6927 13.1398 11.6311 13.0149 11.6311ZM12.7109 12.2446V11.5913H12.7564L12.7611 11.6198C12.8378 11.6018 12.9438 11.5781 13.0195 11.5781C13.0811 11.5781 13.1398 11.5875 13.189 11.6273C13.2458 11.6738 13.2638 11.7485 13.2638 11.8298C13.2638 11.9152 13.2353 11.9956 13.1578 12.04C13.1038 12.0703 13.0309 12.0826 12.9656 12.0826C12.8984 12.0826 12.834 12.0722 12.7668 12.0524V12.2446H12.7109Z" fill="black"/>
<path d="M13.6742 11.6292C13.5085 11.6292 13.4347 11.6813 13.4347 11.8271C13.4347 11.9681 13.5076 12.0316 13.6742 12.0316C13.8389 12.0316 13.9127 11.9804 13.9127 11.8347C13.9127 11.6936 13.8399 11.6292 13.6742 11.6292ZM13.8872 12.0316C13.8322 12.0713 13.7584 12.0827 13.6742 12.0827C13.588 12.0827 13.5142 12.0704 13.4602 12.0316C13.3997 11.989 13.375 11.9189 13.375 11.8309C13.375 11.7438 13.3997 11.6729 13.4602 11.6292C13.5142 11.5905 13.588 11.5781 13.6742 11.5781C13.7593 11.5781 13.8322 11.5905 13.8872 11.6292C13.9487 11.6729 13.9723 11.7438 13.9723 11.8299C13.9723 11.918 13.9477 11.989 13.8872 12.0316Z" fill="black"/>
<path d="M14.6797 12.0679L14.4951 11.6714H14.4913L14.3096 12.0679H14.2594L14.0625 11.5898H14.124L14.2878 11.9912H14.2916L14.4695 11.5898H14.5206L14.7034 11.9912H14.7072L14.8672 11.5898H14.9267L14.7299 12.0679H14.6797Z" fill="black"/>
<path d="M15.2755 11.6283C15.1222 11.6283 15.0701 11.6964 15.0606 11.7949H15.4904C15.4857 11.6861 15.4298 11.6283 15.2755 11.6283ZM15.2736 12.0826C15.1817 12.0826 15.1222 12.0694 15.0748 12.0296C15.019 11.9813 15 11.9113 15 11.8309C15 11.7542 15.0256 11.6728 15.089 11.6264C15.142 11.5895 15.2073 11.5781 15.2755 11.5781C15.3371 11.5781 15.408 11.5847 15.4667 11.6245C15.5358 11.6709 15.5491 11.7523 15.5491 11.8451H15.0587C15.0606 11.9435 15.0928 12.0306 15.2783 12.0306C15.3664 12.0306 15.4487 12.0164 15.5254 12.0031V12.0533C15.4459 12.0676 15.3578 12.0826 15.2736 12.0826Z" fill="black"/>
<path d="M15.7109 12.0694V11.5913H15.7564L15.7612 11.6198C15.8624 11.5943 15.9097 11.5781 15.9987 11.5781H16.0054V11.6311H15.9921C15.9173 11.6311 15.8719 11.6415 15.7669 11.669V12.0694H15.7109Z" fill="black"/>
<path d="M16.3302 11.6283C16.1768 11.6283 16.1248 11.6964 16.1153 11.7949H16.5451C16.5404 11.6861 16.4845 11.6283 16.3302 11.6283ZM16.3283 12.0826C16.2364 12.0826 16.1768 12.0694 16.1295 12.0296C16.0736 11.9813 16.0547 11.9113 16.0547 11.8309C16.0547 11.7542 16.0803 11.6728 16.1437 11.6264C16.1967 11.5895 16.262 11.5781 16.3302 11.5781C16.3917 11.5781 16.4627 11.5847 16.5214 11.6245C16.5905 11.6709 16.6038 11.7523 16.6038 11.8451H16.1134C16.1153 11.9435 16.1475 12.0306 16.333 12.0306C16.421 12.0306 16.5034 12.0164 16.5801 12.0031V12.0533C16.5006 12.0676 16.4125 12.0826 16.3283 12.0826Z" fill="black"/>
<path d="M17.2157 11.6623C17.1561 11.6405 17.088 11.6301 17.0226 11.6301C16.857 11.6301 16.7784 11.686 16.7784 11.8317C16.7784 11.9699 16.8428 12.0305 16.9677 12.0305C17.0425 12.0305 17.1296 12.0125 17.2157 11.9935V11.6623ZM17.2262 12.0703L17.2214 12.0418C17.1448 12.0598 17.0387 12.0835 16.963 12.0835C16.9015 12.0835 16.8428 12.075 16.7935 12.0343C16.7368 11.9879 16.7188 11.9131 16.7188 11.8317C16.7188 11.7466 16.7472 11.666 16.8248 11.6225C16.8787 11.5913 16.9516 11.579 17.0179 11.579C17.0842 11.579 17.1486 11.5904 17.2157 11.6093V11.3906H17.2716V12.0703H17.2262Z" fill="black"/>
<path d="M18.093 11.632C18.0182 11.632 17.9311 11.65 17.8449 11.6699V11.9993C17.9056 12.022 17.9727 12.0325 18.0381 12.0325C18.2037 12.0325 18.2823 11.9766 18.2823 11.8307C18.2823 11.6936 18.2179 11.632 18.093 11.632ZM18.2359 12.0409C18.182 12.0712 18.1091 12.0835 18.0437 12.0835C17.9727 12.0835 17.9018 12.0712 17.8298 12.0476L17.827 12.0703H17.7891V11.3906H17.8449V11.6187C17.9216 11.6018 18.0248 11.579 18.0977 11.579C18.1593 11.579 18.2179 11.5884 18.2671 11.6282C18.324 11.6747 18.3419 11.7494 18.3419 11.8307C18.3419 11.9161 18.3135 11.9965 18.2359 12.0409Z" fill="black"/>
<path d="M18.4176 12.2515V12.1995C18.445 12.2023 18.4706 12.2043 18.4886 12.2043C18.5577 12.2043 18.5993 12.1843 18.6381 12.1058L18.6561 12.0679L18.4062 11.5898H18.4706L18.6846 12.0026H18.6883L18.8918 11.5898H18.9553L18.6864 12.1266C18.6372 12.2241 18.5842 12.2563 18.4867 12.2563C18.4649 12.2563 18.4413 12.2544 18.4176 12.2515Z" fill="black"/>
<path d="M19.721 11.7977H19.5355V11.9653H19.7219C19.8497 11.9653 19.898 11.951 19.898 11.881C19.898 11.8061 19.8318 11.7977 19.721 11.7977ZM19.687 11.526H19.5355V11.6963H19.6879C19.8138 11.6963 19.8639 11.6813 19.8639 11.6102C19.8639 11.5346 19.8005 11.526 19.687 11.526ZM19.9747 12.0249C19.9065 12.0684 19.8241 12.0703 19.6737 12.0703H19.3906V11.4219H19.6671C19.7967 11.4219 19.8762 11.4237 19.9425 11.4635C19.9899 11.492 20.0087 11.5355 20.0087 11.5923C20.0087 11.6604 19.9804 11.7059 19.9065 11.7362V11.7399C19.9899 11.7589 20.0438 11.8015 20.0438 11.8933C20.0438 11.9558 20.0211 11.9965 19.9747 12.0249Z" fill="black"/>
<path d="M20.6123 11.8688C20.5564 11.864 20.4997 11.8612 20.4401 11.8612C20.3426 11.8612 20.3084 11.8811 20.3084 11.9255C20.3084 11.9672 20.3369 11.9899 20.4116 11.9899C20.4741 11.9899 20.5489 11.9758 20.6123 11.9615V11.8688ZM20.6407 12.0694L20.6369 12.041C20.5555 12.061 20.4609 12.0827 20.3775 12.0827C20.3264 12.0827 20.2715 12.076 20.2327 12.0476C20.1968 12.0221 20.1797 11.9804 20.1797 11.9322C20.1797 11.8781 20.2034 11.828 20.2601 11.8025C20.3103 11.7788 20.3775 11.777 20.4391 11.777C20.4892 11.777 20.5564 11.7797 20.6123 11.7836V11.775C20.6123 11.7002 20.5631 11.6756 20.4287 11.6756C20.3766 11.6756 20.3132 11.6784 20.2526 11.6841V11.5875C20.3198 11.582 20.3955 11.5781 20.458 11.5781C20.5413 11.5781 20.6275 11.5848 20.6805 11.6226C20.7353 11.6615 20.7458 11.7154 20.7458 11.7863V12.0694L20.6407 12.0694Z" fill="black"/>
<path d="M21.3744 12.0694V11.8053C21.3744 11.7182 21.3299 11.687 21.2503 11.687C21.1917 11.687 21.1179 11.7021 21.0553 11.7173V12.0694H20.9219V11.5913H21.0307L21.0355 11.6217C21.1197 11.5999 21.2135 11.5781 21.2911 11.5781C21.3497 11.5781 21.4094 11.5866 21.4548 11.6273C21.4927 11.6615 21.5069 11.7087 21.5069 11.7769V12.0694H21.3744Z" fill="black"/>
<path d="M21.8787 12.0826C21.8172 12.0826 21.7499 12.0742 21.7007 12.0325C21.6421 11.9851 21.625 11.9104 21.625 11.8298C21.625 11.7542 21.6496 11.6718 21.7225 11.6255C21.7822 11.5866 21.856 11.5781 21.9327 11.5781C21.9876 11.5781 22.0415 11.5819 22.1011 11.5875V11.6898C22.0528 11.6851 21.9951 11.6813 21.9488 11.6813C21.8219 11.6813 21.7623 11.7211 21.7623 11.8309C21.7623 11.9341 21.8067 11.9785 21.9108 11.9785C21.9714 11.9785 22.0425 11.9672 22.1116 11.9539V12.0523C22.0368 12.0676 21.9554 12.0826 21.8787 12.0826Z" fill="black"/>
<path d="M22.5075 11.6784C22.3806 11.6784 22.3248 11.7182 22.3248 11.8271C22.3248 11.936 22.3797 11.9824 22.5075 11.9824C22.6334 11.9824 22.6883 11.9435 22.6883 11.8346C22.6883 11.7258 22.6344 11.6784 22.5075 11.6784ZM22.7366 12.0325C22.6779 12.0722 22.6012 12.0826 22.5075 12.0826C22.4119 12.0826 22.3352 12.0713 22.2775 12.0325C22.2112 11.989 22.1875 11.917 22.1875 11.8309C22.1875 11.7447 22.2112 11.6718 22.2775 11.6283C22.3352 11.5895 22.4119 11.5781 22.5075 11.5781C22.6022 11.5781 22.6779 11.5895 22.7366 11.6283C22.8028 11.6718 22.8256 11.7447 22.8256 11.8299C22.8256 11.9161 22.8019 11.989 22.7366 12.0325Z" fill="black"/>
<path d="M23.5997 12.0811C23.5193 12.0811 23.4323 12.0679 23.3669 12.014C23.2893 11.9495 23.2656 11.8502 23.2656 11.7431C23.2656 11.6476 23.2959 11.534 23.3972 11.4678C23.4757 11.4167 23.5732 11.4062 23.6717 11.4062C23.7437 11.4062 23.8175 11.411 23.898 11.4176V11.534C23.8289 11.5283 23.7437 11.5236 23.6774 11.5236C23.4928 11.5236 23.4142 11.5937 23.4142 11.7431C23.4142 11.8957 23.4871 11.9638 23.6235 11.9638C23.7124 11.9638 23.8118 11.9458 23.9122 11.9249V12.0404C23.8118 12.0604 23.7067 12.0811 23.5997 12.0811Z" fill="black"/>
<path d="M24.2992 11.6633C24.1884 11.6633 24.1458 11.7031 24.1373 11.776H24.4592C24.4553 11.6984 24.4099 11.6633 24.2992 11.6633ZM24.2792 12.0827C24.2007 12.0827 24.1297 12.0733 24.0767 12.0296C24.0199 11.9824 24 11.9113 24 11.8299C24 11.757 24.0237 11.6756 24.09 11.6283C24.1486 11.5866 24.2234 11.5781 24.2992 11.5781C24.3673 11.5781 24.4478 11.5857 24.5064 11.6264C24.5832 11.6804 24.5898 11.7637 24.5907 11.8621H24.1364C24.1392 11.935 24.178 11.9824 24.3124 11.9824C24.3957 11.9824 24.4884 11.9701 24.5671 11.9578V12.0515C24.4752 12.0666 24.3749 12.0827 24.2792 12.0827Z" fill="black"/>
<path d="M25.1869 12.0694V11.8053C25.1869 11.7182 25.1424 11.687 25.0628 11.687C25.0042 11.687 24.9304 11.7021 24.8678 11.7173V12.0694H24.7344V11.5913H24.8432L24.848 11.6217C24.9322 11.5999 25.026 11.5781 25.1036 11.5781C25.1622 11.5781 25.2219 11.5866 25.2673 11.6273C25.3052 11.6615 25.3194 11.7087 25.3194 11.7769V12.0694H25.1869Z" fill="black"/>
<path d="M25.6931 12.0815C25.6288 12.0815 25.57 12.0635 25.5379 12.0133C25.5142 11.9792 25.5028 11.9329 25.5028 11.8685V11.6895H25.4062V11.5902H25.5028L25.517 11.4453H25.6354V11.5902H25.8237V11.6895H25.6354V11.8429C25.6354 11.8799 25.6382 11.9111 25.6486 11.9338C25.6628 11.966 25.694 11.9783 25.7357 11.9783C25.7669 11.9783 25.8048 11.9735 25.8313 11.9689V12.0644C25.7877 12.073 25.7375 12.0815 25.6931 12.0815Z" fill="black"/>
<path d="M25.9531 12.0694V11.5913H26.062L26.0668 11.6217C26.1548 11.597 26.2201 11.5781 26.3034 11.5781C26.3072 11.5781 26.3129 11.5781 26.3204 11.579V11.6927C26.3053 11.6918 26.2873 11.6918 26.274 11.6918C26.2087 11.6918 26.1595 11.6993 26.0866 11.7164V12.0694L25.9531 12.0694Z" fill="black"/>
<path d="M26.8076 11.8688C26.7518 11.864 26.695 11.8612 26.6354 11.8612C26.5379 11.8612 26.5037 11.8811 26.5037 11.9255C26.5037 11.9672 26.5322 11.9899 26.6069 11.9899C26.6694 11.9899 26.7442 11.9758 26.8076 11.9615V11.8688ZM26.836 12.0694L26.8323 12.041C26.7508 12.061 26.6562 12.0827 26.5729 12.0827C26.5217 12.0827 26.4668 12.076 26.428 12.0476C26.3921 12.0221 26.375 11.9804 26.375 11.9322C26.375 11.8781 26.3987 11.828 26.4555 11.8025C26.5057 11.7788 26.5728 11.777 26.6344 11.777C26.6846 11.777 26.7518 11.7797 26.8077 11.7836V11.775C26.8077 11.7002 26.7584 11.6756 26.624 11.6756C26.5719 11.6756 26.5085 11.6784 26.4479 11.6841V11.5875C26.5151 11.582 26.5909 11.5781 26.6534 11.5781C26.7366 11.5781 26.8228 11.5848 26.8758 11.6226C26.9307 11.6615 26.9411 11.7154 26.9411 11.7863V12.0694L26.836 12.0694Z" fill="black"/>
<path d="M27.1172 11.3906H27.2507V12.0703H27.1172V11.3906Z" fill="black"/>
</svg>
