<svg width="42" height="24" viewBox="0 0 42 24" fill="none" xmlns="http://www.w3.org/2000/svg">
<path fill-rule="evenodd" clip-rule="evenodd" d="M20.162 7.5496C18.8044 7.5497 17.7039 8.65028 17.7039 10.008V18.1384C17.7039 18.2767 17.5918 18.3888 17.4535 18.3888C17.3152 18.3888 17.2031 18.2767 17.2031 18.1384V10.008C17.2031 8.37366 18.5279 7.04883 20.1622 7.04883H20.1626L22.5633 7.05245C24.193 7.05568 25.5125 8.37776 25.5125 10.0075V11.7381C25.5125 13.3724 24.1876 14.6973 22.5533 14.6973H19.1612C19.0229 14.6973 18.9108 14.5852 18.9108 14.4469C18.9108 14.3086 19.0229 14.1965 19.1612 14.1965H22.5533C23.911 14.1965 25.0117 13.0959 25.0117 11.7381V10.0075C25.0117 8.65398 23.9159 7.55597 22.5624 7.55322C22.5624 7.55322 22.5623 7.55322 22.5623 7.55322L20.1622 7.5496C20.1621 7.5496 20.1621 7.5496 20.162 7.5496Z" fill="white"/>
<path fill-rule="evenodd" clip-rule="evenodd" d="M25.6875 7.29335C25.6875 7.15507 25.7996 7.04297 25.9379 7.04297H26.9792C27.7315 7.04297 28.3412 7.65277 28.3412 8.405V14.4785C28.3412 14.6168 28.2291 14.7289 28.0908 14.7289C27.9525 14.7289 27.8404 14.6168 27.8404 14.4785V8.405C27.8404 7.92931 27.4549 7.54374 26.9792 7.54374H25.9379C25.7996 7.54374 25.6875 7.43164 25.6875 7.29335Z" fill="white"/>
<path d="M27.8726 6.35504L27.4004 5.88275C27.2832 5.76559 27.2832 5.5756 27.4004 5.45843L27.8723 4.98644C27.9897 4.8691 28.18 4.8691 28.2973 4.98644L28.7692 5.45843C28.8864 5.5756 28.8864 5.76559 28.7692 5.88275L28.297 6.35504C28.1798 6.4722 27.9899 6.4722 27.8726 6.35504Z" fill="#32BCAD"/>
<path fill-rule="evenodd" clip-rule="evenodd" d="M29.8438 7.29335C29.8438 7.15507 29.9559 7.04297 30.0941 7.04297H31.1268C31.7245 7.04297 32.2977 7.28041 32.7203 7.70296L35.1357 10.1184L35.1358 10.1185C35.3508 10.3336 35.6996 10.3336 35.9147 10.1184L38.3214 7.71181L38.3214 7.71179C38.744 7.28926 39.3171 7.05181 39.9148 7.05181H40.7544C40.8927 7.05181 41.0048 7.16391 41.0048 7.3022C41.0048 7.44048 40.8927 7.55258 40.7544 7.55258H39.9148C39.4499 7.55258 39.0042 7.73726 38.6754 8.06592L36.2688 10.4725C35.8581 10.8832 35.1923 10.8833 34.7816 10.4725C34.7816 10.4725 34.7816 10.4725 34.7816 10.4725L32.3662 8.05706C32.0375 7.72842 31.5917 7.54374 31.1268 7.54374H30.0941C29.9559 7.54374 29.8438 7.43164 29.8438 7.29335Z" fill="white"/>
<path fill-rule="evenodd" clip-rule="evenodd" d="M35.9147 11.6016C35.6996 11.3864 35.3508 11.3865 35.1358 11.6016L35.1357 11.6016L32.7203 14.0171C32.2977 14.4396 31.7245 14.677 31.1268 14.677H30.0941C29.9559 14.677 29.8438 14.5649 29.8438 14.4267C29.8438 14.2884 29.9559 14.1763 30.0941 14.1763H31.1268C31.5917 14.1763 32.0375 13.9916 32.3662 13.663L34.7816 11.2475C34.7816 11.2475 34.7816 11.2475 34.7816 11.2475C35.1923 10.8368 35.8581 10.8368 36.2688 11.2475L38.6754 13.6541C39.0042 13.9828 39.4499 14.1674 39.9148 14.1674H40.7544C40.8927 14.1674 41.0048 14.2795 41.0048 14.4178C41.0048 14.5561 40.8927 14.6682 40.7544 14.6682H39.9148C39.3171 14.6682 38.744 14.4308 38.3214 14.0082L38.3214 14.0082L35.9147 11.6016Z" fill="white"/>
<path d="M11.2976 15.9724C10.7794 15.9724 10.2919 15.7706 9.92537 15.4043L7.94395 13.4228C7.80482 13.2833 7.56236 13.2837 7.4233 13.4228L5.43463 15.4115C5.06812 15.7779 4.58064 15.9797 4.06236 15.9797H3.67188L6.18143 18.4892C6.96514 19.2729 8.23586 19.2729 9.01963 18.4892L11.5363 15.9724H11.2976Z" fill="#32BCAD"/>
<path d="M4.06224 8.96249C4.58053 8.96249 5.06801 9.1643 5.43452 9.53063L7.42318 11.5197C7.5664 11.6629 7.80026 11.6635 7.94383 11.5195L9.92526 9.53788C10.2918 9.17155 10.7792 8.96974 11.2975 8.96974H11.5362L9.01957 6.45306C8.23574 5.66929 6.96503 5.66929 6.18131 6.45306L3.67188 8.9625L4.06224 8.96249Z" fill="#32BCAD"/>
<path d="M13.6227 11.0484L12.1019 9.52754C12.0684 9.54095 12.0321 9.54932 11.9939 9.54932H11.3024C10.9449 9.54932 10.5949 9.69432 10.3423 9.94711L8.36097 11.9285C8.17555 12.114 7.93191 12.2067 7.68849 12.2067C7.44484 12.2067 7.20138 12.114 7.01601 11.9287L5.02716 9.93987C4.77455 9.68702 4.4246 9.54208 4.06711 9.54208H3.21686C3.1806 9.54208 3.14671 9.53353 3.11472 9.52148L1.58783 11.0484C0.804057 11.8321 0.804057 13.1028 1.58783 13.8866L3.11465 15.4134C3.1467 15.4014 3.1806 15.3928 3.21686 15.3928H4.06711C4.4246 15.3928 4.77455 15.2479 5.02716 14.9951L7.01583 13.0064C7.37528 12.6473 8.00188 12.6471 8.36097 13.0066L10.3423 14.9878C10.5949 15.2406 10.9449 15.3856 11.3024 15.3856H11.9939C12.0321 15.3856 12.0684 15.394 12.1019 15.4074L13.6227 13.8866C14.4064 13.1028 14.4064 11.8321 13.6227 11.0484Z" fill="#32BCAD"/>
<path d="M19.5262 17.4467C19.414 17.4467 19.2833 17.4737 19.1541 17.5035V17.999C19.2436 18.0317 19.3458 18.0474 19.4438 18.0474C19.6923 18.0474 19.8101 17.9636 19.8101 17.7447C19.8101 17.539 19.7136 17.4467 19.5262 17.4467ZM19.0703 18.3668V17.387H19.1385L19.1456 17.4297C19.2606 17.4027 19.4196 17.3672 19.5332 17.3672C19.6256 17.3672 19.7136 17.3813 19.7874 17.441C19.8727 17.5106 19.8996 17.6227 19.8996 17.7447C19.8996 17.8728 19.8569 17.9934 19.7405 18.06C19.6596 18.1055 19.5503 18.124 19.4523 18.124C19.3515 18.124 19.255 18.1083 19.1541 18.0785V18.3668H19.0703Z" fill="white"/>
<path d="M20.5113 17.4438C20.2628 17.4438 20.152 17.522 20.152 17.7406C20.152 17.9522 20.2613 18.0474 20.5113 18.0474C20.7583 18.0474 20.8691 17.9706 20.8691 17.752C20.8691 17.5404 20.7598 17.4438 20.5113 17.4438ZM20.8307 18.0474C20.7483 18.1069 20.6376 18.124 20.5113 18.124C20.3821 18.124 20.2712 18.1056 20.1903 18.0474C20.0995 17.9835 20.0625 17.8783 20.0625 17.7464C20.0625 17.6156 20.0995 17.5093 20.1903 17.4438C20.2712 17.3857 20.3821 17.3672 20.5113 17.3672C20.639 17.3672 20.7483 17.3857 20.8307 17.4438C20.9231 17.5093 20.9585 17.6156 20.9585 17.7448C20.9585 17.877 20.9216 17.9835 20.8307 18.0474Z" fill="white"/>
<path d="M22.0196 18.1019L21.7427 17.507H21.7369L21.4644 18.1019H21.3891L21.0938 17.3848H21.186L21.4317 17.9868H21.4374L21.7043 17.3848H21.781L22.0551 17.9868H22.0608L22.3007 17.3848H22.3901L22.0948 18.1019H22.0196Z" fill="white"/>
<path d="M22.9132 17.4424C22.6832 17.4424 22.6051 17.5446 22.5909 17.6924H23.2356C23.2285 17.5291 23.1447 17.4424 22.9132 17.4424ZM22.9104 18.124C22.7726 18.124 22.6832 18.1041 22.6122 18.0444C22.5284 17.972 22.5 17.867 22.5 17.7463C22.5 17.6313 22.5384 17.5092 22.6335 17.4396C22.713 17.3843 22.811 17.3672 22.9132 17.3672C23.0056 17.3672 23.1121 17.3771 23.2 17.4368C23.3037 17.5063 23.3237 17.6285 23.3237 17.7676H22.5881C22.5909 17.9152 22.6392 18.046 22.9174 18.046C23.0496 18.046 23.1731 18.0246 23.2881 18.0047V18.0799C23.1688 18.1013 23.0367 18.124 22.9104 18.124Z" fill="white"/>
<path d="M23.5703 18.1041V17.387H23.6384L23.6456 17.4297C23.7975 17.3914 23.8685 17.3672 24.002 17.3672H24.012V17.4467H23.992C23.8799 17.4467 23.8118 17.4623 23.6542 17.5035V18.1041H23.5703Z" fill="white"/>
<path d="M24.4992 17.4424C24.2692 17.4424 24.1911 17.5446 24.1768 17.6924H24.8215C24.8145 17.5291 24.7306 17.4424 24.4992 17.4424ZM24.4964 18.124C24.3586 18.124 24.2692 18.1041 24.1982 18.0444C24.1143 17.972 24.0859 17.867 24.0859 17.7463C24.0859 17.6313 24.1243 17.5092 24.2195 17.4396C24.299 17.3843 24.397 17.3672 24.4992 17.3672C24.5915 17.3672 24.698 17.3771 24.786 17.4368C24.8897 17.5063 24.9096 17.6285 24.9096 17.7676H24.174C24.1768 17.9152 24.2251 18.046 24.5034 18.046C24.6354 18.046 24.759 18.0246 24.874 18.0047V18.0799C24.7547 18.1013 24.6227 18.124 24.4964 18.124Z" fill="white"/>
<path d="M25.8236 17.4935C25.7342 17.4608 25.632 17.4451 25.534 17.4451C25.2855 17.4451 25.1676 17.529 25.1676 17.7476C25.1676 17.9548 25.2641 18.0457 25.4515 18.0457C25.5638 18.0457 25.6944 18.0187 25.8236 17.9903V17.4935ZM25.8393 18.1054L25.8322 18.0627C25.7171 18.0897 25.5581 18.1253 25.4445 18.1253C25.3523 18.1253 25.2641 18.1125 25.1903 18.0515C25.1051 17.9818 25.0781 17.8697 25.0781 17.7476C25.0781 17.6198 25.1207 17.499 25.2371 17.4338C25.3181 17.3869 25.4274 17.3685 25.5268 17.3685C25.6263 17.3685 25.7228 17.3856 25.8236 17.4139V17.0859H25.9074V18.1054H25.8393Z" fill="white"/>
<path d="M27.1434 17.4481C27.0312 17.4481 26.9005 17.4751 26.7713 17.5049V17.9989C26.8622 18.033 26.963 18.0487 27.061 18.0487C27.3095 18.0487 27.4273 17.9649 27.4273 17.7461C27.4273 17.5404 27.3308 17.4481 27.1434 17.4481ZM27.3578 18.0614C27.2768 18.1068 27.1675 18.1253 27.0695 18.1253C26.963 18.1253 26.8565 18.1068 26.7486 18.0713L26.7444 18.1055H26.6875V17.0859H26.7713V17.4281C26.8863 17.4027 27.0411 17.3685 27.1504 17.3685C27.2428 17.3685 27.3308 17.3826 27.4046 17.4423C27.4898 17.512 27.5168 17.624 27.5168 17.7461C27.5168 17.8741 27.4741 17.9947 27.3578 18.0614Z" fill="white"/>
<path d="M27.6264 18.3773V18.2993C27.6675 18.3035 27.7059 18.3064 27.7329 18.3064C27.8366 18.3064 27.899 18.2765 27.9572 18.1586L27.9842 18.1019L27.6094 17.3848H27.7059L28.0269 18.0038H28.0325L28.3378 17.3848H28.4329L28.0297 18.19C27.9558 18.3362 27.8763 18.3844 27.73 18.3844C27.6973 18.3844 27.6619 18.3816 27.6264 18.3773Z" fill="white"/>
<path d="M29.5893 17.6965H29.311V17.9479H29.5907C29.7824 17.9479 29.8548 17.9265 29.8548 17.8215C29.8548 17.7092 29.7555 17.6965 29.5893 17.6965ZM29.5382 17.289H29.311V17.5445H29.5396C29.7285 17.5445 29.8037 17.5219 29.8037 17.4153C29.8037 17.3019 29.7086 17.289 29.5382 17.289ZM29.9699 18.0374C29.8675 18.1027 29.744 18.1054 29.5183 18.1054H29.0938V17.1328H29.5084C29.7029 17.1328 29.8221 17.1356 29.9216 17.1953C29.9926 17.2379 30.0209 17.3032 30.0209 17.3884C30.0209 17.4905 29.9784 17.5588 29.8675 17.6043V17.6098C29.9926 17.6384 30.0735 17.7023 30.0735 17.84C30.0735 17.9336 30.0394 17.9947 29.9699 18.0374Z" fill="white"/>
<path d="M30.9224 17.8032C30.8386 17.796 30.7534 17.7918 30.664 17.7918C30.5177 17.7918 30.4665 17.8216 30.4665 17.8883C30.4665 17.9508 30.5092 17.9849 30.6213 17.9849C30.715 17.9849 30.8272 17.9636 30.9224 17.9422V17.8032ZM30.965 18.1041L30.9593 18.0615C30.8371 18.0914 30.6952 18.124 30.5702 18.124C30.4935 18.124 30.4112 18.114 30.3529 18.0714C30.2991 18.0331 30.2734 17.9706 30.2734 17.8982C30.2734 17.8172 30.309 17.742 30.3941 17.7037C30.4694 17.6682 30.5702 17.6654 30.6626 17.6654C30.7378 17.6654 30.8385 17.6696 30.9224 17.6754V17.6625C30.9224 17.5504 30.8485 17.5134 30.6469 17.5134C30.5688 17.5134 30.4736 17.5176 30.3828 17.5262V17.3813C30.4835 17.373 30.5972 17.3672 30.6909 17.3672C30.8158 17.3672 30.9451 17.3772 31.0246 17.4339C31.1069 17.4922 31.1226 17.5731 31.1226 17.6795V18.1041L30.965 18.1041Z" fill="white"/>
<path d="M32.0693 18.1041V17.7079C32.0693 17.5774 32.0027 17.5305 31.8833 17.5305C31.7954 17.5305 31.6846 17.5531 31.5908 17.5759V18.1041H31.3906V17.387H31.5539L31.561 17.4325C31.6873 17.3999 31.828 17.3672 31.9445 17.3672C32.0324 17.3672 32.1219 17.3799 32.1901 17.441C32.2468 17.4922 32.2682 17.5631 32.2682 17.6654V18.1041H32.0693Z" fill="white"/>
<path d="M32.8181 18.124C32.7258 18.124 32.6249 18.1113 32.5511 18.0488C32.4631 17.9777 32.4375 17.8656 32.4375 17.7447C32.4375 17.6313 32.4744 17.5077 32.5838 17.4382C32.6733 17.3799 32.784 17.3672 32.899 17.3672C32.9814 17.3672 33.0623 17.3729 33.1517 17.3813V17.5346C33.0792 17.5277 32.9926 17.5219 32.9231 17.5219C32.7328 17.5219 32.6434 17.5816 32.6434 17.7463C32.6434 17.9011 32.7101 17.9678 32.8663 17.9678C32.9571 17.9678 33.0638 17.9508 33.1674 17.9309V18.0785C33.0551 18.1013 32.9331 18.124 32.8181 18.124Z" fill="white"/>
<path d="M33.7613 17.5176C33.571 17.5176 33.4872 17.5773 33.4872 17.7406C33.4872 17.9039 33.5695 17.9736 33.7613 17.9736C33.9501 17.9736 34.0324 17.9152 34.0324 17.7519C34.0324 17.5886 33.9515 17.5176 33.7613 17.5176ZM34.1048 18.0488C34.0168 18.1083 33.9018 18.124 33.7613 18.124C33.6178 18.124 33.5028 18.1069 33.4162 18.0488C33.3168 17.9835 33.2812 17.8756 33.2812 17.7463C33.2812 17.617 33.3168 17.5077 33.4162 17.4424C33.5028 17.3842 33.6178 17.3672 33.7613 17.3672C33.9033 17.3672 34.0168 17.3842 34.1048 17.4424C34.2043 17.5077 34.2383 17.617 34.2383 17.7448C34.2383 17.8741 34.2028 17.9835 34.1048 18.0488Z" fill="white"/>
<path d="M35.4074 18.1217C35.2868 18.1217 35.1562 18.1019 35.0581 18.0209C34.9417 17.9243 34.9062 17.7753 34.9062 17.6147C34.9062 17.4714 34.9517 17.301 35.1036 17.2017C35.2214 17.125 35.3677 17.1094 35.5153 17.1094C35.6234 17.1094 35.7341 17.1165 35.8548 17.1264V17.301C35.7511 17.2925 35.6234 17.2854 35.5239 17.2854C35.247 17.2854 35.1292 17.3905 35.1292 17.6147C35.1292 17.8435 35.2385 17.9457 35.443 17.9457C35.5764 17.9457 35.7255 17.9187 35.876 17.8874V18.0606C35.7255 18.0906 35.5679 18.1217 35.4074 18.1217Z" fill="white"/>
<path d="M36.4488 17.495C36.2826 17.495 36.2187 17.5547 36.2059 17.664H36.6887C36.683 17.5476 36.6149 17.495 36.4488 17.495ZM36.4189 18.124C36.301 18.124 36.1946 18.1099 36.115 18.0444C36.0298 17.9736 36 17.867 36 17.7448C36 17.6355 36.0355 17.5134 36.135 17.4424C36.2229 17.3799 36.3352 17.3672 36.4488 17.3672C36.551 17.3672 36.6717 17.3785 36.7597 17.4396C36.8748 17.5206 36.8847 17.6456 36.886 17.7932H36.2045C36.2087 17.9026 36.267 17.9736 36.4686 17.9736C36.5935 17.9736 36.7327 17.9551 36.8506 17.9366V18.0772C36.7128 18.1 36.5623 18.124 36.4189 18.124Z" fill="white"/>
<path d="M37.7881 18.1041V17.7079C37.7881 17.5774 37.7214 17.5305 37.6021 17.5305C37.5141 17.5305 37.4034 17.5531 37.3096 17.5759V18.1041H37.1094V17.387H37.2727L37.2798 17.4325C37.4061 17.3999 37.5468 17.3672 37.6632 17.3672C37.7512 17.3672 37.8407 17.3799 37.9088 17.441C37.9656 17.4922 37.9869 17.5631 37.9869 17.6654V18.1041H37.7881Z" fill="white"/>
<path d="M38.5396 18.1222C38.4431 18.1222 38.355 18.0952 38.3068 18.02C38.2713 17.9688 38.2542 17.8994 38.2542 17.8028V17.5343H38.1094V17.3853H38.2542L38.2756 17.168H38.453V17.3853H38.7356V17.5343H38.453V17.7644C38.453 17.8198 38.4573 17.8666 38.4729 17.9008C38.4942 17.949 38.541 17.9674 38.6035 17.9674C38.6503 17.9674 38.7072 17.9603 38.7469 17.9533V18.0966C38.6816 18.1095 38.6063 18.1222 38.5396 18.1222Z" fill="white"/>
<path d="M38.9375 18.1041V17.387H39.1008L39.108 17.4325C39.24 17.3956 39.338 17.3672 39.463 17.3672C39.4686 17.3672 39.4771 17.3672 39.4884 17.3685V17.539C39.4657 17.5377 39.4387 17.5377 39.4189 17.5377C39.3209 17.5377 39.2471 17.5489 39.1377 17.5746V18.1041L38.9375 18.1041Z" fill="white"/>
<path d="M40.2115 17.8032C40.1277 17.796 40.0425 17.7918 39.9531 17.7918C39.8068 17.7918 39.7556 17.8216 39.7556 17.8883C39.7556 17.9508 39.7983 17.9849 39.9104 17.9849C40.0042 17.9849 40.1163 17.9636 40.2115 17.9422V17.8032ZM40.254 18.1041L40.2484 18.0615C40.1262 18.0914 39.9843 18.124 39.8593 18.124C39.7826 18.124 39.7003 18.114 39.642 18.0714C39.5881 18.0331 39.5625 17.9706 39.5625 17.8982C39.5625 17.8172 39.5981 17.742 39.6832 17.7037C39.7585 17.6682 39.8593 17.6654 39.9516 17.6654C40.0269 17.6654 40.1277 17.6696 40.2115 17.6754V17.6625C40.2115 17.5504 40.1376 17.5134 39.936 17.5134C39.8579 17.5134 39.7627 17.5176 39.6718 17.5262V17.3813C39.7726 17.373 39.8863 17.3672 39.9801 17.3672C40.1049 17.3672 40.2342 17.3772 40.3137 17.4339C40.396 17.4922 40.4117 17.5731 40.4117 17.6795V18.1041L40.254 18.1041Z" fill="white"/>
<path d="M40.6797 17.0859H40.8799V18.1054H40.6797V17.0859Z" fill="white"/>
</svg>
