<svg width="28" height="16" viewBox="0 0 28 16" fill="none" xmlns="http://www.w3.org/2000/svg">
<path d="M17.8722 7.1906C17.4338 6.7945 16.9045 6.60087 16.2927 6.60087C15.6892 6.60087 15.1599 6.79475 14.7213 7.1906C14.2829 7.57811 14.0601 8.11746 14.0601 8.80843C14.0601 9.4994 14.2829 10.0383 14.7213 10.4344C15.1597 10.8219 15.6892 11.0157 16.2927 11.0157C16.9045 11.0157 17.4338 10.8219 17.8722 10.4344C18.3189 10.0383 18.5418 9.49915 18.5418 8.80843C18.5418 8.11771 18.3187 7.57811 17.8722 7.1906ZM15.4661 9.69278C15.2349 9.46549 15.1184 9.17038 15.1184 8.80819C15.1184 8.44599 15.2339 8.15113 15.4661 7.93194C15.5738 7.82265 15.7026 7.73642 15.8446 7.6785C15.9867 7.62058 16.1391 7.59219 16.2925 7.59506C16.4471 7.59216 16.6008 7.62051 16.7443 7.67839C16.8877 7.73628 17.0181 7.82252 17.1274 7.93194C17.3667 8.15113 17.4832 8.44575 17.4832 8.80819C17.4832 9.17063 17.3677 9.46524 17.1274 9.69278C16.8962 9.91172 16.6148 10.0213 16.2925 10.0213C16.1399 10.0237 15.9883 9.99597 15.8465 9.93958C15.7046 9.8832 15.5754 9.79932 15.4661 9.69278ZM20.1056 10.8976V5.11623H19.0637V10.8976H20.1056ZM23.4683 6.71882V9.02565C23.4683 9.58147 23.1734 9.95005 22.6122 9.95005C22.0413 9.95005 21.7543 9.58196 21.7543 9.02565V6.71882H20.7105V9.20257C20.7105 10.1648 21.3059 11.0155 22.6122 11.0155H22.6203C23.9184 11.0155 24.5128 10.1459 24.5128 9.20257V6.71882H23.4683ZM12.9514 6.71882L11.9095 9.54953L10.8677 6.71882H9.75971L11.4223 10.8978H12.3983L14.0606 6.71882H12.9514ZM9.76463 8.69024C9.76463 8.0838 9.57469 7.58671 9.20242 7.1906C8.83015 6.7945 8.35124 6.60087 7.76397 6.60087C7.16047 6.60087 6.64741 6.8117 6.22575 7.22427C5.81196 7.63733 5.6058 8.15948 5.6058 8.80819C5.6058 9.45689 5.81245 9.98789 6.21764 10.4005C6.63144 10.8135 7.12755 11.0155 7.71458 11.0155C8.61637 11.0155 9.25279 10.611 9.64078 9.79377L8.86381 9.3387C8.60802 9.8525 8.23526 10.1053 7.73104 10.1053C7.11108 10.1053 6.67272 9.70089 6.60637 9.06079H9.76438V8.68999L9.76463 8.69024ZM7.7303 7.40954C8.31733 7.40954 8.70631 7.74643 8.80533 8.28578H6.60588C6.76339 7.78869 7.19291 7.40954 7.73055 7.40954H7.7303ZM5.60555 10.8976L4.20764 8.40398C5.09199 8.07545 5.53036 7.50267 5.53036 6.66845C5.53134 5.64895 4.73693 5 3.47195 5H1V10.8976H2.09149V8.50497H3.01786L4.35704 10.8978L5.60555 10.8976ZM3.47195 5.97723C4.11697 5.97723 4.4396 6.23843 4.4396 6.75224C4.4396 7.26604 4.11673 7.52724 3.47195 7.52724H2.09149V5.97723H3.47195ZM26.2791 11.0155C25.6085 11.0155 25.0647 10.4612 25.0647 9.77707V5.58973H26.1066V6.72029H27V7.57958H26.1066V9.70875C26.1066 9.90926 26.266 10.0717 26.4631 10.0717H27V11.0155H26.2791Z" fill="black"/>
</svg>
