<svg width="28" height="16" viewBox="0 0 28 16" fill="none" xmlns="http://www.w3.org/2000/svg">
<path d="M0.695312 13.274V12.3281H1.39907V12.4882H0.886994V12.6979H1.36351V12.8572H0.886994V13.1146H1.41729V13.274H0.695312Z" fill="#10298E"/>
<path d="M1.58594 12.3281H1.76791V12.4958H1.58594V12.3281ZM1.58594 12.5888H1.76791V13.274H1.58594V12.5888Z" fill="#10298E"/>
<path d="M2.59549 13.2748H2.41352V12.9251C2.41352 12.8511 2.4097 12.8032 2.4019 12.7815C2.39409 12.7599 2.3816 12.7431 2.36408 12.731C2.34656 12.7189 2.32557 12.7128 2.30094 12.7128C2.26937 12.7128 2.24109 12.7215 2.21611 12.7388C2.19114 12.7559 2.17379 12.7787 2.16459 12.8071C2.15523 12.8354 2.15072 12.8879 2.15072 12.9643V13.2748H1.96875V12.5896H2.13771V12.6902C2.19773 12.6129 2.27336 12.5742 2.36443 12.5742C2.4045 12.5742 2.4411 12.5813 2.47441 12.5958C2.50771 12.6102 2.53269 12.6287 2.54987 12.651C2.56687 12.6733 2.57884 12.6987 2.58543 12.727C2.59219 12.7554 2.59549 12.7962 2.59549 12.8491V13.2748Z" fill="#10298E"/>
<path d="M2.96322 12.3281V12.6759C3.02185 12.6075 3.0921 12.5732 3.17363 12.5732C3.21544 12.5732 3.25326 12.581 3.28691 12.5966C3.32056 12.6119 3.34589 12.6318 3.36306 12.6559C3.38006 12.6799 3.39168 12.7067 3.39793 12.7359C3.40417 12.7651 3.4073 12.8106 3.4073 12.8721V13.274H3.2255V12.912C3.2255 12.8401 3.22203 12.7947 3.21509 12.7751C3.20815 12.7559 3.19601 12.7405 3.17849 12.7291C3.16097 12.7177 3.13911 12.712 3.11275 12.712C3.08256 12.712 3.0555 12.7193 3.03191 12.7338C3.00815 12.7485 2.9908 12.7706 2.9797 12.8C2.96877 12.8296 2.96322 12.8731 2.96322 12.9307V13.274H2.78125V12.3281H2.96322Z" fill="#10298E"/>
<path d="M4.00605 13.0568L4.18732 13.0872C4.16408 13.1534 4.12713 13.2037 4.077 13.2385C4.02669 13.2731 3.96372 13.2903 3.88827 13.2903C3.76857 13.2903 3.6801 13.2515 3.62269 13.1735C3.57741 13.1113 3.55469 13.0326 3.55469 12.9376C3.55469 12.824 3.58452 12.735 3.6442 12.6707C3.7037 12.6064 3.77898 12.5742 3.87005 12.5742C3.9724 12.5742 4.05306 12.6079 4.11221 12.6752C4.17137 12.7426 4.19964 12.8456 4.19704 12.9846H3.74117C3.74255 13.0383 3.75712 13.0802 3.78523 13.1101C3.81333 13.14 3.84837 13.1548 3.89017 13.1548C3.91862 13.1548 3.94256 13.1472 3.96199 13.1317C3.98142 13.1161 3.99616 13.0912 4.00605 13.0568ZM4.01646 12.8736C4.01507 12.8211 4.00154 12.7813 3.97569 12.754C3.94967 12.7267 3.91828 12.713 3.88115 12.713C3.84143 12.713 3.80864 12.7274 3.78262 12.7562C3.75678 12.7849 3.74411 12.8242 3.74446 12.8736H4.01646Z" fill="#10298E"/>
<path d="M4.35156 12.3281H4.53353V12.4958H4.35156V12.3281ZM4.35156 12.5888H4.53353V13.274H4.35156V12.5888Z" fill="#10298E"/>
<path d="M5.04673 12.5896V12.7342H4.92235V13.0104C4.92235 13.0662 4.92356 13.0989 4.92599 13.108L4.94212 13.131L4.973 13.14C4.98983 13.14 5.01411 13.1341 5.04603 13.1226L5.06164 13.2633C5.01932 13.2812 4.97144 13.2902 4.91784 13.2902C4.88505 13.2902 4.85556 13.2849 4.8292 13.2738C4.80283 13.2629 4.78358 13.2487 4.77126 13.2313C4.75894 13.2138 4.75044 13.1903 4.74559 13.1606C4.74177 13.1397 4.73986 13.097 4.73986 13.0328V12.7342H4.65625V12.5896H4.73986V12.4534L4.92235 12.3477V12.5896H5.04673Z" fill="#10298E"/>
<path d="M5.17969 12.3281H5.36166V13.274H5.17969V12.3281Z" fill="#10298E"/>
<path d="M5.55469 12.3281H5.73666V12.4958H5.55469V12.3281ZM5.55469 12.5888H5.73666V13.274H5.55469V12.5888Z" fill="#10298E"/>
<path d="M6.53819 12.7924L6.35882 12.8247C6.35275 12.7889 6.33905 12.7621 6.31771 12.744C6.29637 12.726 6.26862 12.7168 6.23462 12.7168C6.18917 12.7168 6.15309 12.7326 6.12603 12.7637C6.09914 12.7948 6.08561 12.847 6.08561 12.9201C6.08561 13.0013 6.09931 13.0589 6.12672 13.0924C6.15413 13.126 6.1909 13.1426 6.23705 13.1426C6.27174 13.1426 6.29984 13.1329 6.32187 13.1133C6.3439 13.0938 6.35951 13.0601 6.36854 13.0124L6.54721 13.0426C6.52865 13.1244 6.49308 13.1861 6.44035 13.2278C6.38779 13.2696 6.31719 13.2903 6.22872 13.2903C6.12811 13.2903 6.04797 13.2587 5.98812 13.1956C5.92845 13.1324 5.89844 13.0449 5.89844 12.9331C5.89844 12.8198 5.92845 12.7319 5.98847 12.6688C6.04849 12.6059 6.12967 12.5742 6.23202 12.5742C6.31563 12.5742 6.38224 12.5922 6.43168 12.6281C6.48112 12.6641 6.51668 12.7187 6.53819 12.7924Z" fill="#10298E"/>
<path d="M6.86165 12.3281V12.6759C6.92029 12.6075 6.99054 12.5732 7.07207 12.5732C7.11388 12.5732 7.15169 12.581 7.18535 12.5966C7.219 12.6119 7.24432 12.6318 7.2615 12.6559C7.2785 12.6799 7.29012 12.7067 7.29636 12.7359C7.30261 12.7651 7.30573 12.8106 7.30573 12.8721V13.274H7.12394V12.912C7.12394 12.8401 7.12047 12.7947 7.11353 12.7751C7.10659 12.7559 7.09445 12.7405 7.07693 12.7291C7.05941 12.7177 7.03755 12.712 7.01118 12.712C6.981 12.712 6.95394 12.7193 6.93035 12.7338C6.90658 12.7485 6.88906 12.7706 6.87813 12.8C6.86721 12.8296 6.86165 12.8731 6.86165 12.9307V13.274H6.67969V12.3281H6.86165Z" fill="#10298E"/>
<path d="M7.8965 13.0568L8.07778 13.0872C8.05453 13.1534 8.01758 13.2037 7.96745 13.2385C7.91715 13.2731 7.85418 13.2903 7.77872 13.2903C7.65903 13.2903 7.57056 13.2515 7.51314 13.1735C7.46786 13.1113 7.44531 13.0326 7.44531 12.9376C7.44531 12.824 7.47498 12.735 7.53465 12.6707C7.59415 12.6064 7.66943 12.5742 7.7605 12.5742C7.86285 12.5742 7.94351 12.6079 8.00267 12.6752C8.06182 12.7426 8.09009 12.8456 8.08749 12.9846H7.63162C7.633 13.0383 7.64758 13.0802 7.67568 13.1101C7.70378 13.14 7.73882 13.1548 7.78063 13.1548C7.80908 13.1548 7.83301 13.1472 7.85244 13.1317C7.87187 13.1161 7.88662 13.0912 7.8965 13.0568ZM7.90691 12.8736C7.90552 12.8211 7.89199 12.7813 7.86615 12.754C7.84013 12.7267 7.80873 12.713 7.77161 12.713C7.73188 12.713 7.6991 12.7274 7.67308 12.7562C7.64723 12.7849 7.63457 12.8242 7.63491 12.8736H7.90691Z" fill="#10298E"/>
<path d="M8.41634 13.2748H8.23438V12.5896H8.40333V12.6871C8.4323 12.6411 8.45832 12.6107 8.48139 12.5962C8.50446 12.5815 8.53066 12.5742 8.56015 12.5742C8.60161 12.5742 8.6415 12.5856 8.67984 12.6083L8.62346 12.7664C8.59293 12.7466 8.56431 12.7367 8.53812 12.7367C8.51262 12.7367 8.49093 12.7438 8.47324 12.7578C8.45555 12.7716 8.44167 12.797 8.43161 12.8335C8.42137 12.8701 8.41634 12.9465 8.41634 13.0632V13.2748Z" fill="#10298E"/>
<path d="M9.14844 13.274V12.3281H9.8522V12.4882H9.34012V12.6979H9.81664V12.8572H9.34012V13.1146H9.87041V13.274H9.14844Z" fill="#10298E"/>
<path d="M10.4955 13.275V13.1725C10.4705 13.209 10.4375 13.2379 10.3968 13.2588C10.356 13.2799 10.313 13.2906 10.2675 13.2906C10.2214 13.2906 10.1799 13.2804 10.1433 13.2602C10.1065 13.2399 10.08 13.2116 10.0637 13.1751C10.0472 13.1385 10.0391 13.088 10.0391 13.0234V12.5898H10.221V12.9048C10.221 13.0011 10.2243 13.06 10.2309 13.0818C10.2377 13.1036 10.2498 13.1207 10.2675 13.1335C10.2852 13.1461 10.3078 13.1525 10.3348 13.1525C10.366 13.1525 10.3938 13.144 10.4184 13.1271C10.4431 13.11 10.4599 13.0889 10.4689 13.0638C10.4779 13.0386 10.4824 12.977 10.4824 12.8789V12.5898H10.6644V13.275H10.4955Z" fill="#10298E"/>
<path d="M11.0335 13.2748H10.8516V12.5896H11.0205V12.6871C11.0495 12.6411 11.0755 12.6107 11.0986 12.5962C11.1217 12.5815 11.1478 12.5742 11.1773 12.5742C11.2188 12.5742 11.2587 12.5856 11.297 12.6083L11.2407 12.7664C11.2101 12.7466 11.1817 12.7367 11.1553 12.7367C11.1298 12.7367 11.1081 12.7438 11.0904 12.7578C11.0727 12.7716 11.0589 12.797 11.0488 12.8335C11.0386 12.8701 11.0335 12.9465 11.0335 13.0632V13.2748Z" fill="#10298E"/>
<path d="M11.3516 12.9225C11.3516 12.8624 11.3665 12.8041 11.3963 12.7476C11.426 12.6914 11.4681 12.6484 11.5228 12.6186C11.5774 12.5891 11.6383 12.5742 11.7058 12.5742C11.8097 12.5742 11.895 12.6078 11.9615 12.6752C12.0279 12.7424 12.0612 12.8274 12.0612 12.9303C12.0612 13.0338 12.0276 13.1199 11.9604 13.188C11.8933 13.2561 11.8088 13.2902 11.707 13.2902C11.644 13.2902 11.5838 13.276 11.5268 13.2476C11.4695 13.2193 11.426 13.1776 11.3963 13.1228C11.3665 13.0681 11.3516 13.0012 11.3516 12.9225ZM11.538 12.9322C11.538 13.0001 11.5542 13.0522 11.5866 13.0883C11.619 13.1244 11.6589 13.1426 11.7063 13.1426C11.7538 13.1426 11.7936 13.1244 11.8258 13.0883C11.8579 13.0522 11.874 12.9998 11.874 12.9308C11.874 12.8637 11.8579 12.8122 11.8258 12.7761C11.7936 12.74 11.7538 12.7218 11.7063 12.7218C11.6589 12.7218 11.619 12.74 11.5866 12.7761C11.5542 12.8122 11.538 12.8643 11.538 12.9322Z" fill="#10298E"/>
<path d="M12.1875 12.8398H12.5448V13.0212H12.1875V12.8398Z" fill="#10298E"/>
<path d="M12.5781 13.274V13.1018L13.0767 12.4882H12.6345V12.3281H13.3292V12.4766L12.8094 13.1146H13.3492V13.274H12.5781Z" fill="#10298E"/>
<path d="M13.6136 12.7988L13.4484 12.769C13.467 12.7028 13.4989 12.6537 13.5444 12.6219C13.5896 12.5901 13.6569 12.5742 13.7463 12.5742C13.8274 12.5742 13.8878 12.5837 13.9275 12.6029C13.9673 12.6221 13.9952 12.6465 14.0113 12.6759C14.0276 12.7054 14.0356 12.7595 14.0356 12.838L14.0337 13.0497C14.0337 13.1101 14.0366 13.1543 14.0425 13.1828C14.0483 13.2115 14.0592 13.2421 14.0752 13.275H13.8953C13.8904 13.2629 13.8847 13.2451 13.8778 13.2214L13.8712 13.2001C13.8401 13.2302 13.807 13.2528 13.7716 13.2679C13.7362 13.2827 13.6984 13.2903 13.6583 13.2903C13.5874 13.2903 13.5317 13.2713 13.4909 13.233C13.4502 13.1948 13.4297 13.1464 13.4297 13.0878C13.4297 13.049 13.4389 13.0146 13.4574 12.9842C13.476 12.954 13.502 12.9306 13.5355 12.9146C13.569 12.8985 13.6172 12.8843 13.6802 12.8724C13.7653 12.8563 13.8242 12.8416 13.8569 12.8278V12.8096C13.8569 12.7749 13.8484 12.75 13.8311 12.7351C13.8137 12.7205 13.7813 12.713 13.7333 12.713C13.701 12.713 13.6757 12.7192 13.6576 12.732C13.6394 12.7447 13.6248 12.7669 13.6136 12.7988ZM13.8569 12.9458C13.8337 12.9536 13.7967 12.963 13.7463 12.9737C13.6958 12.9844 13.6628 12.9949 13.6472 13.0051C13.6235 13.0219 13.6117 13.0433 13.6117 13.0691C13.6117 13.0945 13.6212 13.1165 13.6401 13.1348C13.6592 13.1534 13.6833 13.1626 13.7126 13.1626C13.7454 13.1626 13.7768 13.1519 13.8065 13.1303C13.8285 13.114 13.8431 13.094 13.8498 13.0703C13.8547 13.0547 13.8569 13.0254 13.8569 12.982V12.9458Z" fill="#10298E"/>
<path d="M14.4007 12.3281V12.6759C14.4593 12.6075 14.5294 12.5732 14.6111 12.5732C14.6529 12.5732 14.6908 12.581 14.7244 12.5966C14.7581 12.6119 14.7834 12.6318 14.8006 12.6559C14.8176 12.6799 14.8292 12.7067 14.8354 12.7359C14.8417 12.7651 14.8448 12.8106 14.8448 12.8721V13.274H14.6628V12.912C14.6628 12.8401 14.6594 12.7947 14.6526 12.7751C14.6457 12.7559 14.6335 12.7405 14.616 12.7291C14.5985 12.7177 14.5766 12.712 14.5502 12.712C14.5201 12.712 14.493 12.7193 14.4692 12.7338C14.4456 12.7485 14.4281 12.7706 14.4172 12.8C14.4061 12.8296 14.4007 12.8731 14.4007 12.9307V13.274H14.2188V12.3281H14.4007Z" fill="#10298E"/>
<path d="M15.0391 12.3281H15.221V13.274H15.0391V12.3281Z" fill="#10298E"/>
<path d="M15.8783 13.275V13.1725C15.8533 13.209 15.8203 13.2379 15.7796 13.2588C15.7388 13.2799 15.6956 13.2906 15.6503 13.2906C15.6042 13.2906 15.5627 13.2804 15.5261 13.2602C15.4894 13.2399 15.4628 13.2116 15.4463 13.1751C15.43 13.1385 15.4219 13.088 15.4219 13.0234V12.5898H15.6037V12.9048C15.6037 13.0011 15.6071 13.06 15.6137 13.0818C15.6203 13.1036 15.6326 13.1207 15.6503 13.1335C15.668 13.1461 15.6906 13.1525 15.7176 13.1525C15.7487 13.1525 15.7766 13.144 15.8012 13.1271C15.8259 13.11 15.8425 13.0889 15.8517 13.0638C15.8607 13.0386 15.8653 12.977 15.8653 12.8789V12.5898H16.0472V13.275H15.8783Z" fill="#10298E"/>
<path d="M16.8689 13.2748H16.687V12.9251C16.687 12.8511 16.6831 12.8032 16.6753 12.7815C16.6675 12.7599 16.6549 12.7431 16.6373 12.731C16.62 12.7189 16.5988 12.7128 16.5744 12.7128C16.5428 12.7128 16.5145 12.7215 16.4894 12.7388C16.4644 12.7559 16.4474 12.7787 16.438 12.8071C16.4287 12.8354 16.4242 12.8879 16.4242 12.9643V13.2748H16.2422V12.5896H16.4111V12.6902C16.4712 12.6129 16.5466 12.5742 16.6377 12.5742C16.6779 12.5742 16.7145 12.5813 16.7478 12.5958C16.781 12.6102 16.8061 12.6287 16.8233 12.651C16.8403 12.6733 16.8521 12.6987 16.8589 12.727C16.8655 12.7554 16.8689 12.7962 16.8689 12.8491V13.2748Z" fill="#10298E"/>
<path d="M17.0474 13.3201L17.2552 13.3453C17.2587 13.3693 17.2666 13.3859 17.2791 13.3949C17.2963 13.4079 17.3235 13.4143 17.3607 13.4143C17.4082 13.4143 17.4438 13.4072 17.4675 13.3928C17.4835 13.3835 17.4956 13.3683 17.5038 13.3472C17.5093 13.3322 17.5121 13.3043 17.5121 13.2639V13.164C17.4578 13.238 17.3893 13.275 17.3064 13.275C17.2139 13.275 17.1407 13.2361 17.0868 13.1581C17.0446 13.0967 17.0234 13.0202 17.0234 12.9284C17.0234 12.8136 17.051 12.726 17.1065 12.6651C17.162 12.6046 17.2309 12.5742 17.3135 12.5742C17.3985 12.5742 17.4687 12.6116 17.5239 12.6859V12.5898H17.6941V13.2046C17.6941 13.2853 17.6875 13.3458 17.6741 13.3859C17.6606 13.4259 17.6418 13.4573 17.6177 13.4801C17.5936 13.503 17.5612 13.5208 17.5209 13.5337C17.4805 13.5465 17.4295 13.5529 17.3678 13.5529C17.2512 13.5529 17.1686 13.533 17.1199 13.4933C17.071 13.4535 17.0467 13.403 17.0467 13.342L17.0474 13.3201ZM17.2099 12.918C17.2099 12.9908 17.224 13.044 17.2522 13.0779C17.2805 13.1116 17.3154 13.1286 17.3568 13.1286C17.4013 13.1286 17.4387 13.1111 17.4694 13.0765C17.5001 13.042 17.5154 12.9906 17.5154 12.9227C17.5154 12.8516 17.5008 12.7991 17.4713 12.7647C17.442 12.7303 17.4049 12.713 17.36 12.713C17.3164 12.713 17.2805 12.73 17.2522 12.7637C17.224 12.7974 17.2099 12.8489 17.2099 12.918Z" fill="#10298E"/>
<path d="M17.8203 13.0795L18.003 13.0516C18.0106 13.0869 18.0264 13.1137 18.0502 13.132C18.0739 13.1503 18.1071 13.1595 18.1499 13.1595C18.1969 13.1595 18.2323 13.1509 18.2561 13.1337C18.272 13.1216 18.28 13.1054 18.28 13.0852L18.267 13.0511C18.258 13.0425 18.2377 13.0345 18.2061 13.0271C18.0595 12.9949 17.9664 12.9656 17.9272 12.9388C17.8729 12.9018 17.8455 12.8504 17.8455 12.7846C17.8455 12.7253 17.8691 12.6753 17.9161 12.6349C17.9632 12.5944 18.0361 12.5742 18.135 12.5742C18.229 12.5742 18.2991 12.5896 18.3447 12.6202C18.3905 12.6506 18.4221 12.6957 18.4392 12.7555L18.2677 12.7872C18.2604 12.7606 18.2463 12.74 18.2259 12.726C18.2054 12.7116 18.1761 12.7045 18.1381 12.7045C18.0904 12.7045 18.0561 12.7113 18.0352 12.7246L18.0146 12.7614L18.0326 12.7943C18.0491 12.8064 18.1057 12.8233 18.2026 12.8453C18.2994 12.8672 18.3673 12.8942 18.4056 12.9258C18.4436 12.9581 18.4627 13.0031 18.4627 13.0606C18.4627 13.1235 18.4363 13.1775 18.3836 13.2226C18.331 13.2679 18.2529 13.2903 18.1499 13.2903C18.0562 13.2903 17.9822 13.2715 17.9275 13.2336C17.8729 13.1958 17.8371 13.1445 17.8203 13.0795Z" fill="#10298E"/>
<path d="M18.8083 13.275L18.5312 12.5898H18.7222L18.8516 12.9395L18.8893 13.0564C18.8992 13.0266 18.9054 13.0071 18.908 12.9976C18.9141 12.9782 18.9205 12.9589 18.9275 12.9395L19.0582 12.5898H19.2454L18.9722 13.275H18.8083Z" fill="#10298E"/>
<path d="M19.7715 13.0568L19.9528 13.0872C19.9295 13.1534 19.8926 13.2037 19.8424 13.2385C19.7921 13.2731 19.7292 13.2903 19.6537 13.2903C19.534 13.2903 19.4456 13.2515 19.3881 13.1735C19.3429 13.1113 19.3203 13.0326 19.3203 12.9376C19.3203 12.824 19.35 12.735 19.4095 12.6707C19.4691 12.6064 19.5444 12.5742 19.6355 12.5742C19.7378 12.5742 19.8185 12.6079 19.8777 12.6752C19.9368 12.7426 19.9651 12.8456 19.9625 12.9846H19.5068C19.508 13.0383 19.5226 13.0802 19.5507 13.1101C19.5788 13.14 19.6138 13.1548 19.6556 13.1548C19.6841 13.1548 19.708 13.1472 19.7274 13.1317C19.7469 13.1161 19.7616 13.0912 19.7715 13.0568ZM19.7819 12.8736C19.7805 12.8211 19.767 12.7813 19.741 12.754C19.7151 12.7267 19.6837 12.713 19.6466 12.713C19.6069 12.713 19.5741 12.7274 19.5482 12.7562C19.5222 12.7849 19.5096 12.8242 19.5099 12.8736H19.7819Z" fill="#10298E"/>
<path d="M20.2992 13.2748H20.1172V12.5896H20.2861V12.6871C20.3151 12.6411 20.3411 12.6107 20.3642 12.5962C20.3873 12.5815 20.4135 12.5742 20.4428 12.5742C20.4842 12.5742 20.5243 12.5856 20.5627 12.6083L20.5063 12.7664C20.4757 12.7466 20.4471 12.7367 20.4209 12.7367C20.3954 12.7367 20.3737 12.7438 20.3561 12.7578C20.3384 12.7716 20.3245 12.797 20.3144 12.8335C20.3042 12.8701 20.2992 12.9465 20.2992 13.0632V13.2748Z" fill="#10298E"/>
<path d="M20.6406 13.274V12.3281H20.8226V12.8301L21.0356 12.5888H21.2596L21.0247 12.8391L21.2766 13.274H21.0804L20.9074 12.9661L20.8226 13.0546V13.274H20.6406Z" fill="#10298E"/>
<path d="M21.7951 13.0568L21.9764 13.0872C21.9531 13.1534 21.9164 13.2037 21.8661 13.2385C21.8156 13.2731 21.7528 13.2903 21.6773 13.2903C21.5576 13.2903 21.4692 13.2515 21.4117 13.1735C21.3665 13.1113 21.3438 13.0326 21.3438 12.9376C21.3438 12.824 21.3736 12.735 21.4333 12.6707C21.4928 12.6064 21.568 12.5742 21.6591 12.5742C21.7615 12.5742 21.8421 12.6079 21.9013 12.6752C21.9604 12.7426 21.9887 12.8456 21.9861 12.9846H21.5302C21.5316 13.0383 21.5464 13.0802 21.5743 13.1101C21.6024 13.14 21.6373 13.1548 21.6792 13.1548C21.7077 13.1548 21.7316 13.1472 21.7511 13.1317C21.7705 13.1161 21.7852 13.0912 21.7951 13.0568ZM21.8055 12.8736C21.8041 12.8211 21.7906 12.7813 21.7648 12.754C21.7389 12.7267 21.7072 12.713 21.67 12.713C21.6303 12.713 21.5975 12.7274 21.5717 12.7562C21.5458 12.7849 21.5332 12.8242 21.5335 12.8736H21.8055Z" fill="#10298E"/>
<path d="M22.3226 12.3281V12.6759C22.3812 12.6075 22.4513 12.5732 22.533 12.5732C22.5748 12.5732 22.6126 12.581 22.6463 12.5966C22.6799 12.6119 22.7053 12.6318 22.7224 12.6559C22.7394 12.6799 22.7511 12.7067 22.7573 12.7359C22.7635 12.7651 22.7667 12.8106 22.7667 12.8721V13.274H22.5847V12.912C22.5847 12.8401 22.5812 12.7947 22.5745 12.7751C22.5675 12.7559 22.5554 12.7405 22.5379 12.7291C22.5203 12.7177 22.4985 12.712 22.4721 12.712C22.4419 12.712 22.4149 12.7193 22.3911 12.7338C22.3675 12.7485 22.35 12.7706 22.3391 12.8C22.328 12.8296 22.3226 12.8731 22.3226 12.9307V13.274H22.1406V12.3281H22.3226Z" fill="#10298E"/>
<path d="M23.1351 13.2748H22.9531V12.5896H23.1221V12.6871C23.1511 12.6411 23.1771 12.6107 23.2001 12.5962C23.2232 12.5815 23.2494 12.5742 23.2789 12.5742C23.3202 12.5742 23.3601 12.5856 23.3986 12.6083L23.3422 12.7664C23.3117 12.7466 23.2831 12.7367 23.2569 12.7367C23.2314 12.7367 23.2097 12.7438 23.192 12.7578C23.1743 12.7716 23.1604 12.797 23.1504 12.8335C23.1401 12.8701 23.1351 12.9465 23.1351 13.0632V13.2748Z" fill="#10298E"/>
<path d="M23.4141 13.0795L23.5965 13.0516C23.6044 13.0869 23.6201 13.1137 23.6439 13.132C23.6677 13.1503 23.7008 13.1595 23.7437 13.1595C23.7907 13.1595 23.826 13.1509 23.8498 13.1337C23.8658 13.1216 23.8738 13.1054 23.8738 13.0852L23.8607 13.0511C23.8517 13.0425 23.8314 13.0345 23.7999 13.0271C23.6531 12.9949 23.5601 12.9656 23.5209 12.9388C23.4666 12.9018 23.4392 12.8504 23.4392 12.7846C23.4392 12.7253 23.4628 12.6753 23.5098 12.6349C23.557 12.5944 23.6299 12.5742 23.7287 12.5742C23.8228 12.5742 23.8927 12.5896 23.9385 12.6202C23.9843 12.6506 24.0158 12.6957 24.033 12.7555L23.8614 12.7872C23.8542 12.7606 23.8401 12.74 23.8196 12.726C23.7992 12.7116 23.7698 12.7045 23.7319 12.7045C23.6842 12.7045 23.6498 12.7113 23.629 12.7246L23.6083 12.7614L23.6264 12.7943C23.6429 12.8064 23.6994 12.8233 23.7964 12.8453C23.8932 12.8672 23.961 12.8942 23.9993 12.9258C24.0373 12.9581 24.0564 13.0031 24.0564 13.0606C24.0564 13.1235 24.03 13.1775 23.9773 13.2226C23.9248 13.2679 23.8467 13.2903 23.7437 13.2903C23.6498 13.2903 23.5759 13.2715 23.5213 13.2336C23.4666 13.1958 23.4309 13.1445 23.4141 13.0795Z" fill="#10298E"/>
<path d="M24.4007 13.2748H24.2188V12.5896H24.3877V12.6871C24.4167 12.6411 24.4427 12.6107 24.4658 12.5962C24.4888 12.5815 24.515 12.5742 24.5445 12.5742C24.586 12.5742 24.6259 12.5856 24.6642 12.6083L24.6078 12.7664C24.5773 12.7466 24.5489 12.7367 24.5225 12.7367C24.497 12.7367 24.4755 12.7438 24.4576 12.7578C24.4401 12.7716 24.426 12.797 24.416 12.8335C24.4057 12.8701 24.4007 12.9465 24.4007 13.0632V13.2748Z" fill="#10298E"/>
<path d="M24.887 12.7988L24.7219 12.769C24.7406 12.7028 24.7725 12.6537 24.8178 12.6219C24.8631 12.5901 24.9304 12.5742 25.0197 12.5742C25.1009 12.5742 25.1614 12.5837 25.201 12.6029C25.2407 12.6221 25.2688 12.6465 25.2849 12.6759C25.3011 12.7054 25.309 12.7595 25.309 12.838L25.3071 13.0497C25.3071 13.1101 25.3101 13.1543 25.316 13.1828C25.3219 13.2115 25.3326 13.2421 25.3486 13.275H25.1687C25.1639 13.2629 25.1581 13.2451 25.1512 13.2214L25.1448 13.2001C25.1137 13.2302 25.0804 13.2528 25.045 13.2679C25.0096 13.2827 24.9718 13.2903 24.9318 13.2903C24.861 13.2903 24.8051 13.2713 24.7644 13.233C24.7236 13.1948 24.7031 13.1464 24.7031 13.0878C24.7031 13.049 24.7125 13.0146 24.7311 12.9842C24.7496 12.954 24.7755 12.9306 24.8091 12.9146C24.8424 12.8985 24.8906 12.8843 24.9538 12.8724C25.0388 12.8563 25.0976 12.8416 25.1304 12.8278V12.8096C25.1304 12.7749 25.1219 12.75 25.1045 12.7351C25.0874 12.7205 25.0547 12.713 25.0069 12.713C24.9744 12.713 24.9491 12.7192 24.9311 12.732C24.9128 12.7447 24.8983 12.7669 24.887 12.7988ZM25.1304 12.9458C25.1071 12.9536 25.0702 12.963 25.0197 12.9737C24.9692 12.9844 24.9363 12.9949 24.9207 13.0051C24.8971 13.0219 24.8851 13.0433 24.8851 13.0691C24.8851 13.0945 24.8946 13.1165 24.9135 13.1348C24.9326 13.1534 24.9567 13.1626 24.986 13.1626C25.0188 13.1626 25.0502 13.1519 25.0801 13.1303C25.1019 13.114 25.1165 13.094 25.1234 13.0703C25.1281 13.0547 25.1304 13.0254 25.1304 12.982V12.9458Z" fill="#10298E"/>
<path d="M25.9566 13.275V13.1725C25.9316 13.209 25.8986 13.2379 25.8579 13.2588C25.8171 13.2799 25.7741 13.2906 25.7286 13.2906C25.6825 13.2906 25.641 13.2804 25.6044 13.2602C25.5677 13.2399 25.5411 13.2116 25.5248 13.1751C25.5083 13.1385 25.5 13.088 25.5 13.0234V12.5898H25.682V12.9048C25.682 13.0011 25.6853 13.06 25.692 13.0818C25.6988 13.1036 25.7109 13.1207 25.7286 13.1335C25.7463 13.1461 25.7689 13.1525 25.7959 13.1525C25.8272 13.1525 25.8549 13.144 25.8795 13.1271C25.904 13.11 25.921 13.0889 25.93 13.0638C25.939 13.0386 25.9436 12.977 25.9436 12.8789V12.5898H26.1255V13.275H25.9566Z" fill="#10298E"/>
<path d="M26.3047 12.5898H26.4723V12.6833C26.5325 12.6107 26.6037 12.5742 26.6867 12.5742C26.7307 12.5742 26.7689 12.5834 26.8012 12.6014C26.8338 12.6195 26.8601 12.6468 26.8809 12.6833C26.9111 12.6468 26.9437 12.6195 26.9788 12.6014C27.0137 12.5834 27.0509 12.5742 27.0907 12.5742C27.1411 12.5742 27.1838 12.5846 27.2189 12.605C27.2539 12.6254 27.2799 12.6555 27.2973 12.695C27.3098 12.7243 27.316 12.7716 27.316 12.837V13.275H27.134V12.8835C27.134 12.8153 27.1278 12.7716 27.1153 12.7517C27.0985 12.726 27.0726 12.713 27.0376 12.713C27.0121 12.713 26.9882 12.7208 26.9658 12.7364C26.9434 12.7517 26.9271 12.7744 26.9172 12.8043C26.9073 12.8342 26.9023 12.8814 26.9023 12.9458V13.275H26.7203V12.8995C26.7203 12.8328 26.7172 12.7898 26.7106 12.7704C26.7042 12.751 26.6941 12.7367 26.6806 12.7272C26.6669 12.7179 26.6485 12.713 26.6251 12.713C26.5972 12.713 26.5718 12.7205 26.5495 12.7357C26.5269 12.7507 26.5109 12.7725 26.5012 12.8008C26.4915 12.8292 26.4867 12.8762 26.4867 12.942V13.275H26.3047V12.5898Z" fill="#10298E"/>
<path d="M0.671875 11.1548L0.945434 11.1284C0.96174 11.2198 0.995219 11.2869 1.04552 11.3299C1.09583 11.3728 1.16383 11.3942 1.24918 11.3942C1.33973 11.3942 1.4079 11.375 1.45387 11.337C1.49966 11.2988 1.52273 11.2542 1.52273 11.203C1.52273 11.1704 1.51302 11.1424 1.49377 11.1192C1.47434 11.0964 1.44068 11.0763 1.39263 11.0592C1.35967 11.0478 1.28474 11.0276 1.16747 10.9987C1.0169 10.9614 0.911087 10.9158 0.850373 10.8615C0.764854 10.7853 0.722181 10.6921 0.722181 10.5823C0.722181 10.5118 0.742303 10.4456 0.782547 10.3842C0.822618 10.3225 0.880557 10.2759 0.956362 10.2435C1.03182 10.2114 1.12324 10.1953 1.23027 10.1953C1.40495 10.1953 1.53644 10.2335 1.62473 10.3099C1.71303 10.3861 1.75952 10.4881 1.76385 10.6155L1.48284 10.6278C1.47069 10.5564 1.44502 10.5052 1.40547 10.4739C1.36592 10.4428 1.30642 10.4271 1.22732 10.4271C1.14579 10.4271 1.08178 10.4439 1.03564 10.4774C1.0058 10.4987 0.990882 10.5275 0.990882 10.5635C0.990882 10.5962 1.00476 10.6243 1.03269 10.6477C1.06808 10.6774 1.15429 10.7082 1.29098 10.7403C1.42767 10.7725 1.52881 10.8058 1.59438 10.8402C1.65995 10.8746 1.71112 10.9216 1.74824 10.9811C1.78519 11.0409 1.80375 11.1145 1.80375 11.2022C1.80375 11.2817 1.78155 11.356 1.73731 11.4255C1.69291 11.4948 1.63028 11.5463 1.54927 11.5802C1.46827 11.6139 1.36731 11.6308 1.2464 11.6308C1.07033 11.6308 0.935199 11.5902 0.840833 11.5092C0.746466 11.4281 0.690263 11.31 0.671875 11.1548Z" fill="#10298E"/>
<path d="M2.09375 10.2188H2.36054V10.4647H2.09375V10.2188ZM2.09375 10.6009H2.36054V11.6059H2.09375V10.6009Z" fill="#10298E"/>
<path d="M3.61452 11.6096H3.34772V11.0968C3.34772 10.9882 3.342 10.9181 3.33055 10.8863C3.31928 10.8544 3.30072 10.8296 3.27504 10.8119C3.24937 10.7943 3.21849 10.7855 3.18241 10.7855C3.13627 10.7855 3.09481 10.7981 3.05803 10.8233C3.02126 10.8486 2.99611 10.8819 2.98258 10.9236C2.96887 10.9652 2.96211 11.0422 2.96211 11.1545V11.6096H2.69531V10.6047H2.9432V10.7523C3.03115 10.6387 3.14199 10.582 3.27556 10.582C3.33437 10.582 3.38814 10.5926 3.43689 10.6137C3.48563 10.6349 3.52258 10.6619 3.54756 10.6946C3.57254 10.7274 3.58989 10.7647 3.59977 10.8062C3.60966 10.8479 3.61452 10.9075 3.61452 10.9851V11.6096Z" fill="#10298E"/>
<path d="M3.91803 11.6758L4.22281 11.7128C4.22784 11.7481 4.23964 11.7723 4.25802 11.7856C4.28335 11.8046 4.32307 11.8139 4.37772 11.8139C4.44728 11.8139 4.49949 11.8036 4.53436 11.7828C4.55778 11.7688 4.57547 11.7465 4.58744 11.7156C4.59559 11.6935 4.59975 11.6528 4.59975 11.5936V11.4468C4.52013 11.5554 4.41935 11.6096 4.29792 11.6096C4.16244 11.6096 4.05507 11.5524 3.97596 11.4383C3.91386 11.3481 3.88281 11.2359 3.88281 11.1015C3.88281 10.9331 3.92358 10.8043 4.00493 10.7155C4.08629 10.6265 4.18742 10.582 4.30833 10.582C4.43305 10.582 4.53592 10.6365 4.61693 10.7457V10.6047H4.86672V11.5064C4.86672 11.625 4.85683 11.7137 4.83723 11.7723C4.81763 11.8311 4.79005 11.877 4.75466 11.9106C4.7191 11.9439 4.67174 11.97 4.61259 11.989C4.55344 12.0079 4.4785 12.0174 4.38812 12.0174C4.21708 12.0174 4.09583 11.9882 4.02436 11.9299C3.95289 11.8715 3.91716 11.7975 3.91716 11.708L3.91803 11.6758ZM4.15637 11.0864C4.15637 11.1929 4.17701 11.271 4.21865 11.3206C4.25993 11.3701 4.3111 11.3948 4.37199 11.3948C4.43704 11.3948 4.4922 11.3694 4.53713 11.3187C4.58206 11.2679 4.60461 11.1927 4.60461 11.093C4.60461 10.9889 4.5831 10.9117 4.54008 10.8612C4.49689 10.8107 4.44242 10.7855 4.37668 10.7855C4.31267 10.7855 4.25993 10.8102 4.21865 10.8596C4.17701 10.9092 4.15637 10.9848 4.15637 11.0864Z" fill="#10298E"/>
<path d="M5.1875 10.2188H5.45429V11.6059H5.1875V10.2188Z" fill="#10298E"/>
<path d="M6.37272 11.2899L6.63864 11.3343C6.60447 11.4314 6.55035 11.5054 6.47662 11.5562C6.4029 11.607 6.31062 11.6325 6.19994 11.6325C6.02457 11.6325 5.89481 11.5752 5.81051 11.4612C5.74407 11.3697 5.71094 11.2543 5.71094 11.1148C5.71094 10.9483 5.75448 10.8178 5.84191 10.7234C5.92933 10.6292 6.03966 10.582 6.17323 10.582C6.32328 10.582 6.44176 10.6315 6.52849 10.7302C6.61522 10.8289 6.65668 10.9801 6.65287 11.1839H5.98432C5.98623 11.2627 6.00774 11.3241 6.04885 11.368C6.08996 11.4117 6.14131 11.4337 6.20272 11.4337C6.24452 11.4337 6.27974 11.4223 6.30819 11.3996C6.33664 11.377 6.35815 11.3403 6.37272 11.2899ZM6.38798 11.0211C6.38607 10.9442 6.36612 10.8856 6.32814 10.8456C6.29015 10.8055 6.24383 10.7855 6.18936 10.7855C6.13125 10.7855 6.08303 10.8067 6.04504 10.8489C6.00705 10.8911 5.98849 10.9486 5.98901 11.0211H6.38798Z" fill="#10298E"/>
<path d="M7.52344 11.6059V10.2188H8.55557V10.4533H7.80446V10.761H8.50336V10.9947H7.80446V11.3722H8.58228V11.6059H7.52344Z" fill="#10298E"/>
<path d="M9.54441 11.6065V11.4561C9.50764 11.5097 9.45941 11.5519 9.39957 11.5828C9.33972 11.6138 9.27658 11.6292 9.21014 11.6292C9.14231 11.6292 9.0816 11.6145 9.02783 11.5847C8.97405 11.555 8.93502 11.5135 8.91108 11.4598C8.88697 11.4062 8.875 11.332 8.875 11.2375V10.6016H9.14179V11.0634C9.14179 11.2046 9.14665 11.2912 9.15654 11.3232C9.16625 11.355 9.18412 11.3803 9.21014 11.3989C9.23616 11.4174 9.26912 11.4268 9.30884 11.4268C9.35447 11.4268 9.3954 11.4143 9.43148 11.3894C9.46757 11.3645 9.4922 11.3334 9.50556 11.2966C9.51874 11.2596 9.5255 11.1694 9.5255 11.0256V10.6016H9.7923V11.6065H9.54441Z" fill="#10298E"/>
<path d="M10.384 11.6057H10.1172V10.6008H10.3651V10.7437C10.4074 10.6761 10.4456 10.6317 10.4794 10.6103C10.5132 10.5888 10.5517 10.5781 10.5947 10.5781C10.6556 10.5781 10.7141 10.5949 10.7705 10.6283L10.6879 10.86C10.6428 10.8312 10.6012 10.8167 10.5625 10.8167C10.5252 10.8167 10.4934 10.8269 10.4676 10.8474C10.4416 10.8678 10.4211 10.905 10.4064 10.9586C10.3914 11.0122 10.384 11.1245 10.384 11.2953V11.6057Z" fill="#10298E"/>
<path d="M10.8828 11.093C10.8828 11.0047 10.9047 10.9193 10.9484 10.8366C10.9921 10.7538 11.0539 10.6908 11.134 10.6474C11.214 10.6038 11.3035 10.582 11.4022 10.582C11.5548 10.582 11.6799 10.6315 11.7774 10.7302C11.8747 10.8289 11.9236 10.9535 11.9236 11.1044C11.9236 11.2563 11.8744 11.3823 11.7758 11.4822C11.6775 11.5823 11.5536 11.6323 11.4041 11.6323C11.3116 11.6323 11.2235 11.6115 11.1397 11.5699C11.0558 11.5282 10.9921 11.4672 10.9484 11.3868C10.9047 11.3063 10.8828 11.2084 10.8828 11.093ZM11.1564 11.1072C11.1564 11.2069 11.18 11.2831 11.2275 11.3362C11.275 11.3891 11.3335 11.4157 11.4032 11.4157C11.4728 11.4157 11.5312 11.3891 11.5784 11.3362C11.6254 11.2831 11.6492 11.2062 11.6492 11.1053C11.6492 11.0069 11.6254 10.9312 11.5784 10.8781C11.5312 10.8252 11.4728 10.7988 11.4032 10.7988C11.3335 10.7988 11.275 10.8252 11.2275 10.8781C11.18 10.9312 11.1564 11.0074 11.1564 11.1072Z" fill="#10298E"/>
<path d="M12.7891 11.6059V10.2188H13.2401C13.4111 10.2188 13.5225 10.2257 13.5744 10.2395C13.6541 10.2604 13.7209 10.3057 13.7747 10.3754C13.8285 10.445 13.8554 10.5351 13.8554 10.6455C13.8554 10.7306 13.8399 10.8021 13.8089 10.8602C13.7778 10.9183 13.7385 10.9639 13.6907 10.9971C13.6429 11.0301 13.5943 11.0521 13.5449 11.0628C13.4779 11.0759 13.3806 11.0827 13.2534 11.0827H13.0701V11.6059H12.7891ZM13.0701 10.4533V10.8471H13.2239C13.3348 10.8471 13.4089 10.8398 13.4462 10.8253C13.4835 10.8108 13.5128 10.788 13.5339 10.7572C13.5553 10.7262 13.5659 10.6903 13.5659 10.6493C13.5659 10.5989 13.5509 10.5572 13.5213 10.5244C13.4914 10.4915 13.4538 10.4709 13.4082 10.4628C13.3747 10.4566 13.3072 10.4533 13.2059 10.4533H13.0701Z" fill="#10298E"/>
<path d="M14.3477 10.9113L14.1057 10.8678C14.1328 10.7706 14.1798 10.6987 14.2462 10.652C14.3127 10.6054 14.4114 10.582 14.5425 10.582C14.6613 10.582 14.75 10.596 14.8083 10.6242C14.8665 10.6522 14.9075 10.6878 14.9312 10.731C14.955 10.7742 14.9668 10.8536 14.9668 10.969L14.964 11.2793C14.964 11.3678 14.9684 11.4328 14.9769 11.4748C14.9854 11.5166 15.0013 11.5618 15.0249 11.6096H14.7609C14.7538 11.592 14.7453 11.5657 14.735 11.5312C14.7307 11.5154 14.7276 11.5049 14.7257 11.4999C14.6801 11.5439 14.6313 11.5771 14.5794 11.5993C14.5276 11.6214 14.4722 11.6323 14.4133 11.6323C14.3094 11.6323 14.2277 11.6043 14.1678 11.5481C14.108 11.4919 14.0781 11.4211 14.0781 11.3351C14.0781 11.2784 14.0917 11.2278 14.1189 11.1834C14.146 11.139 14.1841 11.1049 14.2334 11.0811C14.2823 11.0575 14.3531 11.0368 14.4455 11.0192C14.5703 10.9958 14.6566 10.9741 14.7047 10.9538V10.9274C14.7047 10.8762 14.6922 10.8399 14.6667 10.8181C14.6414 10.7964 14.5937 10.7855 14.5234 10.7855C14.4759 10.7855 14.4388 10.7948 14.4122 10.8135C14.3857 10.832 14.3642 10.8646 14.3477 10.9113ZM14.7047 11.127C14.6705 11.1384 14.6166 11.1519 14.5425 11.1678C14.4684 11.1836 14.4199 11.1989 14.3971 11.2141C14.3623 11.2387 14.3449 11.27 14.3449 11.3078C14.3449 11.345 14.3588 11.3771 14.3867 11.4043C14.4145 11.4314 14.4499 11.4449 14.4931 11.4449C14.5411 11.4449 14.5869 11.4292 14.6306 11.3977C14.6629 11.3737 14.6842 11.3443 14.6945 11.3097C14.7012 11.2869 14.7047 11.2437 14.7047 11.1801V11.127Z" fill="#10298E"/>
<path d="M15.1562 10.6016H15.4402L15.6815 11.3151L15.9169 10.6016H16.1932L15.8371 11.5687L15.7734 11.7436C15.75 11.8024 15.7277 11.8471 15.7067 11.8781C15.6853 11.9088 15.661 11.9341 15.6335 11.9533C15.6059 11.9724 15.5721 11.9875 15.5318 11.9982C15.4916 12.0089 15.4463 12.0143 15.3955 12.0143C15.3443 12.0143 15.294 12.0089 15.2447 11.9982L15.2208 11.7901C15.2626 11.7982 15.3002 11.8024 15.3339 11.8024C15.3958 11.8024 15.4418 11.7842 15.4714 11.7479C15.5013 11.7116 15.524 11.6655 15.54 11.6093L15.1562 10.6016Z" fill="#10298E"/>
<path d="M16.3984 10.6047H16.6444V10.7419C16.7324 10.6353 16.8371 10.582 16.9587 10.582C17.0233 10.582 17.0793 10.5952 17.1268 10.6216C17.1742 10.6482 17.2132 10.6883 17.2436 10.7419C17.2878 10.6883 17.3357 10.6482 17.387 10.6216C17.4382 10.5952 17.493 10.582 17.5513 10.582C17.6254 10.582 17.688 10.5969 17.7392 10.6268C17.7905 10.6569 17.8289 10.7008 17.8542 10.7589C17.8724 10.8019 17.8818 10.8712 17.8818 10.9671V11.6096H17.6148V11.0352C17.6148 10.9355 17.6058 10.8712 17.5874 10.8422C17.5626 10.8043 17.5246 10.7855 17.4734 10.7855C17.4359 10.7855 17.4009 10.7967 17.3679 10.8195C17.335 10.8422 17.3114 10.8755 17.2968 10.9193C17.2821 10.9632 17.275 11.0323 17.275 11.127V11.6096H17.008V11.0589C17.008 10.9611 17.0033 10.898 16.9938 10.8697C16.9844 10.8413 16.9697 10.82 16.9497 10.8062C16.9298 10.7924 16.9027 10.7855 16.8685 10.7855C16.8272 10.7855 16.7903 10.7964 16.7573 10.8185C16.7246 10.8406 16.7008 10.8724 16.6867 10.9141C16.6723 10.9557 16.6652 11.0249 16.6652 11.1213V11.6096H16.3984V10.6047Z" fill="#10298E"/>
<path d="M18.7948 11.286L19.0607 11.3304C19.0265 11.4275 18.9724 11.5015 18.8987 11.5523C18.8249 11.6031 18.7327 11.6285 18.622 11.6285C18.4464 11.6285 18.3169 11.5713 18.2326 11.4572C18.1661 11.3658 18.1328 11.2503 18.1328 11.1109C18.1328 10.9444 18.1765 10.8139 18.264 10.7195C18.3514 10.6253 18.4617 10.5781 18.5953 10.5781C18.7453 10.5781 18.8638 10.6276 18.9505 10.7263C19.0371 10.825 19.0787 10.9762 19.0749 11.18H18.4064C18.4083 11.2588 18.4298 11.3202 18.4709 11.3641C18.5122 11.4078 18.5634 11.4298 18.6248 11.4298C18.6666 11.4298 18.7018 11.4184 18.7302 11.3957C18.7587 11.3731 18.7802 11.3364 18.7948 11.286ZM18.81 11.0172C18.8081 10.9402 18.7882 10.8817 18.7502 10.8417C18.7122 10.8016 18.6659 10.7816 18.6114 10.7816C18.5533 10.7816 18.5051 10.8028 18.4671 10.845C18.4291 10.8872 18.4104 10.9447 18.4111 11.0172H18.81Z" fill="#10298E"/>
<path d="M20.263 11.6096H19.9962V11.0968C19.9962 10.9882 19.9904 10.9181 19.979 10.8863C19.9675 10.8544 19.9492 10.8296 19.9235 10.8119C19.8978 10.7943 19.8669 10.7855 19.8308 10.7855C19.7847 10.7855 19.7432 10.7981 19.7065 10.8233C19.6697 10.8486 19.6445 10.8819 19.631 10.9236C19.6175 10.9652 19.6105 11.0422 19.6105 11.1545V11.6096H19.3438V10.6047H19.5916V10.7523C19.6796 10.6387 19.7904 10.582 19.924 10.582C19.9828 10.582 20.0366 10.5926 20.0853 10.6137C20.1341 10.6349 20.1708 10.6619 20.196 10.6946C20.221 10.7274 20.2385 10.7647 20.2482 10.8062C20.2581 10.8479 20.263 10.9075 20.263 10.9851V11.6096Z" fill="#10298E"/>
<path d="M21.057 10.6049V10.8168H20.8747V11.2218C20.8747 11.3037 20.8764 11.3516 20.8799 11.3651L20.9036 11.3988C20.916 11.4076 20.9309 11.4119 20.9487 11.4119C20.9734 11.4119 21.0091 11.4034 21.0559 11.3865L21.0787 11.5927C21.0167 11.6192 20.9465 11.6325 20.8679 11.6325C20.8199 11.6325 20.7765 11.6243 20.738 11.6084C20.6993 11.5922 20.671 11.5715 20.653 11.5459C20.6349 11.5203 20.6223 11.4857 20.6153 11.4423C20.6096 11.4114 20.6068 11.349 20.6068 11.255V10.8168H20.4844V10.6049H20.6068V10.4052L20.8747 10.25V10.6049H21.057Z" fill="#10298E"/>
<path d="M21.2109 11.3229L21.4788 11.2823C21.49 11.3339 21.5131 11.3732 21.548 11.4C21.5829 11.4268 21.6316 11.4402 21.6942 11.4402C21.7633 11.4402 21.8151 11.4276 21.85 11.4024C21.8734 11.3848 21.8852 11.3611 21.8852 11.3313C21.8852 11.3111 21.8788 11.2945 21.8661 11.2812C21.8529 11.2686 21.8229 11.257 21.777 11.2463C21.5615 11.1989 21.4252 11.1557 21.3676 11.1167C21.2878 11.0624 21.2479 10.987 21.2479 10.8904C21.2479 10.8035 21.2824 10.7302 21.3514 10.6709C21.4203 10.6116 21.5273 10.582 21.6725 10.582C21.8104 10.582 21.913 10.6043 21.9801 10.6491C22.0471 10.694 22.0934 10.7602 22.1187 10.8479L21.867 10.8942C21.8562 10.8551 21.8359 10.8252 21.8058 10.8043C21.7757 10.7836 21.7329 10.7732 21.677 10.7732C21.6068 10.7732 21.5567 10.7829 21.5261 10.8024C21.5058 10.8162 21.4958 10.8342 21.4958 10.8563C21.4958 10.8754 21.5046 10.8914 21.5225 10.9046C21.5464 10.9222 21.6295 10.9473 21.7716 10.9794C21.9137 11.0116 22.0129 11.051 22.0694 11.0976C22.1249 11.145 22.1529 11.2109 22.1529 11.2954C22.1529 11.3875 22.1144 11.4667 22.0372 11.5329C21.9598 11.5991 21.8455 11.6323 21.6942 11.6323C21.5568 11.6323 21.4482 11.6044 21.3681 11.549C21.288 11.4935 21.2356 11.4181 21.2109 11.3229Z" fill="#10298E"/>
<path d="M24.2327 11.6059H23.9269L23.8055 11.2908H23.249L23.134 11.6059H22.8359L23.378 10.2188H23.6753L24.2327 11.6059ZM23.7152 11.0571L23.5234 10.5423L23.3354 11.0571H23.7152Z" fill="#10298E"/>
<path d="M24.6887 11.6096H24.4219V10.6047H24.6698V10.7476C24.7121 10.68 24.7502 10.6356 24.7841 10.6142C24.8179 10.5927 24.8564 10.582 24.8994 10.582C24.9603 10.582 25.0188 10.5988 25.0752 10.6322L24.9926 10.864C24.9475 10.8351 24.9058 10.8206 24.8672 10.8206C24.8299 10.8206 24.7981 10.8308 24.7723 10.8513C24.7463 10.8717 24.7258 10.9089 24.7109 10.9625C24.6961 11.0161 24.6887 11.1284 24.6887 11.2992V11.6096Z" fill="#10298E"/>
<path d="M25.8338 11.2899L26.0998 11.3343C26.0656 11.4314 26.0116 11.5054 25.9379 11.5562C25.864 11.607 25.7717 11.6325 25.6611 11.6325C25.4857 11.6325 25.3559 11.5752 25.2716 11.4612C25.2052 11.3697 25.1719 11.2543 25.1719 11.1148C25.1719 10.9483 25.2156 10.8178 25.303 10.7234C25.3903 10.6292 25.5009 10.582 25.6343 10.582C25.7844 10.582 25.9029 10.6315 25.9896 10.7302C26.0763 10.8289 26.1178 10.9801 26.114 11.1839H25.4454C25.4473 11.2627 25.4689 11.3241 25.51 11.368C25.5511 11.4117 25.6024 11.4337 25.6638 11.4337C25.7056 11.4337 25.7408 11.4223 25.7693 11.3996C25.7977 11.377 25.8193 11.3403 25.8338 11.2899ZM25.8491 11.0211C25.8472 10.9442 25.8272 10.8856 25.7892 10.8456C25.7513 10.8055 25.7049 10.7855 25.6505 10.7855C25.5924 10.7855 25.5441 10.8067 25.5061 10.8489C25.4682 10.8911 25.4496 10.9486 25.4501 11.0211H25.8491Z" fill="#10298E"/>
<path d="M26.5901 10.9113L26.3481 10.8678C26.3751 10.7706 26.4221 10.6987 26.4886 10.652C26.555 10.6054 26.6537 10.582 26.7849 10.582C26.9037 10.582 26.9923 10.596 27.0508 10.6242C27.1089 10.6522 27.1498 10.6878 27.1736 10.731C27.1974 10.7742 27.2092 10.8536 27.2092 10.969L27.2064 11.2793C27.2064 11.3678 27.2107 11.4328 27.2192 11.4748C27.2277 11.5166 27.2437 11.5618 27.2673 11.6096H27.0033C26.9961 11.592 26.9876 11.5657 26.9776 11.5312C26.9731 11.5154 26.9699 11.5049 26.968 11.4999C26.9224 11.5439 26.8737 11.5771 26.8218 11.5993C26.7699 11.6214 26.7146 11.6323 26.6556 11.6323C26.5517 11.6323 26.47 11.6043 26.4102 11.5481C26.3503 11.4919 26.3203 11.4211 26.3203 11.3351C26.3203 11.2784 26.334 11.2278 26.3613 11.1834C26.3885 11.139 26.4265 11.1049 26.4757 11.0811C26.5247 11.0575 26.5954 11.0368 26.6879 11.0192C26.8126 10.9958 26.899 10.9741 26.9471 10.9538V10.9274C26.9471 10.8762 26.9346 10.8399 26.9091 10.8181C26.8837 10.7964 26.836 10.7855 26.7658 10.7855C26.7184 10.7855 26.6813 10.7948 26.6546 10.8135C26.628 10.832 26.6065 10.8646 26.5901 10.9113ZM26.9471 11.127C26.9129 11.1384 26.8589 11.1519 26.7849 11.1678C26.7108 11.1836 26.6622 11.1989 26.6395 11.2141C26.6046 11.2387 26.5873 11.27 26.5873 11.3078C26.5873 11.345 26.6012 11.3771 26.6291 11.4043C26.6568 11.4314 26.6922 11.4449 26.7354 11.4449C26.7835 11.4449 26.8294 11.4292 26.873 11.3977C26.9054 11.3737 26.9266 11.3443 26.9368 11.3097C26.9436 11.2869 26.9471 11.2437 26.9471 11.1801V11.127Z" fill="#10298E"/>
<path d="M6.58799 4.76985H4.76363C4.76363 4.47151 4.72841 4.27135 4.65833 4.16937C4.54974 4.01864 4.25016 3.9431 3.75977 3.9431C3.28343 3.9431 2.96771 3.98649 2.81367 4.07343C2.65964 4.16072 2.58244 4.35034 2.58244 4.64229C2.58244 4.90658 2.65079 5.08081 2.78765 5.16413C2.88566 5.22342 3.01524 5.25816 3.17657 5.26853L3.54449 5.29446C4.33308 5.34649 4.82555 5.3833 5.02192 5.40422C5.64554 5.46679 6.09759 5.63204 6.37809 5.89979C6.59874 6.10876 6.7304 6.38187 6.77238 6.71893C6.79701 6.92065 6.80916 7.14898 6.80916 7.40256C6.80916 7.98714 6.75313 8.41512 6.64124 8.68633C6.43811 9.18414 5.98172 9.49856 5.27171 9.63062C4.97422 9.68645 4.51921 9.71428 3.90704 9.71428C2.88532 9.71428 2.17341 9.65378 1.77131 9.53192C1.27796 9.38275 0.952539 9.08043 0.795204 8.62531C0.707429 8.37191 0.664062 7.94981 0.664062 7.359H2.48842C2.48842 7.42486 2.4886 7.47533 2.4886 7.51007C2.4886 7.82535 2.57949 8.02794 2.76111 8.11834C2.88688 8.18056 3.03866 8.21323 3.21716 8.21721H3.88796C4.23021 8.21721 4.44861 8.19975 4.5428 8.16466C4.71054 8.09898 4.8207 7.99319 4.87326 7.84679C4.90119 7.75656 4.91506 7.64006 4.91506 7.49728C4.91506 7.17768 4.79797 6.98322 4.56414 6.91339C4.47654 6.8859 4.06993 6.84736 3.34379 6.79879C2.76059 6.7573 2.35555 6.71737 2.12882 6.67865C1.53157 6.56734 1.13347 6.33831 0.934846 5.99071C0.760164 5.69547 0.672909 5.24865 0.672909 4.65076C0.672909 4.19564 0.720093 3.83058 0.814459 3.55609C0.908825 3.28143 1.06096 3.07297 1.27085 2.93037C1.57841 2.71136 1.97201 2.58293 2.45095 2.54456C2.84958 2.50982 3.29175 2.49219 3.77816 2.49219C4.54384 2.49219 5.08957 2.53609 5.41482 2.62304C6.20879 2.83564 6.60568 3.43094 6.60568 4.40929C6.60568 4.48949 6.59978 4.60945 6.58799 4.76985Z" fill="#10298E"/>
<path d="M14.6094 9.71358V2.45312H17.4676H17.9162H18.263C18.7641 2.45312 19.1464 2.49375 19.4092 2.57533C20.0101 2.76288 20.4133 3.14712 20.6199 3.72756C20.7264 4.0323 20.7798 4.49105 20.7798 5.10363C20.7798 5.84015 20.7206 6.36925 20.6036 6.69162C20.3692 7.32875 19.887 7.69589 19.1586 7.79096C19.0729 7.8053 18.7084 7.81792 18.065 7.82829L17.7396 7.83901H16.5704V9.71358H14.6094ZM16.5704 6.15474H17.7929C18.1806 6.14091 18.4163 6.11118 18.5011 6.06469C18.617 6.00125 18.6949 5.87403 18.7336 5.68338C18.7584 5.5565 18.7707 5.36775 18.7707 5.11711C18.7707 4.80996 18.7461 4.58231 18.6966 4.43366C18.6262 4.22537 18.4572 4.09867 18.1897 4.05252C18.1367 4.04561 18.01 4.0418 17.8093 4.0418H16.5704V6.15474Z" fill="#10298E"/>
<path d="M24.9719 8.45886H22.3499L21.9976 9.71358H19.9688L22.1581 2.45312H25.1162L27.3323 9.71358H25.3461L24.9719 8.45886ZM24.5825 7.04441L23.6636 3.89713L22.772 7.04441H24.5825Z" fill="#10298E"/>
<path d="M11.9085 3.47644C12.7172 3.47644 13.4392 3.84772 13.9136 4.4292L14.3363 3.52605C13.6753 2.90343 12.7755 2.51953 11.7831 2.51953C10.2378 2.51953 8.916 3.44947 8.37357 4.76591H7.54925L7.0625 5.80561H8.12291C8.11493 5.90206 8.10972 5.99852 8.10972 6.09704C8.10972 6.21614 8.11597 6.33402 8.12777 6.45035H7.59487L7.1083 7.4904H8.3989C8.95677 8.77348 10.2621 9.6742 11.7831 9.6742C12.5496 9.6742 13.2608 9.44535 13.8498 9.05436V7.77975C13.3755 8.31784 12.6818 8.65784 11.9085 8.65784C11.0046 8.65784 10.2094 8.19339 9.74639 7.4904H12.4487L12.9354 6.45035H9.34881C9.33024 6.32521 9.32036 6.1973 9.32036 6.06696C9.32036 5.97881 9.32487 5.89169 9.33354 5.80561H13.2371L13.7237 4.76591H9.67093C10.1192 3.99517 10.9532 3.47644 11.9085 3.47644Z" fill="#FFBE00"/>
<path d="M11.9029 3.50741C12.6736 3.50741 13.3956 3.8507 13.8837 4.44876L13.9153 4.48748L13.9366 4.44237L14.3592 3.53922L14.3686 3.51865L14.3524 3.50309C13.6575 2.84868 12.743 2.48828 11.7775 2.48828C11.0234 2.48828 10.298 2.7078 9.67922 3.12317C9.07503 3.52868 8.61152 4.09269 8.33918 4.75385L8.36797 4.73449H7.54365H7.52353L7.51521 4.75246L7.02863 5.79234L7.00781 5.83676H7.0569H8.11731L8.08609 5.80288C8.07724 5.91092 8.0729 6.00685 8.0729 6.0969C8.0729 6.21358 8.07898 6.33371 8.09095 6.45332L8.12217 6.4191H7.58928H7.5695L7.56117 6.43708L7.07425 7.47695L7.05361 7.52137H7.1027H8.3933L8.3645 7.50253C8.94631 8.84058 10.286 9.70518 11.7775 9.70518C12.5251 9.70518 13.2455 9.48929 13.8615 9.08032L13.8752 9.07116V9.05422V7.77961V7.69682L13.8206 7.75905C13.3347 8.31027 12.6358 8.62624 11.9029 8.62624C11.0408 8.62624 10.2423 8.19498 9.76682 7.47298L9.7408 7.52137H12.4431H12.4632L12.4715 7.50357L12.9583 6.46335L12.9791 6.4191H12.9298H9.34321L9.37426 6.44572C9.3557 6.31971 9.34616 6.19249 9.34616 6.06683C9.34616 5.98127 9.35049 5.8945 9.35917 5.80859L9.32794 5.83676H13.2315H13.2516L13.2599 5.81879L13.7465 4.77891L13.7675 4.73449H13.7181H9.66534L9.6924 4.78133C10.1493 3.99555 10.9965 3.50741 11.9029 3.50741ZM9.66534 4.79689H13.7181L13.6896 4.75246L13.2032 5.79234L13.2315 5.77436H9.32794H9.29967L9.29655 5.80254C9.28787 5.89035 9.28354 5.97937 9.28354 6.06683C9.28354 6.19543 9.29325 6.32611 9.31216 6.45488L9.31632 6.4815H9.34321H12.9298L12.9016 6.43708L12.415 7.47695L12.4431 7.45897H9.7408H9.68268L9.7146 7.50703C10.2015 8.24718 11.0198 8.68847 11.9029 8.68847C12.6537 8.68847 13.3699 8.36489 13.8678 7.80018L13.8128 7.77961V9.05422L13.8267 9.02847C13.2211 9.43035 12.5126 9.64278 11.7775 9.64278C10.3108 9.64278 8.99384 8.79287 8.4221 7.47764L8.41377 7.45897H8.3933H7.1027L7.13132 7.50357L7.61773 6.46335L7.58928 6.4815H8.12217H8.15669L8.15339 6.4471C8.1416 6.32956 8.13535 6.2115 8.13535 6.0969C8.13535 6.00875 8.13969 5.9142 8.14854 5.80807L8.15131 5.77436H8.11731H7.0569L7.08518 5.81879L7.57193 4.77891L7.54365 4.79689H8.36797H8.38896L8.39677 4.77753C8.66478 4.12778 9.1203 3.57362 9.71426 3.17485C10.3224 2.76675 11.0361 2.55085 11.7775 2.55085C12.727 2.55085 13.626 2.90503 14.3092 3.54855L14.3023 3.5126L13.8799 4.41592L13.9325 4.40935C13.432 3.7966 12.6925 3.44501 11.9029 3.44501C10.974 3.44501 10.1065 3.94507 9.6381 4.75004L9.61087 4.79689H9.66534Z" fill="#FFBE00"/>
</svg>
