<svg width="28" height="16" viewBox="0 0 28 16" fill="none" xmlns="http://www.w3.org/2000/svg">
<path d="M5.44967 3.55078C4.56476 3.55078 3.70587 3.81105 2.97711 4.30556C2.24836 4.80008 1.67576 5.5028 1.33741 6.30964C0.999062 7.1425 0.920981 8.02742 1.07714 8.91234C1.2333 9.79725 1.64974 10.5781 2.27438 11.2027C2.89903 11.8274 3.70587 12.2698 4.56476 12.426C5.42365 12.6082 6.33459 12.5041 7.14143 12.1657C7.94826 11.8274 8.65099 11.2548 9.1455 10.5C9.64001 9.77123 9.90028 8.88631 9.90028 8.00139C9.90028 6.80415 9.4318 5.65897 8.59894 4.8261C7.76607 4.01927 6.62089 3.55078 5.44967 3.55078ZM1.28536 8.20961H2.66479C2.66479 8.83426 2.7689 9.4589 2.95108 10.0575H1.8059C1.49357 9.48493 1.31139 8.83426 1.28536 8.20961ZM5.60583 5.71102V3.88913C6.38664 3.96721 7.06334 4.66994 7.47978 5.71102H5.60583ZM7.58388 6.02334C7.76607 6.62196 7.87018 7.24661 7.89621 7.87126H5.60583V6.02334H7.58388ZM5.26748 3.88913V5.71102H3.39354C3.80997 4.66994 4.5127 3.96721 5.26748 3.88913ZM5.26748 6.02334V7.87126H2.97711C2.97711 7.24661 3.08122 6.62196 3.28943 6.02334H5.26748ZM2.66479 7.87126H1.28536C1.31139 7.22058 1.49357 6.59594 1.8059 6.02334H2.95108C2.7689 6.62196 2.69081 7.24661 2.66479 7.87126ZM2.97711 8.20961H5.26748V10.0575H3.28943C3.10725 9.4589 3.00314 8.83426 2.97711 8.20961ZM5.26748 10.3698V12.1917C4.48668 12.1137 3.80997 11.4109 3.39354 10.3698H5.26748ZM5.60583 12.1917V10.3438H7.47978C7.06334 11.4109 6.38664 12.1137 5.60583 12.1917ZM5.60583 10.0315V8.18358H7.89621C7.89621 8.80823 7.7921 9.43288 7.58388 10.0315H5.60583ZM8.20853 8.20961H9.58796C9.56193 8.86028 9.37975 9.48493 9.06742 10.0575H7.92224C8.10442 9.43288 8.20853 8.83426 8.20853 8.20961ZM8.20853 7.87126C8.20853 7.24661 8.10442 6.62196 7.92224 6.02334H9.06742C9.37975 6.59594 9.56193 7.22058 9.58796 7.87126H8.20853ZM8.88523 5.71102H7.81813C7.71402 5.42472 7.58388 5.16445 7.42772 4.90418C7.24553 4.59186 7.03732 4.33159 6.77705 4.09735C7.63594 4.38364 8.36469 4.95624 8.88523 5.71102ZM4.09627 4.09735C3.86203 4.33159 3.62779 4.59186 3.4456 4.90418C3.28943 5.16445 3.1593 5.42472 3.05519 5.71102H1.98809C2.50863 4.95624 3.23738 4.38364 4.09627 4.09735ZM1.98809 10.3698H3.05519C3.1593 10.6561 3.28943 10.9164 3.4456 11.1767C3.62779 11.463 3.836 11.7493 4.09627 11.9835C3.23738 11.6972 2.50863 11.1246 1.98809 10.3698ZM6.77705 11.9835C7.03732 11.7493 7.24553 11.489 7.42772 11.1767C7.58388 10.9164 7.71402 10.6301 7.81813 10.3698H8.88523C8.36469 11.1246 7.63594 11.6972 6.77705 11.9835ZM22.185 6.7521H21.4563V10.7603H22.185V6.7521ZM21.8206 6.20553C22.0809 6.20553 22.3151 5.99732 22.3151 5.71102C22.3151 5.42472 22.1069 5.21651 21.8206 5.21651C21.5604 5.21651 21.3261 5.42472 21.3261 5.71102C21.3261 5.99732 21.5604 6.20553 21.8206 6.20553ZM23.6685 7.8192H24.7357V7.19456H23.6685V6.62196C23.6685 6.20553 23.9548 5.97129 24.4494 5.97129H24.7357V5.24253H24.4494C23.5124 5.24253 22.9398 5.76307 22.9398 6.59594V10.7863H23.6685V7.8192ZM26.7137 10.7863H27V10.0575H26.7137C26.2192 10.0575 25.9329 9.82328 25.9329 9.40685V7.8192H27V7.19456H25.9329V5.24253H25.2041V9.43288C25.2041 10.2397 25.7767 10.7603 26.7137 10.7863ZM17.5002 10.7863L18.2289 7.79318L18.9577 10.7863H19.7905L20.9097 6.77813H20.1549L19.3741 9.84931L18.6193 6.77813H17.8125L17.0577 9.84931L16.2769 6.77813H15.5481L16.6673 10.7863H17.5002ZM13.5441 10.1096C12.9194 10.1096 12.3989 9.71917 12.2167 9.32877L11.54 9.69315C11.8523 10.3959 12.6331 10.8644 13.518 10.8644C14.6632 10.8644 15.4701 10.2137 15.4701 9.27671C15.4701 7.11648 12.4249 8.02742 12.4249 6.77813C12.4249 6.23156 12.8934 5.97129 13.5441 5.97129C14.0646 5.97129 14.5331 6.25759 14.8194 6.62196L15.392 6.12745C15.0016 5.58088 14.2988 5.26856 13.5441 5.26856C12.3728 5.26856 11.6441 5.99732 11.6441 6.77813C11.6441 8.88631 14.7153 7.84523 14.7153 9.30274C14.7153 9.77123 14.2468 10.1096 13.5441 10.1096Z" fill="#333D3E"/>
</svg>
