<svg width="42" height="24" viewBox="0 0 42 24" fill="none" xmlns="http://www.w3.org/2000/svg">
<path d="M8.17451 5.32617C6.84713 5.32617 5.5588 5.71658 4.46567 6.45834C3.37253 7.20011 2.51364 8.25421 2.00612 9.46446C1.49859 10.7138 1.38147 12.0411 1.61571 13.3685C1.84996 14.6959 2.4746 15.8671 3.41157 16.8041C4.34855 17.741 5.5588 18.4047 6.84713 18.639C8.13547 18.9122 9.50188 18.7561 10.7121 18.2486C11.9224 17.741 12.9765 16.8821 13.7183 15.75C14.46 14.6568 14.8504 13.3295 14.8504 12.0021C14.8504 10.2062 14.1477 8.48845 12.8984 7.23915C11.6491 6.0289 9.93133 5.32617 8.17451 5.32617ZM1.92804 12.3144H3.99718C3.99718 13.2514 4.15334 14.1884 4.42663 15.0863H2.70885C2.24036 14.2274 1.96708 13.2514 1.92804 12.3144ZM8.40875 8.56653V5.8337C9.57997 5.95082 10.595 7.00491 11.2197 8.56653H8.40875ZM11.3758 9.03501C11.6491 9.93294 11.8053 10.8699 11.8443 11.8069H8.40875V9.03501H11.3758ZM7.90123 5.8337V8.56653H5.09031C5.71496 7.00491 6.76905 5.95082 7.90123 5.8337ZM7.90123 9.03501V11.8069H4.46567C4.46567 10.8699 4.62183 9.93294 4.93415 9.03501H7.90123ZM3.99718 11.8069H1.92804C1.96708 10.8309 2.24036 9.8939 2.70885 9.03501H4.42663C4.15334 9.93294 4.03622 10.8699 3.99718 11.8069ZM4.46567 12.3144H7.90123V15.0863H4.93415C4.66087 14.1884 4.50471 13.2514 4.46567 12.3144ZM7.90123 15.5548V18.2876C6.73001 18.1705 5.71496 17.1164 5.09031 15.5548H7.90123ZM8.40875 18.2876V15.5157H11.2197C10.595 17.1164 9.57997 18.1705 8.40875 18.2876ZM8.40875 15.0472V12.2754H11.8443C11.8443 13.2123 11.6881 14.1493 11.3758 15.0472H8.40875ZM12.3128 12.3144H14.3819C14.3429 13.2904 14.0696 14.2274 13.6011 15.0863H11.8834C12.1566 14.1493 12.3128 13.2514 12.3128 12.3144ZM12.3128 11.8069C12.3128 10.8699 12.1566 9.93294 11.8834 9.03501H13.6011C14.0696 9.8939 14.3429 10.8309 14.3819 11.8069H12.3128ZM13.3278 8.56653H11.7272C11.571 8.13708 11.3758 7.74668 11.1416 7.35628C10.8683 6.88779 10.556 6.49739 10.1656 6.14602C11.4539 6.57547 12.547 7.43436 13.3278 8.56653ZM6.14441 6.14602C5.79304 6.49739 5.44168 6.88779 5.1684 7.35628C4.93415 7.74668 4.73895 8.13708 4.58279 8.56653H2.98213C3.76294 7.43436 4.85607 6.57547 6.14441 6.14602ZM2.98213 15.5548H4.58279C4.73895 15.9842 4.93415 16.3746 5.1684 16.765C5.44168 17.1945 5.754 17.6239 6.14441 17.9753C4.85607 17.5458 3.76294 16.6869 2.98213 15.5548ZM10.1656 17.9753C10.556 17.6239 10.8683 17.2335 11.1416 16.765C11.3758 16.3746 11.571 15.9452 11.7272 15.5548H13.3278C12.547 16.6869 11.4539 17.5458 10.1656 17.9753ZM33.2775 10.1281H32.1844V16.1404H33.2775V10.1281ZM32.731 9.3083C33.1214 9.3083 33.4727 8.99597 33.4727 8.56653C33.4727 8.13708 33.1604 7.82476 32.731 7.82476C32.3405 7.82476 31.9892 8.13708 31.9892 8.56653C31.9892 8.99597 32.3405 9.3083 32.731 9.3083ZM35.5028 11.7288H37.1035V10.7918H35.5028V9.93294C35.5028 9.3083 35.9323 8.95693 36.674 8.95693H37.1035V7.8638H36.674C35.2686 7.8638 34.4097 8.64461 34.4097 9.8939V16.1794H35.5028V11.7288ZM40.0706 16.1794H40.5V15.0863H40.0706C39.3288 15.0863 38.8993 14.7349 38.8993 14.1103V11.7288H40.5V10.7918H38.8993V7.8638H37.8062V14.1493C37.8062 15.3596 38.6651 16.1404 40.0706 16.1794ZM26.2502 16.1794L27.3434 11.6898L28.4365 16.1794H29.6858L31.3645 10.1672H30.2324L29.0611 14.774L27.929 10.1672H26.7187L25.5865 14.774L24.4153 10.1672H23.3222L25.0009 16.1794H26.2502ZM20.3161 15.1644C19.3791 15.1644 18.5983 14.5788 18.325 13.9932L17.31 14.5397C17.7785 15.5938 18.9497 16.2965 20.2771 16.2965C21.9948 16.2965 23.2051 15.3205 23.2051 13.9151C23.2051 10.6747 18.6374 12.0411 18.6374 10.1672C18.6374 9.34734 19.3401 8.95693 20.3161 8.95693C21.0969 8.95693 21.7996 9.38638 22.2291 9.93294L23.088 9.19118C22.5024 8.37133 21.4483 7.90284 20.3161 7.90284C18.5593 7.90284 17.4661 8.99597 17.4661 10.1672C17.4661 13.3295 22.0729 11.7678 22.0729 13.9541C22.0729 14.6568 21.3702 15.1644 20.3161 15.1644Z" fill="white"/>
</svg>
