<svg width="63" height="40" viewBox="0 0 63 40" fill="none" xmlns="http://www.w3.org/2000/svg">
<path d="M14.3901 2.50195H27.9561C29.8498 2.50195 31.0276 4.09087 30.5858 6.04672L24.2699 33.961C23.8242 35.91 21.9282 37.5003 20.0332 37.5003H6.4685C4.57746 37.5003 3.397 35.91 3.83876 33.961L10.1573 6.04672C10.5991 4.09087 12.4941 2.50195 14.3901 2.50195Z" fill="#E21836"/>
<path d="M26.8307 2.5H42.4312C44.3245 2.5 43.4708 4.08892 43.0254 6.04477L36.7104 33.9591C36.2674 35.9081 36.4056 37.4984 34.5082 37.4984H18.9077C17.0104 37.4984 15.8362 35.9081 16.282 33.9591L22.5966 6.04477C23.0449 4.08892 24.936 2.5 26.8307 2.5Z" fill="#00447C"/>
<path d="M41.8105 2.5H55.3765C57.2728 2.5 58.4506 4.08892 58.0052 6.04477L51.6903 33.9591C51.2446 35.9081 49.3472 37.4984 47.4512 37.4984H33.8915C31.9942 37.4984 30.8174 35.9081 31.2618 33.9591L37.5777 6.04477C38.0195 4.08892 39.9132 2.5 41.8105 2.5Z" fill="#007B84"/>
<path d="M17.928 11.4453C16.5329 11.4599 16.1209 11.4453 15.9893 11.4133C15.9387 11.6607 14.9973 16.131 14.9947 16.1348C14.792 17.0392 14.6445 17.6839 14.1436 18.1001C13.8592 18.3422 13.5272 18.4589 13.1423 18.4589C12.5237 18.4589 12.1633 18.1427 12.1028 17.5429L12.0912 17.337C12.0912 17.337 12.2797 16.1256 12.2797 16.1188C12.2797 16.1188 13.2677 12.045 13.4446 11.5066C13.4538 11.4759 13.4565 11.4599 13.4588 11.4453C11.5357 11.4626 11.1948 11.4453 11.1713 11.4133C11.1584 11.4572 11.1108 11.7098 11.1108 11.7098L10.1019 16.3012L10.0153 16.6906L9.84766 17.9643C9.84766 18.3422 9.91974 18.6505 10.0632 18.9113C10.5229 19.7381 11.8339 19.862 12.5756 19.862C13.5312 19.862 14.4276 19.653 15.0334 19.2714C16.0849 18.6318 16.36 17.6321 16.6053 16.7437L16.7191 16.2879C16.7191 16.2879 17.7369 12.057 17.9098 11.5066C17.9164 11.4759 17.9191 11.4599 17.928 11.4453ZM21.3909 14.8585C21.1455 14.8585 20.6972 14.9197 20.2944 15.1229C20.1483 15.2002 20.01 15.2894 19.8642 15.3782L19.9958 14.8891L19.9237 14.8067C19.0697 14.9847 18.8785 15.0086 18.0896 15.1229L18.0234 15.1682C17.9319 15.9501 17.8505 16.5379 17.5109 18.0748C17.3816 18.6412 17.2474 19.213 17.1128 19.778L17.1492 19.8499C17.9576 19.8059 18.203 19.8059 18.9056 19.8179L18.9625 19.7542C19.0518 19.2835 19.0634 19.1732 19.2611 18.2198C19.354 17.7677 19.5478 16.7745 19.6433 16.4208C19.8189 16.3371 19.9922 16.2547 20.1575 16.2547C20.5513 16.2547 20.5034 16.6084 20.4882 16.7493C20.4713 16.9859 20.3278 17.7585 20.1807 18.4219L20.0825 18.8501C20.014 19.1664 19.939 19.4737 19.8705 19.7872L19.9003 19.8499C20.6972 19.8059 20.9402 19.8059 21.6207 19.8179L21.7007 19.7542C21.8237 19.019 21.8598 18.8222 22.078 17.7517L22.1878 17.2599C22.401 16.2973 22.5082 15.8092 22.3468 15.4116C22.1762 14.966 21.7668 14.8585 21.3909 14.8585ZM25.2593 15.8663C24.8358 15.95 24.5656 16.0059 24.2971 16.0419C24.0309 16.0858 23.7714 16.1257 23.362 16.1842L23.3296 16.2145L23.2998 16.2387C23.2572 16.5525 23.2274 16.8238 23.1709 17.1427C23.1229 17.4726 23.0492 17.8473 22.9292 18.3858C22.8363 18.798 22.7883 18.9417 22.7354 19.0867C22.6838 19.2317 22.627 19.3726 22.5225 19.778L22.5469 19.8154L22.5674 19.8498C22.95 19.8311 23.2003 19.8178 23.4576 19.8154C23.7145 19.8059 23.9807 19.8154 24.3927 19.8178L24.4287 19.7875L24.4674 19.7542C24.5269 19.3886 24.5358 19.2902 24.5722 19.1119C24.6083 18.9206 24.6704 18.6558 24.8229 17.9484C24.8949 17.6162 24.9753 17.285 25.05 16.946C25.1277 16.6083 25.2091 16.2758 25.2864 15.9436L25.2749 15.9034L25.2593 15.8663ZM25.2684 14.5074C24.8835 14.2736 24.2079 14.3478 23.7533 14.6708C23.2999 14.9874 23.2484 15.4367 23.6319 15.6736C24.0102 15.901 24.6884 15.8332 25.1391 15.5075C25.5914 15.1841 25.648 14.7389 25.2684 14.5074ZM27.596 19.9231C28.3747 19.9231 29.173 19.7022 29.7738 19.0466C30.236 18.5149 30.448 17.7239 30.5214 17.3981C30.7604 16.3184 30.5743 15.8143 30.3405 15.5073C29.9854 15.0393 29.3578 14.8892 28.7067 14.8892C28.3152 14.8892 27.3828 14.929 26.6543 15.6203C26.1312 16.119 25.8895 16.7957 25.7437 17.4444C25.5965 18.1055 25.4272 19.2954 26.4903 19.7383C26.8183 19.8833 27.2912 19.9231 27.596 19.9231ZM27.5352 17.4938C27.7147 16.6762 27.9267 15.99 28.4677 15.99C28.8916 15.99 28.9223 16.5005 28.7338 17.3209C28.7001 17.503 28.5454 18.18 28.3361 18.4683C28.1899 18.681 28.017 18.8101 27.8258 18.8101C27.769 18.8101 27.4307 18.8101 27.4254 18.293C27.4228 18.0377 27.4734 17.777 27.5352 17.4938ZM32.468 19.818L32.5288 19.7543C32.6151 19.2836 32.6293 19.1729 32.8205 18.2199C32.916 17.7678 33.1138 16.7746 33.2067 16.4209C33.3826 16.3368 33.5529 16.2545 33.7235 16.2545C34.1147 16.2545 34.067 16.6081 34.0515 16.7491C34.0373 16.986 33.8938 17.7583 33.744 18.4217L33.6511 18.8499C33.58 19.1665 33.5026 19.4735 33.4342 19.7873L33.4639 19.85C34.2635 19.8061 34.4972 19.8061 35.1817 19.818L35.2644 19.7543C35.3844 19.0187 35.4168 18.822 35.6416 17.7518L35.7488 17.2596C35.963 16.297 36.0715 15.8093 35.9128 15.4117C35.7372 14.9661 35.3252 14.8586 34.9545 14.8586C34.7089 14.8586 34.2582 14.9195 33.8577 15.123C33.7146 15.2003 33.5711 15.2891 33.4302 15.3783L33.5529 14.8892L33.4871 14.8065C32.6333 14.9848 32.4382 15.0087 31.6503 15.123L31.5897 15.1683C31.4942 15.9502 31.4165 16.5377 31.0769 18.0749C30.9476 18.6413 30.8134 19.2131 30.6791 19.7781L30.7151 19.85C31.5249 19.8061 31.7666 19.8061 32.468 19.818ZM38.3423 19.8498C38.3926 19.5972 38.6912 18.1002 38.6938 18.1002C38.6938 18.1002 38.9481 17.0018 38.9636 16.962C38.9636 16.962 39.0436 16.8476 39.1237 16.8023H39.2414C40.3521 16.8023 41.6062 16.8023 42.5893 16.0579C43.2582 15.5473 43.7155 14.7934 43.9195 13.8771C43.9724 13.6524 44.0115 13.3852 44.0115 13.118C44.0115 12.7671 43.943 12.4199 43.7453 12.1486C43.244 11.4266 42.2457 11.4134 41.0934 11.4079C41.0898 11.4079 40.5253 11.4134 40.5253 11.4134C39.0502 11.4321 38.4587 11.4266 38.2157 11.396C38.1952 11.5066 38.1565 11.7034 38.1565 11.7034C38.1565 11.7034 37.6281 14.2243 37.6281 14.2283C37.6281 14.2283 36.3636 19.588 36.3041 19.8406C37.592 19.8246 38.1201 19.8246 38.3423 19.8498ZM39.3214 15.3717C39.3214 15.3717 39.8832 12.8559 39.8805 12.8654L39.8987 12.7364L39.9067 12.6381L40.1312 12.6619C40.1312 12.6619 41.2898 12.7643 41.3169 12.7671C41.7742 12.9492 41.9627 13.4186 41.8311 14.0313C41.7111 14.5912 41.3583 15.0619 40.9049 15.2893C40.5316 15.482 40.0743 15.498 39.6031 15.498H39.2982L39.3214 15.3717ZM42.8192 17.5404C42.6708 18.1919 42.5002 19.3819 43.5579 19.806C43.8952 19.9537 44.1974 19.9976 44.5046 19.9816C44.829 19.9636 45.1296 19.7961 45.408 19.5551C45.3828 19.6542 45.3577 19.7532 45.3326 19.8526L45.3805 19.9163C46.1414 19.8833 46.3775 19.8833 47.2018 19.8897L47.2765 19.8312C47.3969 19.1027 47.5103 18.3954 47.8231 17.0019C47.9755 16.3344 48.1276 15.6734 48.284 15.0086L48.2596 14.9354C47.4085 15.0978 47.181 15.1325 46.3623 15.252L46.3001 15.3041C46.2918 15.3718 46.2832 15.4368 46.2753 15.5018C46.148 15.2901 45.9635 15.1094 45.6788 14.9967C45.3147 14.8493 44.4596 15.0392 43.7246 15.7282C43.2081 16.22 42.9601 16.894 42.8192 17.5404ZM44.6068 17.5802C44.789 16.7772 44.9983 16.0978 45.5406 16.0978C45.8835 16.0978 46.064 16.4236 46.0273 16.9791C45.9982 17.1176 45.9668 17.2636 45.9294 17.4287C45.8752 17.6673 45.8163 17.9039 45.7591 18.1408C45.7009 18.3028 45.6331 18.4557 45.5588 18.5575C45.4192 18.761 45.0872 18.8873 44.8961 18.8873C44.8419 18.8873 44.5073 18.8873 44.4957 18.3794C44.493 18.1265 44.5436 17.8661 44.6068 17.5802ZM53.9415 14.9289L53.8757 14.8516C53.0335 15.0273 52.881 15.0552 52.1073 15.1628L52.0504 15.2213C52.0478 15.2308 52.0455 15.2455 52.0415 15.2587L52.0388 15.2455C51.4628 16.6135 51.4797 16.3184 51.0108 17.3953C51.0082 17.3463 51.0082 17.3157 51.0055 17.2636L50.8882 14.9289L50.8144 14.8516C49.9322 15.0273 49.9114 15.0552 49.0966 15.1628L49.0332 15.2213C49.0242 15.2492 49.0242 15.2799 49.0189 15.3132L49.0242 15.3251C49.1261 15.8609 49.1016 15.7414 49.2038 16.5869C49.2514 17.0019 49.3149 17.4192 49.3625 17.829C49.4428 18.5149 49.4878 18.8525 49.586 19.8992C49.0358 20.8339 48.9055 21.1876 48.3758 22.0079L48.3794 22.0161L48.0065 22.6233C47.9638 22.6873 47.9251 22.7312 47.8709 22.7499C47.8114 22.7802 47.734 22.7857 47.6265 22.7857H47.4199L47.1127 23.8375L48.1665 23.8562C48.7852 23.8535 49.174 23.5556 49.3833 23.1553L50.046 21.9865H50.0354L50.1052 21.9041C50.5509 20.9163 53.9415 14.9289 53.9415 14.9289ZM42.8192 28.7426H42.3722L44.0268 23.1089H44.5757L44.7499 22.5285L44.7668 23.1739C44.7463 23.5728 45.0512 23.9265 45.852 23.8679H46.7782L47.0969 22.7831H46.7484C46.5481 22.7831 46.4551 22.731 46.4667 22.6194L46.4498 21.9628H44.7347V21.9662C44.1802 21.9781 42.5243 22.021 42.189 22.1129C41.7832 22.2205 41.3557 22.537 41.3557 22.537L41.5237 21.956H39.9193L39.585 23.1089L37.9083 28.8287H37.5829L37.2638 29.9057H40.4593L40.3522 30.2648H41.9268L42.0312 29.9057H42.473L42.8192 28.7426ZM41.5081 24.2536C41.2512 24.3268 40.7731 24.5487 40.7731 24.5487L41.1983 23.1089H42.473L42.1655 24.1579C42.1655 24.1579 41.7717 24.1818 41.5081 24.2536ZM41.5326 26.3105C41.5326 26.3105 41.1322 26.3623 40.8686 26.4235C40.6091 26.5046 40.1223 26.7598 40.1223 26.7598L40.5615 25.2615H41.8428L41.5326 26.3105ZM40.8184 28.7559H39.5397L39.9104 27.4913H41.1851L40.8184 28.7559ZM43.8977 25.2615H45.7408L45.4759 26.1444H43.6084L43.328 27.1098H44.9621L43.7248 28.9032C43.6381 29.035 43.5604 29.0816 43.4741 29.1187C43.3875 29.164 43.2737 29.2171 43.1421 29.2171H42.6888L42.3773 30.2743H43.5631C44.1794 30.2743 44.5435 29.9857 44.8123 29.6068L45.6608 28.4114L45.843 29.6252C45.8816 29.8526 46.0404 29.9857 46.1478 30.0374C46.2665 30.0987 46.3892 30.2038 46.5625 30.2195C46.7483 30.2277 46.8825 30.2341 46.9718 30.2341H47.5544L47.9043 29.051H47.6745C47.5425 29.051 47.3154 29.0282 47.2767 28.9856C47.238 28.9339 47.238 28.8542 47.2172 28.733L47.0323 27.5165H46.2755L46.6074 27.1098H48.4714L48.758 26.1444H47.0323L47.3012 25.2615H49.0216L49.3407 24.1726H44.2115L43.8977 25.2615ZM28.3308 29.0017L28.761 27.5285H30.5291L30.8521 26.4328H29.0824L29.3526 25.526H31.0819L31.4023 24.4651H27.0753L26.7615 25.526H27.7446L27.4824 26.4328H26.4967L26.17 27.5472H27.1527L26.5793 29.4963C26.502 29.7543 26.6157 29.8527 26.6878 29.9725C26.7615 30.0892 26.8362 30.1665 27.0042 30.2104C27.1775 30.2502 27.2962 30.2741 27.4576 30.2741H29.4508L29.8059 29.0603L28.9224 29.1852C28.7518 29.1852 28.2792 29.1641 28.3308 29.0017ZM28.5336 21.9494L28.0856 22.783C27.9897 22.9651 27.9034 23.0781 27.8257 23.1301C27.7572 23.1741 27.6217 23.1924 27.4253 23.1924H27.1915L26.879 24.2589H27.6554C28.0287 24.2589 28.3154 24.1179 28.4523 24.0475C28.5994 23.9665 28.6381 24.0128 28.7519 23.8998L29.0141 23.6659H31.4385L31.7602 22.5556H29.9855L30.2954 21.9494H28.5336ZM32.1128 29.0231C32.0715 28.9619 32.1012 28.854 32.1644 28.6293L32.827 26.3715H35.1843C35.5279 26.3664 35.7759 26.3623 35.9372 26.3504C36.1105 26.3317 36.299 26.2681 36.5043 26.1537C36.7163 26.0339 36.8247 25.9076 36.9163 25.7626C37.0185 25.6179 37.1825 25.3014 37.3233 24.8132L38.1563 21.9561L35.7101 21.9707C35.7101 21.9707 34.9568 22.0851 34.6252 22.2113C34.2905 22.3523 33.8124 22.7457 33.8124 22.7457L34.0333 21.9625H32.5222L30.4066 29.1851C30.3316 29.4656 30.2813 29.6692 30.2697 29.7914C30.2657 29.9231 30.4311 30.0535 30.5382 30.1518C30.6649 30.2502 30.852 30.2342 31.0316 30.2502C31.2204 30.2648 31.4889 30.274 31.8595 30.274H33.0208L33.3773 29.035L32.3377 29.1361C32.2266 29.1361 32.1462 29.0749 32.1128 29.0231ZM33.2546 24.8466H35.7306L35.5732 25.3545C35.551 25.3664 35.4981 25.3293 35.2461 25.3599H33.1021L33.2546 24.8466ZM33.7506 23.1433H36.2474L36.0678 23.755C36.0678 23.755 34.891 23.7431 34.7025 23.7788C33.8732 23.9265 33.3888 24.3827 33.3888 24.3827L33.7506 23.1433ZM35.6286 27.0551C35.6081 27.131 35.5757 27.1773 35.5304 27.212C35.4801 27.2454 35.3988 27.2573 35.2774 27.2573H34.9246L34.9454 26.6388H33.478L33.4185 29.6625C33.4161 29.8807 33.4366 30.0069 33.5917 30.108C33.7468 30.2343 34.2246 30.2503 34.8677 30.2503H35.7873L36.1193 29.1185L35.3188 29.1638L35.0526 29.1798C35.0162 29.1638 34.9815 29.1492 34.9428 29.1093C34.9091 29.075 34.8522 29.0961 34.8615 28.8779L34.8677 28.1028L35.7073 28.0671C36.1606 28.0671 36.3544 27.9153 36.5197 27.7706C36.6774 27.6321 36.729 27.4728 36.7885 27.2573L36.9294 26.5711H35.7757L35.6286 27.0551Z" fill="#FEFEFE"/>
</svg>
