<svg width="28" height="16" viewBox="0 0 28 16" fill="none" xmlns="http://www.w3.org/2000/svg">
<path d="M12.5506 11.884H10.3906L11.7416 4.14062H13.9015L12.5506 11.884Z" fill="#00579F"/>
<path d="M20.3855 4.32967C19.9595 4.17299 19.2838 4 18.4482 4C16.3152 4 14.8131 5.05436 14.8039 6.56179C14.7862 7.67396 15.8793 8.29169 16.6969 8.66252C17.5326 9.04146 17.8167 9.28879 17.8167 9.62656C17.8082 10.1453 17.1414 10.3844 16.5195 10.3844C15.6572 10.3844 15.1951 10.2611 14.4929 9.97254L14.2085 9.84882L13.9062 11.587C14.4128 11.801 15.3462 11.9908 16.3152 11.9992C18.5816 11.9992 20.0571 10.9611 20.0745 9.3547C20.0832 8.47322 19.5059 7.79779 18.2615 7.24586C17.506 6.89156 17.0434 6.65266 17.0434 6.29015C17.0522 5.96059 17.4347 5.62304 18.2875 5.62304C18.9897 5.60651 19.5056 5.76297 19.8964 5.91953L20.0918 6.00176L20.3855 4.32967Z" fill="#00579F"/>
<path d="M23.2559 9.14081C23.4338 8.69596 24.1182 6.97427 24.1182 6.97427C24.1092 6.9908 24.2958 6.52121 24.4024 6.23293L24.5534 6.90015C24.5534 6.90015 24.9624 8.75366 25.0512 9.14081C24.7136 9.14081 23.6825 9.14081 23.2559 9.14081ZM25.9221 4.14062H24.2513C23.7361 4.14062 23.3447 4.28055 23.1224 4.7831L19.9141 11.8839H22.1804C22.1804 11.8839 22.5536 10.9282 22.6338 10.7224C22.8824 10.7224 25.0871 10.7224 25.407 10.7224C25.469 10.9942 25.6647 11.8839 25.6647 11.8839H27.6646L25.9221 4.14062Z" fill="#00579F"/>
<path d="M8.59056 4.14062L6.47525 9.42087L6.2441 8.34998C5.85302 7.1143 4.62652 5.77177 3.25781 5.10422L5.19536 11.8758H7.47946L10.8745 4.14062H8.59056Z" fill="#00579F"/>
<path d="M4.51071 4.14062H1.03555L1 4.29708C3.71084 4.93966 5.50618 6.48858 6.2438 8.35031L5.48834 4.79153C5.36397 4.29697 4.98175 4.15694 4.51071 4.14062Z" fill="#FAA61A"/>
</svg>
