<svg width="131" height="20" viewBox="0 0 131 20" fill="none" xmlns="http://www.w3.org/2000/svg">
<path d="M74.8203 15.6537H77.4931V4.53619H77.5363L84.9645 15.6537H88.3602V1.15776H85.6841V11.9266H85.6443L78.3487 1.15776H74.8203L74.8203 15.6537ZM92.6282 11.5587C92.9971 12.4557 93.5571 13.2684 94.2715 13.944C94.9861 14.6196 95.8394 15.1432 96.7767 15.481C97.7969 15.852 98.8799 16.0364 99.9701 16.025C101.074 16.0243 102.168 15.8269 103.197 15.4426C104.139 15.0883 104.999 14.5554 105.724 13.8749C106.44 13.1941 107.005 12.3786 107.382 11.4787C107.784 10.4943 107.981 9.44293 107.962 8.38502C107.978 7.30634 107.777 6.23478 107.369 5.23048C106.995 4.3231 106.431 3.5004 105.71 2.81494C104.99 2.13845 104.129 1.61818 103.183 1.2888C102.149 0.931525 101.055 0.761196 99.9568 0.786667C98.8666 0.775181 97.7837 0.959453 96.7634 1.33041C95.8267 1.67222 94.974 2.1985 94.2598 2.87566C93.5395 3.56512 92.975 4.39078 92.6016 5.30083C92.2063 6.31212 92.0172 7.38766 92.0445 8.46816C92.0298 9.52591 92.2314 10.5761 92.638 11.5587L92.6282 11.5587ZM95.208 6.27657C95.4444 5.66675 95.8014 5.10719 96.2594 4.62901C96.7155 4.1551 97.2689 3.77821 97.8842 3.52202C98.554 3.24726 99.2758 3.11101 100.003 3.12216C100.732 3.11287 101.454 3.24892 102.126 3.52202C102.745 3.77652 103.302 4.15362 103.761 4.62901C104.218 5.10736 104.575 5.66692 104.812 6.27657C105.057 6.92292 105.179 7.60707 105.17 8.29538C105.178 9.02755 105.052 9.75528 104.799 10.4452C104.568 11.0728 104.21 11.6502 103.747 12.1442C103.29 12.6252 102.733 13.009 102.112 13.2703C101.443 13.5499 100.72 13.6895 99.99 13.6798C99.2637 13.6903 98.5434 13.5507 97.8776 13.2703C97.2613 13.0071 96.708 12.6237 96.2526 12.1442C95.7895 11.6503 95.4321 11.073 95.2015 10.4452C94.9489 9.75511 94.8242 9.02726 94.8334 8.29538C94.8274 7.60309 94.9534 6.91546 95.2047 6.26707L95.208 6.27657ZM114.399 15.6537H116.859L120.341 4.61621H120.385L123.88 15.6537H126.427L130.797 1.15776H128.081L125.13 11.6003H125.087L121.77 1.15776H119.138L115.758 11.6003H115.715L112.893 1.15776H109.952L114.399 15.6537Z" fill="#00C26F"/>
<path d="M2.37392 5.32942C2.55002 4.6841 2.80986 4.1305 3.15445 3.66885C3.50581 3.20687 3.9382 2.8502 4.45128 2.59891C4.97164 2.34754 5.57234 2.22189 6.25459 2.22189C7.04866 2.22189 7.692 2.35787 8.18393 2.62955C8.6762 2.90122 9.05564 3.28817 9.32276 3.79083C9.58987 4.28682 9.77274 4.88112 9.87119 5.57375H11.8954C11.7902 4.59581 11.5126 3.73648 11.0626 2.99619C10.6199 2.24923 9.99756 1.66495 9.19622 1.24395C8.39488 0.82295 7.41405 0.612305 6.25459 0.612305C5.30523 0.612305 4.45128 0.775301 3.69223 1.10126C2.93318 1.42725 2.28273 1.89256 1.7414 2.49723C1.20717 3.10153 0.795762 3.82818 0.507501 4.67743C0.226686 5.51943 0.0859375 6.46039 0.0859375 7.49932V8.97659C0.0859375 10.0159 0.226683 10.9599 0.507501 11.8088C0.795762 12.6511 1.20362 13.3744 1.73091 13.979C2.2582 14.5767 2.88733 15.0387 3.61847 15.3646C4.35637 15.6906 5.17531 15.8536 6.0751 15.8536C7.30528 15.8536 8.33144 15.6396 9.15393 15.2116C9.97641 14.777 10.613 14.1894 11.0626 13.4491C11.5126 12.7088 11.7902 11.8701 11.8954 10.9328H9.87119C9.75852 11.6255 9.56872 12.2198 9.30161 12.7158C9.04177 13.2114 8.65505 13.5917 8.14197 13.8567C7.62855 14.1217 6.93988 14.254 6.0751 14.254C5.39319 14.254 4.80297 14.1184 4.30359 13.8464C3.80438 13.5681 3.39347 13.1878 3.07003 12.7054C2.74675 12.2231 2.50417 11.6628 2.34244 11.0245C2.18783 10.3859 2.11069 9.70358 2.11069 8.9766V7.47899C2.11069 6.69102 2.19832 5.97473 2.37392 5.32942Z" fill="currentColor"/>
<path d="M22.3569 5.33842C22.0406 5.01943 21.6574 4.78844 21.2076 4.64579C20.7576 4.49646 20.2515 4.42147 19.6892 4.42147C19.0003 4.42147 18.3712 4.55412 17.8016 4.81876C17.2393 5.07713 16.7543 5.44373 16.3466 5.91938C16.3392 5.92808 16.3329 5.93793 16.3255 5.94664V0H14.375V15.649H16.3255V7.78941C16.4497 7.54975 16.5923 7.32552 16.7579 7.12135C17.0461 6.77505 17.387 6.50337 17.7807 6.3064C18.1814 6.10939 18.6241 6.01108 19.1093 6.01108C19.6012 6.01108 20.0162 6.09238 20.3537 6.25538C20.6908 6.4117 20.9474 6.66637 21.1232 7.01967C21.2991 7.366 21.3868 7.82765 21.3868 8.40526V15.649H23.3481V8.42561C23.3481 7.69867 23.2638 7.08404 23.0952 6.58138C22.9264 6.07204 22.6804 5.65774 22.3569 5.33842Z" fill="currentColor"/>
<path d="M34.9451 13.2458V8.111C34.9451 7.28906 34.762 6.60676 34.3966 6.06308C34.038 5.51313 33.5391 5.10214 32.8992 4.83047C32.2667 4.55883 31.5357 4.42285 30.7061 4.42285C30.0171 4.42285 29.3917 4.51814 28.829 4.70816C28.2742 4.8915 27.7959 5.14279 27.3952 5.46211C27.0015 5.77444 26.6994 6.12444 26.4884 6.51142C26.2775 6.89873 26.1721 7.28906 26.1721 7.68304H28.1228C28.1228 7.37739 28.2249 7.09241 28.4286 6.82741C28.6396 6.56241 28.9278 6.34842 29.2934 6.18543C29.6657 6.02243 30.0981 5.9411 30.5901 5.9411C31.1175 5.9411 31.5602 6.02947 31.9187 6.20577C32.2773 6.3824 32.5444 6.63377 32.7202 6.95973C32.9031 7.27905 32.9942 7.65602 32.9942 8.09066V8.967H31.0647C30.2845 8.967 29.5778 9.04496 28.9451 9.20128C28.3126 9.35728 27.7714 9.58827 27.3214 9.89392C26.8716 10.1929 26.527 10.5699 26.2882 11.0249C26.0491 11.4732 25.9297 11.9928 25.9297 12.5835C25.9297 13.1948 26.0877 13.7484 26.4039 14.2444C26.7275 14.7334 27.1773 15.1237 27.7538 15.416C28.3371 15.708 29.0154 15.854 29.7887 15.854C30.4075 15.854 30.9629 15.752 31.4548 15.5483C31.9537 15.3377 32.3827 15.0763 32.7412 14.7637C32.8486 14.67 32.9475 14.5747 33.0423 14.4787C33.0538 14.5799 33.0626 14.6783 33.0787 14.784C33.1348 15.1441 33.2121 15.4327 33.3104 15.6503H35.3455V15.487C35.2122 15.1884 35.1103 14.8317 35.04 14.4174C34.9765 14.0031 34.9451 13.6124 34.9451 13.2458ZM31.6551 13.8367C31.1982 14.0811 30.6709 14.2034 30.0736 14.2034C29.5955 14.2034 29.1912 14.1221 28.861 13.9591C28.5374 13.7891 28.2948 13.5618 28.1334 13.2765C27.9717 12.9912 27.8908 12.6752 27.8908 12.3288C27.8908 11.9892 27.9681 11.6938 28.1228 11.4426C28.2775 11.1845 28.5024 10.9706 28.7976 10.8006C29.0928 10.6309 29.4583 10.5053 29.8941 10.4236C30.3299 10.3356 30.8257 10.2912 31.3811 10.2912H32.9942V12.5402C32.9264 12.6722 32.846 12.8052 32.7412 12.9401C32.4742 13.2935 32.112 13.5921 31.6551 13.8367Z" fill="currentColor"/>
<path d="M45.9976 5.3398C45.6812 5.0208 45.2981 4.78982 44.8484 4.64717C44.3983 4.49784 43.8921 4.42285 43.3298 4.42285C42.6408 4.42285 42.0117 4.5555 41.4424 4.82013C40.8801 5.0785 40.3951 5.4451 39.9873 5.92075C39.9644 5.94745 39.9448 5.97715 39.9225 6.00437L39.8609 4.62686H38.0156V15.6503H39.9661V7.79038C40.0904 7.55089 40.2327 7.32678 40.3985 7.12272C40.6868 6.77643 41.0276 6.50475 41.4213 6.30778C41.822 6.11076 42.2649 6.01246 42.7499 6.01246C43.2418 6.01246 43.6565 6.09376 43.994 6.25675C44.3314 6.41308 44.5882 6.66775 44.7638 7.02104C44.9394 7.36738 45.0274 7.82903 45.0274 8.40664V15.6503H46.9887V8.42699C46.9887 7.70005 46.9041 7.08542 46.7355 6.58275C46.5671 6.07342 46.3208 5.65912 45.9976 5.3398Z" fill="currentColor"/>
<path d="M57.2489 5.85825C57.2439 5.85215 57.2396 5.84515 57.2346 5.83913C56.8621 5.37715 56.4051 5.02748 55.8636 4.78982C55.3294 4.54516 54.7042 4.42285 53.9869 4.42285C53.291 4.42285 52.6652 4.55883 52.1098 4.83047C51.5548 5.09551 51.0803 5.47578 50.6866 5.97145C50.2999 6.46744 50.001 7.06173 49.7904 7.75437C49.5862 8.44033 49.4844 9.20462 49.4844 10.047V10.2606C49.4844 11.0622 49.5862 11.8058 49.7904 12.4918C50.001 13.1711 50.3035 13.7621 50.697 14.2647C51.0906 14.7674 51.5617 15.1577 52.1098 15.4364C52.6652 15.7147 53.284 15.854 53.9658 15.854C54.69 15.854 55.3225 15.735 55.8636 15.4973C56.3713 15.268 56.8017 14.9426 57.1608 14.5284V15.5077C57.1608 16.146 57.0343 16.6826 56.781 17.1173C56.5351 17.5586 56.1872 17.8916 55.7373 18.1156C55.2874 18.3399 54.7532 18.4519 54.1346 18.4519C53.6215 18.4519 53.1011 18.3432 52.574 18.1259C52.0537 17.9086 51.5548 17.5213 51.0767 16.9643L50.054 18.0852C50.3984 18.5606 50.8235 18.9375 51.3296 19.2159C51.8427 19.5012 52.3631 19.7015 52.8904 19.8172C53.4246 19.9395 53.8884 20.0005 54.2821 20.0005C55.2309 20.0005 56.0676 19.8205 56.7918 19.4605C57.5228 19.1072 58.0921 18.5879 58.4998 17.9019C58.9076 17.2156 59.1113 16.387 59.1113 15.416V4.62686H57.3399L57.2489 5.85825ZM57.0448 12.8078C56.7988 13.2424 56.4649 13.5921 56.0431 13.8571C55.6212 14.1221 55.087 14.2544 54.4404 14.2544C53.9132 14.2544 53.4596 14.1524 53.0802 13.9488C52.7006 13.7381 52.3878 13.4495 52.1416 13.0828C51.9026 12.7161 51.7231 12.2915 51.604 11.8092C51.4914 11.3272 51.4354 10.8109 51.4354 10.2606V10.0469C51.4354 9.4966 51.4914 8.98031 51.604 8.49835C51.7231 8.00904 51.9026 7.58136 52.1416 7.21439C52.3878 6.84108 52.7006 6.54873 53.0802 6.33841C53.4666 6.1211 53.927 6.01246 54.4616 6.01246C54.9535 6.01246 55.3825 6.09376 55.7479 6.25675C56.1135 6.41975 56.419 6.6404 56.665 6.91908C56.8636 7.13212 57.0228 7.37772 57.1608 7.64097V12.5923C57.1227 12.6646 57.0857 12.7375 57.0448 12.8078Z" fill="currentColor"/>
<path d="M71.25 9.82259C71.25 9.0483 71.1588 8.33536 70.976 7.68304C70.7933 7.02438 70.5119 6.45376 70.1323 5.97145C69.7529 5.48246 69.264 5.10214 68.6668 4.83047C68.0761 4.55883 67.373 4.42285 66.558 4.42285C65.918 4.42285 65.2996 4.5485 64.7019 4.79983C64.1044 5.05116 63.5702 5.42146 63.0992 5.91042C62.6284 6.39941 62.2558 6.99704 61.9817 7.70339C61.7077 8.40298 61.5703 9.20128 61.5703 10.0976V10.5256C61.5703 11.2999 61.6935 12.0132 61.9394 12.6652C62.1854 13.3171 62.5369 13.8808 62.994 14.3564C63.4579 14.8317 64.0097 15.202 64.6493 15.4667C65.2962 15.725 66.0163 15.854 66.8109 15.854C67.563 15.854 68.2133 15.752 68.7617 15.5483C69.3171 15.3447 69.7845 15.0797 70.1641 14.7537C70.5436 14.4277 70.8564 14.0848 71.1023 13.7248L69.9217 12.8178C69.5631 13.2731 69.1449 13.6364 68.6668 13.9081C68.1888 14.1797 67.6053 14.3154 66.9165 14.3154C66.3819 14.3154 65.9042 14.2171 65.4821 14.0201C65.0675 13.8231 64.7127 13.5514 64.4172 13.2051C64.129 12.8588 63.9075 12.4578 63.7531 12.0028C63.6191 11.5835 63.5492 11.1378 63.5367 10.6683H71.25V9.82259ZM69.2993 9.12996H63.5915C63.6284 8.84713 63.6817 8.58168 63.7531 8.33535C63.9006 7.82569 64.1081 7.3944 64.3752 7.04138C64.6424 6.68805 64.9621 6.42308 65.3346 6.24674C65.7074 6.06308 66.1148 5.97144 66.558 5.97144C67.2255 5.97144 67.7528 6.1211 68.1395 6.41975C68.5261 6.71872 68.8074 7.09908 68.9832 7.56105C69.1657 8.0227 69.2714 8.49835 69.2993 8.9873L69.2993 9.12996Z" fill="currentColor"/>
</svg>
