<svg xmlns="http://www.w3.org/2000/svg" width="20" height="20" fill="none"><rect width="20" height="20" fill="#559EA3" rx="4"/><path fill="#fff" d="m13.884 6.483.754-.753a.352.352 0 1 0-.498-.497l-.753.753a.352.352 0 1 0 .497.497Zm1.635 1.66h-.753a.352.352 0 1 0 0 .702h.753a.352.352 0 1 0 0-.703Zm-4.143-2.687a.352.352 0 0 0 .352-.351v-.753a.352.352 0 0 0-.703 0v.753c0 .194.157.351.351.351Zm-6.273 7.308a.352.352 0 0 0 0 .497l1.506 1.506c.137.138.36.138.497 0l.59-.589-2.004-2.003-.59.589Zm6.087.284L8.72 14.21l1.688 1.687c.137.137.36.137.497 0l1.318-1.318a.352.352 0 0 0 0-.497l-1.034-1.034ZM9.742 5.233a.352.352 0 0 0-.566.099l-2.987 6.346 2.004 2.003 6.346-2.986a.353.353 0 0 0 .099-.567L9.742 5.233Z"/></svg>