<svg width="28" height="16" viewBox="0 0 28 16" fill="none" xmlns="http://www.w3.org/2000/svg">
<circle cx="8" cy="8" r="8" fill="#FFC331"/>
<path d="M12.0231 10.5259L7.99963 14.5493L3.9762 10.5259L5.45569 9.04736L7.99963 11.5913L10.5446 9.04736L12.0231 10.5259ZM9.50061 8.00244L8.00061 9.50244L6.50061 8.00244L6.7594 7.73291L6.89417 7.60889L8.00061 6.50244L9.50061 8.00244ZM4.40979 8.00342L2.93225 9.48096L1.45471 8.00342L2.93225 6.52588L4.40979 8.00342ZM14.5455 8.00342L13.068 9.48096L11.5905 8.00342L13.068 6.52588L14.5455 8.00342ZM12.0231 5.47803L10.5446 6.95752L7.99963 4.4126L5.45569 6.95752L3.9762 5.47803L7.99963 1.45459L12.0231 5.47803Z" fill="white"/>
<circle cx="20" cy="8" r="8" fill="#EE3932"/>
<path fill-rule="evenodd" clip-rule="evenodd" d="M21.0604 8.723C21.0012 8.72744 20.6952 8.7457 20.0127 8.7457C19.4699 8.7457 19.0845 8.72942 18.9492 8.723C16.8514 8.63072 15.2855 8.26553 15.2855 7.82829C15.2855 7.39105 16.8514 7.02636 18.9492 6.93259V8.35929C19.0864 8.36916 19.4793 8.39236 20.0221 8.39236C20.6735 8.39236 20.9997 8.36521 21.0584 8.35979V6.93358C23.1519 7.02685 24.7143 7.39204 24.7143 7.82829C24.7143 8.26454 23.1524 8.62973 21.0584 8.72251L21.0604 8.723ZM21.0604 6.78602V5.50935H23.9819V3.5625H16.0277V5.50935H18.9487V6.78553C16.5745 6.89459 14.7891 7.3649 14.7891 7.92847C14.7891 8.49204 16.5745 8.96185 18.9487 9.07141V13.1625H21.0599V9.06993C23.4287 8.96087 25.2112 8.49106 25.2112 7.92798C25.2112 7.3649 23.4302 6.89509 21.0599 6.78553L21.0604 6.78602Z" fill="white"/>
</svg>
