<svg width="28" height="16" viewBox="0 0 28 16" fill="none" xmlns="http://www.w3.org/2000/svg">
<g clip-path="url(#clip0_40001158_171570)">
<circle cx="8" cy="8" r="8" fill="white"/>
<path d="M1.12194 3.88547C1.37741 3.52837 1.61483 3.15904 1.90268 2.82454C2.42622 2.21613 3.01908 1.69471 3.69797 1.26312C4.30697 0.875981 4.9492 0.570829 5.63644 0.357456C6.70652 0.0251726 7.79886 -0.0736367 8.91149 0.0534654C9.72477 0.146371 10.5083 0.354205 11.2546 0.6908C11.7064 0.894522 12.1312 1.14624 12.5477 1.41809C13.387 1.96587 14.0593 2.67896 14.6214 3.49368C15.2216 4.36389 15.6117 5.33192 15.8257 6.37023C15.976 7.09937 16.0394 7.83532 15.9749 8.57607C15.8954 9.48941 15.6928 10.37 15.3143 11.2164C14.9941 11.9323 14.5989 12.5896 14.0928 13.1834C13.5978 13.7642 13.0395 14.2723 12.398 14.6912C11.9611 14.9765 11.5058 15.2311 11.0251 15.4201C10.2207 15.7364 9.38659 15.9504 8.5138 15.9878C7.8993 16.0142 7.28828 16.0038 6.6821 15.8962C6.16144 15.8037 5.65327 15.6687 5.15577 15.4817C4.67312 15.3002 4.20501 15.0853 3.77372 14.8136C3.15189 14.4218 2.59134 13.9463 2.09251 13.3985C1.53673 12.7881 1.08608 12.1113 0.741275 11.3638C0.254181 10.3079 0.0146437 9.19454 0.000395388 8.03284C-0.00497258 7.59591 0.0450953 7.16236 0.103281 6.72988C0.107457 6.69893 0.103215 6.66689 0.102884 6.63531C0.15378 6.60374 0.149274 6.54848 0.158452 6.50028C0.28788 5.82089 0.506178 5.17158 0.80188 4.54645C0.906655 4.32508 1.05123 4.12309 1.12194 3.88547ZM10.4571 8.17649C10.6737 8.06126 10.8796 7.99522 11.0422 7.84978C11.6691 7.28926 11.8362 5.97002 10.8187 5.33451C10.5017 5.13652 10.1636 4.98978 9.7991 4.84006C9.85937 4.35145 10.0545 3.89422 10.1179 3.39381C9.81719 3.31921 9.53547 3.22021 9.24232 3.1884C9.12247 3.65863 9.00756 4.10946 8.88863 4.57607C8.66397 4.50721 8.43265 4.51375 8.22121 4.39454C8.29749 3.91724 8.47878 3.47006 8.52831 2.99104C8.21942 2.94248 7.95785 2.82208 7.65801 2.80911C7.53994 3.28041 7.42569 3.73644 7.30723 4.20933C6.71265 4.11811 6.16674 3.91343 5.56695 3.80338C5.43517 4.09891 5.37682 4.41073 5.32393 4.74248C5.5193 4.78865 5.68915 4.82948 5.85934 4.86888C6.28894 4.96832 6.40664 5.20342 6.30465 5.57949C6.23208 5.84699 6.1666 6.11646 6.0998 6.38552C5.85974 7.35272 5.62159 8.32034 5.3801 9.28718C5.32569 9.50499 5.1901 9.57594 4.96928 9.5436C4.75181 9.51176 4.54657 9.41401 4.3069 9.42111C4.20299 9.75386 3.99615 10.047 3.92292 10.4144C4.49405 10.56 5.04659 10.7009 5.62424 10.8482C5.58077 11.3527 5.37195 11.8143 5.31025 12.3223C5.59982 12.3918 5.87239 12.4571 6.15666 12.5254C6.34398 12.0595 6.38719 11.57 6.56178 11.0882C6.77222 11.1965 7.0057 11.165 7.21164 11.3013C7.09941 11.7658 6.98757 12.2285 6.87438 12.697C7.17214 12.8036 7.46264 12.8472 7.76103 12.9215C7.8818 12.4371 7.99857 11.9687 8.11153 11.5156C8.18188 11.4795 8.23334 11.4862 8.28195 11.4966C8.74959 11.5968 9.22267 11.6202 9.69605 11.5676C10.1059 11.522 10.4695 11.3657 10.7613 11.0577C11.0857 10.7153 11.2487 10.2964 11.3272 9.8459C11.3911 9.47889 11.3748 9.107 11.1595 8.78215C10.9908 8.52762 10.7591 8.33338 10.4571 8.17649ZM7.07634 10.0889C7.65327 10.2323 8.22956 10.3858 8.83319 10.2754C9.15511 10.2166 9.39773 10.0522 9.49541 9.72805C9.58753 9.4223 9.53398 9.14452 9.30743 8.90285C9.07184 8.65157 8.76885 8.52095 8.45644 8.41172C8.0832 8.28124 7.70483 8.16269 7.29703 8.13045C7.14076 8.76623 6.9891 9.38333 6.83406 10.014C6.93283 10.0448 7.00361 10.0708 7.07634 10.0889ZM9.11418 7.42466C9.43321 7.37928 9.69777 7.168 9.77551 6.88093C9.87057 6.5299 9.76434 6.22203 9.48053 6.01264C9.15852 5.77505 8.78773 5.65418 8.40462 5.57027C8.2619 5.53899 8.12151 5.4557 7.9488 5.51192C7.81152 6.07038 7.67368 6.63127 7.53133 7.21046C8.07664 7.34827 8.57878 7.50078 9.11418 7.42466Z" fill="#F39321"/>
</g>
<path d="M19.9992 0L24.8629 8.03689L20.0172 5.96587L19.9992 0Z" fill="#E68F7B"/>
<path d="M15.1488 8.03689L19.9991 0L20.0171 5.96587L15.1488 8.03689Z" fill="#F8EC7C"/>
<path d="M19.9991 11.0002L15.1488 8.03684L20.0171 5.96582L19.9991 11.0002Z" fill="#6EB87D"/>
<path d="M24.8629 8.03684L20.0172 5.96582L19.9992 11.0002L24.8629 8.03684Z" fill="#946BA7"/>
<path d="M19.9992 12.0208L24.8629 9.1377L19.9992 15.9907V12.0208Z" fill="#697CB9"/>
<path d="M19.9991 12.0208L15.1488 9.1377L19.9991 15.9907V12.0208Z" fill="#4FADD0"/>
<defs>
<clipPath id="clip0_40001158_171570">
<rect width="16" height="16" fill="white"/>
</clipPath>
</defs>
</svg>
