<svg xmlns="http://www.w3.org/2000/svg" width="20" height="20" fill="none"><rect width="20" height="20" fill="#CB9797" rx="4"/><path fill="#fff" stroke="#CB9797" stroke-width=".3" d="M14.126 7h-.375V5.875A1.875 1.875 0 0 0 11.876 4H6.692a2.293 2.293 0 0 0-2.306 2.033A2.25 2.25 0 0 0 6.626 8.5h7.5a.375.375 0 0 1 .375.375v5.25a.375.375 0 0 1-.375.375h-1.655a.772.772 0 0 0-.782.677.748.748 0 0 0 .75.823h1.687a1.874 1.874 0 0 0 1.875-1.875v-5.25A1.876 1.876 0 0 0 14.126 7Zm-1.875 0H6.66a.773.773 0 0 1-.784-.675.75.75 0 0 1 .75-.825h5.25a.375.375 0 0 1 .375.375V7Z"/><path fill="#fff" stroke="#CB9797" stroke-width=".3" d="M12.625 12.25a.75.75 0 1 0 0-1.5.75.75 0 0 0 0 1.5ZM4.75 14.125a1.125 1.125 0 0 1 1.125 1.125.75.75 0 1 0 1.5 0 2.625 2.625 0 0 0-2.625-2.625.75.75 0 1 0 0 1.5Z"/><path fill="#fff" stroke="#CB9797" stroke-width=".3" d="M4.75 11.125a4.125 4.125 0 0 1 4.125 4.125.75.75 0 1 0 1.5 0A5.625 5.625 0 0 0 4.75 9.625a.75.75 0 0 0 0 1.5Z"/></svg>
