<svg width="28" height="16" viewBox="0 0 28 16" fill="none" xmlns="http://www.w3.org/2000/svg">
<path d="M7.99921 0L12.8629 8.03689L8.01722 5.96587L7.99921 0Z" fill="#E68F7B"/>
<path d="M3.1488 8.03689L7.99911 0L8.01712 5.96587L3.1488 8.03689Z" fill="#F8EC7C"/>
<path d="M7.99911 11.0002L3.1488 8.03684L8.01712 5.96582L7.99911 11.0002Z" fill="#6EB87D"/>
<path d="M12.8629 8.03684L8.01722 5.96582L7.99921 11.0002L12.8629 8.03684Z" fill="#946BA7"/>
<path d="M7.99921 12.0208L12.8629 9.1377L7.99921 15.9907V12.0208Z" fill="#697CB9"/>
<path d="M7.99911 12.0208L3.1488 9.1377L7.99911 15.9907V12.0208Z" fill="#4FADD0"/>
<circle cx="20" cy="8" r="8" fill="white"/>
<mask id="mask0_40003036_86213" style="mask-type:alpha" maskUnits="userSpaceOnUse" x="12" y="0" width="16" height="16">
<circle cx="20" cy="8" r="8" fill="white"/>
</mask>
<g mask="url(#mask0_40003036_86213)">
<path d="M18.7406 10.2474L16.3508 8V12.1947H12.8C14.28 14.4773 16.9516 16 20 16C23.0484 16 25.7199 14.4773 27.2 12.1947H23.6492V8L21.2594 10.2474L20 11.4318L18.7406 10.2474Z" fill="#5E5E5E"/>
</g>
<path d="M20.0016 0C15.5817 0 12 3.53988 12 7.90426C12 8.77649 12.1418 9.6169 12.4062 10.4H14.7983V3.74998L20.0016 8.88791L25.2017 3.74998V10.4H27.5938C27.8581 9.61371 28 8.77649 28 7.90426C28.0032 3.53988 24.4215 0 20.0016 0Z" fill="#FF6600"/>
</svg>
