<svg width="28" height="16" viewBox="0 0 28 16" fill="none" xmlns="http://www.w3.org/2000/svg">
<path d="M7.99921 0L12.8629 8.03689L8.01722 5.96587L7.99921 0Z" fill="#E68F7B"/>
<path d="M3.1488 8.03689L7.99911 0L8.01712 5.96587L3.1488 8.03689Z" fill="#F8EC7C"/>
<path d="M7.99911 11.0002L3.1488 8.03684L8.01712 5.96582L7.99911 11.0002Z" fill="#6EB87D"/>
<path d="M12.8629 8.03684L8.01722 5.96582L7.99921 11.0002L12.8629 8.03684Z" fill="#946BA7"/>
<path d="M7.99921 12.0208L12.8629 9.1377L7.99921 15.9907V12.0208Z" fill="#697CB9"/>
<path d="M7.99911 12.0208L3.1488 9.1377L7.99911 15.9907V12.0208Z" fill="#4FADD0"/>
<circle cx="20" cy="8" r="8" fill="black"/>
<path d="M16.2132 4.10187C16.2768 4.03663 16.3631 4 16.4531 4H24.7531C24.9043 4 24.9799 4.18755 24.873 4.29718L23.2329 5.97815C23.1693 6.04337 23.083 6.08 22.9931 6.08H14.6931C14.5419 6.08 14.4662 5.89245 14.5731 5.78284L16.2132 4.10187Z" fill="url(#paint0_linear_40003036_86230)"/>
<path d="M16.2132 10.3418C16.2768 10.2766 16.3631 10.24 16.4531 10.24H24.7531C24.9043 10.24 24.9799 10.4275 24.873 10.5372L23.2329 12.2181C23.1693 12.2834 23.083 12.32 22.9931 12.32H14.6931C14.5419 12.32 14.4662 12.1325 14.5731 12.0228L16.2132 10.3418Z" fill="url(#paint1_linear_40003036_86230)"/>
<path d="M22.9931 7.12C23.083 7.12 23.1693 7.15663 23.2329 7.22185L24.873 8.90282C24.9799 9.01245 24.9043 9.2 24.7531 9.2H16.4531C16.3631 9.2 16.2768 9.16337 16.2132 9.09813L14.5731 7.41716C14.4662 7.30755 14.5419 7.12 14.6931 7.12H22.9931Z" fill="url(#paint2_linear_40003036_86230)"/>
<defs>
<linearGradient id="paint0_linear_40003036_86230" x1="21.5541" y1="1.7068" x2="15.5768" y2="12.8681" gradientUnits="userSpaceOnUse">
<stop stop-color="#00FFA3"/>
<stop offset="1" stop-color="#DC1FFF"/>
</linearGradient>
<linearGradient id="paint1_linear_40003036_86230" x1="21.5541" y1="1.7068" x2="15.5768" y2="12.8681" gradientUnits="userSpaceOnUse">
<stop stop-color="#00FFA3"/>
<stop offset="1" stop-color="#DC1FFF"/>
</linearGradient>
<linearGradient id="paint2_linear_40003036_86230" x1="21.5541" y1="1.7068" x2="15.5768" y2="12.8681" gradientUnits="userSpaceOnUse">
<stop stop-color="#00FFA3"/>
<stop offset="1" stop-color="#DC1FFF"/>
</linearGradient>
</defs>
</svg>
