<svg width="29" height="16" viewBox="0 0 29 16" fill="none" xmlns="http://www.w3.org/2000/svg">
<path d="M7.99921 0L12.8629 8.03689L8.01722 5.96587L7.99921 0Z" fill="#E68F7B"/>
<path d="M3.1488 8.03689L7.99911 0L8.01712 5.96587L3.1488 8.03689Z" fill="#F8EC7C"/>
<path d="M7.99911 11.0002L3.1488 8.03684L8.01712 5.96582L7.99911 11.0002Z" fill="#6EB87D"/>
<path d="M12.8629 8.03684L8.01722 5.96582L7.99921 11.0002L12.8629 8.03684Z" fill="#946BA7"/>
<path d="M7.99921 12.0208L12.8629 9.1377L7.99921 15.9907V12.0208Z" fill="#697CB9"/>
<path d="M7.99911 12.0208L3.1488 9.1377L7.99911 15.9907V12.0208Z" fill="#4FADD0"/>
<path fill-rule="evenodd" clip-rule="evenodd" d="M15.4846 1.6001H24.7004C24.9204 1.6001 25.1235 1.71773 25.2332 1.90858L27.9181 6.58103C28.0573 6.82334 28.016 7.12917 27.8174 7.32566L20.427 14.6375C20.1876 14.8743 19.8025 14.8743 19.5631 14.6375L12.1826 7.33554C11.9794 7.13448 11.9414 6.81974 12.0908 6.57591L14.9608 1.89359C15.0726 1.71123 15.2709 1.6001 15.4846 1.6001ZM23.5105 3.68619V4.99722H20.8853V5.90618C22.7291 6.00332 24.1124 6.40227 24.1227 6.88045L24.1226 7.87734C24.1123 8.35552 22.7291 8.75446 20.8853 8.85161V11.0823H19.1421V8.85161C17.2983 8.75446 15.915 8.35552 15.9048 7.87734L15.9048 6.88045C15.9151 6.40227 17.2983 6.00332 19.1421 5.90618V4.99722H16.5169V3.68619H23.5105ZM20.0137 8.16675C21.9813 8.16675 23.626 7.82941 24.0284 7.37891C23.6871 6.99688 22.4526 6.6962 20.8853 6.61363V7.56533C20.6044 7.58013 20.3128 7.58793 20.0137 7.58793C19.7146 7.58793 19.423 7.58013 19.1421 7.56533V6.61363C17.5748 6.6962 16.3403 6.99688 15.999 7.37891C16.4014 7.82941 18.0461 8.16675 20.0137 8.16675Z" fill="#009393"/>
<path fill-rule="evenodd" clip-rule="evenodd" d="M23.5104 3.68604V4.99706H20.8852V5.90603C22.729 6.00317 24.1123 6.40211 24.1226 6.8803L24.1225 7.87719C24.1122 8.35537 22.729 8.75431 20.8852 8.85146V11.0822H19.142V8.85146C17.2982 8.75431 15.9149 8.35537 15.9047 7.87719L15.9047 6.8803C15.915 6.40211 17.2982 6.00317 19.142 5.90603V4.99706H16.5168V3.68604H23.5104ZM24.0283 7.37876C23.6259 7.82926 21.9812 8.1666 20.0136 8.1666C18.046 8.1666 16.4013 7.82926 15.9989 7.37876C16.3402 6.99673 17.5747 6.69605 19.142 6.61348V7.56518C19.4229 7.57998 19.7145 7.58778 20.0136 7.58778C20.3127 7.58778 20.6043 7.57998 20.8852 7.56518V6.61348C22.4525 6.69605 23.687 6.99673 24.0283 7.37876Z" fill="white"/>
<path d="M25.6252 8L28.057 12.0184L25.6342 10.9829L25.6252 8Z" fill="#E68F7B"/>
<path d="M23.2 12.0184L25.6252 8L25.6342 10.9829L23.2 12.0184Z" fill="#F8EC7C"/>
<path d="M25.6252 13.5001L23.2 12.0184L25.6342 10.9829L25.6252 13.5001Z" fill="#6EB87D"/>
<path d="M28.057 12.0184L25.6342 10.9829L25.6252 13.5001L28.057 12.0184Z" fill="#946BA7"/>
<path d="M25.6252 14.0099L28.057 12.5684L25.6252 15.9949V14.0099Z" fill="#697CB9"/>
<path d="M25.6252 14.0099L23.2 12.5684L25.6252 15.9949V14.0099Z" fill="#4FADD0"/>
</svg>
