<svg xmlns="http://www.w3.org/2000/svg" width="20" height="20" fill="none"><rect width="20" height="20" fill="#38C655" rx="4"/><path fill="#fff" d="M10.295 3.861a.445.445 0 0 0-.647.062.497.497 0 0 0 .059.677l.862.753H8.222c-1.917-.004-3.57 1.42-4.05 3.425-.478 2.003.32 4.125 1.975 5.16.217.136.5.062.629-.166a.494.494 0 0 0-.159-.66c-1.289-.806-1.94-2.488-1.554-4.1.385-1.61 1.693-2.7 3.158-2.698h2.348l-.862.753a.497.497 0 0 0-.059.677.445.445 0 0 0 .647.061l1.835-1.602a.49.49 0 0 0 .165-.37.49.49 0 0 0-.165-.369l-1.835-1.603ZM14.044 6.073a.446.446 0 0 0-.636.137c-.14.222-.08.52.132.666 1.156.796 1.764 2.483 1.408 4.122-.355 1.635-1.547 2.69-2.828 2.688h-2.075l.862-.753a.497.497 0 0 0 .059-.677.445.445 0 0 0-.647-.061l-1.836 1.602a.49.49 0 0 0-.165.37c0 .142.06.278.165.369l1.836 1.603c.195.17.484.142.646-.062a.497.497 0 0 0-.058-.677l-.862-.753h2.073l.001-.48v.48c1.793.004 3.293-1.455 3.724-3.435.43-1.976-.28-4.094-1.8-5.14Z"/><path stroke="#fff" stroke-linecap="round" stroke-linejoin="round" stroke-width=".2" d="M12.118 14.647h-2.073l.862.753c.194.17.22.473.059.677a.445.445 0 0 1-.647.062l-1.836-1.603a.49.49 0 0 1-.165-.37.49.49 0 0 1 .165-.369l1.836-1.602a.445.445 0 0 1 .646.061.497.497 0 0 1-.058.677l-.862.753H12.12c1.28.003 2.473-1.053 2.828-2.688.356-1.639-.252-3.326-1.408-4.122a.495.495 0 0 1-.132-.666.446.446 0 0 1 .636-.137c1.519 1.045 2.228 3.163 1.799 5.139-.43 1.98-1.93 3.44-3.725 3.435Zm0 0 .001-.48v.48h0ZM9.648 3.923a.445.445 0 0 1 .647-.062l1.835 1.603a.49.49 0 0 1 .165.37.49.49 0 0 1-.165.369l-1.835 1.602a.445.445 0 0 1-.647-.061.497.497 0 0 1 .059-.677l.862-.753H8.22c-1.465-.003-2.773 1.089-3.158 2.698-.386 1.612.265 3.294 1.554 4.1a.494.494 0 0 1 .159.66.447.447 0 0 1-.63.166c-1.654-1.035-2.452-3.157-1.973-5.16.48-2.006 2.132-3.43 4.049-3.425h2.347L9.707 4.6a.497.497 0 0 1-.059-.677Z"/></svg>
