<svg width="28" height="16" viewBox="0 0 28 16" fill="none" xmlns="http://www.w3.org/2000/svg">
<path d="M7.99372 15.9552C12.3837 15.9552 15.9425 12.3964 15.9425 8.00642C15.9425 3.61642 12.3837 0.0576172 7.99372 0.0576172C3.60372 0.0576172 0.0449219 3.61642 0.0449219 8.00642C0.0449219 12.3964 3.60372 15.9552 7.99372 15.9552Z" fill="#335E9F"/>
<path d="M4.4607 12.883L5.6447 9.03656L4.3551 9.43016L4.6975 8.48296L5.8815 8.11496L7.5359 2.67176C7.5711 2.55656 7.6799 2.47656 7.8015 2.47656H9.49111C9.67671 2.47656 9.8079 2.65576 9.7567 2.83176L8.4127 7.32456L9.6255 6.98216L9.4047 7.89736L8.1535 8.27496L7.2799 11.0654H11.7279C11.8623 11.0654 11.9583 11.1934 11.9231 11.3214L11.5359 12.7358C11.5103 12.8222 11.4335 12.883 11.3407 12.883H4.4607Z" fill="white"/>
<circle cx="20" cy="8" r="8" fill="#EE3932"/>
<path fill-rule="evenodd" clip-rule="evenodd" d="M21.0604 8.723C21.0012 8.72744 20.6952 8.7457 20.0127 8.7457C19.4699 8.7457 19.0845 8.72942 18.9492 8.723C16.8514 8.63072 15.2855 8.26553 15.2855 7.82829C15.2855 7.39105 16.8514 7.02636 18.9492 6.93259V8.35929C19.0864 8.36916 19.4793 8.39236 20.0221 8.39236C20.6735 8.39236 20.9997 8.36521 21.0584 8.35979V6.93358C23.1519 7.02685 24.7143 7.39204 24.7143 7.82829C24.7143 8.26454 23.1524 8.62973 21.0584 8.72251L21.0604 8.723ZM21.0604 6.78602V5.50935H23.9819V3.5625H16.0277V5.50935H18.9487V6.78553C16.5745 6.89459 14.7891 7.3649 14.7891 7.92847C14.7891 8.49204 16.5745 8.96185 18.9487 9.07141V13.1625H21.0599V9.06993C23.4287 8.96087 25.2112 8.49106 25.2112 7.92798C25.2112 7.3649 23.4302 6.89509 21.0599 6.78553L21.0604 6.78602Z" fill="white"/>
</svg>
