<svg width="20" height="20" viewBox="0 0 20 20" fill="none" xmlns="http://www.w3.org/2000/svg">
<rect width="20" height="20" rx="4" fill="#FBC951"/>
<path d="M14.2496 8.7686V6.95459C14.2496 6.08772 13.6068 5.30644 12.4396 4.75469C11.4102 4.26803 10.0554 4 8.62483 4C7.19412 4 5.83929 4.26803 4.80987 4.75469C3.64277 5.30644 3 6.08772 3 6.95459V14.0454C3 14.9123 3.64277 15.6936 4.80991 16.2453C5.83934 16.732 7.19416 17 8.62488 17C9.71476 17 10.7538 16.8463 11.6514 16.5547C12.2446 16.8393 12.9151 17 13.6246 17C16.0372 17 18 15.1442 18 12.8631C18 10.7826 16.3672 9.05626 14.2496 8.7686ZM4.25011 11.2104C4.42058 11.3193 4.6071 11.4223 4.80991 11.5181C5.83934 12.0048 7.19421 12.2728 8.62488 12.2728C8.85048 12.2728 9.07475 12.2658 9.29694 12.2525C9.26516 12.4546 9.2492 12.6587 9.24918 12.8631C9.24918 13.0561 9.26356 13.2461 9.29077 13.4321C9.06915 13.447 8.84705 13.4545 8.62488 13.4544C6.12099 13.4545 4.25011 12.5186 4.25011 11.6818V11.2104ZM9.70197 11.0319C9.34445 11.0714 8.98479 11.091 8.62483 11.0908C6.12099 11.0908 4.25011 10.155 4.25011 9.31822V8.84677C4.42058 8.95571 4.6071 9.05866 4.80991 9.15448C5.83934 9.64118 7.19421 9.90917 8.62488 9.90917C9.39461 9.90917 10.1418 9.83092 10.8288 9.68341C10.3581 10.0539 9.9743 10.5132 9.70197 11.0319ZM8.62483 5.18198C11.1286 5.18198 12.9995 6.11783 12.9995 6.95459C12.9995 7.79135 11.1286 8.72723 8.62483 8.72723C6.12099 8.72723 4.25011 7.79135 4.25011 6.95459C4.25011 6.11783 6.12099 5.18198 8.62483 5.18198ZM4.25011 14.0455V13.574C4.42058 13.683 4.6071 13.7859 4.80991 13.8818C5.83934 14.3684 7.19416 14.6364 8.62488 14.6364C8.96991 14.6364 9.31252 14.6204 9.64884 14.5894C9.83858 14.9782 10.0908 15.3369 10.3965 15.6528C9.83952 15.7606 9.23643 15.8181 8.62483 15.8181C6.12099 15.8181 4.25011 14.8822 4.25011 14.0455ZM13.6246 15.8181C11.9013 15.8181 10.4993 14.4925 10.4993 12.8631C10.4993 11.2384 11.8935 9.91599 13.6101 9.90854C13.6149 9.90866 13.6197 9.90925 13.6246 9.90925C13.6295 9.90925 13.6342 9.90866 13.6391 9.90854C15.3557 9.91599 16.7498 11.2384 16.7498 12.8631C16.7498 14.4925 15.3478 15.8181 13.6246 15.8181Z" fill="white" stroke="#FBC951" stroke-width="0.4"/>
</svg>
