<svg xmlns="http://www.w3.org/2000/svg" width="20" height="20" viewBox="0 0 20 20" fill="none"><rect width="20" height="20" rx="4" fill="#2262CE"/><path d="M7.97671 5.60098L7.97619 5.60113C7.24876 5.79748 6.51019 6.03171 6.07447 6.17476L6.07441 6.17478C6.02137 6.19218 5.97207 6.22558 5.9348 6.2706L5.93479 6.27061C5.8995 6.31324 5.87589 6.36577 5.86739 6.42231L5.86713 6.4245L5.86666 6.42819C5.49465 9.2233 6.35486 11.2624 7.37901 12.602C7.3791 12.6022 7.37919 12.6023 7.37929 12.6024L7.18069 12.7543C7.18479 12.7596 7.1886 12.7651 7.19211 12.7708L7.97671 5.60098ZM7.97671 5.60098C8.72246 5.39796 9.40295 5.25 9.7533 5.25C10.1035 5.25 10.7823 5.39843 11.529 5.60021C12.1679 5.77612 12.8018 5.96732 13.4314 6.17377C13.4865 6.19217 13.5345 6.22523 13.5709 6.26944L13.7633 6.11121L13.5709 6.26945C13.6073 6.31368 13.6309 6.36703 13.6393 6.42364L13.6397 6.42663L13.6397 6.42663L13.64 6.42894C14.0113 9.2187 13.1551 11.2553 12.1335 12.595C12.1264 12.6038 12.12 12.6126 12.114 12.6211C11.682 13.1877 11.1685 13.6874 10.5897 14.1025L10.5894 14.1027C10.4015 14.2378 10.2036 14.3562 9.99634 14.4567C9.9157 14.4945 9.85248 14.5184 9.80708 14.5325C9.77664 14.5419 9.75914 14.5453 9.75236 14.5466C9.74547 14.5453 9.72766 14.5419 9.69676 14.5323C9.65092 14.5181 9.58718 14.4938 9.50624 14.4555L9.50567 14.4552C9.34683 14.3805 9.14347 14.2633 8.91338 14.1008C8.33782 13.6873 7.82674 13.1903 7.39683 12.627L7.97671 5.60098Z" fill="white" stroke="white" stroke-width="0.5"/></svg>
