<svg width="21" height="20" viewBox="0 0 21 20" fill="none" xmlns="http://www.w3.org/2000/svg">
<rect x="0.03125" width="20" height="20" rx="4" fill="#0B8750"/>
<path fill-rule="evenodd" clip-rule="evenodd" d="M10.0273 3.875C8.33597 3.875 6.96484 5.24613 6.96484 6.9375V8.6875C5.99835 8.6875 5.21484 9.471 5.21484 10.4375V14.375C5.21484 15.3415 5.99835 16.125 6.96484 16.125H13.0898C14.0563 16.125 14.8398 15.3415 14.8398 14.375V10.4375C14.8398 9.471 14.0563 8.6875 13.0898 8.6875V6.9375C13.0898 5.24613 11.7187 3.875 10.0273 3.875ZM12.2148 8.6875V6.9375C12.2148 5.72938 11.2355 4.75 10.0273 4.75C8.81922 4.75 7.83984 5.72938 7.83984 6.9375V8.6875H12.2148Z" fill="white"/>
</svg>
