<svg xmlns="http://www.w3.org/2000/svg" width="20" height="20" fill="none"><rect width="20" height="20" fill="#BFAC86" rx="4"/><path fill="#fff" fill-rule="evenodd" d="M12.663 4.033c-.43.067-.879.25-1.228.5-.203.145-2.51 2.398-2.59 2.529-.063.103-.056.176.027.258.065.065.086.071.238.071.358 0 .803.08 1.164.21.3.107.21.167 1.188-.805.478-.476.915-.893.972-.929a1.277 1.277 0 0 1 1.517.142c.44.402.524 1.107.192 1.605-.11.166-2.874 2.924-3.02 3.014a1.264 1.264 0 0 1-1.437-.077c-.436-.343-.713-.402-1.072-.23a.787.787 0 0 0-.39.401c-.058.129-.064.164-.054.354.013.264.086.42.285.61.38.366.883.627 1.422.74.221.045.304.05.633.038.676-.025 1.08-.149 1.588-.486.261-.174 3.265-3.178 3.429-3.43.59-.905.662-1.986.195-2.925A2.928 2.928 0 0 0 13.54 4.03a3.014 3.014 0 0 0-.877.002ZM8.57 8.064c-.39.074-.763.228-1.134.468-.187.12-3.138 3.059-3.331 3.316a3.43 3.43 0 0 0-.46.918 2.9 2.9 0 0 0 .14 2.015 3.045 3.045 0 0 0 1.46 1.461 2.924 2.924 0 0 0 2.422-.01c.413-.185.554-.307 1.863-1.619 1.218-1.218 1.231-1.233 1.216-1.314-.03-.15-.095-.181-.422-.198a3.59 3.59 0 0 1-.984-.177 2.092 2.092 0 0 0-.32-.085c-.044 0-.283.223-.94.876-.527.525-.927.903-.997.944a1.24 1.24 0 0 1-.64.166 1.167 1.167 0 0 1-.882-.359 1.165 1.165 0 0 1-.36-.882c0-.263.061-.474.202-.688.125-.19 2.905-2.958 3.055-3.042.06-.034.185-.087.277-.117.142-.046.204-.053.415-.044.362.016.471.064.897.391.18.14.295.177.537.177a.797.797 0 0 0 .756-.513.872.872 0 0 0-.032-.654c-.18-.367-.87-.821-1.5-.986-.305-.08-.928-.102-1.238-.044Z" clip-rule="evenodd"/></svg>
