<svg width="28" height="16" viewBox="0 0 28 16" fill="none" xmlns="http://www.w3.org/2000/svg">
<circle cx="8" cy="8" r="8" fill="black"/>
<path d="M4.21321 4.10187C4.27685 4.03663 4.36313 4 4.45309 4H12.7531C12.9043 4 12.9799 4.18755 12.873 4.29718L11.2329 5.97815C11.1693 6.04337 11.083 6.08 10.9931 6.08H2.69308C2.5419 6.08 2.4662 5.89245 2.57315 5.78284L4.21321 4.10187Z" fill="url(#paint0_linear_40001158_171631)"/>
<path d="M4.21321 10.3418C4.27685 10.2766 4.36313 10.24 4.45309 10.24H12.7531C12.9043 10.24 12.9799 10.4275 12.873 10.5372L11.2329 12.2181C11.1693 12.2834 11.083 12.32 10.9931 12.32H2.69308C2.5419 12.32 2.4662 12.1325 2.57315 12.0228L4.21321 10.3418Z" fill="url(#paint1_linear_40001158_171631)"/>
<path d="M10.9931 7.12C11.083 7.12 11.1693 7.15663 11.2329 7.22185L12.873 8.90282C12.9799 9.01245 12.9043 9.2 12.7531 9.2H4.45309C4.36313 9.2 4.27685 9.16337 4.21321 9.09813L2.57315 7.41716C2.4662 7.30755 2.5419 7.12 2.69308 7.12H10.9931Z" fill="url(#paint2_linear_40001158_171631)"/>
<circle cx="20" cy="8" r="8" fill="#FFC331"/>
<path d="M24.0231 10.5259L19.9996 14.5493L15.9762 10.5259L17.4557 9.04736L19.9996 11.5913L22.5446 9.04736L24.0231 10.5259ZM21.5006 8.00244L20.0006 9.50244L18.5006 8.00244L18.7594 7.73291L18.8942 7.60889L20.0006 6.50244L21.5006 8.00244ZM16.4098 8.00342L14.9323 9.48096L13.4547 8.00342L14.9323 6.52588L16.4098 8.00342ZM26.5455 8.00342L25.068 9.48096L23.5905 8.00342L25.068 6.52588L26.5455 8.00342ZM24.0231 5.47803L22.5446 6.95752L19.9996 4.4126L17.4557 6.95752L15.9762 5.47803L19.9996 1.45459L24.0231 5.47803Z" fill="white"/>
<defs>
<linearGradient id="paint0_linear_40001158_171631" x1="9.55409" y1="1.7068" x2="3.57682" y2="12.8681" gradientUnits="userSpaceOnUse">
<stop stop-color="#00FFA3"/>
<stop offset="1" stop-color="#DC1FFF"/>
</linearGradient>
<linearGradient id="paint1_linear_40001158_171631" x1="9.55409" y1="1.7068" x2="3.57682" y2="12.8681" gradientUnits="userSpaceOnUse">
<stop stop-color="#00FFA3"/>
<stop offset="1" stop-color="#DC1FFF"/>
</linearGradient>
<linearGradient id="paint2_linear_40001158_171631" x1="9.55409" y1="1.7068" x2="3.57682" y2="12.8681" gradientUnits="userSpaceOnUse">
<stop stop-color="#00FFA3"/>
<stop offset="1" stop-color="#DC1FFF"/>
</linearGradient>
</defs>
</svg>
