<svg xmlns="http://www.w3.org/2000/svg" width="20" height="20" fill="none"><rect width="20" height="20" fill="#BA85D7" rx="4"/><path fill="#fff" d="M14.982 9.278h-.301V8.224c0-.726-.589-1.315-1.314-1.315h-3.095V5.828c.452-.178.767-.616.767-1.123 0-.671-.534-1.205-1.205-1.205s-1.205.534-1.205 1.205c0 .507.315.945.767 1.123v1.081H6.3c-.725 0-1.314.59-1.314 1.315v1.054h-.301a.666.666 0 0 0-.658.657v1.548c0 .356.302.657.658.657h.3v3.71c0 .576.685.863 1.096.466l1.74-1.698h5.53c.727 0 1.315-.588 1.315-1.314v-1.15h.302a.666.666 0 0 0 .657-.658V9.95a.65.65 0 0 0-.644-.67Zm-7.585.192a.8.8 0 0 1 .808-.808.8.8 0 0 1 .807.808.8.8 0 0 1-.807.808c-.439.013-.808-.356-.808-.808Zm2.437 3.519c-.89 0-1.63-.726-1.63-1.63a.24.24 0 0 1 .233-.232h2.793a.24.24 0 0 1 .233.232c0 .904-.74 1.63-1.63 1.63Zm1.63-2.698a.8.8 0 0 1-.809-.807.8.8 0 0 1 .808-.808.8.8 0 0 1 .808.808c0 .438-.37.807-.808.807Z"/></svg>
