<svg width="28" height="16" viewBox="0 0 28 16" fill="none" xmlns="http://www.w3.org/2000/svg">
<g clip-path="url(#clip0_40001158_171655)">
<path d="M8 16C12.4183 16 16 12.4183 16 8C16 3.58172 12.4183 0 8 0C3.58172 0 0 3.58172 0 8C0 12.4183 3.58172 16 8 16Z" fill="#0088CC"/>
<path fill-rule="evenodd" clip-rule="evenodd" d="M5.77451 5.28564H10.2615C10.4202 5.28564 10.5789 5.30896 10.7446 5.38624C10.9433 5.47884 11.0487 5.62487 11.1225 5.73284C11.1283 5.74124 11.1337 5.74993 11.1386 5.75879C11.2254 5.9133 11.2702 6.0801 11.2702 6.25959C11.2702 6.4301 11.2296 6.61587 11.1386 6.77776C11.1378 6.7793 11.1369 6.78084 11.136 6.78239L8.30119 11.6519C8.23868 11.7593 8.12359 11.8252 7.99937 11.8248C7.87508 11.8243 7.76051 11.7576 7.69874 11.6498L4.91601 6.79062C4.91521 6.78936 4.91441 6.78799 4.91361 6.78667C4.84993 6.68176 4.75144 6.51947 4.73421 6.30999C4.71838 6.11742 4.76167 5.92444 4.85844 5.75713C4.95521 5.58979 5.1009 5.45602 5.27612 5.37413C5.46401 5.28633 5.65441 5.28564 5.77451 5.28564ZM7.65274 5.9813H5.77451C5.6511 5.9813 5.60372 5.9889 5.57061 6.00439C5.52481 6.02576 5.48635 6.0609 5.46064 6.10542C5.43493 6.14987 5.4233 6.20142 5.42753 6.25296C5.42995 6.28262 5.44201 6.31639 5.51312 6.4337C5.51461 6.43616 5.51607 6.43867 5.5175 6.44113L7.65274 10.1696V5.9813ZM8.34839 5.9813V10.1881L10.5331 6.43519C10.5578 6.39044 10.5745 6.3257 10.5745 6.25959C10.5745 6.20593 10.5634 6.15936 10.5385 6.1113C10.5125 6.07387 10.4966 6.05399 10.4833 6.04039C10.4719 6.02879 10.4631 6.02256 10.4507 6.01679C10.399 5.99267 10.3462 5.9813 10.2615 5.9813H8.34839Z" fill="white"/>
</g>
<circle cx="20" cy="8" r="8" fill="#EE3932"/>
<path fill-rule="evenodd" clip-rule="evenodd" d="M21.0604 8.723C21.0012 8.72744 20.6952 8.7457 20.0127 8.7457C19.4699 8.7457 19.0845 8.72942 18.9492 8.723C16.8514 8.63072 15.2855 8.26553 15.2855 7.82829C15.2855 7.39105 16.8514 7.02636 18.9492 6.93259V8.35929C19.0864 8.36916 19.4793 8.39236 20.0221 8.39236C20.6735 8.39236 20.9997 8.36521 21.0584 8.35979V6.93358C23.1519 7.02685 24.7143 7.39204 24.7143 7.82829C24.7143 8.26454 23.1524 8.62973 21.0584 8.72251L21.0604 8.723ZM21.0604 6.78602V5.50935H23.9819V3.5625H16.0277V5.50935H18.9487V6.78553C16.5745 6.89459 14.7891 7.3649 14.7891 7.92847C14.7891 8.49204 16.5745 8.96185 18.9487 9.07141V13.1625H21.0599V9.06993C23.4287 8.96087 25.2112 8.49106 25.2112 7.92798C25.2112 7.3649 23.4302 6.89509 21.0599 6.78553L21.0604 6.78602Z" fill="white"/>
<defs>
<clipPath id="clip0_40001158_171655">
<rect width="16" height="16" fill="white"/>
</clipPath>
</defs>
</svg>
