<svg width="28" height="16" viewBox="0 0 28 16" fill="none" xmlns="http://www.w3.org/2000/svg">
<g clip-path="url(#clip0_40003125_87010)">
<path d="M8 16C12.4183 16 16 12.4183 16 8C16 3.58172 12.4183 0 8 0C3.58172 0 0 3.58172 0 8C0 12.4183 3.58172 16 8 16Z" fill="#EE3932"/>
<path fill-rule="evenodd" clip-rule="evenodd" d="M9.06042 8.723C9.0012 8.72744 8.69523 8.7457 8.01273 8.7457C7.46988 8.7457 7.08446 8.72942 6.94924 8.723C4.85139 8.63072 3.28552 8.26553 3.28552 7.82829C3.28552 7.39105 4.85139 7.02636 6.94924 6.93259V8.35929C7.08643 8.36916 7.47925 8.39236 8.0221 8.39236C8.67352 8.39236 8.99972 8.36521 9.05844 8.35979V6.93358C11.1519 7.02685 12.7143 7.39204 12.7143 7.82829C12.7143 8.26454 11.1524 8.62973 9.05844 8.72251L9.06042 8.723ZM9.06042 6.78602V5.50935H11.9819V3.5625H4.02774V5.50935H6.94875V6.78553C4.57453 6.89459 2.78906 7.3649 2.78906 7.92847C2.78906 8.49204 4.57453 8.96185 6.94875 9.07141V13.1625H9.05992V9.06993C11.4287 8.96087 13.2112 8.49106 13.2112 7.92798C13.2112 7.3649 11.4307 6.89558 9.06042 6.78602Z" fill="white"/>
<path d="M20 16C24.4183 16 28 12.4183 28 8C28 3.58172 24.4183 0 20 0C15.5817 0 12 3.58172 12 8C12 12.4183 15.5817 16 20 16Z" fill="#EB322A"/>
<path d="M15.5502 3.0679L23.682 4.35892C23.7512 4.36995 23.8153 4.4029 23.8636 4.45364L25.8314 6.51907C25.8471 6.53555 25.8599 6.55407 25.8715 6.57278C25.8742 6.57726 25.8767 6.58183 25.8793 6.58646C25.8863 6.59923 25.8927 6.61207 25.8978 6.62552C25.9005 6.63252 25.9025 6.63975 25.9047 6.647C25.9151 6.68141 25.9197 6.71675 25.9183 6.75247C25.9182 6.7574 25.9178 6.76224 25.9174 6.76712C25.9162 6.7806 25.9144 6.79387 25.9115 6.80716C25.9099 6.8147 25.9088 6.82227 25.9066 6.82962C25.9039 6.83902 25.8995 6.84779 25.8959 6.85696C25.884 6.88689 25.869 6.91503 25.849 6.93997L25.848 6.94192L19.9427 14.2026C19.871 14.2905 19.758 14.3342 19.6459 14.3169C19.5336 14.2995 19.4386 14.2233 19.3969 14.1177L15.2025 3.50149C15.1604 3.39473 15.1786 3.27371 15.2504 3.18411C15.3222 3.09449 15.4367 3.04991 15.5502 3.0679ZM20.848 7.73294L20.184 12.8911L24.8363 7.17044L20.848 7.73294ZM19.5531 12.7729L20.226 7.55716L16.2552 4.42728L19.5531 12.7729ZM20.5726 7.01614L22.972 4.89407L16.598 3.88138L20.5726 7.01614ZM21.5756 6.98489L24.9388 6.50931L23.6459 5.15286L21.5756 6.98489Z" fill="white"/>
</g>
<defs>
<clipPath id="clip0_40003125_87010">
<rect width="28" height="16" fill="white"/>
</clipPath>
</defs>
</svg>
