<svg xmlns="http://www.w3.org/2000/svg" width="20" height="20" fill="none"><rect width="20" height="20" fill="#EEBA00" rx="4"/><path fill="#fff" d="M16.783 12.699h-2.725a.794.794 0 0 0 0 1.587h2.725c.12 0 .217-.098.217-.217v-1.154a.217.217 0 0 0-.217-.216Zm-2.767 1.18a.387.387 0 1 1 0-.774.387.387 0 0 1 0 .775ZM8.61 10.074h7.382c.1 0 .166-.105.123-.196l-.656-1.359a.918.918 0 0 0-1.113-.473l-5.76 1.882c-.08.027-.061.146.024.146Z"/><path fill="#fff" d="M14.058 14.674a1.183 1.183 0 0 1 0-2.363h2.726c.023 0 .045.004.067.007v-1.185a.716.716 0 0 0-.716-.715H7.698c-.17-.018-.309-.22-.309-.458 0-.25.153-.462.335-.462h1.49a.194.194 0 0 0 0-.388h-1.49c-.357 0-.653.305-.712.705L7 9.795v6.702c0 .396.32.716.716.716h8.42c.395 0 .715-.32.715-.715v-1.831c-.023.003-.044.007-.067.007h-2.726ZM9.286 3.792a.477.477 0 0 1-.477-.477v-.838a.477.477 0 0 1 .954 0v.838a.477.477 0 0 1-.477.477ZM3.792 9.286a.477.477 0 0 1-.477.477h-.838a.477.477 0 0 1 0-.954h.838c.263 0 .477.214.477.477ZM5.4 5.4a.477.477 0 0 1-.674 0l-.592-.591a.477.477 0 0 1 .675-.675l.592.592a.477.477 0 0 1 0 .675ZM13.171 5.4a.477.477 0 0 1 0-.674l.592-.592a.477.477 0 0 1 .675.675l-.592.592a.477.477 0 0 1-.675 0ZM4.134 14.438a.477.477 0 0 1 0-.674l.592-.593a.477.477 0 0 1 .675.675l-.592.592a.477.477 0 0 1-.675 0Z"/><path fill="#fff" fill-rule="evenodd" d="M13.48 7.164a4.706 4.706 0 0 0-4.194-2.579 4.706 4.706 0 0 0-4.7 4.7c0 1.315.541 2.505 1.414 3.36v-1.389a3.809 3.809 0 0 1-.546-1.97 3.837 3.837 0 0 1 3.832-3.832c1.401 0 2.63.756 3.298 1.882l.896-.172Z" clip-rule="evenodd"/></svg>
