<svg xmlns="http://www.w3.org/2000/svg" width="20" height="20" fill="none"><rect width="20" height="20" fill="#85BBC9" rx="4"/><path fill="#fff" fill-rule="evenodd" d="m9.522 3.009-.341.04c-1.714.196-3.436 1.149-4.538 2.513-.13.161-.21.24-.222.217a12.14 12.14 0 0 1-.162-.599l-.144-.565-.372.096a3.25 3.25 0 0 0-.395.116c-.033.03.638 2.602.678 2.602.04 0 2.564-.655 2.578-.669a7.952 7.952 0 0 0-.196-.775c-.009-.009-1.04.247-1.258.312-.089.027.185-.306.556-.675A5.824 5.824 0 0 1 7.39 4.428a6.128 6.128 0 0 1 7.096 1.293c1.031 1.08 1.608 2.426 1.71 3.988l.018.295h.814v-.09c0-.242-.065-.865-.124-1.186a7.022 7.022 0 0 0-1.94-3.696c-1.066-1.068-2.397-1.732-3.951-1.97-.273-.042-1.308-.08-1.49-.053Zm-.109 2.9C7.69 6.19 6.361 7.45 5.974 9.178c-.05.224-.06.352-.06.827 0 .49.007.597.063.845.3 1.343 1.187 2.431 2.417 2.966.52.225 1.023.328 1.62.329a3.893 3.893 0 0 0 1.657-.332 4.195 4.195 0 0 0 2.27-2.452c.168-.492.201-.708.202-1.343 0-.503-.007-.61-.063-.86a4.05 4.05 0 0 0-1.138-2.072 3.988 3.988 0 0 0-2.091-1.137c-.35-.075-1.089-.095-1.438-.038Zm1.031 1.73.008.263.144.037c.21.054.354.136.527.302.327.311.451.744.34 1.175-.024.09-.067.204-.097.255l-.054.091.135.148c.375.41.455.956.212 1.447a1.29 1.29 0 0 1-1.048.72l-.173.016v.512h-.82v-.52H8.415v-.822h.492V8.716h-.492v-.821H9.618v-.52h.819l.007.263Zm-.716 1.46v.384h.345c.298 0 .357-.007.434-.055.248-.153.223-.528-.043-.664-.074-.037-.163-.047-.415-.047h-.321V9.1Zm-6.7 1.021c.002.211.054.77.099 1.034.383 2.292 1.897 4.28 3.974 5.22a6.753 6.753 0 0 0 2.927.626c.835-.001 1.408-.091 2.16-.34a6.997 6.997 0 0 0 3.23-2.22 2.02 2.02 0 0 1 .207-.237c.005.005.077.272.16.594.083.322.155.589.159.593.007.007.762-.185.78-.199.01-.008-.652-2.591-.67-2.61-.01-.011-2.586.651-2.605.67-.013.013.178.75.2.771.008.008.264-.05.569-.13l.643-.165.088-.02-.125.163c-.069.09-.232.274-.362.411-1.193 1.256-2.968 1.98-4.666 1.904a6.01 6.01 0 0 1-2.488-.635 5.647 5.647 0 0 1-1.564-1.091c-1.104-1.065-1.753-2.46-1.871-4.024l-.033-.431h-.812v.116Zm6.718.203c-.01.01-.018.226-.018.48v.46h.431c.394 0 .443-.005.554-.061a.46.46 0 0 0-.11-.867c-.151-.033-.827-.042-.857-.012Z" clip-rule="evenodd"/></svg>
