<svg width="28" height="28" viewBox="0 0 28 28" fill="none" xmlns="http://www.w3.org/2000/svg">
<path d="M16.7515 6.77286C16.7515 6.45741 16.9205 6.17361 17.1784 6.05587C17.4362 5.93813 17.7313 6.01008 17.9238 6.23765L19.8103 8.46776C20.0632 8.76682 20.0632 9.23913 19.8103 9.53819L17.9238 11.7683C17.7313 11.9959 17.4362 12.0678 17.1784 11.9501C16.9205 11.8323 16.7515 11.5485 16.7515 11.2331L16.7515 9.77583L8.76367 9.77583C8.38757 9.77583 8.08268 9.42982 8.08268 9.00299C8.08268 8.57616 8.38757 8.23015 8.76367 8.23015L16.7515 8.23015L16.7515 6.77286Z" fill="#00C26F"/>
<path d="M11.2485 21.2271C11.2485 21.5426 11.0795 21.8264 10.8216 21.9441C10.5638 22.0619 10.2687 21.9899 10.0762 21.7623L8.18973 19.5322C7.93675 19.2332 7.93675 18.7609 8.18973 18.4618L10.0762 16.2317C10.2687 16.0041 10.5638 15.9322 10.8216 16.0499C11.0795 16.1677 11.2485 16.4515 11.2485 16.7669L11.2485 18.224L19.319 18.224C19.6951 18.224 20 18.57 20 18.9969C20 19.4237 19.6951 19.7697 19.319 19.7697L11.2485 19.7697L11.2485 21.2271Z" fill="#00C26F"/>
</svg>
