<svg xmlns="http://www.w3.org/2000/svg" width="191" height="30" fill="none"><path fill="#AFDCD0" d="M.5 1.1h28v28H.5z"/><path fill="#77D3B9" d="M.5 10.3h9.4v9.4H.5z"/><path fill="#0AC18E" d="M9.9 10.3h9.4v9.4H9.9z"/><path fill="#0AC18E" d="M19.2 1h9.4v9.4h-9.4zM.5 19.7h9.4v9.4H.5z"/><path fill="#77D3B9" d="M9.9 19.7h9.4v9.4H9.9z"/><path fill="#77D3B9" d="M19.2 10.3h9.4v9.4h-9.4z"/><path fill="#77D3B9" d="M9.9 1h9.4v9.4H9.9z"/><g fill="#fff"><path d="M42.4 24.7h-9.1V4.5H43c2.5 0 4.2.8 5.2 2.2.7.8 1 1.8 1 3 0 1.3-.3 2.3-1 3-.3.4-.8.8-1.5 1.2 1 .3 1.8 1 2.3 1.7.6.8.8 1.8.8 3a5.9 5.9 0 0 1-4.6 5.8c-.9.2-1.8.3-2.9.3Zm0-8.9h-5v5.4h4.9c.8 0 1.5-.1 2-.4 1-.4 1.4-1.3 1.4-2.5 0-1-.5-1.8-1.3-2.2-.5-.2-1.2-.3-2-.3Zm2-3.8c.6-.4.8-1 .8-1.8 0-1-.3-1.6-1-1.9-.7-.2-1.5-.3-2.5-.3h-4.4v4.5h5c.8 0 1.6-.2 2.1-.5ZM57.2 9.8v14.9h-4v-15h4Zm0-5.4V8h-4V4.4h4ZM67.8 21.9v3h-1.9c-1.8 0-3-.3-3.8-1-.4-.4-.6-1.1-.6-2v-9.2h-2V9.9h2V5.7h3.8V10h2.5v2.8h-2.5v7.9c0 .6.1 1 .3 1.1.1.2.6.2 1.4.2h.8ZM83.2 15.1h-4l-.6-1.5c-.4-.6-1.1-.9-2-.9-1.3 0-2.2.7-2.7 2-.3.7-.4 1.6-.4 2.7s.1 2 .4 2.7c.4 1.2 1.3 1.8 2.6 1.8 1 0 1.6-.2 2-.7.3-.5.6-1.1.6-2h4c0 1.3-.5 2.4-1.3 3.4-1.2 1.7-3 2.6-5.4 2.6-2.4 0-4.2-.7-5.3-2.1a8.6 8.6 0 0 1-1.7-5.6c0-2.5.6-4.5 1.9-6 1.2-1.4 3-2 5.2-2 1.8 0 3.4.3 4.5 1.2 1.2.8 2 2.3 2.2 4.4ZM98.3 11.7a8.7 8.7 0 0 1 1.9 5.5c0 2.2-.7 4.1-2 5.7-1.2 1.5-3 2.3-5.7 2.3-2.5 0-4.4-.8-5.7-2.3a8.7 8.7 0 0 1-1.9-5.7c0-2.1.7-4 2-5.5 1.2-1.6 3-2.4 5.6-2.4 2.6 0 4.5.8 5.8 2.4Zm-5.8.9c-1.1 0-2 .4-2.6 1.2-.6.8-1 2-1 3.4 0 1.5.4 2.7 1 3.5.6.8 1.5 1.2 2.6 1.2a3 3 0 0 0 2.7-1.2c.6-.8.9-2 .9-3.5 0-1.4-.3-2.6-1-3.4a3 3 0 0 0-2.6-1.2ZM107 9.8v14.9h-4v-15h4Zm0-5.4V8h-4V4.4h4ZM117.8 12.7c-1.3 0-2.3.5-2.7 1.6-.3.6-.4 1.4-.4 2.3v8h-4V9.9h3.8V12c.5-.8 1-1.3 1.5-1.7a5 5 0 0 1 3-.9c1.6 0 2.8.4 3.8 1.2 1 .8 1.5 2.2 1.5 4v10h-4v-9c0-.8-.1-1.4-.3-1.8-.4-.8-1.2-1.1-2.2-1.1ZM127.8 20.6h4.1v4h-4v-4ZM148.6 15.1h-4l-.6-1.5c-.4-.6-1.1-.9-2-.9-1.3 0-2.2.7-2.7 2-.3.7-.4 1.6-.4 2.7s.1 2 .4 2.7c.4 1.2 1.3 1.8 2.6 1.8 1 0 1.6-.2 2-.7.3-.5.6-1.1.6-2h4c0 1.3-.5 2.4-1.3 3.4-1.2 1.7-3 2.6-5.4 2.6-2.4 0-4.2-.7-5.3-2.1a8.6 8.6 0 0 1-1.7-5.6c0-2.5.6-4.5 1.9-6 1.2-1.4 3-2 5.2-2 1.8 0 3.4.3 4.5 1.2 1.2.8 2 2.3 2.2 4.4ZM163.7 11.7a8.7 8.7 0 0 1 1.9 5.5c0 2.2-.7 4.1-2 5.7-1.2 1.5-3 2.3-5.6 2.3-2.6 0-4.5-.8-5.8-2.3a8.7 8.7 0 0 1-1.9-5.7c0-2.1.7-4 2-5.5 1.2-1.6 3-2.4 5.7-2.4 2.5 0 4.4.8 5.7 2.4Zm-5.8.9c-1.1 0-2 .4-2.6 1.2-.6.8-1 2-1 3.4 0 1.5.4 2.7 1 3.5.6.8 1.5 1.2 2.6 1.2a3 3 0 0 0 2.7-1.2c.6-.8.9-2 .9-3.5 0-1.4-.3-2.6-1-3.4a3 3 0 0 0-2.6-1.2ZM176.7 13.9c-.3-.7-1-1.1-1.9-1.1-1.1 0-1.8.4-2.2 1-.2.5-.3 1-.3 1.9v9h-4V9.8h3.8V12c.5-.8 1-1.4 1.4-1.7.7-.6 1.7-.9 2.9-.9 1.1 0 2 .3 2.8.8.5.5 1 1 1.2 1.8a5 5 0 0 1 2-2 5.8 5.8 0 0 1 4.6-.2 4.3 4.3 0 0 1 2.5 3.3l.2 2.2v9.4h-4v-9.5c0-.6-.1-1-.3-1.4-.4-.7-1-1-2-1s-1.7.4-2.2 1.3c-.2.5-.3 1-.3 1.7v8.9H177v-8.9a5 5 0 0 0-.3-2Z"/></g></svg>