<svg xmlns="http://www.w3.org/2000/svg" width="164" height="33" fill="none"><g clip-path="url(#a)"><path fill="#fff" d="M89.8 25V8h5.7c1.5 0 2.8.4 3.7 1.2 1 .8 1.4 2 1.4 3.3 0 1.4-.4 2.4-1.3 3.2a5 5 0 0 1-3.3 1.4L103 25h-2.4l-6.9-8h-2v8h-1.8Zm1.9-9.6h3.5c2.3 0 3.5-1 3.5-2.9s-1.2-2.8-3.5-2.8h-3.5v5.7ZM109.6 25.2c-1.7 0-3.2-.6-4.4-1.8a6.2 6.2 0 0 1-1.7-4.4c0-1.7.6-3.2 1.7-4.4a5.9 5.9 0 0 1 4.4-1.8c1.8 0 3.2.5 4.3 1.7V13h1.7v12h-1.7v-1.5a5.5 5.5 0 0 1-4.3 1.7Zm.1-1.5a5 5 0 0 0 2.5-.6c.7-.4 1.3-1 1.7-1.6v-5c-.4-.7-1-1.2-1.7-1.6a5 5 0 0 0-2.5-.6c-1.3 0-2.4.5-3.2 1.4-.8.9-1.2 2-1.2 3.3 0 1.3.4 2.4 1.2 3.3.8 1 2 1.4 3.2 1.4ZM125.7 25.2c-1.8 0-3.2-.5-4.2-1.7V25h-1.7V7.5h1.7v7c1-1.2 2.4-1.7 4.2-1.7a6 6 0 0 1 6.1 6.2c0 1.7-.6 3.2-1.7 4.4a5.8 5.8 0 0 1-4.4 1.8Zm0-1.5c1.2 0 2.3-.5 3.1-1.4.9-.9 1.3-2 1.3-3.3 0-1.3-.4-2.4-1.3-3.3-.8-1-1.9-1.4-3.2-1.4a5 5 0 0 0-2.5.6c-.7.4-1.2 1-1.6 1.6v5c.4.7 1 1.2 1.6 1.6a5 5 0 0 0 2.5.6ZM141 25.2c-1.9 0-3.3-.5-4.3-1.7V25H135V7.5h1.7v7c1-1.2 2.4-1.7 4.2-1.7A6 6 0 0 1 147 19c0 1.7-.5 3.2-1.7 4.4a5.8 5.8 0 0 1-4.4 1.8Zm-.2-1.5c1.3 0 2.4-.5 3.2-1.4.9-.9 1.3-2 1.3-3.3 0-1.3-.4-2.4-1.3-3.3-.8-1-1.9-1.4-3.2-1.4a5 5 0 0 0-2.4.6c-.8.4-1.3 1-1.7 1.6v5c.4.7 1 1.2 1.7 1.6a5 5 0 0 0 2.4.6ZM151 9.9c-.3 0-.6-.1-.9-.4-.2-.2-.3-.5-.3-.9 0-.3 0-.6.3-.9.3-.2.6-.4 1-.4.3 0 .6.2.9.4.2.3.3.6.3 1 0 .3 0 .6-.3.8-.3.3-.6.4-1 .4Zm-.8 15.1V13h1.7v12h-1.7ZM161 25.1c-1 0-2-.3-2.6-.9-.7-.6-1-1.4-1-2.5v-7.1h-3V13h3V9.7h1.7V13h3.8v1.6H159v7c0 .6.2 1.2.5 1.5.4.3.9.5 1.5.5s1.2-.1 1.8-.4l.5 1.4c-.7.3-1.5.5-2.5.5Z"/><g fill="#fff"><path d="M10 23a8.7 8.7 0 0 0 6.3 2.6 9.2 9.2 0 0 0 8-4.6L21 19a5 5 0 0 1-4.7 2.8 5 5 0 0 1-5-5.1 5 5 0 0 1 1.4-3.6c1-1 2.2-1.5 3.6-1.5 2 0 3.6 1 4.7 2.8l3.4-1.8a9.2 9.2 0 0 0-8-4.7c-2.6 0-4.7.9-6.4 2.6a8.4 8.4 0 0 0-2.6 6.2c0 2.4.8 4.5 2.6 6.2ZM36.3 25.6c2.4 0 4.5-.8 6.3-2.6a8.4 8.4 0 0 0 2.6-6.2c0-2.4-.9-4.5-2.6-6.2A8.6 8.6 0 0 0 36.3 8c-2.5 0-4.6.9-6.3 2.6a8.4 8.4 0 0 0-2.6 6.2c0 2.4.8 4.5 2.6 6.2a8.7 8.7 0 0 0 6.3 2.6ZM53.4 8.3h-3.8v17h3.8v-17ZM71 25.3h3.4v-17h-3.9v10.5L62.1 8.3h-3.3v17h3.9V14.8L71 25.3Z"/></g><path fill="#1168F1" fill-rule="evenodd" d="M8.4 0a8 8 0 0 0-8 8v17a8 8 0 0 0 8 8h66a8 8 0 0 0 8-8V8a8 8 0 0 0-8-8h-66ZM10 23a8.7 8.7 0 0 0 6.3 2.6 9.2 9.2 0 0 0 8-4.6L21 19a5 5 0 0 1-4.7 2.8 5 5 0 0 1-5-5.1 5 5 0 0 1 1.4-3.6c1-1 2.2-1.5 3.6-1.5 2 0 3.6 1 4.7 2.8l3.4-1.8a9.2 9.2 0 0 0-8-4.7c-2.6 0-4.7.9-6.4 2.6a8.4 8.4 0 0 0-2.6 6.2c0 2.4.8 4.5 2.6 6.2Zm26.3 2.6c2.4 0 4.5-.8 6.3-2.6a8.4 8.4 0 0 0 2.6-6.2c0-2.4-.9-4.5-2.6-6.2A8.6 8.6 0 0 0 36.3 8c-2.5 0-4.6.9-6.3 2.6a8.4 8.4 0 0 0-2.6 6.2c0 2.4.8 4.5 2.6 6.2a8.7 8.7 0 0 0 6.3 2.6ZM53.4 8.3h-3.8v17h3.8v-17Zm17.7 17h3.3v-17h-3.9v10.5L62.1 8.3h-3.3v17h3.9V14.8L71 25.3Z" clip-rule="evenodd"/><path fill="#1168F1" d="M32.7 20.4c1 1 2.2 1.5 3.6 1.5s2.6-.5 3.5-1.5a5 5 0 0 0 1.5-3.6 5 5 0 0 0-1.5-3.6c-1-1-2.1-1.5-3.5-1.5s-2.6.5-3.6 1.5a5 5 0 0 0-1.5 3.6 5 5 0 0 0 1.5 3.6Z"/></g><defs><clipPath id="a"><path fill="#fff" d="M.4 0h163v33H.4z"/></clipPath></defs></svg>