<svg xmlns="http://www.w3.org/2000/svg" width="212" height="26" viewBox="0 0 212 26" fill="none">
  <g clip-path="url(#clip0_293_28236)">
    <path d="M20.3982 11.4473C21.824 13.4083 17.6483 17.2013 18.5862 15.6353H9.69144C8.72922 14.3373 8.06769 12.9193 7.74953 11.4473H20.3982Z" fill="white"/>
    <path d="M17.8199 22.7512C16.556 23.7905 15.1895 24.6898 13.743 25.4342L13.0349 25.8012L12.323 25.4352C5.63102 21.9732 1.63855 16.0092 1.63855 9.47526V1.80127H5.72025V9.47427C5.72025 9.96426 5.75129 10.4523 5.81628 10.9372C6.33038 14.9072 8.92993 18.5702 13.0194 21.0372C13.0235 21.0409 13.0281 21.0439 13.033 21.0462L13.0437 21.0392L13.0611 21.0282C14.5394 21.8807 16.1493 22.4629 17.8199 22.7512Z" fill="white"/>
    <path d="M24.3053 11.4473C24.1161 12.9637 23.7125 14.4434 23.1073 15.8393C21.9889 18.4313 20.1906 20.7903 17.8219 22.7533C16.1519 22.4647 14.5428 21.8815 13.0651 21.0293C13.5986 20.7043 14.1165 20.3523 14.6161 19.9743C14.6655 19.9413 14.7131 19.9043 14.7596 19.8663C17.5245 17.8137 19.5164 14.8391 20.3982 11.4463L24.3053 11.4473Z" fill="white"/>
    <path d="M24.4313 1.80225H5.72026V6.00825H24.4313V1.80225Z" fill="white"/>
    <path d="M24.4323 6.00952V9.47452C24.4323 9.61752 24.4275 9.76152 24.4226 9.90452H20.339C20.3438 9.76152 20.3458 9.61752 20.3458 9.47452V6.00952H24.4323Z" fill="white"/>
    <path d="M66.9245 13.0815C66.9245 14.5065 66.7693 15.6715 66.4569 16.5735C66.0361 17.8696 65.2071 18.9836 64.1018 19.7385C62.9823 20.465 61.6792 20.8339 60.3567 20.7985C58.0093 20.7985 56.21 19.9765 54.9558 18.3305C53.998 17.0534 53.4955 15.4754 53.5329 13.8615C53.5329 11.9435 54.0887 10.3325 55.1993 9.02651C56.4603 7.54351 58.2198 6.80151 60.4799 6.80151C61.9892 6.80151 63.2676 7.20151 64.3172 7.99951C65.066 8.56351 65.7052 9.39951 66.2358 10.5065L63.095 11.8485C62.8855 11.3215 62.5654 10.8485 62.156 10.4665C61.6407 10.0305 60.9912 9.79858 60.3247 9.81251C58.8794 9.81251 57.8706 10.5795 57.3022 12.1135C57.0897 12.6719 56.9811 13.2666 56.9821 13.8665C56.9648 14.4417 57.058 15.0147 57.2565 15.5526C57.4549 16.0905 57.7546 16.5825 58.1384 17.0005C58.7087 17.6245 59.4701 17.9355 60.4207 17.9335C61.2646 17.9335 61.9339 17.6805 62.4286 17.1745C62.7904 16.7645 63.0145 16.2465 63.0688 15.6955H60.3344V13.0805L66.9245 13.0815ZM84.0147 14.8175C84.0224 15.4975 83.9565 16.1755 83.8178 16.8405C83.6028 17.7604 83.1234 18.5921 82.4423 19.2265C81.4054 20.2365 80.0193 20.7425 78.284 20.7425C76.5186 20.7425 75.1403 20.2275 74.148 19.1985C73.6124 18.6363 73.2395 17.9312 73.0713 17.1625C72.9157 16.3949 72.8464 15.6114 72.8647 14.8275V7.22151H76.1878V14.3465C76.1878 14.9205 76.1975 15.3465 76.2169 15.6275C76.2771 16.5225 76.6699 17.1465 77.3955 17.4995C77.7059 17.6495 78.0454 17.7245 78.3887 17.7195C79.1987 17.7195 79.8098 17.4285 80.222 16.8435C80.5285 16.4135 80.6808 15.5815 80.6808 14.3465V7.22251H84.005L84.0147 14.8175ZM101.516 20.3945H97.9669L97.1444 18.0975H92.5573L91.6775 20.3945H88.1681L93.0763 7.22251H96.705L101.516 20.3945ZM96.2462 15.4935L94.8717 11.2935L93.4759 15.4935H96.2462ZM117.446 20.3945H113.323L110.15 15.3345V20.3945H106.818V7.22251H111.987C113.497 7.22251 114.614 7.68851 115.337 8.62051C115.923 9.37173 116.235 10.3115 116.217 11.2755C116.217 12.4405 115.88 13.3695 115.206 14.0645C114.711 14.5425 114.095 14.8645 113.427 14.9915L117.446 20.3945ZM112.773 11.4645C112.778 11.2419 112.736 11.021 112.65 10.8167C112.565 10.6124 112.437 10.4295 112.277 10.2805C111.964 9.97751 111.459 9.82751 110.764 9.82851H110.144V13.1085H110.764C111.467 13.1085 111.969 12.9575 112.277 12.6555C112.436 12.5044 112.563 12.3201 112.648 12.1148C112.734 11.9094 112.777 11.6878 112.773 11.4645ZM133.878 13.8035C133.859 15.1665 133.44 16.4916 132.676 17.6042C131.912 18.7169 130.839 19.5649 129.599 20.0365C128.949 20.2715 128.265 20.3919 127.576 20.3925H122.669V7.22151H127.576C128.764 7.21671 129.925 7.57593 130.914 8.25351C131.906 8.91082 132.705 9.83602 133.223 10.9285C133.652 11.8221 133.876 12.8064 133.878 13.8035ZM130.433 13.8035C130.45 12.9471 130.189 12.1095 129.691 11.4235C129.036 10.5265 128.056 10.0785 126.746 10.0795H125.987V17.5395H126.746C128.056 17.5395 129.036 17.0905 129.691 16.1935C130.187 15.5035 130.447 14.6625 130.429 13.8035H130.433ZM150.434 20.3945H146.887L146.062 18.0975H141.475L140.596 20.3945H137.085L141.993 7.22251H145.623L150.434 20.3945ZM145.163 15.4935L143.79 11.2935L142.404 15.4935H145.163ZM166.364 20.3945H162.23L159.057 15.3345V20.3945H155.738V7.22251H160.905C162.414 7.22251 163.532 7.68851 164.255 8.62051C164.841 9.37251 165.153 10.3115 165.135 11.2755C165.135 12.4405 164.798 13.3695 164.124 14.0645C163.629 14.543 163.012 14.8649 162.346 14.9915L166.364 20.3945ZM161.694 11.4645C161.697 11.2419 161.654 11.0212 161.568 10.8171C161.482 10.6129 161.355 10.43 161.195 10.2805C160.881 9.97851 160.378 9.82851 159.684 9.82851H159.063V13.1085H159.678C160.379 13.1085 160.883 12.9585 161.189 12.6555C161.35 12.5045 161.477 12.3204 161.564 12.1152C161.65 11.91 161.694 11.6882 161.692 11.4645H161.694ZM174.917 20.3945H171.591V7.22251H174.915L174.917 20.3945ZM193.577 20.3945H190.028L189.203 18.0975H184.617L183.739 20.3945H180.226L185.134 7.22251H188.755L193.577 20.3945ZM188.308 15.4935L186.934 11.2935L185.538 15.4935H188.308ZM211.638 20.3945H208.315L202.202 12.3285V20.3945H198.879V7.22251H202.202L208.315 15.2805V7.22251H211.638V20.3945Z" fill="white"/>
  </g>
  <defs>
    <clipPath id="clip0_293_28236">
      <rect width="211" height="25" fill="white" transform="translate(0.819275 0.900635)"/>
    </clipPath>
  </defs>
</svg>