<svg xmlns="http://www.w3.org/2000/svg" width="188" height="25" fill="none"><g clip-path="url(#a)"><path fill="#64ACFF" d="m14.97 16.29-.57.18V1.7h2.1v17.09h-2.1L3.3 4.22l.58-.18v14.75h-2.1V1.7h2.1l11.1 14.59Zm14.04 2.76a8.54 8.54 0 0 1-4.26-1.08 8.21 8.21 0 0 1-3.02-3.07 9.19 9.19 0 0 1-1.14-4.66c0-1.78.38-3.34 1.14-4.65a7.96 7.96 0 0 1 3.02-3.08A8.54 8.54 0 0 1 29 1.44a8.4 8.4 0 0 1 4.23 1.07 7.93 7.93 0 0 1 3.05 3.08 9.2 9.2 0 0 1 1.13 4.65c0 1.79-.38 3.34-1.13 4.66A8.16 8.16 0 0 1 29 19.05Zm0-1.97c1.19 0 2.26-.26 3.2-.76.95-.53 1.7-1.3 2.26-2.32a7.7 7.7 0 0 0 .85-3.76c0-1.49-.29-2.73-.85-3.73a5.75 5.75 0 0 0-2.26-2.31 6.5 6.5 0 0 0-3.2-.8c-1.18 0-2.25.27-3.21.8-.95.52-1.7 1.3-2.26 2.31-.56 1-.84 2.24-.84 3.73 0 1.5.28 2.75.84 3.76a5.74 5.74 0 0 0 2.26 2.32c.96.5 2.03.76 3.2.76Zm16.3 1.7L39.15 1.7h2.26l5.28 14.83h-.63L51.14 1.7h2.26l5.07 14.83h-.63L63.13 1.7h2.2l-6.1 17.09h-2.2L51.98 3.43h.58L47.51 18.8h-2.2Z"/><path fill="#FEFEFE" d="M70.28 12.74v-1.97h5.36c1.06 0 1.9-.33 2.55-.97.67-.67 1-1.53 1-2.58a3.38 3.38 0 0 0-3.55-3.55H70.7V18.8h-2.1V1.7h7.04c.8 0 1.53.12 2.21.37a5.14 5.14 0 0 1 3.44 5.15c0 .88-.14 1.66-.44 2.34a5.14 5.14 0 0 1-3 2.81c-.7.25-1.45.38-2.2.37h-5.37Zm19.06 6.3a5.1 5.1 0 0 1-2.87-.86 6.53 6.53 0 0 1-2.07-2.42 7.88 7.88 0 0 1-.77-3.52c0-1.31.27-2.49.8-3.52a6.29 6.29 0 0 1 2.12-2.45c.9-.59 1.97-.9 3.05-.89 1.23 0 2.16.32 2.79.95A4.7 4.7 0 0 1 93.7 8.8c.25 1.03.37 2.18.37 3.44 0 .67-.07 1.4-.21 2.18a8.57 8.57 0 0 1-.74 2.24 4.57 4.57 0 0 1-1.42 1.73c-.6.44-1.4.66-2.36.66Zm.52-1.99a3.56 3.56 0 0 0 3.53-2.4c.28-.73.42-1.53.42-2.4 0-.97-.15-1.82-.45-2.53A3.5 3.5 0 0 0 92.05 8a3.61 3.61 0 0 0-2.19-.63c-1.31 0-2.33.46-3.04 1.4a5.43 5.43 0 0 0-1.08 3.46c0 .93.17 1.76.52 2.5a3.87 3.87 0 0 0 3.6 2.31Zm3.95-11.4h2.1v13.14h-1.92l-.05-.48-.08-1.1c-.03-.35-.05-.7-.05-1.05V5.64Zm5.03 0h2.26l4.7 12.61-1.83.53-5.13-13.15Zm12.22 0-7.33 18.4h-2.29l3.18-7.1 4.2-11.3h2.24Zm2.92 0h2.1v13.14h-2.1V5.64Zm6.62-.27c.7 0 1.33.1 1.9.32a3.74 3.74 0 0 1 2.3 2.39c.22.56.32 1.2.32 1.92v8.78h-2.1v-8.26c0-1.02-.23-1.78-.7-2.28-.48-.51-1.2-.77-2.14-.77-.72 0-1.38.19-2 .55-.62.38-1.14.9-1.52 1.53a5.22 5.22 0 0 0-.71 2.2l-.03-1.52c.1-.73.27-1.4.53-2 .26-.56.6-1.07 1.02-1.52.4-.42.89-.76 1.42-1a4.36 4.36 0 0 1 1.71-.34Zm8.84 0c.7 0 1.33.1 1.89.32a3.74 3.74 0 0 1 2.31 2.39c.21.56.32 1.2.32 1.92v8.78h-2.1v-8.26c0-1.02-.24-1.78-.72-2.28-.47-.51-1.18-.77-2.13-.77-.71 0-1.38.19-2 .55-.62.38-1.14.9-1.52 1.53a5.22 5.22 0 0 0-.7 2.2l-.03-1.52a5.66 5.66 0 0 1 1.55-3.52c.4-.42.88-.76 1.42-1a4.36 4.36 0 0 1 1.7-.34Zm17.91 9.17h1.98a5.14 5.14 0 0 1-2.84 3.92c-.77.39-1.67.58-2.68.58a6.4 6.4 0 0 1-3.32-.87 6.6 6.6 0 0 1-3.18-5.94c0-1.31.28-2.49.82-3.52.53-1 1.32-1.85 2.29-2.45.96-.6 2.05-.89 3.26-.89 1.27 0 2.35.29 3.23.87a4.9 4.9 0 0 1 1.97 2.5 9.4 9.4 0 0 1 .53 4.02h-10c.1.85.33 1.6.72 2.26.37.63.89 1.15 1.52 1.52.63.35 1.35.53 2.16.53a3.5 3.5 0 0 0 3.55-2.52Zm-3.6-7.2c-1.08 0-2 .32-2.73.95a4.61 4.61 0 0 0-1.47 2.57h7.7a3.61 3.61 0 0 0-1.13-2.62c-.65-.6-1.5-.91-2.37-.9Zm9.05-1.7h2.1v13.14h-2.1V5.64Zm6.63-.27c.7 0 1.33.1 1.89.32a3.74 3.74 0 0 1 2.31 2.39c.21.56.32 1.2.32 1.92v8.78h-2.1v-8.26c0-1.02-.24-1.78-.72-2.28-.47-.51-1.18-.77-2.13-.77-.71 0-1.38.19-2 .55-.62.38-1.14.9-1.52 1.53a5.22 5.22 0 0 0-.7 2.2l-.03-1.52a5.71 5.71 0 0 1 1.55-3.52c.4-.42.88-.76 1.42-1a4.36 4.36 0 0 1 1.7-.34Zm7.7.26h7.72v1.97h-7.73V5.64Zm2.8-3.41h2.1v16.56h-2.1V2.23Zm7.46 12.32h1.95c.05.76.33 1.37.84 1.84.52.48 1.28.71 2.26.71.6 0 1.06-.08 1.39-.23.35-.16.6-.37.76-.63.16-.28.24-.6.24-.92 0-.4-.1-.72-.32-.95-.22-.26-.5-.47-.81-.6a262.21 262.21 0 0 1-2.73-1.05c-.53-.23-1.03-.5-1.5-.8-.44-.3-.82-.68-1.1-1.13a3.47 3.47 0 0 1 .79-4.31 4.4 4.4 0 0 1 1.38-.81 5.3 5.3 0 0 1 4 .24 3.4 3.4 0 0 1 1.4 1.5c.33.62.5 1.36.52 2.2h-1.81c-.13-.79-.38-1.36-.77-1.7-.37-.37-.9-.56-1.6-.56-.72 0-1.27.16-1.66.47-.38.32-.58.74-.58 1.27 0 .38.15.7.43.97.28.24.63.47 1.07.68a62 62 0 0 1 2.92 1.24c.47.2.9.45 1.26.73.37.28.66.63.87 1.06.23.4.34.9.34 1.52 0 .74-.17 1.4-.52 1.97-.34.56-.84 1-1.5 1.32-.65.31-1.45.47-2.4.47-.85 0-1.59-.1-2.2-.32-.55-.2-1.06-.49-1.5-.86-.38-.34-.7-.73-.95-1.16a4.18 4.18 0 0 1-.47-2.16Z"/></g><defs><clipPath id="a"><path fill="#fff" d="M.82.5H187.1v24H.8z"/></clipPath></defs></svg>