<svg xmlns="http://www.w3.org/2000/svg" width="149" height="33" fill="none"><g fill="#fff"><path d="M46.7 18.28h-3.92v-2.46h3.91c.6 0 1.1-.1 1.48-.3.37-.2.65-.48.83-.84a3.1 3.1 0 0 0 0-2.49c-.18-.39-.46-.7-.83-.94a2.73 2.73 0 0 0-1.48-.36h-2.81v12.86h-3.16V8.4h5.97c1.2 0 2.23.22 3.09.65a4.66 4.66 0 0 1 2.66 4.39c0 .99-.23 1.84-.68 2.57a4.45 4.45 0 0 1-1.98 1.67c-.86.4-1.89.6-3.09.6ZM61.17 21.02v-8.67h3.04v11.4h-2.86l-.18-2.73Zm.34-2.34.9-.02c0 .76-.1 1.46-.27 2.12-.17.64-.44 1.2-.79 1.68a3.7 3.7 0 0 1-3.2 1.5 4.9 4.9 0 0 1-1.55-.23 3.13 3.13 0 0 1-1.2-.75 3.62 3.62 0 0 1-.78-1.32 6.12 6.12 0 0 1-.27-1.95v-7.36h3.03v7.38c0 .34.04.63.12.86.08.23.2.42.35.57.14.14.32.25.51.31.2.07.43.1.68.1.62 0 1.11-.13 1.47-.38a2 2 0 0 0 .77-1.03c.15-.45.23-.94.23-1.48ZM69.73 7.57v16.18h-3.05V7.57h3.05ZM78.4 20.6a.99.99 0 0 0-.2-.6 1.66 1.66 0 0 0-.7-.48c-.34-.15-.82-.3-1.46-.42-.58-.12-1.12-.28-1.62-.47-.49-.2-.92-.43-1.28-.7-.36-.28-.64-.6-.84-.98a3.06 3.06 0 0 1 0-2.64c.2-.42.5-.8.9-1.12.39-.33.86-.58 1.42-.77.57-.18 1.21-.28 1.92-.28 1 0 1.84.16 2.55.47.72.32 1.26.76 1.64 1.31.39.55.58 1.17.58 1.88h-3.03c0-.3-.06-.56-.19-.8-.12-.23-.3-.42-.57-.55a2.03 2.03 0 0 0-.99-.21c-.34 0-.63.06-.87.18-.25.1-.44.26-.57.46-.13.19-.2.4-.2.63 0 .18.04.33.11.47.08.14.2.26.37.37.17.12.39.22.66.32s.6.18 1 .25c.83.17 1.56.4 2.2.67.65.26 1.17.63 1.55 1.1.38.45.56 1.05.56 1.8 0 .5-.1.96-.33 1.38-.23.42-.55.8-.97 1.1-.42.32-.93.56-1.52.74-.58.16-1.24.25-1.97.25a5.84 5.84 0 0 1-2.7-.57 4.28 4.28 0 0 1-1.66-1.44 3.36 3.36 0 0 1-.56-1.81h2.88c.01.4.12.74.31 1 .2.25.46.43.77.54.32.12.66.17 1.03.17.39 0 .72-.05.98-.16.25-.1.45-.26.59-.44.14-.19.2-.4.2-.65ZM88.56 23.96c-.88 0-1.68-.14-2.38-.42a5.23 5.23 0 0 1-3.3-5.1v-.42c0-.87.13-1.66.37-2.37.25-.72.6-1.34 1.05-1.87a4.63 4.63 0 0 1 1.69-1.2c.66-.3 1.4-.44 2.23-.44.81 0 1.53.13 2.15.4.63.27 1.15.65 1.57 1.14.43.49.75 1.08.97 1.77.22.68.33 1.44.33 2.27V19h-9.06v-2.03h6.08v-.23c0-.42-.08-.8-.24-1.12-.14-.34-.37-.6-.67-.8-.3-.2-.69-.3-1.16-.3-.4 0-.74.09-1.03.26-.29.18-.52.43-.7.74-.18.32-.32.69-.4 1.12a7.1 7.1 0 0 0-.13 1.39v.42c0 .46.06.88.19 1.26a2.55 2.55 0 0 0 1.44 1.65c.35.16.75.24 1.19.24.55 0 1.06-.1 1.53-.32a3.3 3.3 0 0 0 1.23-.98l1.47 1.6a5.23 5.23 0 0 1-2.45 1.77c-.58.2-1.23.3-1.97.3ZM104.04 18.66h3.15a5.7 5.7 0 0 1-.85 2.75c-.5.8-1.2 1.43-2.1 1.87a7.1 7.1 0 0 1-3.22.68 6.6 6.6 0 0 1-2.64-.5 5.63 5.63 0 0 1-2-1.48 6.57 6.57 0 0 1-1.26-2.32c-.29-.9-.43-1.92-.43-3.04v-1.07c0-1.12.15-2.14.44-3.04.3-.91.73-1.69 1.29-2.33a5.73 5.73 0 0 1 2.01-1.47 6.4 6.4 0 0 1 2.61-.52c1.28 0 2.36.23 3.23.7.89.46 1.58 1.1 2.06 1.91.5.82.79 1.74.88 2.78h-3.16a4.08 4.08 0 0 0-.36-1.57 2.1 2.1 0 0 0-.96-.98 3.59 3.59 0 0 0-1.69-.33c-.53 0-.98.1-1.38.3-.4.19-.72.49-.99.89s-.47.9-.6 1.51c-.12.6-.19 1.32-.19 2.13v1.09c0 .79.06 1.49.18 2.1.12.59.3 1.1.55 1.51.25.4.57.72.97.93.4.2.88.3 1.44.3.66 0 1.2-.1 1.63-.31.43-.21.76-.53.98-.94.23-.42.37-.93.41-1.55ZM112.04 7.57v16.18H109V7.57h3.04Zm-.43 10.08h-.84c.01-.8.12-1.52.32-2.2.2-.67.5-1.25.88-1.74a3.82 3.82 0 0 1 3.13-1.57c.56 0 1.06.08 1.52.24.46.16.86.41 1.19.76.34.35.6.8.78 1.36.18.56.27 1.24.27 2.04v7.2h-3.05v-7.22c0-.5-.08-.9-.22-1.19-.14-.3-.35-.5-.62-.62a2.3 2.3 0 0 0-1-.19c-.43 0-.8.08-1.11.24-.3.16-.54.39-.73.68a3 3 0 0 0-.4.99c-.08.38-.12.78-.12 1.22ZM127.32 21.18V16.1c0-.36-.06-.68-.18-.94-.12-.26-.3-.47-.56-.62a1.85 1.85 0 0 0-.95-.22c-.34 0-.63.06-.88.18-.24.11-.43.28-.57.5-.13.2-.2.45-.2.74h-3.03c0-.48.11-.94.34-1.38.22-.43.55-.82.98-1.15.42-.33.93-.6 1.52-.79a6.6 6.6 0 0 1 2-.28c.89 0 1.68.15 2.36.44.7.3 1.23.74 1.63 1.33.4.59.6 1.33.6 2.21V21c0 .62.03 1.14.11 1.54.08.39.2.73.34 1.03v.18h-3.07c-.14-.31-.26-.7-.33-1.16-.07-.47-.1-.94-.1-1.41Zm.4-4.37.02 1.71h-1.7c-.4 0-.74.05-1.04.14-.29.1-.53.22-.72.39-.2.16-.33.35-.42.57-.09.22-.13.46-.13.72a1.28 1.28 0 0 0 .7 1.19 2.47 2.47 0 0 0 1.98-.1c.33-.2.6-.42.78-.68.19-.27.28-.52.29-.76l.8 1.28a5.15 5.15 0 0 1-1.19 1.77c-.3.27-.65.49-1.06.67-.42.16-.91.25-1.48.25-.72 0-1.38-.15-1.97-.43-.58-.3-1.04-.7-1.39-1.21a3.6 3.6 0 0 1-.17-3.36c.23-.47.56-.86 1-1.17.44-.33.99-.57 1.65-.73a9.33 9.33 0 0 1 2.3-.25h1.75ZM135.92 12.35v11.4h-3.05v-11.4h3.05Zm-3.24-2.97c0-.44.16-.8.47-1.1.3-.28.72-.43 1.24-.43.51 0 .92.15 1.23.44.32.28.48.65.48 1.1 0 .43-.16.8-.48 1.09-.3.28-.72.43-1.23.43-.52 0-.93-.15-1.24-.43-.31-.3-.47-.66-.47-1.1ZM141.4 14.78v8.97h-3.04v-11.4h2.84l.2 2.43Zm-.45 2.87h-.82c0-.84.1-1.6.33-2.28.21-.68.52-1.26.91-1.73.4-.49.86-.86 1.4-1.11a4.23 4.23 0 0 1 1.84-.39c.53 0 1.02.08 1.46.23.44.16.82.4 1.14.74.32.34.57.78.74 1.34.17.55.26 1.23.26 2.03v7.27h-3.06v-7.28c0-.5-.07-.9-.2-1.18a1.19 1.19 0 0 0-.63-.59c-.26-.12-.6-.18-.99-.18-.4 0-.76.08-1.06.24-.3.16-.54.39-.74.68-.19.28-.33.6-.43.99-.1.38-.15.78-.15 1.22Z"/></g><path fill="url(#a)" d="M26.05 32.09H9.2l.1-.11c-.64-.16-1.01-.6-1.3-1.14l-1.4-2.45-3.01-5.33L1.9 20.1 1 18.48v-.46c.07-.07.16-.14.22-.23a.9.9 0 0 1 .8-.43H9.4c.22 0 .38.09.5.29l.83 1.45c.33.56.64 1.12 1 1.66.44.64 1.25.54 1.56-.17.06-.12.1-.26.14-.4l1.34-5.2 1-3.91c.01-.07.05-.12.08-.18.1.13.13.27.14.4l.1.87.5 3.49c.18 1.36.35 2.72.54 4.07l.75 5.55c.05.4.1.8.17 1.19.1.48.4.78.83.81.4.03.74-.22.91-.67.07-.16.12-.32.16-.5.36-1.4.73-2.79 1.08-4.2l1.7-6.84.11-.28c.12.15.21.24.28.36.27.47.56.95.8 1.44.28.55.7.78 1.32.78 1.88-.02 3.76-.01 5.64-.01h2.24c.56.02.9.39.91.96 0 .33-.15.6-.3.87l-2.96 5.16c-1.14 1.99-2.26 3.98-3.41 5.97-.37.64-.68 1.36-1.5 1.65l.2.12ZM1 14.52v.33c.25.63.72.86 1.39.86 2.49-.02 4.98 0 7.47-.01.55 0 .94.18 1.2.67l.88 1.55.13.22c.24-.02.23-.19.26-.31l.67-2.6 2.17-8.5c.03-.15.08-.3.14-.43a.92.92 0 0 1 .87-.55c.37.03.68.28.77.68.09.35.14.72.19 1.08l.47 3.53.49 3.69.54 3.94.42 3.05.09.43h.08l.1-.28 1.03-4.08 1.28-4.98c.03-.13.07-.26.12-.37.14-.31.36-.54.72-.57.36-.03.65.13.84.43l.8 1.34.98 1.7c.06.13.15.23.23.34l.24.02a7056.77 7056.77 0 0 0 7.66-.03c.6-.1.93-.64.75-1.23-.04-.12-.1-.24-.16-.35a4119.33 4119.33 0 0 0-6.52-11.43L26.9 2c-.33-.6-.86-.9-1.54-.94h-.48l-14.77-.02h-.45c-.65 0-1.13.29-1.46.84L6.9 4.14c-.46.8-.93 1.6-1.38 2.41-.5.87-.98 1.75-1.47 2.62l-1.87 3.29-.96 1.68c-.05.1-.15.17-.23.25v.13Z"/><defs><linearGradient id="a" x1="8.76" x2="26.51" y1="31.84" y2="1.45" gradientUnits="userSpaceOnUse"><stop stop-color="red"/><stop offset=".21" stop-color="#F600EF"/><stop offset=".29" stop-color="#D60AF1"/><stop offset=".45" stop-color="#8626F9"/><stop offset=".58" stop-color="#443DFF"/><stop offset=".85" stop-color="#17ADFF"/><stop offset="1" stop-color="#00E8FF"/></linearGradient></defs></svg>