<svg xmlns="http://www.w3.org/2000/svg" width="90" height="28" fill="none"><path fill="#fff" d="M83 10.49a7.39 7.39 0 0 1 3.72.15 5.6 5.6 0 0 1 1.64.84 5.2 5.2 0 0 1 1.56 2.2c.04.16.08.36.08.46 0 .1-.04.24-.1.32a.64.64 0 0 1-.29.19c-.12.03-.7.04-1.6.03-1.18 0-1.44-.03-1.54-.1a1.4 1.4 0 0 1-.31-.45 3.7 3.7 0 0 0-.35-.57 1.6 1.6 0 0 0-.42-.33c-.23-.11-.31-.13-.79-.13-.49 0-.55.01-.83.16a1.5 1.5 0 0 0-.45.35c-.08.1-.2.33-.27.5-.06.15-.13.42-.16.6a13.2 13.2 0 0 0 .03 2.63c.04.22.14.54.22.7.09.18.24.4.36.5.12.1.34.23.48.27a2.49 2.49 0 0 0 1.28 0c.17-.07.35-.17.47-.3.1-.1.28-.37.39-.59.1-.22.25-.45.32-.5.1-.1.17-.1 3.26-.1l.15.15c.11.11.15.2.15.34 0 .1-.05.34-.1.54a4.2 4.2 0 0 1-1.94 2.42 5.4 5.4 0 0 1-1.62.68 8.36 8.36 0 0 1-1.8.2 8.78 8.78 0 0 1-1.8-.23 7.13 7.13 0 0 1-1.64-.72A6.54 6.54 0 0 1 80 19.6a5.33 5.33 0 0 1-.83-2.3 16.24 16.24 0 0 1 0-2.62 4.84 4.84 0 0 1 1.2-2.79 4.4 4.4 0 0 1 1.9-1.2c.2-.08.53-.17.73-.21Z"/><path fill="#fff" fill-rule="evenodd" d="M73.74 6.07h2.95l.3.3v2.32l-.29.3h-1.48c-1.16 0-1.5-.01-1.58-.06a.62.62 0 0 1-.16-.22c-.05-.1-.06-.43-.04-2.34l.3-.3Zm-11.64.5c1.32 0 1.48.01 1.59.1.07.04.15.15.19.24.05.13.06.67.06 4.55l.34-.25c.2-.14.5-.34.67-.43.18-.09.49-.2.68-.27a5.08 5.08 0 0 1 2.85.06c.26.1.61.24.78.34a5.3 5.3 0 0 1 1.38 1.39 6.8 6.8 0 0 1 .63 1.74 11.91 11.91 0 0 1-.21 4.76 3.83 3.83 0 0 1-1.04 1.67c-.3.31-.58.53-.81.66a4.5 4.5 0 0 1-2.55.51 4.3 4.3 0 0 1-2.2-.7c-.12-.09-.35-.26-.72-.62v.34c0 .2-.03.4-.08.49a.55.55 0 0 1-.22.23c-.12.06-.4.07-1.42.07-1.12 0-1.3 0-1.45-.08a.46.46 0 0 1-.24-.27c-.05-.13-.06-1.87-.06-7.06 0-4.41.01-6.95.04-7.08.03-.1.11-.23.2-.29.12-.1.2-.1 1.59-.1Zm2.6 6.95c-.14.1-.33.3-.41.42-.08.12-.2.38-.26.58-.1.31-.11.46-.1 1.38 0 .85 0 1.1.08 1.4a4 4 0 0 0 .2.55c.05.1.17.29.26.4.08.1.24.25.35.3.11.07.29.15.38.18.1.03.38.05.63.05.34 0 .53-.02.73-.1.16-.06.34-.15.41-.21.07-.07.2-.2.26-.3.08-.1.2-.33.26-.53a5.36 5.36 0 0 0 .22-2.01 4.13 4.13 0 0 0-.35-1.61 1.98 1.98 0 0 0-.35-.46 1.37 1.37 0 0 0-.52-.29 2.82 2.82 0 0 0-1.29-.01c-.12.04-.35.16-.5.26ZM36.64 6.8c3 .02 3.56.03 3.93.1a6.55 6.55 0 0 1 1.96.68 5.38 5.38 0 0 1 1.33 1.1 4.27 4.27 0 0 1 .84 1.94c.04.24.06.65.04 1.16-.02.59-.05.87-.13 1.15a4.46 4.46 0 0 1-.74 1.42 4.82 4.82 0 0 1-1.66 1.28l1.45 2.6a22.52 22.52 0 0 1 1.45 2.77c0 .1-.05.22-.25.44l-1.52.01c-.95.01-1.61 0-1.74-.03a.9.9 0 0 1-.36-.22c-.1-.1-.65-1.12-2.61-4.9l-2.1-.03v2.37c0 2 0 2.4-.07 2.52a.53.53 0 0 1-.25.23 6 6 0 0 1-1.57.07c-.77 0-1.47-.02-1.55-.04a.52.52 0 0 1-.24-.18c-.09-.12-.09-.54-.09-7.13 0-6.35.01-7.01.08-7.12a.52.52 0 0 1 .2-.16c.05-.02 1.6-.04 3.6-.03Zm-.1 6.49c1.97 0 2.69-.02 2.86-.05.17-.03.43-.1.57-.18.14-.06.34-.22.45-.33.12-.13.26-.34.31-.5.08-.2.1-.4.1-.7 0-.33-.02-.5-.1-.74a1.9 1.9 0 0 0-.34-.53 1.6 1.6 0 0 0-.48-.34 2.81 2.81 0 0 0-.67-.17c-.23-.02-.92-.04-1.55-.04h-1.15v3.58Zm12.14-2.72c1.38 0 1.55 0 1.65.09a.7.7 0 0 1 .16.2c.04.08.06 1.03.06 3.23 0 2.58.01 3.17.07 3.43.05.17.11.38.15.46a1.57 1.57 0 0 0 1.03.78c.1.02.36.04.56.04.22 0 .5-.04.63-.09.14-.05.35-.15.47-.23.12-.08.3-.26.39-.4.1-.15.2-.41.25-.58.07-.25.08-.76.08-3.39 0-2.64.01-3.11.07-3.27.05-.1.12-.2.18-.22.06-.03.7-.05 1.61-.05 1.36 0 1.53 0 1.64.09.07.04.15.15.18.23.03.1.05 2.04.05 5.11 0 4.3-.01 4.98-.08 5.14a.53.53 0 0 1-.23.25c-.12.06-.4.07-1.47.07-1.23 0-1.33 0-1.49-.1a.61.61 0 0 1-.21-.22c-.03-.07-.05-.31-.05-.94l-.26.28a3.71 3.71 0 0 1-1.48.92 5.72 5.72 0 0 1-2 .25 5.21 5.21 0 0 1-1.73-.47 3.39 3.39 0 0 1-.8-.65c-.37-.36-.51-.54-.7-.9a5.26 5.26 0 0 1-.54-1.87c-.03-.26-.05-1.8-.05-3.62 0-2.85 0-3.19.08-3.32a.7.7 0 0 1 .17-.2c.05-.03.66-.05 1.61-.05Zm25.06 0h2.96l.3.3V21.1l-.29.33-1.32.01h-1.5c-.09-.02-.22-.1-.41-.31l-.01-10.26.27-.31Z" clip-rule="evenodd"/><path fill="#9AF4D2" d="M12.38 0v.05h.15a.36.36 0 0 0-.15-.05Z"/><path fill="#54ECB3" d="M12.56.02c-.02.02.03.02.03.01.03-.02-.03-.02-.03-.01Z"/><path fill="#04E38F" d="M12.63.02C11.38.2 10.25 1.07 9.18 1.7 7.28 2.8 5.35 3.9 3.43 5c-1.1.63-2.39 1.14-2.9 2.39-.33.78-.2 1.76-.2 2.6v8.58c0 .79-.04 1.63.37 2.34.44.75 1.21 1.11 1.93 1.54l3.9 2.28 3.7 2.16c1 .6 1.92 1.22 3.15 1.04 1.07-.15 2.13-1.02 3.05-1.56l6.05-3.5c1.06-.6 2.32-1.12 2.83-2.3.34-.81.21-1.8.21-2.65V9.43c0-.87.05-1.71-.42-2.5-.45-.74-1.24-1.1-1.98-1.51l-3.84-2.2-4.2-2.39c-.76-.43-1.54-.93-2.45-.8Z"/><path fill="#65EDBA" d="M13.13 0v.05h.15a.36.36 0 0 0-.15-.05Z"/><path fill="#D8FBEE" d="M13.31.02c-.02.02.03.02.03.01.03-.02-.03-.02-.03-.01Z"/><path fill="#77F0C2" d="M12.21.07c-.02.02.03.02.03.01.03-.02-.03-.02-.03-.01Zm1.22-.02V.1h.15a.36.36 0 0 0-.15-.05ZM11.98.1v.05h.15a.36.36 0 0 0-.15-.05Z"/><path fill="#16E597" d="M7.03 3.34c-.2.34-.81.87-1.2.95-.09.16-.27.23-.3.4-.25.07-.48.25-.7.4l.05.1c-.11.05-.15.08-.15.2-.35.1-.57.43-.9.55-.03.12-.09.23-.1.35-.4.16-.5.52-.75.85.26.19.56.36.85.5.06-.1.11-.17.2-.25.2-.82 1.3-1.2 1.65-1.9.3-.04.8-.5.95-.75l.1.05c.49-.52 1.36-.83 2-1.1a10.85 10.85 0 0 1 6.1-.7c.8.14 1.68.69 2.45.7.17.24 1.01.65 1.3.65.2.31.62.5.92.72.43.32.71.7 1.23.93l-.05.1c.47.35 1.05 1 1.3 1.55.28-.12.54-.28.8-.45v-.1l-.2-.05c0-.1-.03-.2-.06-.3-.13-.02-.13-.07-.15-.2a.58.58 0 0 1-.4-.45 2.77 2.77 0 0 1-.74-.75h-.15l.05-.1c-.17-.09-.25-.17-.3-.35a2.47 2.47 0 0 1-.85-.6l-.1.05-.15-.25c-.17.04-.26-.17-.4-.3-.28-.24-1.44-.7-1.4-.84-.2-.02-.36-.1-.55-.05-.15-.19-.43-.14-.6-.3-.1 0-.12 0-.2-.05-.53.02-1.17-.24-1.7-.34-.2-.03-.44 0-.6-.11-.55.06-1.14-.11-1.7-.09-.93.04-1.9.2-2.81.43-.59.14-1.17.38-1.74.58-.33.12-.63.33-1 .32Z"/><path fill="#28E79F" d="m6.73 4.8-.1-.06c-.21.24-.64.67-.95.75-.42.58-1.53 1.14-1.65 1.9-.11.07-.15.12-.2.25.15.1.3.18.45.25 2.39-2.82 5.9-4.82 9.7-4.39.34.04.62.2.95.27 1.03.22 1.96.53 2.95.93 1.12.46 1.96 1.56 2.81 2.34.21.2.63.9.94.82.8-.24-.58-1.59-.95-1.77l.05-.1a12.1 12.1 0 0 1-2.15-1.65 3.5 3.5 0 0 1-1.3-.65c-.6-.05-1.2-.46-1.8-.58a11.18 11.18 0 0 0-6.74.55c-.58.25-1.67.58-2 1.13Z"/><path fill="#38E9A7" d="m4.28 7.94.5.25c.49-.67 1.03-1.43 1.66-1.97a8.96 8.96 0 0 1 2.44-1.38c2.9-1.22 5.98-1.3 8.8.22 1.01.55 1.82 1.08 2.62 1.91.33.35.7.7.83 1.17l.35-.2c-3.24-4.91-10.63-5.9-15.08-2.1-.6.51-1.19.97-1.7 1.6-.15.18-.34.27-.42.5Z"/><path fill="#47EBAD" d="M4.78 8.09a.9.9 0 0 0 .1.2h.05c.21-.25.35-.56.56-.8a9.33 9.33 0 0 1 2.14-1.57c1.83-1.06 3.83-1.84 6-1.62 1.32.13 2.46.54 3.65 1.08.16.08.34.04.5.12.5.26 1.01.76 1.44 1.14.57.5 1.33.93 1.66 1.65.62-.36-.57-1.37-.86-1.66a10.23 10.23 0 0 0-4.64-2.5c-3-.73-6.54.14-8.94 2.06-.65.52-1.04 1.35-1.66 1.9Z"/><path fill="#54ECB3" d="M4.93 8.28c.15.1.29.19.45.25.46-.89 1.2-1.48 1.98-2.07a9.32 9.32 0 0 1 7.47-1.6c.47.1 1 .14 1.45.32.4.16.76.43 1.15.63a7.87 7.87 0 0 1 2.77 2.18c.13.18.33.24.43.44.46-.26-.1-.7-.33-.93A16.6 16.6 0 0 0 18.45 6c-.22-.15-.43-.42-.68-.52-2.16-.87-4.47-1.55-6.84-1.02-1.21.28-2.28.86-3.35 1.46-1.05.59-2.01 1.33-2.65 2.36Z"/><path fill="#65EDBA" d="M5.38 8.58c.38.13.47-.15.72-.4.45-.44.92-.88 1.4-1.3.18-.16.5-.32.58-.54.72-.1 1.34-.77 2.05-.95 1.62-.42 3.47-.59 5.1-.13a11.37 11.37 0 0 1 4.6 3.02c.18.18.5.47.71.18.1-.14-.5-.8-.65-.93a10.52 10.52 0 0 0-2.92-2.02c-3-1.37-6.96-1.17-9.61.92-.7.56-1.77 1.21-1.98 2.15Z"/><path fill="#77F0C2" d="M8.08 6.34c-.15.25-.55.48-.79.67a5.55 5.55 0 0 0-1.61 1.73l.4.2A5.64 5.64 0 0 1 7.86 7c2.56-2 6.32-1.98 9.12-.55.93.48 2.35 1.45 2.75 2.47.17-.06.33-.16.5-.24-.27-.54-.94-1-1.38-1.4-2.48-2.23-5.56-2.6-8.72-1.92-.72.16-1.33.79-2.05.97Z"/><path fill="#88F2CA" d="M6.08 8.98c.41.12.77-.53 1.05-.8.82-.78 1.82-1.43 2.86-1.9.21-.1.46-.06.69-.13a7.98 7.98 0 0 1 8.8 2.93l.24-.1c-.06-.37-.32-.58-.56-.86a7.94 7.94 0 0 0-2.19-1.69c-2.7-1.45-6.64-1.42-9.11.55-.62.5-1.6 1.18-1.78 2Z"/><path fill="#9AF4D2" d="m6.33 9.13.25.1c.7-1.1 1.85-1.69 2.99-2.22 1.12-.52 2.07-1.02 3.36-.97.54.03 1.16.04 1.7.18.5.13 1.03.4 1.55.42v.2c.37.02.64.26.94.44.57.35 1.25.68 1.73 1.16.23.24.34.5.62.7-.28-.88-1.42-1.56-2.14-2.05a8.08 8.08 0 0 0-9.02.11c-.7.46-1.66 1.13-1.98 1.93Z"/><path fill="#A9F5D8" d="M6.98 9.48c.1-.26.33-.42.53-.62.44-.46 1.01-1.12 1.67-1.27.28-.47 1.07-.58 1.55-.74a6.66 6.66 0 0 1 4.2-.05c.46.13 1.07.14 1.4.54.33-.01.55.32.81.5.66.45 1.4.83 1.84 1.54.15-.07.3-.16.44-.25-.6-.8-1.33-1.3-2.2-1.82-.34-.2-.63-.46-1.04-.47v-.2c-.63-.06-1.22-.4-1.85-.49-.96-.11-2-.22-2.95.02-.76.19-1.6.64-2.3.99-.72.35-1.4.82-1.96 1.4-.34.35-.7.62-.14.92Z"/><path fill="#B7F7DF" d="M9.18 7.59c-.7.09-1.27.85-1.75 1.3-.08.08-.61.52-.34.62.19.07.44-.44.58-.55.66-.49 1.3-1.04 2.06-1.37 1.75-.8 3.8-1.1 5.64-.33.55.23.98.56 1.47.89.58.38 1.4.81 1.68 1.48.17-.07.3-.15.45-.25-.3-.75-1.22-1.13-1.83-1.57-.26-.19-.48-.5-.81-.47-.2-.4-.92-.43-1.3-.53-.42-.1-.83-.3-1.25-.36a7.04 7.04 0 0 0-3.05.39c-.4.13-1.42.27-1.55.75Z"/><path fill="#C6F9E6" d="M7.18 9.58c.11.07.25.19.39.14.4-.13.79-.65 1.09-.92.32-.3.8-.53 1.17-.74a6.34 6.34 0 0 1 6.92.48c.42.32 1.31.77 1.38 1.34.58-.3.22-.62-.17-.97a9.12 9.12 0 0 0-2.08-1.46 7.1 7.1 0 0 0-7.27.85c-.57.43-1.06.64-1.43 1.28Z"/><path fill="#D8FBEE" d="M7.58 9.83c.47.27.54-.06.9-.3.66-.45 1.28-.88 2.01-1.2a6.47 6.47 0 0 1 5.94.59c.45.3.99.72 1.25 1.21.17-.08.47-.2.42-.44-.04-.18-.3-.32-.41-.46a7 7 0 0 0-1.87-1.34c-2.06-1.07-4.41-.72-6.35.38-.53.3-.91.63-1.37 1.02-.21.19-.41.27-.52.54Z"/><path fill="#88F2CA" d="M25.43 7.69v.15h.05a.35.35 0 0 0-.05-.15Z"/><path fill="#47EBAD" d="M.4 7.77s0 .05.01.03c0 0 0-.05-.01-.03Z"/><path fill="#EAFDF6" d="M7.98 10.08c.21.07.93.7 1.15.55.3-.2.61-.87.9-.8l.05-.15c.19 0 .48-.1.5-.3.45.06.9-.2 1.34-.3.35-.09.7-.05 1.06-.05.24 0 .48-.07.7.05.76-.06 1.68.39 2.26.82.22.16.51.31.59.58.1.06.14.1.2.2.2-.1.86-.34.9-.6.02-.16-.21-.37-.32-.47a5.3 5.3 0 0 0-1.28-1.02 6.95 6.95 0 0 0-6.5.21c-.52.3-1.3.69-1.55 1.28Z"/><path fill="#A9F5D8" d="M.35 7.92s0 .05.02.03c0 0 0-.05-.02-.03Z"/><path fill="#88F2CA" d="M25.49 7.97s0 .05.02.03c0 0 0-.05-.02-.03Z"/><path fill="#77F0C2" d="M.35 8.02s0 .05.02.03c0 0 0-.05-.02-.03Z"/><path fill="#65EDBA" d="M25.49 8.07s0 .06.02.03c0 0 0-.05-.02-.03Z"/><path fill="#47EBAD" d="M.35 8.12s0 .05.02.03c0 0 0-.05-.02-.03Z"/><path fill="#fff" d="M10.58 9.38c-.02.17-.34.3-.5.3-.05.08-.05.06-.05.15-.36.02-.79.59-1 .85 1.34.8 2.88 2.1 4.55 1.7.87-.2 1.68-.83 2.45-1.28.14-.09.98-.48.5-.62-.05-.28-.33-.43-.55-.58-.54-.38-1.6-1-2.3-.82-.18-.18-.52-.06-.75-.06-.83-.02-1.54.35-2.35.36Z"/><path fill="#16E597" d="M1.93 9.13c0 .1 0 .08.05.15-.14.1-.18.28-.3.4 0 .26-.14.42-.22.65-.23.7-.64 1.73-.43 2.5-.1.05-.08.04-.05.15-.1.05-.1.09 0 .15-.14.5-.17 1.59.1 2.04-.14.08-.07.19 0 .3-.13.15.01.47.04.65.07.38 0 .77.14 1.14.1.27.31.51.17.8.17.1.62.69.5.86.25.21.57.8.6 1.14.3.33 1 1.11 1.05 1.55.37.22.8.8 1.05 1.1.12.14.34.2.3.35.09 0 .08 0 .15-.05.4.8 1.59 1.02 2.2 1.6.09 0 .08 0 .15-.05 0 .09 0 .07.05.14.16.03.24.09.35.2.3.07.55.32.85.42.9.3 2.1.56 3.05.58l.05-2h-.05v1.2c-.5 0-1.55-.12-1.95-.44-.47 0-.98-.31-1.4-.5a11.6 11.6 0 0 1-3.54-2.51c-.34-.34-.6-.84-1.01-1.09a3.08 3.08 0 0 0-.85-1.4c-.02-.3-.24-.57-.35-.84-.3-.72-.6-1.49-.74-2.25-.13-.72-.2-1.5-.18-2.24.02-.42.18-1 .07-1.4.14-.08.2-.65.15-.8.27-.23.28-.92.37-1.25.05-.18.17-.3.18-.5.12-.1.13-.24.15-.4-.23-.12-.45-.27-.7-.35ZM22.93 9.63c.9 2.08 1.15 4.04.83 6.3-.07.54-.06 1.51-.43 1.94-.07.68-.76 1.25-.8 1.9-.1.05-.17.12-.25.2-.04.23-.25.36-.25.6-.2.06-.3.22-.45.34 0 .2-.21.26-.34.38l-.81.91a11.21 11.21 0 0 1-4.3 2.49c-.51.17-1.03.26-1.55.4-.17.03-.5.1-.55-.08h-.05c0 .22-.1.78.05.96.13.14.41-.04.55-.1a4.66 4.66 0 0 1 1.45-.26c.16-.14.35-.11.55-.18l1.4-.56c.51-.19 1-.27 1.3-.81.21 0 .35-.15.55-.2.02-.16.2-.24.35-.25.18-.22.44-.55.75-.55a.63.63 0 0 0 0-.25c.36-.1.5-.51.85-.6.17-.36.73-.47.75-.9l.15-.05c.04-.15.14-.23.15-.4.19-.1.24-.3.4-.45 0-.14.02-.26 0-.4l.3-.14c-.03-.3.05-.5.35-.6 0-.1 0-.1.1-.15l-.1-.15c.42-.12.52-1.15.45-1.5h.1c.07-.42.44-.72.2-1.15.12-.11.11-.29.1-.45.33-.1.26-1.17.35-1.5h-.1c.07-.26.06-.57.1-.84-.1-.1-.07-.22-.05-.35-.35-.37.14-1.42-.4-1.7.04-.07.05-.06.05-.15-.13-.13-.12-.27-.1-.45l-.05-.05-.1.05c.08-.26-.09-.48-.05-.6-.19-.12-.21-.39-.2-.6-.19-.1-.11-.22-.25-.25.05-.07.05-.06.05-.15-.37-.17-.73.21-1.05.35Z"/><path fill="#28E79F" d="M2.63 9.53c-.04.14-.06.24-.15.35-.02.17-.14.3-.18.46-.1.39-.12.97-.37 1.29.02.15-.03.72-.15.8.08.42-.07.94-.09 1.37a10.54 10.54 0 0 0 .94 4.57c.1.26.3.52.35.8.28.3.77.99.85 1.4.62.55 1.1 1.25 1.71 1.82a9.88 9.88 0 0 0 2.59 1.68c.47.23 1.11.62 1.65.59.28.35 1.5.45 1.95.45 0-.19.08-.62-.08-.74-.14-.12-.45-.1-.62-.13-.55-.1-1.12-.22-1.65-.36-.6-.16-1.07-.58-1.6-.87a10.4 10.4 0 0 1-5.36-7.9 9.02 9.02 0 0 1 .22-3.48c.11-.37.34-.79.5-1.15.06-.13.22-.29.2-.44 0-.25-.51-.44-.71-.5ZM22.77 9.73c.09.43.35.75.5 1.15.34.99.66 2.46.35 3.5.13.22.04.5.01.74a8.78 8.78 0 0 1-.47 1.95c-.26.73-.49 1.61-.94 2.24-.24.33-.57.58-.84.88-.54.59-1 1.28-1.62 1.79-.61.5-1.35.86-2 1.32-.83.57-1.8.7-2.73.9-.28.06-.8.36-1 .06h-.05c0 .3 0 .6.05.9a13.1 13.1 0 0 0 5.84-2.43c.53-.36.96-.87 1.36-1.36.13-.16.32-.24.34-.46.18-.09.28-.25.45-.35.03-.23.24-.36.25-.6l.25-.2c.1-.65.79-1.18.8-1.9.2-.14.18-.4.22-.64.1-.45.17-.85.23-1.3.28-2.13.22-4.29-.8-6.24l-.2.05Z"/><path fill="#38E9A7" d="M22.17 10.08v.05c.44.24.53 1.14.64 1.6.3 1.25.34 2.53.12 3.8-.09.44-.19 1.18-.46 1.54-.03.31-.26.64-.4.92-.27.54-.5 1.03-.85 1.53a10.7 10.7 0 0 1-5.34 4.06c-.64.22-1.16.46-1.85.48v-.25h-.05c0 .2 0 .4.05.6.41 0 .75-.18 1.15-.23a9.42 9.42 0 0 0 4.63-2.2c.6-.52 1.05-1.22 1.59-1.8.57-.6 1.08-1.12 1.35-1.96.31-.98.8-1.91.87-2.95.02-.2.22-.78 0-.9.14-.35.07-.77.06-1.14a7.68 7.68 0 0 0-.42-2.4c-.13-.36-.36-.68-.49-1.05-.2.08-.4.2-.6.3ZM3.38 9.98c-.44 1.15-.97 2.12-1.04 3.4-.05 1.04-.04 2.33.28 3.34.1.3.33.59.45.9.16.42.17.85.41 1.24.67 1.05 1.52 1.8 2.34 2.7.1.1.12.27.23.38.18.17.46.26.67.4.67.48 1.4 1.05 2.16 1.37.87.37 1.92.47 2.85.65l.05-2.1h-.05v1.6a11.77 11.77 0 0 1-6.03-2.88c-2.62-2.52-3.47-6.75-2.4-10.15.09-.27.27-.48.38-.75l-.3-.1Z"/><path fill="#47EBAD" d="M3.63 10.13a10.45 10.45 0 0 0 .05 7.99c1.38 3.14 4.71 5.3 8.05 5.74-.37-.5-1.6-.46-2.15-.72-1.66-.78-3.31-1.7-4.44-3.2-.14-.2-.18-.46-.3-.67-.18-.33-.47-.56-.56-.95-.46-.26-.5-1.15-.66-1.6a9.14 9.14 0 0 1 .21-6.54l-.2-.05ZM21.82 10.28c1.2 2.35.98 5.12 0 7.49-.17.44-.36 1-.62 1.39-.66 1-1.72 2-2.67 2.72a8.5 8.5 0 0 1-3 1.32c-.48.14-1.05.37-1.55.26l.05.6c.7 0 1.24-.25 1.9-.48a10.5 10.5 0 0 0 6.14-5.55c.14-.29.4-.64.4-.96.25-.22.39-1.06.44-1.4.21-1.33.2-2.56-.08-3.9-.12-.56-.23-1.88-1-1.49Z"/><path fill="#54ECB3" d="M3.78 10.23c-.74 2.06-1.02 4.44-.18 6.5.16.4.2 1.43.68 1.59.05.38.3.6.5.9.15.23.19.5.33.72.16.24.45.43.65.64 1.55 1.6 3.7 2.89 5.97 3.18v-.35a7.8 7.8 0 0 1-3.87-1.56c-.74-.5-1.53-1.05-2.11-1.72a10.37 10.37 0 0 1-2.1-4.56 9.3 9.3 0 0 1 .07-3.79c.1-.4.37-.76.46-1.15.06-.26-.2-.34-.4-.4ZM21.58 10.43c.4.71.48 1.51.61 2.3.58 3.5-1.03 6.64-3.76 8.77-.9.7-1.78 1.07-2.85 1.41-.53.17-1.01.44-1.6.3.04.48.68.25 1 .17 1.02-.26 1.98-.54 2.9-1.04A8.43 8.43 0 0 0 20 20.52c.4-.43.85-.83 1.19-1.32a9.32 9.32 0 0 0 1.43-4.38 9 9 0 0 0-.35-3.48c-.13-.35-.2-1.1-.7-.9Z"/><path fill="#65EDBA" d="M4.23 10.48c-.16.44-.43.82-.52 1.3-.33 1.59-.32 3.6.23 5.14.26.75.69 1.43 1.09 2.1.22.36.44.83.72 1.15.57.65 1.34 1.2 2.07 1.68 1.2.8 2.42 1.5 3.9 1.56v-.5c-1.57-.08-3.35-1.01-4.59-1.96-.49-.37-.99-1.31-1.6-1.44-.07-.85-.85-1.42-1.12-2.2-.73-2.1-.9-4.65.17-6.68a1.55 1.55 0 0 0-.35-.15ZM21.22 10.63c.49.65.52 1.32.61 2.1a9.3 9.3 0 0 1-.66 4.89c-.16.36-.4.66-.58 1-.32.6-.8 1.09-1.24 1.61-.24.3-.55.64-.92.73-.15.35-.47.47-.8.6-.1.38-.45.43-.75.58-.64.33-1.21.54-1.9.73-.25.06-.78.23-.95-.01h-.05c0 .84 1.26.15 1.7.04a9.15 9.15 0 0 0 6.6-9.87c-.08-.57-.17-1.15-.33-1.7-.08-.29-.24-.56-.28-.85-.17.02-.3.07-.45.15Z"/><path fill="#77F0C2" d="M4.53 10.68c-.25.4-.36.94-.47 1.4a9.4 9.4 0 0 0 .35 5.28c.27.77 1.01 1.32 1.12 2.16.6.2 1.06 1.04 1.56 1.43a9.56 9.56 0 0 0 2.69 1.43c.63.24 1.26.51 1.95.53v-.55c-3.15 0-5.9-2.71-7.05-5.5a8.04 8.04 0 0 1-.4-2.19 7.84 7.84 0 0 1 .15-2.34c.13-.52.4-.99.5-1.5a1.47 1.47 0 0 0-.4-.15Zm16.45.1a8.08 8.08 0 0 1-.07 6.44c-.2.41-.43 1.27-.83 1.5-.1.71-.85 1.36-1.38 1.79-.44.36-.83.8-1.33 1.1-.43.24-.9.32-1.33.51-.64.29-1.3.64-2.01.64v-.3h-.05c0 .19.01.36.05.55a6.87 6.87 0 0 0 2.85-.84c.3-.17.69-.2.75-.6.33-.09.7-.25.8-.6.63-.1 1.01-.86 1.42-1.29 1.57-1.67 2.09-4.01 2.08-6.25 0-.67-.1-1.52-.31-2.15-.11-.33-.25-.68-.64-.5Z"/><path fill="#88F2CA" d="M20.62 10.98c.1.19.26.36.33.55.18.58.09 1.3.13 1.9A7.61 7.61 0 0 1 19 19.29c-.2.21-.3.49-.51.7-.8.83-1.9 1.44-3.01 1.74-.5.14-.93.41-1.45.43v-.65h-.05l.05 1.25c.74 0 1.38-.35 2.05-.64.44-.19.9-.26 1.33-.52.49-.29.87-.7 1.29-1.06.53-.46 1.31-1.07 1.37-1.82.36-.13.65-1.01.8-1.35.6-1.44.9-3.02.67-4.6-.07-.47-.28-.9-.36-1.4-.03-.13-.05-.4-.18-.48-.12-.07-.28.04-.38.09Zm-15.7-.1a9.2 9.2 0 0 0-.26 5.98c.13.4.44.75.64 1.12 1.3 2.37 3.61 4.38 6.43 4.38v-.3c-1.01 0-1.86-.58-2.7-1.06-.47-.26-.97-.3-1.4-.66a8.98 8.98 0 0 1-3-7.91c.08-.5.32-1.01.45-1.5l-.05-.05h-.1Z"/><path fill="#9AF4D2" d="M5.08 10.98c-.4.76-.41 1.57-.45 2.4a8.71 8.71 0 0 0 2.95 6.96c.43.36.93.4 1.4.67.86.48 1.72 1.05 2.75 1.05v-.15c-.99-.02-1.67-.54-2.5-.98-.21-.11-.44-.12-.64-.26a8.5 8.5 0 0 1-3.55-6.25c-.08-1.15.34-2.13.5-3.24-.16-.08-.3-.15-.46-.2ZM20.28 11.18c.33 1.17.6 2.31.49 3.54-.07.68-.41 1.33-.44 2-.36.12-.28.66-.6.85-.03.46-.43.8-.69 1.17-.76 1.08-2.17 2.45-3.56 2.57v.15c-.47 0-1 .15-1.45.25v.45c.54 0 1-.29 1.5-.42A6.72 6.72 0 0 0 19 19.33a8.95 8.95 0 0 0 1.82-2.91c.16-.49.2-1.13.28-1.65.16-.89.02-2.05-.09-2.94-.05-.44-.25-.9-.73-.65Z"/><path fill="#A9F5D8" d="M5.53 11.23a9.95 9.95 0 0 0-.5 3.2 7.92 7.92 0 0 0 4.15 6.5c.85.44 1.54.97 2.55.98v-.45a7.62 7.62 0 0 1-5.22-3.14c-.33-.48-.52-1.2-.71-1.75-.16-.42-.38-.82-.42-1.28-.08-.85-.16-1.67-.03-2.51.04-.27.04-.58.1-.84.07-.26.25-.43.18-.71h-.1ZM19.92 11.38c.1.28.28.5.35.8.25.97.25 2.26.03 3.24-.65 3-3.2 5.63-6.27 6.04v-.4h-.05c0 .22.02.43.05.65.47-.07.97-.24 1.45-.25v-.15c1.39-.06 2.8-1.47 3.56-2.53.27-.38.67-.71.68-1.21.36-.12.28-.66.6-.85.07-.67.4-1.31.45-2 .1-1.25-.27-2.29-.45-3.49l-.4.15Z"/><path fill="#B7F7DF" d="M5.68 11.33a7.9 7.9 0 0 0 .11 5.3c.2.53.38 1.26.72 1.74a7.4 7.4 0 0 0 4.51 2.9c.25.06.45.18.7.2v-.56c-.68 0-1.08-.2-1.7-.43a6.52 6.52 0 0 1-4.19-5.2 7.94 7.94 0 0 1-.03-2.35c.06-.4.3-.85.3-1.25 0-.21-.25-.3-.42-.35ZM19.68 11.53a7.3 7.3 0 0 1 .06 4.8c-.21.55-.52 1.06-.8 1.59-.4.74-1.07 1.8-1.96 2-.46.85-2.1 1.12-2.95 1.3v.24a5.43 5.43 0 0 0 2-.63c.9-.43 1.8-.97 2.47-1.74.12-.13.13-.32.24-.47 1.3-1.91 2.05-4.04 1.56-6.4-.06-.29-.23-.51-.32-.79l-.3.1Z"/><path fill="#C6F9E6" d="M6.13 11.58c-.23.95-.45 1.8-.42 2.8a6.68 6.68 0 0 0 4.27 6.1c.63.23 1.04.43 1.75.43-.06-.33-.58-.3-.85-.4-.81-.26-1.5-.54-2.15-1.11a7.4 7.4 0 0 1-2.3-7.67l-.3-.15ZM16.02 19.67c-.32.57-1.41.76-2 .94v-1.14h-.04c0 .57-.06 1.18.05 1.74.75-.1 1.6-.34 2.26-.72.26-.14.59-.28.68-.57.88-.11 1.59-1.25 1.97-1.95.28-.53.59-1.04.8-1.6.6-1.6.35-3.2-.02-4.79-.16.04-.38.1-.42.3-.06.25.11.55.16.8.11.5.2 1.07.14 1.59-.06.55-.06 1.1-.2 1.65-.38 1.46-1.78 3.53-3.38 3.75Z"/><path fill="#D8FBEE" d="M6.38 11.78c-.62 2.98.19 6.39 2.95 8.12.7.44 1.58.66 2.4.81v-.95c-1.03-.02-1.7-.6-2.45-1.2-.2-.15-.49-.18-.66-.36-1.53-1.55-1.88-3.96-1.39-6.02-.29-.14-.53-.34-.85-.4ZM18.28 16.97h-.1c-.04.44-.5.9-.8 1.2a7.08 7.08 0 0 1-3.35 1.9v.54c.51-.12 1.8-.4 2-.95.82-.05 1.48-.7 2-1.27 1.7-1.9 1.76-4.2 1.25-6.56-.22.06-.54.17-.54.44 0 .89.3 1.68.17 2.6a7 7 0 0 1-.36 1.4c-.09.23-.27.45-.27.7Z"/><path fill="#EAFDF6" d="M18.68 12.13c-.3.17-.6.35-.9.5-.01.07-.02.08-.05.15v.05c.24.42.42 1.75.05 2.14v.05l.1.05-.15.2c0 .17-.04.34 0 .5a.57.57 0 0 0-.25.55l-.15.1v.05h.1v.05c-.19.11-.31.28-.3.5-.12.01-.12 0-.1.1-.1.05-.17.13-.25.2l.05.1c-.28.16-.41.42-.75.45-.44.57-1.34.97-2.05 1v-2.5h-.05l.05 3.7a6.35 6.35 0 0 0 3.35-1.85c.3-.3.79-.8.8-1.25h.1c.03-.39.35-.82.47-1.2.31-1.02.44-2.67-.07-3.64ZM7.18 12.23c0 .96-.3 2.06-.12 3a5.7 5.7 0 0 0 1.56 3c.18.17.46.21.65.38.74.6 1.44 1.15 2.46 1.16 0-.26.02-.51-.05-.75-.1 0-.08 0-.15.05l-.05-.15c-.74 0-1.57-.43-2-1l-.2.05c-.08-.13-.23-.19-.25-.35-.42-.35-.47-1.11-.9-1.45.04-.39-.22-.94-.29-1.34-.02-.15.02-.34-.11-.4.03-.18-.02-.34.05-.5-.2-.35-.06-.65.05-1h-.1l.1-.4c-.22-.1-.41-.25-.65-.3Z"/><path fill="#77F0C2" d="M12.16 12.4c-.02.02.03.01.04.01.02-.02-.04-.02-.04-.02Zm1.35 0c-.02.02.03.01.03.01.03-.02-.03-.02-.03-.02Z"/><path fill="#54ECB3" d="M12.36 12.45c-.02.02.03.01.03.01.03-.02-.03-.02-.03-.01Z"/><path fill="#A9F5D8" d="M12.43 12.43v.05h.15a.36.36 0 0 0-.15-.05Z"/><path fill="#C6F9E6" d="M13.16 12.45c-.02.02.03.01.04.01.02-.02-.04-.02-.04-.01Z"/><path fill="#77F0C2" d="M13.23 12.43v.05h.15a.36.36 0 0 0-.15-.05Z"/><path fill="#28E79F" d="M12.73 12.48v.05h.35c-.12-.05-.23-.05-.35-.05Z"/><path fill="#fff" d="M7.83 12.58c-.05.12-.08.22-.1.35h.1c-.13.3-.3.7-.05 1-.1.16-.04.31-.05.5.12.22.07.49.12.73.07.34.25.67.28 1.01.33.4.45 1.2.9 1.45 0 .17.14.22.25.35l.2-.05c.3.57 1.36 1.1 2 1 0 .09 0 .07.05.15h.2c0-1.13.24-2.58-.16-3.65-.4-1.07-1.46-1.55-2.4-2.09-.43-.25-.87-.55-1.34-.75ZM14.03 18.87c.65-.02 1.73-.39 2.05-1 .33.03.51-.25.75-.45l-.05-.1c.16-.07.18-.28.35-.3.04-.2.14-.36.3-.5-.03-.06-.03-.05-.1-.1l.15-.1c0-.21.1-.4.25-.55v-.5c.1-.05.15-.18.05-.25v-.05c.16-.09.12-.33.15-.5.06-.4.12-1.34-.2-1.64v-.05c.08-.03.07-.02.1-.1-.43.12-.82.41-1.2.63-1 .57-2.13 1.08-2.5 2.26-.31.98-.1 2.27-.1 3.3Z"/><path fill="#9AF4D2" d="M11.65 15.66s0 .05.01.03c0 0 0-.06-.01-.03Z"/><path fill="#88F2CA" d="M14.04 15.8s0 .06.02.04c0 0 0-.06-.02-.04Zm-2.35.05s0 .06.02.04c0 0 0-.06-.02-.04Z"/><path fill="#38E9A7" d="M11.74 16.05s0 .06.02.04c0 0 0-.06-.02-.04Z"/><path fill="#65EDBA" d="M13.98 16.02v.15h.05a.35.35 0 0 0-.05-.15Z"/><path fill="#77F0C2" d="M11.73 16.12v.15h.05a.35.35 0 0 0-.05-.15Z"/><path fill="#C6F9E6" d="M13.98 16.17v.2h.05a.53.53 0 0 0-.05-.2Z"/><path fill="#9AF4D2" d="M11.73 16.27v3.9h.05v-2.7c0-.36.09-.87-.05-1.2Z"/><path fill="#38E9A7" d="M.35 19.7s0 .05.02.03c0 0 0-.05-.02-.03Z"/><path fill="#54ECB3" d="M25.47 19.71v.15h.05a.35.35 0 0 0-.05-.15Z"/><path fill="#65EDBA" d="M.35 19.8s0 .05.02.03c0 0 0-.05-.02-.03Z"/><path fill="#9AF4D2" d="M.35 19.9s0 .05.02.03c0 0 0-.05-.02-.03Z"/><path fill="#C6F9E6" d="M25.49 19.9s0 .05.02.03c0 0 0-.05-.02-.03Z"/><path fill="#77F0C2" d="M.38 20.06v.15h.05a.35.35 0 0 0-.05-.15Zm25.05 0v.15h.05a.35.35 0 0 0-.05-.15Zm-13.7.1v1.1h.05c0-.33.08-.79-.05-1.1ZM.45 20.3s0 .05.02.03c0 0 0-.05-.02-.03Z"/><path fill="#65EDBA" d="M11.73 21.26v1h.05c0-.3.07-.71-.05-1Z"/><path fill="#88F2CA" d="M12.21 27.92c-.02.02.03.02.04.01.02-.02-.03-.02-.04-.01Zm1.22-.02v.05h.15a.35.35 0 0 0-.15-.05Z"/><path fill="#9AF4D2" d="M12.43 27.95V28h.15a.35.35 0 0 0-.15-.05Z"/><path fill="#28E79F" d="M12.58 27.95V28h.45c-.15-.06-.3-.05-.45-.05Z"/><path fill="#54ECB3" d="M13.03 27.95V28h.15a.35.35 0 0 0-.15-.05Z"/><path fill="#9AF4D2" d="M13.21 27.97c-.02.02.03.02.04.01.02-.02-.03-.02-.04-.01Z"/></svg>