<svg xmlns="http://www.w3.org/2000/svg" width="80" height="28" fill="none"><path fill="#EB0029" d="M21.143 3.891 0 0l11.126 28L26.63 9.11l-5.486-5.219Zm-.34 1.717 3.234 3.073-8.848 1.603 5.613-4.676ZM13.268 9.96 3.944 2.228l15.241 2.804-5.916 4.93Zm-.664 1.37L11.085 23.9 2.886 3.27l9.72 8.06Zm1.407.666 9.796-1.774-11.236 13.691 1.44-11.917Z"/><path fill="#fff" d="M37.122 11.766H35.94V19.5h1.182v-7.734ZM42.43 8.492h-9.657v1.183h9.657V8.492ZM39.265 11.766h-1.183V19.5h1.183v-7.734ZM71.996 19.512h1.196v-4.66l-1.196-1.33v5.99Z"/><path fill="#fff" d="M78.29 8.492v8.636l-8.458-9.399v11.783h1.196v-8.643l8.459 9.402V8.492h-1.198ZM62.093 8.485a5.517 5.517 0 0 0-5.511 5.51 5.517 5.517 0 0 0 5.51 5.511 5.517 5.517 0 0 0 5.511-5.51 5.517 5.517 0 0 0-5.51-5.51Zm0 9.833a4.328 4.328 0 0 1-4.325-4.324 4.327 4.327 0 0 1 4.325-4.324 4.327 4.327 0 0 1 4.324 4.324 4.328 4.328 0 0 1-4.325 4.324Z"/><path fill="#fff" d="M62.093 13.202a.797.797 0 0 0-.794.794c0 .437.357.794.794.794a.794.794 0 0 0 0-1.588ZM54.508 11.87c0-1.863-1.506-3.378-3.356-3.378h-6.304v11.02h1.177V9.687h5.127c1.187 0 2.153.979 2.153 2.18 0 1.196-.953 2.171-2.129 2.184l-4.183-.002v5.46h1.177v-4.264h2.758l2.252 4.263h1.367l-2.351-4.43a3.397 3.397 0 0 0 2.312-3.209Z"/></svg>
