<svg xmlns="http://www.w3.org/2000/svg" width="123" height="32" fill="none"><g clip-path="url(#a)"><mask id="b" width="122" height="32" x="0" y="0" maskUnits="userSpaceOnUse" style="mask-type:luminance"><path fill="#fff" d="M121.8 0H.2v32h121.6V0Z"/></mask><g mask="url(#b)"><path fill="#2F2F2F" d="M5.3 0h22a5 5 0 0 1 5.1 5v22a5 5 0 0 1-5 5h-22a5 5 0 0 1-5-5V5a5 5 0 0 1 5-5Z"/><path fill="url(#c)" d="M5.3 0h22a5 5 0 0 1 5.1 5v22a5 5 0 0 1-5 5h-22a5 5 0 0 1-5-5V5a5 5 0 0 1 5-5Z"/><path fill="#FFD500" d="M19 12.1h-3.7l6.9-6.2c.3-.4 1-.4 1.2 0L25 7.6c.1.3 0 .6-.1.9l-2.2 3c-.9 1.2-2.3.7-3.7.6Z"/><path fill="url(#d)" d="M19 12.1h-3.7l6.9-6.2c.3-.4 1-.4 1.2 0L25 7.6c.1.3 0 .6-.1.9l-2.2 3c-.9 1.2-2.3.7-3.7.6Z"/><path fill="#1389EA" d="M18.5 24.6 15.8 27a.9.9 0 0 1-1.4-.6V11.9l4 2.4c.2.2.3.4.3.7v9c0 .2 0 .5-.2.6Z"/><path fill="url(#e)" d="M18.5 24.6 15.8 27a.9.9 0 0 1-1.4-.6V11.9l4 2.4c.2.2.3.4.3.7v9c0 .2 0 .5-.2.6Z"/><path fill="#FFD500" d="M18.7 20v-5c0-.3-.1-.5-.3-.7l-7.7-4.9-2 2.8c-.3.4-.2 1 .2 1.2l9.8 6.6Z"/><path fill="url(#f)" d="M18.7 20v-5c0-.3-.1-.5-.3-.7l-7.7-4.9-2 2.8c-.3.4-.2 1 .2 1.2l9.8 6.6Z"/><path fill="#1389EA" d="M21.3 12.7H9c-.3 0-.5-.2-.3-.5l2.6-3.5c.1-.2.4-.4.7-.4h13l-2.9 4c-.2.3-.4.4-.7.4Z"/><path fill="url(#g)" d="M21.3 12.7H9c-.3 0-.5-.2-.3-.5l2.6-3.5c.1-.2.4-.4.7-.4h13l-2.9 4c-.2.3-.4.4-.7.4Z"/><path fill="url(#h)" d="M21.3 12.7H9c-.3 0-.5-.2-.3-.5l2.6-3.5c.1-.2.4-.4.7-.4h13l-2.9 4c-.2.3-.4.4-.7.4Z"/><path fill="#F7F7F7" d="M20 16.8V15H21.2l.2.3.1.3v.4l-.3.2a1 1 0 0 1-.4 0h-.6l.1-.1v.7H20Zm.3-.7-.1-.1h.6l.3-.1v-.5l-.3-.1h-.6l.1-.2v1ZM20 19.2v-1.7h.3v1.4h1.2v.3H20ZM20.8 21.8l-.6-.2-.2-.6v-1h.3v1l.1.4h.7l.1-.4v-1h.3v1c0 .2 0 .4-.2.6l-.5.2ZM20.8 24.3l-.4-.1c-.2 0-.3 0-.3-.2v-.2l.3.1a1 1 0 0 0 .6 0h.1V23.6h-.2l-.2-.1h-.2l-.2-.1-.1-.2v-.5l.2-.2h.7l.3.1-.1.3a1 1 0 0 0-.5-.2h-.2l-.1.1V23.1h.1l.2.1h.3l.2.2.1.1v.5l-.2.2a1 1 0 0 1-.4 0Z"/><path fill="#F2F2F2" d="M43.9 22.5V13H40v-2.2h10.2V13h-3.7v9.5h-2.7ZM52 22.5V10.8h5.1c1 0 2 .2 2.7.5a4 4 0 0 1 1.8 1.5c.4.6.6 1.4.6 2.2a4 4 0 0 1-.6 2.3c-.4.6-1 1-1.8 1.4-.7.3-1.6.5-2.7.5h-3.5l1.2-1.2v4.5H52Zm2.8-4.2-1.2-1.2H57c.8 0 1.4-.2 1.8-.6.5-.3.7-.8.7-1.5 0-.6-.2-1.1-.7-1.5-.4-.3-1-.5-1.8-.5h-3.4l1.2-1.3v6.6Zm4.7 4.2-3-4.3h3l3 4.3h-3ZM69.8 22.7c-1.6 0-2.9-.5-3.8-1.4-1-1-1.4-2.3-1.4-4v-6.5h2.7v6.5c0 1 .2 1.9.7 2.3.4.5 1 .8 1.9.8.8 0 1.4-.3 1.9-.8.4-.4.7-1.2.7-2.3v-6.5H75v6.5c0 1.7-.5 3-1.4 4-1 .9-2.2 1.4-3.9 1.4ZM82 22.7c-1 0-1.9-.2-2.7-.4-.9-.3-1.6-.6-2-1l.8-2 1.8.9 2 .3c.6 0 1 0 1.4-.2.3 0 .5-.2.7-.4l.2-.6c0-.4-.1-.6-.3-.8a3 3 0 0 0-1-.4l-1.3-.4-1.5-.3-1.3-.6-1-1a3 3 0 0 1-.3-1.5c0-.7.1-1.3.5-1.9.4-.5.9-1 1.6-1.3.7-.3 1.7-.5 2.8-.5a9 9 0 0 1 2.1.3c.8.2 1.4.4 2 .8l-1 2a6.8 6.8 0 0 0-3.2-1c-.5 0-1 .1-1.2.3-.4 0-.6.2-.7.4a1 1 0 0 0-.3.7c0 .3.2.6.4.7l1 .5a29.7 29.7 0 0 0 2.7.7c.5.2 1 .3 1.4.6a2.8 2.8 0 0 1 1.3 2.5c0 .6-.2 1.2-.5 1.7-.4.6-1 1-1.7 1.4-.7.3-1.6.5-2.7.5ZM91.3 22.5V13h-3.7v-2.2h10.2V13H94v9.5h-2.7ZM102.2 20.3h6.4v2.2h-9V10.8h8.8V13h-6.2v7.3Zm-.2-4.8h5.7v2.1H102v-2.1ZM113.8 20.3h6.3v2.2h-9V10.8h8.8V13h-6.1v7.3Zm-.2-4.8h5.6v2.1h-5.6v-2.1Z"/></g></g><defs><linearGradient id="c" x1="16.4" x2="16.4" y1="32" y2="0" gradientUnits="userSpaceOnUse"><stop stop-opacity="0"/><stop offset="1" stop-color="#F7F7F7" stop-opacity=".2"/></linearGradient><linearGradient id="d" x1="20.1" x2="20" y1="8.8" y2="6.2" gradientUnits="userSpaceOnUse"><stop stop-opacity=".3"/><stop offset="1" stop-color="#FFD500" stop-opacity="0"/></linearGradient><linearGradient id="e" x1="15.4" x2="16.7" y1="27.1" y2="16.7" gradientUnits="userSpaceOnUse"><stop stop-color="#1389EA" stop-opacity="0"/><stop offset=".8" stop-opacity=".2"/></linearGradient><linearGradient id="f" x1="11" x2="18.9" y1="11.7" y2="18.2" gradientUnits="userSpaceOnUse"><stop offset=".1" stop-opacity=".3"/><stop offset="1" stop-color="#FFD500" stop-opacity="0"/></linearGradient><linearGradient id="g" x1="15.9" x2="8.4" y1="10.5" y2="10.5" gradientUnits="userSpaceOnUse"><stop offset="0" stop-color="#1389EA" stop-opacity="0"/><stop offset="1" stop-opacity=".2"/></linearGradient><linearGradient id="h" x1="16.6" x2="24.2" y1="10.5" y2="10.5" gradientUnits="userSpaceOnUse"><stop offset=".2" stop-color="#1389EA" stop-opacity="0"/><stop offset="1" stop-opacity=".2"/></linearGradient><clipPath id="a"><path fill="#fff" d="M.2 0h122v32H.2z"/></clipPath></defs></svg>