<svg xmlns="http://www.w3.org/2000/svg" width="20" height="20" fill="none" viewBox="0 0 20 20">
  <rect width="20" height="20" fill="#FB9600" rx="4"/>
  <g clip-path="url(#a)">
    <path fill="#fff" d="M3.417 4.777c-.085.026-.155.059-.155.073 0 .018 1.46 1.492 3.247 3.279l3.244 3.246.14.02c.326.044.074.27 3.623-3.284 1.775-1.778 3.226-3.246 3.226-3.26 0-.015-.076-.05-.17-.077-.155-.044-.738-.047-6.588-.044-5.7.003-6.432.006-6.567.047Zm-.847.805c-.052.12-.055.308-.064 4.357-.006 3.697 0 4.25.038 4.38.023.081.056.17.073.193.024.035.487-.413 2.307-2.233L7.204 10 4.931 7.73a221.855 221.855 0 0 0-2.288-2.27c-.012 0-.044.055-.074.122ZM15.072 7.73 12.8 10l2.28 2.28c1.82 1.819 2.283 2.267 2.306 2.232a.89.89 0 0 0 .073-.194c.038-.128.044-.682.038-4.38-.008-4.048-.011-4.236-.064-4.356-.03-.067-.062-.123-.073-.123-.01 0-1.04 1.023-2.29 2.27Z"/>
    <path fill="#fff" d="M5.51 12.871c-1.237 1.24-2.248 2.265-2.248 2.28 0 .014.076.05.17.076.155.043.741.046 6.57.046 5.829 0 6.415-.002 6.57-.046.094-.027.17-.062.17-.077 0-.014-1.014-1.043-2.254-2.288l-2.253-2.261-.715.706c-.604.6-.742.72-.903.796a1.381 1.381 0 0 1-1.228.003c-.164-.079-.298-.196-.9-.793a21.548 21.548 0 0 0-.72-.698c-.006 0-1.026 1.014-2.26 2.256Z"/>
  </g>
  <defs>
    <clipPath id="a">
      <path fill="#fff" d="M2.5 2.5h15.004v15H2.5z"/>
    </clipPath>
  </defs>
</svg>
