<svg xmlns="http://www.w3.org/2000/svg" width="20" height="20" fill="none" viewBox="0 0 20 20">
  <rect width="20" height="20" fill="#9A75BB" rx="4"/>
  <path fill="#fff" d="M3.523 15.094A1.138 1.138 0 0 0 4.93 16.58l1.281-.4a.8.8 0 0 1 .602.035c.99.517 2.091.786 3.208.785.495 0 .989-.052 1.473-.152A7.003 7.003 0 0 0 16.115 6.54a7.002 7.002 0 0 0-12.222 6.841.772.772 0 0 1 .032.642l-.402 1.07Zm.52-5.805a6.033 6.033 0 0 1 8.61-4.737 6.035 6.035 0 0 1 1.677 9.681 6.036 6.036 0 0 1-7.065 1.116 1.69 1.69 0 0 0-.78-.188c-.192 0-.381.03-.564.088l-1.281.4a.162.162 0 0 1-.2-.212l.398-1.072a1.742 1.742 0 0 0-.09-1.456A6.019 6.019 0 0 1 4.04 9.29h.003Z"/>
  <path fill="#fff" d="M8.066 8.543a.488.488 0 0 0 .488-.488 1.464 1.464 0 1 1 2.024 1.353 1.737 1.737 0 0 0-1.047 1.627v.924a.488.488 0 0 0 .976 0v-.924a.774.774 0 0 1 .444-.725 2.44 2.44 0 1 0-3.373-2.255.488.488 0 0 0 .488.488Zm1.952 6.018a.65.65 0 1 0 0-1.301.65.65 0 0 0 0 1.301Z"/>
</svg>
