<svg xmlns="http://www.w3.org/2000/svg" width="20" height="20" fill="none" viewBox="0 0 20 20">
  <rect width="20" height="20" fill="#6696D6" rx="4"/>
  <path fill="#fff" d="M15.501 3.125H8.793A2.004 2.004 0 0 0 6.79 5.129v3.245a3.537 3.537 0 0 1 3.655 2.048h2.567l-.176.453a.326.326 0 0 0 .475.396l1.386-.85h.805a2.004 2.004 0 0 0 2.004-2.003v-3.29a2.004 2.004 0 0 0-2.004-2.003Zm-4.865 3.982a.448.448 0 0 1-.171.172.608.608 0 0 1-.84-.84c.04-.07.1-.13.172-.17a.608.608 0 0 1 .84.838Zm2.016 0a.447.447 0 0 1-.171.172.608.608 0 0 1-.839-.84c.04-.07.1-.13.172-.17a.608.608 0 0 1 .838.838Zm2.017 0a.448.448 0 0 1-.172.172.608.608 0 0 1-.839-.84c.04-.07.1-.13.172-.17a.608.608 0 0 1 .839.838Zm-5.021 5.62h-.004a.376.376 0 0 0-.37.38v3.426c0 .206.164.379.37.379h.004a2.093 2.093 0 1 0 0-4.184Zm-5.055 0h.004c.206 0 .37.174.37.38v3.426a.376.376 0 0 1-.37.379h-.004a2.093 2.093 0 1 1 0-4.184Z"/>
  <path stroke="#fff" stroke-miterlimit="10" stroke-width=".679" d="M4.547 15v-3.04a2.578 2.578 0 0 1 5.156 0V15"/>
</svg>
