<svg xmlns="http://www.w3.org/2000/svg" width="20" height="20" fill="none" viewBox="0 0 20 20">
  <rect width="20" height="20" fill="#F28984" rx="4"/>
  <path fill="#fff" d="M10 13.315c.368 0 .663-.369.663-.737v-2.8c0-.369-.295-.663-.664-.737-.368 0-.663.368-.663.737v2.8c0 .368.295.663.663.737Zm0-5.599c.368 0 .663-.368.663-.736a.66.66 0 0 0-.664-.664c-.368 0-.663.369-.663.664 0 .368.295.736.663.736Z"/>
  <path fill="#fff" d="M10.002 17A6.951 6.951 0 0 1 3 10c0-3.905 3.096-7 7.002-7a6.951 6.951 0 0 1 7.002 7c0 3.832-3.17 7-7.002 7Zm0-12.895c-3.243 0-5.896 2.653-5.896 5.895 0 3.242 2.653 5.895 5.896 5.895s5.896-2.653 5.896-5.895a5.866 5.866 0 0 0-5.896-5.895Z"/>
</svg>
