<svg xmlns="http://www.w3.org/2000/svg" width="20" height="20" fill="none"><rect width="20" height="20" fill="#4E94FF" rx="4"/><path fill="#fff" stroke="#fff" stroke-width=".2" d="m12.916 16.227.826-10.962a.355.355 0 0 0-.378-.263.35.35 0 0 0-.316.334l-.1-.005-.381 7.573-.486-1.812v-.003a.459.459 0 0 0-.44-.326h-.793l-.587-2.158a.456.456 0 0 0-.44-.338h-.004a.456.456 0 0 0-.427.36l-.701 3.22-.663-1.757a.452.452 0 0 0-.428-.294H2.852a.453.453 0 0 0 0 .903h4.44l1.091 2.896c.07.194.262.305.452.294h.005a.465.465 0 0 0 .412-.36l.625-2.903.191.703v.002a.456.456 0 0 0 .43.335h.803l1.14 4.23a.44.44 0 0 0 .431.33h.044Zm.923-10.987-.615 10.553.1.005.389-7.564.864 3.243.001.003a.459.459 0 0 0 .439.326h2.136a.453.453 0 0 0 0-.902h-1.796L13.84 5.24Z"/><path stroke="#fff" stroke-width=".2" d="m12.916 16.227.826-10.962a.355.355 0 0 0-.378-.263.35.35 0 0 0-.316.334l-.1-.005-.381 7.573-.486-1.812v-.003a.459.459 0 0 0-.44-.326h-.793l-.587-2.158a.456.456 0 0 0-.44-.338h-.004a.456.456 0 0 0-.427.36l-.701 3.22-.663-1.757a.452.452 0 0 0-.428-.294H2.852a.453.453 0 0 0 0 .903h4.44l1.091 2.896c.07.194.262.305.452.294h.005a.465.465 0 0 0 .412-.36l.625-2.903.191.703v.002a.456.456 0 0 0 .43.335h.803l1.14 4.23a.44.44 0 0 0 .431.33h.044Zm.923-10.987-.615 10.553.1.005.389-7.564.864 3.243.001.003a.459.459 0 0 0 .439.326h2.136a.453.453 0 0 0 0-.902h-1.796L13.84 5.24Z"/></svg>
