<svg width="91" height="24" fill="none" xmlns="http://www.w3.org/2000/svg"><path fill-rule="evenodd" clip-rule="evenodd" d="M9.745 23.396v-.02c1.112-.033 2.565-.05 4.36-.05l.45.001a123.9 123.9 0 0 1 4.172.069v-1.328a31.635 31.635 0 0 1-1.454-.138c-.404-.08-.675-.166-.813-.258a.61.61 0 0 1-.225-.276c-.081-.173-.127-.529-.139-1.07a83.609 83.609 0 0 1-.069-3.085v-2.897c-.012-1.61.023-2.529.104-2.759.138-.39.473-.778 1.004-1.164.53-.384 1.2-.577 2.008-.577.807 0 1.454.193 1.938.578.485.385.805.893.96 1.525.157.633.235 1.955.235 3.966v1.362l-.087 2.828a261.87 261.87 0 0 1-.225 2.982l.312.31a31.8 31.8 0 0 1 2.977-.12c.992 0 2.273.04 3.843.12v-1.327a25.61 25.61 0 0 0-.97-.086c-.53-.034-.874-.118-1.03-.25-.155-.132-.26-.428-.311-.888-.052-.46-.084-1.66-.096-3.603l-.017-1.776c0-.196.006-.362.017-.5.024-.357.035-1.19.035-2.5 0-1.161-.086-2.015-.26-2.56-.173-.547-.473-1.07-.9-1.57a4.38 4.38 0 0 0-1.566-1.164c-.617-.275-1.544-.413-2.778-.413-.462 0-.822.026-1.082.077a5.88 5.88 0 0 0-.96.302l-3.151 2.517V6.878l-.467-.207c-.831.38-1.575.656-2.233.828-.658.172-2.037.437-4.137.793V9.62c1.085.034 1.737.092 1.956.172.138.046.24.118.303.216s.112.514.147 1.25c.07 1.46.104 2.7.104 3.724v2.47a44.301 44.301 0 0 1-.018 1.358l-.069 1.534c-.011.61-.075 1.023-.19 1.241a.662.662 0 0 1-.364.294c-.27.098-.708.158-1.314.18v-.008c-1.2-.046-1.956-.144-2.267-.293-.139-.069-.231-.207-.277-.414-.093-.368-.139-1.552-.139-3.552V11.93c0-1.575.07-3.258.208-5.052l-.416-.224c-1.05.426-2.019.742-2.908.949-.888.206-2.204.402-3.946.586v1.31c1.339.012 2.123.092 2.354.242.104.068.179.218.225.448.098.464.15 2.298.155 5.5v.936c-.004 2.446-.061 3.973-.172 4.581-.046.3-.162.503-.346.612-.185.11-.924.21-2.216.302v1.276c1.27-.046 2.735-.069 4.397-.069 1.711 0 3.309.018 4.793.054v.015l.232-.009.323.009Zm-.555-.015v-1.313c.198 0 .384-.003.555-.009v1.318l-.323.01-.232-.006Zm30.004-3.502c-.693 1.758-1.19 2.977-1.49 3.655h-3.028a228.447 228.447 0 0 0-2.112-5.483l-2.285-5.759a87.799 87.799 0 0 0-1.16-2.672c-.184-.402-.375-.667-.57-.793-.312-.184-.82-.282-1.524-.293V7.189c1.639.034 3.243.051 4.812.051 1.477 0 2.931-.017 4.362-.051V8.55c-.67 0-1.264.046-1.783.138a.615.615 0 0 0-.337.18.445.445 0 0 0-.113.303l.07.31.674 2.086 1.385 3.604.675 1.69c.404 1.034.67 1.695.796 1.982l1.125-2.586 1.056-2.57c.693-1.62 1.16-2.833 1.403-3.637.115-.402.172-.696.172-.88 0-.183-.086-.324-.26-.422-.172-.098-.836-.17-1.99-.215V7.189c1.189.034 2.302.051 3.341.051.992 0 2.175-.017 3.548-.051v1.38c-.865.103-1.376.189-1.531.258-.156.069-.298.207-.425.414-.242.367-.744 1.402-1.506 3.103l-1.627 3.655-.692 1.518c-.3.666-.629 1.454-.986 2.362Zm13.698 4.12c.958 0 1.812-.097 2.562-.293a11.486 11.486 0 0 0 2.925-1.276l.762-1.69-.416-.482c-.9.448-1.627.744-2.18.888a7.232 7.232 0 0 1-1.818.215c-1.523 0-2.804-.526-3.843-1.577-1.038-1.052-1.604-2.486-1.696-4.302h1.142c.185 0 .352-.006.502-.017.15-.012.935-.023 2.355-.035 1.419-.011 2.561-.051 3.427-.12.277-.012.808-.092 1.592-.242a12.742 12.742 0 0 0 1.316-.31c.023-.299.034-.61.034-.931 0-1.425-.204-2.638-.614-3.638-.41-1-1.11-1.822-2.103-2.466-.993-.643-2.262-.965-3.808-.965l-.114-.002c-.516-.012-2.267-.05-3.729.554-1.5.62-2.656 2.003-2.918 2.354-.436.585-.853 1.586-.977 1.956-.403 1.184-.605 2.529-.605 4.034 0 1.035.103 1.989.311 2.863a6.665 6.665 0 0 0 1.013 2.31 7.334 7.334 0 0 0 1.627 1.69c.617.46 1.361.822 2.233 1.086.871.264 1.878.396 3.02.396Zm-3.826-10.396c.681.103 1.818.155 3.41.155 1.016 0 1.864-.052 2.545-.155.046-1.828-.202-3.11-.744-3.845-.554-.724-1.27-1.086-2.147-1.086-.9 0-1.644.379-2.233 1.138-.6.77-.877 2.034-.83 3.793Zm21.013 9.793 2.458-.017c.323 0 .9-.029 1.73-.086l.122-.138c.034-1.322.167-3.087.398-5.294h-1.42c-.357 1.84-.6 2.874-.727 3.104a.372.372 0 0 1-.207.19c-.162.069-.964.155-2.406.258-.646.035-1.904.052-3.774.052l-1.28-.017c.242-.38 1.234-1.802 2.977-4.268 1.742-2.465 3.894-5.388 6.456-8.767V7.19c-3.046.08-4.818.12-5.314.12l-6.63-.068-1.626-.087-.26.018-.156.155c.012.471.017.793.017.965v.03c-.003.295-.05 1.544-.138 3.746h1.367c.104-.551.202-1.143.295-1.776.057-.425.144-.698.26-.819.115-.12.438-.198.969-.232.865-.07 1.996-.104 3.392-.104h2.025a340.582 340.582 0 0 1-7.2 9.949c-1.327 1.77-2.14 2.822-2.44 3.155v1.155c.322-.023 1.407-.052 3.253-.086 1.686-.032 2.718-.049 3.095-.051h.09c.681 0 1.408.016 2.181.05 1.489.058 2.32.087 2.493.087Zm18.528-.017-2.458.017c-.172 0-1.004-.029-2.492-.086a49.22 49.22 0 0 0-2.181-.052h-.09c-.378.003-1.41.02-3.095.052-1.846.034-2.931.063-3.254.086v-1.155c.3-.334 1.113-1.385 2.44-3.155a340.76 340.76 0 0 0 7.201-9.949h-2.025c-1.397 0-2.527.035-3.393.104-.53.034-.854.112-.97.232-.115.121-.201.394-.259.82-.092.632-.19 1.224-.294 1.775H76.37c.088-2.202.134-3.451.138-3.746v-.03c0-.172-.006-.494-.017-.965l.156-.155.26-.018 1.626.087 6.63.069c.496 0 2.267-.04 5.314-.121v1.224c-2.562 3.38-4.715 6.302-6.457 8.767-1.742 2.466-2.735 3.889-2.977 4.268l1.28.017c1.87 0 3.128-.017 3.774-.052 1.443-.103 2.244-.19 2.406-.258a.371.371 0 0 0 .208-.19c.127-.23.37-1.264.727-3.104h1.42c-.231 2.207-.364 3.972-.399 5.294l-.121.138c-.83.057-1.408.086-1.73.086Z" fill="#2B2B37"/><path d="M4.742 5.293c.739 0 1.365-.258 1.878-.776.514-.517.77-1.143.77-1.879 0-.724-.256-1.345-.77-1.862A2.546 2.546 0 0 0 4.742 0c-.738 0-1.364.259-1.878.776a2.549 2.549 0 0 0-.77 1.862c0 .736.26 1.362.779 1.88.519.517 1.142.775 1.87.775Z" fill="#F7AF00"/></svg>