<svg xmlns="http://www.w3.org/2000/svg" width="144" height="20" fill="none"><path fill="#6001D2" fill-rule="evenodd" d="M25.7.9V16h3.7V9.8l.2-.3c.3-.6.5-.7 1.2-.7l.7.1.4.5.1.3V16h3.8v-3.8c0-3.7 0-3.8-.2-4.3-.3-1.1-.9-2-1.7-2.3-.8-.4-1.6-.5-2.4-.4-.7.1-1.2.4-1.8 1l-.3.2V.8h-3.8Zm39.7.1a134.5 134.5 0 0 0-2.7 6.7 316.9 316.9 0 0 1-1 2.6h-.1H66l.2-.4A176.6 176.6 0 0 1 70 1V.8h-4.4V1ZM17.2 5.3c-1 .2-1.9.7-2.6 1.4a6 6 0 0 0-.4 7.8 5 5 0 0 0 2.5 1.7h2.6l1.2-.7.3-.3v.9h3.6V5.5h-3.6v1l-.2-.3-1.4-.8c-.5-.1-1.5-.2-2 0Zm24 0a5.5 5.5 0 0 0-4.6 5.3c0 1 0 1.4.3 2.2a5.5 5.5 0 0 0 4.3 3.5l2.5-.1a5.5 5.5 0 0 0 3.5-2.8c1-2 .8-4.3-.4-6a5.4 5.4 0 0 0-4.4-2.1h-1.2Zm12 0-1.7.5a5.3 5.3 0 0 0-3 5c0 .9 0 1 .2 1.5.5 2 2 3.3 3.9 3.9l1.6.1h1l.7-.2c.9-.3 1.5-.7 2.1-1.2.7-.7 1.2-1.4 1.5-2.3.7-2.3 0-4.8-1.9-6.2a6 6 0 0 0-4.4-1ZM1 5.5l.5 1.3a15.8 15.8 0 0 1 .4 1l.2.6A37.8 37.8 0 0 0 3.6 12a39.2 39.2 0 0 1 .8 1.8l1 2.5a126.2 126.2 0 0 1-1.6 3.7l2 .1h2l.2-.5 1.2-3 1.6-3.8a932.3 932.3 0 0 1 2.9-7.2H9.9l-.4.7a630 630 0 0 1-2 5.3l-.1.2v-.2a117.9 117.9 0 0 0-2.6-6H1ZM19.7 9c1.3.6 1.6 2.3.6 3.4s-3 .8-3.6-.6l-.1-.9c0-.5 0-.6.2-1a2 2 0 0 1 2-1.1c.4 0 .5 0 .9.2Zm23.3 0c.4 0 .9.6 1.1 1 .2.4.3 1.2 0 1.7-.1.4-.5.8-.9 1-.3.2-.4.3-.8.3-.6 0-1 0-1.4-.3-1-.7-1.2-2.3-.3-3.3.5-.6 1.5-.8 2.3-.5Zm11.6-.2A2 2 0 0 1 56 10c.2.3.2.4.2 1 0 .5 0 .6-.2.9-.2.4-.6.8-1 1l-.9.1c-.5 0-.6 0-.9-.2a2.2 2.2 0 0 1-.6-3.3c.4-.6 1.3-.9 2-.7Zm7.2 2.8c-.8.4-1.4 1-1.5 2-.2 1 .3 2 1.3 2.5 1.3.6 2.7 0 3.3-1.2.2-.3.2-.4.2-.9 0-.8-.2-1.4-.8-2-.4-.4-.8-.5-1.5-.5l-1 .1Z" clip-rule="evenodd"/><g fill="#fff"><path d="M78.6 2.7C78.4 1.6 79 .4 80 .1c1.6-.5 3 .5 3 2.1 0 1.5-1.7 2.6-3.1 2-.5-.3-1.2-1-1.3-1.5ZM70.8 4.8c0-2.3 1.2-4 3.2-4.6.6-.1 2.8-.1 3.2.1l.3.1v3.2h-.4c-1.4-.4-2.3 0-2.4 1.3v.5h2.6v3.1h-2.6v7.8h-4V8.7h-.2a3 3 0 0 0-.7 0h-.5V5.4H70.6c.1 0 .2-.2.2-.6ZM89.8 5.5l1-.3c1-.2 2.4.1 3.2.8l.9 1.3c.3 1 .4 1.7.4 5.4v3.6h-4v-3.4c0-3.2-.1-3.4-.3-3.7-.3-.4-1-.6-1.5-.4-.5.1-.8.5-1 1.1v6.5h-2l-2-.1V5.4h4v1.1h.2c0-.2.7-.8 1.1-1ZM114.9 6.1c.4-.5 1.1-.8 1.9-1 1.6-.2 3 .5 3.8 1.9.5 1 .6 1.5.5 5.6v3.7h-4v-3.4c0-3.2 0-3.4-.2-3.7-.7-.8-2-.6-2.4.4-.1.2-.2 1.5-.2 3.5v3.2h-3.9V5.4h3.8l.1.6c0 .6 0 .7.6.1ZM123.9 6.8a5.9 5.9 0 0 1 6.1-1.4l.7.2v3.6l-.2-.1-.7-.3c-2-.5-3.6.5-3.4 2.2 0 1.3 1 2 2.3 2 .7 0 1.7-.2 1.8-.4.2-.3.3.1.3 1.7 0 2 0 1.8-1 2-2.7.9-5.7-.3-6.8-2.6a6 6 0 0 1 .9-6.9ZM78.8 16.3V5.4h2c1.8 0 1.9 0 2 .2v10.7h-4Z"/><path fill-rule="evenodd" d="M100.1 5.3c-1.8.7-3 2-3.5 4-.2.8-.2 2.4 0 3.1.2.8.8 2 1.3 2.5 1.4 1.8 4.2 2.2 6 1l.6-.5c.2-.3.3-.2.3.4v.6h2l1.8-.1V5.4h-3.8v.4c0 .7 0 .7-.5.3l-1-.6c-.5-.2-.7-.3-1.7-.3l-1.5.1Zm3.4 7.6c1.8-.7 1.8-3.3 0-4a2.2 2.2 0 1 0-2 4 3 3 0 0 0 2 0ZM136.4 5.2a5.7 5.7 0 0 0-4.2 3 5.6 5.6 0 0 0-.6 3.4c.3 2.2 1.2 3.5 2.8 4.3.7.4 2.2.8 3 .8.8 0 2.3-.4 3-.7.7-.4 2-1.6 2-1.9a148.2 148.2 0 0 1-2.3-1c-.8-.4-1-.4-1-.2l-.5.4c-1.2.6-2.6.2-3.1-1-.2-.3-.2-.4 0-.4h7.6l-.1-1.2c-.2-2.6-1.3-4.3-3.5-5.2-1-.4-2-.5-3.1-.3Zm2.4 3.5a2.2 2.2 0 0 0-3 0c-.3.3-.4.8-.3.9h3.7l-.4-1Z" clip-rule="evenodd"/></g></svg>