<svg xmlns="http://www.w3.org/2000/svg" width="21" height="20" fill="none" viewBox="0 0 21 20">
  <rect width="20" height="20" x=".031" fill="#EE9A79" rx="4"/>
  <path fill="#fff" fill-rule="evenodd" d="M3.031 3.571c0-.315.256-.571.572-.571h2.41a.571.571 0 0 1 0 1.143H4.174v1.84a.571.571 0 0 1-1.143 0V3.57Zm10.447 0A.57.57 0 0 1 14.049 3h2.41c.316 0 .572.256.572.571v2.411a.571.571 0 1 1-1.143 0v-1.84H14.05a.571.571 0 0 1-.571-.57ZM5.888 6.43c0-.316.256-.572.572-.572h2.143c.315 0 .571.256.571.572v2.14a.571.571 0 0 1-.571.572H6.46a.571.571 0 0 1-.572-.572V6.43ZM7.031 7v1h1V7h-1Zm3.143-.571c0-.316.256-.572.572-.572h2.142c.316 0 .572.256.572.572V8.57a.571.571 0 0 1-.572.572h-2.143a.571.571 0 0 1-.57-.572V6.43ZM11.317 7v1h1V7h-1Zm-5.429 3.714c0-.315.256-.571.572-.571h2.143c.315 0 .571.256.571.571v2.143a.571.571 0 0 1-.571.572H6.46a.571.571 0 0 1-.572-.572v-2.143Zm1.143.572v1h1v-1h-1Zm3.35-.368c0-.316.256-.571.572-.571h.251a.571.571 0 0 1 0 1.142h-.251a.571.571 0 0 1-.571-.571Zm3.016-.571c.316 0 .572.255.572.571v2.396a.571.571 0 0 1-.572.571h-2.396a.571.571 0 1 1 0-1.143h1.825v-1.824a.57.57 0 0 1 .571-.571Zm-9.794 3.1a.57.57 0 0 1 .571.57v1.84h1.84a.571.571 0 0 1 0 1.143H3.602a.571.571 0 0 1-.572-.571v-2.411c0-.316.256-.572.572-.572Zm12.857 0a.57.57 0 0 1 .571.57v2.412a.571.571 0 0 1-.571.571h-2.41a.571.571 0 1 1 0-1.143h1.838v-1.84a.57.57 0 0 1 .572-.57Z" clip-rule="evenodd"/>
  <path fill="#fff" d="M7.031 8V7h1v1h-1Zm4.286 0V7h1v1h-1Zm-4.286 4.286v-1h1v1h-1Z"/>
</svg>
