<svg xmlns="http://www.w3.org/2000/svg" width="20" height="20" fill="none" viewBox="0 0 20 20">
  <rect width="20" height="20" fill="#D93B3B" rx="4"/>
  <path fill="#fff" d="m14.197 9.684-.035-.001a.401.401 0 0 0-.39.41.401.401 0 0 0 .665.29.4.4 0 0 0-.24-.699Zm-2.012.445-.035-.002a.4.4 0 1 0 .035.002Z"/>
  <path fill="#fff" d="M16.16 10.72c-.143-.873-.605-1.789-1.303-2.576-.902-1.019-2.051-1.659-3.088-1.73a1.78 1.78 0 0 0-.238-.388l-.752-.936c-.447-.555-1.196-.803-2.109-.697-.88.1-1.816.52-2.637 1.18-.818.656-1.429 1.482-1.714 2.32-.297.87-.217 1.656.23 2.209l.432.536c-.08.117-.146.242-.195.373l-.426 1.121c-.253.667-.087 1.438.467 2.173.534.709 1.37 1.302 2.352 1.677a5.696 5.696 0 0 0 2.138.384c.247-.007.491-.033.732-.082.9-.184 1.536-.653 1.789-1.317l.4-1.056c.075.028.154.054.23.074.304.092.62.136.938.13.492-.012.923-.168 1.258-.465l.9-.796c.532-.466.745-1.227.596-2.133Zm-4.973-4.49.036.044c.271.338.37.795.29 1.318l-.43-.534c.076-.267.108-.546.104-.828Zm-.257 1.28.46.572-.007.023a4.08 4.08 0 0 1-.372.783l-.488-.608c.16-.242.296-.5.407-.77Zm1.084 5.02-.589.522a5.45 5.45 0 0 1-.923-.786l.599-.53c.277.295.582.562.913.793Zm-1.236-3.296a5.453 5.453 0 0 1-.83.884l-.501-.622c.168-.144.743-.754.834-.874l.496.612Zm-1.119 2.64c.122.171.251.335.39.492a.798.798 0 0 1-.458.447l.024.047a.8.8 0 0 1-1.012 1.076l-.187-.07-.143.374-.374-.143.143-.373-.376-.143-.143.374-.374-.143.143-.374-.374-.143.143-.373.374.142.545-1.437a5.49 5.49 0 0 0 .486-.155l-.232.611.935.353a.403.403 0 0 0 .516-.23.406.406 0 0 0-.026-.333Zm-2.78-1.106c.287-.05.567-.127.84-.232l.488.608a3.924 3.924 0 0 1-.842.197c-.008 0-.015 0-.023.003l-.462-.575Zm1.717.218-.494-.615a5.97 5.97 0 0 0 1.034-.627l.501.622a5.421 5.421 0 0 1-1.041.62ZM5.454 9.148l1.15-2.72a.202.202 0 0 1 .146-.12l2.904-.538a.2.2 0 0 1 .234.159.23.23 0 0 1-.012.115l-1.149 2.72a.202.202 0 0 1-.146.12l-2.907.538a.2.2 0 0 1-.234-.159.2.2 0 0 1 .014-.115Zm1.383 2.204c-.528-.034-.953-.227-1.225-.565l-.036-.044c.252.063.51.089.767.08l.065-.002.43.531Zm-2.103.925.02-.053c.08.268.2.525.356.759l-.244.636c-.24-.471-.287-.938-.132-1.342Zm1.008 2.417a3.926 3.926 0 0 1-.596-.627.063.063 0 0 1-.013-.02l.26-.687c.188.223.398.425.625.607l-.276.727Zm1.392.841a5.475 5.475 0 0 1-1.06-.585l.278-.737c.336.226.691.42 1.065.572l-.283.75Zm1.556.407a5.433 5.433 0 0 1-1.182-.267l.283-.747c.381.132.776.224 1.178.276l-.279.738Zm1.302-.052-.023.006a3.848 3.848 0 0 1-.863.075l.276-.727a4.574 4.574 0 0 0 .869-.041l-.26.687Zm-.001-4.243-.031-.042a5.299 5.299 0 0 1-.411-.686c.17-.11.334-.232.496-.36.041-.034.083-.068.124-.104.19.35.41.68.666.982l-.598.531a7.174 7.174 0 0 1-.246-.32Zm1.473 3.18c-.154.406-.499.72-.989.918l.244-.639c.27-.072.53-.184.766-.332l-.02.053Zm1.116-1.222a4.146 4.146 0 0 1-.8-.334l.583-.516c.25.149.514.272.787.37l-.55.487c-.005-.003-.013-.005-.02-.007Zm1.819-.25c-.325.288-.777.407-1.304.351l.51-.453c.23.051.463.075.698.07.047-.002.092-.006.137-.01l-.041.042Zm.573-3.223a.799.799 0 0 1-.775.75h-.07a.799.799 0 0 1-.744-.686l-.418-.11-.088.078c.2.392.046.874-.35 1.074a.798.798 0 1 1 .084-1.375l.089-.077-.059-.429a.798.798 0 1 1 .403.002l.046.344.335.089a.801.801 0 0 1 1.547.34Z"/>
  <path fill="#fff" d="m9.024 12.813-.934-.353-.285.747.934.353a.402.402 0 0 0 .516-.233.4.4 0 0 0-.23-.514Zm4.224-4.201a.4.4 0 1 0-.798-.046.4.4 0 0 0 .798.046ZM6.7 7.227l-.568 1.345.693-.558-.125-.787Zm-.319 1.657 1.436-.265-.743-.293-.693.558Zm2.562-2.575-1.931.358.17 1.058 1.76-1.416ZM8.432 8.43l.763-1.81-1.76 1.419.997.391Z"/>
</svg>
