<svg xmlns="http://www.w3.org/2000/svg" width="20" height="20" fill="none" viewBox="0 0 20 20">
  <rect width="20" height="20" fill="#2262CE" rx="4"/>
  <path fill="#fff" stroke="#fff" stroke-width=".5" d="M7.976 5.601c-.728.196-1.467.43-1.903.574a.31.31 0 0 0-.207.248v.005c-.372 2.795.488 4.834 1.512 6.174l-.198.152.011.017.785-7.17Zm0 0c.745-.203 1.426-.351 1.776-.351.35 0 1.03.148 1.776.35a41.23 41.23 0 0 1 1.902.574.305.305 0 0 1 .14.095l.192-.158-.192.158a.32.32 0 0 1 .068.155v.003l.001.002c.371 2.79-.485 4.826-1.506 6.166a7.179 7.179 0 0 1-1.544 1.507 4.015 4.015 0 0 1-.594.355 1.522 1.522 0 0 1-.244.09 1.491 1.491 0 0 1-.246-.091 4.05 4.05 0 0 1-.593-.355 7.174 7.174 0 0 1-1.516-1.474l.58-7.026Z"/>
</svg>
