<svg width="20" height="20" viewBox="0 0 20 20" fill="none" xmlns="http://www.w3.org/2000/svg">
<rect width="20" height="20" rx="4" fill="#3983DD"/>
<path d="M7.7978 16.5103C7.4268 16.5099 7.07111 16.3754 6.80878 16.1362C6.54644 15.897 6.39887 15.5727 6.39844 15.2344V13.2166C6.39844 12.8782 6.54587 12.5537 6.8083 12.3144C7.07073 12.0751 7.42666 11.9407 7.7978 11.9407C8.16893 11.9407 8.52486 12.0751 8.78729 12.3144C9.04972 12.5537 9.19715 12.8782 9.19715 13.2166V15.2344C9.19672 15.5727 9.04915 15.897 8.78682 16.1362C8.52448 16.3754 8.1688 16.5099 7.7978 16.5103ZM7.7978 12.4748C7.58211 12.4751 7.37533 12.5533 7.22282 12.6923C7.07031 12.8314 6.98452 13.0199 6.98427 13.2166V15.2344C6.98427 15.4311 7.06998 15.6198 7.22255 15.7589C7.37511 15.898 7.58204 15.9762 7.7978 15.9762C8.01356 15.9762 8.22048 15.898 8.37305 15.7589C8.52561 15.6198 8.61132 15.4311 8.61132 15.2344V13.2166C8.61108 13.0199 8.52529 12.8314 8.37277 12.6923C8.22026 12.5533 8.01348 12.4751 7.7978 12.4748Z" fill="white" stroke="white" stroke-width="0.230695"/>
<path d="M7.7978 10.1224C7.4268 10.122 7.07111 9.98743 6.80878 9.74823C6.54644 9.50904 6.39887 9.18473 6.39844 8.84645V6.82866C6.39844 6.49026 6.54587 6.16573 6.8083 5.92644C7.07073 5.68716 7.42666 5.55273 7.7978 5.55273C8.16893 5.55273 8.52486 5.68716 8.78729 5.92644C9.04972 6.16573 9.19715 6.49026 9.19715 6.82866V8.84645C9.19672 9.18473 9.04915 9.50903 8.78682 9.74823C8.52448 9.98743 8.1688 10.122 7.7978 10.1224ZM7.7978 6.08689C7.58211 6.08711 7.37533 6.16534 7.22282 6.3044C7.07031 6.44346 6.98452 6.632 6.98427 6.82866V8.84645C6.98427 9.04318 7.06998 9.23185 7.22255 9.37096C7.37511 9.51007 7.58204 9.58822 7.7978 9.58822C8.01356 9.58822 8.22048 9.51007 8.37305 9.37096C8.52561 9.23185 8.61132 9.04318 8.61132 8.84645V6.82866C8.61108 6.632 8.52529 6.44346 8.37278 6.30439C8.22026 6.16533 8.01348 6.08711 7.7978 6.08689Z" fill="white" stroke="white" stroke-width="0.230695"/>
<path d="M7.80073 13.1523C7.72304 13.1523 7.64854 13.1241 7.59361 13.074C7.53868 13.024 7.50782 12.956 7.50781 12.8852L7.50781 9.08861C7.50781 9.01778 7.53867 8.94985 7.59361 8.89976C7.64854 8.84967 7.72304 8.82153 7.80073 8.82153C7.87841 8.82153 7.95292 8.84967 8.00785 8.89976C8.06278 8.94985 8.09365 9.01778 8.09365 9.08861V12.8852C8.09364 12.956 8.06278 13.024 8.00785 13.074C7.95292 13.1241 7.87841 13.1523 7.80073 13.1523Z" fill="white" stroke="white" stroke-width="0.230695"/>
<path d="M7.79292 6.71216C7.71523 6.71216 7.64073 6.68402 7.5858 6.63393C7.53087 6.58384 7.5 6.51591 7.5 6.44508L7.5 3.26708C7.5 3.19625 7.53086 3.12831 7.58579 3.07823C7.64073 3.02814 7.71523 3 7.79292 3C7.8706 3 7.94511 3.02814 8.00004 3.07823C8.05497 3.12831 8.08583 3.19625 8.08583 3.26708V6.44508C8.08583 6.51591 8.05497 6.58384 8.00004 6.63393C7.9451 6.68402 7.8706 6.71216 7.79292 6.71216Z" fill="white" stroke="white" stroke-width="0.230695"/>
<path d="M4.39955 7.67624C4.02852 7.67588 3.6728 7.54134 3.41042 7.30214C3.14804 7.06294 3.00044 6.73862 3 6.40031V4.38253C3.00062 4.04448 3.14833 3.72047 3.41072 3.48163C3.6731 3.24279 4.0287 3.10864 4.39946 3.10864C4.77021 3.10864 5.12581 3.24279 5.3882 3.48163C5.65058 3.72047 5.79829 4.04448 5.79891 4.38253V6.40031C5.79848 6.73859 5.65091 7.06289 5.38857 7.30209C5.12624 7.54129 4.77055 7.67584 4.39955 7.67624ZM4.39955 3.64075C4.18384 3.64094 3.97702 3.71914 3.82446 3.85821C3.67191 3.99727 3.58609 4.18583 3.58583 4.38252V6.40031C3.5863 6.59678 3.67223 6.78506 3.82477 6.92383C3.9773 7.06261 4.18398 7.14054 4.39946 7.14054C4.61493 7.14054 4.82161 7.06261 4.97415 6.92383C5.12668 6.78506 5.21261 6.59678 5.21308 6.40031V4.38253C5.21283 4.18587 5.12705 3.99733 4.97453 3.85827C4.82202 3.7192 4.61524 3.64097 4.39955 3.64075Z" fill="white" stroke="white" stroke-width="0.230695"/>
<path d="M4.39955 14.2749C4.02852 14.2745 3.6728 14.14 3.41042 13.9008C3.14804 13.6616 3.00044 13.3372 3 12.9989V10.9812C3.00062 10.6431 3.14833 10.3191 3.41072 10.0803C3.6731 9.84142 4.0287 9.70728 4.39946 9.70728C4.77021 9.70728 5.12581 9.84142 5.3882 10.0803C5.65058 10.3191 5.79829 10.6431 5.79891 10.9812V12.9989C5.79848 13.3372 5.65091 13.6615 5.38857 13.9007C5.12624 14.1399 4.77055 14.2745 4.39955 14.2749ZM4.39955 10.2394C4.18384 10.2396 3.97702 10.3178 3.82446 10.4568C3.67191 10.5959 3.58609 10.7845 3.58583 10.9812V12.9989C3.5863 13.1954 3.67223 13.3837 3.82477 13.5225C3.9773 13.6612 4.18398 13.7392 4.39946 13.7392C4.61493 13.7392 4.82161 13.6612 4.97415 13.5225C5.12668 13.3837 5.21261 13.1954 5.21308 12.9989V10.9812C5.21284 10.7845 5.12705 10.596 4.97453 10.4569C4.82202 10.3178 4.61524 10.2396 4.39955 10.2394Z" fill="white" stroke="white" stroke-width="0.230695"/>
<path d="M4.39448 11.0048C4.31679 11.0048 4.24229 10.9767 4.18736 10.9266C4.13243 10.8765 4.10157 10.8086 4.10156 10.7377V6.94115C4.10156 6.87032 4.13242 6.80239 4.18736 6.7523C4.24229 6.70221 4.31679 6.67407 4.39448 6.67407C4.47216 6.67407 4.54667 6.70221 4.6016 6.7523C4.65653 6.80239 4.6874 6.87032 4.6874 6.94115V10.7377C4.68739 10.8086 4.65653 10.8765 4.6016 10.9266C4.54667 10.9767 4.47216 11.0048 4.39448 11.0048Z" fill="white" stroke="white" stroke-width="0.230695"/>
<path d="M4.40229 16.8422C4.32461 16.8422 4.2501 16.814 4.19517 16.764C4.14024 16.7139 4.10938 16.6459 4.10938 16.5751V13.3044C4.10938 13.2336 4.14024 13.1657 4.19517 13.1156C4.2501 13.0655 4.32461 13.0374 4.40229 13.0374C4.47998 13.0374 4.55448 13.0655 4.60941 13.1156C4.66435 13.1657 4.69521 13.2336 4.69521 13.3044V16.5751C4.6952 16.6459 4.66434 16.7139 4.60941 16.764C4.55448 16.814 4.47998 16.8422 4.40229 16.8422Z" fill="white" stroke="white" stroke-width="0.230695"/>
<path d="M17.6093 10.3047C17.6093 13.163 15.1629 15.6094 12.3047 15.6094C9.4464 15.6094 7 13.163 7 10.3047C7 7.44643 9.4464 5.00003 12.3047 5.00003C15.1629 5.00003 17.6093 7.44643 17.6093 10.3047Z" fill="#3983DD"/>
<path d="M12.3047 15.209C14.942 15.209 17.209 12.942 17.209 10.3047C17.209 7.66734 14.942 5.4004 12.3047 5.40039C9.66734 5.40039 7.4004 7.66734 7.40039 10.3047C7.40039 12.942 9.66733 15.209 12.3047 15.209Z" stroke="white" stroke-width="0.8" stroke-miterlimit="10" stroke-linecap="round" stroke-linejoin="round"/>
<path d="M15.3045 10.3046C14.0064 10.9537 12.9538 12.0063 12.3047 13.3044C11.9823 12.6596 11.558 12.0709 11.0483 11.561C10.5384 11.0513 9.9497 10.627 9.30484 10.3046C9.9497 9.98216 10.5384 9.55791 11.0483 9.04816C11.558 8.5383 11.9823 7.94961 12.3047 7.30475C12.6271 7.94961 13.0514 8.5383 13.5611 9.04816C14.071 9.55791 14.6597 9.98216 15.3045 10.3046Z" stroke="white" stroke-width="0.8" stroke-miterlimit="10" stroke-linecap="round" stroke-linejoin="round"/>
</svg>
