<svg xmlns="http://www.w3.org/2000/svg" width="20" height="20" fill="none" viewBox="0 0 20 20">
  <rect width="20" height="20" fill="#5755DA" rx="4"/>
  <path fill="#fff" fill-rule="evenodd" d="M6.52 5.032a.937.937 0 1 0-1.875 0V15.06a.907.907 0 0 0 .038.274.938.938 0 0 0 .9.671h10.033a.937.937 0 1 0 0-1.875H6.52V5.032Z" clip-rule="evenodd"/>
  <path fill="#fff" d="m15.03 9.382.797-.861-.03 1.023a.444.444 0 0 0 .41.45.398.398 0 0 0 .433-.387l.062-2.18a.44.44 0 0 0-.142-.333.439.439 0 0 0-.343-.116l-2.169.233a.398.398 0 0 0-.352.462c.035.23.25.397.48.373l1.019-.11-.795.86a.443.443 0 0 0-.059.053l-2.354 2.523a.187.187 0 0 1-.28-.006l-.758-.881a1.062 1.062 0 0 0-1.571-.044l-2.701 2.81a.437.437 0 0 0 .63.606l2.702-2.81a.187.187 0 0 1 .277.008l.758.882c.413.48 1.15.495 1.582.032l2.355-2.523a.442.442 0 0 0 .05-.064Z"/>
</svg>
