<svg xmlns="http://www.w3.org/2000/svg" width="20" height="20" fill="none" viewBox="0 0 20 20">
  <rect width="20" height="20" fill="#38C655" rx="4"/>
  <path fill="#fff" d="M10.295 3.861a.445.445 0 0 0-.647.062.497.497 0 0 0 .059.677l.862.753H8.222c-1.917-.004-3.57 1.42-4.05 3.425-.478 2.003.32 4.125 1.975 5.16.217.136.5.062.629-.166a.494.494 0 0 0-.159-.66c-1.289-.806-1.94-2.488-1.554-4.1.385-1.61 1.693-2.7 3.158-2.698h2.348l-.862.753a.497.497 0 0 0-.059.677.445.445 0 0 0 .647.061l1.835-1.602a.49.49 0 0 0 .165-.37.49.49 0 0 0-.165-.369l-1.835-1.603Zm3.749 2.212a.446.446 0 0 0-.636.137c-.14.222-.08.52.132.666 1.156.796 1.764 2.483 1.408 4.122-.355 1.635-1.547 2.69-2.828 2.688h-2.075l.862-.753a.497.497 0 0 0 .059-.677.445.445 0 0 0-.647-.061l-1.836 1.602a.49.49 0 0 0-.165.37c0 .142.06.278.165.369l1.836 1.603c.195.17.484.142.646-.062a.497.497 0 0 0-.058-.677l-.862-.753h2.073l.001-.48v.48c1.793.004 3.293-1.455 3.724-3.435.43-1.976-.28-4.094-1.8-5.14Z"/>
</svg>
