<svg width="21" height="20" viewBox="0 0 21 20" fill="none" xmlns="http://www.w3.org/2000/svg">
<rect x="0.03125" width="20" height="20" rx="4" fill="#9D68E8"/>
<path d="M4.57227 4.04541C4.90351 4.04541 5.17264 4.31383 5.17285 4.64502V14.7544H15.2822C15.6135 14.7545 15.8818 15.0237 15.8818 15.355C15.8816 15.6861 15.6134 15.9545 15.2822 15.9546H4.57227C4.36526 15.9544 4.18293 15.8495 4.0752 15.6899C4.03221 15.6263 4.00136 15.5539 3.98535 15.4761C3.97731 15.4369 3.97267 15.3965 3.97266 15.355V4.64502C3.97287 4.31397 4.24122 4.04564 4.57227 4.04541Z" fill="white"/>
<path d="M14.3585 9.33248L15.1547 8.47125L15.1256 9.49485C15.119 9.72608 15.3022 9.92756 15.5349 9.94485C15.7675 9.96215 15.9614 9.78872 15.968 9.55748L16.0301 7.37745C16.0336 7.25319 15.9815 7.13122 15.8877 7.04453C15.7939 6.95785 15.6682 6.91539 15.5447 6.92866L13.3762 7.16139C13.1462 7.18608 12.9885 7.393 13.0239 7.62356C13.0594 7.85412 13.2746 8.02102 13.5046 7.99633L14.5228 7.88706L13.7277 8.74712C13.707 8.76257 13.6874 8.78007 13.6692 8.79962L11.3148 11.3227C11.2387 11.4043 11.1084 11.4017 11.0356 11.317L10.2774 10.4356C9.86883 9.96069 9.14019 9.94052 8.706 10.3921L6.00494 13.2013C5.83747 13.3755 5.84291 13.6524 6.01708 13.8199C6.19126 13.9874 6.46821 13.9819 6.63568 13.8077L9.33674 10.9986C9.41336 10.9189 9.54194 10.9224 9.61404 11.0062L10.3723 11.8877C10.785 12.3674 11.5229 12.3823 11.9546 11.9196L14.3089 9.39657C14.3277 9.37641 14.3443 9.35494 14.3585 9.33248Z" fill="white"/>
</svg>
