<svg xmlns="http://www.w3.org/2000/svg" width="20" height="20" fill="none" viewBox="0 0 20 20">
  <g clip-path="url(#a)">
    <circle cx="10" cy="10" r="10" fill="#28A8E9"/>
    <path fill="#fff" d="M15.322 4.45 3.142 9.149c-.831.333-.826.797-.152 1.004l3.127.975 7.235-4.564c.342-.209.654-.097.397.131l-5.861 5.29h-.002l.002.001-.216 3.224c.316 0 .455-.145.633-.316l1.518-1.477 3.16 2.333c.582.321 1 .156 1.146-.539l2.074-9.774c.212-.851-.325-1.237-.881-.985Z"/>
  </g>
  <defs>
    <clipPath id="a">
      <path fill="#fff" d="M0 0h20v20H0z"/>
    </clipPath>
  </defs>
</svg>
