<svg xmlns="http://www.w3.org/2000/svg" width="20" height="20" fill="none" viewBox="0 0 20 20">
  <g clip-path="url(#a)">
    <path fill="#202029" d="M10 20c5.523 0 10-4.477 10-10S15.523 0 10 0 0 4.477 0 10s4.477 10 10 10Z"/>
    <path fill="url(#b)" fill-rule="evenodd" d="M10 19.219A9.219 9.219 0 1 0 10 .78a9.219 9.219 0 0 0 0 18.438ZM10 20c5.523 0 10-4.477 10-10S15.523 0 10 0 0 4.477 0 10s4.477 10 10 10Z" clip-rule="evenodd"/>
    <path fill="#00C26F" d="M3.223 12.102h1.09v-2.036h.022l1.529 2.036h.886V8.236H5.66v2.004h-.022L4.119 8.236h-.896v3.866Z"/>
    <path fill="#00C26F" fill-rule="evenodd" d="M11.348 10.17c0-1.235-.766-2.001-1.981-2.001-1.216 0-1.982.766-1.982 2.001 0 1.235.764 1.999 1.982 1.999 1.215 0 1.981-.764 1.981-1.999Zm-2.785 0c0-.67.321-1.095.804-1.095.482 0 .804.425.804 1.095 0 .667-.319 1.093-.804 1.093-.485 0-.804-.426-.804-1.093Z" clip-rule="evenodd"/>
    <path fill="#00C26F" d="m13.925 12.102.586-2.213h.022l.585 2.213h1.09l1.015-3.866h-1.194l-.453 2.443h-.021l-.586-2.443h-.894l-.586 2.443h-.022l-.453-2.443h-1.193l1.014 3.866h1.09Z"/>
  </g>
  <defs>
    <linearGradient id="b" x1="9.999" x2="9.999" y1="-.519" y2="20.516" gradientUnits="userSpaceOnUse">
      <stop stop-color="#FB9600"/>
      <stop offset=".25" stop-color="#00C26F"/>
      <stop offset=".505" stop-color="#6696D6"/>
      <stop offset=".776" stop-color="#F28984"/>
      <stop offset="1" stop-color="#5FCEF0"/>
      <stop offset="1" stop-color="#5FCEF0"/>
    </linearGradient>
    <clipPath id="a">
      <path fill="#fff" d="M0 0h20v20H0z"/>
    </clipPath>
  </defs>
</svg>
