<svg xmlns="http://www.w3.org/2000/svg" width="26" height="26" fill="none" viewBox="0 0 26 26">
  <path fill="url(#a)" d="M3 4.563C3 3.7 3.7 3 4.563 3h16.875C22.3 3 23 3.7 23 4.563v16.875C23 22.3 22.3 23 21.437 23H4.563C3.7 23 3 22.3 3 21.437V4.563Z"/>
  <path fill="#00C26F" d="M8.805 12.913h.404v-1.73h.006l1.123 1.73h.514v-2.255h-.405v1.675h-.006l-1.103-1.675h-.533v2.255Zm2.692-.637a1.075 1.075 0 0 0 .627.61c.154.058.318.087.483.085.167 0 .332-.03.488-.09a1.104 1.104 0 0 0 .633-.617c.06-.154.09-.317.087-.482a1.284 1.284 0 0 0-.09-.49 1.068 1.068 0 0 0-.633-.613 1.359 1.359 0 0 0-.487-.079 1.336 1.336 0 0 0-.483.085 1.091 1.091 0 0 0-.629.617 1.3 1.3 0 0 0-.084.493 1.22 1.22 0 0 0 .09.481h-.002Zm.39-.822a.778.778 0 0 1 .159-.256.73.73 0 0 1 .246-.172.793.793 0 0 1 .32-.063c.11-.001.22.02.32.063.095.04.179.098.248.172.07.074.123.161.159.256.037.1.055.207.054.314a.963.963 0 0 1-.056.335.736.736 0 0 1-.406.44.785.785 0 0 1-.321.063.738.738 0 0 1-.724-.503.963.963 0 0 1 0-.65l.001.001Zm2.901 1.46h.372l.527-1.718h.006l.529 1.717h.385l.66-2.255h-.41l-.446 1.625h-.007l-.501-1.625h-.398l-.511 1.625h-.007l-.426-1.625h-.445l.672 2.255Z"/>
  <path fill="#fff" d="M9.43 14.25h-.372v.756a.43.43 0 0 0 .013.117c.01.03.023.053.04.069a.147.147 0 0 0 .057.035.351.351 0 0 0 .174-.005.45.45 0 0 0 .092-.036l.008.167a.591.591 0 0 1-.357.033.258.258 0 0 1-.102-.052.286.286 0 0 1-.077-.104.414.414 0 0 1-.03-.172v-.808h-.274v-.164h.273v-.361h.183v.361h.373v.164Zm.353.236a19.888 19.888 0 0 1-.011-.4h.18v.238h.005a.43.43 0 0 1 .141-.186.46.46 0 0 1 .274-.085c.051 0 .097.006.135.017l-.036.178a.31.31 0 0 0-.105-.014.374.374 0 0 0-.304.142.427.427 0 0 0-.097.268v.723h-.182v-.881Zm1.717.244c-.045 0-.103.002-.173.008a.907.907 0 0 0-.2.032.438.438 0 0 0-.163.08.185.185 0 0 0-.066.15c0 .042.008.079.025.11a.254.254 0 0 0 .072.074.352.352 0 0 0 .207.052.41.41 0 0 0 .172-.033.362.362 0 0 0 .124-.088.353.353 0 0 0 .072-.131.52.52 0 0 0 .025-.162v-.093H11.5Zm.095-.149v-.032c0-.221-.11-.332-.332-.332a.575.575 0 0 0-.395.151l-.11-.129c.12-.124.303-.186.547-.186.062 0 .122.01.18.028a.4.4 0 0 1 .254.224.485.485 0 0 1 .038.203v.572a2.177 2.177 0 0 0 .022.287h-.177a1.385 1.385 0 0 1-.013-.101 2.171 2.171 0 0 1-.003-.107H11.6a.5.5 0 0 1-.19.186.582.582 0 0 1-.266.055.562.562 0 0 1-.31-.093.41.41 0 0 1-.099-.118.36.36 0 0 1-.036-.164c0-.104.027-.185.08-.244a.505.505 0 0 1 .205-.134 1.07 1.07 0 0 1 .262-.055 3.5 3.5 0 0 1 .258-.01h.09Zm1.631-.194a.385.385 0 0 0-.324-.17.448.448 0 0 0-.453.307.624.624 0 0 0 0 .408.463.463 0 0 0 .249.268.492.492 0 0 0 .395-.014.385.385 0 0 0 .133-.12l.149.112a.63.63 0 0 1-.219.167.748.748 0 0 1-.539.008.614.614 0 0 1-.354-.356.768.768 0 0 1-.046-.27c0-.097.015-.187.047-.269a.609.609 0 0 1 .135-.216.63.63 0 0 1 .218-.14.714.714 0 0 1 .54.009c.08.034.153.09.218.164l-.15.112Zm.657.277.61-.578h.274l-.644.586.714.695h-.282l-.672-.673v.673H13.7v-2.07h.183v1.367Zm2.241-.036a.403.403 0 0 0-.11-.296.41.41 0 0 0-.31-.115.43.43 0 0 0-.171.036.48.48 0 0 0-.147.09.497.497 0 0 0-.1.132.346.346 0 0 0-.035.153h.873Zm-.879.148a.547.547 0 0 0 .047.18.5.5 0 0 0 .102.148c.043.04.092.072.147.096a.451.451 0 0 0 .18.036.464.464 0 0 0 .251-.066.511.511 0 0 0 .163-.156l.141.115a.696.696 0 0 1-.257.208.712.712 0 0 1-.298.063.644.644 0 0 1-.62-.405.709.709 0 0 1-.05-.268c0-.097.017-.187.05-.269a.619.619 0 0 1 .345-.353.634.634 0 0 1 .258-.052.65.65 0 0 1 .263.052.56.56 0 0 1 .193.14.562.562 0 0 1 .122.202.72.72 0 0 1 .041.247v.082h-1.078Zm1.512-.29a18.08 18.08 0 0 1-.011-.4h.18v.238h.006a.433.433 0 0 1 .14-.186.46.46 0 0 1 .274-.085.5.5 0 0 1 .136.017l-.036.178a.31.31 0 0 0-.105-.014.373.373 0 0 0-.304.142.425.425 0 0 0-.097.268v.723h-.183v-.881Z"/>
  <g filter="url(#b)">
    <path fill="#FB9F16" fill-rule="evenodd" d="M4.398 12.95a8.6 8.6 0 0 1 8.55-8.55v1.193a7.357 7.357 0 0 0-7.357 7.357H4.398Z" clip-rule="evenodd"/>
    <path fill="#00C26F" fill-rule="evenodd" d="M4.399 12.95V13a8.6 8.6 0 0 0 8.55 8.6v-1.293a7.357 7.357 0 0 1-7.357-7.357H4.399Z" clip-rule="evenodd"/>
    <path fill="#709DD9" fill-rule="evenodd" d="M19.633 16.03a7.358 7.358 0 0 1-6.684 4.278V21.6H13a8.601 8.601 0 0 0 7.821-5.018l-1.187-.553Z" clip-rule="evenodd"/>
    <path fill="#F28B86" fill-rule="evenodd" d="m19.492 9.584 1.112-.6A8.562 8.562 0 0 1 21.598 13a8.567 8.567 0 0 1-.779 3.581l-1.186-.552a7.33 7.33 0 0 0 .673-3.079 7.326 7.326 0 0 0-.814-3.366Z" clip-rule="evenodd"/>
    <path fill="#60CEF0" fill-rule="evenodd" d="M20.61 8.994A8.599 8.599 0 0 0 13 4.4h-.05v1.193a7.357 7.357 0 0 1 6.55 4.002l1.112-.601Z" clip-rule="evenodd"/>
  </g>
  <defs>
    <linearGradient id="a" x1="13" x2="13" y1="3" y2="23" gradientUnits="userSpaceOnUse">
      <stop stop-color="#3B3D54"/>
      <stop offset="1" stop-color="#161724"/>
    </linearGradient>
    <filter id="b" width="25.199" height="25.2" x=".398" y=".4" color-interpolation-filters="sRGB" filterUnits="userSpaceOnUse">
      <feFlood flood-opacity="0" result="BackgroundImageFix"/>
      <feColorMatrix in="SourceAlpha" result="hardAlpha" values="0 0 0 0 0 0 0 0 0 0 0 0 0 0 0 0 0 0 127 0"/>
      <feOffset/>
      <feGaussianBlur stdDeviation="2"/>
      <feComposite in2="hardAlpha" operator="out"/>
      <feColorMatrix values="0 0 0 0 0 0 0 0 0 0 0 0 0 0 0 0 0 0 0.15 0"/>
      <feBlend in2="BackgroundImageFix" result="effect1_dropShadow_4231_3384"/>
      <feBlend in="SourceGraphic" in2="effect1_dropShadow_4231_3384" result="shape"/>
      <feColorMatrix in="SourceAlpha" result="hardAlpha" values="0 0 0 0 0 0 0 0 0 0 0 0 0 0 0 0 0 0 127 0"/>
      <feOffset dy="4"/>
      <feGaussianBlur stdDeviation="2"/>
      <feComposite in2="hardAlpha" k2="-1" k3="1" operator="arithmetic"/>
      <feColorMatrix values="0 0 0 0 1 0 0 0 0 1 0 0 0 0 1 0 0 0 0.3 0"/>
      <feBlend in2="shape" result="effect2_innerShadow_4231_3384"/>
    </filter>
  </defs>
</svg>
