<svg xmlns="http://www.w3.org/2000/svg" width="20" height="20" fill="none" viewBox="0 0 20 20">
  <g clip-path="url(#a)">
    <path fill="url(#b)" d="M0 1.563C0 .7.7 0 1.563 0h16.875C19.3 0 20 .7 20 1.563v16.875C20 19.3 19.3 20 18.437 20H1.563C.7 20 0 19.3 0 18.437V1.563Z"/>
    <path fill="#00C26F" d="M5.543 9.386h.415v-1.8h.007L7.12 9.387h.527V7.04h-.415v1.743h-.006L6.093 7.04h-.549v2.347h-.001Zm2.768-.662a1.115 1.115 0 0 0 .646.635c.158.06.326.09.495.088.172 0 .342-.032.502-.095a1.13 1.13 0 0 0 .651-.642c.063-.16.094-.33.09-.501a1.37 1.37 0 0 0-.092-.511 1.13 1.13 0 0 0-.258-.391 1.084 1.084 0 0 0-.393-.247 1.357 1.357 0 0 0-.502-.081 1.381 1.381 0 0 0-.496.088c-.146.055-.278.14-.388.25-.112.113-.2.246-.258.393a1.35 1.35 0 0 0-.087.513c-.002.17.03.342.092.5h-.002Zm.4-.856c.038-.1.093-.19.164-.266a.745.745 0 0 1 .253-.18.794.794 0 0 1 .33-.064.843.843 0 0 1 .33.065.745.745 0 0 1 .254.179.806.806 0 0 1 .163.266 1.016 1.016 0 0 1-.002.676.81.81 0 0 1-.163.276.743.743 0 0 1-.255.182.798.798 0 0 1-.33.067.75.75 0 0 1-.58-.25.811.811 0 0 1-.164-.274 1.012 1.012 0 0 1 .002-.678l-.002.001Zm2.982 1.518h.383l.541-1.788h.007l.543 1.788h.396l.679-2.347h-.423l-.457 1.692h-.007l-.516-1.692h-.41l-.525 1.692h-.006l-.44-1.692h-.457l.692 2.347Z"/>
    <path fill="#fff" d="m5.98 10.795.291 1.004h.006l.337-1.004h.183l.337 1.004h.006l.291-1.004h.21l-.398 1.236h-.199l-.333-1.015h-.006l-.333 1.014h-.2l-.399-1.235h.207Zm2.864.589c-.045 0-.102.003-.17.008a.903.903 0 0 0-.194.032.435.435 0 0 0-.159.076.175.175 0 0 0-.065.145c0 .04.009.075.024.106a.253.253 0 0 0 .164.11.495.495 0 0 0 .108.011.4.4 0 0 0 .167-.031.349.349 0 0 0 .12-.085.34.34 0 0 0 .07-.126.47.47 0 0 0 .024-.155v-.09h-.089Zm.092-.142v-.033c0-.213-.107-.32-.323-.32a.566.566 0 0 0-.385.145l-.108-.124c.119-.12.296-.18.534-.18.061 0 .12.01.175.027a.383.383 0 0 1 .147.082c.042.035.075.08.1.135.025.054.038.12.038.195v.551c0 .048 0 .098.005.151.006.051.011.094.017.126h-.173a1.08 1.08 0 0 1-.015-.2h-.006a.486.486 0 0 1-.185.18.576.576 0 0 1-.26.053.59.59 0 0 1-.161-.023.432.432 0 0 1-.141-.066.394.394 0 0 1-.097-.114.34.34 0 0 1-.036-.159c0-.1.027-.178.079-.235.054-.058.12-.1.198-.129.08-.028.166-.045.256-.053.09-.007.175-.01.25-.01h.091Zm1.063.789H9.82v-1.996H10v1.996Zm.902 0h-.178v-1.996h.178v1.996Zm1.664-.746a.384.384 0 0 0-.108-.285.4.4 0 0 0-.301-.111.413.413 0 0 0-.167.035.455.455 0 0 0-.24.213.326.326 0 0 0-.036.148h.852Zm-.856.144c.006.061.021.12.046.175a.472.472 0 0 0 .1.143c.04.038.088.07.142.092a.437.437 0 0 0 .175.035.459.459 0 0 0 .403-.213l.138.111a.667.667 0 0 1-.542.26.62.62 0 0 1-.603-.392.683.683 0 0 1-.048-.257.68.68 0 0 1 .048-.259.615.615 0 0 1 .588-.39c.095 0 .18.016.255.05a.548.548 0 0 1 .188.134c.052.054.091.12.118.195.027.074.04.152.04.237v.079H11.71Zm2.284-.507h-.363v.73c0 .045.004.083.014.113a.143.143 0 0 0 .095.1.39.39 0 0 0 .259-.04l.008.163a.579.579 0 0 1-.348.032.267.267 0 0 1-.1-.05.274.274 0 0 1-.075-.1.388.388 0 0 1-.03-.166v-.78h-.265v-.158h.265v-.349h.178v.349h.363l-.001.156Z"/>
    <path fill="url(#c)" fill-rule="evenodd" d="M9.924 2.174c-.622 0-1.761.253-2.943.575H6.98a62.857 62.857 0 0 0-3.058.922.89.89 0 0 0-.603.732c-.61 4.583.802 7.945 2.495 10.16a11.857 11.857 0 0 0 2.536 2.476c.384.27.729.47 1.007.602h.001c.286.135.479.185.565.185.084 0 .275-.05.561-.184.353-.17.69-.372 1.009-.601a11.866 11.866 0 0 0 2.547-2.486c1.69-2.214 3.098-5.574 2.489-10.15l-.001-.01a.887.887 0 0 0-.603-.725 66.276 66.276 0 0 0-3.06-.922c-1.182-.32-2.32-.574-2.941-.574Zm-3.12-.076c1.167-.317 2.393-.598 3.12-.598.727 0 1.953.282 3.118.597h.002c1.038.286 2.069.597 3.092.933.28.093.528.262.716.49a1.578 1.578 0 0 1 .346.804c.632 4.767-.836 8.298-2.619 10.636a12.542 12.542 0 0 1-2.693 2.628c-.35.252-.72.474-1.11.662l-.003.002c-.299.14-.606.248-.85.248-.246 0-.553-.108-.853-.25-.32-.15-.7-.372-1.11-.662l-.002-.001a12.53 12.53 0 0 1-2.697-2.639C3.48 12.61 2.018 9.082 2.649 4.323l.002-.01A1.57 1.57 0 0 1 3.71 3.03m3.093-.933a63.975 63.975 0 0 0-3.092.933l3.092-.933Z" clip-rule="evenodd"/>
    <path fill="url(#d)" fill-rule="evenodd" d="M9.924 2.174c-.622 0-1.761.253-2.943.575H6.98a62.857 62.857 0 0 0-3.058.922.89.89 0 0 0-.603.732c-.61 4.583.802 7.945 2.495 10.16a11.857 11.857 0 0 0 2.536 2.476c.384.27.729.47 1.007.602h.001c.286.135.479.185.565.185.084 0 .275-.05.561-.184.353-.17.69-.372 1.009-.601a11.866 11.866 0 0 0 2.547-2.486c1.69-2.214 3.098-5.574 2.489-10.15l-.001-.01a.887.887 0 0 0-.603-.725 66.276 66.276 0 0 0-3.06-.922c-1.182-.32-2.32-.574-2.941-.574Zm-3.12-.076c1.167-.317 2.393-.598 3.12-.598.727 0 1.953.282 3.118.597h.002c1.038.286 2.069.597 3.092.933.28.093.528.262.716.49a1.578 1.578 0 0 1 .346.804c.632 4.767-.836 8.298-2.619 10.636a12.542 12.542 0 0 1-2.693 2.628c-.35.252-.72.474-1.11.662l-.003.002c-.299.14-.606.248-.85.248-.246 0-.553-.108-.853-.25-.32-.15-.7-.372-1.11-.662l-.002-.001a12.53 12.53 0 0 1-2.697-2.639C3.48 12.61 2.018 9.082 2.649 4.323l.002-.01A1.57 1.57 0 0 1 3.71 3.03m3.093-.933a63.975 63.975 0 0 0-3.092.933l3.092-.933Z" clip-rule="evenodd"/>
  </g>
  <defs>
    <linearGradient id="b" x1="10" x2="10" y1="0" y2="20" gradientUnits="userSpaceOnUse">
      <stop stop-color="#3B3D54"/>
      <stop offset="1" stop-color="#161724"/>
    </linearGradient>
    <linearGradient id="c" x1="9.923" x2="9.923" y1="1.414" y2="18.584" gradientUnits="userSpaceOnUse">
      <stop stop-color="#FB9600"/>
      <stop offset=".25" stop-color="#00C26F"/>
      <stop offset=".505" stop-color="#6696D6"/>
      <stop offset=".776" stop-color="#F28984"/>
      <stop offset="1" stop-color="#5FCEF0"/>
      <stop offset="1" stop-color="#5FCEF0"/>
    </linearGradient>
    <linearGradient id="d" x1="9.923" x2="9.923" y1="1.414" y2="18.584" gradientUnits="userSpaceOnUse">
      <stop stop-color="#FB9600"/>
      <stop offset=".25" stop-color="#00C26F"/>
      <stop offset=".505" stop-color="#6696D6"/>
      <stop offset=".776" stop-color="#F28984"/>
      <stop offset="1" stop-color="#5FCEF0"/>
      <stop offset="1" stop-color="#5FCEF0"/>
    </linearGradient>
    <clipPath id="a">
      <path fill="#fff" d="M0 0h20v20H0z"/>
    </clipPath>
  </defs>
</svg>
