<svg width="20" height="24" viewBox="0 0 20 24" fill="none" xmlns="http://www.w3.org/2000/svg">
<path fill-rule="evenodd" clip-rule="evenodd" d="M13.6196 3.84674C14.4618 2.81849 15.0381 1.41959 14.8781 0C13.6592 0.0526828 12.1348 0.823158 11.257 1.82882C10.4803 2.715 9.78661 4.16756 9.96578 5.53352C11.335 5.63323 12.7409 4.85897 13.6196 3.84674ZM16.7035 12.7632C16.6757 9.75379 19.208 8.27821 19.3608 8.18915L19.3639 8.18739C17.908 6.11493 15.6512 5.83173 14.8582 5.80921C13.6987 5.69004 12.5604 6.13114 11.6302 6.49154C11.0401 6.72025 10.5337 6.91643 10.1589 6.91643C9.7321 6.91643 9.2111 6.71209 8.62734 6.48301C7.86384 6.1835 6.99294 5.84183 6.08488 5.85999C4.02286 5.89104 2.09374 7.05664 1.03581 8.86657C-1.14765 12.5571 0.480769 17.9806 2.57265 20.9637C3.61912 22.4247 4.8419 24.056 6.44236 23.9985C7.16841 23.9693 7.68354 23.7577 8.21563 23.5391C8.83106 23.2862 9.46923 23.0239 10.4826 23.0239C11.4385 23.0239 12.0495 23.278 12.6359 23.5218C13.198 23.7555 13.7375 23.9798 14.5364 23.9618C16.2169 23.9355 17.2748 22.4943 18.2847 21.0201C19.4939 19.3456 19.9796 17.6965 19.9989 17.6118C19.9594 17.5987 16.7352 16.3973 16.7035 12.7632Z" fill="#999999"/>
</svg>
