<svg width="23" height="26" viewBox="0 0 23 26" fill="none" xmlns="http://www.w3.org/2000/svg">
<path d="M22.1666 8.41107L21.3646 6.23385L21.922 4.98425C21.9936 4.82285 21.9586 4.63483 21.8347 4.50837L20.3189 2.97591C19.9935 2.64557 19.581 2.4145 19.1294 2.30962C18.6778 2.20475 18.2057 2.23039 17.7681 2.38355L17.3521 2.53081L15.0368 0.0216317L11.0833 0L7.12986 0.0307829L4.81703 2.55993L4.40521 2.41434C3.96476 2.25937 3.48926 2.23327 3.0345 2.33907C2.57974 2.44488 2.16459 2.67821 1.83779 3.01168L0.285361 4.57326C0.236924 4.62215 0.204407 4.68454 0.192083 4.75225C0.179759 4.81996 0.188204 4.88981 0.216309 4.95263L0.798678 6.25048L0 8.42605L2.86775 19.3305C3.13897 20.3605 3.7621 21.2631 4.62984 21.8813L10.3013 25.7249C10.524 25.903 10.8007 26 11.0858 26C11.371 26 11.6476 25.903 11.8703 25.7249L17.5385 21.8754C18.4054 21.2573 19.036 20.3546 19.298 19.3247L21.6375 10.3795L22.1666 8.41107Z" fill="url(#paint0_linear_2130_7408)"/>
<path d="M11.7306 16.1151C11.5807 16.048 11.4261 15.9919 11.268 15.9474H10.9893C10.8312 15.9919 10.6766 16.048 10.5267 16.1151L9.82518 16.4068L9.0331 16.7711L7.74303 17.4434C7.64757 17.4743 7.58055 17.5604 7.57365 17.6607C7.56674 17.761 7.62158 17.8557 7.71175 17.8987L8.83163 18.6851C9.07001 18.8559 9.2998 19.0384 9.52013 19.2319L9.83533 19.5032L10.495 20.0808L10.7939 20.3448C10.8865 20.4214 11.0028 20.4634 11.123 20.4634C11.2431 20.4634 11.3595 20.4214 11.452 20.3448L12.7412 19.2184L13.4318 18.6717L14.552 17.8699C14.5966 17.8488 14.6337 17.8147 14.6584 17.772C14.6832 17.7294 14.6944 17.6803 14.6907 17.6312C14.6869 17.582 14.6684 17.5352 14.6375 17.4968C14.6066 17.4584 14.5647 17.4303 14.5175 17.4162L13.2299 16.7663L12.4338 16.4019L11.7306 16.1151ZM19.6737 8.89708L19.7144 8.7805C19.7162 8.62455 19.7064 8.46868 19.6851 8.31419C19.5767 8.03798 19.4414 7.77558 19.2696 7.53024L18.5409 6.46073L18.0218 5.75558L17.0453 4.537C16.9559 4.41798 16.8592 4.30465 16.7556 4.19823H16.7353L16.3015 4.27825L14.1552 4.69176C13.9379 4.70191 13.7206 4.67023 13.5159 4.59833L12.3371 4.21773L11.4934 3.98457C11.2458 3.95827 10.9961 3.95827 10.7485 3.98457L9.90479 4.22017L8.72602 4.6028C8.52077 4.67429 8.30379 4.70599 8.08667 4.69622L5.94278 4.29003L5.50897 4.21001H5.48866C5.38467 4.31643 5.288 4.42936 5.19904 4.54878L4.22418 5.76736C4.04256 5.99597 3.8694 6.23118 3.70506 6.47251L2.97635 7.54202L2.6319 8.11597C2.56934 8.33653 2.53644 8.5644 2.5336 8.79431L2.57422 8.91089C2.59169 8.98563 2.61484 9.05955 2.64165 9.13145L3.21722 9.79273L5.76812 12.5037C5.85291 12.6024 5.90963 12.7222 5.93235 12.8504C5.95507 12.9785 5.94296 13.1105 5.89729 13.2324L5.46835 14.217C5.37345 14.4791 5.36647 14.765 5.44844 15.0314L5.53212 15.2609C5.66905 15.6338 5.90377 15.9629 6.21168 16.2138L6.61259 16.54C6.82381 16.6927 7.10003 16.7256 7.3413 16.6273L8.76623 15.9478C9.02802 15.8171 9.27276 15.6548 9.49494 15.4644L10.6355 14.4351C10.681 14.3942 10.7178 14.3445 10.7436 14.289C10.7694 14.2335 10.7838 14.1734 10.7858 14.1122C10.788 14.051 10.7779 13.9901 10.7561 13.9329C10.7343 13.8757 10.7014 13.8234 10.6591 13.7791L8.08464 12.0447C7.98725 11.9755 7.91789 11.8737 7.88913 11.7577C7.86036 11.6417 7.8741 11.5193 7.92785 11.4126L8.92627 9.53602C8.98301 9.42116 9.01655 9.29626 9.02498 9.16843C9.03342 9.04061 9.01658 8.91237 8.97542 8.79106C8.85153 8.5595 8.65132 8.37795 8.40878 8.27723L5.27865 7.09926C5.05281 7.01803 5.0654 6.91648 5.30424 6.90267L7.14268 6.71988C7.43099 6.70171 7.72039 6.72746 8.00096 6.79624L9.60055 7.24306C9.83533 7.31373 9.98237 7.5477 9.94297 7.78979L9.31459 11.2221C9.27261 11.4122 9.26218 11.6079 9.28372 11.8014C9.30931 11.8834 9.52419 11.9841 9.75897 12.0418L10.7338 12.2449C11.0169 12.297 11.307 12.297 11.5901 12.2449L12.4662 12.0418C12.7018 11.989 12.9143 11.8777 12.9415 11.7957C12.9624 11.6021 12.9514 11.4064 12.909 11.2164L12.277 7.78411C12.2585 7.667 12.283 7.54717 12.3459 7.4467C12.4088 7.34622 12.506 7.27188 12.6194 7.23737L14.219 6.78934C14.4995 6.7203 14.7889 6.69455 15.0773 6.71297L16.9157 6.88439C17.1562 6.90632 17.1675 6.99569 16.9429 7.08099L13.8152 8.26707C13.5719 8.36662 13.3714 8.54849 13.2486 8.78091C13.1658 9.02591 13.1833 9.29373 13.2973 9.52586L14.2974 11.4025C14.3511 11.5092 14.3649 11.6316 14.3361 11.7475C14.3073 11.8635 14.238 11.9653 14.1406 12.0345L11.5682 13.773C11.526 13.8173 11.4931 13.8696 11.4714 13.9268C11.4497 13.9839 11.4397 14.0449 11.4419 14.106C11.4441 14.1671 11.4585 14.2271 11.4842 14.2826C11.5099 14.3381 11.5465 14.3879 11.5917 14.429L12.7339 15.4583C12.9565 15.6475 13.2012 15.809 13.4626 15.9393L14.8876 16.6176C15.1297 16.7151 15.4051 16.6818 15.6163 16.5282L16.0172 16.2004C16.3255 15.9492 16.5603 15.6194 16.6967 15.2459L16.7804 15.0164C16.8624 14.7499 16.8554 14.4641 16.7605 14.202L16.3413 13.2125C16.2961 13.0905 16.2842 12.9587 16.3069 12.8306C16.3296 12.7025 16.3861 12.5828 16.4705 12.4838L19.0214 9.76917L19.5953 9.10789C19.6261 9.0379 19.6523 8.96599 19.6737 8.89261V8.89708Z" fill="white"/>
<defs>
<linearGradient id="paint0_linear_2130_7408" x1="0.00665565" y1="12.9993" x2="22.1591" y2="12.9993" gradientUnits="userSpaceOnUse">
<stop stop-color="#F1562B"/>
<stop offset="0.3" stop-color="#F1542B"/>
<stop offset="0.41" stop-color="#F04D2A"/>
<stop offset="0.49" stop-color="#EF4229"/>
<stop offset="0.5" stop-color="#EF4029"/>
<stop offset="0.56" stop-color="#E83E28"/>
<stop offset="0.67" stop-color="#E13C26"/>
<stop offset="1" stop-color="#DF3C26"/>
</linearGradient>
</defs>
</svg>
