<svg
  width="200"
  height="25"
  viewBox="0 0 231 25"
  fill="none"
  xmlns="http://www.w3.org/2000/svg"
>
  <rect x="0.875" y="1.69092" width="230" height="23" rx="2" fill="white" />
  <path
    d="M28.2549 12.9375C27.0488 12.5908 26.1699 12.166 25.6182 11.6631C25.0713 11.1553 24.7979 10.5303 24.7979 9.78809C24.7979 8.94824 25.1323 8.25488 25.8013 7.70801C26.4751 7.15625 27.3491 6.88037 28.4233 6.88037C29.1558 6.88037 29.8076 7.02197 30.3789 7.30518C30.9551 7.58838 31.3994 7.979 31.7119 8.47705C32.0293 8.9751 32.188 9.51953 32.188 10.1104H30.7744C30.7744 9.46582 30.5693 8.96045 30.1592 8.59424C29.749 8.22314 29.1704 8.0376 28.4233 8.0376C27.73 8.0376 27.188 8.19141 26.7974 8.49902C26.4116 8.80176 26.2188 9.22412 26.2188 9.76611C26.2188 10.2007 26.4019 10.5693 26.7681 10.8721C27.1392 11.1699 27.7666 11.4434 28.6504 11.6924C29.5391 11.9414 30.2324 12.2173 30.7305 12.52C31.2334 12.8179 31.6045 13.167 31.8438 13.5674C32.0879 13.9678 32.21 14.439 32.21 14.981C32.21 15.8452 31.873 16.5386 31.1992 17.061C30.5254 17.5786 29.6245 17.8374 28.4966 17.8374C27.7642 17.8374 27.0806 17.6982 26.4458 17.4199C25.811 17.1367 25.3203 16.751 24.9736 16.2627C24.6318 15.7744 24.4609 15.2202 24.4609 14.6001H25.8745C25.8745 15.2446 26.1113 15.7549 26.585 16.1309C27.0635 16.502 27.7007 16.6875 28.4966 16.6875C29.2388 16.6875 29.8076 16.5361 30.2031 16.2334C30.5986 15.9307 30.7964 15.5181 30.7964 14.9956C30.7964 14.4731 30.6133 14.0703 30.2471 13.7871C29.8809 13.499 29.2168 13.2158 28.2549 12.9375ZM37.1384 17.8374C36.0642 17.8374 35.1902 17.4858 34.5163 16.7827C33.8425 16.0747 33.5056 15.1299 33.5056 13.9482V13.6992C33.5056 12.9131 33.6545 12.2124 33.9524 11.5972C34.2551 10.9771 34.675 10.4937 35.2121 10.147C35.7541 9.79541 36.3401 9.61963 36.97 9.61963C38.0002 9.61963 38.801 9.95898 39.3723 10.6377C39.9436 11.3164 40.2292 12.2881 40.2292 13.5527V14.1167H34.8606C34.8801 14.8979 35.1072 15.5303 35.5417 16.0137C35.9812 16.4922 36.5378 16.7314 37.2117 16.7314C37.6902 16.7314 38.0954 16.6338 38.4275 16.4385C38.7595 16.2432 39.05 15.9844 39.2991 15.6621L40.1267 16.3066C39.4626 17.3271 38.4665 17.8374 37.1384 17.8374ZM36.97 10.7329C36.4231 10.7329 35.9641 10.9331 35.593 11.3335C35.2219 11.729 34.9924 12.2856 34.9045 13.0034H38.8743V12.9009C38.8352 12.2124 38.6496 11.6802 38.3176 11.3042C37.9856 10.9233 37.5364 10.7329 36.97 10.7329ZM45.0258 16.7314C45.5092 16.7314 45.9316 16.585 46.2929 16.292C46.6543 15.999 46.8545 15.6328 46.8935 15.1934H48.1753C48.1508 15.6475 47.9946 16.0796 47.7065 16.4897C47.4184 16.8999 47.0327 17.2271 46.5493 17.4712C46.0708 17.7153 45.563 17.8374 45.0258 17.8374C43.9467 17.8374 43.0874 17.4785 42.4477 16.7607C41.813 16.0381 41.4956 15.0518 41.4956 13.8018V13.5747C41.4956 12.8032 41.6372 12.1172 41.9204 11.5166C42.2036 10.916 42.6089 10.4497 43.1362 10.1177C43.6684 9.78564 44.2959 9.61963 45.0185 9.61963C45.9072 9.61963 46.6445 9.88574 47.2304 10.418C47.8213 10.9502 48.1362 11.6411 48.1753 12.4907H46.8935C46.8545 11.978 46.6591 11.5581 46.3076 11.231C45.9609 10.8989 45.5312 10.7329 45.0185 10.7329C44.33 10.7329 43.7954 10.9819 43.4145 11.48C43.0385 11.9731 42.8506 12.6885 42.8506 13.626V13.8823C42.8506 14.7954 43.0385 15.4985 43.4145 15.9917C43.7905 16.4849 44.3276 16.7314 45.0258 16.7314ZM54.6345 16.9072C54.1071 17.5273 53.3332 17.8374 52.3127 17.8374C51.468 17.8374 50.8234 17.5933 50.3791 17.105C49.9396 16.6118 49.7175 15.8843 49.7126 14.9224V9.76611H51.0676V14.8857C51.0676 16.0869 51.5559 16.6875 52.5324 16.6875C53.5676 16.6875 54.2561 16.3018 54.5978 15.5303V9.76611H55.9528V17.6909H54.6638L54.6345 16.9072ZM61.892 10.9819C61.6869 10.9478 61.4648 10.9307 61.2255 10.9307C60.3368 10.9307 59.7338 11.3091 59.4164 12.0659V17.6909H58.0615V9.76611H59.3798L59.4018 10.6816C59.8461 9.97363 60.476 9.61963 61.2914 9.61963C61.5551 9.61963 61.7553 9.65381 61.892 9.72217V10.9819ZM66.3298 17.8374C65.2555 17.8374 64.3815 17.4858 63.7077 16.7827C63.0339 16.0747 62.6969 15.1299 62.6969 13.9482V13.6992C62.6969 12.9131 62.8459 12.2124 63.1437 11.5972C63.4464 10.9771 63.8664 10.4937 64.4035 10.147C64.9455 9.79541 65.5314 9.61963 66.1613 9.61963C67.1916 9.61963 67.9923 9.95898 68.5636 10.6377C69.1349 11.3164 69.4206 12.2881 69.4206 13.5527V14.1167H64.0519C64.0714 14.8979 64.2985 15.5303 64.7331 16.0137C65.1725 16.4922 65.7292 16.7314 66.403 16.7314C66.8815 16.7314 67.2868 16.6338 67.6188 16.4385C67.9508 16.2432 68.2414 15.9844 68.4904 15.6621L69.318 16.3066C68.654 17.3271 67.6579 17.8374 66.3298 17.8374ZM66.1613 10.7329C65.6144 10.7329 65.1554 10.9331 64.7843 11.3335C64.4132 11.729 64.1838 12.2856 64.0959 13.0034H68.0656V12.9009C68.0265 12.2124 67.841 11.6802 67.5089 11.3042C67.1769 10.9233 66.7277 10.7329 66.1613 10.7329ZM76.15 19.6685H75.0587V7.02686H76.15V19.6685ZM83.6266 10.7256C84.2271 9.98828 85.0084 9.61963 85.9703 9.61963C87.6451 9.61963 88.4898 10.5645 88.5045 12.4541V17.6909H87.1495V12.4468C87.1446 11.8755 87.0128 11.4531 86.754 11.1797C86.5001 10.9062 86.1021 10.7695 85.5602 10.7695C85.1207 10.7695 84.735 10.8867 84.4029 11.1211C84.0709 11.3555 83.8121 11.6631 83.6266 12.0439V17.6909H82.2716V6.44092H83.6266V10.7256ZM92.4149 7.84717V9.76611H93.8944V10.8135H92.4149V15.728C92.4149 16.0454 92.4808 16.2847 92.6126 16.4458C92.7445 16.6021 92.9691 16.6802 93.2865 16.6802C93.4427 16.6802 93.6575 16.6509 93.931 16.5923V17.6909C93.5745 17.7886 93.2279 17.8374 92.8909 17.8374C92.2855 17.8374 91.8289 17.6543 91.5213 17.2881C91.2137 16.9219 91.0599 16.4019 91.0599 15.728V10.8135H89.617V9.76611H91.0599V7.84717H92.4149ZM97.3653 7.84717V9.76611H98.8448V10.8135H97.3653V15.728C97.3653 16.0454 97.4312 16.2847 97.563 16.4458C97.6949 16.6021 97.9195 16.6802 98.2369 16.6802C98.3931 16.6802 98.608 16.6509 98.8814 16.5923V17.6909C98.525 17.7886 98.1783 17.8374 97.8414 17.8374C97.2359 17.8374 96.7794 17.6543 96.4717 17.2881C96.1641 16.9219 96.0103 16.4019 96.0103 15.728V10.8135H94.5674V9.76611H96.0103V7.84717H97.3653ZM107.172 13.8164C107.172 15.0225 106.896 15.9941 106.344 16.7314C105.792 17.4688 105.045 17.8374 104.103 17.8374C103.141 17.8374 102.384 17.5322 101.832 16.9219V20.7378H100.477V9.76611H101.715L101.781 10.645C102.333 9.96143 103.099 9.61963 104.081 9.61963C105.033 9.61963 105.785 9.97852 106.337 10.6963C106.893 11.4141 107.172 12.4126 107.172 13.6919V13.8164ZM105.817 13.6626C105.817 12.769 105.626 12.0635 105.245 11.5459C104.865 11.0283 104.342 10.7695 103.678 10.7695C102.858 10.7695 102.242 11.1333 101.832 11.8608V15.6475C102.238 16.3701 102.858 16.7314 103.693 16.7314C104.342 16.7314 104.857 16.4751 105.238 15.9624C105.624 15.4448 105.817 14.6782 105.817 13.6626ZM113.558 15.5889C113.558 15.2227 113.418 14.9395 113.14 14.7393C112.867 14.5342 112.386 14.3584 111.697 14.2119C111.014 14.0654 110.469 13.8896 110.064 13.6846C109.664 13.4795 109.366 13.2354 109.17 12.9521C108.98 12.6689 108.885 12.332 108.885 11.9414C108.885 11.292 109.158 10.7427 109.705 10.2935C110.257 9.84424 110.96 9.61963 111.814 9.61963C112.713 9.61963 113.44 9.85156 113.997 10.3154C114.559 10.7793 114.839 11.3726 114.839 12.0952H113.477C113.477 11.7241 113.318 11.4043 113.001 11.1357C112.688 10.8672 112.293 10.7329 111.814 10.7329C111.321 10.7329 110.936 10.8403 110.657 11.0552C110.379 11.27 110.24 11.5508 110.24 11.8975C110.24 12.2246 110.369 12.4712 110.628 12.6372C110.887 12.8032 111.353 12.9619 112.027 13.1133C112.706 13.2646 113.255 13.4453 113.675 13.6553C114.095 13.8652 114.405 14.1191 114.605 14.417C114.81 14.71 114.913 15.0688 114.913 15.4937C114.913 16.2017 114.629 16.7705 114.063 17.2002C113.497 17.625 112.762 17.8374 111.858 17.8374C111.224 17.8374 110.662 17.7251 110.174 17.5005C109.686 17.2759 109.302 16.9634 109.024 16.563C108.751 16.1577 108.614 15.7207 108.614 15.252H109.969C109.993 15.7061 110.174 16.0674 110.511 16.3359C110.853 16.5996 111.302 16.7314 111.858 16.7314C112.371 16.7314 112.781 16.6289 113.089 16.4238C113.401 16.2139 113.558 15.9355 113.558 15.5889Z"
    fill="#00C26F"
  />
  <path
    d="M116.677 16.9805C116.677 16.7461 116.745 16.5508 116.882 16.3945C117.024 16.2383 117.234 16.1602 117.512 16.1602C117.79 16.1602 118 16.2383 118.142 16.3945C118.288 16.5508 118.362 16.7461 118.362 16.9805C118.362 17.2051 118.288 17.3931 118.142 17.5444C118 17.6958 117.79 17.7715 117.512 17.7715C117.234 17.7715 117.024 17.6958 116.882 17.5444C116.745 17.3931 116.677 17.2051 116.677 16.9805ZM116.684 10.5132C116.684 10.2788 116.753 10.0835 116.889 9.92725C117.031 9.771 117.241 9.69287 117.519 9.69287C117.798 9.69287 118.008 9.771 118.149 9.92725C118.296 10.0835 118.369 10.2788 118.369 10.5132C118.369 10.7378 118.296 10.9258 118.149 11.0771C118.008 11.2285 117.798 11.3042 117.519 11.3042C117.241 11.3042 117.031 11.2285 116.889 11.0771C116.753 10.9258 116.684 10.7378 116.684 10.5132ZM120.668 18.6064H119.503L123.957 7.02686H125.114L120.668 18.6064ZM125.252 18.6064H124.088L128.541 7.02686H129.698L125.252 18.6064Z"
    fill="black"
  />
  <path
    d="M134.29 16.1309C134.68 16.1309 134.998 16.0234 135.242 15.8086C135.486 15.5938 135.613 15.3081 135.623 14.9517H137.607C137.602 15.4888 137.456 15.9819 137.168 16.4312C136.88 16.8755 136.484 17.2222 135.981 17.4712C135.483 17.7153 134.932 17.8374 134.326 17.8374C133.193 17.8374 132.3 17.4785 131.645 16.7607C130.991 16.0381 130.664 15.042 130.664 13.7725V13.6333C130.664 12.4126 130.989 11.4385 131.638 10.7109C132.288 9.9834 133.179 9.61963 134.311 9.61963C135.303 9.61963 136.096 9.90283 136.692 10.4692C137.292 11.0308 137.598 11.7803 137.607 12.7178H135.623C135.613 12.3076 135.486 11.9756 135.242 11.7217C134.998 11.4629 134.675 11.3335 134.275 11.3335C133.782 11.3335 133.408 11.5142 133.154 11.8755C132.905 12.2319 132.781 12.813 132.781 13.6187V13.8384C132.781 14.6538 132.905 15.2397 133.154 15.5962C133.403 15.9526 133.782 16.1309 134.29 16.1309ZM140.924 10.6304C141.486 9.95654 142.192 9.61963 143.041 9.61963C144.76 9.61963 145.632 10.6182 145.656 12.6152V17.6909H143.539V12.6738C143.539 12.2197 143.442 11.8853 143.246 11.6704C143.051 11.4507 142.726 11.3408 142.272 11.3408C141.652 11.3408 141.203 11.5801 140.924 12.0586V17.6909H138.808V6.44092H140.924V10.6304ZM151.888 17.6909C151.79 17.5005 151.72 17.2637 151.676 16.9805C151.163 17.5518 150.497 17.8374 149.676 17.8374C148.9 17.8374 148.255 17.6128 147.743 17.1636C147.235 16.7144 146.981 16.1479 146.981 15.4644C146.981 14.6245 147.291 13.98 147.911 13.5308C148.536 13.0815 149.437 12.8545 150.614 12.8496H151.588V12.3955C151.588 12.0293 151.493 11.7363 151.302 11.5166C151.117 11.2969 150.821 11.187 150.416 11.187C150.059 11.187 149.779 11.2725 149.574 11.4434C149.373 11.6143 149.273 11.8486 149.273 12.1465H147.157C147.157 11.6875 147.298 11.2627 147.581 10.8721C147.865 10.4814 148.265 10.1763 148.783 9.95654C149.3 9.73193 149.881 9.61963 150.526 9.61963C151.502 9.61963 152.276 9.86621 152.848 10.3594C153.424 10.8477 153.712 11.5361 153.712 12.4248V15.8599C153.717 16.6118 153.822 17.1807 154.027 17.5664V17.6909H151.888ZM150.138 16.2188C150.45 16.2188 150.738 16.1504 151.002 16.0137C151.266 15.8721 151.461 15.6841 151.588 15.4497V14.0874H150.797C149.737 14.0874 149.173 14.4536 149.105 15.186L149.098 15.3105C149.098 15.5742 149.19 15.7915 149.376 15.9624C149.561 16.1333 149.815 16.2188 150.138 16.2188ZM157.329 9.76611L157.395 10.6816C157.962 9.97363 158.721 9.61963 159.673 9.61963C160.513 9.61963 161.138 9.86621 161.548 10.3594C161.958 10.8525 162.168 11.5898 162.178 12.5713V17.6909H160.061V12.6226C160.061 12.1733 159.964 11.8486 159.768 11.6484C159.573 11.4434 159.248 11.3408 158.794 11.3408C158.198 11.3408 157.752 11.5947 157.454 12.1025V17.6909H155.337V9.76611H157.329ZM163.525 13.6699C163.525 12.4541 163.813 11.4751 164.389 10.7329C164.97 9.99072 165.751 9.61963 166.733 9.61963C167.602 9.61963 168.278 9.91748 168.762 10.5132L168.85 9.76611H170.768V17.4272C170.768 18.1206 170.61 18.7236 170.292 19.2363C169.98 19.749 169.538 20.1396 168.967 20.4082C168.395 20.6768 167.726 20.811 166.96 20.811C166.379 20.811 165.812 20.6938 165.261 20.4595C164.709 20.23 164.291 19.9321 164.008 19.5659L164.946 18.2769C165.473 18.8677 166.113 19.1631 166.865 19.1631C167.426 19.1631 167.863 19.0117 168.176 18.709C168.488 18.4111 168.644 17.9863 168.644 17.4346V17.0098C168.156 17.5615 167.514 17.8374 166.718 17.8374C165.766 17.8374 164.995 17.4663 164.404 16.7241C163.818 15.9771 163.525 14.9883 163.525 13.7578V13.6699ZM165.641 13.8237C165.641 14.5415 165.786 15.1055 166.074 15.5156C166.362 15.9209 166.757 16.1235 167.26 16.1235C167.905 16.1235 168.366 15.8818 168.644 15.3984V12.0659C168.361 11.5825 167.905 11.3408 167.275 11.3408C166.767 11.3408 166.367 11.5483 166.074 11.9634C165.786 12.3784 165.641 12.9985 165.641 13.8237ZM176.092 17.8374C174.93 17.8374 173.983 17.481 173.251 16.7681C172.523 16.0552 172.159 15.1055 172.159 13.9189V13.7139C172.159 12.918 172.313 12.2075 172.621 11.5825C172.928 10.9526 173.363 10.4692 173.924 10.1323C174.491 9.79053 175.135 9.61963 175.858 9.61963C176.942 9.61963 177.794 9.96143 178.414 10.645C179.039 11.3286 179.352 12.2979 179.352 13.5527V14.417H174.305C174.374 14.9346 174.579 15.3496 174.921 15.6621C175.267 15.9746 175.704 16.1309 176.232 16.1309C177.047 16.1309 177.684 15.8354 178.143 15.2446L179.183 16.4092C178.866 16.8584 178.436 17.21 177.894 17.4639C177.352 17.7129 176.752 17.8374 176.092 17.8374ZM175.851 11.3335C175.431 11.3335 175.089 11.4751 174.825 11.7583C174.567 12.0415 174.401 12.4468 174.327 12.9741H177.272V12.8057C177.262 12.3369 177.135 11.9756 176.891 11.7217C176.647 11.4629 176.3 11.3335 175.851 11.3335ZM182.552 9.76611L182.618 10.6816C183.184 9.97363 183.943 9.61963 184.895 9.61963C185.735 9.61963 186.36 9.86621 186.77 10.3594C187.181 10.8525 187.39 11.5898 187.4 12.5713V17.6909H185.284V12.6226C185.284 12.1733 185.186 11.8486 184.991 11.6484C184.795 11.4434 184.471 11.3408 184.016 11.3408C183.421 11.3408 182.974 11.5947 182.676 12.1025V17.6909H180.559V9.76611H182.552ZM188.725 13.6553C188.725 12.8691 188.877 12.1685 189.179 11.5532C189.482 10.938 189.917 10.4619 190.483 10.125C191.054 9.78809 191.716 9.61963 192.468 9.61963C193.537 9.61963 194.409 9.94678 195.083 10.6011C195.761 11.2554 196.14 12.144 196.218 13.2671L196.232 13.8091C196.232 15.0249 195.893 16.0015 195.214 16.7388C194.536 17.4712 193.625 17.8374 192.482 17.8374C191.34 17.8374 190.427 17.4712 189.743 16.7388C189.065 16.0063 188.725 15.0103 188.725 13.7505V13.6553ZM190.842 13.8091C190.842 14.561 190.983 15.1372 191.267 15.5376C191.55 15.9331 191.955 16.1309 192.482 16.1309C192.995 16.1309 193.396 15.9355 193.684 15.5449C193.972 15.1494 194.116 14.5195 194.116 13.6553C194.116 12.918 193.972 12.3467 193.684 11.9414C193.396 11.5361 192.99 11.3335 192.468 11.3335C191.95 11.3335 191.55 11.5361 191.267 11.9414C190.983 12.3418 190.842 12.9644 190.842 13.8091ZM204.471 14.8125L205.512 9.76611H207.555L205.534 17.6909H203.761L202.26 12.7031L200.758 17.6909H198.993L196.971 9.76611H199.015L200.048 14.8052L201.498 9.76611H203.029L204.471 14.8125ZM207.855 16.6509C207.855 16.314 207.967 16.0405 208.191 15.8306C208.421 15.6206 208.707 15.5156 209.048 15.5156C209.395 15.5156 209.681 15.6206 209.905 15.8306C210.135 16.0405 210.25 16.314 210.25 16.6509C210.25 16.9829 210.137 17.2539 209.913 17.4639C209.688 17.6689 209.4 17.7715 209.048 17.7715C208.702 17.7715 208.416 17.6689 208.191 17.4639C207.967 17.2539 207.855 16.9829 207.855 16.6509ZM214.387 17.6909H212.263V9.76611H214.387V17.6909ZM212.138 7.71533C212.138 7.39795 212.243 7.13672 212.453 6.93164C212.668 6.72656 212.959 6.62402 213.325 6.62402C213.686 6.62402 213.974 6.72656 214.189 6.93164C214.404 7.13672 214.512 7.39795 214.512 7.71533C214.512 8.0376 214.402 8.30127 214.182 8.50635C213.967 8.71143 213.681 8.81396 213.325 8.81396C212.969 8.81396 212.68 8.71143 212.461 8.50635C212.246 8.30127 212.138 8.0376 212.138 7.71533ZM215.851 13.6553C215.851 12.8691 216.002 12.1685 216.305 11.5532C216.608 10.938 217.042 10.4619 217.609 10.125C218.18 9.78809 218.842 9.61963 219.594 9.61963C220.663 9.61963 221.535 9.94678 222.209 10.6011C222.887 11.2554 223.266 12.144 223.344 13.2671L223.358 13.8091C223.358 15.0249 223.019 16.0015 222.34 16.7388C221.662 17.4712 220.751 17.8374 219.608 17.8374C218.466 17.8374 217.553 17.4712 216.869 16.7388C216.19 16.0063 215.851 15.0103 215.851 13.7505V13.6553ZM217.968 13.8091C217.968 14.561 218.109 15.1372 218.393 15.5376C218.676 15.9331 219.081 16.1309 219.608 16.1309C220.121 16.1309 220.521 15.9355 220.81 15.5449C221.098 15.1494 221.242 14.5195 221.242 13.6553C221.242 12.918 221.098 12.3467 220.81 11.9414C220.521 11.5361 220.116 11.3335 219.594 11.3335C219.076 11.3335 218.676 11.5361 218.393 11.9414C218.109 12.3418 217.968 12.9644 217.968 13.8091Z"
    fill="#2B2B36"
  />
  <path d="M8.875 12.5647H15.9585V17.6909H8.875V12.5647Z" fill="#00C26F" />
  <path
    fillRule="evenodd"
    clipRule="evenodd"
    d="M12.4167 10.0191C11.8055 10.0191 11.3099 10.5146 11.3099 11.1259V12.5647H9.98179V11.1259C9.98179 9.78108 11.072 8.69092 12.4167 8.69092C13.7615 8.69092 14.8517 9.78108 14.8517 11.1259V12.5647H13.5235V11.1259C13.5235 10.5146 13.028 10.0191 12.4167 10.0191Z"
    fill="#00C26F"
  />
</svg>