<svg width="27" height="18" viewBox="0 0 27 18" fill="none" xmlns="http://www.w3.org/2000/svg">
<path d="M9.88432 0.949482C11.4996 1.0636 13.0742 1.69523 14.5028 2.80213C14.6324 2.90258 14.7385 2.99117 14.7385 2.99898C14.7385 3.05608 12.7337 5.13396 12.6489 5.16476C12.64 5.16798 12.5769 5.13655 12.5087 5.09493C11.5586 4.51502 10.4697 4.112 9.59696 4.01724C9.35538 3.99099 8.85793 3.9907 8.64341 4.01668C8.10191 4.08221 7.43862 4.28763 6.92633 4.54843C5.73751 5.15365 4.79653 6.27815 4.35588 7.62017C4.17601 8.16792 4.10495 8.61795 4.10444 9.21219C4.10391 9.83887 4.16662 10.206 4.38469 10.853C4.62324 11.5607 4.85236 11.9877 5.26214 12.4883C6.0784 13.4853 7.24069 14.1352 8.61462 14.3628C8.92322 14.414 9.77249 14.4138 10.0797 14.3626C10.6514 14.2673 11.1957 14.0851 11.7303 13.8101C12.6174 13.3537 13.3376 12.5013 13.7788 11.3852C13.881 11.127 13.9441 10.9312 13.9298 10.9169C13.9233 10.9104 13.072 10.8981 12.0379 10.8895C11.0038 10.881 9.94462 10.8683 9.6841 10.8613L9.2104 10.8486V9.43464V8.02062H12.7527C14.7009 8.02062 16.4802 8.0264 16.7068 8.03345C17.1025 8.04578 17.1191 8.04789 17.1306 8.08717C17.1564 8.17503 17.1658 9.44165 17.1433 9.7982C17.0618 11.0963 16.8126 12.1795 16.3692 13.1633C15.9226 14.1543 15.1791 15.1115 14.3283 15.7909C11.7487 17.8504 7.73958 18.0394 4.84972 16.2375C4.33109 15.9142 3.90561 15.5707 3.40749 15.0732C2.72584 14.3924 2.2506 13.7418 1.83724 12.9236C1.36978 11.9983 1.10064 11.0895 0.9967 10.0853C0.953627 9.66914 0.95265 8.59437 0.99498 8.20926C1.17311 6.58904 1.86916 5.03758 2.99007 3.76223C3.21239 3.50928 3.69089 3.03912 3.92649 2.84214C4.97716 1.9637 6.19996 1.36124 7.44921 1.10653C7.84278 1.02629 8.13997 0.990522 8.65967 0.960792C9.22773 0.928326 9.54351 0.925397 9.88432 0.949482Z" fill="#DC4E41"/>
<path d="M24.6031 6.12095C24.6031 6.37612 24.609 6.90785 24.6161 7.30259L24.629 8.02032L25.8027 8.02534L26.9765 8.03039V9.21219V10.394L25.8027 10.399L24.6289 10.404L24.616 11.0046C24.609 11.3349 24.6032 11.8666 24.6031 12.1862L24.6031 12.7674H23.4245H22.2458L22.2329 12.1374C22.2258 11.7909 22.22 11.2646 22.22 10.9679L22.22 10.4284L22.1467 10.4163C22.1064 10.4096 21.5745 10.4041 20.9648 10.404L19.8561 10.4038L19.8611 9.21707L19.8661 8.03039L21.043 8.02534L22.22 8.0203L22.22 7.58583C22.22 7.34687 22.2258 6.81514 22.2329 6.40419L22.2458 5.65702H23.4245H24.6031L24.6031 6.12095Z" fill="#DC4E41"/>
</svg>
