<svg width="120" height="120" viewBox="0 0 120 120" fill="none" xmlns="http://www.w3.org/2000/svg">
<path d="M19.4317 17.1888C19.2775 17.1317 19.1044 17.1955 19.0252 17.3386C18.9461 17.4816 18.9849 17.6606 19.1164 17.7588L52.9059 42.9921C53.0246 43.0808 53.1884 43.0802 53.3066 42.9907C53.4247 42.9013 53.4682 42.7447 53.4131 42.6079L47.3769 27.6412C47.3422 27.5553 47.2725 27.4878 47.185 27.4554L19.4317 17.1888Z" fill="#E27625"/>
<path d="M98.1526 17.7605C98.2854 17.6631 98.3256 17.4837 98.2468 17.3398C98.168 17.1959 97.9943 17.1315 97.8396 17.1888L70.0864 27.4554C70.0014 27.4869 69.9331 27.5516 69.8975 27.6343L63.5576 42.3676C63.4989 42.504 63.5397 42.6624 63.657 42.7542C63.7744 42.8461 63.9393 42.8487 64.0596 42.7605L98.1526 17.7605Z" fill="#E27625"/>
<path d="M85.686 75.1368C85.572 75.1346 85.4648 75.1907 85.4024 75.2853L76.3312 89.0187C76.2732 89.1065 76.2611 89.2165 76.2985 89.3146C76.3359 89.4128 76.4184 89.4873 76.5205 89.5152L95.9444 94.8153C96.1187 94.8628 96.2992 94.7632 96.3503 94.5913L101.915 75.8581C101.944 75.7599 101.925 75.6537 101.864 75.5711C101.803 75.4885 101.706 75.4389 101.603 75.437L85.686 75.1368Z" fill="#E27625"/>
<path d="M31.868 75.2857C31.8056 75.1909 31.6983 75.1346 31.5841 75.1368L15.7011 75.437C15.5978 75.4389 15.5014 75.4885 15.4403 75.5709C15.3792 75.6534 15.3603 75.7594 15.3893 75.8576L20.9197 94.5908C20.9705 94.763 21.1514 94.8629 21.3259 94.8152L40.7161 89.5152C40.8181 89.4873 40.9005 89.4129 40.938 89.3148C40.9754 89.2168 40.9634 89.1069 40.9056 89.0191L31.868 75.2857Z" fill="#E27625"/>
<path d="M64.5224 40.2237C64.4258 40.1385 64.2881 40.1168 64.1696 40.168C64.0511 40.2193 63.9735 40.3341 63.9708 40.4622L63.5324 61.1956C63.5305 61.2864 63.5666 61.374 63.6323 61.4375C63.6979 61.501 63.7872 61.5347 63.8788 61.5305L83.1002 60.6639C83.2194 60.6585 83.3266 60.59 83.3806 60.4845C83.4347 60.3791 83.4273 60.2529 83.3614 60.1543L77.9658 52.0876C77.95 52.0639 77.9312 52.0425 77.9098 52.0236L64.5224 40.2237Z" fill="#E27625"/>
<path d="M53.101 40.6914C53.097 40.5641 53.0191 40.4506 52.9011 40.4001C52.7831 40.3496 52.6463 40.3712 52.55 40.4557L39.3646 52.0222C39.343 52.0412 39.324 52.0629 39.308 52.0867L33.9126 60.1535C33.8466 60.2521 33.8393 60.3782 33.8934 60.4837C33.9474 60.5891 34.0545 60.6576 34.1738 60.663L53.3953 61.5297C53.4875 61.5338 53.5773 61.4997 53.643 61.4355C53.7087 61.3713 53.7445 61.2828 53.7416 61.1914L53.101 40.6914Z" fill="#E27625"/>
<path d="M52.5923 83.6764C52.6068 83.5572 52.5545 83.4397 52.456 83.3698C52.3574 83.3 52.2282 83.2891 52.1191 83.3413L40.4852 88.9078C40.3702 88.9628 40.2974 89.0783 40.2979 89.2048C40.2983 89.3313 40.372 89.4463 40.4874 89.5004L51.2785 94.5672C51.3823 94.6159 51.5041 94.6079 51.6005 94.546C51.697 94.4842 51.7542 94.3772 51.7517 94.2634L51.6847 91.1199L52.5923 83.6764Z" fill="#D5BFB2"/>
<path d="M65.1542 83.3414C65.0448 83.289 64.9153 83.3 64.8165 83.3702C64.7178 83.4403 64.6658 83.5584 64.6809 83.6779L65.6217 91.119L65.5213 94.26C65.5177 94.3744 65.5744 94.4825 65.6711 94.5452C65.7678 94.6079 65.8905 94.6162 65.9948 94.567L76.7522 89.5003C76.8673 89.446 76.9409 89.3311 76.9414 89.2048C76.9418 89.0785 76.8691 88.9631 76.7544 88.908L65.1542 83.3414Z" fill="#D5BFB2"/>
<path d="M42.645 75.5048C42.6567 75.4099 42.626 75.3146 42.561 75.2439C42.496 75.1733 42.4031 75.1341 42.3067 75.1368L31.583 75.4371C31.4625 75.4404 31.3534 75.5084 31.298 75.6145C31.2426 75.7206 31.2498 75.8482 31.3167 75.9476L40.3541 89.3807C40.431 89.4951 40.5716 89.5499 40.7065 89.5181C40.8414 89.4863 40.9421 89.3746 40.9588 89.2382L42.645 75.5048Z" fill="#CC6228"/>
<path d="M74.9682 75.1368C74.8719 75.1342 74.7792 75.1731 74.7142 75.2437C74.6492 75.3142 74.6184 75.4092 74.6298 75.5041L76.2822 89.2374C76.2987 89.3739 76.3991 89.4858 76.534 89.5179C76.6688 89.55 76.8096 89.4955 76.8868 89.3812L85.9579 75.948C86.025 75.8487 86.0323 75.721 85.977 75.6148C85.9217 75.5085 85.8124 75.4404 85.6918 75.4371L74.9682 75.1368Z" fill="#CC6228"/>
<path fill-rule="evenodd" clip-rule="evenodd" d="M68.186 64.9257C68.2637 64.7637 68.4583 64.6935 68.623 64.7681L75.4685 67.8681C75.5944 67.9252 75.6713 68.0538 75.6613 68.1906C75.6513 68.3275 75.5565 68.4437 75.4236 68.4822L65.7453 71.282C65.62 71.3183 65.4848 71.2782 65.4001 71.1797C65.3155 71.0811 65.2971 70.9425 65.3532 70.8256L68.186 64.9257ZM68.6443 65.4999L66.2695 70.4461L74.3832 68.0989L68.6443 65.4999Z" fill="#233447"/>
<path d="M34.2039 60.0003C34.0677 59.9942 33.9416 60.0714 33.8861 60.1948C33.8306 60.3182 33.8571 60.4627 33.9528 60.559L41.7422 68.3926C41.7818 68.4324 41.831 68.4616 41.8851 68.4773L51.5297 71.2772C51.6199 71.3033 51.717 71.2904 51.797 71.2414C51.8769 71.1925 51.9322 71.1122 51.9489 71.0206L53.7364 61.2537C53.7535 61.1605 53.7291 61.0645 53.6695 60.9904C53.6099 60.9163 53.5209 60.8713 53.4254 60.867L34.2039 60.0003Z" fill="#CC6228"/>
<path d="M83.3217 60.5585C83.4171 60.4621 83.4433 60.3177 83.3877 60.1945C83.3321 60.0712 83.2061 59.9942 83.0701 60.0003L63.8487 60.867C63.7532 60.8713 63.6642 60.9163 63.6046 60.9904C63.545 61.0645 63.5206 61.1605 63.5377 61.2537L65.3248 71.0206C65.3505 71.1609 65.4646 71.2688 65.6072 71.2876C65.7498 71.3064 65.8884 71.2319 65.9502 71.1031L68.6428 65.4949L75.1915 68.4606C75.3184 68.5181 75.4681 68.4906 75.5658 68.3919L83.3217 60.5585Z" fill="#CC6228"/>
<path d="M51.6541 70.9703L48.8213 65.0703L41.9757 68.1704L51.6541 70.9703Z" fill="#233447"/>
<path fill-rule="evenodd" clip-rule="evenodd" d="M48.6872 64.7681C48.8518 64.6935 49.0464 64.7637 49.1242 64.9257L51.9569 70.8256C52.0131 70.9425 51.9947 71.0811 51.91 71.1797C51.8254 71.2782 51.6902 71.3183 51.5648 71.282L41.8865 68.4822C41.7536 68.4437 41.6588 68.3275 41.6488 68.1906C41.6388 68.0538 41.7157 67.9252 41.8416 67.8681L48.6872 64.7681ZM51.0407 70.4461L48.6659 65.4999L42.927 68.0989L51.0407 70.4461Z" fill="#233447"/>
<path d="M68.4853 65.0666L65.6525 70.9665L75.3308 68.1667L68.4853 65.0666Z" fill="#233447"/>
<path d="M34.4249 60.0979C34.31 59.9824 34.1273 59.9673 33.9947 60.0623C33.862 60.1573 33.8193 60.3341 33.894 60.4784L41.9076 75.9562L40.3011 89.1555C40.2866 89.2747 40.3389 89.3923 40.4374 89.4621C40.536 89.5319 40.6651 89.5428 40.7742 89.4906L52.4082 83.9241C52.5114 83.8747 52.5815 83.776 52.5937 83.663C52.6058 83.5501 52.5582 83.439 52.4678 83.3692L42.5743 75.7299L42.3097 68.1505C42.3069 68.0682 42.2729 67.99 42.2146 67.9313L34.4249 60.0979Z" fill="#E27525"/>
<path d="M74.7004 75.7298L74.9979 68.1491C75.0011 68.0676 75.0348 67.9901 75.0925 67.9318L82.8487 60.0984C82.9634 59.9826 83.1463 59.9671 83.2791 60.0621C83.412 60.1571 83.4549 60.334 83.3801 60.4784L75.3668 75.9558L76.9399 89.1563C76.9541 89.2755 76.9016 89.3928 76.803 89.4624C76.7044 89.532 76.5753 89.5427 76.4664 89.4905L64.8661 83.9239C64.7631 83.8744 64.6931 83.7757 64.681 83.6629C64.6689 83.55 64.7165 83.4389 64.8069 83.3692L74.7004 75.7298Z" fill="#E27525"/>
<path d="M64.1894 61.1409C64.1605 60.9831 64.0208 60.869 63.859 60.8711C63.6971 60.8732 63.5605 60.9909 63.5358 61.1495L62.5914 67.2164C62.5883 67.2363 62.5871 67.2564 62.5877 67.2765L63.0599 82.5097C63.0651 82.6769 63.1962 82.8135 63.3645 82.8269C63.5327 82.8404 63.6843 82.7264 63.7165 82.5622L65.9758 71.029C65.9837 70.989 65.9839 70.9479 65.9766 70.9078L64.1894 61.1409Z" fill="#E27525"/>
<path d="M53.7377 61.148C53.7123 60.9898 53.5756 60.8729 53.414 60.8711C53.2524 60.8694 53.1131 60.9834 53.0843 61.1409L51.2968 70.9078C51.2895 70.9479 51.2897 70.989 51.2976 71.029L53.5569 82.5622C53.5891 82.7262 53.7404 82.8402 53.9086 82.827C54.0767 82.8137 54.2079 82.6774 54.2135 82.5104L54.7194 67.3105C54.7201 67.2896 54.7188 67.2687 54.7155 67.2481L53.7377 61.148Z" fill="#E27525"/>
<path d="M40.7712 88.9028C40.6199 88.8317 40.4388 88.8837 40.3493 89.0239C40.2597 89.1641 40.2897 89.3485 40.4192 89.4536L44.1961 92.5203C44.2031 92.526 44.2104 92.5314 44.2179 92.5366L51.8728 97.77C51.9282 97.8078 51.9938 97.8281 52.061 97.8281H65.1787C65.2457 97.8281 65.3111 97.808 65.3664 97.7704L73.055 92.537C73.0631 92.5314 73.071 92.5256 73.0785 92.5194L76.8216 89.4527C76.9505 89.3471 76.9798 89.1629 76.89 89.0231C76.8001 88.8833 76.6192 88.8318 76.4682 88.9029L66.2018 93.7386L66.2856 91.11C66.2888 91.0097 66.2455 90.9134 66.1681 90.8486L65.2915 90.1152C65.2317 90.0652 65.156 90.0377 65.0777 90.0377H52.196C52.1156 90.0377 52.0378 90.0668 51.9774 90.1194L51.1343 90.8528C51.0608 90.9167 51.0195 91.0096 51.0216 91.1065L51.0777 93.742L40.7712 88.9028Z" fill="#C0AC9D"/>
<path d="M53.881 82.168C53.8125 82.168 53.7457 82.189 53.6898 82.2282L52.0713 83.3613C51.9948 83.4149 51.9447 83.498 51.9335 83.5902L51.0229 91.057C51.0064 91.1922 51.0758 91.3234 51.1973 91.3869C51.3188 91.4505 51.4673 91.4331 51.5706 91.3433L52.3199 90.6915H64.9556L65.7399 91.3474C65.8442 91.4347 65.9918 91.4496 66.1117 91.3851C66.2317 91.3206 66.2995 91.1898 66.2825 91.0556L65.3381 83.5887C65.3266 83.4971 65.2766 83.4146 65.2005 83.3613L63.5818 82.2281C63.5259 82.189 63.4591 82.168 63.3906 82.168H53.881Z" fill="#161616"/>
<path d="M19.513 17.2324C19.4276 17.1698 19.3172 17.1515 19.216 17.1832C19.1148 17.2149 19.035 17.2927 19.0014 17.3926L14.685 30.2259C14.6665 30.281 14.663 30.3399 14.6749 30.3967L17.5319 43.9913L15.847 45.2329C15.7632 45.2946 15.7137 45.3919 15.7134 45.4953C15.713 45.5988 15.7619 45.6964 15.8452 45.7587L18.2637 47.5663L16.5166 48.9033C16.4391 48.9626 16.3921 49.0529 16.3881 49.1499C16.3841 49.2469 16.4236 49.3406 16.496 49.406L18.9262 51.6005L17.5366 52.5971C17.4615 52.651 17.4127 52.7334 17.4017 52.8245C17.3908 52.9156 17.4189 53.0071 17.4791 53.0768L21.4246 57.6435C21.5093 57.7415 21.644 57.7813 21.769 57.7452L39.6755 52.5784C39.7199 52.5656 39.7612 52.5437 39.7965 52.5141L52.4758 41.9143C52.5533 41.8495 52.5966 41.7532 52.5933 41.6528C52.5901 41.5524 52.5407 41.459 52.4593 41.3992L19.513 17.2324Z" fill="#763E1A"/>
<path d="M98.27 17.3926C98.2364 17.2927 98.1567 17.2149 98.0554 17.1832C97.9542 17.1515 97.8438 17.1698 97.7584 17.2324L64.8122 41.3992C64.7308 41.459 64.6814 41.5524 64.6781 41.6528C64.6749 41.7532 64.7182 41.8495 64.7957 41.9143L77.475 52.5141C77.5103 52.5437 77.5516 52.5656 77.596 52.5784L95.5024 57.7452C95.6274 57.7813 95.7621 57.7415 95.8468 57.6435L99.7923 53.0768C99.8525 53.0071 99.8806 52.9156 99.8697 52.8245C99.8588 52.7334 99.8099 52.651 99.7349 52.5972L98.3453 51.6005L100.775 49.406C100.848 49.3406 100.887 49.2469 100.883 49.1499C100.879 49.0529 100.832 48.9626 100.755 48.9033L99.0057 47.5647L101.394 45.7575C101.476 45.6955 101.524 45.5994 101.524 45.4973C101.525 45.3952 101.477 45.2988 101.395 45.2364L99.7719 43.995L102.597 30.396C102.608 30.3394 102.605 30.2807 102.587 30.2259L98.27 17.3926Z" fill="#763E1A"/>
<path d="M47.0683 27.4375C46.9598 27.4375 46.8582 27.4901 46.7963 27.5783C46.7343 27.6665 46.7198 27.7792 46.7575 27.88L51.9334 41.7339L53.0771 61.2184L53.0773 61.2226L53.515 67.3446L53.5413 79.045L51.9464 70.904C51.9228 70.7834 51.8333 70.686 51.7143 70.6514L42.0697 67.8513C41.9676 67.8216 41.8573 67.8424 41.7733 67.9071C41.6892 67.9717 41.6416 68.0724 41.6453 68.1778L41.864 74.4415L34.5705 60.354L39.8587 52.4476C39.9355 52.3327 39.9318 52.1825 39.8494 52.0715C39.7669 51.9604 39.6233 51.9122 39.4898 51.9508L21.5835 57.1173C21.478 57.1478 21.3945 57.2281 21.3608 57.3318L15.392 75.6653C15.3595 75.7652 15.3771 75.8746 15.4395 75.9595C15.5018 76.0444 15.6014 76.0946 15.7074 76.0946H31.5904L42.1308 76.2269L52.058 83.8923C52.1733 83.9812 52.3337 83.985 52.453 83.9014L53.9857 82.8282H63.2847L64.8174 83.9014C64.9367 83.985 65.0972 83.9812 65.2124 83.8923L75.1399 76.2269L85.68 76.0946H101.597C101.703 76.0946 101.802 76.0443 101.865 75.9592C101.927 75.8742 101.945 75.7648 101.912 75.6648L95.9096 57.3313C95.8757 57.2279 95.7923 57.1477 95.6869 57.1173L77.7806 51.9508C77.647 51.9122 77.5034 51.9604 77.421 52.0715C77.3386 52.1825 77.3349 52.3327 77.4117 52.4476L82.7 60.354L75.4136 74.4282L75.6588 68.1792C75.6629 68.0737 75.6156 67.9726 75.5316 67.9076C75.4475 67.8426 75.3371 67.8216 75.2348 67.8512L65.5564 70.6513C65.4373 70.6858 65.3476 70.7833 65.324 70.904L63.729 79.0457L63.7548 67.3446L64.1924 61.2226L64.1927 61.2184L65.3364 41.7339L70.5123 27.88C70.5499 27.7792 70.5355 27.6665 70.4735 27.5783C70.4115 27.4901 70.3099 27.4375 70.2015 27.4375H47.0683Z" fill="#F5841F"/>
</svg>
