<svg width="24" height="23" viewBox="0 0 24 23" fill="none" xmlns="http://www.w3.org/2000/svg">
<path d="M1.29906 0.00567315C1.25697 -0.00989925 1.20972 0.00751291 1.18812 0.0465592C1.16652 0.0856055 1.17711 0.134447 1.213 0.161245L10.4351 7.04811C10.4675 7.07231 10.5122 7.07216 10.5444 7.04774C10.5767 7.02331 10.5886 6.98059 10.5735 6.94325L8.92605 2.85844C8.91659 2.83498 8.89758 2.81656 8.87369 2.80773L1.29906 0.00567315Z" fill="#E27625"/>
<path d="M22.7841 0.161715C22.8204 0.135139 22.8313 0.0861735 22.8098 0.0469033C22.7883 0.00763305 22.7409 -0.00995106 22.6987 0.0056735L15.1241 2.80773C15.1009 2.81632 15.0823 2.83397 15.0725 2.85655L13.3422 6.87767C13.3262 6.91489 13.3373 6.95812 13.3694 6.98319C13.4014 7.00826 13.4464 7.00896 13.4792 6.9849L22.7841 0.161715Z" fill="#E27625"/>
<path d="M19.3817 15.8242C19.3505 15.8236 19.3213 15.839 19.3042 15.8648L16.8285 19.613C16.8127 19.6369 16.8093 19.667 16.8195 19.6938C16.8298 19.7205 16.8523 19.7409 16.8802 19.7485L22.1814 21.195C22.229 21.208 22.2783 21.1808 22.2922 21.1339L23.8109 16.0211C23.8188 15.9943 23.8137 15.9653 23.797 15.9428C23.7804 15.9202 23.754 15.9067 23.7258 15.9062L19.3817 15.8242Z" fill="#E27625"/>
<path d="M4.69327 15.8649C4.67624 15.839 4.64696 15.8236 4.61578 15.8242L0.280868 15.9062C0.252692 15.9067 0.226377 15.9202 0.209694 15.9427C0.19301 15.9652 0.187866 15.9942 0.195779 16.021L1.70517 21.1338C1.71904 21.1808 1.7684 21.208 1.81603 21.195L7.10815 19.7485C7.13598 19.7409 7.15848 19.7206 7.1687 19.6938C7.17892 19.6671 7.17564 19.6371 7.15987 19.6131L4.69327 15.8649Z" fill="#E27625"/>
<path d="M13.6056 6.29219C13.5792 6.26896 13.5416 6.26303 13.5093 6.27701C13.4769 6.291 13.4557 6.32234 13.455 6.3573L13.3353 12.016C13.3348 12.0408 13.3447 12.0647 13.3626 12.082C13.3805 12.0994 13.4049 12.1085 13.4299 12.1074L18.6759 11.8709C18.7085 11.8694 18.7377 11.8507 18.7525 11.8219C18.7672 11.7931 18.7652 11.7587 18.7472 11.7318L17.2746 9.53018C17.2703 9.52373 17.2652 9.51786 17.2593 9.51272L13.6056 6.29219Z" fill="#E27625"/>
<path d="M10.4883 6.41986C10.4872 6.38511 10.466 6.35412 10.4338 6.34034C10.4016 6.32656 10.3642 6.33247 10.338 6.35551L6.73929 9.51235C6.7334 9.51752 6.72821 9.52344 6.72385 9.52994L5.2513 11.7316C5.2333 11.7585 5.23129 11.7929 5.24604 11.8217C5.2608 11.8505 5.29003 11.8692 5.32258 11.8707L10.5686 12.1072C10.5938 12.1083 10.6183 12.099 10.6363 12.0815C10.6542 12.064 10.6639 12.0398 10.6632 12.0149L10.4883 6.41986Z" fill="#E27625"/>
<path d="M10.3495 18.1512C10.3534 18.1186 10.3392 18.0866 10.3123 18.0675C10.2854 18.0484 10.2501 18.0454 10.2203 18.0597L7.04511 19.579C7.01375 19.594 6.99386 19.6255 6.99399 19.66C6.99412 19.6945 7.01424 19.7259 7.04571 19.7407L9.9909 21.1236C10.0192 21.1369 10.0525 21.1347 10.0788 21.1178C10.1051 21.1009 10.1207 21.0717 10.1201 21.0407L10.1018 20.1827L10.3495 18.1512Z" fill="#D5BFB2"/>
<path d="M13.7779 18.0597C13.7481 18.0454 13.7127 18.0484 13.6858 18.0676C13.6589 18.0867 13.6447 18.119 13.6488 18.1516L13.9056 20.1824L13.8782 21.0397C13.8772 21.0709 13.8926 21.1004 13.919 21.1176C13.9454 21.1347 13.9789 21.1369 14.0074 21.1235L16.9434 19.7407C16.9748 19.7259 16.9949 19.6945 16.995 19.66C16.9951 19.6255 16.9753 19.594 16.944 19.579L13.7779 18.0597Z" fill="#D5BFB2"/>
<path d="M7.6346 15.9247C7.63778 15.8988 7.62941 15.8728 7.61167 15.8535C7.59393 15.8342 7.56858 15.8235 7.54225 15.8243L4.61549 15.9062C4.5826 15.9071 4.55281 15.9257 4.5377 15.9546C4.52258 15.9836 4.52453 16.0184 4.54278 16.0455L7.00934 19.7118C7.03033 19.743 7.06871 19.758 7.10552 19.7493C7.14234 19.7406 7.16982 19.7101 7.17439 19.6729L7.6346 15.9247Z" fill="#CC6228"/>
<path d="M16.4565 15.8243C16.4302 15.8235 16.4049 15.8342 16.3871 15.8534C16.3694 15.8726 16.361 15.8986 16.3641 15.9245L16.8151 19.6727C16.8196 19.7099 16.847 19.7405 16.8838 19.7492C16.9206 19.758 16.959 19.7431 16.9801 19.7119L19.4559 16.0457C19.4742 16.0185 19.4762 15.9837 19.4611 15.9547C19.446 15.9257 19.4162 15.9071 19.3832 15.9062L16.4565 15.8243Z" fill="#CC6228"/>
<path fill-rule="evenodd" clip-rule="evenodd" d="M14.6054 13.0316C14.6267 12.9874 14.6798 12.9682 14.7247 12.9886L16.593 13.8347C16.6274 13.8503 16.6484 13.8854 16.6457 13.9227C16.6429 13.9601 16.6171 13.9918 16.5808 14.0023L13.9393 14.7664C13.9051 14.7763 13.8682 14.7654 13.8451 14.7385C13.822 14.7116 13.817 14.6738 13.8323 14.6419L14.6054 13.0316ZM14.7305 13.1883L14.0824 14.5383L16.2968 13.8977L14.7305 13.1883Z" fill="#233447"/>
<path d="M5.3308 11.6915C5.29363 11.6898 5.25921 11.7109 5.24407 11.7446C5.22892 11.7783 5.23614 11.8177 5.26226 11.844L7.38821 13.982C7.39902 13.9928 7.41244 14.0008 7.42721 14.0051L10.0595 14.7693C10.0841 14.7764 10.1106 14.7729 10.1324 14.7595C10.1542 14.7461 10.1693 14.7242 10.1739 14.6992L10.6618 12.0336C10.6664 12.0081 10.6598 11.9819 10.6435 11.9617C10.6272 11.9415 10.6029 11.9292 10.5769 11.928L5.3308 11.6915Z" fill="#CC6228"/>
<path d="M18.7364 11.8438C18.7624 11.8175 18.7696 11.7781 18.7544 11.7445C18.7392 11.7108 18.7048 11.6898 18.6677 11.6915L13.4217 11.928C13.3956 11.9292 13.3713 11.9415 13.355 11.9617C13.3388 11.9819 13.3321 12.0081 13.3368 12.0336L13.8245 14.6992C13.8316 14.7375 13.8627 14.767 13.9016 14.7721C13.9405 14.7772 13.9784 14.7569 13.9952 14.7218L14.7301 13.1911L16.5174 14.0005C16.5521 14.0162 16.5929 14.0087 16.6196 13.9818L18.7364 11.8438Z" fill="#CC6228"/>
<path d="M10.0934 14.6806L9.32028 13.0703L7.45194 13.9164L10.0934 14.6806Z" fill="#233447"/>
<path fill-rule="evenodd" clip-rule="evenodd" d="M9.28368 12.9886C9.32862 12.9682 9.38173 12.9874 9.40296 13.0316L10.1761 14.6419C10.1914 14.6738 10.1864 14.7116 10.1633 14.7385C10.1402 14.7654 10.1033 14.7763 10.0691 14.7664L7.4276 14.0023C7.39132 13.9918 7.36546 13.9601 7.36273 13.9227C7.36 13.8854 7.38098 13.8503 7.41535 13.8347L9.28368 12.9886ZM9.92602 14.5383L9.27787 13.1883L7.71157 13.8977L9.92602 14.5383Z" fill="#233447"/>
<path d="M14.6871 13.0701L13.914 14.6803L16.5555 13.9162L14.6871 13.0701Z" fill="#233447"/>
<path d="M5.39112 11.7181C5.35977 11.6866 5.30989 11.6825 5.27369 11.7084C5.2375 11.7343 5.22583 11.7826 5.24622 11.822L7.43334 16.0463L6.99489 19.6487C6.99093 19.6813 7.0052 19.7133 7.0321 19.7324C7.059 19.7515 7.09425 19.7544 7.12402 19.7402L10.2992 18.2209C10.3274 18.2075 10.3466 18.1805 10.3499 18.1497C10.3532 18.1189 10.3402 18.0885 10.3155 18.0695L7.61532 15.9845L7.54311 13.9159C7.54232 13.8934 7.53305 13.8721 7.51713 13.8561L5.39112 11.7181Z" fill="#E27525"/>
<path d="M16.3834 15.9845L16.4646 13.9155C16.4655 13.8933 16.4747 13.8721 16.4904 13.8562L18.6073 11.7183C18.6386 11.6866 18.6885 11.6824 18.7248 11.7084C18.761 11.7343 18.7727 11.7826 18.7523 11.822L16.5653 16.0462L16.9946 19.649C16.9985 19.6815 16.9842 19.7135 16.9573 19.7325C16.9303 19.7515 16.8951 19.7544 16.8654 19.7402L13.6994 18.2209C13.6712 18.2074 13.6521 18.1804 13.6488 18.1496C13.6455 18.1188 13.6585 18.0885 13.6832 18.0695L16.3834 15.9845Z" fill="#E27525"/>
<path d="M13.5147 11.9994C13.5068 11.9563 13.4687 11.9252 13.4245 11.9258C13.3803 11.9264 13.343 11.9585 13.3363 12.0018L13.0785 13.6576C13.0777 13.663 13.0774 13.6685 13.0775 13.674L13.2064 17.8315C13.2078 17.8772 13.2436 17.9145 13.2895 17.9181C13.3354 17.9218 13.3768 17.8907 13.3856 17.8459L14.0022 14.6982C14.0044 14.6872 14.0044 14.676 14.0024 14.6651L13.5147 11.9994Z" fill="#E27525"/>
<path d="M10.6621 12.0014C10.6552 11.9582 10.6179 11.9263 10.5738 11.9258C10.5297 11.9253 10.4916 11.9564 10.4838 11.9994L9.99593 14.6651C9.99393 14.676 9.994 14.6872 9.99613 14.6982L10.6128 17.8459C10.6215 17.8906 10.6629 17.9218 10.7087 17.9181C10.7546 17.9145 10.7905 17.8773 10.792 17.8317L10.93 13.6833C10.9302 13.6776 10.9299 13.6719 10.929 13.6662L10.6621 12.0014Z" fill="#E27525"/>
<path d="M7.12317 19.579C7.08187 19.5596 7.03247 19.5737 7.00802 19.612C6.98358 19.6503 6.99177 19.7006 7.02712 19.7293L8.05792 20.5663C8.05985 20.5678 8.06184 20.5693 8.06388 20.5707L10.1531 21.9991C10.1682 22.0094 10.1861 22.0149 10.2045 22.0149H13.7847C13.8029 22.0149 13.8208 22.0094 13.8359 21.9992L15.9343 20.5708C15.9365 20.5693 15.9387 20.5677 15.9407 20.566L16.9623 19.7291C16.9975 19.7002 17.0055 19.65 16.981 19.6118C16.9564 19.5736 16.9071 19.5596 16.8659 19.579L14.0639 20.8988L14.0867 20.1814C14.0876 20.154 14.0758 20.1277 14.0547 20.11L13.8154 19.9099C13.7991 19.8962 13.7785 19.8887 13.7571 19.8887H10.2413C10.2194 19.8887 10.1982 19.8966 10.1816 19.911L9.95154 20.1112C9.93148 20.1286 9.92022 20.154 9.92078 20.1804L9.93611 20.8997L7.12317 19.579Z" fill="#C0AC9D"/>
<path d="M10.7012 17.7422C10.6825 17.7422 10.6643 17.7479 10.649 17.7586L10.2073 18.0679C10.1864 18.0825 10.1728 18.1052 10.1697 18.1303L9.92116 20.1683C9.91666 20.2051 9.93559 20.241 9.96876 20.2583C10.0019 20.2756 10.0424 20.2709 10.0706 20.2464L10.2751 20.0685H13.7238L13.9378 20.2475C13.9663 20.2713 14.0066 20.2754 14.0393 20.2578C14.072 20.2402 14.0905 20.2045 14.0859 20.1679L13.8282 18.13C13.825 18.105 13.8114 18.0824 13.7906 18.0679L13.3488 17.7586C13.3336 17.7479 13.3153 17.7422 13.2966 17.7422H10.7012Z" fill="#161616"/>
<path d="M1.32124 0.0175902C1.29795 0.000507032 1.26781 -0.00448529 1.24018 0.00416326C1.21255 0.0128118 1.19077 0.0340543 1.18161 0.0612956L0.00354293 3.56386C-0.0015117 3.57889 -0.00245761 3.59498 0.00080148 3.61049L0.780536 7.32081L0.320697 7.65968C0.297832 7.67653 0.284314 7.70307 0.284218 7.73131C0.284121 7.75954 0.297456 7.78618 0.320206 7.80318L0.980273 8.29652L0.503456 8.66143C0.482297 8.67762 0.46945 8.70226 0.468363 8.72873C0.467275 8.7552 0.478059 8.7808 0.49782 8.79864L1.16109 9.39756L0.781815 9.66959C0.761343 9.68427 0.748002 9.70677 0.745024 9.73164C0.742046 9.75651 0.749702 9.78148 0.766139 9.80051L1.84297 11.0469C1.86608 11.0736 1.90285 11.0845 1.93696 11.0746L6.82413 9.66447C6.83626 9.66097 6.84751 9.65499 6.85717 9.64692L10.3177 6.75393C10.3388 6.73626 10.3506 6.70997 10.3498 6.68257C10.3489 6.65517 10.3354 6.62967 10.3132 6.61336L1.32124 0.0175902Z" fill="#763E1A"/>
<path d="M22.8162 0.0612951C22.807 0.034054 22.7852 0.0128116 22.7576 0.00416317C22.73 -0.00448526 22.6998 0.000507109 22.6765 0.0175903L13.6846 6.61336C13.6624 6.62967 13.6489 6.65517 13.648 6.68257C13.6472 6.70997 13.659 6.73626 13.6801 6.75393L17.1406 9.64692C17.1503 9.65499 17.1615 9.66097 17.1737 9.66447L22.0608 11.0746C22.0949 11.0845 22.1317 11.0736 22.1548 11.0469L23.2316 9.80051C23.2481 9.78148 23.2557 9.75651 23.2528 9.73164C23.2498 9.70677 23.2364 9.68427 23.216 9.66959L22.8367 9.39756L23.4999 8.79864C23.5197 8.78079 23.5305 8.7552 23.5294 8.72873C23.5283 8.70226 23.5155 8.67762 23.4943 8.66143L23.017 8.29608L23.6688 7.80286C23.6912 7.78595 23.7043 7.7597 23.7044 7.73184C23.7045 7.70397 23.6915 7.67766 23.6692 7.66064L23.2261 7.32182L23.997 3.61029C24.0003 3.59484 23.9993 3.57883 23.9943 3.56386L22.8162 0.0612951Z" fill="#763E1A"/>
<path d="M8.84184 2.80078C8.81223 2.80078 8.78451 2.81513 8.7676 2.83921C8.75069 2.86329 8.74673 2.89404 8.75701 2.92155L10.1697 6.70265L10.4818 12.0205L10.4819 12.0216L10.6013 13.6925L10.6085 16.8859L10.1732 14.664C10.1668 14.6311 10.1423 14.6045 10.1099 14.595L7.47759 13.8308C7.44972 13.8227 7.41962 13.8284 7.39668 13.846C7.37375 13.8637 7.36075 13.8912 7.36176 13.9199L7.42143 15.6294L5.43084 11.7846L6.87413 9.62671C6.89511 9.59536 6.89409 9.55436 6.87159 9.52406C6.8491 9.49376 6.8099 9.4806 6.77345 9.49112L1.88635 10.9012C1.85754 10.9095 1.83476 10.9315 1.82555 10.9598L0.196509 15.9635C0.187628 15.9907 0.192445 16.0206 0.209469 16.0437C0.226493 16.0669 0.253671 16.0806 0.282592 16.0806H4.61751L7.49425 16.1167L10.2037 18.2088C10.2351 18.2331 10.2789 18.2341 10.3115 18.2113L10.7298 17.9184H13.2677L13.6861 18.2113C13.7186 18.2341 13.7624 18.2331 13.7938 18.2088L16.5033 16.1167L19.38 16.0806H23.7241C23.7531 16.0806 23.7803 16.0669 23.7973 16.0437C23.8143 16.0205 23.8191 15.9906 23.8102 15.9633L22.1719 10.9596C22.1627 10.9314 22.1399 10.9095 22.1112 10.9012L17.2241 9.49112C17.1876 9.4806 17.1484 9.49376 17.1259 9.52406C17.1034 9.55436 17.1024 9.59536 17.1234 9.62671L18.5667 11.7846L16.578 15.6258L16.645 13.9203C16.6461 13.8915 16.6332 13.8639 16.6102 13.8462C16.5873 13.8284 16.5572 13.8227 16.5292 13.8308L13.8878 14.595C13.8552 14.6044 13.8308 14.631 13.8243 14.664L13.389 16.8861L13.396 13.6925L13.5155 12.0216L13.5156 12.0205L13.8277 6.70265L15.2403 2.92155C15.2506 2.89404 15.2467 2.86329 15.2297 2.83921C15.2128 2.81513 15.1851 2.80078 15.1555 2.80078H8.84184Z" fill="#F5841F"/>
</svg>
