<svg width="24" height="20" viewBox="0 0 24 20" fill="none" xmlns="http://www.w3.org/2000/svg">
<path d="M23.9989 2.3143C23.1163 2.70538 22.1682 2.96963 21.1715 3.08907C22.1999 2.47368 22.9693 1.50514 23.3362 0.364152C22.3699 0.938086 21.3124 1.34207 20.2096 1.55855C19.468 0.766723 18.4857 0.241886 17.4153 0.0655253C16.3448 -0.110836 15.2461 0.0711458 14.2896 0.583216C13.3332 1.09529 12.5726 1.9088 12.1259 2.89744C11.6792 3.88609 11.5714 4.99456 11.8192 6.05075C9.86134 5.95245 7.94601 5.44357 6.19754 4.55713C4.44906 3.67069 2.90651 2.42651 1.67 0.905331C1.24721 1.63465 1.0041 2.48024 1.0041 3.3808C1.00363 4.1915 1.20327 4.98979 1.58531 5.70484C1.96736 6.41988 2.51999 7.02957 3.19418 7.4798C2.4123 7.45492 1.64767 7.24365 0.963933 6.86358V6.927C0.963854 8.06404 1.35717 9.1661 2.07714 10.0462C2.7971 10.9262 3.79938 11.5301 4.9139 11.7553C4.18858 11.9516 3.42813 11.9805 2.69 11.8399C3.00445 12.8182 3.61697 13.6738 4.44182 14.2867C5.26666 14.8997 6.26253 15.2394 7.29001 15.2582C5.5458 16.6274 3.39172 17.3701 1.17427 17.3669C0.781476 17.367 0.389011 17.344 -0.00109863 17.2982C2.24973 18.7454 4.86987 19.5134 7.5458 19.5105C16.6042 19.5105 21.5562 12.0079 21.5562 5.50112C21.5562 5.28972 21.5509 5.07621 21.5414 4.86481C22.5046 4.16823 23.3361 3.30564 23.9968 2.31747L23.9989 2.3143Z" fill="#1CB7EB"/>
</svg>
