<svg width="24" height="24" viewBox="0 0 24 24" fill="none" xmlns="http://www.w3.org/2000/svg">
<path d="M5.50386 7.87519C9.09158 4.34828 14.9084 4.34828 18.4962 7.87519L18.928 8.29966C19.1073 8.476 19.1073 8.76192 18.928 8.93826L17.4509 10.3903C17.3612 10.4785 17.2158 10.4785 17.1261 10.3903L16.5319 9.80617C14.029 7.34571 9.97102 7.34571 7.46813 9.80617L6.8318 10.4317C6.74211 10.5199 6.59669 10.5199 6.50699 10.4317L5.02993 8.97969C4.85054 8.80334 4.85054 8.51743 5.02993 8.34108L5.50386 7.87519ZM21.5509 10.8781L22.8655 12.1704C23.0448 12.3468 23.0448 12.6327 22.8655 12.809L16.9379 18.6362C16.7585 18.8126 16.4677 18.8126 16.2883 18.6362C16.2883 18.6362 16.2883 18.6362 16.2883 18.6362L12.0812 14.5005C12.0364 14.4564 11.9637 14.4564 11.9188 14.5005C11.9188 14.5005 11.9188 14.5005 11.9188 14.5005L7.7119 18.6362C7.53251 18.8126 7.24167 18.8126 7.06228 18.6362C7.06228 18.6362 7.06228 18.6362 7.06228 18.6362L1.13454 12.809C0.955153 12.6326 0.955153 12.3467 1.13454 12.1704L2.44913 10.8781C2.62852 10.7017 2.91936 10.7017 3.09875 10.8781L7.30584 15.0138C7.35068 15.0579 7.4234 15.0579 7.46824 15.0138C7.46824 15.0138 7.46824 15.0138 7.46824 15.0138L11.6751 10.8781C11.8545 10.7017 12.1454 10.7017 12.3247 10.878C12.3247 10.878 12.3247 10.878 12.3247 10.878L16.5318 15.0138C16.5767 15.0579 16.6494 15.0579 16.6942 15.0138L20.9013 10.8781C21.0806 10.7018 21.3715 10.7018 21.5509 10.8781Z" fill="white"/>
</svg>
