<svg width="24" height="15" viewBox="0 0 24 15" fill="none" xmlns="http://www.w3.org/2000/svg">
<path d="M4.9122 2.88565C8.82608 -0.961883 15.1717 -0.961883 19.0856 2.88565L19.5567 3.34871C19.7524 3.54108 19.7524 3.85299 19.5567 4.04536L17.9453 5.62939C17.8475 5.72558 17.6888 5.72558 17.591 5.62939L16.9428 4.99217C14.2124 2.30803 9.78547 2.30803 7.05505 4.99217L6.36087 5.67458C6.26302 5.77077 6.10438 5.77077 6.00653 5.67458L4.39519 4.09056C4.19949 3.89818 4.19949 3.58627 4.39519 3.3939L4.9122 2.88565ZM22.418 6.16158L23.8521 7.57137C24.0478 7.76375 24.0478 8.07565 23.8521 8.26803L17.3857 14.6249C17.19 14.8173 16.8727 14.8173 16.677 14.625C16.677 14.625 16.677 14.625 16.677 14.625L12.0875 10.1133C12.0386 10.0652 11.9593 10.0652 11.9104 10.1133C11.9104 10.1133 11.9104 10.1133 11.9104 10.1133L7.32097 14.6249C7.12528 14.8173 6.808 14.8173 6.6123 14.625C6.6123 14.625 6.6123 14.625 6.6123 14.625L0.145672 8.26795C-0.0500222 8.07557 -0.0500222 7.76367 0.145672 7.57129L1.57977 6.1615C1.77547 5.96912 2.09275 5.96912 2.28844 6.1615L6.878 10.6733C6.92692 10.7213 7.00624 10.7213 7.05517 10.6733C7.05517 10.6733 7.05517 10.6733 7.05517 10.6733L11.6445 6.1615C11.8402 5.96912 12.1575 5.96911 12.3532 6.16148C12.3532 6.16149 12.3532 6.16149 12.3532 6.16149L16.9427 10.6733C16.9916 10.7213 17.071 10.7213 17.1199 10.6733L21.7094 6.16158C21.9051 5.9692 22.2223 5.9692 22.418 6.16158Z" fill="#3B99FC"/>
</svg>
