<svg width="24" height="24" viewBox="0 0 24 24" fill="none" xmlns="http://www.w3.org/2000/svg">
<g clip-path="url(#clip0_20530_19220)">
<circle cx="12" cy="12" r="12" fill="white"/>
<path fill-rule="evenodd" clip-rule="evenodd" d="M12.0071 2L18.0018 12.3613L18.0092 12.377C18.4315 13.2712 19.051 15.5674 18.156 17.7155C17.0526 20.3637 14.5443 22 12.0071 22C9.46981 22 6.96155 20.3637 5.85815 17.7155C4.96309 15.5674 5.58261 13.2712 6.0049 12.377L6.01231 12.3613L12.0071 2ZM6.75136 12.7481C6.38675 13.5318 5.86073 15.5549 6.62743 17.395C7.60751 19.7472 9.82179 21.1666 12.0071 21.1666C14.1923 21.1666 16.4066 19.7472 17.3867 17.395C18.1534 15.5549 17.6274 13.5318 17.2628 12.7481L12.0071 3.66414L6.75136 12.7481Z" fill="#414853"/>
<mask id="mask0_20530_19220" style="mask-type:alpha" maskUnits="userSpaceOnUse" x="5" y="2" width="14" height="20">
<path d="M6.62743 17.395C5.86073 15.5549 6.38675 13.5318 6.75136 12.7481L12.0071 3.66414L17.2628 12.7481C17.6274 13.5318 18.1534 15.5549 17.3867 17.395C16.4066 19.7472 14.1923 21.1666 12.0071 21.1666C9.82179 21.1666 7.60751 19.7472 6.62743 17.395Z" fill="#414853"/>
</mask>
<g mask="url(#mask0_20530_19220)">
<rect x="10.5488" y="5.6795" width="2.91686" height="0.277796" fill="#8791A4"/>
<rect x="8.1875" y="9.70752" width="7.77829" height="0.277796" fill="#8791A4"/>
<rect x="5.96484" y="13.5967" width="11.9452" height="0.277796" fill="#8791A4"/>
<rect x="6.38184" y="17.3469" width="11.3896" height="0.277796" fill="#8791A4"/>
<rect x="9.16016" y="7.763" width="5.83372" height="0.277796" fill="#8791A4"/>
<rect x="6.9375" y="11.6521" width="10.0007" height="0.277796" fill="#8791A4"/>
<rect x="6.10449" y="15.2634" width="11.9452" height="0.277796" fill="#8791A4"/>
<rect x="7.35449" y="19.4304" width="9.02837" height="0.277796" fill="#8791A4"/>
<rect x="7.63184" y="9.56866" width="0.833388" height="10.4174" fill="#00A6F4"/>
</g>
</g>
<defs>
<clipPath id="clip0_20530_19220">
<rect width="24" height="24" fill="white"/>
</clipPath>
</defs>
</svg>
