<svg width="195" height="42" viewBox="0 0 195 42" fill="none" xmlns="http://www.w3.org/2000/svg">
<rect x="-0.00195312" y="7.02246" width="28.4931" height="28" fill="#AFDCD0"/>
<rect x="-0.00195312" y="16.2744" width="9.5274" height="9.3625" fill="#77D3B9"/>
<rect x="9.52344" y="16.2744" width="9.5274" height="9.3625" fill="#0AC18E"/>
<rect x="18.9648" y="7" width="9.5274" height="9.3625" fill="#0AC18E"/>
<rect x="-0.00195312" y="25.6367" width="9.5274" height="9.3625" fill="#0AC18E"/>
<rect x="9.52344" y="25.6367" width="9.5274" height="9.3625" fill="#77D3B9"/>
<rect x="18.9648" y="16.2734" width="9.5274" height="9.3625" fill="#77D3B9"/>
<rect x="9.52344" y="7" width="9.5274" height="9.3625" fill="#77D3B9"/>
<path d="M42.6179 30.625H33.3242V10.4727H43.2857C45.7992 10.5091 47.5801 11.2246 48.6282 12.6191C49.2589 13.4759 49.5742 14.5013 49.5742 15.6953C49.5742 16.9258 49.2589 17.9147 48.6282 18.6621C48.2757 19.0814 47.7563 19.4642 47.0699 19.8105C48.118 20.1842 48.9064 20.7767 49.4351 21.5879C49.973 22.3991 50.242 23.3835 50.242 24.541C50.242 25.735 49.9359 26.806 49.3238 27.7539C48.9342 28.3828 48.4473 28.9115 47.863 29.3398C47.2044 29.832 46.4253 30.1693 45.5256 30.3516C44.6352 30.5339 43.666 30.625 42.6179 30.625ZM42.5205 21.752H37.4145V27.125H42.4509C43.3506 27.125 44.0509 27.0065 44.5517 26.7695C45.4607 26.332 45.9152 25.4935 45.9152 24.2539C45.9152 23.2057 45.4746 22.4857 44.5935 22.0938C44.1019 21.875 43.4109 21.7611 42.5205 21.752ZM44.6491 17.9102C45.2056 17.582 45.4839 16.9941 45.4839 16.1465C45.4839 15.2077 45.1129 14.5879 44.3709 14.2871C43.7309 14.0775 42.9147 13.9727 41.9222 13.9727H37.4145V18.416H42.4509C43.3506 18.416 44.0834 18.2474 44.6491 17.9102Z" fill="#2B2B37"/>
<path d="M57.6018 15.7227V30.625H53.5811V15.7227H57.6018ZM57.6018 10.3496V13.9453H53.5811V10.3496H57.6018Z" fill="#2B2B37"/>
<path d="M68.3981 27.8496V30.7617L66.5199 30.8301C64.6463 30.8939 63.3663 30.5749 62.68 29.873C62.2347 29.4264 62.0121 28.7383 62.0121 27.8086V18.6348H59.8974V15.8594H62.0121V11.7031H65.9355V15.8594H68.3981V18.6348H65.9355V26.5098C65.9355 27.1204 66.0144 27.5033 66.172 27.6582C66.3297 27.804 66.812 27.877 67.6189 27.877C67.7395 27.877 67.8647 27.877 67.9946 27.877C68.1337 27.8678 68.2682 27.8587 68.3981 27.8496Z" fill="#2B2B37"/>
<path d="M84.0637 21.0684H80.0012C79.927 20.5124 79.7369 20.0111 79.4308 19.5645C78.9856 18.9629 78.2946 18.6621 77.3578 18.6621C76.0222 18.6621 75.1086 19.3138 74.617 20.6172C74.3573 21.3099 74.2275 22.2305 74.2275 23.3789C74.2275 24.4727 74.3573 25.3522 74.617 26.0176C75.0901 27.2572 75.9805 27.877 77.2883 27.877C78.2158 27.877 78.8743 27.6309 79.2639 27.1387C79.6534 26.6465 79.8899 26.0085 79.9734 25.2246H84.022C83.9292 26.4095 83.4933 27.5306 82.7142 28.5879C81.4713 30.2923 79.6302 31.1445 77.1909 31.1445C74.7515 31.1445 72.9568 30.4336 71.8067 29.0117C70.6566 27.5898 70.0815 25.7441 70.0815 23.4746C70.0815 20.9134 70.7168 18.9219 71.9875 17.5C73.2582 16.0781 75.0112 15.3672 77.2465 15.3672C79.1479 15.3672 80.7015 15.7865 81.9073 16.625C83.1223 17.4635 83.8411 18.9447 84.0637 21.0684Z" fill="#2B2B37"/>
<path d="M99.4511 17.6094C100.731 19.1862 101.371 21.0501 101.371 23.2012C101.371 25.3887 100.731 27.2617 99.4511 28.8203C98.1712 30.3698 96.228 31.1445 93.6217 31.1445C91.0154 31.1445 89.0723 30.3698 87.7923 28.8203C86.5124 27.2617 85.8724 25.3887 85.8724 23.2012C85.8724 21.0501 86.5124 19.1862 87.7923 17.6094C89.0723 16.0326 91.0154 15.2441 93.6217 15.2441C96.228 15.2441 98.1712 16.0326 99.4511 17.6094ZM93.6078 18.5391C92.4484 18.5391 91.5534 18.9447 90.9227 19.7559C90.3012 20.5579 89.9905 21.7064 89.9905 23.2012C89.9905 24.696 90.3012 25.849 90.9227 26.6602C91.5534 27.4714 92.4484 27.877 93.6078 27.877C94.7672 27.877 95.6576 27.4714 96.2791 26.6602C96.9005 25.849 97.2112 24.696 97.2112 23.2012C97.2112 21.7064 96.9005 20.5579 96.2791 19.7559C95.6576 18.9447 94.7672 18.5391 93.6078 18.5391Z" fill="#2B2B37"/>
<path d="M108.3 15.7227V30.625H104.279V15.7227H108.3ZM108.3 10.3496V13.9453H104.279V10.3496H108.3Z" fill="#2B2B37"/>
<path d="M119.291 18.6074C117.946 18.6074 117.023 19.168 116.522 20.2891C116.262 20.8815 116.132 21.638 116.132 22.5586V30.625H112.181V15.75H116.007V17.9238C116.517 17.1582 117 16.6068 117.454 16.2695C118.27 15.668 119.305 15.3672 120.557 15.3672C122.124 15.3672 123.404 15.7728 124.397 16.584C125.398 17.3861 125.899 18.7214 125.899 20.5898V30.625H121.837V21.5605C121.837 20.7767 121.73 20.1751 121.517 19.7559C121.127 18.9902 120.385 18.6074 119.291 18.6074Z" fill="#2B2B37"/>
<path d="M129.503 26.5508H133.718V30.625H129.503V26.5508Z" fill="#2B2B37"/>
<path d="M150.622 21.0684H146.559C146.485 20.5124 146.295 20.0111 145.989 19.5645C145.544 18.9629 144.853 18.6621 143.916 18.6621C142.58 18.6621 141.667 19.3138 141.175 20.6172C140.916 21.3099 140.786 22.2305 140.786 23.3789C140.786 24.4727 140.916 25.3522 141.175 26.0176C141.648 27.2572 142.539 27.877 143.846 27.877C144.774 27.877 145.433 27.6309 145.822 27.1387C146.212 26.6465 146.448 26.0085 146.532 25.2246H150.58C150.487 26.4095 150.052 27.5306 149.272 28.5879C148.03 30.2923 146.188 31.1445 143.749 31.1445C141.31 31.1445 139.515 30.4336 138.365 29.0117C137.215 27.5898 136.64 25.7441 136.64 23.4746C136.64 20.9134 137.275 18.9219 138.546 17.5C139.816 16.0781 141.569 15.3672 143.805 15.3672C145.706 15.3672 147.26 15.7865 148.465 16.625C149.681 17.4635 150.399 18.9447 150.622 21.0684Z" fill="#2B2B37"/>
<path d="M166.009 17.6094C167.289 19.1862 167.929 21.0501 167.929 23.2012C167.929 25.3887 167.289 27.2617 166.009 28.8203C164.729 30.3698 162.786 31.1445 160.18 31.1445C157.574 31.1445 155.631 30.3698 154.351 28.8203C153.071 27.2617 152.431 25.3887 152.431 23.2012C152.431 21.0501 153.071 19.1862 154.351 17.6094C155.631 16.0326 157.574 15.2441 160.18 15.2441C162.786 15.2441 164.729 16.0326 166.009 17.6094ZM160.166 18.5391C159.007 18.5391 158.112 18.9447 157.481 19.7559C156.859 20.5579 156.549 21.7064 156.549 23.2012C156.549 24.696 156.859 25.849 157.481 26.6602C158.112 27.4714 159.007 27.877 160.166 27.877C161.325 27.877 162.216 27.4714 162.837 26.6602C163.459 25.849 163.769 24.696 163.769 23.2012C163.769 21.7064 163.459 20.5579 162.837 19.7559C162.216 18.9447 161.325 18.5391 160.166 18.5391Z" fill="#2B2B37"/>
<path d="M179.296 19.8242C178.962 19.1042 178.308 18.7441 177.334 18.7441C176.203 18.7441 175.442 19.1042 175.053 19.8242C174.839 20.2344 174.733 20.8451 174.733 21.6562V30.625H170.712V15.75H174.566V17.9238C175.057 17.1491 175.521 16.5977 175.957 16.2695C176.727 15.6862 177.724 15.3945 178.948 15.3945C180.108 15.3945 181.044 15.6452 181.758 16.1465C182.334 16.6113 182.769 17.2083 183.066 17.9375C183.586 17.0625 184.23 16.4199 185 16.0098C185.816 15.5996 186.725 15.3945 187.727 15.3945C188.395 15.3945 189.053 15.5221 189.703 15.7773C190.352 16.0326 190.941 16.4792 191.47 17.1172C191.896 17.6367 192.184 18.2747 192.332 19.0312C192.425 19.5326 192.471 20.2663 192.471 21.2324L192.443 30.625H188.381V21.1367C188.381 20.5716 188.288 20.1068 188.103 19.7422C187.75 19.0495 187.101 18.7031 186.155 18.7031C185.06 18.7031 184.305 19.1497 183.887 20.043C183.674 20.5169 183.567 21.0866 183.567 21.752V30.625H179.574V21.752C179.574 20.8678 179.481 20.2253 179.296 19.8242Z" fill="#2B2B37"/>
</svg>
