<svg width="103" height="42" viewBox="0 0 103 42" fill="none" xmlns="http://www.w3.org/2000/svg">
<path fill-rule="evenodd" clip-rule="evenodd" d="M38.2327 35.5744C34.236 39.5359 28.6256 42 22.4127 42C10.2772 42 0.439453 32.598 0.439453 21C0.439453 9.40201 10.2772 0 22.4127 0C28.3529 0 33.7425 2.25263 37.6972 5.91281L31.2276 12.0959C28.9295 10.0171 25.8268 8.74223 22.4127 8.74223C15.3291 8.74223 9.58668 14.2303 9.58668 21.0001C9.58668 27.77 15.3291 33.2581 22.4127 33.2581C26.0115 33.2581 29.2642 31.8415 31.5935 29.5601L38.1223 35.4431L38.2327 35.5744Z" fill="#00B8FA"/>
<path fill-rule="evenodd" clip-rule="evenodd" d="M22.5044 30.7862C28.2153 30.7862 32.8448 26.3617 32.8448 20.9039C32.8448 15.446 28.2153 11.0215 22.5044 11.0215C16.7936 11.0215 12.1641 15.446 12.1641 20.9039C12.1641 26.3617 16.7936 30.7862 22.5044 30.7862ZM14.7492 16.818H17.1354L19.2234 23.1845L21.5103 16.913H23.3993L25.6862 23.1845L27.7742 16.913H30.0609L26.6805 26.4152H24.6919L22.405 20.3337L20.1183 26.4152H18.3285L14.7492 16.818Z" fill="#00B8FA"/>
<path d="M58.7302 12.8097C58.5926 14.2033 58.0542 15.2919 57.1154 16.0755C56.1766 16.8532 54.9281 17.2419 53.3697 17.2419C52.2806 17.2419 51.32 16.9967 50.4876 16.5063C49.6614 16.0097 49.0231 15.3069 48.5723 14.3977C48.1217 13.4886 47.887 12.4329 47.8682 11.2306V10.0104C47.8682 8.7782 48.0968 7.69256 48.5537 6.75348C49.0104 5.81439 49.6645 5.09064 50.5157 4.58221C51.3731 4.07379 52.362 3.81958 53.4823 3.81958C54.9906 3.81958 56.2048 4.21137 57.1249 4.99493C58.0449 5.7785 58.58 6.88507 58.7302 8.31463H56.3645C56.2517 7.37555 55.9639 6.69964 55.5008 6.28693C55.0439 5.86823 54.3711 5.65887 53.4823 5.65887C52.4497 5.65887 51.6548 6.02075 51.0978 6.7445C50.5471 7.46228 50.2654 8.51801 50.2529 9.91168V11.0691C50.2529 12.4807 50.5157 13.5573 51.0415 14.299C51.5735 15.0407 52.3495 15.4116 53.3697 15.4116C54.3022 15.4116 55.0031 15.2112 55.4725 14.8105C55.9419 14.4097 56.2392 13.7428 56.3645 12.8097H58.7302ZM66.7101 17.0625C66.6098 16.877 66.5222 16.575 66.4472 16.1563C65.7211 16.8801 64.8325 17.2419 63.7809 17.2419C62.7608 17.2419 61.9284 16.9638 61.2838 16.4076C60.6391 15.8512 60.3168 15.1634 60.3168 14.3439C60.3168 13.3091 60.7174 12.5166 61.5185 11.9663C62.3259 11.41 63.4774 11.1319 64.9732 11.1319H66.3721V10.4949C66.3721 9.99243 66.225 9.59167 65.9309 9.2926C65.6367 8.98755 65.1891 8.83503 64.5883 8.83503C64.0689 8.83503 63.6433 8.96063 63.3116 9.21185C62.9798 9.45709 62.8139 9.77112 62.8139 10.1539H60.5327C60.5327 9.62158 60.7174 9.12512 61.0866 8.66455C61.4558 8.19799 61.9566 7.83313 62.5887 7.56995C63.227 7.30677 63.9375 7.17517 64.7197 7.17517C65.9089 7.17517 66.8572 7.46228 67.5643 8.0365C68.2716 8.60474 68.6345 9.40625 68.6534 10.441V14.8194C68.6534 15.6928 68.7816 16.3896 69.0383 16.91V17.0625H66.7101ZM64.2035 15.4924C64.6541 15.4924 65.0765 15.3877 65.4708 15.1784C65.8714 14.9689 66.1717 14.6879 66.3721 14.335V12.5046H65.1423C64.2973 12.5046 63.6621 12.6452 63.2365 12.9263C62.8109 13.2074 62.5981 13.6052 62.5981 14.1196C62.5981 14.5383 62.742 14.8732 63.03 15.1245C63.3241 15.3698 63.7153 15.4924 64.2035 15.4924ZM74.3425 12.8994L73.3286 13.8953V17.0625H71.0473V3.28125H73.3286V11.2306L74.042 10.3782L76.8491 7.35462H79.5904L75.8164 11.4011L79.9941 17.0625H77.356L74.3425 12.8994ZM85.3734 17.2419C83.9277 17.2419 82.7542 16.8083 81.8529 15.941C80.9579 15.0676 80.5104 13.9072 80.5104 12.4598V12.1906C80.5104 11.2216 80.7045 10.3573 81.0924 9.59766C81.4867 8.83203 82.0376 8.23688 82.7447 7.8122C83.452 7.38751 84.2405 7.17517 85.1105 7.17517C86.4938 7.17517 87.5608 7.59687 88.3119 8.44024C89.0692 9.28363 89.4478 10.4769 89.4478 12.0201V12.8994H82.8105C82.8793 13.7009 83.1578 14.335 83.646 14.8015C84.1404 15.268 84.7601 15.5013 85.5048 15.5013C86.5501 15.5013 87.4013 15.0976 88.0584 14.2901L89.2882 15.4116C88.8814 15.9918 88.3369 16.4434 87.6546 16.7664C86.9788 17.0835 86.2183 17.2419 85.3734 17.2419ZM85.1012 8.92474C84.4752 8.92474 83.9683 9.13409 83.5802 9.55279C83.1985 9.97149 82.9544 10.5547 82.848 11.3024H87.1947V11.1409C87.1446 10.4111 86.9412 9.86084 86.5844 9.48999C86.2278 9.11316 85.7332 8.92474 85.1012 8.92474ZM59.0212 34.8326L61.1242 24.9991H63.4806L60.3261 38.0625H58.0542L55.4538 28.5251L52.797 38.0625H50.5157L47.3613 24.9991H49.7177L51.8394 34.8146L54.4492 24.9991H56.4395L59.0212 34.8326ZM70.7469 38.0625C70.6467 37.877 70.5591 37.575 70.484 37.1563C69.7581 37.8801 68.8692 38.2419 67.8178 38.2419C66.7977 38.2419 65.9652 37.9638 65.3205 37.4076C64.6759 36.8512 64.3536 36.1634 64.3536 35.3439C64.3536 34.3091 64.7542 33.5167 65.5552 32.9663C66.3626 32.4101 67.5143 32.1318 69.0101 32.1318H70.4089V31.4949C70.4089 30.9925 70.2618 30.5916 69.9676 30.2926C69.6735 29.9876 69.226 29.835 68.6252 29.835C68.1057 29.835 67.6801 29.9606 67.3484 30.2119C67.0168 30.4571 66.8509 30.7712 66.8509 31.1539H64.5696C64.5696 30.6215 64.7542 30.1252 65.1235 29.6646C65.4928 29.198 65.9935 28.8331 66.6255 28.57C67.2639 28.3068 67.9742 28.1752 68.7566 28.1752C69.9458 28.1752 70.8939 28.4622 71.6012 29.0364C72.3085 29.6047 72.6714 30.4063 72.6903 31.4411V35.8194C72.6903 36.6928 72.8185 37.3896 73.0751 37.91V38.0625H70.7469ZM68.2403 36.4923C68.6908 36.4923 69.1134 36.3877 69.5077 36.1784C69.9082 35.9689 70.2087 35.6879 70.4089 35.335V33.5046H69.1791C68.3342 33.5046 67.6989 33.6451 67.2733 33.9263C66.8477 34.2074 66.635 34.6052 66.635 35.1196C66.635 35.5383 66.7789 35.8732 67.0667 36.1245C67.3609 36.3698 67.7522 36.4923 68.2403 36.4923ZM77.5063 38.0625H75.225V24.2812H77.5063V38.0625ZM82.4255 38.0625H80.1443V24.2812H82.4255V38.0625ZM89.3915 38.2419C87.9458 38.2419 86.7723 37.8083 85.871 36.941C84.976 36.0676 84.5285 34.9072 84.5285 33.4598V33.1906C84.5285 32.2216 84.7224 31.3573 85.1105 30.5977C85.5048 29.8321 86.0557 29.2369 86.7628 28.8121C87.4701 28.3875 88.2586 28.1752 89.1287 28.1752C90.5117 28.1752 91.5789 28.5969 92.3299 29.4403C93.0873 30.2836 93.4659 31.4769 93.4659 33.0201V33.8994H86.8286C86.8974 34.7009 87.1759 35.335 87.6641 35.8014C88.1585 36.268 88.7782 36.5013 89.5229 36.5013C90.5682 36.5013 91.4192 36.0975 92.0765 35.2901L93.3063 36.4116C92.8994 36.9918 92.355 37.4434 91.6727 37.7664C90.9968 38.0835 90.2364 38.2419 89.3915 38.2419ZM89.1192 29.9247C88.4933 29.9247 87.9864 30.1341 87.5983 30.5528C87.2166 30.9715 86.9725 31.5547 86.8661 32.3023H91.2128V32.1409C91.1627 31.4111 90.9593 30.8608 90.6025 30.49C90.2459 30.1132 89.7513 29.9247 89.1192 29.9247ZM98.1035 25.995V28.3546H99.8967V29.9696H98.1035V35.3888C98.1035 35.7596 98.1786 36.0288 98.3289 36.1963C98.4853 36.3578 98.7608 36.4385 99.1551 36.4385C99.4179 36.4385 99.6839 36.4086 99.953 36.3488V38.0356C99.4336 38.1731 98.9329 38.2419 98.451 38.2419C96.6985 38.2419 95.8223 37.3178 95.8223 35.4695V29.9696H94.1512V28.3546H95.8223V25.995H98.1035Z" fill="#2B2B37"/>
</svg>
