<svg width="157" height="42" viewBox="0 0 157 42" fill="none" xmlns="http://www.w3.org/2000/svg">
<g clip-path="url(#clip0_21528_33839)">
<path d="M86.1504 28.7272V13.2363H91.5783C93.1068 13.2363 94.3078 13.6145 95.1813 14.3709C96.0548 15.1127 96.4919 16.1236 96.4919 17.4036C96.4919 18.5963 96.1015 19.5636 95.3217 20.3054C94.5574 21.0327 93.4967 21.4472 92.1398 21.549L98.714 28.7272H96.3975L89.8236 21.5272H87.9285V28.7272H86.1504ZM87.9285 19.9999H91.3677C93.5826 19.9999 94.6899 19.1345 94.6899 17.4036C94.6899 15.6581 93.5826 14.7854 91.3677 14.7854H87.9285V19.9999Z" fill="#2B2B37"/>
<path d="M105.246 28.9451C103.53 28.9451 102.111 28.3996 100.988 27.3087C99.88 26.2032 99.3262 24.8578 99.3262 23.2723C99.3262 21.6869 99.88 20.3487 100.988 19.2578C102.111 18.1523 103.53 17.5996 105.246 17.5996C106.946 17.5996 108.303 18.116 109.316 19.1487V17.8178H110.954V28.7269H109.316V27.396C108.303 28.4287 106.946 28.9451 105.246 28.9451ZM105.316 27.5269C106.221 27.5269 107.016 27.3451 107.702 26.9814C108.389 26.6178 108.926 26.1378 109.316 25.5414V21.0032C108.926 20.4069 108.389 19.9269 107.702 19.5632C107.016 19.1996 106.221 19.0178 105.316 19.0178C104.053 19.0178 103.015 19.4323 102.204 20.2614C101.409 21.076 101.011 22.0796 101.011 23.2723C101.011 24.4651 101.409 25.476 102.204 26.3051C103.015 27.1196 104.053 27.5269 105.316 27.5269Z" fill="#2B2B37"/>
<path d="M120.686 28.9442C118.986 28.9442 117.63 28.4279 116.616 27.3952V28.7261H114.979V12.7988H116.616V19.1479C117.63 18.1152 118.986 17.5988 120.686 17.5988C122.403 17.5988 123.814 18.1515 124.922 19.257C126.045 20.3479 126.606 21.6861 126.606 23.2715C126.606 24.857 126.045 26.2024 124.922 27.3079C123.814 28.3988 122.403 28.9442 120.686 28.9442ZM120.617 27.5261C121.88 27.5261 122.909 27.1188 123.705 26.3042C124.516 25.4752 124.922 24.4642 124.922 23.2715C124.922 22.0788 124.516 21.0752 123.705 20.2606C122.909 19.4315 121.88 19.017 120.617 19.017C119.712 19.017 118.916 19.1988 118.23 19.5624C117.543 19.9261 117.006 20.4061 116.616 21.0024V25.5406C117.006 26.137 117.543 26.617 118.23 26.9806C118.916 27.3442 119.712 27.5261 120.617 27.5261Z" fill="#2B2B37"/>
<path d="M135.355 28.9442C133.655 28.9442 132.298 28.4279 131.285 27.3952V28.7261H129.646V12.7988H131.285V19.1479C132.298 18.1152 133.655 17.5988 135.355 17.5988C137.071 17.5988 138.483 18.1515 139.59 19.257C140.714 20.3479 141.275 21.6861 141.275 23.2715C141.275 24.857 140.714 26.2024 139.59 27.3079C138.483 28.3988 137.071 28.9442 135.355 28.9442ZM135.285 27.5261C136.549 27.5261 137.578 27.1188 138.374 26.3042C139.185 25.4752 139.59 24.4642 139.59 23.2715C139.59 22.0788 139.185 21.0752 138.374 20.2606C137.578 19.4315 136.549 19.017 135.285 19.017C134.381 19.017 133.585 19.1988 132.899 19.5624C132.212 19.9261 131.675 20.4061 131.285 21.0024V25.5406C131.675 26.137 132.212 26.617 132.899 26.9806C133.585 27.3442 134.381 27.5261 135.285 27.5261Z" fill="#2B2B37"/>
<path d="M145.154 14.9807C144.795 14.9807 144.491 14.8716 144.241 14.6534C144.007 14.4207 143.891 14.1443 143.891 13.8243C143.891 13.5043 144.007 13.2352 144.241 13.0171C144.491 12.7843 144.795 12.668 145.154 12.668C145.497 12.668 145.785 12.7843 146.019 13.0171C146.253 13.2352 146.371 13.5043 146.371 13.8243C146.371 14.1443 146.253 14.4207 146.019 14.6534C145.785 14.8716 145.497 14.9807 145.154 14.9807ZM144.312 28.7261V17.817H145.949V28.7261H144.312Z" fill="#2B2B37"/>
<path d="M154.639 28.8351C153.672 28.8351 152.861 28.566 152.205 28.0278C151.567 27.4896 151.247 26.7114 151.247 25.6932V19.2569H148.275V17.8169H151.247V14.7842H152.884V17.8169H156.534V19.2569H152.884V25.5623C152.884 26.2169 153.056 26.6969 153.399 27.0023C153.758 27.3078 154.217 27.4605 154.779 27.4605C155.403 27.4605 155.98 27.3223 156.511 27.046L157.002 28.3551C156.347 28.6751 155.559 28.8351 154.639 28.8351Z" fill="#2B2B37"/>
<path d="M9.2457 26.9527C10.9302 28.5091 12.9579 29.2873 15.3287 29.2873C17.0288 29.2873 18.5651 28.9018 19.9377 28.1309C21.3103 27.36 22.3631 26.3345 23.0961 25.0545L19.8207 23.3964C18.8225 25.0836 17.3251 25.9273 15.3287 25.9273C13.9873 25.9273 12.8409 25.4691 11.8894 24.5527C10.9536 23.6364 10.4857 22.5455 10.4857 21.28C10.4857 20.0145 10.9536 18.9236 11.8894 18.0073C12.8409 17.0909 13.9873 16.6327 15.3287 16.6327C17.3251 16.6327 18.8225 17.4764 19.8207 19.1636L23.0961 17.5055C22.3631 16.2255 21.3103 15.2 19.9377 14.4291C18.5651 13.6582 17.0288 13.2727 15.3287 13.2727C12.9579 13.2727 10.9302 14.0582 9.2457 15.6291C7.57679 17.1855 6.74233 19.0691 6.74233 21.28C6.74233 23.4909 7.57679 25.3818 9.2457 26.9527Z" fill="white"/>
<path d="M34.5786 29.2873C36.9494 29.2873 38.9692 28.5018 40.6381 26.9309C42.3227 25.36 43.1649 23.4764 43.1649 21.28C43.1649 19.0836 42.3227 17.2 40.6381 15.6291C38.9692 14.0582 36.9494 13.2727 34.5786 13.2727C32.2078 13.2727 30.1801 14.0582 28.4956 15.6291C26.8267 17.1855 25.9923 19.0691 25.9923 21.28C25.9923 23.4909 26.8267 25.3818 28.4956 26.9527C30.1801 28.5091 32.2078 29.2873 34.5786 29.2873Z" fill="white"/>
<path d="M51.1089 13.5345H47.389V29.0255H51.1089V13.5345Z" fill="white"/>
<path d="M68.081 29.0255H71.2863V13.5345H67.5429V23.1127L59.4713 13.5345H56.266V29.0255H59.986V19.4473L68.081 29.0255Z" fill="white"/>
<path fill-rule="evenodd" clip-rule="evenodd" d="M7.70552 6C3.44988 6 0 9.25611 0 13.2727V28.7273C0 32.7439 3.44988 36 7.70552 36H71.2761C75.5317 36 78.9816 32.7439 78.9816 28.7273V13.2727C78.9816 9.25611 75.5317 6 71.2761 6H7.70552ZM9.2457 26.9527C10.9302 28.5091 12.9579 29.2873 15.3287 29.2873C17.0288 29.2873 18.5651 28.9018 19.9377 28.1309C21.3103 27.36 22.3631 26.3345 23.0961 25.0545L19.8207 23.3964C18.8225 25.0836 17.3251 25.9273 15.3287 25.9273C13.9873 25.9273 12.8409 25.4691 11.8894 24.5527C10.9536 23.6364 10.4857 22.5455 10.4857 21.28C10.4857 20.0145 10.9536 18.9236 11.8894 18.0073C12.8409 17.0909 13.9873 16.6327 15.3287 16.6327C17.3251 16.6327 18.8225 17.4764 19.8207 19.1636L23.0961 17.5055C22.3631 16.2255 21.3103 15.2 19.9377 14.4291C18.5651 13.6582 17.0288 13.2727 15.3287 13.2727C12.9579 13.2727 10.9302 14.0582 9.2457 15.6291C7.57679 17.1855 6.74233 19.0691 6.74233 21.28C6.74233 23.4909 7.57679 25.3818 9.2457 26.9527ZM34.5786 29.2873C36.9494 29.2873 38.9692 28.5018 40.6381 26.9309C42.3227 25.36 43.1649 23.4764 43.1649 21.28C43.1649 19.0836 42.3227 17.2 40.6381 15.6291C38.9692 14.0582 36.9494 13.2727 34.5786 13.2727C32.2078 13.2727 30.1801 14.0582 28.4956 15.6291C26.8267 17.1855 25.9923 19.0691 25.9923 21.28C25.9923 23.4909 26.8267 25.3818 28.4956 26.9527C30.1801 28.5091 32.2078 29.2873 34.5786 29.2873ZM51.1089 13.5345H47.389V29.0255H51.1089V13.5345ZM68.081 29.0255H71.2863V13.5345H67.5429V23.1127L59.4713 13.5345H56.266V29.0255H59.986V19.4473L68.081 29.0255Z" fill="#1168F1"/>
<path d="M31.1381 24.5528C32.0896 25.4692 33.236 25.9274 34.5774 25.9274C35.9187 25.9274 37.0573 25.4692 37.9932 24.5528C38.929 23.6365 39.3969 22.5455 39.3969 21.2801C39.3969 20.0146 38.929 18.9237 37.9932 18.0074C37.0573 17.091 35.9187 16.6328 34.5774 16.6328C33.236 16.6328 32.0896 17.091 31.1381 18.0074C30.2023 18.9237 29.7344 20.0146 29.7344 21.2801C29.7344 22.5455 30.2023 23.6365 31.1381 24.5528Z" fill="#1168F1"/>
</g>
<defs>
<clipPath id="clip0_21528_33839">
<rect width="157" height="42" fill="white"/>
</clipPath>
</defs>
</svg>
