<svg width="112" height="42" viewBox="0 0 112 42" fill="none" xmlns="http://www.w3.org/2000/svg">
<g clip-path="url(#clip0_21528_34453)">
<path fill-rule="evenodd" clip-rule="evenodd" d="M45.6271 19.1899C45.3938 17.9855 44.7355 16.8984 43.7659 16.1166C42.7964 15.3349 41.5767 14.9077 40.3179 14.909C39.052 14.8859 37.8195 15.305 36.8436 16.0903C35.8677 16.8755 35.2128 17.9751 34.9976 19.1899H45.6271ZM34.9647 22.0046C35.2441 23.2807 35.9611 24.4262 36.998 25.2529C38.0348 26.0795 39.3296 26.538 40.6696 26.5531C42.7365 26.5085 44.7058 25.6879 46.1658 24.2628L48.3642 26.8421C46.3509 28.8431 43.612 29.9958 40.7356 30.0528C39.4824 30.0514 38.2419 29.8083 37.0857 29.3375C35.9296 28.8667 34.8807 28.1775 33.9997 27.3098C33.1186 26.4421 32.4229 25.413 31.9528 24.2819C31.4826 23.1509 31.2472 21.9404 31.2603 20.7203C31.2484 19.5508 31.4773 18.3907 31.9335 17.3087C32.3897 16.2267 33.064 15.2447 33.9165 14.4207C34.769 13.5966 35.7825 12.9473 36.897 12.5109C38.0116 12.0746 39.2047 11.8601 40.4058 11.8802C45.6491 11.8802 49.5953 15.9364 49.5953 22.0902L34.9647 22.0046Z" fill="#2B2B37"/>
<path fill-rule="evenodd" clip-rule="evenodd" d="M66.8765 20.8823C66.8765 19.79 66.5439 18.7223 65.9206 17.8142C65.2974 16.906 64.4115 16.1982 63.3751 15.7802C62.3387 15.3623 61.1982 15.2529 60.098 15.466C58.9977 15.6791 57.987 16.205 57.1938 16.9773C56.4006 17.7497 55.8604 18.7337 55.6415 19.8049C55.4226 20.8761 55.535 21.9865 55.9643 22.9956C56.3936 24.0047 57.1206 24.8672 58.0533 25.474C58.9861 26.0808 60.0827 26.4047 61.2045 26.4047C62.7022 26.4019 64.1383 25.8236 65.2004 24.7955C66.2626 23.7674 66.8649 22.3726 66.8765 20.9144M66.8765 13.9472V5H70.46V29.6154H67.3931V27.4749C65.7319 29.0645 63.5007 29.9627 61.1715 29.9793C58.6935 29.9793 56.317 29.0208 54.5647 27.3148C52.8125 25.6088 51.8281 23.2949 51.8281 20.8823C51.8281 18.4696 52.8125 16.1557 54.5647 14.4497C56.317 12.7437 58.6935 11.7853 61.1715 11.7853C63.2687 11.7928 65.289 12.5552 66.8435 13.9258" fill="#2B2B37"/>
<path fill-rule="evenodd" clip-rule="evenodd" d="M87.7164 20.8821C87.7207 19.7838 87.3899 18.7091 86.7659 17.7941C86.1419 16.8792 85.2529 16.1653 84.2115 15.743C83.1702 15.3208 82.0235 15.2092 80.917 15.4224C79.8104 15.6356 78.7938 16.1641 77.9962 16.9407C77.1985 17.7173 76.6558 18.7071 76.4368 19.7844C76.2178 20.8618 76.3324 21.9783 76.7661 22.9921C77.1998 24.006 77.933 24.8716 78.8727 25.4791C79.8124 26.0867 80.9163 26.4088 82.0444 26.4045C83.5451 26.3933 84.9811 25.8079 86.0424 24.7747C87.1036 23.7414 87.7049 22.3433 87.7164 20.8821ZM91.2998 27.6781C91.2998 34.3992 87.0678 36.9998 82.9787 36.9998C81.1505 37.0121 79.3611 36.4861 77.8453 35.4908L79.2633 32.5691C80.3103 33.2232 81.5259 33.5756 82.7698 33.5858C85.7707 33.5858 87.8263 31.5845 87.8263 27.7102C86.2526 29.1542 84.1738 29.9615 82.0114 29.9684C79.5334 29.9684 77.1568 29.01 75.4046 27.304C73.6524 25.5979 72.668 23.2841 72.668 20.8714C72.668 18.4587 73.6524 16.1449 75.4046 14.4389C77.1568 12.7328 79.5334 11.7744 82.0114 11.7744C83.1542 11.7732 84.2858 11.993 85.3406 12.4211C86.3955 12.8492 87.3525 13.477 88.156 14.2681V12.1276H91.2998V27.6781Z" fill="#2B2B37"/>
<path fill-rule="evenodd" clip-rule="evenodd" d="M108.084 19.1899C107.851 17.9855 107.192 16.8984 106.223 16.1166C105.253 15.3349 104.034 14.9077 102.775 14.909C101.509 14.8859 100.276 15.305 99.3004 16.0903C98.3245 16.8755 97.6696 17.9751 97.4545 19.1899H108.084ZM97.4215 22.0046C97.7025 23.2878 98.4261 24.4387 99.4719 25.2662C100.518 26.0936 101.823 26.5478 103.17 26.5531C105.21 26.4895 107.149 25.6703 108.59 24.2628L110.788 26.8421C108.775 28.8431 106.036 29.9958 103.159 30.0528C101.906 30.0514 100.666 29.8083 99.5096 29.3375C98.3534 28.8667 97.3045 28.1775 96.4235 27.3098C95.5425 26.4421 94.8468 25.413 94.3766 24.2819C93.9064 23.1509 93.671 21.9404 93.6841 20.7203C93.6722 19.5508 93.9011 18.3907 94.3573 17.3087C94.8135 16.2267 95.4878 15.2447 96.3403 14.4207C97.1928 13.5966 98.2063 12.9473 99.3209 12.5109C100.435 12.0746 101.629 11.8601 102.83 11.8802C108.073 11.8802 112.019 15.9364 112.019 22.0902L97.4215 22.0046Z" fill="#2B2B37"/>
<path fill-rule="evenodd" clip-rule="evenodd" d="M27.0719 8.60742L19.0476 30.087H0.470703L4.63676 18.9138H11.9576L15.8049 8.60742H27.0719Z" fill="#66EDA8"/>
<path fill-rule="evenodd" clip-rule="evenodd" d="M14.1341 5L9.94603 16.1946H-0.00195312L4.19708 5H14.1341Z" fill="#66EDA8"/>
</g>
<defs>
<clipPath id="clip0_21528_34453">
<rect width="112" height="42" fill="white" transform="translate(-0.00195312)"/>
</clipPath>
</defs>
</svg>
