<svg width="164" height="42" viewBox="0 0 164 42" fill="none" xmlns="http://www.w3.org/2000/svg">
<g clip-path="url(#clip0_21528_33819)">
<path d="M33.4733 13.4627L19.1328 4V9.29066L28.3324 15.3069L27.2502 18.7534H19.1328V23.137H27.2502L28.3324 26.5836L19.1328 32.5998V37.8906L33.4733 28.458L31.1283 20.9604L33.4733 13.4627Z" fill="url(#paint0_linear_21528_33819)"/>
<path d="M6.65759 23.137H14.7448V18.7534H6.62753L5.57529 15.3069L14.7448 9.29066V4L0.404297 13.4627L2.74929 20.9604L0.404297 28.458L14.7748 37.8906V32.5998L5.57529 26.5836L6.65759 23.137Z" fill="url(#paint1_linear_21528_33819)"/>
<mask id="mask0_21528_33819" style="mask-type:alpha" maskUnits="userSpaceOnUse" x="0" y="4" width="34" height="34">
<path d="M33.4733 13.4627L19.1328 4V9.29066L28.3324 15.3069L27.2502 18.7534H19.1328V23.137H27.2502L28.3324 26.5836L19.1328 32.5998V37.8906L33.4733 28.458L31.1284 20.9604L33.4733 13.4627Z" fill="url(#paint2_linear_21528_33819)"/>
<path d="M6.65758 23.137H14.7448V18.7534H6.62752L5.57529 15.3069L14.7448 9.29066V4L0.404297 13.4627L2.74928 20.9604L0.404297 28.458L14.7748 37.8906V32.5998L5.57529 26.5836L6.65758 23.137Z" fill="url(#paint3_linear_21528_33819)"/>
</mask>
<g mask="url(#mask0_21528_33819)">
<path d="M33.2552 4H0.421875V37.8906H33.2552V4Z" fill="url(#paint4_linear_21528_33819)"/>
</g>
<path d="M62.0052 13.3203V16.2832H48.4376V19.315H59.9655V22.2778H48.4376V25.6081H62.0052V28.5711H44.957V13.3203H62.0052Z" fill="#2B2B37"/>
<path d="M63.9277 28.5711L71.7227 20.8537L64.1486 13.3203H68.9404L74.2843 18.7637L79.4074 13.3203H83.89L76.3379 20.8537L84.1329 28.5711H79.2968L74.2843 22.9669L68.565 28.5711H63.9277Z" fill="#2B2B37"/>
<path d="M93.4804 13.3203C99.7959 13.3203 103.594 16.5031 103.594 20.9457C103.594 25.3883 99.7959 28.5711 93.4804 28.5711C87.1649 28.5711 83.3887 25.3883 83.3887 20.9457C83.3887 16.5031 87.1649 13.3203 93.4804 13.3203ZM93.4804 16.1715C89.6825 16.1715 86.8829 18.0945 86.8829 20.9457C86.8829 23.7969 89.6825 25.7199 93.4804 25.7199C97.3001 25.7199 100.1 23.7969 100.1 20.9457C100.1 18.0945 97.3001 16.1715 93.4804 16.1715Z" fill="#2B2B37"/>
<path d="M116.183 13.3203C121.241 13.3203 124.289 16.1454 124.289 20.9227C124.289 25.7459 121.263 28.5711 116.227 28.5711H105.979V13.3203H116.183ZM120.711 20.9227C120.711 17.9369 118.944 16.2832 115.741 16.2832H109.446V25.6081H115.741C118.944 25.6081 120.711 23.9316 120.711 20.9227Z" fill="#2B2B37"/>
<path d="M135.76 28.5711C130.434 28.5711 126.395 26.1381 126.395 21.6552V13.3203H129.879V21.3174C129.879 24.0882 132.742 25.3723 135.76 25.3723C138.801 25.3723 141.664 24.1106 141.664 21.3174V13.3203H145.126V21.6552C145.126 26.1381 141.109 28.5711 135.76 28.5711Z" fill="#2B2B37"/>
<path d="M154.88 28.5711C152.018 28.5711 148.933 28.0406 146.742 27.046L147.882 24.2168C149.85 25.123 152.555 25.6977 154.991 25.6977C157.786 25.6977 160.401 25.1009 160.401 24.04C160.401 23.2664 159.574 22.9348 157.853 22.6696L152.979 22.1391C149.224 21.6308 147.39 20.3268 147.39 18.0281C147.39 15.0664 150.498 13.3203 155.058 13.3203C157.808 13.3203 161.586 13.8287 163.531 14.7128L162.391 17.4093C160.468 16.6136 157.205 16.2157 154.902 16.2157C152.532 16.2157 150.967 16.7683 150.967 17.785C150.967 18.4923 151.75 18.8459 153.762 19.1333L158.501 19.6637C162.123 20.1721 164.001 21.4098 164.001 23.819C164.001 26.8691 160.021 28.5711 154.88 28.5711Z" fill="#2B2B37"/>
</g>
<defs>
<linearGradient id="paint0_linear_21528_33819" x1="28.8342" y1="40.2206" x2="19.1119" y2="0.30649" gradientUnits="userSpaceOnUse">
<stop stop-color="#0B46F9"/>
<stop offset="1" stop-color="#BBFBE0"/>
</linearGradient>
<linearGradient id="paint1_linear_21528_33819" x1="28.8355" y1="40.2206" x2="19.1132" y2="0.306489" gradientUnits="userSpaceOnUse">
<stop stop-color="#0B46F9"/>
<stop offset="1" stop-color="#BBFBE0"/>
</linearGradient>
<linearGradient id="paint2_linear_21528_33819" x1="28.8342" y1="40.2206" x2="19.1119" y2="0.30649" gradientUnits="userSpaceOnUse">
<stop stop-color="#0B46F9"/>
<stop offset="1" stop-color="#BBFBE0"/>
</linearGradient>
<linearGradient id="paint3_linear_21528_33819" x1="28.8355" y1="40.2206" x2="19.1132" y2="0.306489" gradientUnits="userSpaceOnUse">
<stop stop-color="#0B46F9"/>
<stop offset="1" stop-color="#BBFBE0"/>
</linearGradient>
<linearGradient id="paint4_linear_21528_33819" x1="2.52657" y1="11.6254" x2="19.2294" y2="24.0205" gradientUnits="userSpaceOnUse">
<stop offset="0.119792" stop-color="#8952FF" stop-opacity="0.87"/>
<stop offset="1" stop-color="#DABDFF" stop-opacity="0"/>
</linearGradient>
<clipPath id="clip0_21528_33819">
<rect width="164" height="42" fill="white"/>
</clipPath>
</defs>
</svg>
