<svg width="203" height="42" viewBox="0 0 203 42" fill="none" xmlns="http://www.w3.org/2000/svg">
<g clip-path="url(#clip0_21528_34513)">
<path d="M18.0913 19.0381C19.4664 20.6723 15.4392 23.8331 16.3438 22.5281H7.76542C6.83742 21.4464 6.19942 20.2648 5.89258 19.0381H18.0913Z" fill="#2B2B37"/>
<path d="M15.6038 28.4583C14.3849 29.3244 13.067 30.0738 11.6719 30.6942L10.989 31L10.3024 30.695C3.8485 27.81 -0.00195312 22.84 -0.00195312 17.395V11H3.93456V17.3942C3.93456 17.8025 3.9645 18.2092 4.02718 18.6133C4.52298 21.9217 7.03008 24.9742 10.9741 27.03C10.978 27.0331 10.9824 27.0356 10.9872 27.0375L10.9975 27.0317L11.0143 27.0225C12.44 27.7329 13.9926 28.218 15.6038 28.4583Z" fill="#2B2B37"/>
<path d="M21.8599 19.0389C21.6775 20.3026 21.2883 21.5357 20.7046 22.6989C19.626 24.8589 17.8916 26.8248 15.6071 28.4606C13.9966 28.2201 12.4447 27.7341 11.0195 27.0239C11.534 26.7531 12.0336 26.4598 12.5154 26.1448C12.5631 26.1173 12.6089 26.0864 12.6538 26.0548C15.3204 24.3443 17.2414 21.8655 18.0918 19.0381L21.8599 19.0389Z" fill="#2B2B37"/>
<path d="M21.981 11H3.93555V14.505H21.981V11Z" fill="#2B2B37"/>
<path d="M21.9809 14.5068V17.3943C21.9809 17.5135 21.9763 17.6335 21.9716 17.7527H18.0332C18.0379 17.6335 18.0398 17.5135 18.0398 17.3943V14.5068H21.9809Z" fill="#2B2B37"/>
<path d="M62.9601 20.4003C62.9601 21.5878 62.8104 22.5587 62.5092 23.3103C62.1033 24.3905 61.3039 25.3188 60.2379 25.9478C59.1581 26.5533 57.9014 26.8606 56.626 26.8312C54.3621 26.8312 52.6268 26.1462 51.4172 24.7745C50.4934 23.7102 50.0088 22.3952 50.0448 21.0503C50.0448 19.452 50.5809 18.1095 51.652 17.0212C52.8681 15.7853 54.5651 15.167 56.7448 15.167C58.2004 15.167 59.4333 15.5003 60.4455 16.1653C61.1677 16.6353 61.7842 17.332 62.2959 18.2545L59.2668 19.3728C59.0648 18.9337 58.7561 18.5395 58.3613 18.2212C57.8643 17.8578 57.2379 17.6645 56.5951 17.6762C55.2012 17.6762 54.2283 18.3153 53.6801 19.5937C53.4752 20.059 53.3704 20.5546 53.3714 21.0545C53.3547 21.5338 53.4446 22.0114 53.636 22.4596C53.8274 22.9078 54.1164 23.3179 54.4865 23.6662C55.0366 24.1862 55.7709 24.4453 56.6877 24.4437C57.5016 24.4437 58.1471 24.2328 58.6242 23.8112C58.9731 23.4695 59.1892 23.0378 59.2416 22.5787H56.6045V20.3995L62.9601 20.4003ZM79.4424 21.847C79.4499 22.4137 79.3863 22.9787 79.2525 23.5328C79.0452 24.2995 78.5828 24.9925 77.926 25.5212C76.926 26.3628 75.5892 26.7845 73.9156 26.7845C72.213 26.7845 70.8837 26.3553 69.9267 25.4978C69.4101 25.0293 69.0505 24.4417 68.8883 23.8012C68.7383 23.1615 68.6714 22.5086 68.689 21.8553V15.517H71.894V21.4545C71.894 21.9328 71.9034 22.2878 71.9221 22.522C71.9801 23.2678 72.3589 23.7878 73.0587 24.082C73.358 24.207 73.6854 24.2695 74.0166 24.2653C74.7977 24.2653 75.3871 24.0228 75.7847 23.5353C76.0803 23.177 76.2272 22.4837 76.2272 21.4545V15.5178H79.4331L79.4424 21.847ZM96.3214 26.4945H92.8984L92.1051 24.5803H87.6812L86.8327 26.4945H83.4482L88.1817 15.5178H91.6814L96.3214 26.4945ZM91.2389 22.4103L89.9133 18.9103L88.5671 22.4103H91.2389ZM111.685 26.4945H107.709L104.648 22.2778V26.4945H101.435V15.5178H106.42C107.876 15.5178 108.953 15.9062 109.651 16.6828C110.216 17.3088 110.517 18.092 110.5 18.8953C110.5 19.8662 110.175 20.6403 109.525 21.2195C109.048 21.6178 108.453 21.8862 107.809 21.992L111.685 26.4945ZM107.179 19.0528C107.183 18.8674 107.143 18.6832 107.06 18.513C106.977 18.3427 106.854 18.1903 106.7 18.0662C106.397 17.8137 105.911 17.6887 105.24 17.6895H104.642V20.4228H105.24C105.918 20.4228 106.403 20.297 106.7 20.0453C106.853 19.9194 106.976 19.7658 107.058 19.5947C107.14 19.4236 107.181 19.2389 107.177 19.0528H107.179ZM127.533 21.002C127.514 22.1378 127.11 23.2421 126.373 24.1693C125.637 25.0965 124.602 25.8031 123.405 26.1962C122.779 26.392 122.119 26.4923 121.455 26.4928H116.722V15.517H121.455C122.6 15.513 123.72 15.8123 124.674 16.377C125.631 16.9247 126.401 17.6958 126.9 18.6062C127.314 19.3508 127.531 20.1711 127.533 21.002ZM124.21 21.002C124.226 20.2883 123.974 19.5903 123.494 19.0187C122.863 18.2712 121.917 17.8978 120.654 17.8987H119.922V24.1153H120.654C121.917 24.1153 122.863 23.7412 123.494 22.9937C123.972 22.4187 124.223 21.7178 124.206 21.002H124.21ZM143.5 26.4945H140.079L139.283 24.5803H134.86L134.011 26.4945H130.626L135.359 15.5178H138.86L143.5 26.4945ZM138.416 22.4103L137.092 18.9103L135.755 22.4103H138.416ZM158.863 26.4945H154.876L151.816 22.2778V26.4945H148.615V15.5178H153.598C155.054 15.5178 156.132 15.9062 156.829 16.6828C157.394 17.3095 157.695 18.092 157.678 18.8953C157.678 19.8662 157.352 20.6403 156.702 21.2195C156.226 21.6183 155.63 21.8865 154.987 21.992L158.863 26.4945ZM154.359 19.0528C154.362 18.8674 154.321 18.6834 154.238 18.5133C154.155 18.3432 154.032 18.1907 153.878 18.0662C153.575 17.8145 153.09 17.6895 152.42 17.6895H151.822V20.4228H152.415C153.091 20.4228 153.577 20.2978 153.872 20.0453C154.027 19.9195 154.15 19.7661 154.233 19.5951C154.317 19.4241 154.359 19.2393 154.357 19.0528H154.359ZM167.111 26.4945H163.904V15.5178H167.109L167.111 26.4945ZM185.108 26.4945H181.685L180.89 24.5803H176.467L175.619 26.4945H172.232L176.966 15.5178H180.458L185.108 26.4945ZM180.027 22.4103L178.701 18.9103L177.355 22.4103H180.027ZM202.527 26.4945H199.322L193.426 19.7728V26.4945H190.221V15.5178H193.426L199.322 22.2328V15.5178H202.527V26.4945Z" fill="#2B2B37"/>
</g>
<defs>
<clipPath id="clip0_21528_34513">
<rect width="203" height="42" fill="white" transform="translate(-0.00195312)"/>
</clipPath>
</defs>
</svg>
