<svg width="134" height="42" viewBox="0 0 134 42" fill="none" xmlns="http://www.w3.org/2000/svg">
<path fill-rule="evenodd" clip-rule="evenodd" d="M39.1596 4.50654C39.2021 4.55358 39.2277 4.61215 39.2328 4.67376C39.259 4.97587 41.59 34.9459 19.81 41.926C19.7445 41.947 19.6736 41.947 19.6081 41.926C-2.17118 34.9459 0.159778 4.97587 0.185439 4.67376C0.190672 4.61234 0.21629 4.55401 0.258636 4.50701C0.300982 4.46001 0.357931 4.42676 0.42145 4.41189L19.6353 0.00806338C19.6839 -0.00268779 19.7342 -0.00268779 19.7829 0.00806338L38.9959 4.41189C39.0598 4.42635 39.1169 4.45949 39.1596 4.50654ZM35.6233 7.70651C35.6579 7.74461 35.6791 7.79199 35.6835 7.84198H35.6857C35.7072 8.0884 37.6138 32.5563 19.7918 38.2538C19.7395 38.2726 19.6817 38.2726 19.6294 38.2538C1.80662 32.5563 3.71402 8.0884 3.73541 7.84198C3.73955 7.79199 3.76042 7.74447 3.79501 7.70636C3.8296 7.66827 3.87615 7.64145 3.92794 7.62979L19.6478 4.03235C19.6876 4.02296 19.7292 4.02296 19.7691 4.03235L35.4904 7.62979C35.5421 7.64159 35.5885 7.66846 35.6233 7.70651Z" fill="#798CE5"/>
<path d="M19.4917 9.40012L9.00982 11.7971C8.97527 11.8054 8.94435 11.8236 8.9213 11.8492C8.89831 11.8749 8.88436 11.9067 8.88147 11.9401C8.86794 12.1046 7.59658 28.4166 19.4766 32.2155C19.5123 32.2262 19.5509 32.2262 19.5865 32.2155C31.4666 28.416 30.196 12.1046 30.1817 11.9394C30.1789 11.9059 30.1651 11.874 30.1419 11.8484C30.1187 11.8228 30.0874 11.8048 30.0526 11.7971L19.5714 9.39946C19.5454 9.39289 19.5178 9.39289 19.4917 9.39946" fill="#798CE5"/>
<path d="M54.8184 23.1479V20.4628H59.4368V28.36C57.2131 28.7031 55.4093 28.875 54.0254 28.875C51.5529 28.875 49.8502 28.2408 48.9172 26.9732C47.9997 25.7056 47.541 23.6916 47.541 20.9325C47.541 18.1738 48.0231 16.1831 48.9872 14.9592C49.9513 13.7368 51.5918 13.125 53.9087 13.125C55.3549 13.125 56.9177 13.282 58.5971 13.5947L59.4368 13.7517L59.3435 16.1453C57.4775 15.9517 55.9458 15.8542 54.7484 15.8542C53.5667 15.8542 52.7347 15.9884 52.2527 16.2567C51.7706 16.5254 51.413 17.025 51.1797 17.7556C50.962 18.472 50.8532 19.7101 50.8532 21.4696C50.8532 23.2152 51.0786 24.4376 51.5296 25.1387C51.9805 25.8397 52.9136 26.1906 54.3286 26.1906L56.2646 26.1006V23.1479H54.8184Z" fill="#798CE5"/>
<path d="M65.5606 23.5278C65.5606 25.3029 66.5014 26.1909 68.3829 26.1909C70.2645 26.1909 71.2053 25.3029 71.2053 23.5278V13.3936H74.4241V23.4609C74.4241 25.325 73.9188 26.6972 72.908 27.5777C71.9128 28.4425 70.4044 28.8752 68.3829 28.8752C66.3614 28.8752 64.8454 28.4425 63.8345 27.5777C62.8393 26.6972 62.3418 25.325 62.3418 23.4609V13.3936H65.5606V23.5278Z" fill="#798CE5"/>
<path d="M76.3008 28.6065L79.8694 13.3936H85.9806L89.5494 28.6065H86.3305L85.7008 25.8553H80.1494L79.5196 28.6065H76.3008ZM82.3652 15.9445L80.7558 23.1702H85.0942L83.4849 15.9445H82.3652Z" fill="#798CE5"/>
<path d="M94.879 23.5058V28.6065H91.6602V13.3936H97.818C101.55 13.3936 103.416 15.064 103.416 18.405C103.416 20.389 102.639 21.8506 101.083 22.7905L103.346 28.6065H99.8239L97.9814 23.5058H94.879ZM97.8645 20.8659C98.6264 20.8659 99.194 20.6424 99.5676 20.1947C99.9408 19.7477 100.127 19.158 100.127 18.4271C100.127 17.6965 99.9249 17.1153 99.5207 16.6826C99.132 16.2502 98.5644 16.0334 97.818 16.0334H94.879V20.8659H97.8645Z" fill="#798CE5"/>
<path d="M111.462 28.6065H106.121V13.3936H111.462C112.831 13.3936 113.958 13.5356 114.844 13.8192C115.731 14.0868 116.415 14.5423 116.897 15.184C117.395 15.81 117.737 16.5551 117.923 17.421C118.11 18.2708 118.203 19.3823 118.203 20.7545C118.203 22.126 118.118 23.267 117.947 24.1769C117.776 25.072 117.449 25.8773 116.967 26.5926C116.501 27.2937 115.817 27.8087 114.914 28.1368C114.013 28.4503 112.862 28.6065 111.462 28.6065ZM114.844 22.5659C114.876 22.0894 114.891 21.4324 114.891 20.5972C114.891 19.7477 114.86 19.0687 114.798 18.5616C114.736 18.0548 114.588 17.5918 114.355 17.1748C114.121 16.7566 113.772 16.4737 113.305 16.3242C112.854 16.1601 112.24 16.0787 111.462 16.0787H109.34V25.9225H111.462C112.629 25.9225 113.476 25.6385 114.005 25.072C114.456 24.6097 114.736 23.7745 114.844 22.5659Z" fill="#798CE5"/>
<path d="M119.438 28.6065L123.006 13.3936H129.117L132.686 28.6065H129.467L128.837 25.8553H123.286L122.656 28.6065H119.438ZM125.502 15.9445L123.892 23.1702H128.231L126.622 15.9445H125.502Z" fill="#798CE5"/>
</svg>
