<svg width="114" height="42" viewBox="0 0 114 42" fill="none" xmlns="http://www.w3.org/2000/svg">
<path fill-rule="evenodd" clip-rule="evenodd" d="M113.998 17.5841C113.998 5.3838 113.975 4.98833 113.217 4.60072C112.788 4.38069 112.07 3.88476 111.625 3.49828C110.829 2.80893 110.805 2.81155 110.336 3.65235C110.073 4.12316 109.383 4.81477 108.803 5.18887L107.747 5.86923L108.049 11.1775C108.214 14.0973 108.264 19.3535 108.158 22.8584L107.965 29.2309L109.506 30.4841L111.048 31.7372L112.087 30.9526C112.659 30.5212 113.323 30.168 113.562 30.168C113.874 30.168 113.998 26.5896 113.998 17.5841ZM7.19301 14.4747C6.28661 14.2307 6.2659 14.1311 6.29091 10.1077L6.31591 5.98994L4.67579 4.61947L3.03567 3.24863L2.02066 4.05719C1.46236 4.50177 0.743876 5.03406 0.423502 5.24023C-0.0793134 5.56411 -0.11057 6.63132 0.19417 13.1122C0.387952 17.2356 0.442256 22.7617 0.314504 25.3928L0.0824316 30.1759L1.1709 30.5728C1.76943 30.7914 2.52308 31.1955 2.84579 31.4714C3.34587 31.8984 3.66898 31.7702 5.03171 30.6017L6.63042 29.2309L6.34248 25.2949C6.18424 23.1302 6.13424 21.2323 6.23152 21.0778C6.32919 20.923 7.18949 20.7967 8.14395 20.7967H9.87901L9.88214 24.8263L9.88526 28.8561L11.4933 29.6939L13.1014 30.5313L14.2552 29.6001C14.8896 29.0877 15.5268 28.6686 15.6718 28.6686C15.8164 28.6686 15.9348 23.7768 15.9348 17.7979C15.9348 11.8189 15.8089 6.92708 15.6553 6.92708C15.5014 6.92708 14.7685 6.41539 14.0261 5.78977C13.1264 5.03218 12.5846 4.7949 12.4021 5.0783C12.2513 5.31258 11.5379 5.74066 10.8175 6.02968L9.50669 6.55484L9.75243 10.6771L9.99857 14.799L9.05973 14.7615C8.54324 14.7409 7.70325 14.612 7.19301 14.4747ZM103.405 6.17737C103.165 6.17737 102.522 5.83999 101.976 5.42766C101.429 5.01532 100.922 4.69144 100.848 4.70831C100.775 4.7248 99.9681 5.27284 99.0554 5.92658L97.3966 7.1145L97.6372 10.9568C97.7697 13.0702 97.7877 14.799 97.6771 14.799C97.1513 14.799 93.0962 9.21031 93.0962 8.48497C93.0962 7.92794 92.7458 7.53021 92.0226 7.26669C91.4319 7.05116 90.6661 6.62944 90.3204 6.32919C89.7691 5.85049 89.6288 5.85687 89.1761 6.38016C88.8924 6.70815 88.1947 7.20746 87.6255 7.48973L86.5908 8.00328L86.6518 17.5785L86.7128 27.1538L88.1399 28.0831L89.5671 29.0123L91.1842 28.3178L92.8013 27.6232L92.7318 23.3663L92.6621 19.1099L94.2711 21.1715C96.9371 24.5873 97.5502 25.7186 97.4567 27.0489C97.4087 27.7338 97.5372 28.2938 97.7423 28.2938C97.9475 28.2938 98.6581 28.732 99.3219 29.268L100.528 30.2418L102.105 29.4937L103.682 28.745L103.761 17.4613C103.818 9.36625 103.717 6.17737 103.405 6.17737ZM34.1367 8.61392L32.1175 8.32903C31.0068 8.17271 29.2846 7.65842 28.2907 7.18647C26.6361 6.40115 26.3861 6.37453 25.3332 6.87047C24.7007 7.16848 22.9773 7.49535 21.5029 7.59657C19.3763 7.74238 18.8677 7.89232 19.0391 8.32153C19.1583 8.61917 19.2556 13.126 19.2556 18.3365V27.8106L21.7521 28.034C23.125 28.1573 24.8331 28.4868 25.5477 28.7664C26.7272 29.2282 26.9924 29.198 28.4231 28.4381C29.2901 27.9773 30.7028 27.489 31.5624 27.3522C32.4219 27.2157 33.3889 27.0362 33.7112 26.9537C34.2144 26.8243 34.2859 25.5202 34.2171 17.7087L34.1367 8.61392ZM82.6125 8.37738L81.1301 7.65241C80.1361 7.16605 79.727 6.94971 79.3635 7.01028C79.073 7.05868 78.8116 7.28379 78.3043 7.68915C77.7972 8.09474 77.1729 8.42649 76.9174 8.42649C76.57 8.42649 76.4575 10.7517 76.472 17.6145C76.4911 26.4686 76.5204 26.8108 77.2732 27.0301C77.703 27.1553 78.3465 27.5031 78.7028 27.8031C79.2708 28.281 79.4978 28.2753 80.539 27.7589C81.1927 27.4346 81.9561 27.1692 82.235 27.1692C82.6397 27.1688 82.7296 25.2635 82.6777 17.7731L82.6125 8.37738ZM42.7533 9.00601C42.3494 8.88269 41.7047 8.44898 41.3207 8.04189C40.4697 7.14 40.3905 7.14074 39.2352 8.064C38.7281 8.4696 38.0581 8.80134 37.7466 8.80134C37.2755 8.80134 37.2321 9.25942 37.4879 11.519C37.6572 13.0136 37.7896 17.0201 37.7826 20.4218L37.7697 26.607L39.9404 26.6912C41.1343 26.7377 42.8471 27.0425 43.7469 27.369C45.2088 27.8998 45.5026 27.9032 46.5164 27.4001C47.1404 27.0905 48.8177 26.6422 50.2432 26.4041L52.8359 25.9708L52.748 21.041C52.6996 18.3294 52.8046 14.5505 52.982 12.6436C53.2215 10.0687 53.1868 9.1762 52.8468 9.1762C52.5956 9.1762 51.8935 8.83733 51.2872 8.42312L50.1851 7.67003L48.8016 8.51683L47.4186 9.36363L47.3963 14.4241C47.3705 20.261 47.0271 21.359 45.2268 21.359C43.4308 21.359 42.9495 19.5173 43.2488 13.7948C43.4714 9.54506 43.4371 9.21406 42.7533 9.00601ZM70.9245 9.54731C70.3337 9.54543 68.9098 9.12372 67.7604 8.61017C65.4908 7.59657 65.2068 7.55608 63.8972 8.06175C63.4162 8.24694 61.4823 8.51046 59.5995 8.6469L56.1759 8.89468L56.1255 11.9407C56.0978 13.616 56.0208 15.9142 55.9544 17.0482C55.888 18.1821 55.981 20.7547 56.1615 22.7646L56.4892 26.4195H58.8986C60.2243 26.4195 62.2425 26.6856 63.3842 27.011C65.4185 27.5906 65.5041 27.583 67.7037 26.6361C68.9378 26.1047 70.3213 25.6697 70.778 25.6697C71.518 25.6697 71.609 25.4561 71.6165 23.7018C71.6207 22.6192 71.8505 20.6999 72.1262 19.4363C72.4025 18.1727 72.499 16.8232 72.3412 16.4375C72.1829 16.0518 72.0415 14.3447 72.0263 12.6436L71.9989 9.55105L70.9245 9.54731ZM24.8092 17.0114C24.8796 14.9726 25.1176 13.5609 25.4567 13.1691C26.2416 12.2631 27.348 12.4123 28.1091 13.5267C28.894 14.6757 29.0096 19.5776 28.2927 21.29C27.9364 22.1409 27.6437 22.3227 26.7853 22.2271C25.1652 22.0468 24.6796 20.7644 24.8092 17.0114ZM62.2317 17.1021C62.2317 14.4609 62.375 13.3063 62.72 13.1729C62.9888 13.0691 63.2259 12.9705 63.2478 12.9544C63.2693 12.9382 63.8265 13.105 64.486 13.3259C65.776 13.7573 66.9199 15.5514 66.9199 17.143C66.9199 17.6483 66.5186 18.6349 66.0283 19.3355C65.3235 20.3424 64.8325 20.6337 63.6842 20.7255L62.2317 20.842V17.1021ZM42.7689 32.3186C43.2483 31.5943 43.1534 31.3968 42.2087 31.1539C39.2824 30.4016 36.8367 31.3238 36.8367 33.1796C36.8367 34.3907 37.647 35.0441 40.0599 35.7781C40.8659 36.0232 41.525 36.4607 41.525 36.7501C41.525 37.4924 39.8064 37.8169 38.3885 37.3427C37.404 37.0137 37.1504 37.0466 36.9574 37.529C36.471 38.7455 39.5935 39.479 41.6859 38.6401C44.4966 37.5133 43.8183 35.1195 40.4279 34.2007C39.454 33.9368 38.5842 33.5118 38.4956 33.2561C38.2596 32.5764 39.9661 32.096 41.3062 32.4644C42.111 32.6859 42.5549 32.6417 42.7689 32.3186ZM49.013 35.9827C48.87 35.8482 48.3871 34.6959 47.9402 33.4218C47.3135 31.6356 46.9333 31.0778 46.2797 30.9852C45.8132 30.9197 45.432 30.9954 45.432 31.1535C45.432 31.3121 45.9968 33.0949 46.6872 35.1157C47.8562 38.5374 48.0132 38.7897 48.9778 38.7897C49.8979 38.7897 50.0901 38.5498 50.7031 36.6342C51.0825 35.449 51.5263 34.3372 51.6896 34.1644C51.8533 33.9916 52.3721 34.9613 52.8433 36.3198C53.6145 38.543 53.8041 38.7893 54.7429 38.7855C55.7153 38.7818 55.8606 38.5486 56.9084 35.3182C57.5262 33.4136 58.1168 31.63 58.2216 31.3548C58.3521 31.0115 58.1325 30.8938 57.5202 30.98C56.8143 31.0793 56.4604 31.5861 55.8165 33.4218C55.3695 34.6959 54.8949 35.8403 54.762 35.9655C54.6288 36.0904 54.1013 35.0478 53.5899 33.6489C52.8922 31.7406 52.4609 31.0778 51.8627 30.9957C51.1907 30.9035 50.9258 31.3038 50.1695 33.5567C49.6764 35.0258 49.156 36.1174 49.013 35.9827ZM67.5626 38.7331C68.3432 38.6086 68.2917 38.4149 66.5055 34.76C65.0032 31.6862 64.4644 30.9177 63.8108 30.9177C63.3247 30.9177 62.856 31.2592 62.6536 31.7612C62.4664 32.2249 61.6796 33.9331 60.9053 35.5566C60.1305 37.1801 59.4968 38.5719 59.4968 38.6491C59.4968 38.7264 59.916 38.7897 60.4278 38.7897C61.0307 38.7897 61.4311 38.525 61.5636 38.04C61.8683 36.921 65.417 36.9496 66.1971 38.077C66.5343 38.5647 67.0543 38.8145 67.5626 38.7331ZM77.5987 33.9159C77.5987 33.0281 77.2947 32.4224 76.5352 31.7957C75.685 31.0939 75.0181 30.9177 73.2144 30.9177C71.9728 30.9177 70.8397 31.0302 70.6968 31.1677C70.5534 31.305 70.4361 33.0762 70.4361 35.1038C70.4361 38.7855 70.4373 38.7897 71.4128 38.7897C72.2377 38.7897 72.3897 38.6147 72.3897 37.6652C72.3897 36.5863 72.4595 36.5405 74.1044 36.5405C76.3442 36.5405 77.5987 35.5982 77.5987 33.9159ZM74.6779 35.184C73.1049 35.7148 72.3897 35.2634 72.3897 33.7408C72.3897 32.4872 72.4592 32.4171 73.7094 32.4171C76.0105 32.4171 76.7361 34.4897 74.6779 35.184ZM62.82 35.1348C62.9751 34.7739 63.19 34.1838 63.2983 33.8228C63.5733 32.9048 63.9832 33.0053 64.5129 34.1216C65.1919 35.5509 65.0825 35.7908 63.7526 35.7908C62.7497 35.7908 62.5875 35.6768 62.82 35.1348Z" fill="#2B2B37"/>
</svg>
