<svg width="216" height="42" viewBox="0 0 216 42" fill="none" xmlns="http://www.w3.org/2000/svg">
<path d="M16.4135 24.7889L15.743 24.9729V10.2004H18.1813V27.2861H15.743L2.88104 12.7238L3.55156 12.5398V27.2861H1.11328V10.2004H3.55156L16.4135 24.7889ZM32.6837 27.5489C30.8749 27.5489 29.2291 27.1901 27.7462 26.4712C26.2832 25.7352 25.1145 24.7101 24.2412 23.3958C23.3666 22.0815 22.9293 20.5306 22.9293 18.7432C22.9293 16.9558 23.3666 15.4049 24.2412 14.0906C25.1145 12.7592 26.2819 11.7341 27.7462 11.0152C29.2291 10.2964 30.8749 9.9375 32.6837 9.9375C34.4912 9.9375 36.1278 10.2964 37.5908 11.0152C39.0736 11.7341 40.2517 12.7592 41.1263 14.0906C41.9996 15.4049 42.4369 16.9558 42.4369 18.7432C42.4369 20.5306 41.9996 22.0815 41.125 23.3958C40.2897 24.6768 39.0686 25.7394 37.5908 26.4712C36.1278 27.1901 34.4912 27.5489 32.6837 27.5489ZM32.6837 25.5775C34.0645 25.5775 35.3049 25.3238 36.4021 24.8152C37.4993 24.2895 38.3726 23.5181 39.0233 22.5021C39.6726 21.4849 39.9986 20.2324 39.9986 18.7432C39.9986 17.2541 39.6726 16.0095 39.0233 15.0106C38.3726 13.9935 37.4993 13.2232 36.4021 12.6975C35.3049 12.1718 34.0645 11.9089 32.6837 11.9089C31.3215 11.9089 30.0825 12.1718 28.9653 12.6975C27.8681 13.2232 26.9935 13.9946 26.3442 15.0106C25.6935 16.0095 25.3689 17.2541 25.3689 18.7432C25.3689 20.2324 25.6935 21.4861 26.3442 22.5021C26.9935 23.5192 27.8681 24.2895 28.9653 24.8152C30.0825 25.3238 31.3215 25.5775 32.6837 25.5775ZM51.5804 27.2861L44.4511 10.2004H47.0722L53.1984 25.0255H52.4669L58.3466 10.2004H60.9678L66.8502 25.0255H66.1187L72.2462 10.2004H74.8064L67.7354 27.2861H65.1752L59.3233 11.9352H59.9938L54.1419 27.2861H51.5804Z" fill="#64ACFF"/>
<path d="M80.5424 21.2392V19.2678H86.76C87.9792 19.2678 88.9638 18.9432 89.7151 18.2952C90.489 17.6289 90.8747 16.7706 90.8747 15.7192C90.8747 14.6335 90.489 13.7741 89.7165 13.1432C88.9638 12.4952 87.9792 12.1706 86.76 12.1706H81.0301V27.2849H78.5918V10.1992H86.76C87.6744 10.1992 88.5278 10.3215 89.3202 10.5672C90.1127 10.8129 90.8044 11.1718 91.3928 11.6449C92.0024 12.1181 92.4701 12.6964 92.7948 13.3798C93.1393 14.0632 93.3116 14.8426 93.3116 15.7192C93.3116 16.5958 93.1393 17.3752 92.7948 18.0586C92.4864 18.7213 92.0069 19.3146 91.3928 19.7935C90.7947 20.2712 90.0893 20.638 89.3202 20.8712C88.498 21.1209 87.6317 21.2454 86.76 21.2392H80.5424ZM102.639 27.5478C101.456 27.5519 100.299 27.2498 99.3172 26.6804C98.322 26.0849 97.519 25.2781 96.9094 24.2621C96.3197 23.2278 96.0255 22.0541 96.0255 20.7398C96.0255 19.4255 96.3303 18.2518 96.9399 17.2175C97.5494 16.1832 98.371 15.3684 99.4086 14.7729C100.458 14.1789 101.689 13.8677 102.944 13.8792C104.366 13.8792 105.443 14.1946 106.175 14.8255C106.926 15.4392 107.434 16.2621 107.699 17.2964C107.984 18.3306 108.125 19.4781 108.125 20.7398C108.125 21.4061 108.045 22.1329 107.882 22.9215C107.718 23.6965 107.43 24.4484 107.028 25.1558C106.655 25.843 106.09 26.4392 105.382 26.8906C104.671 27.3284 103.756 27.5478 102.639 27.5478ZM103.249 25.5501C104.285 25.5501 105.139 25.3306 105.809 24.8929C106.5 24.4552 107.008 23.8758 107.333 23.1581C107.658 22.4221 107.821 21.6152 107.821 20.7398C107.821 19.7764 107.648 18.9341 107.303 18.2164C106.978 17.4804 106.469 16.9112 105.779 16.5078C105.108 16.0872 104.265 15.8769 103.248 15.8769C101.724 15.8769 100.547 16.3409 99.7134 17.2701C98.8799 18.1809 98.4638 19.3386 98.4638 20.7398C98.4638 21.6689 98.6665 22.5009 99.0734 23.2369C99.466 23.9215 100.053 24.5093 100.78 24.9455C101.517 25.35 102.375 25.5601 103.249 25.5501ZM107.821 14.1421H110.259V27.2849H108.033L107.973 26.8118C107.948 26.4434 107.917 26.0754 107.88 25.7078C107.844 25.3581 107.825 25.0074 107.821 24.6564V14.1421ZM113.655 14.1421H116.277L121.732 26.7592L119.599 27.2849L113.655 14.1421ZM127.828 14.1421L119.324 32.5421H116.673L120.361 25.4449L125.237 14.1421H127.828ZM131.21 14.1421H133.648V27.2849H131.21V14.1421ZM138.89 13.8792C139.703 13.8792 140.434 13.9844 141.085 14.1946C141.735 14.4049 142.284 14.7112 142.731 15.1146C143.177 15.5181 143.523 16.0084 143.767 16.5866C144.011 17.1466 144.133 17.7866 144.133 18.5055V27.2849H141.694V19.0312C141.694 18.0141 141.42 17.2529 140.871 16.7444C140.323 16.2358 139.5 15.9821 138.403 15.9821C137.569 15.9821 136.798 16.1661 136.086 16.5341C135.363 16.9122 134.757 17.4352 134.318 18.0586C133.872 18.6895 133.598 19.4255 133.496 20.2666L133.465 18.7421C133.567 18.0061 133.77 17.3398 134.075 16.7444C134.372 16.1837 134.773 15.6687 135.263 15.2198C135.729 14.7951 136.289 14.4554 136.909 14.2209C137.539 13.9924 138.2 13.8792 138.89 13.8792ZM149.131 13.8792C149.943 13.8792 150.675 13.9844 151.326 14.1946C151.976 14.4049 152.525 14.7112 152.971 15.1146C153.418 15.5181 153.764 16.0084 154.008 16.5866C154.251 17.1466 154.373 17.7866 154.373 18.5055V27.2849H151.935V19.0312C151.935 18.0141 151.661 17.2529 151.112 16.7444C150.564 16.2358 149.741 15.9821 148.643 15.9821C147.81 15.9821 147.039 16.1661 146.327 16.5341C145.604 16.9122 144.998 17.4352 144.559 18.0586C144.113 18.6895 143.838 19.4255 143.736 20.2666L143.706 18.7421C143.808 18.0061 144.011 17.3398 144.315 16.7444C144.613 16.1837 145.014 15.6687 145.504 15.2198C145.97 14.7951 146.529 14.4554 147.15 14.2209C147.779 13.9924 148.441 13.8792 149.131 13.8792ZM169.909 23.0529H172.195C172.044 23.8873 171.668 24.6794 171.098 25.3661C170.529 26.0469 169.776 26.5974 168.904 26.9695C168.009 27.3546 166.973 27.5478 165.795 27.5478C164.372 27.5478 163.092 27.2586 161.955 26.6804C160.823 26.0903 159.888 25.2571 159.242 24.2621C158.591 23.2278 158.267 22.0541 158.267 20.7398C158.267 19.4255 158.581 18.2518 159.211 17.2175C159.828 16.2139 160.743 15.3701 161.863 14.7729C162.98 14.1775 164.24 13.8792 165.642 13.8792C167.125 13.8792 168.375 14.1684 169.391 14.7466C170.428 15.3066 171.19 16.1398 171.677 17.2438C172.185 18.3295 172.389 19.6712 172.287 21.2655H160.705C160.806 22.1238 161.08 22.8769 161.528 23.5261C161.955 24.1573 162.564 24.6825 163.296 25.0506C164.027 25.4015 164.859 25.5764 165.795 25.5764C166.831 25.5764 167.704 25.3478 168.416 24.8929C169.147 24.4198 169.646 23.8072 169.909 23.0529ZM165.734 15.8506C164.474 15.8506 163.418 16.1661 162.564 16.7969C161.711 17.4278 161.141 18.2861 160.857 19.3729H169.788C169.705 18.2164 169.269 17.3398 168.477 16.7444C167.728 16.1562 166.747 15.8366 165.734 15.8506ZM176.225 14.1421H178.663V27.2849H176.225V14.1421ZM183.906 13.8792C184.719 13.8792 185.451 13.9844 186.1 14.1946C186.751 14.4049 187.299 14.7112 187.746 15.1146C188.194 15.5181 188.538 16.0084 188.782 16.5866C189.026 17.1466 189.148 17.7866 189.148 18.5055V27.2849H186.71V19.0312C186.71 18.0141 186.435 17.2529 185.887 16.7444C185.338 16.2358 184.515 15.9821 183.418 15.9821C182.586 15.9821 181.813 16.1661 181.102 16.5341C180.379 16.9125 179.773 17.4354 179.334 18.0586C178.887 18.6895 178.613 19.4255 178.511 20.2666L178.481 18.7421C178.583 18.0061 178.785 17.3398 179.09 16.7444C179.416 16.1489 179.812 15.6404 180.279 15.2198C180.744 14.7951 181.304 14.4554 181.925 14.2209C182.555 13.9924 183.215 13.8792 183.906 13.8792ZM192.831 14.1421H201.791V16.1135H192.831V14.1421ZM196.092 10.7249H198.53V27.2849H196.092V10.7249ZM204.736 23.0529H206.991C207.052 23.8072 207.377 24.4198 207.967 24.8929C208.576 25.3661 209.449 25.6026 210.588 25.6026C211.278 25.6026 211.816 25.5238 212.203 25.3661C212.609 25.2084 212.904 24.9981 213.087 24.7352C213.27 24.4552 213.361 24.1478 213.361 23.8152C213.361 23.4118 213.239 23.0964 212.995 22.8689C212.742 22.6045 212.418 22.397 212.051 22.2644C211.615 22.0904 211.167 21.9411 210.71 21.8175C210.099 21.6177 209.49 21.4162 208.881 21.2129C208.271 20.9844 207.692 20.7215 207.144 20.4244C206.633 20.1254 206.198 19.741 205.864 19.2941C205.538 18.8381 205.376 18.2952 205.376 17.6644C205.376 17.1386 205.498 16.6472 205.742 16.1924C205.978 15.7276 206.332 15.3144 206.778 14.9832C207.254 14.6282 207.801 14.352 208.393 14.1684C209.06 13.9703 209.761 13.8725 210.466 13.8792C211.481 13.8792 212.334 14.0541 213.026 14.4049C213.736 14.7558 214.276 15.2552 214.641 15.9032C215.027 16.5341 215.23 17.2701 215.251 18.1112H213.148C213.005 17.3226 212.711 16.7535 212.264 16.4026C211.837 16.0346 211.217 15.8506 210.405 15.8506C209.571 15.8506 208.931 16.0084 208.485 16.3238C208.037 16.6392 207.814 17.0598 207.814 17.5855C207.814 17.9706 207.976 18.2952 208.302 18.5581C208.626 18.8038 209.043 19.0312 209.551 19.2415C210.079 19.4346 210.638 19.6358 211.228 19.8461C211.816 20.0564 212.386 20.2666 212.935 20.4769C213.483 20.6872 213.971 20.9329 214.398 21.2129C214.824 21.4929 215.159 21.8438 215.403 22.2644C215.667 22.6678 215.8 23.1752 215.8 23.7889C215.8 24.5249 215.595 25.1821 215.19 25.7604C214.803 26.3204 214.224 26.7592 213.453 27.0746C212.7 27.3901 211.776 27.5478 210.679 27.5478C209.683 27.5478 208.829 27.4426 208.119 27.2324C207.485 27.0337 206.897 26.7401 206.382 26.3649C205.947 26.0321 205.577 25.6417 205.284 25.2084C205.054 24.8376 204.889 24.4388 204.797 24.0255C204.718 23.706 204.698 23.3779 204.736 23.0529Z" fill="#2B2B37"/>
</svg>
