<svg width="629" height="209" viewBox="0 0 629 209" fill="none" xmlns="http://www.w3.org/2000/svg">
<path d="M175.658 143.651C174.077 146.03 172.452 148.298 170.799 150.457L170.791 150.465L170.787 150.473C163.661 159.861 155.169 168.132 145.589 175.001C142.356 177.32 138.935 179.36 135.358 181.1C132.528 182.425 130.131 183.184 128.536 183.184C126.934 183.184 124.516 182.421 121.694 181.092L121.69 181.088C118.796 179.731 115.3 177.7 111.467 174.993C101.891 168.124 93.4028 159.857 86.2809 150.473L86.2769 150.465L86.2729 150.457C69.4717 128.507 55.5279 95.2456 61.5427 50.1208V50.1128C61.8344 47.9013 62.7416 45.8216 64.1644 44.1013C65.5871 42.385 67.4614 41.1038 69.5798 40.4054C76.3657 38.1899 87.8795 34.5456 99.2735 31.468H99.2775C110.612 28.3906 122.026 25.816 128.536 25.816C135.046 25.816 146.452 28.3985 157.79 31.4561C167.762 34.1983 177.665 37.176 187.492 40.397C189.61 41.0998 191.485 42.3811 192.908 44.0974C194.33 45.8177 195.237 47.9013 195.529 50.1128V50.1208" stroke="url(#paint0_linear_75_355)" stroke-width="5.85054" stroke-linecap="round" stroke-linejoin="round"/>
<path d="M98.8565 132.615H110.575V82.018H110.762L143.32 132.615H158.208V66.6497H146.477V115.652H146.303L114.327 66.6497H98.8564L98.8565 132.615ZM176.928 113.977C178.547 118.06 181.004 121.76 184.127 124.831C187.26 127.903 191 130.288 195.112 131.824C199.584 133.51 204.326 134.348 209.113 134.301C213.948 134.301 218.747 133.405 223.255 131.649C227.39 130.031 231.153 127.612 234.334 124.518C237.478 121.422 239.948 117.711 241.602 113.617C243.373 109.137 244.235 104.356 244.153 99.5397C244.224 94.6296 243.338 89.7553 241.556 85.1828C239.913 81.0529 237.444 77.3067 234.287 74.1894C231.13 71.1056 227.355 68.7442 223.208 67.2438C218.677 65.6152 213.878 64.8466 209.067 64.9633C204.29 64.9171 199.538 65.754 195.065 67.4415C190.952 69.0008 187.225 71.3968 184.091 74.468C180.935 77.6096 178.465 81.3673 176.823 85.5087C175.088 90.116 174.26 95.0018 174.377 99.9234C174.306 104.74 175.192 109.522 176.974 113.989H176.928L176.928 113.977ZM188.238 89.9414C189.275 87.1604 190.837 84.6245 192.852 82.4492C194.855 80.297 197.279 78.5747 199.98 77.4119C202.917 76.1671 206.084 75.5383 209.265 75.5972C212.457 75.5499 215.625 76.1786 218.573 77.4119C221.287 78.5747 223.733 80.2854 225.736 82.4492C227.74 84.6245 229.313 87.172 230.35 89.9414C231.433 92.8842 231.957 95.9912 231.923 99.1317C231.957 102.459 231.41 105.776 230.291 108.916C229.278 111.766 227.717 114.396 225.678 116.653C223.675 118.84 221.228 120.586 218.514 121.771C215.579 123.039 212.41 123.68 209.207 123.634C206.027 123.68 202.869 123.039 199.945 121.771C197.243 120.573 194.82 118.829 192.828 116.653C190.802 114.407 189.229 111.778 188.215 108.916C187.109 105.776 186.561 102.459 186.596 99.1317C186.573 95.9796 187.12 92.8496 188.227 89.9067L188.238 89.9414ZM272.356 132.615H283.142L298.402 82.3914H298.589L313.907 132.615H325.067L344.229 66.6497H332.324L319.405 114.175H319.219L304.681 66.6497H293.137L278.32 114.175H278.134L265.762 66.6497H252.867L272.356 132.615Z" fill="#00C26F"/>
<path d="M361.662 100.042L369.18 126.472H369.32L378.031 100.042H382.763L391.475 126.472H391.614L399.132 100.042H404.563L394.249 132.593H389.098L380.461 105.884H380.322L371.686 132.593H366.534L356.221 100.042H361.662Z" fill="#1B1C29"/>
<path d="M435.688 115.559C434.526 115.559 433.063 115.624 431.3 115.764C429.579 115.85 427.912 116.129 426.288 116.602C424.707 117.02 423.341 117.697 422.18 118.621C421.061 119.544 420.513 120.822 420.513 122.444C420.513 123.507 420.717 124.442 421.136 125.225C421.599 125.966 422.201 126.59 422.943 127.105C423.685 127.567 424.503 127.921 425.384 128.147C426.31 128.329 427.245 128.426 428.17 128.426C429.837 128.426 431.278 128.147 432.493 127.588C433.752 127.03 434.795 126.289 435.624 125.365C436.462 124.388 437.064 123.281 437.429 122.025C437.849 120.725 438.054 119.362 438.054 117.922V115.559L435.688 115.559ZM438.054 111.801V110.964C438.054 105.358 435.268 102.544 429.697 102.544C425.89 102.544 422.567 103.821 419.739 106.367L416.953 103.102C420.018 99.9449 424.61 98.3765 430.74 98.3765C432.321 98.3765 433.827 98.6126 435.268 99.0742C436.752 99.5359 438.033 100.256 439.097 101.233C440.161 102.156 441.022 103.338 441.678 104.777C442.323 106.216 442.656 107.935 442.656 109.921V124.463C442.656 125.709 442.7 127.041 442.797 128.426C442.937 129.769 443.076 130.885 443.216 131.766H438.753C438.613 130.982 438.495 130.123 438.409 129.189C438.366 128.265 438.344 127.363 438.344 126.483H438.205C436.86 128.662 435.257 130.241 433.397 131.207C431.59 132.131 429.353 132.604 426.708 132.604C425.266 132.604 423.879 132.4 422.524 131.981C421.179 131.605 419.975 131.035 418.899 130.241C417.878 129.404 417.039 128.415 416.393 127.245C415.791 126.041 415.49 124.646 415.49 123.067C415.49 120.425 416.167 118.363 417.512 116.87C418.91 115.345 420.62 114.207 422.664 113.466C424.75 112.724 426.955 112.263 429.278 112.069C431.644 111.887 433.806 111.79 435.753 111.79H438.054V111.801Z" fill="#1B1C29"/>
<path d="M465.531 132.593H460.928V80.0116H465.531V132.593Z" fill="#1B1C29"/>
<path d="M488.88 132.593H484.277V80.0116H488.88V132.593Z" fill="#1B1C29"/>
<path d="M531.941 112.983C531.941 109.878 531.017 107.376 529.156 105.465C527.295 103.521 524.703 102.544 521.348 102.544C519.864 102.544 518.423 102.845 517.035 103.446C515.638 104.004 514.411 104.766 513.347 105.744C512.325 106.721 511.486 107.828 510.841 109.084C510.238 110.329 509.937 111.629 509.937 112.983L531.941 112.983ZM509.798 116.741C509.937 118.363 510.335 119.899 510.981 121.338C511.626 122.777 512.486 124.023 513.562 125.097C514.626 126.118 515.864 126.923 517.25 127.535C518.649 128.136 520.154 128.436 521.778 128.436C524.241 128.436 526.349 127.878 528.113 126.772C529.92 125.612 531.296 124.292 532.222 122.809L535.77 125.73C533.823 128.189 531.662 129.951 529.296 131.014C526.973 132.078 524.467 132.615 521.767 132.615C519.348 132.615 517.1 132.196 515.013 131.368C512.97 130.488 511.207 129.286 509.722 127.749C508.238 126.214 507.055 124.41 506.174 122.326C505.334 120.242 504.926 117.965 504.926 115.506C504.926 113.047 505.345 110.781 506.174 108.687C507.012 106.603 508.173 104.788 509.658 103.263C511.142 101.727 512.884 100.546 514.884 99.7184C516.885 98.8381 519.036 98.398 521.359 98.398C523.822 98.398 526.027 98.8381 527.973 99.7184C529.92 100.6 531.554 101.781 532.845 103.263C534.189 104.702 535.211 106.42 535.91 108.408C536.609 110.352 536.954 112.445 536.954 114.668V116.752H509.798V116.741Z" fill="#1B1C29"/>
<path d="M568.765 103.381H559.365V122.584C559.365 123.787 559.483 124.785 559.721 125.58C559.957 126.322 560.28 126.901 560.699 127.32C561.118 127.739 561.602 128.039 562.161 128.222C562.764 128.361 563.42 128.426 564.119 128.426C564.903 128.426 565.721 128.308 566.56 128.082C567.398 127.846 568.163 127.545 568.861 127.18L569.066 131.422C567.345 132.207 565.281 132.604 562.861 132.604C561.978 132.604 561.054 132.486 560.075 132.26C559.15 132.024 558.29 131.584 557.494 130.939C556.709 130.295 556.053 129.404 555.548 128.297C555.032 127.191 554.784 125.719 554.784 123.916V103.392H547.891V99.2139H554.784V90.032H559.376V99.2139H568.775V103.381H568.765Z" fill="#1B1C29"/>
<defs>
<linearGradient id="paint0_linear_75_355" x1="127.824" y1="21.7401" x2="127.824" y2="187.26" gradientUnits="userSpaceOnUse">
<stop stop-color="#FB9600"/>
<stop offset="0.25" stop-color="#00C26F"/>
<stop offset="0.5052" stop-color="#6696D6"/>
<stop offset="0.776" stop-color="#F28984"/>
<stop offset="0.9999" stop-color="#5FCEF0"/>
<stop offset="1" stop-color="#5FCEF0"/>
</linearGradient>
</defs>
</svg>
