<svg width="115" height="42" viewBox="0 0 115 42" fill="none" xmlns="http://www.w3.org/2000/svg">
<g clip-path="url(#clip0_4730_7908)">
<path d="M38.2442 9.4287C38.2442 4.237 33.9751 0 28.7439 0C26.0381 0 23.5728 1.1338 21.8892 2.9241L0.423188 16.3511C0.00228778 16.5898 -0.117912 17.1866 0.122588 17.6043C0.302988 17.9027 0.603588 18.022 0.904288 18.022C1.08459 18.022 1.20489 17.9623 1.38529 17.9027L19.7246 6.3853C19.3638 7.3401 19.1834 8.3546 19.1834 9.4884C19.1834 11.8754 20.0853 14.0238 21.5284 15.6947L7.09749 29.9571C6.73669 30.3152 6.73669 30.8523 7.09749 31.2103C7.27789 31.3893 7.51839 31.449 7.75889 31.449C7.99949 31.449 8.23999 31.3893 8.42039 31.2103L22.8513 16.9479C24.4747 18.201 26.5191 18.9768 28.6838 18.9768C29.9465 18.9768 31.149 18.7381 32.2314 18.3204L20.7468 36.8198C20.5062 37.2375 20.6265 37.7746 21.0474 38.073C21.1677 38.1923 21.348 38.1923 21.5284 38.1923C21.8291 38.1923 22.1297 38.0133 22.3101 37.7746L36.1397 15.3963C37.4626 13.7254 38.2442 11.6964 38.2442 9.4287ZM24.1741 15.635L28.3831 11.5174C28.7439 11.1593 28.7439 10.6222 28.3831 10.2642C28.0223 9.9061 27.4812 9.9061 27.1204 10.2642L22.8513 14.4415C21.7088 13.1286 20.9873 11.398 20.9873 9.4884C21.0474 5.2514 24.4747 1.7903 28.7439 1.7903C33.013 1.7903 36.4404 5.2514 36.4404 9.4287C36.4404 13.6657 32.9529 17.0672 28.7439 17.0672C27.0603 17.1269 25.4368 16.5301 24.1741 15.635Z" fill="#25B7EB"/>
<path d="M28.7432 3.22253C25.2558 3.22253 22.4297 6.02723 22.4297 9.48843C22.4297 9.96583 22.8506 10.3835 23.3317 10.3835C23.8127 10.3835 24.2336 9.96583 24.2336 9.48843C24.2336 7.04173 26.2178 5.01273 28.7432 5.01273C29.2243 5.01273 29.6452 4.59503 29.6452 4.11763C29.6452 3.64023 29.2243 3.22253 28.7432 3.22253Z" fill="#25B7EB"/>
<path d="M43.9688 39.0781C46.8542 39.0781 48.2969 37.9844 48.2969 35.7969C48.2969 33.7656 47.1068 32.75 44.7266 32.75H43.2891C41.9141 32.75 41.2266 32.151 41.2266 30.9531C41.2266 29.599 42.2422 28.9219 44.2734 28.9219C45.5755 28.9219 46.7865 29.1302 47.9062 29.5469V28.2188C46.7865 27.9062 45.5755 27.75 44.2734 27.75C41.2786 27.75 39.7812 28.8177 39.7812 30.9531C39.7812 32.9844 40.9505 34 43.2891 34H44.7266C46.1432 34 46.8516 34.599 46.8516 35.7969C46.8516 37.2031 45.8906 37.9062 43.9688 37.9062C42.6094 37.9062 41.3438 37.6979 40.1719 37.2812V38.6094C41.3438 38.9219 42.6094 39.0781 43.9688 39.0781ZM52.7812 39L55.0156 32.8672L57.3672 39H58.6875L60.8281 30.7969H59.2969L57.9844 37.2266L55.7031 30.7969H54.3984L52.2656 37.2266L50.8125 30.7969H49.3516L51.4297 39H52.7812ZM68.7969 39V33.3438C68.7969 31.6458 67.5781 30.7969 65.1406 30.7969C64.2969 30.7969 63.4323 30.9271 62.5469 31.1875V32.3594C63.4323 32.099 64.2969 31.9688 65.1406 31.9688C66.6146 31.9688 67.3516 32.4401 67.3516 33.3828V34.1562C66.638 34.0521 65.9245 34 65.2109 34C62.9922 34 61.8828 34.8411 61.8828 36.5234C61.8828 38.1745 62.8594 39 64.8125 39C65.776 39 66.6667 38.7292 67.4844 38.1875L67.9844 39H68.7969ZM64.8125 37.8281C63.8229 37.8281 63.3281 37.3854 63.3281 36.5C63.3281 35.6146 63.9557 35.1719 65.2109 35.1719C65.9245 35.1719 66.638 35.224 67.3516 35.3281V37.0312C66.6589 37.5625 65.8125 37.8281 64.8125 37.8281ZM72.5859 41.9688V38.6094C73.2005 38.8698 73.8359 39 74.4922 39C77.138 39 78.4609 37.5651 78.4609 34.6953C78.4609 32.0964 77.1458 30.7969 74.5156 30.7969C73.3542 30.7969 72.2292 30.9089 71.1406 31.1328V41.9688H72.5859ZM74.4844 37.75C73.7865 37.75 73.1536 37.6094 72.5859 37.3281V32.1875C73.1328 32.0625 73.7708 32 74.5 32C76.1927 32 77.0391 32.8932 77.0391 34.6797C77.0391 36.7266 76.1875 37.75 74.4844 37.75ZM86.4297 39V37.9062H81.6875L86.5859 31.9688V30.7969H80.1797V31.9688H84.9844L80.0234 37.9062V39H86.4297ZM92.0547 38.9922C94.6589 38.9922 95.9609 37.6276 95.9609 34.8984C95.9609 32.1641 94.6589 30.7969 92.0547 30.7969C89.4505 30.7969 88.1484 32.1641 88.1484 34.8984C88.1589 37.6276 89.4609 38.9922 92.0547 38.9922ZM92.0547 37.8281C90.4141 37.8281 89.5938 36.8411 89.5938 34.8672C89.5938 32.9349 90.4141 31.9688 92.0547 31.9688C93.6953 31.9688 94.5156 32.9349 94.5156 34.8672C94.5156 36.8411 93.6953 37.8281 92.0547 37.8281ZM99.3594 39V33.0391C100.104 32.3464 100.891 32 101.719 32C102.932 32 103.539 32.6094 103.539 33.8281V39H104.984V33.8516C104.984 31.8151 103.961 30.7969 101.914 30.7969C100.909 30.7969 99.987 31.1458 99.1484 31.8438L98.8906 30.7969H97.9141V39H99.3594ZM111.164 39C112.201 39 113.081 38.8958 113.805 38.6875V37.5156C113.081 37.724 112.253 37.8281 111.32 37.8281C109.362 37.8281 108.383 36.9896 108.383 35.3125H114.141C114.188 34.9375 114.211 34.5859 114.211 34.2578C114.211 31.9505 113.044 30.7969 110.711 30.7969C108.195 30.7969 106.938 32.1328 106.938 34.8047C106.938 37.6016 108.346 39 111.164 39ZM112.82 34.1094H108.383C108.477 32.6719 109.253 31.9531 110.711 31.9531C112.086 31.9531 112.789 32.6719 112.82 34.1094Z" fill="black"/>
<path d="M43.9688 39.0781C46.8542 39.0781 48.2969 37.9844 48.2969 35.7969C48.2969 33.7656 47.1068 32.75 44.7266 32.75H43.2891C41.9141 32.75 41.2266 32.151 41.2266 30.9531C41.2266 29.599 42.2422 28.9219 44.2734 28.9219C45.5755 28.9219 46.7865 29.1302 47.9062 29.5469V28.2188C46.7865 27.9062 45.5755 27.75 44.2734 27.75C41.2786 27.75 39.7812 28.8177 39.7812 30.9531C39.7812 32.9844 40.9505 34 43.2891 34H44.7266C46.1432 34 46.8516 34.599 46.8516 35.7969C46.8516 37.2031 45.8906 37.9062 43.9688 37.9062C42.6094 37.9062 41.3438 37.6979 40.1719 37.2812V38.6094C41.3438 38.9219 42.6094 39.0781 43.9688 39.0781ZM52.7812 39L55.0156 32.8672L57.3672 39H58.6875L60.8281 30.7969H59.2969L57.9844 37.2266L55.7031 30.7969H54.3984L52.2656 37.2266L50.8125 30.7969H49.3516L51.4297 39H52.7812ZM68.7969 39V33.3438C68.7969 31.6458 67.5781 30.7969 65.1406 30.7969C64.2969 30.7969 63.4323 30.9271 62.5469 31.1875V32.3594C63.4323 32.099 64.2969 31.9688 65.1406 31.9688C66.6146 31.9688 67.3516 32.4401 67.3516 33.3828V34.1562C66.638 34.0521 65.9245 34 65.2109 34C62.9922 34 61.8828 34.8411 61.8828 36.5234C61.8828 38.1745 62.8594 39 64.8125 39C65.776 39 66.6667 38.7292 67.4844 38.1875L67.9844 39H68.7969ZM64.8125 37.8281C63.8229 37.8281 63.3281 37.3854 63.3281 36.5C63.3281 35.6146 63.9557 35.1719 65.2109 35.1719C65.9245 35.1719 66.638 35.224 67.3516 35.3281V37.0312C66.6589 37.5625 65.8125 37.8281 64.8125 37.8281ZM72.5859 41.9688V38.6094C73.2005 38.8698 73.8359 39 74.4922 39C77.138 39 78.4609 37.5651 78.4609 34.6953C78.4609 32.0964 77.1458 30.7969 74.5156 30.7969C73.3542 30.7969 72.2292 30.9089 71.1406 31.1328V41.9688H72.5859ZM74.4844 37.75C73.7865 37.75 73.1536 37.6094 72.5859 37.3281V32.1875C73.1328 32.0625 73.7708 32 74.5 32C76.1927 32 77.0391 32.8932 77.0391 34.6797C77.0391 36.7266 76.1875 37.75 74.4844 37.75ZM86.4297 39V37.9062H81.6875L86.5859 31.9688V30.7969H80.1797V31.9688H84.9844L80.0234 37.9062V39H86.4297ZM92.0547 38.9922C94.6589 38.9922 95.9609 37.6276 95.9609 34.8984C95.9609 32.1641 94.6589 30.7969 92.0547 30.7969C89.4505 30.7969 88.1484 32.1641 88.1484 34.8984C88.1589 37.6276 89.4609 38.9922 92.0547 38.9922ZM92.0547 37.8281C90.4141 37.8281 89.5938 36.8411 89.5938 34.8672C89.5938 32.9349 90.4141 31.9688 92.0547 31.9688C93.6953 31.9688 94.5156 32.9349 94.5156 34.8672C94.5156 36.8411 93.6953 37.8281 92.0547 37.8281ZM99.3594 39V33.0391C100.104 32.3464 100.891 32 101.719 32C102.932 32 103.539 32.6094 103.539 33.8281V39H104.984V33.8516C104.984 31.8151 103.961 30.7969 101.914 30.7969C100.909 30.7969 99.987 31.1458 99.1484 31.8438L98.8906 30.7969H97.9141V39H99.3594ZM111.164 39C112.201 39 113.081 38.8958 113.805 38.6875V37.5156C113.081 37.724 112.253 37.8281 111.32 37.8281C109.362 37.8281 108.383 36.9896 108.383 35.3125H114.141C114.188 34.9375 114.211 34.5859 114.211 34.2578C114.211 31.9505 113.044 30.7969 110.711 30.7969C108.195 30.7969 106.938 32.1328 106.938 34.8047C106.938 37.6016 108.346 39 111.164 39ZM112.82 34.1094H108.383C108.477 32.6719 109.253 31.9531 110.711 31.9531C112.086 31.9531 112.789 32.6719 112.82 34.1094Z" fill="#E8168D"/>
</g>
<defs>
<clipPath id="clip0_4730_7908">
<rect width="115" height="42" fill="white"/>
</clipPath>
</defs>
</svg>
