<svg width="115" height="42" viewBox="0 0 115 42" fill="none" xmlns="http://www.w3.org/2000/svg">
<g clip-path="url(#clip0_21528_34521)">
<path d="M38.2422 9.4287C38.2422 4.237 33.9731 0 28.7419 0C26.0361 0 23.5708 1.1338 21.8872 2.9241L0.421235 16.3511C0.00033465 16.5898 -0.119865 17.1866 0.120635 17.6043C0.301035 17.9027 0.601635 18.022 0.902335 18.022C1.08263 18.022 1.20293 17.9623 1.38333 17.9027L19.7226 6.3853C19.3618 7.3401 19.1814 8.3546 19.1814 9.4884C19.1814 11.8754 20.0833 14.0238 21.5264 15.6947L7.09553 29.9571C6.73473 30.3152 6.73473 30.8523 7.09553 31.2103C7.27593 31.3893 7.51643 31.449 7.75693 31.449C7.99753 31.449 8.23803 31.3893 8.41843 31.2103L22.8493 16.9479C24.4727 18.201 26.5171 18.9768 28.6818 18.9768C29.9445 18.9768 31.147 18.7381 32.2294 18.3204L20.7448 36.8198C20.5042 37.2375 20.6245 37.7746 21.0454 38.073C21.1657 38.1923 21.346 38.1923 21.5264 38.1923C21.8271 38.1923 22.1277 38.0133 22.3081 37.7746L36.1377 15.3963C37.4606 13.7254 38.2422 11.6964 38.2422 9.4287ZM24.1721 15.635L28.3811 11.5174C28.7419 11.1593 28.7419 10.6222 28.3811 10.2642C28.0203 9.9061 27.4792 9.9061 27.1184 10.2642L22.8493 14.4415C21.7068 13.1286 20.9853 11.398 20.9853 9.4884C21.0454 5.2514 24.4727 1.7903 28.7419 1.7903C33.011 1.7903 36.4384 5.2514 36.4384 9.4287C36.4384 13.6657 32.9509 17.0672 28.7419 17.0672C27.0583 17.1269 25.4348 16.5301 24.1721 15.635Z" fill="#25B7EB"/>
<path d="M28.7432 3.22266C25.2558 3.22266 22.4297 6.02736 22.4297 9.48856C22.4297 9.96596 22.8506 10.3837 23.3317 10.3837C23.8127 10.3837 24.2336 9.96596 24.2336 9.48856C24.2336 7.04186 26.2178 5.01286 28.7432 5.01286C29.2243 5.01286 29.6452 4.59516 29.6452 4.11776C29.6452 3.64036 29.2243 3.22266 28.7432 3.22266Z" fill="#25B7EB"/>
<path d="M43.9668 39.0781C46.8522 39.0781 48.2949 37.9844 48.2949 35.7969C48.2949 33.7656 47.1048 32.75 44.7246 32.75H43.2871C41.9121 32.75 41.2246 32.151 41.2246 30.9531C41.2246 29.599 42.2402 28.9219 44.2715 28.9219C45.5736 28.9219 46.7845 29.1302 47.9043 29.5469V28.2188C46.7845 27.9062 45.5736 27.75 44.2715 27.75C41.2767 27.75 39.7793 28.8177 39.7793 30.9531C39.7793 32.9844 40.9486 34 43.2871 34H44.7246C46.1413 34 46.8496 34.599 46.8496 35.7969C46.8496 37.2031 45.8887 37.9062 43.9668 37.9062C42.6074 37.9062 41.3418 37.6979 40.1699 37.2812V38.6094C41.3418 38.9219 42.6074 39.0781 43.9668 39.0781ZM52.7793 39L55.0137 32.8672L57.3652 39H58.6855L60.8262 30.7969H59.2949L57.9824 37.2266L55.7012 30.7969H54.3965L52.2637 37.2266L50.8105 30.7969H49.3496L51.4277 39H52.7793ZM68.7949 39V33.3438C68.7949 31.6458 67.5762 30.7969 65.1387 30.7969C64.2949 30.7969 63.4303 30.9271 62.5449 31.1875V32.3594C63.4303 32.099 64.2949 31.9688 65.1387 31.9688C66.6126 31.9688 67.3496 32.4401 67.3496 33.3828V34.1562C66.6361 34.0521 65.9225 34 65.209 34C62.9902 34 61.8809 34.8411 61.8809 36.5234C61.8809 38.1745 62.8574 39 64.8105 39C65.7741 39 66.6647 38.7292 67.4824 38.1875L67.9824 39H68.7949ZM64.8105 37.8281C63.821 37.8281 63.3262 37.3854 63.3262 36.5C63.3262 35.6146 63.9538 35.1719 65.209 35.1719C65.9225 35.1719 66.6361 35.224 67.3496 35.3281V37.0312C66.6569 37.5625 65.8105 37.8281 64.8105 37.8281ZM72.584 41.9688V38.6094C73.1986 38.8698 73.834 39 74.4902 39C77.1361 39 78.459 37.5651 78.459 34.6953C78.459 32.0964 77.1439 30.7969 74.5137 30.7969C73.3522 30.7969 72.2272 30.9089 71.1387 31.1328V41.9688H72.584ZM74.4824 37.75C73.7845 37.75 73.1517 37.6094 72.584 37.3281V32.1875C73.1309 32.0625 73.7689 32 74.498 32C76.1908 32 77.0371 32.8932 77.0371 34.6797C77.0371 36.7266 76.1855 37.75 74.4824 37.75ZM86.4277 39V37.9062H81.6855L86.584 31.9688V30.7969H80.1777V31.9688H84.9824L80.0215 37.9062V39H86.4277ZM92.0527 38.9922C94.6569 38.9922 95.959 37.6276 95.959 34.8984C95.959 32.1641 94.6569 30.7969 92.0527 30.7969C89.4486 30.7969 88.1465 32.1641 88.1465 34.8984C88.1569 37.6276 89.459 38.9922 92.0527 38.9922ZM92.0527 37.8281C90.4121 37.8281 89.5918 36.8411 89.5918 34.8672C89.5918 32.9349 90.4121 31.9688 92.0527 31.9688C93.6934 31.9688 94.5137 32.9349 94.5137 34.8672C94.5137 36.8411 93.6934 37.8281 92.0527 37.8281ZM99.3574 39V33.0391C100.102 32.3464 100.889 32 101.717 32C102.93 32 103.537 32.6094 103.537 33.8281V39H104.982V33.8516C104.982 31.8151 103.959 30.7969 101.912 30.7969C100.907 30.7969 99.985 31.1458 99.1465 31.8438L98.8887 30.7969H97.9121V39H99.3574ZM111.162 39C112.199 39 113.079 38.8958 113.803 38.6875V37.5156C113.079 37.724 112.251 37.8281 111.318 37.8281C109.36 37.8281 108.381 36.9896 108.381 35.3125H114.139C114.186 34.9375 114.209 34.5859 114.209 34.2578C114.209 31.9505 113.042 30.7969 110.709 30.7969C108.193 30.7969 106.936 32.1328 106.936 34.8047C106.936 37.6016 108.344 39 111.162 39ZM112.818 34.1094H108.381C108.475 32.6719 109.251 31.9531 110.709 31.9531C112.084 31.9531 112.787 32.6719 112.818 34.1094Z" fill="#2B2B37"/>
<path d="M43.9668 39.0781C46.8522 39.0781 48.2949 37.9844 48.2949 35.7969C48.2949 33.7656 47.1048 32.75 44.7246 32.75H43.2871C41.9121 32.75 41.2246 32.151 41.2246 30.9531C41.2246 29.599 42.2402 28.9219 44.2715 28.9219C45.5736 28.9219 46.7845 29.1302 47.9043 29.5469V28.2188C46.7845 27.9062 45.5736 27.75 44.2715 27.75C41.2767 27.75 39.7793 28.8177 39.7793 30.9531C39.7793 32.9844 40.9486 34 43.2871 34H44.7246C46.1413 34 46.8496 34.599 46.8496 35.7969C46.8496 37.2031 45.8887 37.9062 43.9668 37.9062C42.6074 37.9062 41.3418 37.6979 40.1699 37.2812V38.6094C41.3418 38.9219 42.6074 39.0781 43.9668 39.0781ZM52.7793 39L55.0137 32.8672L57.3652 39H58.6855L60.8262 30.7969H59.2949L57.9824 37.2266L55.7012 30.7969H54.3965L52.2637 37.2266L50.8105 30.7969H49.3496L51.4277 39H52.7793ZM68.7949 39V33.3438C68.7949 31.6458 67.5762 30.7969 65.1387 30.7969C64.2949 30.7969 63.4303 30.9271 62.5449 31.1875V32.3594C63.4303 32.099 64.2949 31.9688 65.1387 31.9688C66.6126 31.9688 67.3496 32.4401 67.3496 33.3828V34.1562C66.6361 34.0521 65.9225 34 65.209 34C62.9902 34 61.8809 34.8411 61.8809 36.5234C61.8809 38.1745 62.8574 39 64.8105 39C65.7741 39 66.6647 38.7292 67.4824 38.1875L67.9824 39H68.7949ZM64.8105 37.8281C63.821 37.8281 63.3262 37.3854 63.3262 36.5C63.3262 35.6146 63.9538 35.1719 65.209 35.1719C65.9225 35.1719 66.6361 35.224 67.3496 35.3281V37.0312C66.6569 37.5625 65.8105 37.8281 64.8105 37.8281ZM72.584 41.9688V38.6094C73.1986 38.8698 73.834 39 74.4902 39C77.1361 39 78.459 37.5651 78.459 34.6953C78.459 32.0964 77.1439 30.7969 74.5137 30.7969C73.3522 30.7969 72.2272 30.9089 71.1387 31.1328V41.9688H72.584ZM74.4824 37.75C73.7845 37.75 73.1517 37.6094 72.584 37.3281V32.1875C73.1309 32.0625 73.7689 32 74.498 32C76.1908 32 77.0371 32.8932 77.0371 34.6797C77.0371 36.7266 76.1855 37.75 74.4824 37.75ZM86.4277 39V37.9062H81.6855L86.584 31.9688V30.7969H80.1777V31.9688H84.9824L80.0215 37.9062V39H86.4277ZM92.0527 38.9922C94.6569 38.9922 95.959 37.6276 95.959 34.8984C95.959 32.1641 94.6569 30.7969 92.0527 30.7969C89.4486 30.7969 88.1465 32.1641 88.1465 34.8984C88.1569 37.6276 89.459 38.9922 92.0527 38.9922ZM92.0527 37.8281C90.4121 37.8281 89.5918 36.8411 89.5918 34.8672C89.5918 32.9349 90.4121 31.9688 92.0527 31.9688C93.6934 31.9688 94.5137 32.9349 94.5137 34.8672C94.5137 36.8411 93.6934 37.8281 92.0527 37.8281ZM99.3574 39V33.0391C100.102 32.3464 100.889 32 101.717 32C102.93 32 103.537 32.6094 103.537 33.8281V39H104.982V33.8516C104.982 31.8151 103.959 30.7969 101.912 30.7969C100.907 30.7969 99.985 31.1458 99.1465 31.8438L98.8887 30.7969H97.9121V39H99.3574ZM111.162 39C112.199 39 113.079 38.8958 113.803 38.6875V37.5156C113.079 37.724 112.251 37.8281 111.318 37.8281C109.36 37.8281 108.381 36.9896 108.381 35.3125H114.139C114.186 34.9375 114.209 34.5859 114.209 34.2578C114.209 31.9505 113.042 30.7969 110.709 30.7969C108.193 30.7969 106.936 32.1328 106.936 34.8047C106.936 37.6016 108.344 39 111.162 39ZM112.818 34.1094H108.381C108.475 32.6719 109.251 31.9531 110.709 31.9531C112.084 31.9531 112.787 32.6719 112.818 34.1094Z" fill="#E8168D"/>
</g>
<defs>
<clipPath id="clip0_21528_34521">
<rect width="115" height="42" fill="white" transform="translate(-0.00195312)"/>
</clipPath>
</defs>
</svg>
