<svg xmlns="http://www.w3.org/2000/svg" width="160" height="20" fill="none"><g fill="#fff" clip-path="url(#a)"><path d="M5.667 4.61H.577a.568.568 0 0 1-.534-.36A.587.587 0 0 1 0 4.024V.607A.587.587 0 0 1 .356.066.568.568 0 0 1 .578.022h14.51c.46.001.901.186 1.226.515.325.329.508.774.508 1.24v2.248a.588.588 0 0 1-.168.414.573.573 0 0 1-.41.17h-5.11v14.503a.584.584 0 0 1-.357.542.566.566 0 0 1-.221.043H7.4c-.46 0-.9-.186-1.225-.514a1.767 1.767 0 0 1-.508-1.24V4.61Z"/><path d="m20.668 7.218.022.113c.71-1.282 2-1.844 3.333-1.844a4.935 4.935 0 0 1 3.267 1.17.581.581 0 0 1 .11.719l-1.51 2.765a.568.568 0 0 1-.357.278.557.557 0 0 1-.443-.075 3.057 3.057 0 0 0-1.8-.472c-1.267 0-2.356.787-2.356 2.608v6.633a.584.584 0 0 1-.356.541.568.568 0 0 1-.222.044h-2.822c-.46-.001-.9-.186-1.225-.515a1.767 1.767 0 0 1-.508-1.24V6.387a.588.588 0 0 1 .168-.414.572.572 0 0 1 .41-.17h2.6c.398.007.782.151 1.09.409.306.257.517.612.599 1.007ZM38.711 5.824h2.6c.46 0 .9.185 1.225.514.325.329.508.774.509 1.24v11.534a.585.585 0 0 1-.356.542.567.567 0 0 1-.222.043H39.8a1.728 1.728 0 0 1-1.125-.424 1.766 1.766 0 0 1-.586-1.06c-1.155 1.349-3 1.821-4.533 1.731-4.022-.247-6.267-3.148-6.267-7.195 0-4.092 2.667-7.24 6.667-7.24 1.933 0 3.31.674 4.022 1.799l.178-1.012a.58.58 0 0 1 .194-.337.567.567 0 0 1 .361-.135Zm-6.333 6.925c0 1.934 1.222 3.035 2.755 3.035 1.712 0 2.823-1.394 2.823-3.035 0-1.844-1.023-3.058-2.823-3.058-1.533 0-2.755 1.124-2.755 3.058ZM50.78 9.69l1.466 4.498 1.378-4.497 1.333-3.508a.56.56 0 0 1 .534-.36h2.444a1.734 1.734 0 0 1 1.433.772 1.762 1.762 0 0 1 .167 1.634l-4.533 11.175a.56.56 0 0 1-.534.36h-3.555a1.77 1.77 0 0 1-.952-.293 1.8 1.8 0 0 1-.648-.764L44.202 6.61a.59.59 0 0 1 .26-.74.57.57 0 0 1 .273-.069h4.156a.55.55 0 0 1 .533.36l1.355 3.53ZM71.489 5.869h2.6c.459 0 .9.185 1.225.514.324.329.507.774.508 1.24v11.534a.583.583 0 0 1-.356.541.567.567 0 0 1-.222.044h-2.666a1.729 1.729 0 0 1-1.125-.424 1.767 1.767 0 0 1-.587-1.06c-1.155 1.349-3 1.821-4.533 1.731-4.022-.247-6.267-3.148-6.267-7.195 0-4.092 2.667-7.24 6.667-7.24 1.933 0 3.311.674 4.022 1.799l.178-1.012a.578.578 0 0 1 .556-.473Zm-6.334 6.947c0 1.934 1.222 3.036 2.756 3.036 1.711 0 2.822-1.394 2.822-3.036 0-1.843-1.022-3.058-2.822-3.058-1.534 0-2.756 1.125-2.756 3.058ZM83.334 1.754v17.358a.583.583 0 0 1-.356.542.565.565 0 0 1-.221.043H80c-.46 0-.9-.185-1.225-.514a1.766 1.766 0 0 1-.508-1.24V.585a.583.583 0 0 1 .356-.542.566.566 0 0 1 .221-.043h2.756c.46 0 .9.186 1.225.514.325.33.508.775.508 1.24ZM96.512 5.846h2.6c.46 0 .9.186 1.225.514.325.33.508.775.508 1.24v11.535a.575.575 0 0 1-.168.414.569.569 0 0 1-.409.17h-2.667a1.73 1.73 0 0 1-1.125-.424 1.768 1.768 0 0 1-.586-1.06c-1.156 1.35-3 1.822-4.534 1.732-4.022-.248-6.266-3.148-6.266-7.195 0-4.093 2.666-7.24 6.666-7.24 1.934 0 3.312.674 4.023 1.798l.178-1.012a.55.55 0 0 1 .556-.472Zm-6.333 6.925c0 1.934 1.222 3.036 2.755 3.036 1.711 0 2.823-1.394 2.823-3.036 0-1.843-1.023-3.058-2.823-3.058-1.533 0-2.755 1.125-2.755 3.059ZM104.955 14.684c3.711 0 3.689 5.081 0 5.081-3.623-.022-3.689-5.081 0-5.081ZM120.954 16.842a.792.792 0 0 1 .206.593.792.792 0 0 1-.295.553 8.22 8.22 0 0 1-5 1.8c-4 0-7.756-2.002-7.756-7.174 0-5.036 3.823-7.262 7.667-7.262a7.768 7.768 0 0 1 3.867 1.011 1.55 1.55 0 0 1 .753 1.116 1.556 1.556 0 0 1-.398 1.29l-1.066 1.17a.773.773 0 0 1-1.023.09 3.089 3.089 0 0 0-1.844-.563c-1.933 0-3 1.44-3 3.17 0 1.507 1.022 2.856 2.955 2.856a3.268 3.268 0 0 0 1.645-.427 1.503 1.503 0 0 1 1.844.293l1.445 1.484ZM137.088 12.614c0 5.037-3.956 7.24-7.822 7.24-3.934 0-7.823-2.18-7.823-7.24 0-5.126 3.845-7.262 7.823-7.262 4.044 0 7.822 2.226 7.822 7.262Zm-5 0c0-1.596-1.022-3.035-2.822-3.035s-2.823 1.439-2.823 3.035c0 1.597 1.023 3.013 2.823 3.013 1.711 0 2.822-1.326 2.822-3.013ZM148.621 19.516a1.922 1.922 0 0 1-1.366-.573 1.97 1.97 0 0 1-.567-1.383V11.85c0-1.597-.533-2.136-1.444-2.136-.867 0-1.778.697-1.8 2.226v6.88a.728.728 0 0 1-.206.512.696.696 0 0 1-.505.208h-2.423a1.921 1.921 0 0 1-1.366-.574 1.966 1.966 0 0 1-.567-1.383V6.386a.71.71 0 0 1 .711-.72h2.067c.431-.003.85.143 1.189.412.34.27.578.648.677 1.072.867-1.214 2.356-1.798 3.778-1.776 1.378.023 2.711.675 3.4 1.956 1.134-1.439 2.667-2 4.556-2 2.955 0 5.244 1.843 5.244 6.452v6.993a.692.692 0 0 1-.052.277.696.696 0 0 1-.659.443h-2.467a1.922 1.922 0 0 1-1.366-.573 1.97 1.97 0 0 1-.567-1.383v-5.69c0-1.46-.667-2.045-1.422-2.045-.867 0-1.778.584-1.778 2.113v6.903a.692.692 0 0 1-.052.277.696.696 0 0 1-.386.39.69.69 0 0 1-.273.053h-2.356v-.023Z"/></g><defs><clipPath id="a"><path fill="#fff" d="M0 0h160v20H0z"/></clipPath></defs></svg>