<svg width="125" height="42" viewBox="0 0 125 42" fill="none" xmlns="http://www.w3.org/2000/svg">
<g clip-path="url(#clip0_21528_34462)">
<path d="M10.6741 6C6.42512 6 2.98649 9.33056 2.98649 13.446V16.2367C1.49441 16.4983 -0.00195312 16.8472 -0.00195312 17.2998V31.8638C-0.00195312 31.8638 -0.00195312 32.2666 0.465393 32.4576C2.15899 33.1221 8.82188 35.4061 10.3525 35.9294C10.5498 36 10.6055 36 10.657 36C10.7299 36 10.7642 36 10.9614 35.9294C12.492 35.4061 19.1721 33.1221 20.8657 32.4576C21.2987 32.2832 21.3159 31.8804 21.3159 31.8804V17.2998C21.3159 16.8472 19.841 16.4817 18.3446 16.2367V13.446C18.366 9.33056 14.9059 6 10.6741 6ZM10.6741 9.55897C13.1781 9.55897 14.6916 11.0249 14.6916 13.4502V15.8754C11.8832 15.6844 9.48645 15.6844 6.66094 15.8754V13.4502C6.66094 11.0208 8.17445 9.55897 10.6741 9.55897ZM10.657 19.4468C14.1513 19.4468 17.084 19.7085 17.084 20.1777V29.2641C17.084 29.4053 17.0669 29.4219 16.9383 29.4718C16.8139 29.5257 10.9785 31.5648 10.9785 31.5648C10.9785 31.5648 10.7427 31.6354 10.6741 31.6354C10.6012 31.6354 10.3697 31.5482 10.3697 31.5482C10.3697 31.5482 4.5343 29.5091 4.40996 29.4551C4.28562 29.4012 4.26419 29.3846 4.26419 29.2475V20.1611C4.22988 19.6919 7.16259 19.4468 10.657 19.4468Z" fill="#2B2B37"/>
<path d="M33.4249 31.9602V20.4606H29.082V16.3369H42.6226V20.4606H38.3224V31.9602H33.4249Z" fill="#2B2B37"/>
<path d="M53.5943 31.9602L51.366 27.0475H49.5928V31.9602H44.6953V16.3369H53.3146C57.0979 16.3369 59.1271 18.7634 59.1271 21.6899C59.1271 24.3871 57.5152 25.8136 56.2208 26.4283L59.1461 31.9556H53.5943V31.9602ZM54.1727 21.6899C54.1727 20.8413 53.3952 20.4744 52.5797 20.4744H49.5928V22.9422H52.5797C53.3952 22.9238 54.1727 22.5569 54.1727 21.6899Z" fill="#2B2B37"/>
<path d="M61.6953 31.9611V16.3379H73.9415V20.4616H66.5739V22.0028H73.7614V26.1265H66.5739V27.842H73.9415V31.9611H61.6953Z" fill="#2B2B37"/>
<path d="M76.4883 31.9788V28.222L82.6421 20.4792H76.4883V16.3555H89.0899V20.0755L82.9171 27.8596H89.2701V31.9833L76.4883 31.9788Z" fill="#2B2B37"/>
<path d="M90.4648 24.1764C90.4648 19.3784 94.3099 16.085 99.307 16.085C104.285 16.085 108.149 19.3601 108.149 24.1764C108.149 28.9744 104.304 32.2495 99.307 32.2495C94.3099 32.2495 90.4648 28.9744 90.4648 24.1764ZM103.171 24.1764C103.171 21.9976 101.64 20.2637 99.2881 20.2637C96.9365 20.2637 95.4051 21.9976 95.4051 24.1764C95.4051 26.3552 96.9365 28.0891 99.2881 28.0891C101.659 28.0891 103.171 26.3552 103.171 24.1764Z" fill="#2B2B37"/>
<path d="M119.098 31.9788L116.87 27.0661H115.097V31.9788H110.199V16.3555H118.819C122.602 16.3555 124.631 18.782 124.631 21.7085C124.631 24.4057 123.019 25.8322 121.725 26.4469L124.65 31.9742H119.098V31.9788ZM119.696 21.6901C119.696 20.8416 118.918 20.4746 118.103 20.4746H115.116V22.9424H118.103C118.923 22.9241 119.696 22.5571 119.696 21.6901Z" fill="#2B2B37"/>
</g>
<defs>
<clipPath id="clip0_21528_34462">
<rect width="125" height="42" fill="white" transform="translate(-0.00195312)"/>
</clipPath>
</defs>
</svg>
