<svg width="145" height="42" viewBox="0 0 145 42" fill="none" xmlns="http://www.w3.org/2000/svg">
<mask id="mask0_21528_34472" style="mask-type:luminance" maskUnits="userSpaceOnUse" x="-1" y="2" width="146" height="38">
<path d="M144.523 2H-0.00195312V40H144.523V2Z" fill="white"/>
</mask>
<g mask="url(#mask0_21528_34472)">
<path d="M6.1004 2.03906H32.3234C35.6149 2.03906 38.2832 4.69743 38.2832 7.97656V34.1016C38.2832 37.3807 35.6149 40.0391 32.3234 40.0391H6.1004C2.80897 40.0391 0.140625 37.3807 0.140625 34.1016V7.97656C0.140774 4.69743 2.80897 2.03906 6.1004 2.03906Z" fill="#2F2F2F"/>
<path d="M6.1004 2.03906H32.3234C35.6149 2.03906 38.2832 4.69743 38.2832 7.97656V34.1016C38.2832 37.3807 35.6149 40.0391 32.3234 40.0391H6.1004C2.80897 40.0391 0.140625 37.3807 0.140625 34.1016V7.97656C0.140774 4.69743 2.80897 2.03906 6.1004 2.03906Z" fill="url(#paint0_linear_21528_34472)"/>
<path d="M22.2385 16.4101L17.9648 16.3088L26.1318 8.95738C26.5493 8.5416 27.2349 8.56921 27.6149 9.02225L29.3391 11.0543C29.5061 11.3959 29.4687 11.7934 29.2462 12.0979L26.5671 15.7183C25.5575 17.0844 23.9352 16.4379 22.2385 16.4101Z" fill="#FFD500"/>
<path d="M22.2385 16.4101L17.9648 16.3088L26.1318 8.95738C26.5493 8.5416 27.2349 8.56921 27.6149 9.02225L29.3391 11.0543C29.5061 11.3959 29.4687 11.7934 29.2462 12.0979L26.5671 15.7183C25.5575 17.0844 23.9352 16.4379 22.2385 16.4101Z" fill="url(#paint1_linear_21528_34472)"/>
<path d="M21.7396 31.2502L18.5412 34.0486C17.8924 34.6213 16.8633 34.1594 16.8633 33.2912V16.1133L21.5631 19.0041C21.8598 19.1887 22.0356 19.5119 22.0451 19.8541L22.0824 30.4838C22.0823 30.7884 21.9621 31.0656 21.7396 31.2502Z" fill="#1389EA"/>
<path d="M21.7396 31.2502L18.5412 34.0486C17.8924 34.6213 16.8633 34.1594 16.8633 33.2912V16.1133L21.5631 19.0041C21.8598 19.1887 22.0356 19.5119 22.0451 19.8541L22.0824 30.4838C22.0823 30.7884 21.9621 31.0656 21.7396 31.2502Z" fill="url(#paint2_linear_21528_34472)"/>
<path d="M22.045 25.8017V19.8542C22.045 19.5127 21.8687 19.1983 21.5815 19.0136L12.5428 13.1953L10.068 16.5108C9.72519 16.9726 9.83643 17.6286 10.3184 17.9423L22.045 25.8017Z" fill="#FFD500"/>
<path d="M22.045 25.8017V19.8542C22.045 19.5127 21.8687 19.1983 21.5815 19.0136L12.5428 13.1953L10.068 16.5108C9.72519 16.9726 9.83643 17.6286 10.3184 17.9423L22.045 25.8017Z" fill="url(#paint3_linear_21528_34472)"/>
<path d="M25.1037 17.0836H10.318C9.93787 17.0836 9.80825 16.8341 10.0308 16.5298L13.0344 12.3094C13.2198 12.0417 13.5353 11.8848 13.8597 11.8848H29.1279C29.2297 11.8848 29.4062 11.8848 29.3411 11.9679L25.9202 16.669C25.7247 16.9357 25.4281 17.0836 25.1037 17.0836Z" fill="#1389EA"/>
<path d="M25.1037 17.0836H10.318C9.93787 17.0836 9.80825 16.8341 10.0308 16.5298L13.0344 12.3094C13.2198 12.0417 13.5353 11.8848 13.8597 11.8848H29.1279C29.2297 11.8848 29.4062 11.8848 29.3411 11.9679L25.9202 16.669C25.7247 16.9357 25.4281 17.0836 25.1037 17.0836Z" fill="url(#paint4_linear_21528_34472)"/>
<path d="M25.1037 17.0836H10.318C9.93787 17.0836 9.80825 16.8341 10.0308 16.5298L13.0344 12.3094C13.2198 12.0417 13.5353 11.8848 13.8597 11.8848H29.1279C29.2297 11.8848 29.4062 11.8848 29.3411 11.9679L25.9202 16.669C25.7247 16.9357 25.4281 17.0836 25.1037 17.0836Z" fill="url(#paint5_linear_21528_34472)"/>
<path d="M23.5391 21.891V19.8184H24.4573C24.6416 19.8184 24.7995 19.8473 24.9315 19.9058C25.0631 19.9638 25.1647 20.0483 25.2363 20.1589C25.3077 20.2695 25.3431 20.4016 25.3431 20.5555C25.3431 20.7075 25.3075 20.8386 25.2363 20.9481C25.1647 21.0575 25.0631 21.1424 24.9315 21.2027C24.7995 21.2629 24.6416 21.2931 24.4573 21.2931H23.756L23.9254 21.1154V21.8914L23.5391 21.891ZM23.9254 21.1565L23.756 20.967H24.4396C24.6099 20.967 24.7382 20.931 24.8244 20.8591C24.9107 20.787 24.9536 20.6857 24.9536 20.5553C24.9536 20.4253 24.9107 20.3239 24.8244 20.252C24.7382 20.1799 24.6099 20.1441 24.4396 20.1441H23.756L23.9254 19.9544V21.1565Z" fill="#F7F7F7"/>
<path d="M23.5391 24.852V22.7793H23.9254V24.437H25.3612V24.852H23.5391Z" fill="#F7F7F7"/>
<path d="M24.4485 27.8427C24.165 27.8427 23.9428 27.7626 23.7812 27.6028C23.6196 27.4426 23.5391 27.2109 23.5391 26.9069V25.7402H23.9256V26.8947C23.9256 27.1081 23.9716 27.263 24.0637 27.3597C24.1559 27.4566 24.2862 27.5047 24.4546 27.5047C24.6232 27.5047 24.7528 27.4566 24.8441 27.3597C24.9352 27.263 24.9809 27.1081 24.9809 26.8947V25.7402H25.3613V26.9069C25.3613 27.2109 25.2805 27.4428 25.1188 27.6028C24.9572 27.7626 24.7338 27.8427 24.4485 27.8427Z" fill="#F7F7F7"/>
<path d="M24.4414 30.8043C24.2791 30.8043 24.1239 30.7809 23.9765 30.7346C23.8288 30.6882 23.7103 30.6284 23.6211 30.5554L23.7548 30.2564C23.8382 30.3215 23.9413 30.3758 24.0639 30.4191C24.1868 30.4628 24.3126 30.4844 24.4413 30.4844C24.5502 30.4844 24.6386 30.4727 24.7059 30.4488C24.7732 30.4253 24.8227 30.393 24.8545 30.3526C24.8862 30.3122 24.902 30.2664 24.902 30.2148C24.902 30.1517 24.8792 30.101 24.8336 30.0624C24.788 30.0238 24.7292 29.9934 24.6569 29.9707C24.5845 29.948 24.5043 29.9274 24.416 29.9082C24.3279 29.8895 24.2395 29.8663 24.1515 29.8387C24.0635 29.8111 23.9826 29.7759 23.9094 29.7337C23.8361 29.6911 23.7771 29.6345 23.7324 29.5632C23.6878 29.4924 23.6655 29.4013 23.6655 29.2907C23.6655 29.1783 23.6957 29.0751 23.7562 28.9815C23.8167 28.8875 23.9088 28.8126 24.0327 28.7563C24.1567 28.7001 24.3136 28.6719 24.5039 28.6719C24.6286 28.6719 24.7526 28.6876 24.8755 28.7192C24.9983 28.7508 25.1054 28.7964 25.1965 28.8555L25.0745 29.1544C24.9814 29.0994 24.8854 29.0582 24.7862 29.0318C24.687 29.0049 24.592 28.9917 24.5009 28.9917C24.3959 28.9917 24.3096 29.0047 24.2422 29.0303C24.1747 29.056 24.1257 29.0899 24.0952 29.1325C24.0643 29.1751 24.0491 29.2217 24.0491 29.2731C24.0491 29.3364 24.0715 29.3871 24.1161 29.4256C24.1604 29.4643 24.2188 29.4943 24.2913 29.516C24.3635 29.5377 24.4443 29.5586 24.5334 29.5781C24.6226 29.598 24.7107 29.621 24.798 29.6478C24.8851 29.6743 24.9653 29.7091 25.0388 29.7515C25.1119 29.7941 25.1709 29.8503 25.2155 29.9203C25.26 29.9906 25.2823 30.0798 25.2823 30.1882C25.2823 30.2991 25.2521 30.4012 25.1916 30.4948C25.1312 30.5885 25.0386 30.6637 24.9137 30.72C24.7892 30.7761 24.6317 30.8043 24.4414 30.8043Z" fill="#F7F7F7"/>
<path d="M51.9018 28.6713V17.4623H47.4648V14.8574H59.5479V17.4623H55.1108V28.6713H51.9018Z" fill="#2B2B37"/>
<path d="M61.6641 28.6713V14.8574H67.666C68.9071 14.8574 69.9768 15.0581 70.8749 15.4593C71.7727 15.8609 72.4658 16.4362 72.9546 17.1861C73.443 17.936 73.6875 18.8241 73.6875 19.8502C73.6875 20.8896 73.443 21.781 72.9546 22.5241C72.4658 23.2676 71.7727 23.8333 70.8749 24.2213C69.9768 24.6095 68.9071 24.8034 67.666 24.8034H63.4271L64.8929 23.4221V28.6713H61.6641ZM64.8929 23.7771L63.4271 22.2578H67.4878C68.4649 22.2578 69.2044 22.0474 69.7063 21.6262C70.208 21.2053 70.4591 20.6134 70.4591 19.8502C70.4591 19.0875 70.208 18.4985 69.7063 18.084C69.2044 17.6696 68.4649 17.4623 67.4878 17.4623H63.4271L64.8929 15.9428V23.7771ZM70.4985 28.6713L67.0123 23.6587H70.4591L73.9452 28.6713H70.4985Z" fill="#2B2B37"/>
<path d="M82.7812 28.9081C80.8138 28.9081 79.275 28.3622 78.1658 27.27C77.0565 26.1783 76.502 24.6129 76.502 22.5733V14.8574H79.7306V22.4944C79.7306 23.7968 80.0008 24.7411 80.5428 25.3263C81.084 25.9117 81.8367 26.2045 82.801 26.2045C83.7779 26.2045 84.537 25.9117 85.079 25.3263C85.6202 24.7411 85.8911 23.7968 85.8911 22.4944V14.8574H89.0407V22.5733C89.0407 24.6127 88.4861 26.1782 87.3768 27.27C86.2675 28.3624 84.7359 28.9081 82.7812 28.9081Z" fill="#2B2B37"/>
<path d="M97.2024 28.9086C96.0931 28.9086 95.0266 28.7607 94.0037 28.4647C92.98 28.1686 92.1583 27.7837 91.5371 27.3102L92.6266 24.9025C93.2074 25.3239 93.9078 25.6691 94.7263 25.9385C95.5448 26.2082 96.3704 26.3431 97.2024 26.3431C97.8363 26.3431 98.3481 26.2776 98.738 26.1459C99.127 26.0144 99.4147 25.8398 99.5993 25.623C99.7839 25.4058 99.8766 25.1527 99.8766 24.8633C99.8766 24.4952 99.7308 24.2021 99.4408 23.9851C99.15 23.7679 98.7641 23.5904 98.2824 23.4522C97.7998 23.314 97.2753 23.1828 96.7072 23.0575C96.1391 22.9326 95.5686 22.7813 94.9941 22.6035C94.4197 22.4259 93.8912 22.1891 93.4094 21.8932C92.9269 21.5972 92.5442 21.2093 92.2605 20.729C91.9761 20.2489 91.8342 19.647 91.8342 18.9232C91.8342 18.1338 92.0458 17.4136 92.4681 16.7622C92.8912 16.1111 93.5346 15.5915 94.3999 15.2032C95.2643 14.8154 96.3506 14.6211 97.658 14.6211C98.5296 14.6211 99.3917 14.7265 100.243 14.9368C101.095 15.1472 101.838 15.45 102.472 15.8445L101.461 18.2522C100.841 17.8969 100.2 17.6305 99.5398 17.453C98.8798 17.2752 98.2459 17.1865 97.6382 17.1865C97.0043 17.1865 96.4964 17.2555 96.1129 17.3937C95.7302 17.5319 95.4497 17.7193 95.2715 17.9561C95.0932 18.1929 95.0044 18.4562 95.0044 18.7455C95.0044 19.114 95.1494 19.41 95.4402 19.6335C95.7302 19.8573 96.1129 20.0316 96.5891 20.1564C97.0637 20.2816 97.5922 20.4066 98.1738 20.5314C98.7538 20.6565 99.3291 20.8111 99.8964 20.9951C100.465 21.1795 100.986 21.4128 101.461 21.6956C101.937 21.9785 102.323 22.3601 102.62 22.8402C102.918 23.3206 103.066 23.9157 103.066 24.626C103.066 25.4024 102.851 26.1129 102.422 26.7573C101.993 27.4022 101.342 27.9216 100.471 28.3164C99.5993 28.7112 98.5098 28.9086 97.2024 28.9086Z" fill="#2B2B37"/>
<path d="M108.334 28.6713V17.4623H103.896V14.8574H115.98V17.4623H111.543V28.6713H108.334Z" fill="#2B2B37"/>
<path d="M121.289 26.1067H128.836V28.6721H118.1V14.8584H128.578V17.4239H121.289V26.1067ZM121.051 20.4037H127.727V22.9098H121.051V20.4037Z" fill="#2B2B37"/>
<path d="M134.974 26.1057H142.521V28.6711H131.785V14.8574H142.264V17.4229H134.974V26.1057ZM134.737 20.4027H141.412V22.9088H134.737V20.4027Z" fill="#2B2B37"/>
</g>
<defs>
<linearGradient id="paint0_linear_21528_34472" x1="19.2119" y1="40.0391" x2="19.2119" y2="2.03906" gradientUnits="userSpaceOnUse">
<stop stop-opacity="0"/>
<stop offset="1" stop-color="#F7F7F7" stop-opacity="0.2"/>
</linearGradient>
<linearGradient id="paint1_linear_21528_34472" x1="23.6423" y1="12.3939" x2="23.5178" y2="9.33898" gradientUnits="userSpaceOnUse">
<stop stop-opacity="0.3"/>
<stop offset="1" stop-color="#FFD500" stop-opacity="0"/>
</linearGradient>
<linearGradient id="paint2_linear_21528_34472" x1="18.0948" y1="34.127" x2="19.6542" y2="21.8216" gradientUnits="userSpaceOnUse">
<stop stop-color="#1389EA" stop-opacity="0"/>
<stop offset="0.7934" stop-opacity="0.2"/>
</linearGradient>
<linearGradient id="paint3_linear_21528_34472" x1="12.7885" y1="15.9186" x2="22.2106" y2="23.6019" gradientUnits="userSpaceOnUse">
<stop offset="0.147" stop-opacity="0.3"/>
<stop offset="1" stop-color="#FFD500" stop-opacity="0"/>
</linearGradient>
<linearGradient id="paint4_linear_21528_34472" x1="18.6673" y1="14.4842" x2="9.70801" y2="14.4842" gradientUnits="userSpaceOnUse">
<stop offset="3.40978e-07" stop-color="#1389EA" stop-opacity="0"/>
<stop offset="1" stop-opacity="0.2"/>
</linearGradient>
<linearGradient id="paint5_linear_21528_34472" x1="19.5163" y1="14.4842" x2="28.4755" y2="14.4842" gradientUnits="userSpaceOnUse">
<stop offset="0.1579" stop-color="#1389EA" stop-opacity="0"/>
<stop offset="1" stop-opacity="0.2"/>
</linearGradient>
</defs>
</svg>
