<svg xmlns="http://www.w3.org/2000/svg" width="168" height="52" fill="none"><path fill="url(#a)" fill-rule="evenodd" d="M22.764 2.56c-1.843 0-5.26.757-8.85 1.732l-.028.008c-3.536.956-7.113 2.089-9.23 2.78a2.446 2.446 0 0 0-1.653 2.005c-1.837 13.803 2.42 23.918 7.512 30.577l.033.045a35.739 35.739 0 0 0 7.606 7.401h.002c.953.686 1.963 1.29 3.02 1.803l.075.038c.472.25.983.413 1.512.483a4.478 4.478 0 0 0 1.578-.517 20.8 20.8 0 0 0 3.026-1.806l.75 1.04-.75-1.039a35.732 35.732 0 0 0 7.663-7.474c.496-.646.981-1.328 1.457-2.044a1.282 1.282 0 0 1 1.316-.548 1.286 1.286 0 0 1 1.011 1.002 1.277 1.277 0 0 1-.188.962 39.782 39.782 0 0 1-1.572 2.204l-.003.004a38.302 38.302 0 0 1-8.184 7.972 23.372 23.372 0 0 1-3.378 2.018 7.051 7.051 0 0 1-2.596.787 1.29 1.29 0 0 1-.259 0 7.041 7.041 0 0 1-2.617-.798 23 23 0 0 1-3.364-2.01 38.307 38.307 0 0 1-8.207-8.007C3.006 34.048-1.47 23.286.455 8.775l.003-.027a4.994 4.994 0 0 1 1.105-2.536A5.013 5.013 0 0 1 3.85 4.649l.005-.002c2.14-.698 5.778-1.851 9.386-2.827l.027-.006C16.788.858 20.525 0 22.764 0c2.244 0 5.993.865 9.518 1.816l.006.002c3.15.867 6.28 1.81 9.384 2.827l.005.001a5.016 5.016 0 0 1 2.287 1.565c.6.725.983 1.605 1.104 2.537.008.056.01.111.01.166v.002a1.278 1.278 0 0 1-1.214 1.281 1.285 1.285 0 0 1-1.345-1.143 2.441 2.441 0 0 0-1.65-1.977 202.188 202.188 0 0 0-9.26-2.79c-3.592-.968-7.003-1.726-8.845-1.726Z" clip-rule="evenodd"/><path fill="url(#b)" d="M13.447 34.63h3.679V18.885h.058l10.221 15.745h4.675V14.1h-3.682v15.25h-.056L18.304 14.101h-4.857v20.53Zm24.51-5.8a9.739 9.739 0 0 0 2.257 3.375 9.877 9.877 0 0 0 3.45 2.179c1.405.525 2.896.786 4.397.771 1.52 0 3.024-.28 4.44-.825a10.447 10.447 0 0 0 3.478-2.22 10.021 10.021 0 0 0 2.282-3.392c.555-1.394.827-2.883.8-4.38a11.743 11.743 0 0 0-.815-4.468 9.995 9.995 0 0 0-2.283-3.422 9.707 9.707 0 0 0-3.476-2.162 12.352 12.352 0 0 0-4.441-.709 12.221 12.221 0 0 0-4.396.771 9.985 9.985 0 0 0-3.445 2.187 10.087 10.087 0 0 0-2.281 3.435 11.818 11.818 0 0 0-.768 4.487 11.275 11.275 0 0 0 .815 4.377h-.014v-.004Zm3.55-7.48a7.035 7.035 0 0 1 1.449-2.33 6.655 6.655 0 0 1 2.238-1.569 7.192 7.192 0 0 1 2.915-.565 7.35 7.35 0 0 1 2.922.565c.853.36 1.618.894 2.249 1.568a7.136 7.136 0 0 1 1.448 2.331c.34.916.506 1.885.494 2.86a8.735 8.735 0 0 1-.513 3.045 7.164 7.164 0 0 1-1.448 2.408 6.68 6.68 0 0 1-2.249 1.593 7.615 7.615 0 0 1-5.83 0 6.728 6.728 0 0 1-2.233-1.594 7.155 7.155 0 0 1-1.45-2.407 8.82 8.82 0 0 1-.507-3.045 7.93 7.93 0 0 1 .512-2.87l.004.01Zm26.408 13.28h3.387L76.092 19h.06l4.808 15.63h3.504L90.48 14.1h-3.739l-4.055 14.791h-.058l-4.565-14.79H74.44l-4.652 14.79h-.059l-3.884-14.79h-4.048l6.12 20.529-.002-.001Z"/><path fill="#2B2B37" d="M99.34 34.594c-1.002 0-1.864-.234-2.589-.701-.723-.468-1.28-1.112-1.67-1.933-.39-.82-.584-1.758-.584-2.812 0-1.072.2-2.02.599-2.84.403-.825.964-1.47 1.683-1.932.724-.467 1.569-.7 2.533-.7.752 0 1.429.136 2.033.412.582.259 1.091.655 1.482 1.154.384.496.623 1.073.717 1.733h-1.643c-.125-.48-.404-.908-.835-1.279-.427-.376-1.002-.564-1.726-.564-.64 0-1.201.165-1.683.495-.479.326-.852.787-1.121 1.383-.265.591-.396 1.285-.396 2.083 0 .816.13 1.526.39 2.132.264.605.635 1.074 1.112 1.41.483.334 1.05.5 1.698.5.427 0 .815-.073 1.162-.219.348-.146.643-.358.884-.632.242-.276.413-.606.515-.991h1.643a3.758 3.758 0 0 1-.689 1.685 3.85 3.85 0 0 1-1.441 1.183c-.594.289-1.285.433-2.074.433Zm13.462-4.539v-6.243h1.642v10.561h-1.642v-1.787h-.111a3.484 3.484 0 0 1-1.169 1.369c-.529.37-1.198.556-2.004.556-.668 0-1.262-.144-1.781-.433-.521-.293-.929-.733-1.225-1.32-.297-.591-.446-1.336-.446-2.234v-6.712h1.642v6.601c0 .77.218 1.384.654 1.842.441.46 1.003.688 1.685.688.408 0 .822-.103 1.245-.308a2.712 2.712 0 0 0 1.072-.95c.292-.426.438-.97.438-1.63Zm12.344-3.878-1.476.413a2.701 2.701 0 0 0-.41-.707 1.988 1.988 0 0 0-.724-.579c-.306-.151-.698-.226-1.176-.226-.654 0-1.199.149-1.635.447-.432.292-.647.666-.647 1.12 0 .403.148.722.445.956.296.234.76.429 1.392.584l1.587.386c.955.228 1.667.579 2.136 1.051.468.468.702 1.07.702 1.81a2.66 2.66 0 0 1-.528 1.621c-.349.478-.836.854-1.462 1.128-.626.275-1.354.413-2.185.413-1.09 0-1.993-.234-2.706-.701-.715-.468-1.168-1.15-1.358-2.05l1.559-.384c.148.568.429.994.842 1.278.417.285.962.427 1.635.427.766 0 1.374-.16 1.823-.482.455-.325.682-.715.682-1.168 0-.367-.129-.674-.39-.922-.259-.252-.658-.44-1.196-.564l-1.782-.413c-.978-.228-1.697-.584-2.157-1.065-.454-.486-.682-1.093-.682-1.822 0-.597.17-1.123.508-1.581.344-.459.81-.82 1.399-1.08.594-.262 1.266-.392 2.018-.392 1.057 0 1.888.229 2.491.687a3.712 3.712 0 0 1 1.295 1.815Zm7.437-2.365v1.375h-5.539v-1.375h5.539Zm-3.925-2.53h1.643v10.066c0 .458.066.803.201 1.031.139.225.316.376.529.455.218.073.448.11.689.11.181 0 .329-.01.445-.028l.279-.055.334 1.458a3.379 3.379 0 0 1-.467.123c-.199.046-.452.07-.758.07-.464 0-.918-.099-1.363-.296a2.696 2.696 0 0 1-1.1-.902c-.288-.403-.432-.911-.432-1.526V21.282Zm10.745 13.312c-.965 0-1.812-.228-2.54-.681-.724-.454-1.289-1.088-1.698-1.904-.404-.817-.605-1.77-.605-2.861 0-1.1.201-2.06.605-2.88.409-.822.974-1.459 1.698-1.912.728-.454 1.575-.68 2.54-.68.964 0 1.809.226 2.533.68.728.453 1.294 1.09 1.698 1.91.408.822.612 1.782.612 2.882 0 1.091-.204 2.044-.612 2.86-.404.816-.97 1.45-1.698 1.905-.724.454-1.569.68-2.533.68Zm0-1.458c.733 0 1.336-.185 1.809-.557a3.28 3.28 0 0 0 1.051-1.464 5.56 5.56 0 0 0 .341-1.967c0-.706-.114-1.364-.341-1.973a3.336 3.336 0 0 0-1.051-1.479c-.473-.376-1.076-.564-1.809-.564-.733 0-1.336.188-1.809.564a3.33 3.33 0 0 0-1.051 1.478 5.585 5.585 0 0 0-.341 1.974c0 .706.113 1.361.341 1.966.206.575.57 1.082 1.051 1.465.473.372 1.076.557 1.809.557Zm11.508 1.458c-.89 0-1.677-.223-2.359-.668-.682-.448-1.216-1.081-1.6-1.897-.385-.82-.577-1.79-.577-2.909 0-1.108.192-2.07.577-2.887.384-.816.92-1.446 1.607-1.891.687-.445 1.48-.667 2.38-.667.695 0 1.246.115 1.649.344.408.224.719.481.933.77.218.284.387.518.508.701h.139v-5.198h1.642v14.081h-1.587v-1.622h-.194c-.121.192-.292.435-.516.729-.222.289-.54.548-.953.777-.412.224-.963.337-1.649.337Zm.223-1.458c.659 0 1.215-.17 1.67-.509.454-.343.8-.818 1.036-1.422.237-.61.355-1.314.355-2.112 0-.789-.116-1.478-.347-2.07-.233-.596-.575-1.058-1.03-1.389-.454-.335-1.016-.502-1.684-.502-.696 0-1.276.177-1.74.53-.459.349-.805.823-1.036 1.423-.228.596-.342 1.265-.342 2.008 0 .752.116 1.435.349 2.049.236.61.584 1.095 1.043 1.458.464.358 1.04.536 1.726.536Zm9.091 5.198c-.277 0-.525-.023-.743-.068a1.971 1.971 0 0 1-.453-.124l.418-1.43c.399.1.751.137 1.057.11a1.27 1.27 0 0 0 .815-.407c.24-.238.461-.625.66-1.162l.306-.825-3.952-10.616h1.781l2.951 8.416h.111l2.951-8.415h1.781l-4.537 12.101c-.204.546-.457.996-.759 1.355-.301.361-.652.63-1.05.803-.422.18-.877.27-1.337.262Z"/><defs><linearGradient id="a" x1="15.818" x2="50.261" y1="-5.804" y2="32.002" gradientUnits="userSpaceOnUse"><stop stop-color="#4777C8"/><stop offset="1" stop-color="#1D53AE"/></linearGradient><linearGradient id="b" x1="40.477" x2="46.535" y1="11.164" y2="38.539" gradientUnits="userSpaceOnUse"><stop stop-color="#4777C8"/><stop offset="1" stop-color="#1D53AE"/></linearGradient></defs></svg>
