<svg xmlns="http://www.w3.org/2000/svg" width="167" height="52" fill="none"><path fill="#973EDF" d="M0 34.324V15.097h4.45l8.705 11.811c-.092-.806-.175-1.556-.248-2.252a42.028 42.028 0 0 1-.111-2.28c-.018-.806-.028-1.74-.028-2.802v-4.477h4.837v19.227H13.1L4.505 22.76c.092.806.156 1.484.193 2.033.056.55.092 1.08.11 1.593.02.513.028 1.108.028 1.786v6.152H0ZM31.244 34.6c-1.456 0-2.8-.247-4.035-.741a9.505 9.505 0 0 1-3.206-2.088 9.502 9.502 0 0 1-2.1-3.159c-.498-1.208-.747-2.536-.747-3.983 0-1.446.249-2.774.746-3.983a9.435 9.435 0 0 1 2.1-3.186 9.503 9.503 0 0 1 3.207-2.088c1.234-.494 2.58-.741 4.035-.741 1.474 0 2.828.247 4.062.742a9.505 9.505 0 0 1 3.206 2.087 9.436 9.436 0 0 1 2.1 3.186c.498 1.209.747 2.537.747 3.983 0 1.429-.249 2.756-.746 3.983a9.503 9.503 0 0 1-2.1 3.159 9.506 9.506 0 0 1-3.207 2.088c-1.234.494-2.588.741-4.062.741Zm0-4.614c.976 0 1.842-.23 2.598-.687a5.17 5.17 0 0 0 1.796-1.923c.442-.806.663-1.721.663-2.747 0-1.044-.22-1.968-.663-2.774a4.958 4.958 0 0 0-1.796-1.895c-.756-.458-1.622-.687-2.598-.687-.977 0-1.843.229-2.598.687a4.958 4.958 0 0 0-1.797 1.895c-.423.806-.635 1.73-.635 2.774 0 1.026.212 1.941.636 2.747a5.17 5.17 0 0 0 1.796 1.923c.755.458 1.621.687 2.598.687ZM48.17 34.324l-5.722-19.227h5.058l2.736 9.806c.129.458.24.915.332 1.373.092.458.175.888.248 1.291.074-.44.157-.87.249-1.29.11-.44.249-.907.415-1.402l2.763-7.416h3.925l2.736 7.416c.166.477.304.925.414 1.346.13.403.24.797.332 1.181.037-.348.092-.723.166-1.126.073-.403.184-.87.331-1.4l2.736-9.78h4.92l-5.776 19.228h-3.814l-4.201-10.163-3.842 10.163H48.17Z"/><path fill="#202020" d="M72.406 34.324V15.097h1.99L86.53 31.056a95.788 95.788 0 0 1-.194-4.34c-.018-.824-.036-1.63-.055-2.418v-9.201h2.184v19.227h-2.018l-12.16-15.821c.073 1.099.129 2.142.166 3.131a87.451 87.451 0 0 1 .138 3.956v8.734h-2.184ZM99.711 34.6c-1.418 0-2.69-.32-3.814-.96a7.303 7.303 0 0 1-2.625-2.665c-.645-1.135-.967-2.426-.967-3.873 0-1.428.322-2.701.967-3.818a7.034 7.034 0 0 1 2.625-2.664c1.124-.641 2.396-.962 3.814-.962 1.419 0 2.681.32 3.787.962a6.79 6.79 0 0 1 2.625 2.664c.645 1.117.967 2.39.967 3.818 0 1.447-.322 2.738-.967 3.873a7.039 7.039 0 0 1-2.625 2.664c-1.106.641-2.368.962-3.787.962Zm0-1.977c1.014 0 1.907-.238 2.681-.714a4.977 4.977 0 0 0 1.851-1.95c.443-.843.664-1.795.664-2.857 0-1.062-.221-1.996-.664-2.802a4.977 4.977 0 0 0-1.851-1.95c-.774-.476-1.667-.714-2.68-.714-1.014 0-1.917.238-2.709.714a4.975 4.975 0 0 0-1.852 1.95c-.442.824-.663 1.758-.663 2.802 0 1.062.22 2.014.663 2.857a4.975 4.975 0 0 0 1.852 1.95c.792.476 1.695.714 2.708.714ZM116.004 34.601c-1.327 0-2.515-.32-3.565-.961-1.033-.641-1.852-1.52-2.46-2.637-.59-1.136-.884-2.427-.884-3.873 0-1.429.303-2.701.912-3.818.608-1.136 1.428-2.024 2.459-2.665 1.032-.659 2.193-.989 3.483-.989 1.105 0 2.118.257 3.04.77.939.494 1.667 1.107 2.183 1.84V14h2.1v20.326H121.2l-.056-2.417c-.46.751-1.161 1.392-2.1 1.923-.94.513-1.953.77-3.04.77Zm.276-1.923c.958 0 1.815-.238 2.57-.714a4.907 4.907 0 0 0 1.769-1.95c.442-.842.663-1.804.663-2.884 0-1.08-.221-2.033-.663-2.857a4.865 4.865 0 0 0-1.769-1.978c-.755-.476-1.612-.714-2.57-.714-.976 0-1.842.238-2.598.714-.756.476-1.345 1.136-1.769 1.978-.423.824-.635 1.776-.635 2.857 0 1.062.212 2.014.635 2.857.424.842 1.013 1.501 1.769 1.977.756.476 1.622.714 2.598.714ZM133.693 34.6c-1.456 0-2.745-.31-3.869-.933a6.69 6.69 0 0 1-2.598-2.61c-.627-1.116-.94-2.398-.94-3.845 0-1.465.305-2.765.912-3.9a6.702 6.702 0 0 1 2.543-2.665c1.087-.66 2.331-.989 3.731-.989 1.289 0 2.423.302 3.399.907a5.89 5.89 0 0 1 2.294 2.444c.534 1.026.783 2.216.746 3.571l-.027.962h-11.442c.092 1.556.627 2.792 1.603 3.708.976.915 2.275 1.373 3.897 1.373.7 0 1.382-.11 2.045-.33.682-.237 1.428-.695 2.238-1.373l1.079 1.51c-.645.623-1.466 1.145-2.46 1.567a8.318 8.318 0 0 1-3.151.604Zm-.249-12.964c-1.326 0-2.423.357-3.289 1.071-.866.696-1.409 1.721-1.63 3.077h9.259v-.165a4.225 4.225 0 0 0-.581-1.895 4.055 4.055 0 0 0-1.492-1.511c-.627-.385-1.382-.577-2.267-.577ZM147.636 34.6c-1.253 0-2.367-.219-3.344-.658-.957-.458-1.732-1.072-2.321-1.84l1.492-1.292c1.05 1.3 2.497 1.95 4.34 1.95.883 0 1.602-.192 2.155-.576.571-.403.857-.952.857-1.648 0-.586-.258-1.072-.774-1.456-.24-.183-.58-.357-1.023-.522a23.798 23.798 0 0 0-1.603-.522c-1.032-.275-1.888-.568-2.57-.879-.681-.311-1.216-.668-1.603-1.071-.552-.623-.829-1.401-.829-2.335 0-.788.212-1.483.636-2.088.442-.622 1.041-1.108 1.796-1.455.774-.367 1.64-.55 2.598-.55 1.032 0 2.026.22 2.985.66.976.42 1.768.97 2.377 1.647l-1.3 1.401a7.02 7.02 0 0 0-1.851-1.373 4.46 4.46 0 0 0-2.1-.522c-.903 0-1.631.201-2.184.604-.534.403-.801.934-.801 1.594 0 .53.211.97.635 1.318.258.202.618.394 1.078.577.479.165 1.069.339 1.769.522.792.22 1.474.448 2.045.687.571.22 1.041.485 1.409.796.922.696 1.382 1.648 1.382 2.857 0 .806-.23 1.529-.691 2.17-.46.622-1.086 1.117-1.879 1.483-.792.348-1.685.522-2.681.522Z"/></svg>
