<svg width="167" height="48" viewBox="0 0 167 48" fill="none" xmlns="http://www.w3.org/2000/svg">
<path d="M102.407 25.5753H99.433V31.6033C99.433 31.9803 99.4677 32.2967 99.5456 32.5437C99.6192 32.7777 99.7231 32.9597 99.8529 33.0897C99.9828 33.2197 100.139 33.3151 100.316 33.3757C100.507 33.4191 100.714 33.4407 100.935 33.4407C101.186 33.4407 101.442 33.4061 101.706 33.3324C101.97 33.2587 102.212 33.1634 102.433 33.0464L102.498 34.3811C101.952 34.6281 101.299 34.7538 100.537 34.7538C100.256 34.7538 99.9655 34.7191 99.6538 34.6455C99.3594 34.5718 99.0867 34.4331 98.84 34.2295C98.5889 34.0258 98.3855 33.7484 98.221 33.3974C98.0608 33.0464 97.9786 32.5914 97.9786 32.0193V25.5753H95.7969V24.2666H97.9786V21.3848H99.433V24.2666H102.407V25.5753ZM105.212 27.4518C105.212 27.0011 105.199 26.5417 105.169 26.0737C105.156 25.6057 105.138 25.0033 105.125 24.2623H106.558V26.1647H106.601C106.705 25.8873 106.853 25.6273 107.043 25.376C107.233 25.1116 107.463 24.882 107.727 24.6783C108.008 24.4746 108.32 24.3143 108.675 24.1973C109.043 24.0673 109.454 24.0023 109.909 24.0023C110.32 24.0023 110.679 24.0456 110.987 24.1323L110.701 25.5537C110.51 25.48 110.229 25.4453 109.865 25.4453C109.307 25.4453 108.831 25.5537 108.433 25.7747C108.034 25.9784 107.705 26.247 107.441 26.5807C107.177 26.9014 106.978 27.2524 106.848 27.6294C106.731 28.0065 106.671 28.3705 106.671 28.7215V34.4895H105.216V27.4518H105.212ZM118.908 29.3975C118.54 29.3975 118.077 29.4192 117.519 29.4625C116.973 29.4929 116.445 29.5795 115.93 29.7269C115.432 29.8569 114.999 30.0692 114.631 30.3596C114.281 30.6499 114.103 31.053 114.103 31.56C114.103 31.8937 114.168 32.184 114.302 32.4354C114.45 32.6694 114.64 32.8644 114.874 33.0247C115.107 33.1721 115.367 33.2804 115.644 33.3541C115.939 33.4104 116.233 33.4407 116.527 33.4407C117.055 33.4407 117.51 33.3541 117.895 33.1764C118.293 33.0031 118.622 32.769 118.886 32.4787C119.151 32.171 119.341 31.8243 119.458 31.43C119.592 31.0226 119.657 30.5936 119.657 30.1429V29.4019H118.908V29.3975ZM119.657 28.2188V27.9545C119.657 26.1907 118.774 25.311 117.012 25.311C115.809 25.311 114.757 25.7097 113.861 26.5114L112.978 25.4843C113.947 24.4919 115.402 23.9979 117.341 23.9979C117.839 23.9979 118.319 24.0716 118.774 24.2146C119.246 24.3619 119.648 24.5873 119.986 24.8906C120.324 25.181 120.596 25.5537 120.8 26.0044C121.008 26.455 121.107 26.9924 121.107 27.6208V32.1883C121.107 32.5827 121.12 32.9944 121.15 33.4321C121.194 33.8524 121.237 34.2035 121.285 34.4808H119.873C119.83 34.2338 119.791 33.9651 119.765 33.6748C119.752 33.3844 119.744 33.0984 119.744 32.821H119.7C119.276 33.5058 118.77 33.9998 118.181 34.3075C117.61 34.5978 116.904 34.7452 116.064 34.7452C115.61 34.7452 115.168 34.6801 114.744 34.5501C114.32 34.4331 113.934 34.2511 113.597 34.0041C113.272 33.7398 113.008 33.4277 112.805 33.0637C112.614 32.6867 112.519 32.249 112.519 31.755C112.519 30.9229 112.731 30.2773 113.16 29.8092C113.601 29.3282 114.142 28.9728 114.791 28.7388C115.454 28.5048 116.151 28.3618 116.887 28.3011C117.635 28.2448 118.319 28.2145 118.934 28.2145H119.657V28.2188ZM132.661 26.6674C132.41 26.2904 132.059 25.9697 131.604 25.7053C131.163 25.4453 130.656 25.311 130.085 25.311C129.483 25.298 128.938 25.3933 128.453 25.597C127.981 25.8007 127.579 26.0867 127.241 26.4507C126.903 26.8147 126.648 27.2524 126.47 27.7594C126.293 28.2535 126.206 28.7952 126.206 29.3759C126.206 29.9566 126.293 30.5026 126.47 31.014C126.648 31.508 126.903 31.937 127.241 32.301C127.579 32.665 127.981 32.9511 128.453 33.1547C128.938 33.3584 129.483 33.4537 130.085 33.4407C130.656 33.4407 131.163 33.3107 131.604 33.0464C132.059 32.7864 132.414 32.4657 132.661 32.0843L133.851 32.9814C133.336 33.5794 132.756 34.0214 132.111 34.3118C131.466 34.5891 130.791 34.7365 130.085 34.7495C129.25 34.7625 128.492 34.6411 127.817 34.3768C127.141 34.0995 126.561 33.7224 126.077 33.2414C125.605 32.7604 125.245 32.1927 124.999 31.5383C124.748 30.8666 124.622 30.1472 124.622 29.3759C124.622 28.6045 124.748 27.8895 124.999 27.2351C125.25 26.5634 125.609 25.9914 126.077 25.5103C126.561 25.0293 127.141 24.6566 127.817 24.3966C128.492 24.1193 129.25 23.9893 130.085 24.0023C130.791 24.0153 131.466 24.1713 132.111 24.4616C132.756 24.739 133.336 25.1766 133.851 25.7747L132.661 26.6674ZM137.898 28.8732L142.768 24.2623H144.95L139.816 28.9382L145.504 34.4851H143.257L137.903 29.1115V34.4851H136.448V17.9743H137.903V28.8732H137.898ZM155.768 28.5915C155.768 27.6164 155.473 26.8277 154.884 26.234C154.296 25.623 153.473 25.3153 152.417 25.3153C151.945 25.3153 151.491 25.4107 151.049 25.6013C150.608 25.7747 150.218 26.0174 149.88 26.3207C149.556 26.6284 149.292 26.9751 149.088 27.3694C148.898 27.7638 148.803 28.1711 148.803 28.5915H155.768ZM148.759 29.7702C148.803 30.2816 148.928 30.7626 149.136 31.2133C149.344 31.664 149.612 32.0583 149.95 32.392C150.287 32.7127 150.677 32.9684 151.118 33.1547C151.56 33.3454 152.036 33.4407 152.551 33.4407C153.33 33.4407 153.997 33.2674 154.556 32.9164C155.127 32.5524 155.56 32.1363 155.854 31.6727L156.98 32.5914C156.361 33.3627 155.681 33.9174 154.928 34.2511C154.192 34.5848 153.4 34.7538 152.547 34.7538C151.781 34.7538 151.071 34.6238 150.409 34.3595C149.764 34.0821 149.205 33.7051 148.733 33.2241C148.261 32.743 147.889 32.1753 147.608 31.521C147.344 30.8666 147.21 30.1516 147.21 29.3802C147.21 28.6088 147.344 27.8938 147.608 27.2394C147.872 26.5851 148.24 26.0174 148.712 25.5363C149.184 25.0553 149.733 24.6826 150.365 24.4226C150.997 24.1453 151.681 24.0066 152.417 24.0066C153.196 24.0066 153.893 24.1453 154.512 24.4226C155.131 24.7 155.642 25.0726 156.053 25.5363C156.477 25.987 156.802 26.5287 157.023 27.1528C157.244 27.7638 157.352 28.4181 157.352 29.1202V29.7746H148.759V29.7702ZM160.815 27.4518C160.815 27.0011 160.802 26.5417 160.772 26.0737C160.759 25.6057 160.741 25.0033 160.728 24.2623H162.161V26.1647H162.204C162.308 25.8873 162.456 25.6273 162.646 25.376C162.836 25.1116 163.066 24.882 163.33 24.6783C163.607 24.4746 163.923 24.3143 164.278 24.1973C164.646 24.0673 165.057 24.0023 165.512 24.0023C165.923 24.0023 166.282 24.0456 166.589 24.1323L166.304 25.5537C166.113 25.48 165.832 25.4453 165.468 25.4453C164.91 25.4453 164.434 25.5537 164.036 25.7747C163.637 25.9784 163.308 26.247 163.044 26.5807C162.78 26.9014 162.581 27.2524 162.451 27.6294C162.334 28.0065 162.274 28.3705 162.274 28.7215V34.4895H160.819V27.4518H160.815Z" fill="#232329"/>
<path fill-rule="evenodd" clip-rule="evenodd" d="M23.9768 3.49007C18.5454 3.49007 13.3307 5.65816 9.48797 9.50119C5.64733 13.3421 3.48862 18.5618 3.48862 24.0022H0C0 17.638 2.52501 11.5298 7.02157 7.03291C11.516 2.53816 17.6168 0 23.9768 0V3.49007Z" fill="#FB9F16"/>
<path fill-rule="evenodd" clip-rule="evenodd" d="M3.48862 24.0022C3.48862 29.4363 5.65464 34.6572 9.49358 38.5044C13.3302 42.3493 18.5436 44.5099 23.9768 44.5099V48C17.6186 48 11.5166 45.4717 7.02462 40.9701C2.53502 36.4709 0 30.3641 0 24.0022H3.48862Z" fill="#709DD9"/>
<path fill-rule="evenodd" clip-rule="evenodd" d="M35.0355 41.2672C37.1053 39.9376 38.9087 38.2522 40.3737 36.2981L43.1646 38.3921C41.4525 40.676 39.3429 42.648 36.9197 44.2044C33.0608 46.6809 28.0622 47.9711 23.564 47.9942L23.546 44.5042C27.4716 44.484 31.8039 43.341 35.0355 41.2672Z" fill="#F28B86"/>
<path fill-rule="evenodd" clip-rule="evenodd" d="M33.6187 5.90611C30.6582 4.32436 27.3597 3.49406 24.006 3.49007L24.0102 1.24815e-06C27.9375 0.00467629 31.7988 0.977141 35.2621 2.82757C38.363 4.48271 41.0561 6.80084 43.1602 9.60791L40.3692 11.7018C38.5689 9.3001 36.2661 7.31911 33.6187 5.90611Z" fill="#60CEF0"/>
<path d="M14.7832 34.5068H18.4107V18.7716H18.467L28.553 34.5068H33.1631V13.9917H29.5313V29.2328H29.475L19.5751 13.9917H14.7832V34.5068ZM38.9637 28.7128C39.4658 29.9825 40.2277 31.1353 41.193 32.0886C42.1626 33.042 43.3227 33.7874 44.5954 34.2641C45.9806 34.7885 47.448 35.0485 48.9328 35.0355C50.4306 35.0355 51.9153 34.7581 53.3135 34.2121C54.5948 33.7094 55.7593 32.9554 56.7462 31.9933C57.7202 31.0313 58.4864 29.8742 58.9972 28.6045C59.5469 27.2091 59.811 25.7226 59.7894 24.2276C59.811 22.7021 59.5383 21.1854 58.9842 19.764C58.4777 18.4813 57.7115 17.3155 56.7332 16.3448C55.7549 15.3871 54.5862 14.6504 53.3005 14.1867C51.898 13.6797 50.4132 13.4413 48.9198 13.476C47.4394 13.463 45.9676 13.723 44.5824 14.2474C43.3098 14.7327 42.154 15.4781 41.1843 16.4315C40.206 17.4065 39.4398 18.5766 38.9334 19.8637C38.3966 21.2981 38.1412 22.8148 38.1758 24.3489C38.1542 25.8483 38.4269 27.3347 38.981 28.7215L38.9637 28.7128ZM42.4656 21.2374C42.786 20.3707 43.2708 19.582 43.8941 18.9059C44.5131 18.2386 45.2664 17.7012 46.1018 17.3372C47.0108 16.9515 47.9935 16.7565 48.9761 16.7738C49.9631 16.7608 50.9457 16.9558 51.8591 17.3372C52.6988 17.6969 53.4564 18.2299 54.0754 18.9059C54.6944 19.582 55.1836 20.375 55.5039 21.2374C55.8415 22.1518 56.0017 23.1182 55.993 24.0976C56.0017 25.1333 55.8329 26.1647 55.4866 27.1397C55.1749 28.0281 54.6901 28.8428 54.0581 29.5448C53.4391 30.2252 52.6815 30.7669 51.8374 31.1353C50.9284 31.5296 49.9457 31.729 48.9545 31.716C47.9675 31.729 46.9935 31.5296 46.0845 31.1353C45.249 30.7626 44.4958 30.2209 43.8811 29.5448C43.2535 28.8471 42.7643 28.0281 42.4527 27.1397C42.1107 26.1647 41.9419 25.1333 41.9505 24.0976C41.9419 23.1182 42.115 22.1431 42.457 21.2287L42.4656 21.2374ZM68.5161 34.5068H71.8579L76.585 18.8843H76.6412L81.3856 34.5068H84.8399L90.7746 13.9917H87.0865L83.0868 28.7735H83.0305L78.5286 13.9917H74.953L70.3645 28.7735H70.3082L66.4773 13.9917H62.4818L68.5161 34.5068Z" fill="#00C26F"/>
</svg>
