<svg width="102" height="32" viewBox="0 0 102 32" fill="none" xmlns="http://www.w3.org/2000/svg">
<g clip-path="url(#clip0_40003613_377673)">
<path d="M5.66542 6.22771C5.4894 5.95656 5.24377 5.72703 4.92824 5.53914C4.61239 5.3514 4.25293 5.25754 3.84954 5.25754C3.42511 5.24725 3.04492 5.31507 2.70866 5.46102C2.3724 5.60713 2.08501 5.81061 1.84712 6.07116C1.60892 6.33218 1.42796 6.64232 1.30391 7.0022C1.17986 7.36224 1.11768 7.75096 1.11768 8.16807C1.11768 8.58533 1.17986 8.97389 1.30391 9.33377C1.42796 9.69365 1.60892 10.0041 1.84712 10.2648C2.08501 10.5257 2.3724 10.729 2.70866 10.8751C3.04492 11.0212 3.42511 11.089 3.84954 11.0784C4.25293 11.0784 4.61239 10.9846 4.92824 10.7968C5.24377 10.6091 5.4894 10.3797 5.66542 10.1083L6.50375 10.7499C6.14151 11.1778 5.73286 11.493 5.2775 11.6965C4.82213 11.9 4.34605 12.0068 3.84954 12.0173C3.25961 12.0276 2.7266 11.9363 2.25082 11.7435C1.77474 11.5506 1.36856 11.2819 1.0323 10.9376C0.69573 10.5933 0.43989 10.184 0.26388 9.70924C0.08786 9.23476 0 8.72098 0 8.16806C0 7.61514 0.08786 7.10152 0.26388 6.62673C0.4399 6.15209 0.69573 5.74262 1.0323 5.39834C1.36856 5.05421 1.77474 4.7857 2.25082 4.59251C2.7266 4.39963 3.25961 4.30841 3.84954 4.3187C4.34605 4.32915 4.82213 4.43611 5.2775 4.63944C5.73286 4.84293 6.14151 5.15852 6.50375 5.58623L5.66542 6.22771ZM8.94668 0H9.97125V5.6801H10.0022C10.116 5.48207 10.2608 5.29932 10.4368 5.13233C10.6128 4.96564 10.8096 4.82219 11.0267 4.70213C11.2439 4.58222 11.4741 4.48835 11.7175 4.42037C11.9604 4.35269 12.201 4.3187 12.4392 4.3187C13.3707 4.3187 14.0587 4.56662 14.5035 5.062C14.9484 5.55754 15.1711 6.26435 15.1711 7.18214V11.8295H14.1465V7.77684C14.1465 6.96322 14.007 6.33998 13.7277 5.90697C13.448 5.47412 12.9305 5.25754 12.1754 5.25754C12.1234 5.25754 11.9786 5.27858 11.7407 5.32022C11.5025 5.36201 11.252 5.47661 10.9881 5.66435C10.7242 5.85224 10.4885 6.13384 10.2818 6.50931C10.0746 6.88494 9.97125 7.40667 9.97125 8.07419V11.8295H8.94669L8.94668 0ZM23.0236 7.33869V7.15095C23.0236 5.88888 22.4027 5.25754 21.161 5.25754C20.3125 5.25754 19.5725 5.5446 18.9414 6.11825L18.3206 5.38275C19.0036 4.67344 20.0279 4.3187 21.394 4.3187C21.7457 4.3187 22.0847 4.37109 22.4105 4.47525C22.7365 4.57957 23.0184 4.73877 23.2566 4.95239C23.4944 5.16632 23.6859 5.43514 23.8307 5.75822C23.9755 6.08176 24.0482 6.46784 24.0482 6.91613V10.1865C24.0482 10.4681 24.0609 10.763 24.0868 11.0706C24.1125 11.3784 24.1413 11.6315 24.1722 11.8295H23.1789C23.148 11.6522 23.1245 11.4594 23.109 11.2506C23.0935 11.0419 23.0858 10.8386 23.0858 10.6403H23.0549C22.7545 11.1308 22.4003 11.4829 21.9916 11.6965C21.5827 11.9101 21.0834 12.0173 20.4938 12.0173C20.1727 12.0173 19.8624 11.9728 19.5623 11.8843C19.2619 11.7959 18.9959 11.66 18.7629 11.4775C18.53 11.295 18.3438 11.0706 18.2043 10.8046C18.0644 10.5386 17.9945 10.2283 17.9945 9.87359C17.9945 9.27904 18.147 8.8122 18.4524 8.47306C18.7577 8.13423 19.1407 7.88116 19.601 7.71416C20.0613 7.54747 20.5531 7.44316 21.0756 7.40122C21.5981 7.35974 22.0767 7.33869 22.5113 7.33869H23.0236ZM22.4959 8.18366C22.2372 8.18366 21.914 8.19691 21.5257 8.22279C21.1378 8.24899 20.7654 8.31152 20.4084 8.41053C20.0514 8.50986 19.7457 8.6636 19.4924 8.87207C19.2387 9.08101 19.1122 9.36776 19.1122 9.73279C19.1122 9.97292 19.1611 10.1787 19.2598 10.3509C19.3578 10.523 19.4899 10.6638 19.6554 10.7733C19.8209 10.8829 20.0047 10.961 20.2064 11.0081C20.4084 11.055 20.6125 11.0784 20.8195 11.0784C21.192 11.0784 21.5155 11.0159 21.7896 10.8907C22.0637 10.7655 22.2942 10.596 22.4804 10.3821C22.6666 10.1684 22.8037 9.91803 22.8918 9.63112C22.9797 9.34422 23.0236 9.03907 23.0236 8.71568V8.18366H22.4959ZM28.2918 4.50644C28.3122 4.70478 28.3252 4.90031 28.3305 5.09319C28.3354 5.28638 28.3382 5.48207 28.3382 5.6801H28.3692C28.483 5.48207 28.6278 5.29932 28.8038 5.13233C28.9798 4.96564 29.1766 4.82219 29.3937 4.70213C29.6109 4.58222 29.841 4.48835 30.0845 4.42037C30.3273 4.35269 30.568 4.3187 30.8062 4.3187C31.7377 4.3187 32.4257 4.56662 32.8705 5.062C33.3153 5.55754 33.5381 6.26435 33.5381 7.18214V11.8295H32.5135V7.77684C32.5135 6.96322 32.374 6.33998 32.0947 5.90697C31.815 5.47412 31.2975 5.25754 30.5423 5.25754C30.4904 5.25754 30.3456 5.27858 30.1077 5.32022C29.8695 5.36201 29.6189 5.47661 29.3551 5.66435C29.0912 5.85224 28.8555 6.13384 28.6488 6.50931C28.4416 6.88494 28.3382 7.40667 28.3382 8.07419V11.8295H27.3137V6.11825C27.3137 5.92007 27.3059 5.6698 27.2905 5.36715C27.275 5.06465 27.2567 4.7779 27.2363 4.50644H28.2918ZM37.2882 13.3004C37.5883 13.7072 37.979 14.0331 38.46 14.2784C38.9414 14.5233 39.4769 14.646 40.0665 14.646C40.584 14.646 41.0236 14.5703 41.3859 14.4192C41.7481 14.2679 42.0401 14.0618 42.2629 13.8011C42.4853 13.5402 42.6455 13.2351 42.7442 12.8858C42.8423 12.5362 42.8915 12.1632 42.8915 11.767V10.4525H42.8605C42.5292 10.9532 42.1255 11.308 41.6497 11.5166C41.1736 11.7254 40.6719 11.8295 40.1441 11.8295C39.6164 11.8295 39.122 11.7357 38.6617 11.5479C38.2014 11.36 37.8005 11.102 37.459 10.7733C37.1175 10.4447 36.8483 10.051 36.6519 9.59199C36.4551 9.13309 36.3568 8.6374 36.3568 8.10538C36.3568 7.57336 36.4499 7.07798 36.6361 6.61893C36.8223 6.16004 37.0785 5.75822 37.4045 5.41409C37.7306 5.0698 38.1185 4.8013 38.5686 4.60826C39.0187 4.41522 39.5128 4.3187 40.051 4.3187C40.2685 4.3187 40.4986 4.33975 40.7418 4.38123C40.9846 4.42317 41.2281 4.49615 41.4712 4.60031C41.7144 4.70478 41.9548 4.84823 42.193 5.03066C42.4308 5.21325 42.6533 5.44527 42.8605 5.72703H42.8915V4.50644H43.916V11.767C43.916 12.1632 43.8668 12.5858 43.7685 13.0344C43.6701 13.4828 43.4786 13.8949 43.1943 14.2706C42.9094 14.646 42.5137 14.959 42.0067 15.2094C41.4997 15.4598 40.8374 15.5849 40.0201 15.5849C39.2956 15.5849 38.6487 15.465 38.0798 15.225C37.5106 14.985 36.9931 14.6148 36.5275 14.114L37.2882 13.3004ZM37.4744 8.0742C37.4744 8.46011 37.5444 8.8228 37.6839 9.16163C37.8237 9.50077 38.0149 9.79797 38.2583 10.0535C38.5012 10.3092 38.7861 10.5127 39.1118 10.6638C39.4379 10.8151 39.7924 10.8907 40.1751 10.8907C40.5478 10.8907 40.902 10.823 41.2386 10.6872C41.5746 10.5519 41.8722 10.3613 42.1311 10.1161C42.3894 9.87109 42.5889 9.57624 42.7284 9.23211C42.8683 8.88782 42.9329 8.50206 42.9227 8.0742C42.9227 7.68828 42.8605 7.32575 42.7365 6.98661C42.6121 6.64778 42.4308 6.35043 42.193 6.09471C41.9548 5.83914 41.6652 5.63581 41.324 5.48441C40.9825 5.33332 40.5995 5.25754 40.1751 5.25754C39.7924 5.25754 39.4379 5.33332 39.1118 5.48441C38.7861 5.63582 38.5012 5.83915 38.2583 6.09471C38.0149 6.35043 37.8237 6.64778 37.6839 6.98661C37.5444 7.32575 37.4744 7.68828 37.4744 8.0742ZM47.9463 8.44967C47.9773 8.815 48.0651 9.15913 48.2102 9.48237C48.355 9.80592 48.5465 10.0849 48.7847 10.3195C49.0226 10.5542 49.2967 10.7396 49.6072 10.8751C49.9175 11.0108 50.2538 11.0784 50.616 11.0784C51.1645 11.0784 51.6378 10.9509 52.0362 10.695C52.4347 10.4396 52.7372 10.1449 52.9445 9.81106L53.7361 10.4681C53.3015 11.0212 52.8226 11.4176 52.3001 11.6574C51.7776 11.8972 51.2162 12.0173 50.616 12.0173C50.0781 12.0173 49.5785 11.9208 49.1182 11.7279C48.6575 11.535 48.2619 11.2662 47.9309 10.922C47.5996 10.5778 47.3385 10.1709 47.147 9.70145C46.9555 9.23211 46.8599 8.72098 46.8599 8.16807C46.8599 7.61516 46.953 7.10402 47.1393 6.63453C47.3255 6.16519 47.5841 5.75822 47.9154 5.41409C48.2464 5.0698 48.6343 4.8013 49.0795 4.60826C49.5243 4.41522 50.0054 4.3187 50.5229 4.3187C51.0714 4.3187 51.5629 4.41803 51.9976 4.61606C52.4322 4.81424 52.7969 5.0776 53.0917 5.40629C53.3869 5.73483 53.6118 6.1209 53.7671 6.5642C53.9224 7.00766 54 7.47949 54 7.98017V8.44967H47.9463ZM52.8823 7.6047C52.8823 6.90599 52.6751 6.33998 52.2615 5.90697C51.8475 5.47412 51.2681 5.25754 50.5229 5.25754C50.1916 5.25754 49.8711 5.32287 49.5605 5.45322C49.2502 5.58373 48.9786 5.75822 48.7457 5.9773C48.5128 6.19637 48.3265 6.44679 48.187 6.72839C48.0472 7.01015 47.9773 7.3022 47.9773 7.6047H52.8823Z" fill="black"/>
<path d="M0 16.9368H3.43715L10.4966 27.8502H10.5377V16.9368H13.1309V31.6264H9.83792L2.63438 20.3601H2.59325V31.6264H0V16.9368ZM16.6811 24.3438C16.6811 23.1683 16.873 22.0998 17.2573 21.1382C17.6413 20.177 18.1731 19.3574 18.8523 18.6796C19.5315 18.002 20.341 17.4798 21.281 17.1131C22.2207 16.7467 23.2532 16.5633 24.3784 16.5633C25.5172 16.5497 26.5602 16.7188 27.5069 17.0716C28.4537 17.4243 29.2699 17.9398 29.956 18.6174C30.642 19.2952 31.1771 20.1112 31.5614 21.0656C31.9454 22.02 32.1378 23.0854 32.1378 24.2608C32.1378 25.409 31.9454 26.4532 31.5614 27.3937C31.1771 28.3346 30.642 29.1437 29.956 29.8212C29.2699 30.4992 28.4537 31.0282 27.5069 31.4086C26.5602 31.7888 25.5172 31.9859 24.3784 31.9999C23.2532 31.9999 22.2207 31.8164 21.281 31.45C20.341 31.0837 19.5315 30.565 18.8523 29.8939C18.1731 29.2232 17.6413 28.4175 17.2573 27.4767C16.873 26.5363 16.6811 25.4921 16.6811 24.3438ZM19.3978 24.1777C19.3978 24.9663 19.5178 25.6924 19.7579 26.3564C19.998 27.0202 20.3376 27.5944 20.7768 28.0784C21.2158 28.5628 21.7405 28.9431 22.3512 29.2196C22.9616 29.4965 23.6443 29.6346 24.3992 29.6346C25.1535 29.6346 25.8398 29.4965 26.4572 29.2196C27.0747 28.9431 27.6028 28.5628 28.042 28.0784C28.481 27.5944 28.8206 27.0202 29.0608 26.3564C29.3006 25.6924 29.421 24.9663 29.421 24.1777C29.421 23.4449 29.3006 22.7602 29.0608 22.1238C28.8206 21.4877 28.481 20.9307 28.042 20.4535C27.6028 19.9763 27.0747 19.6029 26.4572 19.3331C25.8398 19.0634 25.1535 18.9285 24.3992 18.9285C23.6443 18.9285 22.9616 19.0634 22.3512 19.3331C21.7405 19.6029 21.2158 19.9763 20.7768 20.4535C20.3376 20.9307 19.998 21.4877 19.7579 22.1238C19.5178 22.7602 19.3978 23.4449 19.3978 24.1777ZM33.8413 16.9368H36.6771L39.4101 27.5183H39.4512L42.7185 16.9368H45.2667L48.4724 27.5183H48.5134L51.3697 16.9368H54L49.7669 31.6264H47.3011L43.9309 20.4432H43.8898L40.5198 31.6264H38.136L33.8413 16.9368Z" fill="#00C26F"/>
<path d="M67.7949 9.01904H66.7949V27.1251H67.7949V9.01904Z" fill="#6A6A7F"/>
<path d="M80.5898 14.1233H82.7451C83.499 14.1233 84.0937 14.2874 84.5293 14.6155C84.9658 14.9431 85.1836 15.4387 85.1836 16.1013C85.1836 16.7639 84.9658 17.261 84.5293 17.5925C84.0937 17.9241 83.499 18.0896 82.7451 18.0896H81.3428V21.5325H80.5898V14.1233ZM81.3428 17.3987H82.5566C82.8916 17.3987 83.1758 17.364 83.4102 17.2942C83.6436 17.2244 83.8301 17.1321 83.9697 17.0169C84.1094 16.9016 84.21 16.7659 84.2734 16.6087C84.3359 16.4519 84.3672 16.283 84.3672 16.1013C84.3672 15.927 84.3359 15.761 84.2734 15.6043C84.21 15.447 84.1094 15.3093 83.9697 15.1907C83.8301 15.0725 83.6436 14.9798 83.4102 14.9134C83.1758 14.8474 82.8916 14.8142 82.5566 14.8142H81.3428V17.3987ZM88.2686 21.5325H87.5156V14.1233H89.7969C90.5498 14.1233 91.1445 14.2874 91.5811 14.6155C92.0166 14.9431 92.2354 15.4387 92.2354 16.1013C92.2354 16.6174 92.0732 17.052 91.7481 17.4041C91.4238 17.7566 90.9551 17.9607 90.3408 18.0164L92.4756 21.5325H91.5547L89.5244 18.0896H88.2686L88.2686 21.5325ZM88.2686 17.3987H89.6084C89.9434 17.3987 90.2275 17.364 90.4609 17.2942C90.6953 17.2244 90.8818 17.1321 91.0215 17.0169C91.1602 16.9016 91.2617 16.7659 91.3242 16.6087C91.3877 16.4519 91.4189 16.283 91.4189 16.1013C91.4189 15.927 91.3877 15.761 91.3242 15.6043C91.2617 15.447 91.1602 15.3093 91.0215 15.1907C90.8818 15.0725 90.6953 14.9798 90.4609 14.9134C90.2275 14.8474 89.9434 14.8142 89.6084 14.8142H88.2686V17.3987ZM102.001 17.8279C102.001 18.3928 101.903 18.9128 101.708 19.387C101.513 19.8616 101.242 20.2712 100.896 20.6169C100.552 20.9622 100.144 21.2327 99.6719 21.428C99.2012 21.6233 98.6904 21.721 98.1396 21.721C97.5879 21.721 97.0771 21.6233 96.6064 21.428C96.1348 21.2327 95.7275 20.9622 95.3818 20.6169C95.0361 20.2712 94.7656 19.8616 94.5703 19.387C94.375 18.9128 94.2773 18.3928 94.2773 17.8279C94.2773 17.2629 94.375 16.7434 94.5703 16.2688C94.7656 15.7942 95.0361 15.3845 95.3818 15.0393C95.7275 14.6936 96.1348 14.4236 96.6064 14.2283C97.0771 14.033 97.5879 13.9348 98.1396 13.9348C98.6904 13.9348 99.2012 14.033 99.6719 14.2283C100.144 14.4236 100.552 14.6936 100.896 15.0393C101.242 15.3845 101.513 15.7942 101.708 16.2688C101.903 16.7434 102.001 17.2629 102.001 17.8279ZM101.185 17.8279C101.185 17.4026 101.114 16.9959 100.976 16.6086C100.836 16.2214 100.635 15.8816 100.373 15.5886C100.111 15.2957 99.793 15.0618 99.416 14.8875C99.0391 14.7131 98.6133 14.6257 98.1396 14.6257C97.665 14.6257 97.2393 14.7131 96.8623 14.8875C96.4854 15.0618 96.167 15.2957 95.9053 15.5886C95.6436 15.8816 95.4424 16.2214 95.3037 16.6086C95.1641 16.9959 95.0938 17.4026 95.0938 17.8279C95.0938 18.2537 95.1641 18.6599 95.3037 19.0471C95.4424 19.4343 95.6436 19.7742 95.9053 20.0676C96.167 20.3606 96.4854 20.5945 96.8623 20.7683C97.2393 20.9431 97.665 21.03 98.1396 21.03C98.6133 21.03 99.0391 20.9431 99.416 20.7683C99.793 20.5945 100.111 20.3606 100.373 20.0676C100.635 19.7742 100.836 19.4343 100.976 19.0471C101.114 18.6599 101.185 18.2537 101.185 17.8279Z" fill="black"/>
</g>
<defs>
<clipPath id="clip0_40003613_377673">
<rect width="102" height="31.9999" fill="white"/>
</clipPath>
</defs>
</svg>
