<svg width="28" height="32" viewBox="0 0 28 32" fill="none" xmlns="http://www.w3.org/2000/svg">
<path d="M7.90621 0.262177L9.43946 2.82019C6.69581 4.17906 4.83984 6.73712 4.83984 9.69474H13.5549H22.2699C22.2699 6.73712 20.4139 4.0992 17.6703 2.82019L19.2034 0.262177C19.2034 0.262177 19.2841 0.102317 19.1228 0.0223808C18.9614 -0.0575554 18.8807 0.10233 18.8807 0.10233L17.3475 2.74024C16.2178 2.26062 14.846 1.94086 13.4741 1.94086C12.1024 1.94086 10.8112 2.26062 9.60082 2.74024L8.0677 0.10233C8.0677 0.10233 7.98696 -0.0575554 7.82559 0.0223808C7.90621 0.182253 7.90621 0.262177 7.90621 0.262177ZM9.43946 5.29825C9.92367 5.29825 10.2464 5.69793 10.2464 6.09761C10.2464 6.57728 9.84292 6.89697 9.43946 6.89697C8.95525 6.89697 8.63253 6.57728 8.63253 6.09761C8.63253 5.69793 8.95525 5.29825 9.43946 5.29825ZM17.751 5.29825C18.2351 5.29825 18.5579 5.69793 18.5579 6.09761C18.5579 6.57728 18.1545 6.89697 17.751 6.89697C17.2668 6.89697 16.9441 6.57728 16.9441 6.09761C16.9441 5.69793 17.2668 5.29825 17.751 5.29825Z" fill="#A4C639"/>
<path d="M4.76172 10.8167V23.9264C4.76172 24.5659 5.56865 25.4451 6.21422 25.4451H8.31217V29.9217C8.31217 31.0408 9.11923 32 10.1681 32C11.2172 32 12.0241 31.1208 12.0241 29.9217V25.4451H15.0099V29.9217C15.0099 31.0408 15.8168 32 16.8658 32C17.9149 32 18.7218 31.1208 18.7218 29.9217V25.4451H20.8197C21.4653 25.4451 22.2724 24.5659 22.2724 23.9264V10.8167H4.76172Z" fill="#A4C639"/>
<path d="M1.85597 10.4922C2.90501 10.4922 3.71194 11.4514 3.71194 12.5706V20.3245C3.71194 21.4436 2.90501 22.4028 1.85597 22.4028C0.806931 22.4028 0 21.4436 0 20.3245V12.5706C0 11.4514 0.887675 10.4922 1.85597 10.4922Z" fill="#A4C639"/>
<path d="M25.3376 10.4922C26.3867 10.4922 27.1936 11.4514 27.1936 12.5706V20.3245C27.1936 21.4436 26.3867 22.4028 25.3376 22.4028C24.2886 22.4028 23.4817 21.4436 23.4817 20.3245V12.5706C23.401 11.4514 24.2886 10.4922 25.3376 10.4922Z" fill="#A4C639"/>
</svg>
