<svg width="20" height="32" viewBox="0 0 20 32" fill="none" xmlns="http://www.w3.org/2000/svg">
<path fill-rule="evenodd" clip-rule="evenodd" d="M13.4261 3.68646C14.2563 2.70105 14.8243 1.36044 14.6666 0C13.4651 0.0504877 11.9626 0.78886 11.0973 1.75262C10.3317 2.60188 9.64789 3.99392 9.82449 5.30295C11.1742 5.39851 12.5599 4.65652 13.4261 3.68646ZM16.4659 12.2314C16.4386 9.34738 18.9347 7.93329 19.0853 7.84794L19.0883 7.84625C17.6532 5.86014 15.4287 5.58874 14.6471 5.56716C13.5041 5.45295 12.382 5.87568 11.4652 6.22106C10.8835 6.44024 10.3843 6.62824 10.0148 6.62824C9.59416 6.62824 9.08059 6.43242 8.50517 6.21288C7.75259 5.92586 6.89413 5.59842 5.99904 5.61583C3.96647 5.64558 2.06491 6.76261 1.02209 8.49713C-1.13018 12.0339 0.474984 17.2314 2.53699 20.0902C3.5685 21.4904 4.77382 23.0536 6.35141 22.9986C7.06709 22.9706 7.57486 22.7678 8.09935 22.5583C8.70598 22.3159 9.33504 22.0646 10.3339 22.0646C11.2762 22.0646 11.8785 22.3081 12.4565 22.5418C13.0105 22.7657 13.5423 22.9806 14.3298 22.9634C15.9863 22.9382 17.0291 21.557 18.0246 20.1443C19.2165 18.5395 19.6952 16.9592 19.7143 16.878C19.6753 16.8654 16.4972 15.7141 16.4659 12.2314Z" fill="white"/>
<path d="M3.11515 25.9086C2.92026 25.6629 2.97957 25.2739 3.24155 25.0792C3.30277 25.0337 3.44739 25 3.5814 25C3.78289 25 3.83678 25.0235 3.97725 25.1725C4.11049 25.3139 4.13985 25.3835 4.13985 25.558C4.13985 26.1381 3.47695 26.3649 3.11515 25.9086Z" fill="white"/>
<path d="M12.8951 26.0674C13.1816 25.6827 13.7229 25.3892 14.3022 25.3043C14.6112 25.259 15.0829 25.2829 15.4211 25.361C16.1679 25.5336 16.8017 26.1984 16.893 26.9051L16.9222 27.1314H16.4665H16.0109L15.9789 26.9918C15.8729 26.5299 15.4343 26.2134 14.8504 26.1775C14.0983 26.1313 13.5527 26.4686 13.511 27.0053C13.4895 27.2812 13.5123 27.3758 13.6392 27.5357C13.8269 27.7724 14.0607 27.8762 14.9642 28.124C15.9382 28.3913 16.3903 28.6077 16.6644 28.9381C16.9334 29.2623 17.0209 29.5739 16.9959 30.1183C16.9524 31.0671 16.4295 31.6849 15.4661 31.9259C15.0704 32.0249 14.2823 32.0247 13.9182 31.9254C13.0768 31.6962 12.5041 31.1026 12.3897 30.3411L12.3574 30.1254H12.8398C13.2729 30.1254 13.3223 30.1348 13.3223 30.217C13.3223 30.2674 13.383 30.4101 13.4573 30.5342C13.8158 31.1334 14.9597 31.3284 15.6108 30.9013C15.9204 30.6982 16.0483 30.4787 16.0483 30.1508C16.0483 29.5973 15.7586 29.3896 14.5302 29.0626C13.6073 28.8169 13.3089 28.6857 13.0109 28.3941C12.6797 28.0701 12.591 27.8521 12.5667 27.3016C12.5417 26.7381 12.623 26.4326 12.8951 26.0674Z" fill="white"/>
<path d="M3.13552 31.8508V29.4404V27.0299H3.58986H4.0442V29.4404V31.8508H3.58986H3.13552Z" fill="white"/>
<path fill-rule="evenodd" clip-rule="evenodd" d="M8.10934 25.3081C7.06498 25.4535 6.27463 26.1487 5.9344 27.221C5.69183 27.9856 5.66375 28.9749 5.86132 29.7946C6.13125 30.9145 6.80592 31.6575 7.79657 31.9258C8.15927 32.0241 8.90391 32.0241 9.29656 31.9259C10.3655 31.6585 11.0467 30.8548 11.2917 29.5717C11.3912 29.0507 11.3676 27.9278 11.2473 27.4612C10.8522 25.9293 9.63693 25.0955 8.10934 25.3081ZM10.4042 28.6734C10.406 27.5385 10.0685 26.7948 9.38317 26.4231C9.09497 26.2668 9.01185 26.246 8.6204 26.2323C8.15028 26.2159 7.91269 26.2764 7.58504 26.4959C6.90558 26.951 6.54694 28.1201 6.73949 29.2523C6.87885 30.072 7.21492 30.6106 7.76672 30.8988C8.05324 31.0485 8.12446 31.0643 8.51485 31.0643C9.08957 31.0643 9.36982 30.9586 9.72803 30.6066C10.1863 30.1564 10.4029 29.5372 10.4042 28.6734Z" fill="white"/>
</svg>
