<svg xmlns="http://www.w3.org/2000/svg" width="18" height="18" fill="none" viewBox="0 0 18 18">
  <path fill="#F0B90B" fill-rule="evenodd" d="m5.821 7.697 3.18-3.18 3.181 3.18 1.85-1.849-5.03-5.03-5.03 5.03 1.849 1.849Zm-3.154-.54L.82 9.004l1.847 1.846 1.847-1.846-1.847-1.847Zm6.335 6.332L5.82 10.31l-1.849 1.849 5.03 5.03 5.03-5.03-1.85-1.85-3.18 3.181Zm6.335-6.332L13.49 9.004l1.847 1.847 1.847-1.847-1.847-1.847Zm-6.334-.029 1.874 1.875-1.874 1.875-1.875-1.875.323-.336.168-.155 1.384-1.384Z" clip-rule="evenodd"/>
</svg>
