<svg xmlns="http://www.w3.org/2000/svg" width="20" height="20" fill="none" viewBox="0 0 20 20">
  <path fill="#335E9F" d="M9.99 19.944c5.488 0 9.937-4.448 9.937-9.936 0-5.487-4.449-9.936-9.936-9.936C4.503.072.055 4.521.055 10.008c0 5.488 4.448 9.936 9.936 9.936Z"/>
  <path fill="#fff" d="m5.577 16.104 1.48-4.808-1.612.492.428-1.184 1.48-.46L9.421 3.34a.348.348 0 0 1 .332-.244h2.112c.232 0 .396.224.332.444l-1.68 5.616 1.516-.428-.276 1.144-1.564.472-1.092 3.488h5.56c.168 0 .288.16.244.32l-.484 1.768a.253.253 0 0 1-.244.184h-8.6Z"/>
</svg>
