<svg xmlns="http://www.w3.org/2000/svg" width="20" height="20" fill="none" viewBox="0 0 20 20">
  <g clip-path="url(#a)">
    <path fill="#E5E5E5" d="M0 0h20v20H0z"/>
    <path fill="#E6007A" d="M20 0H0v20h20V0Z"/>
    <path fill="#fff" d="M10 5.897c1.404 0 2.542-.662 2.542-1.479 0-.817-1.138-1.48-2.542-1.48-1.405 0-2.543.663-2.543 1.48S8.595 5.898 10 5.898Zm0 11.144c1.404 0 2.542-.662 2.542-1.48 0-.816-1.138-1.479-2.542-1.479-1.405 0-2.543.662-2.543 1.48 0 .817 1.138 1.48 2.543 1.48ZM6.455 7.943c.702-1.216.698-2.533-.01-2.941-.708-.409-1.85.246-2.553 1.462-.702 1.216-.697 2.533.01 2.942.708.408 1.85-.246 2.553-1.463Zm9.652 5.573c.703-1.216.698-2.534-.01-2.942-.707-.409-1.85.246-2.552 1.462s-.698 2.534.01 2.942c.707.409 1.85-.246 2.552-1.462Zm-9.662 1.462c.708-.409.712-1.726.01-2.942-.702-1.216-1.845-1.87-2.553-1.462-.707.408-.712 1.725-.01 2.941.703 1.217 1.845 1.871 2.553 1.463Zm9.652-5.571c.708-.409.712-1.726.01-2.942-.702-1.216-1.845-1.871-2.552-1.463-.708.409-.712 1.726-.01 2.942.702 1.216 1.845 1.871 2.552 1.463Z"/>
  </g>
  <defs>
    <clipPath id="a">
      <path fill="#fff" d="M0 0h20v20H0z"/>
    </clipPath>
  </defs>
</svg>
