<svg xmlns="http://www.w3.org/2000/svg" width="20" height="20" fill="none"><path fill="url(#a)" d="M15.175 19.404H4.968l.063-.068c-.395-.097-.618-.365-.797-.69-.274-.496-.56-.985-.84-1.479l-1.826-3.231-1.013-1.784c-.186-.329-.37-.659-.555-.988v-.275c.045-.046.1-.086.134-.14a.543.543 0 0 1 .49-.261c1.486 0 2.973.001 4.46-.001.138 0 .234.054.302.173.168.294.336.589.508.88.198.338.387.681.605 1.005.263.39.755.33.944-.1.034-.078.062-.159.083-.24l.81-3.15c.202-.791.403-1.583.606-2.373.01-.038.035-.073.052-.11a.562.562 0 0 1 .085.245c.024.175.039.351.063.526.097.705.197 1.41.293 2.115.112.822.22 1.645.33 2.467.15 1.12.302 2.24.454 3.36.032.24.063.48.107.717.054.293.245.474.5.493.24.018.45-.134.555-.406.037-.098.068-.198.094-.3.219-.846.44-1.693.653-2.542.346-1.38.686-2.763 1.03-4.144.012-.047.036-.092.069-.173.07.09.126.149.166.218.167.288.338.574.487.87.17.337.423.478.796.474 1.138-.012 2.276-.006 3.414-.006.453 0 .905-.002 1.357.006.341.005.548.23.553.574.003.202-.093.365-.186.528-.595 1.042-1.193 2.081-1.788 3.123-.688 1.205-1.371 2.413-2.065 3.615-.225.391-.411.825-.908.999l.122.073ZM0 8.77v.196c.154.383.44.522.842.52 1.507-.01 3.014.005 4.521-.006.338-.003.571.113.732.407.172.314.351.625.528.937.028.049.059.095.083.135.143-.01.136-.114.155-.189.137-.524.27-1.05.404-1.576.437-1.715.874-3.43 1.313-5.146.022-.088.05-.177.087-.26.095-.21.322-.348.529-.33a.52.52 0 0 1 .466.409c.051.215.08.437.11.656.098.713.191 1.425.286 2.138.099.744.197 1.49.298 2.234.107.796.216 1.592.326 2.388.084.615.17 1.23.256 1.845.012.087.036.172.054.258l.049.004c.018-.058.04-.114.055-.173.21-.823.418-1.646.629-2.469l.774-3.018c.02-.076.041-.153.074-.223.086-.188.22-.325.436-.342a.52.52 0 0 1 .509.261c.165.266.322.537.48.807.2.344.394.69.594 1.035.042.072.094.137.14.203.058.005.102.014.147.014l4.405-.007c.077 0 .156-.003.232-.015.36-.06.562-.39.454-.744a1.078 1.078 0 0 0-.097-.213 2428.931 2428.931 0 0 0-3.943-6.916c-.078-.136-.161-.269-.237-.406-.204-.37-.522-.549-.933-.57-.097-.004-.194-.003-.291-.003L5.52.6c-.09 0-.181.003-.272.002a.96.96 0 0 0-.882.509c-.266.456-.525.916-.788 1.374-.279.486-.561.97-.838 1.459-.298.527-.59 1.059-.888 1.587-.376.664-.755 1.325-1.132 1.988-.193.34-.383.682-.579 1.02-.034.059-.094.102-.142.153v.079Z"/><defs><linearGradient id="a" x1="4.708" x2="15.453" y1="19.253" y2=".856" gradientUnits="userSpaceOnUse"><stop stop-color="red"/><stop offset=".209" stop-color="#F600EF"/><stop offset=".285" stop-color="#D60AF1"/><stop offset=".452" stop-color="#8626F9"/><stop offset=".582" stop-color="#443DFF"/><stop offset=".849" stop-color="#17ADFF"/><stop offset="1" stop-color="#00E8FF"/></linearGradient></defs></svg>
