<svg xmlns="http://www.w3.org/2000/svg" width="20" height="20" fill="none" viewBox="0 0 20 20">
  <circle cx="10" cy="10" r="10" fill="#fff"/>
  <path fill="#000" d="M5.424 15.732H3.633l1.232-1.281c.901-.939 1.79-1.889 2.706-2.812 1.302-1.311 3.352-1.371 4.756-.16a4.7 4.7 0 0 1 .33.317c1.24 1.293 2.48 2.588 3.757 3.922h-1.605c-.706-.652-1.35-1.227-1.97-1.825-.434-.417-.822-.88-1.254-1.298-.911-.881-2.316-.84-3.209.084-.919.951-1.833 1.907-2.75 2.86-.068.07-.141.135-.202.193ZM3.894 4.804l3.559 3.72c1.448 1.513 3.738 1.491 5.194-.04 1.1-1.157 2.21-2.303 3.314-3.455.123-.128.238-.264.397-.44H14.74c-.624.566-1.14 1.008-1.625 1.48-.486.473-.936.981-1.41 1.466-1.003 1.026-2.41 1.003-3.393-.034-.924-.976-1.862-1.938-2.797-2.91H3.706c.09.103.137.16.187.213Z"/>
</svg>
