<svg xmlns="http://www.w3.org/2000/svg" width="20" height="20" fill="none"><circle cx="10" cy="10" r="10" fill="#50AF95"/><path fill="#fff" fill-rule="evenodd" d="M11.325 10.904c-.073.005-.456.028-1.31.028a28.7 28.7 0 0 1-1.328-.028c-2.623-.116-4.58-.572-4.58-1.119 0-.546 1.957-1.002 4.58-1.12v1.784c.171.012.662.041 1.34.041.815 0 1.223-.034 1.296-.04V8.667c2.617.117 4.57.573 4.57 1.118 0 .546-1.953 1.002-4.57 1.118h.002Zm0-2.421V6.887h3.652V4.453H5.035v2.434h3.65v1.595c-2.967.136-5.199.724-5.199 1.429 0 .704 2.232 1.291 5.2 1.428v5.114h2.639v-5.116c2.96-.136 5.189-.723 5.189-1.427 0-.704-2.226-1.291-5.19-1.428h.002Z" clip-rule="evenodd"/></svg>
