<svg xmlns="http://www.w3.org/2000/svg" width="20" height="20" fill="none" viewBox="0 0 20 20">
  <circle cx="10" cy="10" r="10" fill="#EB322A"/>
  <path fill="#fff" fill-rule="evenodd" d="M4.065 3.98a.4.4 0 0 1 .374-.145l10.165 1.613a.4.4 0 0 1 .227.12l2.457 2.577a.398.398 0 0 1 .023.534l-7.38 9.074a.4.4 0 0 1-.683-.105L4.005 4.378a.4.4 0 0 1 .06-.398Zm12.11 4.158L14.56 6.442 11.971 8.73l4.204-.592Zm-2.457-2.02L5.751 4.853l4.968 3.917 3-2.652Zm-2.656 3.549 4.986-.704-5.816 7.152.83-6.448Zm-1.618 6.3L5.322 5.534l4.962 3.912-.84 6.52Z" clip-rule="evenodd"/>
</svg>
