<svg xmlns="http://www.w3.org/2000/svg" width="20" height="20" fill="none"><g clip-path="url(#a)"><path fill="#2775CA" d="M10 20c5.542 0 10-4.458 10-10S15.542 0 10 0 0 4.458 0 10s4.458 10 10 10Z"/><path fill="#fff" d="M12.75 11.584c0-1.458-.876-1.958-2.626-2.167-1.25-.166-1.5-.5-1.5-1.083s.417-.958 1.25-.958c.75 0 1.167.25 1.375.875a.313.313 0 0 0 .292.208h.667a.285.285 0 0 0 .291-.292v-.041a2.082 2.082 0 0 0-1.875-1.709v-1c0-.166-.125-.291-.333-.333h-.625c-.167 0-.292.125-.333.333v.959c-1.25.166-2.042 1-2.042 2.041 0 1.375.833 1.917 2.583 2.125 1.167.209 1.542.459 1.542 1.125 0 .667-.583 1.125-1.375 1.125-1.083 0-1.458-.458-1.583-1.083-.042-.167-.167-.25-.292-.25h-.708a.285.285 0 0 0-.292.292v.041c.167 1.042.833 1.792 2.208 2v1c0 .167.125.292.334.334h.625c.166 0 .291-.125.333-.334v-1c1.25-.208 2.083-1.083 2.083-2.208Z"/><path fill="#fff" d="M7.876 15.958c-3.25-1.167-4.917-4.792-3.708-8 .625-1.75 2-3.084 3.708-3.709.167-.083.25-.208.25-.416v-.584c0-.166-.083-.291-.25-.333-.042 0-.125 0-.167.042-3.958 1.25-6.125 5.458-4.875 9.416A7.496 7.496 0 0 0 7.71 17.25c.167.084.334 0 .375-.166.042-.042.042-.084.042-.167v-.583c0-.125-.125-.292-.25-.375Zm4.417-13c-.167-.084-.334 0-.375.166-.042.042-.042.084-.042.167v.583c0 .167.125.334.25.417 3.25 1.167 4.917 4.792 3.708 8a6.164 6.164 0 0 1-3.708 3.708c-.167.084-.25.209-.25.417v.583c0 .167.083.292.25.334.042 0 .125 0 .167-.042 3.958-1.25 6.125-5.458 4.875-9.417a7.557 7.557 0 0 0-4.875-4.916Z"/></g><defs><clipPath id="a"><path fill="#fff" d="M0 0h20v20H0z"/></clipPath></defs></svg>
