<svg xmlns="http://www.w3.org/2000/svg" width="20" height="20" fill="none"><rect width="20" height="20" fill="#5A3CD0" rx="4"/><path fill="#fff" d="M14.337 6.727h-1.652V6.14c0-.903-.739-1.641-1.641-1.641H9.146c-.903 0-1.641.738-1.641 1.64v.587H5.84a1.31 1.31 0 0 0-1.313 1.312v1.172c1.29.434 2.942.726 4.875.785V9.82a.34.34 0 0 1 .34-.34h.692a.34.34 0 0 1 .34.34v.176c1.921-.059 3.585-.351 4.874-.785V8.039a1.296 1.296 0 0 0-1.312-1.312Zm-5.625-.598c0-.234.2-.422.422-.422h1.91c.234 0 .422.2.422.422v.586H8.712v-.586Z"/><path fill="#fff" d="M10.786 10.758a.34.34 0 0 1-.34.34h-.703a.34.34 0 0 1-.34-.34v-.129c-1.851-.046-3.515-.328-4.875-.761v3.82a1.31 1.31 0 0 0 1.313 1.313h8.496a1.32 1.32 0 0 0 1.324-1.313v-3.82c-1.36.433-3.035.703-4.875.761v.13Z"/></svg>
