<svg xmlns="http://www.w3.org/2000/svg" width="20" height="20" fill="none"><rect width="20" height="20" fill="#A22CFF" rx="4"/><path fill="#fff" d="M10.295 3.861a.445.445 0 0 0-.647.062.497.497 0 0 0 .059.677l.862.753H8.222c-1.917-.004-3.57 1.42-4.05 3.425-.478 2.003.32 4.125 1.975 5.16.217.136.5.062.629-.166a.494.494 0 0 0-.159-.66c-1.289-.806-1.94-2.488-1.554-4.1.385-1.61 1.693-2.7 3.158-2.698h2.348l-.862.753a.497.497 0 0 0-.059.677.445.445 0 0 0 .647.061l1.835-1.602a.49.49 0 0 0 .165-.37.49.49 0 0 0-.165-.369l-1.835-1.603ZM13.408 6.21a.446.446 0 0 1 .636-.137c1.519 1.045 2.228 3.163 1.799 5.139-.43 1.98-1.93 3.44-3.725 3.435h-2.073l.862.753c.194.17.22.473.059.677a.445.445 0 0 1-.647.062l-1.836-1.603a.49.49 0 0 1-.165-.37.49.49 0 0 1 .165-.369l1.836-1.602a.445.445 0 0 1 .646.061.497.497 0 0 1-.058.677l-.862.753H12.12c1.28.003 2.473-1.053 2.828-2.688.356-1.639-.252-3.326-1.408-4.122a.495.495 0 0 1-.132-.666Z"/><path fill="#fff" fill-rule="evenodd" d="M12.218 14.646a3.33 3.33 0 0 1-.1.001h-2.075l.863.753c.194.17.22.473.058.677a.445.445 0 0 1-.646.061l-1.836-1.602a.49.49 0 0 1-.165-.37.49.49 0 0 1 .165-.369l1.836-1.602a.445.445 0 0 1 .646.061.497.497 0 0 1-.059.677l-.861.753h2.075c1.28.003 2.472-1.053 2.828-2.688.356-1.639-.252-3.326-1.409-4.122a.495.495 0 0 1-.131-.666.446.446 0 0 1 .635-.138c1.52 1.046 2.23 3.164 1.8 5.14-.423 1.942-1.875 3.384-3.624 3.434Zm-1.641-1.16h1.542c1.163.002 2.291-.963 2.632-2.53.342-1.574-.247-3.173-1.326-3.915a.695.695 0 0 1-.188-.937.646.646 0 0 1 .919-.196c1.597 1.099 2.325 3.305 1.881 5.346-.445 2.046-2.007 3.597-3.92 3.593v-.1m0 0v.1h-1.54l.46.402a.697.697 0 0 1 .084.952.645.645 0 0 1-.935.088l-1.835-1.603a.69.69 0 0 1-.234-.52.69.69 0 0 1 .234-.52l1.835-1.602a.645.645 0 0 1 .935.088.697.697 0 0 1-.084.952l-.46.402M8.219 6.514c-1.36-.003-2.597 1.013-2.963 2.544-.367 1.537.257 3.128 1.466 3.885.312.195.408.61.227.928a.647.647 0 0 1-.91.237c-1.734-1.085-2.559-3.299-2.062-5.376.498-2.084 2.222-3.583 4.244-3.58h1.813l.23.2h.304L9.706 4.6a.497.497 0 0 1-.06-.677.445.445 0 0 1 .647-.062l1.836 1.603a.49.49 0 0 1 .165.37.49.49 0 0 1-.165.369l-1.836 1.602a.445.445 0 0 1-.646-.061.497.497 0 0 1 .059-.678l.862-.752H8.219m0 .2h1.815H8.22Zm1.815 0-.46.402a.697.697 0 0 0-.084.952.645.645 0 0 0 .935.088l1.835-1.603a.69.69 0 0 0 .234-.52.69.69 0 0 0-.233-.52l-1.836-1.602a.645.645 0 0 0-.935.087.697.697 0 0 0 .084.953l.46.401" clip-rule="evenodd"/><path fill="#fff" d="m8.22 6.314-.001.2h1.815v-.2H8.22Z"/><path fill="#fff" d="m10.264 5.352-.23-.2v1.162h.534l-.862.752a.497.497 0 0 0-.06.678.445.445 0 0 0 .647.061l1.836-1.602a.49.49 0 0 0 .165-.37.49.49 0 0 0-.165-.37l-1.836-1.602a.445.445 0 0 0-.646.062.497.497 0 0 0 .059.677l.862.752h-.304Z"/></svg>
