<svg xmlns="http://www.w3.org/2000/svg" width="20" height="20" fill="none"><rect width="20" height="20" fill="#D93B3B" rx="4"/><path fill="#fff" d="m14.198 9.684-.035-.001a.401.401 0 0 0-.39.41.401.401 0 0 0 .666.29.4.4 0 0 0-.241-.699ZM12.187 10.13c-.012 0-.022-.003-.035-.002a.4.4 0 1 0 .035.001Z"/><path fill="#fff" d="M16.16 10.72c-.142-.873-.604-1.789-1.302-2.576-.902-1.019-2.051-1.659-3.088-1.73a1.784 1.784 0 0 0-.238-.388l-.752-.936c-.447-.555-1.196-.803-2.109-.697-.88.1-1.816.52-2.637 1.18-.818.656-1.429 1.482-1.714 2.32-.297.87-.217 1.656.23 2.209l.432.536c-.08.117-.146.242-.195.373l-.426 1.121c-.253.667-.088 1.438.467 2.173.533.709 1.37 1.302 2.352 1.677a5.696 5.696 0 0 0 2.138.384c.247-.007.491-.033.732-.082.9-.184 1.536-.653 1.789-1.317l.4-1.056c.075.028.154.054.23.074.304.092.62.136.938.13.492-.012.923-.168 1.258-.465l.9-.796c.532-.466.745-1.227.596-2.133Zm-4.973-4.49.037.044c.271.338.37.795.29 1.318l-.43-.534c.076-.267.108-.546.103-.828Zm-.256 1.28.46.572-.007.023a4.08 4.08 0 0 1-.372.783l-.489-.608c.162-.242.297-.5.408-.77Zm1.084 5.02-.589.522a5.446 5.446 0 0 1-.923-.786l.599-.53c.277.295.582.562.913.793Zm-1.237-3.296a5.452 5.452 0 0 1-.829.884l-.501-.622c.168-.144.742-.754.834-.874l.496.612Zm-1.118 2.64c.122.171.251.335.39.492a.798.798 0 0 1-.458.447l.024.047a.8.8 0 0 1-1.012 1.076l-.187-.07-.143.374-.374-.143.143-.373-.376-.143-.143.374-.374-.143.143-.374-.374-.143.143-.373.374.142.545-1.437c.164-.044.327-.096.486-.155l-.232.611.935.353a.403.403 0 0 0 .516-.23.406.406 0 0 0-.026-.333Zm-2.78-1.106c.287-.05.567-.127.84-.232l.488.608a3.924 3.924 0 0 1-.865.2l-.462-.575Zm1.717.218-.494-.615a5.969 5.969 0 0 0 1.034-.627l.501.622a5.422 5.422 0 0 1-1.041.62ZM5.455 9.148l1.15-2.72a.202.202 0 0 1 .146-.12l2.904-.538a.2.2 0 0 1 .234.159.23.23 0 0 1-.012.115l-1.149 2.72a.202.202 0 0 1-.146.12l-2.907.538a.2.2 0 0 1-.234-.159.2.2 0 0 1 .014-.115Zm1.383 2.204c-.528-.034-.953-.227-1.225-.565l-.036-.044c.252.063.51.089.767.08l.065-.002.43.531Zm-2.103.925.02-.053c.08.268.2.525.356.759l-.244.636c-.24-.471-.287-.938-.132-1.342Zm1.008 2.417a3.926 3.926 0 0 1-.596-.627c-.006-.007-.01-.012-.013-.02l.26-.687c.188.223.398.425.625.607l-.276.727Zm1.392.841a5.475 5.475 0 0 1-1.06-.585l.278-.737c.336.226.691.42 1.065.572l-.283.75Zm1.556.407a5.433 5.433 0 0 1-1.182-.267l.283-.747c.381.132.776.224 1.178.276l-.279.738Zm1.302-.052-.023.006a3.848 3.848 0 0 1-.863.075l.276-.727c.12.007.24.006.358.003.172-.005.342-.02.511-.044l-.26.687Zm-.001-4.243c-.01-.014-.021-.03-.032-.042a5.297 5.297 0 0 1-.41-.686c.17-.11.334-.232.496-.36.041-.034.083-.068.124-.104.19.35.41.68.666.982l-.598.531a7.263 7.263 0 0 1-.246-.32Zm1.473 3.18c-.154.406-.499.72-.989.918l.244-.639c.27-.072.53-.184.766-.332l-.02.053Zm1.116-1.222a4.14 4.14 0 0 1-.8-.334l.582-.516c.252.149.515.272.788.37l-.55.487c-.005-.003-.013-.005-.02-.007Zm1.819-.25c-.325.288-.777.407-1.304.351l.51-.453c.23.051.463.075.698.07.047-.002.092-.006.137-.01l-.042.042Zm.573-3.223a.8.8 0 0 1-.775.75h-.07a.799.799 0 0 1-.744-.686l-.418-.11-.088.078c.2.392.046.874-.35 1.074a.798.798 0 1 1 .084-1.375l.089-.077-.059-.429a.798.798 0 1 1 .403.002l.046.344.335.089a.801.801 0 0 1 1.547.34Z"/><path fill="#fff" d="m9.027 12.813-.935-.353-.285.747.934.353a.402.402 0 0 0 .517-.233.4.4 0 0 0-.231-.514ZM13.247 8.611a.4.4 0 1 0-.798-.046.4.4 0 0 0 .798.046ZM6.7 7.228l-.567 1.345.693-.558-.126-.787ZM6.384 8.884l1.436-.265-.743-.293-.693.558ZM8.946 6.309l-1.931.358.17 1.058 1.76-1.416ZM8.435 8.43l.762-1.81-1.76 1.419.998.391Z"/></svg>
