<svg xmlns="http://www.w3.org/2000/svg" width="20" height="20" fill="none"><rect width="20" height="20" fill="#B0BF97" rx="4"/><circle cx="8" cy="8" r="5" fill="#B0BF97"/><path fill="#fff" d="M8 2C4.692 2 2 4.692 2 8c0 3.309 2.692 6 6 6s6-2.691 6-6c0-3.308-2.692-6-6-6Zm0 10.6A4.604 4.604 0 0 1 3.4 8c0-2.536 2.064-4.6 4.6-4.6 2.536 0 4.6 2.064 4.6 4.6 0 2.536-2.064 4.6-4.6 4.6Z"/><circle cx="12.278" cy="12.278" r="5.231" fill="#B0BF97"/><path fill="#fff" stroke="#B0BF97" stroke-width=".3" d="M12 6c-3.308 0-6 2.709-6 6.039 0 3.33 2.692 6.038 6 6.038 3.309 0 6-2.709 6-6.038C18 8.709 15.309 6 12 6Zm0 10.668c-2.536 0-4.6-2.077-4.6-4.63C7.4 9.488 9.465 7.41 12 7.41c2.536 0 4.6 2.077 4.6 4.629 0 2.552-2.064 4.629-4.6 4.629Z"/><path fill="#fff" stroke="#fff" stroke-width=".1" d="M12.131 10.598c.583 0 1.13.175 1.543.492a.496.496 0 0 0 .574 0c.16-.122.16-.32 0-.442a3.21 3.21 0 0 0-1.12-.543v-.653c0-.173-.183-.313-.407-.313-.225 0-.406.14-.406.313v.527c-.062-.003-.122-.007-.184-.007s-.122.004-.183.007v-.527c0-.173-.182-.313-.407-.313-.224 0-.406.14-.406.313v.653a3.21 3.21 0 0 0-1.121.542c-.566.436-.877 1.014-.877 1.63 0 .616.311 1.194.877 1.63.321.247.704.429 1.12.542v.654c0 .172.183.313.407.313.225 0 .407-.14.407-.313v-.528c.06.003.121.007.183.007s.122-.004.184-.007v.528c0 .172.181.313.406.313.224 0 .406-.14.406-.313v-.654c.417-.113.8-.295 1.121-.542.16-.123.16-.32 0-.443a.496.496 0 0 0-.574 0c-.412.317-.96.492-1.543.492-.582 0-1.13-.175-1.542-.492-.412-.317-.64-.739-.64-1.187 0-.449.228-.87.64-1.187.412-.317.96-.492 1.542-.492Z"/></svg>
