<svg xmlns="http://www.w3.org/2000/svg" width="20" height="20" fill="none"><rect width="20" height="20" fill="#9A75BB" rx="4"/><path fill="#fff" fill-rule="evenodd" d="m5.251 8.875 2.365-2.07a.835.835 0 1 1 1.618-.313l1.869.654a.833.833 0 0 1 1.032-.193l2.155-1.84a.834.834 0 1 1 .39.456L12.526 7.41a.834.834 0 1 1-1.622.304l-1.869-.655a.833.833 0 0 1-1.024.199L5.647 9.327a.835.835 0 1 1-.396-.452Zm9.191-1.557a.378.378 0 0 0-.377.377v7.692c0 .207.17.377.377.377h1.27c.208 0 .377-.17.377-.377V7.695a.378.378 0 0 0-.377-.377h-1.27Zm-3.339 3.074a.378.378 0 0 0-.377.377v4.697c0 .207.17.376.377.376h1.27c.208 0 .377-.169.377-.377V10.77a.378.378 0 0 0-.377-.377h-1.27ZM7.765 9.288a.378.378 0 0 0-.377.377v5.88c0 .207.17.376.377.376h1.27c.207 0 .377-.17.377-.377V9.665a.378.378 0 0 0-.377-.377h-1.27Zm-3.339 3.244h1.27c.208 0 .377.17.377.377v2.714c0 .208-.17.377-.377.377h-1.27a.378.378 0 0 1-.377-.377V12.91c0-.207.17-.377.377-.377Z" clip-rule="evenodd"/></svg>
