<svg xmlns="http://www.w3.org/2000/svg" width="20" height="20" fill="none"><rect width="20" height="20" fill="#71A2CE" rx="4"/><path fill="#fff" stroke="#fff" stroke-width=".5" d="M7.53 17.013a1.596 1.596 0 0 1-.655-.941 1.325 1.325 0 0 1 .186-1.057L8.3 13.21c.207-.302.538-.502.919-.555.381-.052.782.046 1.113.273.332.228.568.566.655.94.088.376.02.756-.187 1.058L9.562 16.73a1.326 1.326 0 0 1-.92.555 1.596 1.596 0 0 1-1.112-.272Zm2.474-3.607a.928.928 0 0 0-.647-.158.77.77 0 0 0-.535.323l-1.237 1.803a.77.77 0 0 0-.109.614.927.927 0 0 0 .381.547c.193.133.426.19.647.159a.77.77 0 0 0 .535-.323l1.237-1.803a.77.77 0 0 0 .108-.615.928.928 0 0 0-.38-.546ZM11.447 11.306a1.596 1.596 0 0 1-.654-.94 1.325 1.325 0 0 1 .186-1.058l1.237-1.803c.208-.303.538-.502.92-.555.38-.053.781.045 1.113.273.331.227.567.566.655.94.088.375.02.755-.187 1.058l-1.237 1.803a1.326 1.326 0 0 1-.92.554 1.596 1.596 0 0 1-1.113-.272ZM13.921 7.7a.928.928 0 0 0-.647-.158.77.77 0 0 0-.534.322l-1.238 1.803a.77.77 0 0 0-.108.615.927.927 0 0 0 .38.547c.193.132.426.189.648.158a.77.77 0 0 0 .534-.322l1.237-1.803a.77.77 0 0 0 .109-.615.928.928 0 0 0-.38-.547Z"/><path fill="#fff" stroke="#fff" stroke-width=".5" d="M9.587 14.015a.334.334 0 0 1-.137-.197.277.277 0 0 1 .039-.221l2.327-3.393a.277.277 0 0 1 .193-.116c.08-.011.163.01.233.057.07.048.119.118.137.197a.277.277 0 0 1-.039.221l-2.328 3.393a.277.277 0 0 1-.192.116.334.334 0 0 1-.233-.057ZM13.538 8.257a.333.333 0 0 1-.137-.196.277.277 0 0 1 .04-.222L15.387 5a.277.277 0 0 1 .193-.116c.08-.01.164.01.233.057.07.048.119.119.137.197a.277.277 0 0 1-.039.222l-1.948 2.84a.277.277 0 0 1-.193.116.334.334 0 0 1-.233-.058ZM9.91 7.04a1.596 1.596 0 0 1-.654-.941 1.326 1.326 0 0 1 .186-1.058l1.237-1.803c.208-.301.539-.5.92-.553.38-.052.78.046 1.112.273.331.227.566.565.655.94.088.374.02.754-.186 1.056l-1.237 1.803a1.325 1.325 0 0 1-.92.555A1.596 1.596 0 0 1 9.91 7.04Zm2.475-3.606a.928.928 0 0 0-.648-.159.77.77 0 0 0-.534.323L9.966 5.4a.77.77 0 0 0-.108.614.927.927 0 0 0 .38.546c.193.132.426.19.647.159a.77.77 0 0 0 .535-.322l1.237-1.803a.77.77 0 0 0 .108-.614.928.928 0 0 0-.38-.547ZM5.866 12.934a1.596 1.596 0 0 1-.654-.941 1.326 1.326 0 0 1 .186-1.058l1.237-1.803c.208-.301.539-.5.92-.553.38-.052.78.046 1.112.273.331.227.567.565.655.94.088.374.021.754-.186 1.056L7.9 12.651a1.326 1.326 0 0 1-.92.555 1.596 1.596 0 0 1-1.113-.272Zm2.475-3.606a.928.928 0 0 0-.648-.159.77.77 0 0 0-.534.323l-1.237 1.803a.77.77 0 0 0-.108.614.927.927 0 0 0 .38.546c.193.132.426.19.647.159a.77.77 0 0 0 .535-.322l1.237-1.803a.77.77 0 0 0 .108-.614.928.928 0 0 0-.38-.547Z"/><path fill="#fff" stroke="#fff" stroke-width=".5" d="M7.87 10.01a.334.334 0 0 1-.137-.196.277.277 0 0 1 .039-.221L10.1 6.2a.277.277 0 0 1 .192-.116c.08-.011.164.01.233.057.07.048.119.118.137.197a.277.277 0 0 1-.039.221L8.296 9.952a.277.277 0 0 1-.193.116.334.334 0 0 1-.233-.057ZM4.291 15.227a.334.334 0 0 1-.137-.196.277.277 0 0 1 .04-.222l2.004-2.922a.277.277 0 0 1 .193-.117c.08-.01.163.01.233.058.07.047.119.118.137.196a.277.277 0 0 1-.04.222l-2.004 2.922a.277.277 0 0 1-.193.117.334.334 0 0 1-.233-.058Z"/></svg>
