<svg xmlns="http://www.w3.org/2000/svg" width="20" height="20" fill="none" viewBox="0 0 20 20">
  <rect width="20" height="20" fill="#9660AB" rx="4"/>
  <path fill="#fff" d="m5.793 12.847 3.78 2.152c.249.142.684.124.973-.039l3.641-2.07c.15-.086.23-.195.237-.299.007-.104-.048-.187-.167-.255l-3.78-2.153c-.249-.142-.685-.124-.97.04l-3.644 2.07c-.151.085-.23.193-.237.298-.007.104.048.188.167.256Z"/>
  <path fill="#9660AB" fill-rule="evenodd" d="M11.09 15.916a2.24 2.24 0 0 1-.999.276 1.996 1.996 0 0 1-1.06-.239m0 0-3.78-2.152a1.468 1.468 0 0 1-.506-.466 1.325 1.325 0 0 1-.215-.818c.041-.624.477-1.005.793-1.183l3.642-2.069a2.22 2.22 0 0 1 .998-.278c.308-.012.703.034 1.062.238l3.781 2.155c.155.089.35.233.503.463.164.249.234.535.215.819-.04.628-.482 1.006-.787 1.18l-.004.003-3.644 2.071m-.609-5.735c-.25-.142-.685-.124-.97.04l-3.645 2.07c-.15.085-.23.194-.237.298-.007.105.049.188.168.256l3.779 2.152c.249.143.685.124.973-.038l3.641-2.07c.15-.087.23-.195.238-.3.007-.104-.049-.187-.168-.255l-3.779-2.153Z" clip-rule="evenodd"/>
  <path fill="#fff" d="m5.793 10.5 3.78 2.152c.249.142.684.124.973-.039l3.641-2.07c.15-.086.23-.194.237-.298.007-.105-.048-.188-.167-.256l-3.78-2.153c-.249-.142-.685-.124-.97.04l-3.644 2.07c-.151.085-.23.194-.237.298-.007.105.048.188.167.256Z"/>
  <path fill="#9660AB" fill-rule="evenodd" d="M11.09 13.57c-.323.183-.68.263-.999.276a1.997 1.997 0 0 1-1.06-.238m0 0-3.78-2.152a1.468 1.468 0 0 1-.506-.466 1.325 1.325 0 0 1-.215-.819c.041-.624.477-1.004.793-1.183l3.642-2.069a2.22 2.22 0 0 1 .998-.277c.308-.013.703.033 1.062.238l3.781 2.154c.155.09.35.233.503.463.164.249.234.535.215.82-.04.627-.482 1.005-.787 1.18l-.004.002-3.644 2.071m-.609-5.734c-.25-.143-.685-.125-.97.039l-3.645 2.07c-.15.085-.23.194-.237.298-.007.105.049.189.168.256l3.779 2.153c.249.142.685.124.973-.04l3.641-2.07c.15-.085.23-.194.238-.298.007-.104-.049-.187-.168-.256L10.48 7.836Z" clip-rule="evenodd"/>
  <path fill="#fff" d="m5.793 7.858 3.78 2.153c.249.142.684.124.973-.04l3.641-2.07c.15-.085.23-.194.237-.298.007-.104-.048-.187-.167-.256l-3.78-2.152c-.249-.143-.685-.125-.97.039l-3.644 2.07c-.151.085-.23.194-.237.298-.007.105.048.189.167.256Z"/>
  <path fill="#9660AB" fill-rule="evenodd" d="M11.09 10.93c-.323.183-.68.263-.999.276a1.996 1.996 0 0 1-1.06-.238m0 0L5.25 8.816a1.467 1.467 0 0 1-.506-.466 1.324 1.324 0 0 1-.215-.818c.041-.625.477-1.005.793-1.184L8.965 4.28c.323-.185.681-.265.998-.278.308-.013.703.034 1.062.238l3.781 2.155c.155.088.35.232.503.462.164.25.234.535.215.82-.04.628-.482 1.005-.787 1.18l-.004.002-3.644 2.072m-.609-5.735c-.25-.142-.685-.124-.97.04l-3.645 2.07c-.15.085-.23.193-.237.298-.007.105.049.188.168.256l3.779 2.152c.249.142.685.124.973-.039l3.641-2.07c.15-.086.23-.194.238-.299.007-.104-.049-.187-.168-.255L10.48 5.196Z" clip-rule="evenodd"/>
</svg>
