<svg xmlns="http://www.w3.org/2000/svg" width="20" height="20" fill="none"><rect width="20" height="20" fill="#E6A364" rx="4"/><path fill="#fff" d="M12.6 16.548a6.864 6.864 0 0 0 3.468-2.016h-.92a7.457 7.457 0 0 1-2.548 2.016Zm3.658-6.684a6.864 6.864 0 1 0-6.864 6.864 6.872 6.872 0 0 0 6.864-6.864Zm-12.63 0a5.766 5.766 0 1 1 5.766 5.766 5.773 5.773 0 0 1-5.766-5.766Z"/><path fill="#fff" d="M14.61 9.864a5.217 5.217 0 1 0-10.434 0 5.217 5.217 0 0 0 10.434 0Zm-7.688 2.197v-1.922h-.824a.275.275 0 1 1 0-.55h.824V7.669a.275.275 0 0 1 .468-.195l3.925 3.925v-3.73a.275.275 0 1 1 .549 0V9.59h.823a.275.275 0 1 1 0 .549h-.823v1.922a.274.274 0 0 1-.469.194L7.471 8.33v3.73a.274.274 0 0 1-.55 0Zm9.145-6.865a6.864 6.864 0 0 0-3.468-2.015 7.458 7.458 0 0 1 2.548 2.015h.92Zm.732 4.943a7.369 7.369 0 0 1-1.246 3.844h.975a6.828 6.828 0 0 0 1.37-3.844h-1.099Zm-1.246-4.393A7.369 7.369 0 0 1 16.8 9.59h1.099a6.828 6.828 0 0 0-1.37-3.844h-.975Z"/><path fill="#fff" d="M6.922 12.06V10.14h-.824a.275.275 0 1 1 0-.55h.824V7.669a.275.275 0 0 1 .468-.195l3.925 3.925v-3.73a.275.275 0 1 1 .549 0V9.59h.823a.275.275 0 1 1 0 .549h-.823v1.922a.274.274 0 0 1-.469.194L7.471 8.33v3.73a.274.274 0 0 1-.55 0Z"/><path fill="#E6A364" d="M5.51 8.839a.672.672 0 0 1 .542-.453l1.799-.26.83-1.65a.662.662 0 0 1 .598-.373c.256 0 .484.143.598.374l.805 1.63.025.02 1.799.26a.672.672 0 0 1 .541.452.669.669 0 0 1-.17.687l-1.302 1.267-.01.032.307 1.792a.66.66 0 0 1-.266.652.664.664 0 0 1-.703.05l-1.608-.845-1.64.846a.666.666 0 0 1-.969-.703l.307-1.793-1.311-1.298a.669.669 0 0 1-.171-.687Z"/></svg>