<svg xmlns="http://www.w3.org/2000/svg" width="20" height="20" fill="none"><rect width="20" height="20" fill="#599B83" rx="4"/><path fill="#fff" d="M16 7.302C16 6.597 15.45 6 14.8 6H5.2C4.55 6 4 6.597 4 7.302v.814h12v-.814ZM5.2 14.572h9.6c.65 0 1.2-.597 1.2-1.302V9.906H4v3.364c0 .705.55 1.302 1.2 1.302Zm6.15-3.092H14c.3 0 .55.27.55.596 0 .326-.25.597-.55.597h-2.65c-.3 0-.55-.271-.55-.597-.05-.325.2-.597.55-.597Zm-3.7-.218c.55 0 1 .489 1 1.085 0 .597-.45 1.085-1 1.085s-1-.488-1-1.085c0-.596.45-1.085 1-1.085Zm-1.7 0c.2 0 .35.055.5.163-.15.271-.25.597-.25.922 0 .326.1.652.25.923a.799.799 0 0 1-.5.162c-.55 0-1-.488-1-1.085 0-.596.45-1.085 1-1.085Z"/></svg>
