<svg width="20" height="20" viewBox="0 0 20 20" fill="none" xmlns="http://www.w3.org/2000/svg"><rect width="20" height="20" rx="4" fill="#EE9A79"/><path fill-rule="evenodd" clip-rule="evenodd" d="M3 3.57143C3 3.25584 3.25584 3 3.57143 3H5.98214C6.29773 3 6.55357 3.25584 6.55357 3.57143C6.55357 3.88702 6.29773 4.14286 5.98214 4.14286H4.14286V5.98214C4.14286 6.29773 3.88702 6.55357 3.57143 6.55357C3.25584 6.55357 3 6.29773 3 5.98214V3.57143ZM13.4464 3.57143C13.4464 3.25584 13.7023 3 14.0179 3H16.4286C16.7442 3 17 3.25584 17 3.57143V5.98214C17 6.29773 16.7442 6.55357 16.4286 6.55357C16.113 6.55357 15.8571 6.29773 15.8571 5.98214V4.14286H14.0179C13.7023 4.14286 13.4464 3.88702 13.4464 3.57143ZM5.85714 6.42857C5.85714 6.11298 6.11298 5.85714 6.42857 5.85714H8.57143C8.88702 5.85714 9.14286 6.11298 9.14286 6.42857V8.57143C9.14286 8.88702 8.88702 9.14286 8.57143 9.14286H6.42857C6.11298 9.14286 5.85714 8.88702 5.85714 8.57143V6.42857ZM7 7V8H8V7H7ZM10.1429 6.42857C10.1429 6.11298 10.3987 5.85714 10.7143 5.85714H12.8571C13.1727 5.85714 13.4286 6.11298 13.4286 6.42857V8.57143C13.4286 8.88702 13.1727 9.14286 12.8571 9.14286H10.7143C10.3987 9.14286 10.1429 8.88702 10.1429 8.57143V6.42857ZM11.2857 7V8H12.2857V7H11.2857ZM5.85714 10.7143C5.85714 10.3987 6.11298 10.1429 6.42857 10.1429H8.57143C8.88702 10.1429 9.14286 10.3987 9.14286 10.7143V12.8571C9.14286 13.1727 8.88702 13.4286 8.57143 13.4286H6.42857C6.11298 13.4286 5.85714 13.1727 5.85714 12.8571V10.7143ZM7 11.2857V12.2857H8V11.2857H7ZM10.3502 10.918C10.3502 10.6024 10.606 10.3465 10.9216 10.3465H11.1727C11.4883 10.3465 11.7442 10.6024 11.7442 10.918C11.7442 11.2336 11.4883 11.4894 11.1727 11.4894H10.9216C10.606 11.4894 10.3502 11.2336 10.3502 10.918ZM13.3658 10.3465C13.6814 10.3465 13.9372 10.6024 13.9372 10.918V13.3137C13.9372 13.6293 13.6814 13.8851 13.3658 13.8851H10.9701C10.6545 13.8851 10.3987 13.6293 10.3987 13.3137C10.3987 12.9981 10.6545 12.7422 10.9701 12.7422H12.7944V10.918C12.7944 10.6024 13.0502 10.3465 13.3658 10.3465ZM3.57143 13.4464C3.88702 13.4464 4.14286 13.7023 4.14286 14.0179V15.8571H5.98214C6.29773 15.8571 6.55357 16.113 6.55357 16.4286C6.55357 16.7442 6.29773 17 5.98214 17H3.57143C3.25584 17 3 16.7442 3 16.4286V14.0179C3 13.7023 3.25584 13.4464 3.57143 13.4464ZM16.4286 13.4464C16.7442 13.4464 17 13.7023 17 14.0179V16.4286C17 16.7442 16.7442 17 16.4286 17H14.0179C13.7023 17 13.4464 16.7442 13.4464 16.4286C13.4464 16.113 13.7023 15.8571 14.0179 15.8571H15.8571V14.0179C15.8571 13.7023 16.113 13.4464 16.4286 13.4464Z" fill="white"/><path d="M7 8V7H8V8H7Z" fill="white"/><path d="M11.2857 8V7H12.2857V8H11.2857Z" fill="white"/><path d="M7 12.2857V11.2857H8V12.2857H7Z" fill="white"/></svg>
