<svg xmlns="http://www.w3.org/2000/svg" width="20" height="20" fill="none"><rect width="20" height="20" fill="#EE9A79" rx="4"/><path fill="#fff" d="M14.811 10.199h-2.725a.794.794 0 0 0 0 1.587h2.725c.12 0 .217-.098.217-.217v-1.154a.217.217 0 0 0-.217-.216Zm-2.767 1.18a.387.387 0 1 1 0-.774.387.387 0 0 1 0 .775ZM6.638 7.574h7.382c.1 0 .167-.105.123-.196l-.656-1.359a.918.918 0 0 0-1.113-.473L6.615 7.428c-.08.027-.062.146.023.146Z"/><path fill="#fff" d="M12.087 12.174a1.183 1.183 0 0 1 0-2.363h2.725c.023 0 .045.004.067.007V8.633a.716.716 0 0 0-.715-.715H5.727c-.17-.018-.31-.22-.31-.458 0-.25.154-.462.335-.462h1.49a.194.194 0 0 0 0-.388h-1.49c-.357 0-.653.305-.712.705l-.012-.02v6.702c0 .396.32.716.716.716h8.42c.395 0 .715-.32.715-.715v-1.831c-.022.003-.044.007-.067.007h-2.725Z"/></svg>
