<svg xmlns="http://www.w3.org/2000/svg" width="20" height="20" fill="none"><rect width="20" height="20" fill="#99BFAD" rx="4"/><path fill="#fff" fill-rule="evenodd" d="M12.895 3.515c-.08.017-.398.322-1.758 1.686L9.474 6.866l-.012.141a.394.394 0 0 0 .03.224c.065.123 3.258 3.307 3.352 3.342a.357.357 0 0 0 .326-.025c.137-.07 3.29-3.237 3.328-3.343a.411.411 0 0 0-.01-.326c-.023-.043-.775-.812-1.671-1.71-1.74-1.74-1.695-1.702-1.922-1.654Zm-8.662.966a.532.532 0 0 0-.148.15c-.056.09-.057.148-.057 2.413 0 2.593-.01 2.455.199 2.576.098.057.137.058 2.434.058 2.313 0 2.335 0 2.413-.058a.795.795 0 0 0 .137-.138c.058-.078.058-.1.058-2.418 0-2.302 0-2.342-.057-2.44-.122-.21.016-.2-2.57-.2-2.261 0-2.318.002-2.409.057Zm0 6.322c-.059.04-.11.09-.148.15-.056.09-.057.147-.057 2.413 0 2.593-.01 2.454.199 2.576.098.057.137.058 2.434.058 2.313 0 2.335 0 2.413-.059a.797.797 0 0 0 .137-.137c.058-.078.058-.1.058-2.419 0-2.301 0-2.342-.057-2.44-.122-.21.016-.2-2.57-.199-2.261 0-2.318.002-2.409.057Zm6.326.008c-.206.138-.195-.003-.195 2.563 0 2.207.002 2.305.053 2.407.03.058.097.13.15.162.092.056.145.057 2.43.057 2.313 0 2.335 0 2.412-.059a.775.775 0 0 0 .137-.137c.059-.078.06-.1.06-2.438 0-2.341 0-2.36-.06-2.44a.525.525 0 0 0-.156-.13c-.09-.046-.265-.05-2.416-.05h-2.319l-.096.065Z" clip-rule="evenodd"/></svg>
