<svg width="24" height="24" viewBox="0 0 28 28" fill="none" xmlns="http://www.w3.org/2000/svg">
<g clip-path="url(#clip0_38862_90370)">
<path d="M25.6017 25.9759H2.25511C1.85951 25.9788 1.47021 25.8768 1.12681 25.6803C0.783409 25.4838 0.498309 25.1998 0.300309 24.8573C0.102409 24.5147 -0.00118969 24.1258 1.03074e-05 23.7302C0.00131031 23.3346 0.10731 22.9463 0.30741 22.605L11.3443 3.48959C11.606 3.03667 11.9822 2.66059 12.4352 2.39912C12.8883 2.13765 13.4021 2 13.9252 2C14.4483 2 14.9622 2.13765 15.4152 2.39912C15.8682 2.66059 16.2445 3.03667 16.5061 3.48959L27.543 22.605C27.7431 22.9463 27.8492 23.3346 27.8504 23.7302C27.8517 24.1258 27.748 24.5147 27.5501 24.8573C27.3522 25.1998 27.067 25.4838 26.7236 25.6803C26.3803 25.8768 25.9909 25.9788 25.5953 25.9759H25.6017ZM6.15371 21.4825H21.7096L13.9316 8.0086L6.15371 21.4825Z" fill="url(#paint0_linear_38862_90370)"/>
</g>
<defs>
<linearGradient id="paint0_linear_38862_90370" x1="4.48101" y1="29.1229" x2="23.3854" y2="10.2185" gradientUnits="userSpaceOnUse">
<stop stop-color="#0073D1"/>
<stop offset="0.06" stop-color="#0082CE"/>
<stop offset="0.22" stop-color="#00A0C9"/>
<stop offset="0.39" stop-color="#00B8C4"/>
<stop offset="0.57" stop-color="#00C9C1"/>
<stop offset="0.76" stop-color="#00D3C0"/>
<stop offset="1" stop-color="#00D6BF"/>
</linearGradient>
<clipPath id="clip0_38862_90370">
<rect width="28" height="28" fill="white"/>
</clipPath>
</defs>
</svg>
