<svg fill="none" xmlns="http://www.w3.org/2000/svg" viewBox="0 0 24 24"><path fill-rule="evenodd" clip-rule="evenodd" d="M16.375 1.33c0 .234-.06.454-.166.644l5.405 4.263a1.33 1.33 0 111.1 2.294l-.033 6.848a1.331 1.331 0 11-1.133 2.313l-5.485 4.346a1.33 1.33 0 11-2.5.566l-6.916-1.61a1.33 1.33 0 11-1.989-1.613l-2.975-6.277a1.33 1.33 0 11.023-2.56l3.087-6.246a1.33 1.33 0 112.031-1.541l6.89-1.393V1.33a1.33 1.33 0 112.661 0zm-.5 1.04a1.36 1.36 0 01-.096.07l1.67 3.343 3.838.922c.011-.027.024-.055.037-.082L15.876 2.37zm-1.644.013a1.327 1.327 0 01-.093-.079L11.463 4.35l1.59.378 1.178-2.345zm.43.222l-1.134 2.236 1.24.295.02-2.5a1.325 1.325 0 01-.125-.031zm.625.034l-.016 2.617 1.566.373-1.448-3.013a1.331 1.331 0 01-.102.023zm-.524 3.01l-1.47-.344-1.347 2.656 1.27 1.018 1.523-.33.024-3zm-2.188 3.47l-.864-.694-.503.99 1.367-.296zm-.998-1.454l1.242-2.47-1.867-.436-1.538 1.172 2.163 1.734zm-.234.464l-.698 1.39-1.63.354-1.287-2.658 1.271-.968 2.344 1.882zM8.578 9.968L7.368 7.47 5.784 8.7l-.009 1.879 2.804-.61zm-2.806 1.114l3.024-.663.682 1.407-.727 1.479-2.986-.698.007-1.525zm-.508-.393l.007-1.58-2.75 2.118a1.3 1.3 0 01.026.053l2.717-.591zM2.66 11.765l2.602-.57-.006 1.293-2.596-.608a1.347 1.347 0 000-.115zm-.154.68c.018-.034.035-.07.05-.105l2.698.619-.007 1.69-2.741-2.204zm-.3.378c-.022.02-.045.038-.068.056l2.976 6.296a1.29 1.29 0 01.114-.022l.016-3.89-3.038-2.44zm3.545 2.847l-.016 3.505.026.006 1.25-2.499-1.26-1.012zm1.001 4.716a1.354 1.354 0 01.002.14l6.916 1.615a1.34 1.34 0 01.05-.105l-3.127-2.488-3.84.838zm8.363.972c.06.01.117.024.172.041l1.615-3.313-1.755.387-.032 2.885zm2.349-3.396l-1.79 3.631c.036.026.07.054.103.083l5.489-4.32a1.316 1.316 0 01-.1-.212l-3.702.818zm3.62-1.212l-3.397.759.744-1.511 2.654.614a1.272 1.272 0 000 .139zm.134-.651l.013-.027L19.2 14.44l-.523 1.062 2.542.597zm-3.004-.705l.612-1.254-2.418-1.942-1.196.939-.014 1.55 3.016.707zm-2.997-2.806l.852-.663-.84-.674-.012 1.337zm-.444-1.703l-.02 2.064-1.72 1.34-2.12-.496-.902-1.861.991-1.953 2.082-.45 1.689 1.356zm.006-.652l-1.052-.844 1.062-.23-.01 1.074zm.456.365l1.25 1.003 2.347-1.827-.701-1.443-2.882.624-.014 1.643zm2.69-2.691l-2.676.588.017-2.729 1.826.426.833 1.715zm.727.31l.589 1.199 2.079-1.617a1.312 1.312 0 01-.061-.147l-2.607.566zm2.534-1.027l-2.743.603-.737-1.499 3.486.789c-.003.035-.006.07-.006.107zM9.764 12.418l-.502.99 1.107.258-.605-1.248zm.862 1.778l-1.62-.38-1.33 2.764 1.178.942 2.455-1.914-.683-1.412zM8.82 18.147l1.261 1.043-3.438.745a1.362 1.362 0 00-.025-.054l2.202-1.734zm-.372-.308l-2.12 1.653a1.34 1.34 0 00-.127-.104L7.42 16.99l1.028.85zm.783-.015l2.232-1.756 1.224 2.54-1.94.428-1.516-1.212zm4.188 1.134l1.268-.28-.04 2.683-.06.013-1.168-2.416zm-.51.112l1.212 2.514c-.045.033-.089.068-.13.106l-2.784-2.244 1.703-.376zm.286-.574l-1.323-2.735 1.248-.98 1.567.366v3.02l-1.492.329zm-.627-3.845l-1.399-.328.498 1.029.9-.701zm1.015-.234l1.155.27.01-1.186-1.165.916zm-3.862-3.084l.616-1.252-1.105.242.489 1.01zm8.251 4.558l-.85 1.744-1.924.429v-2.815l2.774.642zm-12.218-.835l1.513 1.217 1.279-2.559-2.783-.639-.01 1.981zm8.094-13.145a1.319 1.319 0 01-.05-.116l-6.89 1.378a1.343 1.343 0 01-.001.11l3.942.913 2.998-2.285zm-7.936 2.6c-.042.012-.085.02-.13.028v3.597l1.382-1.074-1.252-2.55zm-.686-.004c.028.008.056.015.084.02l-.04 4.019-3.026 2.308a1.367 1.367 0 00-.093-.08l3.075-6.267zm16.33 11.159l-2.123-1.701.73-1.479 1.49 3.104a1.357 1.357 0 00-.098.076zm.524-.272c.043-.011.087-.02.131-.027l.047-6.846a1.316 1.316 0 01-.122-.03l-1.718 3.483 1.662 3.42zm-.392-7.137a1.354 1.354 0 01-.084-.073l-2.21 1.692.717 1.536 1.577-3.155zm-1.782 3.666l-.848 1.74-2.235-1.792 2.213-1.739.87 1.791zM7.522 6.806l1.101-.86-2.156-1.732a1.337 1.337 0 01-.13.103l1.185 2.489zm-.75-2.994l2.26 1.813 1.305-1.02-3.546-.834a1.317 1.317 0 01-.02.041z" fill="#30A849"/></svg>
