<svg width="24" height="24" viewBox="0 0 24 24" fill="none" xmlns="http://www.w3.org/2000/svg">
<path d="M0 2.21538C0 0.991861 0.991862 0 2.21538 0H21.7846C23.0081 0 24 0.991862 24 2.21538V21.7846C24 23.0081 23.0081 24 21.7846 24H2.21538C0.991861 24 0 23.0081 0 21.7846V2.21538Z" fill="url(#paint0_linear_933_908)"/>
<path fill-rule="evenodd" clip-rule="evenodd" d="M6.74342 6.81614C6.15599 7.14115 6.11347 7.38413 6.10872 10.4418L6.10434 13.3054L4.94211 12.1675C4.30291 11.5417 3.63168 10.9926 3.45059 10.9471C2.97646 10.8284 2.45157 11.1243 2.19031 11.6578C1.98895 12.069 1.98432 12.1594 2.14503 12.5318C2.38578 13.0896 6.56746 17.2112 7.00206 17.3192C7.18628 17.3649 7.45354 17.3654 7.59587 17.3202C7.73832 17.2751 9.30413 15.7814 11.0756 14.0011L14.2961 10.7638L14.3586 13.6947L14.4212 16.6255L14.7651 16.9686C15.2521 17.4544 16.0149 17.4524 16.4355 16.9642C16.733 16.6189 16.7349 16.5985 16.7349 13.6661V10.7155L17.968 11.925C19.131 13.0657 19.2309 13.1345 19.7246 13.1345C20.4526 13.1345 20.862 12.7204 20.862 11.9841C20.862 11.4526 20.8354 11.42 18.517 9.11368C16.2174 6.82588 15.8094 6.52197 15.2686 6.69328C15.1402 6.73398 13.6037 8.19996 11.8546 9.95099C10.1053 11.7019 8.63053 13.1345 8.57738 13.1345C8.5241 13.1345 8.48058 11.8666 8.48058 10.317C8.48058 8.62336 8.42918 7.40361 8.35176 7.25927C8.20343 6.98245 7.59724 6.63984 7.26745 6.64621C7.14363 6.6487 6.90788 6.72512 6.74342 6.81614Z" fill="white"/>
<mask id="mask0_933_908" style="mask-type:alpha" maskUnits="userSpaceOnUse" x="0" y="0" width="24" height="24">
<rect width="24" height="24" rx="2" fill="url(#paint1_linear_933_908)"/>
</mask>
<g mask="url(#mask0_933_908)">
<path d="M14.8633 24.0923L24.0941 14.4V24.0923H14.8633Z" fill="url(#paint2_linear_933_908)"/>
</g>
<defs>
<linearGradient id="paint0_linear_933_908" x1="-1.63684e-08" y1="0.830769" x2="24" y2="22.8" gradientUnits="userSpaceOnUse">
<stop stop-color="#0097FF"/>
<stop offset="1" stop-color="#005AEA"/>
</linearGradient>
<linearGradient id="paint1_linear_933_908" x1="-1.63684e-08" y1="0.830769" x2="24" y2="22.8" gradientUnits="userSpaceOnUse">
<stop stop-color="#0097FF"/>
<stop offset="0.78125" stop-color="#005CEA"/>
</linearGradient>
<linearGradient id="paint2_linear_933_908" x1="19.571" y1="19.2" x2="23.3556" y2="23.4462" gradientUnits="userSpaceOnUse">
<stop stop-color="#006FEC"/>
<stop offset="1" stop-color="#006FEC"/>
</linearGradient>
</defs>
</svg>
