<svg width="32" height="32" viewBox="0 0 32 32" fill="none" xmlns="http://www.w3.org/2000/svg">
<circle cx="16" cy="16" r="16" fill="white" fill-opacity="0.3"/>
<path d="M11.7593 13.7625C11.3821 14.6425 8.74197 17.4083 8.99341 20.1742C9.99917 31.7405 13.5193 23.9458 18.7996 26.8374C18.7996 26.8374 28.2286 21.5571 20.6854 13.0081C18.5482 9.99085 20.434 7.60216 19.051 5.59064C17.6681 3.57911 15.2794 3.45339 13.5193 5.3392C11.7593 7.225 14.2737 9.99085 11.7593 13.7625Z" fill="#333333"/>
<path d="M21.066 19.5489C21.066 19.5489 22.1975 17.2859 20.0602 15.6516C22.0718 17.7888 20.8146 19.6746 20.8146 19.6746H20.4374C20.3117 15.2744 19.1802 17.6631 17.5458 9.86845C19.4316 7.7312 15.7857 5.8454 15.7857 9.36557H14.6543C14.78 6.34828 12.1399 7.85692 13.6485 9.99417C13.5228 14.6458 10.7569 16.5316 10.7569 19.8003C9.87689 17.5374 11.5113 15.7773 11.5113 15.7773C11.5113 15.7773 9.24829 17.6631 10.6312 20.429C12.0141 23.1948 14.5285 22.5662 12.7685 23.8234C15.5343 25.7092 19.8088 24.452 19.6831 20.429C19.8088 19.4232 22.4489 19.8003 22.7004 20.0518C22.9518 20.3032 22.3232 19.5489 21.066 19.5489ZM14.0257 9.74273C13.1456 9.49129 13.3971 8.3598 13.7742 8.3598C14.1514 8.3598 14.78 9.23985 14.0257 9.74273ZM16.4143 9.86845C15.7857 8.9884 16.2886 8.10836 16.9172 8.23408C17.5458 8.3598 17.5458 9.86845 16.4143 9.86845Z" fill="#EEEEEE"/>
<path d="M10.6291 20.8045L13.2692 24.5762C14.6522 25.4562 13.8978 28.9764 10.1262 27.2163C7.98899 26.5877 6.22891 26.7134 5.97747 25.5819C5.72603 24.4504 6.48035 24.3247 6.35463 23.8218C5.85175 21.056 8.11471 22.4389 8.74332 21.056C9.37192 19.6731 9.37192 19.0445 10.6291 20.8045ZM24.7098 22.5646C24.2069 21.8103 24.7098 20.4274 22.9497 20.5531C22.1954 22.0617 20.0581 23.5704 19.9324 20.5531C18.6752 20.5531 19.5553 23.5704 19.0524 24.9533C17.9209 28.3478 21.1896 28.5992 22.5725 26.9648L25.8413 24.7019C26.0927 24.3247 26.4699 23.9476 24.7098 22.5646ZM13.1435 10.9984C12.7664 10.244 14.5264 9.23828 15.1551 9.23828C15.7837 9.23828 16.6637 9.74116 17.5437 9.9926C18.4238 10.244 18.0466 11.1241 17.7952 11.2498C17.5437 11.3755 16.1608 12.507 15.1551 12.507C14.1493 12.507 13.8978 11.5012 13.1435 10.9984Z" fill="#FFCC22"/>
<path fill-rule="evenodd" clip-rule="evenodd" d="M13.1932 10.9522C13.3819 11.0806 13.5389 11.2385 13.6821 11.4011C13.7507 11.4789 13.8166 11.5584 13.8812 11.6363L13.895 11.653C13.9643 11.7366 14.0323 11.8182 14.1021 11.8957C14.3802 12.2047 14.6788 12.4406 15.1554 12.4406C15.6396 12.4406 16.2236 12.1664 16.7262 11.868C16.9759 11.7197 17.2024 11.5674 17.3829 11.4439C17.4136 11.4228 17.4431 11.4025 17.4712 11.3832C17.5252 11.3461 17.5739 11.3126 17.6161 11.2842C17.6793 11.2417 17.7317 11.2079 17.7674 11.19C17.8136 11.1669 17.8766 11.1013 17.9309 11.002C17.9841 10.9048 18.0241 10.7841 18.0314 10.6611C18.0386 10.5386 18.0133 10.416 17.9386 10.3101C17.8641 10.2044 17.7362 10.1093 17.5268 10.0495C17.1857 9.95202 16.8438 9.81683 16.5196 9.68864C16.4223 9.65015 16.3265 9.61229 16.2329 9.57628C15.8231 9.41865 15.4564 9.2976 15.1554 9.2976C15.0112 9.2976 14.7928 9.35638 14.5476 9.46145C14.3043 9.56573 14.0414 9.71269 13.8097 9.8826C13.5773 10.053 13.3802 10.2437 13.2644 10.4342C13.1524 10.6185 13.1209 10.7939 13.1932 10.9522ZM14.4981 9.34589C14.748 9.23881 14.9853 9.17188 15.1554 9.17188C15.4831 9.17188 15.8707 9.30226 16.278 9.45894C16.3741 9.49588 16.4714 9.53437 16.5698 9.57325C16.8929 9.701 17.2268 9.83301 17.5614 9.92862C17.792 9.99452 17.9469 10.1037 18.0414 10.2377C18.1357 10.3714 18.1654 10.5238 18.1569 10.6685C18.1484 10.8127 18.102 10.9513 18.0412 11.0623C17.9817 11.1712 17.9032 11.2627 17.8236 11.3025C17.7965 11.3161 17.7507 11.3451 17.6863 11.3885C17.6446 11.4166 17.5967 11.4495 17.5431 11.4863C17.515 11.5057 17.4852 11.5262 17.4539 11.5476C17.2729 11.6716 17.0437 11.8257 16.7904 11.9761C16.2873 12.2748 15.677 12.5663 15.1554 12.5663C14.6262 12.5663 14.2962 12.2993 14.0086 11.9798C13.937 11.9001 13.8674 11.8167 13.7983 11.7333L13.7847 11.7169C13.7198 11.6387 13.655 11.5606 13.5878 11.4843C13.444 11.321 13.291 11.1685 13.109 11.0471L13.0951 11.0379L13.0877 11.0229C12.9801 10.8079 13.0288 10.5797 13.157 10.3689C13.2847 10.1587 13.4963 9.95653 13.7353 9.78122C13.9751 9.6054 14.2464 9.45377 14.4981 9.34589ZM9.00182 20.6195C8.94228 20.7586 8.87673 20.9116 8.8009 21.0785C8.63475 21.444 8.35938 21.6262 8.0563 21.7381C7.90581 21.7936 7.74766 21.8322 7.59298 21.8673C7.5661 21.8734 7.53936 21.8794 7.51278 21.8854C7.38513 21.9141 7.26113 21.9419 7.14294 21.977C6.85839 22.0616 6.62253 22.1845 6.48302 22.4436C6.34201 22.7054 6.29211 23.1197 6.41648 23.8051C6.45163 23.9479 6.42373 24.0648 6.37018 24.174C6.34384 24.2277 6.31112 24.28 6.27733 24.3321C6.26932 24.3444 6.26126 24.3567 6.25317 24.3691C6.22659 24.4097 6.19969 24.4507 6.17317 24.4949C6.10479 24.6089 6.04173 24.7393 6.01015 24.9083C5.97855 25.0774 5.97787 25.2888 6.03919 25.5647C6.1561 26.0908 6.62177 26.3346 7.36059 26.5232C7.64794 26.5966 7.97099 26.6603 8.32366 26.7299C8.42168 26.7493 8.52198 26.7691 8.62444 26.7897C9.09446 26.8841 9.60734 26.9945 10.1443 27.1524L10.1489 27.1538L10.1532 27.1558C11.0887 27.5923 11.8299 27.698 12.393 27.6045C12.9547 27.5112 13.3438 27.2191 13.5779 26.8491C13.8128 26.4778 13.8929 26.0258 13.8302 25.6134C13.7674 25.2008 13.563 24.8338 13.2359 24.6256L13.2253 24.6189L10.5783 20.8375C10.5783 20.8375 10.5782 20.8374 10.5782 20.8373C10.264 20.3975 10.0318 20.112 9.85092 19.9501C9.66752 19.786 9.55823 19.7674 9.47743 19.8051C9.43234 19.8261 9.38596 19.8685 9.33614 19.9378C9.28659 20.0067 9.23691 20.0975 9.18344 20.2093C9.12638 20.3287 9.06778 20.4655 9.00182 20.6195ZM9.93475 19.8564C10.1271 20.0285 10.3663 20.3244 10.6806 20.7645L10.681 20.765L13.314 24.5264C13.672 24.7593 13.8882 25.1588 13.9545 25.5945C14.0214 26.0346 13.9364 26.5176 13.6842 26.9163C13.4311 27.3164 13.0109 27.6293 12.4136 27.7285C11.8187 27.8273 11.0526 27.7135 10.1043 27.2717C9.57434 27.1161 9.0673 27.0068 8.59968 26.9129C8.49846 26.8926 8.39897 26.873 8.30143 26.8537C7.94815 26.784 7.62052 26.7193 7.32949 26.645C6.5911 26.4565 6.051 26.1974 5.91647 25.592C5.85207 25.3022 5.85138 25.0736 5.88657 24.8852C5.92179 24.6967 5.9923 24.552 6.06536 24.4303C6.09329 24.3837 6.12203 24.3398 6.14885 24.2989C6.15671 24.2869 6.16441 24.2751 6.17188 24.2636C6.20537 24.212 6.23452 24.1651 6.25729 24.1187C6.30171 24.0281 6.32094 23.9413 6.29401 23.8335L6.29351 23.8315L6.29314 23.8295C6.16652 23.1331 6.21095 22.6836 6.37233 22.384C6.53533 22.0812 6.81021 21.9448 7.10711 21.8565C7.22981 21.82 7.35884 21.7911 7.48656 21.7624C7.51282 21.7565 7.53903 21.7507 7.56511 21.7447C7.71932 21.7097 7.87056 21.6726 8.01277 21.6201C8.29507 21.5159 8.5383 21.3524 8.68645 21.0264C8.75909 20.8666 8.82447 20.7141 8.88453 20.574C8.95217 20.4162 9.01307 20.2742 9.07002 20.1551C9.12459 20.041 9.17804 19.9423 9.23407 19.8644C9.28984 19.7868 9.3515 19.7251 9.42427 19.6911C9.5792 19.6188 9.74492 19.6866 9.93475 19.8564ZM24.757 22.518C24.6419 22.3415 24.582 22.1269 24.5319 21.8975C24.5208 21.8468 24.5102 21.7953 24.4995 21.7434C24.4619 21.5605 24.4233 21.373 24.3605 21.2035C24.2788 20.983 24.1536 20.7842 23.929 20.6507C23.7057 20.518 23.3927 20.4549 22.9456 20.4869L22.9099 20.4894L22.8938 20.5214C22.7084 20.8923 22.4375 21.2639 22.1338 21.5657C21.8292 21.8683 21.4962 22.0963 21.188 22.1865C20.8833 22.2757 20.6082 22.2298 20.3982 21.9929C20.1829 21.75 20.0268 21.2966 19.9956 20.5469L19.9931 20.4867H19.9328C19.7619 20.4867 19.623 20.5384 19.5132 20.6346C19.4048 20.7297 19.3292 20.8641 19.276 21.0226C19.1702 21.3379 19.147 21.7678 19.147 22.2311C19.147 22.4309 19.1513 22.6359 19.1556 22.8423C19.1614 23.1212 19.1673 23.4027 19.1628 23.6778C19.1549 24.1541 19.1156 24.593 18.9937 24.9283L18.9934 24.9291L18.9931 24.9299C18.7076 25.7864 18.6965 26.4539 18.8717 26.947C19.0477 27.4422 19.409 27.754 19.85 27.901C20.724 28.1923 21.909 27.8379 22.6155 27.0083L25.8873 24.7432L25.8939 24.7332C25.9045 24.7174 25.9155 24.7013 25.9266 24.685C26.0446 24.5124 26.1856 24.3061 26.0904 23.9888C26.0397 23.8196 25.9233 23.6231 25.712 23.3838C25.5016 23.1456 25.1944 22.8621 24.757 22.518ZM22.99 20.6099C23.403 20.5848 23.6769 20.6471 23.8648 20.7588C24.0566 20.8728 24.1671 21.0433 24.2426 21.2471C24.3017 21.4068 24.3378 21.5815 24.3751 21.7627C24.3861 21.8161 24.3972 21.87 24.4091 21.9243C24.4603 22.1588 24.5251 22.3968 24.6578 22.596L24.6634 22.6043L24.6713 22.6105C25.1097 22.955 25.4129 23.2352 25.6177 23.467C25.8228 23.6992 25.9265 23.8798 25.97 24.0249C26.0474 24.2828 25.94 24.4411 25.8217 24.6155C25.8132 24.628 25.8046 24.6407 25.796 24.6535L22.5303 26.9143L22.5249 26.9207C21.8478 27.7209 20.7109 28.0554 19.8898 27.7817C19.4822 27.6458 19.1521 27.3604 18.9902 26.9049C18.8276 26.4474 18.8321 25.8107 19.1121 24.9704C19.2414 24.6143 19.2806 24.1578 19.2885 23.6799C19.293 23.4049 19.287 23.1168 19.2812 22.8344C19.2769 22.6278 19.2727 22.4243 19.2727 22.2311C19.2727 21.7671 19.2967 21.3563 19.3952 21.0626C19.4442 20.9166 19.51 20.8046 19.5961 20.7292C19.6686 20.6657 19.7586 20.6253 19.8729 20.615C19.9105 21.3383 20.0666 21.8083 20.3042 22.0763C20.5539 22.3581 20.8838 22.4065 21.2234 22.3071C21.5595 22.2087 21.9101 21.9652 22.2224 21.6549C22.5266 21.3526 22.7989 20.9826 22.99 20.6099Z" fill="#333333"/>
<path d="M13.1445 10.8654C14.1503 11.6198 15.2818 12.2484 17.5447 10.4883L13.1445 10.8654Z" fill="#FFCC22"/>
<path fill-rule="evenodd" clip-rule="evenodd" d="M14.869 11.6853C14.1571 11.6529 13.6096 11.2965 13.1055 10.9185L13.1809 10.8179C13.6826 11.1942 14.2036 11.5292 14.8747 11.5597C15.5453 11.5902 16.3794 11.3167 17.5048 10.4414L17.582 10.5406C16.4445 11.4254 15.5813 11.7177 14.869 11.6853Z" fill="#333333"/>
<path d="M14.526 10.1153C14.2745 10.1153 14.6517 9.86385 14.7774 9.98958L14.526 10.1153ZM15.6575 10.1153C15.7832 9.98958 15.5317 9.86385 15.2803 9.98958L15.6575 10.1153Z" fill="#333333"/>
</svg>
