<svg width="37" height="32" viewBox="0 0 37 32" fill="none" xmlns="http://www.w3.org/2000/svg">
<path d="M21.8768 4.27158V3.77873C15.3763 3.77873 21.2518 7.96799 21.8768 4.27158ZM24.8771 2.05373C25.7521 -0.533754 30.2525 -0.780182 30.7525 2.42338H29.5024C29.1274 0.57517 26.0022 0.451956 26.0022 3.77873C26.0022 5.62693 28.8774 6.73586 29.5024 4.51801H30.7525C30.0025 8.58406 23.3769 7.1055 24.8771 2.05373ZM6.62555 0.0823147H7.87565V1.19124C8.5007 -0.287327 11.2509 -0.41054 11.751 1.31445C12.626 -0.533754 16.1263 -0.41054 16.1263 2.17695V6.73586H14.7512V2.54659C14.7512 0.698383 12.001 0.698383 12.001 2.6698V6.73586H10.6259V2.42338C10.32 1.2701 8.76135 1.03969 8.12567 2.05373L7.87565 2.6698V6.73586H6.62555V0.0823147ZM9.50079 31.9947C3.6253 31.9947 0 27.9286 0 21.3983C0 14.868 3.6253 10.9251 9.50079 10.9251C15.3763 10.9251 19.1266 14.9912 19.1266 21.3983C19.1266 27.8054 15.5013 31.9947 9.50079 31.9947ZM20.5017 6.73586C16.8764 7.59835 16.3764 3.03944 20.1267 2.91623L21.8768 2.79302V2.30016C22.0018 0.821597 19.5016 0.698383 19.1266 2.05373H17.8765C17.8812 1.74954 17.9675 1.45198 18.1265 1.19124C19.1266 -0.533754 23.2519 -0.533754 23.2519 2.17695V6.73586H22.0018V5.62693C21.8474 5.90722 21.6334 6.15138 21.3745 6.34275C21.1157 6.53412 20.8179 6.66821 20.5017 6.73586ZM29.0024 31.9947C24.502 31.7482 21.3768 29.6536 21.1268 25.9572H24.127C27.0022 34.8286 42.3785 25.3411 27.2523 22.2608C24.8771 21.7679 23.1269 20.659 22.3769 19.3037C17.6265 10.1858 36.003 7.47514 36.503 16.8394H33.6278C32.7527 10.8019 21.3768 14.1287 25.5021 18.3179C27.2523 20.0429 30.8776 19.9197 33.5028 21.0287C39.7533 23.8626 36.753 32.2411 29.0024 31.9947ZM9.50079 13.5126C5.50046 13.5126 3.00025 16.593 3.00025 21.3983C3.00025 26.2036 5.50046 29.284 9.50079 29.284C13.5011 29.284 16.1263 26.3268 16.1263 21.3983C16.1263 16.4697 13.6261 13.5126 9.50079 13.5126Z" fill="#2B2B37"/>
</svg>
