<svg width="32" height="32" viewBox="0 0 32 32" fill="none" xmlns="http://www.w3.org/2000/svg">
<path d="M14.6219 2.51131C20.3793 1.63034 26.1476 0.800548 31.9159 0C31.9196 5.05552 31.9159 10.1074 31.9196 15.1629C26.1549 15.1848 20.3902 15.2726 14.6219 15.2908C14.6182 11.0286 14.6182 6.76993 14.6219 2.51131ZM0 4.55106C4.33539 3.88211 8.68942 3.30455 13.0431 2.75988C13.0467 6.95271 13.0467 11.1419 13.0504 15.3347C8.70039 15.331 4.35001 15.3968 0 15.3859V4.55106ZM0 16.7055C4.34672 16.6909 8.69271 16.7603 13.0391 16.753C13.0391 20.9568 13.05 25.1606 13.0431 29.3644C8.70039 28.7207 4.35001 28.1581 0 27.5696V16.7055ZM14.5963 16.8737H31.9159C31.9232 21.9146 31.9159 26.9555 31.9159 32C26.1586 31.1373 20.3902 30.3368 14.6219 29.5549C14.6146 25.3288 14.6036 21.103 14.5963 16.8737Z" fill="#00ADEF"/>
</svg>
